<svg width="24" height="40" viewBox="0 0 24 40" fill="none" xmlns="http://www.w3.org/2000/svg">
<g clip-path="url(#clip0_828_1233)">
<path d="M10.887 22.3523C7.3265 22.3523 4.43015 25.2758 4.43015 28.8697C4.43015 32.4635 7.3265 35.3873 10.887 35.3873C14.4476 35.3873 17.3443 32.4635 17.3443 28.8697C17.3443 25.2758 14.4476 22.3523 10.887 22.3523ZM10.887 39.8071C4.91198 39.8071 0.0509033 34.9007 0.0509033 28.8697C0.0509033 22.8387 4.91198 17.9323 10.887 17.9323C16.8621 17.9323 21.7232 22.8387 21.7232 28.8697C21.7232 34.9007 16.8621 39.8071 10.887 39.8071Z" fill="#C40755"/>
<path d="M13.608 15.6117C13.3276 16.6171 13.3192 16.6419 12.4021 16.3092C9.83533 15.3777 7.46431 14.1106 5.65599 11.9371C4.38789 10.4126 3.68669 8.62204 3.5173 6.60621C3.33838 4.47139 3.64472 2.39087 4.29785 0.350784C4.40238 0.0246315 4.56719 -0.0596962 4.87086 0.0396519C6.89968 0.701583 8.80566 1.59648 10.4751 2.98811C12.2876 4.4995 13.431 6.43601 13.9101 8.7957C14.2634 10.5374 14.2005 12.296 13.901 14.0522C13.8121 14.5735 13.7057 15.092 13.608 15.6117Z" fill="#9FC530"/>
<path d="M14.3239 16.6589C14.8496 12.9448 16.7717 11.5367 18.7547 10.9051C21.0452 10.1469 23.4361 10.9055 23.7485 11.5112C24.0606 12.117 23.414 13.0572 23.0691 13.0213C21.3077 12.8378 20.0598 12.8704 18.4976 13.3119C16.8548 13.7764 15.3094 16.1343 15.0129 16.7602C14.9832 16.8231 14.9359 17.0051 14.7955 16.9539C14.7432 16.935 14.6383 16.8915 14.4807 16.8417C14.4369 16.8279 14.3068 16.7963 14.3239 16.6589Z" fill="#5A3114"/>
</g>
<defs>
<clipPath id="clip0_828_1233">
<rect width="23.8298" height="40" fill="white"/>
</clipPath>
</defs>
</svg>
