<svg width="40" height="40" viewBox="0 0 40 40" fill="none" xmlns="http://www.w3.org/2000/svg">
<g clip-path="url(#clip0_598_202)">
<rect width="40" height="40" rx="9" fill="#FEFFFA"/>
<path d="M30.736 0.000184676H9.21885C7.99961 0.000205641 6.79241 0.241247 5.66665 0.709449C4.54089 1.17765 3.51878 1.86378 2.65909 2.72838C1.80344 3.59112 1.12779 4.61534 0.671421 5.7415C0.215056 6.86766 -0.0129248 8.0733 0.000730965 9.28835V30.7118C-0.0146402 31.9271 0.212555 33.1333 0.669017 34.2597C1.12548 35.3861 1.80204 36.4101 2.65909 37.2718C3.51744 38.1376 4.53901 38.8246 5.66465 39.2929C6.79029 39.7612 7.99764 40.0015 9.2168 40H18.9867V25.7108H15.2535C15.0221 25.7103 14.8002 25.6184 14.6362 25.4551C14.4722 25.2919 14.3793 25.0705 14.3776 24.839V20.2524C14.3774 20.1345 14.4004 20.0178 14.4455 19.9089C14.4907 19.8 14.5569 19.7011 14.6404 19.6179C14.724 19.5348 14.8231 19.469 14.9322 19.4244C15.0413 19.3798 15.1582 19.3572 15.2761 19.358H18.9867V14.8863C18.8826 13.8294 19.0117 12.7626 19.3646 11.761C19.7176 10.7594 20.286 9.84744 21.0297 9.08937C21.7744 8.32821 22.676 7.73847 23.6718 7.36119C24.6675 6.98391 25.7336 6.82816 26.7956 6.90477H30.5986C30.7151 6.90502 30.8304 6.92846 30.9377 6.97373C31.0451 7.01899 31.1424 7.08517 31.2239 7.16842C31.3054 7.25166 31.3696 7.3503 31.4126 7.45858C31.4556 7.56686 31.4766 7.68263 31.4744 7.79912V11.676C31.4744 11.7908 31.4517 11.9044 31.4076 12.0103C31.3636 12.1162 31.2989 12.2124 31.2175 12.2932C31.1361 12.3741 31.0395 12.438 30.9333 12.4813C30.8271 12.5247 30.7133 12.5466 30.5986 12.5458H28.2951C25.7598 12.5458 25.2757 13.7396 25.2757 15.4811V19.3355H30.8057C30.9304 19.3348 31.0538 19.3608 31.1677 19.4115C31.2815 19.4623 31.3833 19.5367 31.4661 19.6299C31.549 19.723 31.6111 19.8328 31.6482 19.9518C31.6854 20.0708 31.6968 20.1963 31.6816 20.3201L31.1278 24.9088C31.1053 25.1245 31.003 25.3241 30.8409 25.4683C30.6789 25.6125 30.4688 25.691 30.2519 25.6883H25.2983V39.9774H30.7832C32.0021 39.9772 33.2089 39.7361 34.3343 39.2679C35.4598 38.7997 36.4815 38.1137 37.3409 37.2492C38.1967 36.3862 38.8724 35.3616 39.3288 34.2351C39.7852 33.1086 40.0131 31.9026 39.9993 30.6872V9.28835C40.0149 8.06913 39.7863 6.85911 39.3269 5.72965C38.8675 4.60018 38.1867 3.57412 37.3245 2.71197C36.4611 1.84542 35.434 1.15937 34.3028 0.693799C33.1717 0.228227 31.9592 -0.00755787 30.736 0.000184676Z" fill="#BC0051"/>
</g>
<defs>
<clipPath id="clip0_598_202">
<rect width="40" height="40" rx="9" fill="white"/>
</clipPath>
</defs>
</svg>
