<svg width="40" height="40" viewBox="0 0 40 40" fill="none" xmlns="http://www.w3.org/2000/svg">
<g clip-path="url(#clip0_262_129)">
<path d="M30.625 0H9.375C4.19733 0 0 4.19733 0 9.375V30.625C0 35.8027 4.19733 40 9.375 40H30.625C35.8027 40 40 35.8027 40 30.625V9.375C40 4.19733 35.8027 0 30.625 0Z" fill="#BC0051"/>
<mask id="mask0_262_129" style="mask-type:luminance" maskUnits="userSpaceOnUse" x="4" y="7" width="32" height="26">
<path d="M4.375 7.96875H35.625V32.1766H4.375V7.96875Z" fill="white"/>
</mask>
<g mask="url(#mask0_262_129)">
<path d="M30.8293 10.125C28.8033 9.19494 26.6652 8.53175 24.4685 8.152C24.4485 8.14831 24.4279 8.151 24.4096 8.1597C24.3912 8.16839 24.3761 8.18265 24.3663 8.20044C24.0916 8.68888 23.7872 9.32638 23.5743 9.82731C21.1722 9.46763 18.7827 9.46763 16.4301 9.82731C16.2169 9.31513 15.9016 8.68888 15.6257 8.20044C15.6155 8.18301 15.6002 8.16907 15.582 8.16043C15.5637 8.15179 15.5433 8.14885 15.5233 8.152C13.3265 8.53098 11.1883 9.19421 9.16256 10.125C9.14522 10.1323 9.13059 10.1449 9.12069 10.1609C5.06944 16.2134 3.95975 22.1172 4.50412 27.9478C4.50564 27.9621 4.51002 27.9759 4.517 27.9885C4.52398 28.001 4.53341 28.0121 4.54475 28.0209C7.21756 29.9839 9.80678 31.1756 12.3479 31.9654C12.3676 31.9713 12.3887 31.9711 12.4083 31.9646C12.4279 31.9582 12.4451 31.946 12.4576 31.9295C13.0587 31.1086 13.5944 30.2431 14.054 29.3329C14.0603 29.3205 14.0639 29.3068 14.0646 29.2928C14.0652 29.2789 14.0629 29.2649 14.0578 29.2519C14.0527 29.2389 14.0449 29.2271 14.0348 29.2174C14.0248 29.2076 14.0129 29.2001 13.9997 29.1953C13.1497 28.8728 12.3405 28.4798 11.5621 28.0334C11.5479 28.0251 11.536 28.0133 11.5274 27.9993C11.5188 27.9853 11.5138 27.9693 11.5129 27.9529C11.5119 27.9365 11.515 27.9201 11.5218 27.9051C11.5287 27.8902 11.5392 27.8771 11.5522 27.8672C11.7165 27.7444 11.8779 27.6179 12.0363 27.4878C12.0502 27.4763 12.067 27.4689 12.0848 27.4665C12.1027 27.4641 12.1208 27.4667 12.1372 27.474C17.2516 29.809 22.7883 29.809 27.8422 27.474C27.8587 27.4662 27.8771 27.4632 27.8952 27.4655C27.9133 27.4677 27.9305 27.475 27.9446 27.4865C28.1032 27.6174 28.265 27.7443 28.4299 27.8672C28.4431 27.877 28.4536 27.89 28.4606 27.9049C28.4675 27.9198 28.4707 27.9361 28.4699 27.9526C28.469 27.969 28.4642 27.985 28.4557 27.9991C28.4472 28.0131 28.4354 28.0249 28.4213 28.0334C27.6424 28.4882 26.8266 28.8764 25.9824 29.194C25.9693 29.199 25.9574 29.2068 25.9475 29.2167C25.9376 29.2266 25.9298 29.2385 25.9248 29.2516C25.9198 29.2647 25.9177 29.2788 25.9185 29.2928C25.9192 29.3068 25.923 29.3205 25.9294 29.3329C26.3969 30.2359 26.93 31.1033 27.5244 31.9283C27.5365 31.9451 27.5536 31.9578 27.5733 31.9645C27.593 31.9711 27.6142 31.9715 27.6341 31.9654C30.1876 31.1756 32.7768 29.9839 35.4497 28.0209C35.4612 28.0125 35.4707 28.0017 35.4777 27.9893C35.4847 27.9769 35.4891 27.9632 35.4904 27.949C36.1419 21.2083 34.399 15.3528 30.8699 10.1622C30.8613 10.1453 30.8468 10.1321 30.8293 10.125ZM14.8177 24.3976C13.2779 24.3976 12.0091 22.984 12.0091 21.2479C12.0091 19.5118 13.2533 18.0983 14.8177 18.0983C16.3943 18.0983 17.6507 19.5243 17.626 21.2479C17.626 22.984 16.3819 24.3976 14.8177 24.3976ZM25.2015 24.3976C23.6616 24.3976 22.393 22.984 22.393 21.2479C22.393 19.5118 23.6371 18.0983 25.2015 18.0983C26.778 18.0983 28.0344 19.5243 28.0099 21.2479C28.0099 22.984 26.778 24.3976 25.2015 24.3976Z" fill="#FEFFFA"/>
</g>
</g>
<defs>
<clipPath id="clip0_262_129">
<rect width="40" height="40" fill="white"/>
</clipPath>
</defs>
</svg>
