<svg width="108" height="60" viewBox="0 0 108 60" fill="none" xmlns="http://www.w3.org/2000/svg">
<g clip-path="url(#clip0_172_357)">
<path d="M39.202 20.6934C32.6839 20.9424 27.3809 26.6309 27.3809 33.3736V43.4875C27.3809 45.0557 28.6449 46.3318 30.1986 46.3318C31.7532 46.3318 33.0174 45.0557 33.0174 43.4875V33.0943C33.0174 31.2395 33.7527 29.5109 35.0882 28.2276C36.4226 26.9457 38.1628 26.2932 40.0122 26.3817C43.5572 26.5583 46.3341 29.6056 46.3341 33.3193V43.4875C46.3341 45.0557 47.5982 46.3318 49.1519 46.3318C50.7065 46.3318 51.9706 45.0557 51.9706 43.4875V33.0943C51.9706 29.6956 50.6307 26.5215 48.1985 24.1576C45.7671 21.7945 42.5551 20.5633 39.202 20.6934Z" fill="#9FC530"/>
<path d="M21.7711 21.5124C20.2174 21.5124 18.9533 22.7884 18.9533 24.357V34.7495C18.9533 36.6014 18.22 38.3273 16.8883 39.6099C15.5589 40.8918 13.809 41.5528 11.9762 41.463C8.47988 41.2986 5.63588 38.1765 5.63588 34.5035V24.357C5.63588 22.7884 4.37161 21.5124 2.81793 21.5124C1.26424 21.5124 0 22.7884 0 24.357V34.7495C0 38.1443 1.33708 41.3154 3.76383 43.6784C6.07939 45.9336 9.09149 47.1593 12.289 47.1593C12.4409 47.1593 12.5931 47.1567 12.7457 47.1512C19.2757 46.9137 24.589 41.2155 24.589 34.4487V24.357C24.589 22.7884 23.3249 21.5124 21.7711 21.5124Z" fill="#9FC530"/>
<path d="M76.0501 40.6429H66.7271C64.8893 40.6429 63.1773 39.9003 61.9052 38.5521C60.6357 37.2057 59.9857 35.4405 60.0767 33.5827C60.2515 30.0042 63.2706 27.2011 66.9499 27.2011H76.0501C77.6042 27.2011 78.8683 25.9254 78.8683 24.357C78.8683 22.7884 77.6042 21.5124 76.0501 21.5124H66.7271C63.3598 21.5124 60.2157 22.8644 57.8726 25.3195C55.5327 27.7729 54.3134 30.9978 54.4407 34.4004C54.6877 40.9796 60.3237 46.3318 67.0033 46.3318H76.0501C77.6042 46.3318 78.8683 45.0557 78.8683 43.4872C78.8683 41.9186 77.6042 40.6429 76.0501 40.6429Z" fill="#9FC530"/>
<path d="M92.793 26.264C88.6094 26.264 85.2062 29.6992 85.2062 33.922C85.2062 38.1447 88.6094 41.5802 92.793 41.5802C96.9766 41.5802 100.38 38.1447 100.38 33.922C100.38 29.6992 96.9766 26.264 92.793 26.264ZM92.793 46.7735C85.7723 46.7735 80.0605 41.0084 80.0605 33.922C80.0605 26.8356 85.7723 21.0705 92.793 21.0705C99.8137 21.0705 105.525 26.8356 105.525 33.922C105.525 41.0084 99.8137 46.7735 92.793 46.7735Z" fill="#C40755"/>
<path d="M3.96658 57.0414C3.96658 57.6273 4.09913 58.0776 4.36442 58.3915C4.62954 58.7056 4.97725 58.8625 5.40803 58.8625C5.77453 58.8625 6.09074 58.7024 6.35584 58.3811C6.62063 58.0594 6.753 57.5985 6.753 56.9984C6.753 56.6107 6.698 56.2763 6.58804 55.9958C6.47755 55.7156 6.32065 55.4998 6.11808 55.3464C5.91493 55.1941 5.67838 55.1181 5.40803 55.1181C5.13047 55.1181 4.88272 55.1941 4.66594 55.3464C4.44899 55.4998 4.27774 55.7202 4.15324 56.0097C4.02874 56.2989 3.96658 56.6432 3.96658 57.0414ZM3.89689 52.6716V54.918C4.1711 54.6312 4.45039 54.4113 4.7351 54.2579C5.01984 54.1059 5.37267 54.0294 5.79238 54.0294C6.27637 54.0294 6.70047 54.1448 7.06589 54.3768C7.43064 54.6086 7.71327 54.9447 7.91445 55.3844C8.11545 55.8247 8.21631 56.347 8.21631 56.9505C8.21631 57.3957 8.16028 57.8038 8.04821 58.1762C7.93615 58.5475 7.7728 58.8703 7.5597 59.143C7.34605 59.4164 7.08691 59.6276 6.78259 59.7764C6.47844 59.9254 6.1426 60 5.77646 60C5.55233 60 5.34115 59.9728 5.14378 59.9194C4.9461 59.8651 4.778 59.7946 4.63913 59.7059C4.5003 59.6181 4.38192 59.5276 4.28439 59.4339C4.18633 59.3413 4.05711 59.2004 3.89689 59.0136V59.1589C3.89689 59.4362 3.83105 59.6453 3.6992 59.7869C3.5677 59.929 3.40065 60 3.19735 60C2.99144 60 2.82666 59.929 2.70409 59.7869C2.58099 59.6453 2.51953 59.4362 2.51953 59.1589V52.7358C2.51953 52.4382 2.57907 52.2123 2.69849 52.06C2.81756 51.9069 2.98443 51.8309 3.19735 51.8309C3.42218 51.8309 3.59484 51.9034 3.71548 52.0495C3.83648 52.1946 3.89689 52.4023 3.89689 52.6716Z" fill="#918F90"/>
<path d="M10.6029 56.5352H13.2459C13.21 56.032 13.0759 55.6556 12.8426 55.4062C12.6094 55.157 12.3028 55.0311 11.922 55.0311C11.5588 55.0311 11.2604 55.1582 11.0273 55.4117C10.7939 55.6651 10.653 56.0396 10.6029 56.5352ZM13.4541 57.3703H10.6029C10.6064 57.7043 10.6729 57.9993 10.8032 58.254C10.9331 58.5092 11.1059 58.7015 11.321 58.8303C11.5362 58.9599 11.774 59.0249 12.034 59.0249C12.2082 59.0249 12.3672 59.0041 12.5121 58.9629C12.656 58.9214 12.7957 58.8567 12.9307 58.7688C13.0657 58.6812 13.1902 58.5866 13.3045 58.486C13.4185 58.3851 13.5661 58.2485 13.7477 58.0765C13.8223 58.0115 13.929 57.9793 14.068 57.9793C14.217 57.9793 14.3384 58.0205 14.4308 58.1029C14.5235 58.1861 14.5699 58.3028 14.5699 58.4535C14.5699 58.5866 14.5179 58.7418 14.4147 58.9191C14.3117 59.0977 14.1562 59.2683 13.9481 59.4313C13.7398 59.5951 13.4781 59.7303 13.1629 59.8385C12.8483 59.9461 12.486 60 12.0766 60C11.1403 60 10.4122 59.7303 9.89286 59.1914C9.37296 58.6525 9.11328 57.9219 9.11328 56.9984C9.11328 56.5636 9.17738 56.1605 9.30536 55.7886C9.43374 55.4166 9.62076 55.0981 9.86641 54.8325C10.1116 54.5659 10.4143 54.3629 10.774 54.2208C11.1333 54.0787 11.532 54.0076 11.9701 54.0076C12.5394 54.0076 13.0277 54.1289 13.435 54.371C13.843 54.614 14.148 54.9276 14.3508 55.3122C14.5539 55.6958 14.6549 56.0877 14.6549 56.4862C14.6549 56.8569 14.5499 57.0965 14.3403 57.2061C14.1302 57.3157 13.8349 57.3703 13.4541 57.3703Z" fill="#918F90"/>
<path d="M16.6457 54.9348L17.596 58.2218L18.461 55.166C18.5537 54.8466 18.6221 54.6285 18.6668 54.5117C18.7112 54.395 18.7949 54.2831 18.9175 54.1773C19.0406 54.0711 19.2087 54.0181 19.422 54.0181C19.6391 54.0181 19.8091 54.0711 19.9317 54.1773C20.0548 54.2831 20.141 54.3986 20.1908 54.5221C20.2406 54.6462 20.3099 54.8611 20.3991 55.166L21.2642 58.2218L22.2248 54.9348C22.2891 54.6976 22.3404 54.5258 22.3796 54.42C22.419 54.3139 22.4847 54.2208 22.5773 54.1398C22.67 54.0589 22.8034 54.0181 22.9774 54.0181C23.152 54.0181 23.3033 54.0795 23.4313 54.2013C23.5595 54.324 23.6239 54.4678 23.6239 54.6329C23.6239 54.7841 23.5684 55.0117 23.4583 55.3171L22.2676 58.8413C22.1644 59.1395 22.0844 59.3553 22.0273 59.4878C21.9704 59.6209 21.8806 59.7398 21.7575 59.8434C21.6351 59.9484 21.467 60 21.2532 60C21.0324 60 20.8588 59.9443 20.7328 59.833C20.6064 59.7222 20.5132 59.585 20.4526 59.4231C20.392 59.2616 20.3262 59.0516 20.2549 58.7932L19.422 55.9261L18.6158 58.7932C18.5091 59.1914 18.3936 59.4928 18.2689 59.6955C18.1444 59.8987 17.9252 60 17.6121 60C17.4519 60 17.3156 59.9684 17.2036 59.906C17.0915 59.8431 16.998 59.7529 16.9234 59.6363C16.849 59.5191 16.783 59.3814 16.7257 59.2213C16.6688 59.062 16.6247 58.935 16.5926 58.8413L15.413 55.3171C15.2951 54.9864 15.2363 54.7588 15.2363 54.6329C15.2363 54.4751 15.2986 54.3325 15.4235 54.2072C15.548 54.0815 15.701 54.0181 15.8826 54.0181C16.1242 54.0181 16.288 54.0873 16.3736 54.2257C16.4592 54.3643 16.5496 54.6004 16.6457 54.9348Z" fill="#918F90"/>
<path d="M28.4119 59.1702V58.9814C28.2376 59.2041 28.054 59.391 27.8619 59.5421C27.6698 59.6928 27.4595 59.8051 27.2319 59.8788C27.0042 59.9521 26.7447 59.9887 26.4525 59.9887C26.1 59.9887 25.7845 59.9159 25.5052 59.7683C25.2254 59.6209 25.0095 59.4176 24.8563 59.1589C24.6745 58.8468 24.584 58.3978 24.584 57.8123V54.8972C24.584 54.6022 24.65 54.3823 24.7815 54.237C24.9133 54.0909 25.0877 54.0181 25.3045 54.0181C25.5252 54.0181 25.7032 54.0919 25.8386 54.2393C25.9739 54.3873 26.0415 54.6059 26.0415 54.8972V57.2519C26.0415 57.5933 26.0701 57.8793 26.1271 58.111C26.1837 58.3431 26.2863 58.524 26.4337 58.6557C26.5814 58.7865 26.7817 58.8521 27.0342 58.8521C27.28 58.8521 27.5117 58.7784 27.7283 58.6313C27.9454 58.4837 28.1041 58.2915 28.2037 58.0544C28.2858 57.8462 28.3263 57.3897 28.3263 56.6863V54.8972C28.3263 54.6059 28.3944 54.3873 28.5294 54.2393C28.6644 54.0919 28.8407 54.0181 29.0578 54.0181C29.275 54.0181 29.4495 54.0909 29.581 54.237C29.7129 54.3823 29.7787 54.6022 29.7787 54.8972V59.1589C29.7787 59.4399 29.7152 59.6493 29.5893 59.79C29.4627 59.9304 29.3 60 29.1009 60C28.9013 60 28.7367 59.9275 28.607 59.7819C28.4768 59.6363 28.4119 59.4327 28.4119 59.1702Z" fill="#918F90"/>
<path d="M35.9228 58.0765C35.9228 58.4825 35.8248 58.83 35.6294 59.1191C35.4338 59.4083 35.1443 59.6276 34.7616 59.7764C34.3793 59.9254 33.9141 60 33.3655 60C32.8426 60 32.394 59.9194 32.0205 59.7579C31.6469 59.596 31.3707 59.3938 31.193 59.1511C31.0147 58.9086 30.9258 58.6653 30.9258 58.4214C30.9258 58.2589 30.9828 58.1209 31.0968 58.0065C31.2105 57.8911 31.3548 57.8341 31.5292 57.8341C31.6824 57.8341 31.7994 57.8712 31.8815 57.9472C31.9636 58.0223 32.0416 58.1281 32.1166 58.2648C32.2658 58.5269 32.445 58.7232 32.653 58.8521C32.8612 58.9814 33.1449 59.0458 33.5047 59.0458C33.7966 59.0458 34.0356 58.9811 34.2226 58.8498C34.4095 58.7183 34.5031 58.5684 34.5031 58.3996C34.5031 58.1409 34.406 57.9518 34.2118 57.8341C34.0181 57.7151 33.6985 57.602 33.2534 57.4944C32.7516 57.368 32.3434 57.2365 32.0286 57.0979C31.7134 56.9595 31.4618 56.7777 31.273 56.5514C31.0844 56.3252 30.9899 56.0469 30.9899 55.7156C30.9899 55.4216 31.0774 55.1428 31.2516 54.8809C31.426 54.6181 31.6834 54.409 32.0231 54.2533C32.3628 54.0964 32.7733 54.0181 33.2534 54.0181C33.6308 54.0181 33.9701 54.0584 34.2708 54.1372C34.5716 54.2164 34.8222 54.3222 35.0234 54.4551C35.2245 54.5882 35.3778 54.7347 35.4826 54.8972C35.5879 55.0587 35.6404 55.2171 35.6404 55.371C35.6404 55.5398 35.5844 55.6782 35.4716 55.7858C35.3595 55.8934 35.2004 55.9479 34.9943 55.9479C34.8448 55.9479 34.7171 55.9044 34.6126 55.8183C34.5075 55.7321 34.3872 55.6025 34.2517 55.4302C34.1417 55.2863 34.0116 55.1718 33.8624 55.0854C33.7129 54.999 33.5097 54.956 33.2534 54.956C32.9904 54.956 32.771 55.0126 32.597 55.1257C32.4224 55.2388 32.3353 55.38 32.3353 55.5492C32.3353 55.704 32.3994 55.8296 32.5274 55.9288C32.6554 56.0279 32.8283 56.1089 33.0452 56.1741C33.2625 56.2383 33.5613 56.318 33.9425 56.4111C34.3942 56.5219 34.7637 56.6554 35.0505 56.8097C35.3366 56.9645 35.5536 57.1464 35.7013 57.3567C35.849 57.5666 35.9228 57.8065 35.9228 58.0765Z" fill="#918F90"/>
<path d="M41.8508 58.0765C41.8508 58.4825 41.7527 58.83 41.557 59.1191C41.3613 59.4083 41.0721 59.6276 40.6893 59.7764C40.3069 59.9254 39.8416 60 39.2934 60C38.7704 60 38.3216 59.9194 37.9483 59.7579C37.5744 59.596 37.2983 59.3938 37.1205 59.1511C36.9425 58.9086 36.8535 58.6653 36.8535 58.4214C36.8535 58.2589 36.9104 58.1209 37.0246 58.0065C37.138 57.8911 37.2823 57.8341 37.4569 57.8341C37.61 57.8341 37.7269 57.8712 37.809 57.9472C37.8912 58.0223 37.9692 58.1281 38.0444 58.2648C38.1934 58.5269 38.3725 58.7232 38.5805 58.8521C38.7888 58.9814 39.0724 59.0458 39.4322 59.0458C39.7241 59.0458 39.9633 58.9811 40.1505 58.8498C40.337 58.7183 40.4307 58.5684 40.4307 58.3996C40.4307 58.1409 40.3335 57.9518 40.1393 57.8341C39.9458 57.7151 39.6261 57.602 39.1813 57.4944C38.6793 57.368 38.271 57.2365 37.9561 57.0979C37.6409 56.9595 37.3893 56.7777 37.2006 56.5514C37.012 56.3252 36.9174 56.0469 36.9174 55.7156C36.9174 55.4216 37.005 55.1428 37.1792 54.8809C37.3538 54.6181 37.611 54.409 37.9507 54.2533C38.2904 54.0964 38.7009 54.0181 39.1813 54.0181C39.5583 54.0181 39.8977 54.0584 40.1983 54.1372C40.4991 54.2164 40.7497 54.3222 40.9509 54.4551C41.1521 54.5882 41.3053 54.7347 41.4102 54.8972C41.5154 55.0587 41.568 55.2171 41.568 55.371C41.568 55.5398 41.512 55.6782 41.3994 55.7858C41.2873 55.8934 41.1281 55.9479 40.922 55.9479C40.7723 55.9479 40.6447 55.9044 40.5403 55.8183C40.435 55.7321 40.3151 55.6025 40.1792 55.4302C40.0693 55.2863 39.9392 55.1718 39.7902 55.0854C39.6405 54.999 39.4373 54.956 39.1813 54.956C38.918 54.956 38.6989 55.0126 38.5245 55.1257C38.35 55.2388 38.2631 55.38 38.2631 55.5492C38.2631 55.704 38.327 55.8296 38.455 55.9288C38.5834 56.0279 38.7558 56.1089 38.9731 56.1741C39.1903 56.2383 39.4888 56.318 39.87 56.4111C40.3221 56.5219 40.6912 56.6554 40.9781 56.8097C41.2642 56.9645 41.4815 57.1464 41.6289 57.3567C41.7765 57.5666 41.8508 57.8065 41.8508 58.0765Z" fill="#918F90"/>
<path d="M43.1622 54.1474H43.3229V53.2643C43.3229 53.0267 43.3289 52.8413 43.3415 52.7065C43.354 52.572 43.3886 52.4559 43.4455 52.3584C43.5026 52.2581 43.5842 52.1766 43.6912 52.1137C43.7978 52.0508 43.9169 52.0191 44.0489 52.0191C44.2337 52.0191 44.4012 52.0893 44.5508 52.2296C44.6504 52.3228 44.7135 52.4368 44.7399 52.572C44.767 52.7065 44.78 52.8979 44.78 53.1453V54.1474H45.3139C45.5206 54.1474 45.6784 54.1973 45.7869 54.2959C45.8953 54.395 45.9496 54.5212 45.9496 54.6755C45.9496 54.8733 45.872 55.0117 45.7174 55.0909C45.5618 55.1695 45.3408 55.2095 45.0526 55.2095H44.78V57.9146C44.78 58.1444 44.788 58.3213 44.804 58.4454C44.8201 58.5693 44.863 58.6699 44.932 58.7471C45.0015 58.8241 45.1149 58.8625 45.2714 58.8625C45.357 58.8625 45.4726 58.8477 45.6188 58.8173C45.7645 58.7865 45.8783 58.7711 45.9599 58.7711C46.0773 58.7711 46.1836 58.8187 46.2777 58.9141C46.3723 59.0092 46.4194 59.1267 46.4194 59.2674C46.4194 59.5041 46.2912 59.6856 46.0352 59.8112C45.7788 59.9371 45.4103 60 44.9298 60C44.4744 60 44.129 59.9231 43.894 59.7683C43.6593 59.6136 43.5051 59.4 43.4321 59.1267C43.359 58.8544 43.3229 58.4898 43.3229 58.0327V55.2095H43.1304C42.9206 55.2095 42.7606 55.1593 42.6501 55.0587C42.5399 54.9578 42.4844 54.8302 42.4844 54.6755C42.4844 54.5212 42.5423 54.395 42.6579 54.2959C42.7735 54.1973 42.9416 54.1474 43.1622 54.1474Z" fill="#918F90"/>
<path d="M50.9051 56.5352H53.5481C53.5122 56.032 53.3782 55.6556 53.1451 55.4062C52.912 55.157 52.605 55.0311 52.2244 55.0311C51.8613 55.0311 51.5628 55.1582 51.3297 55.4117C51.0966 55.6651 50.9553 56.0396 50.9051 56.5352ZM53.7565 57.3703H50.9051C50.9087 57.7043 50.9755 57.9993 51.1055 58.254C51.2355 58.5092 51.4081 58.7015 51.6233 58.8303C51.8384 58.9599 52.0765 59.0249 52.3365 59.0249C52.5104 59.0249 52.6695 59.0041 52.8143 58.9629C52.9582 58.9214 53.098 58.8567 53.233 58.7688C53.3684 58.6812 53.493 58.5866 53.6068 58.486C53.7211 58.3851 53.8686 58.2485 54.0502 58.0765C54.125 58.0115 54.2313 57.9793 54.3702 57.9793C54.5195 57.9793 54.6405 58.0205 54.7333 58.1029C54.8257 58.1861 54.8723 58.3028 54.8723 58.4535C54.8723 58.5866 54.8203 58.7418 54.7172 58.9191C54.6141 59.0977 54.4585 59.2683 54.2505 59.4313C54.0421 59.5951 53.7803 59.7303 53.4652 59.8385C53.1505 59.9461 52.7883 60 52.379 60C51.4431 60 50.7146 59.7303 50.1951 59.1914C49.6756 58.6525 49.416 57.9219 49.416 56.9984C49.416 56.5636 49.4797 56.1605 49.6079 55.7886C49.7361 55.4166 49.923 55.0981 50.1687 54.8325C50.4139 54.5659 50.7169 54.3629 51.0764 54.2208C51.4359 54.0787 51.8348 54.0076 52.2723 54.0076C52.8416 54.0076 53.3302 54.1289 53.7377 54.371C54.1452 54.614 54.4505 54.9276 54.6531 55.3122C54.8566 55.6958 54.9574 56.0877 54.9574 56.4862C54.9574 56.8569 54.8521 57.0965 54.6428 57.2061C54.4325 57.3157 54.1371 57.3703 53.7565 57.3703Z" fill="#918F90"/>
<path d="M57.6429 54.8539V59.1055C57.6429 59.4 57.5734 59.6232 57.4349 59.7738C57.2959 59.9244 57.1202 60 56.9064 60C56.693 60 56.5191 59.9231 56.3859 59.7683C56.2523 59.6136 56.1855 59.3927 56.1855 59.1055V54.8972C56.1855 54.6059 56.2523 54.3873 56.3859 54.2393C56.5191 54.0919 56.693 54.0181 56.9064 54.0181C57.1202 54.0181 57.2959 54.0919 57.4349 54.2393C57.5734 54.3873 57.6429 54.5918 57.6429 54.8539ZM56.922 53.3335C56.719 53.3335 56.5459 53.2715 56.4016 53.1453C56.2573 53.0195 56.1855 52.8422 56.1855 52.6123C56.1855 52.4037 56.2595 52.2318 56.407 52.0974C56.5545 51.9626 56.7266 51.8956 56.922 51.8956C57.1108 51.8956 57.278 51.9567 57.4241 52.0785C57.5698 52.2006 57.6429 52.3784 57.6429 52.6123C57.6429 52.8385 57.5716 53.0151 57.429 53.143C57.2874 53.2703 57.1179 53.3335 56.922 53.3335Z" fill="#918F90"/>
<path d="M60.4722 54.8325V55.0103C60.7286 54.6688 61.0092 54.4186 61.3136 54.2579C61.618 54.0986 61.9676 54.0181 62.363 54.0181C62.7467 54.0181 63.0901 54.1033 63.3931 54.2718C63.6952 54.4406 63.9216 54.679 64.0709 54.9885C64.1668 55.1683 64.2291 55.3623 64.2578 55.5705C64.286 55.7791 64.3004 56.0446 64.3004 56.3682V59.1055C64.3004 59.4 64.2336 59.6232 64.1005 59.7738C63.9669 59.9244 63.793 60 63.5796 60C63.3622 60 63.1865 59.9231 63.0511 59.7683C62.9162 59.6136 62.848 59.3927 62.848 59.1055V56.6536C62.848 56.1686 62.7817 55.7977 62.6481 55.541C62.515 55.2841 62.2487 55.1556 61.8497 55.1556C61.5902 55.1556 61.3535 55.2333 61.1397 55.3899C60.9263 55.546 60.7694 55.7609 60.6704 56.0338C60.5986 56.2533 60.5632 56.6626 60.5632 57.2626V59.1055C60.5632 59.4031 60.4951 59.6276 60.3575 59.7764C60.2207 59.9254 60.0437 60 59.8263 60C59.6169 60 59.4439 59.9231 59.309 59.7683C59.1736 59.6136 59.1055 59.3927 59.1055 59.1055V54.8539C59.1055 54.5732 59.1664 54.3643 59.2875 54.2257C59.4085 54.0873 59.5735 54.0181 59.7837 54.0181C59.9119 54.0181 60.0275 54.0493 60.1311 54.1099C60.2342 54.1715 60.3167 54.2625 60.379 54.3849C60.4413 54.5073 60.4722 54.6561 60.4722 54.8325Z" fill="#918F90"/>
<path d="M69.3827 59.3268L68.0957 57.1925L67.3059 57.9472V59.1163C67.3059 59.4 67.2324 59.6181 67.0844 59.7706C66.9365 59.924 66.7671 60 66.5748 60C66.3497 60 66.174 59.9244 66.0458 59.7738C65.9181 59.6232 65.8535 59.4 65.8535 59.1055V52.8332C65.8535 52.506 65.9163 52.2572 66.0409 52.0867C66.1646 51.9164 66.343 51.8309 66.5748 51.8309C66.7989 51.8309 66.9764 51.9083 67.1087 52.0621C67.2404 52.2169 67.3059 52.4454 67.3059 52.7467V56.3143L68.9452 54.5787C69.1478 54.3634 69.3025 54.2164 69.4096 54.1372C69.5167 54.0584 69.6463 54.0181 69.7991 54.0181C69.9807 54.0181 70.1317 54.0769 70.2532 54.1937C70.3742 54.3104 70.4348 54.4565 70.4348 54.6329C70.4348 54.8484 70.2371 55.1361 69.8422 55.4949L69.0676 56.2116L70.563 58.5829C70.6728 58.7589 70.7526 58.8929 70.8006 58.9846C70.8485 59.076 70.8723 59.1624 70.8723 59.2457C70.8723 59.4788 70.8091 59.6633 70.6827 59.7982C70.5562 59.9321 70.3899 60 70.1833 60C70.0053 60 69.8686 59.9516 69.7727 59.8547C69.6763 59.7579 69.5463 59.5815 69.3827 59.3268Z" fill="#918F90"/>
<path d="M75.1916 57.0414C74.9787 57.1211 74.6676 57.2043 74.2606 57.2916C73.8527 57.3804 73.5703 57.445 73.4138 57.4857C73.2574 57.5274 73.1081 57.6084 72.9651 57.7282C72.8235 57.8491 72.7517 58.017 72.7517 58.2328C72.7517 58.4553 72.8351 58.6444 73.0028 58.801C73.17 58.9571 73.3896 59.0354 73.6595 59.0354C73.9477 59.0354 74.2135 58.9715 74.4574 58.8439C74.7012 58.7169 74.8805 58.5521 74.9944 58.3508C75.1262 58.1281 75.1916 57.7618 75.1916 57.2519V57.0414ZM75.2876 59.1702C74.9357 59.4466 74.5946 59.6539 74.2655 59.7929C73.9361 59.9307 73.5667 60 73.1574 60C72.7836 60 72.4559 59.9254 72.173 59.7764C71.8897 59.6276 71.6714 59.4254 71.519 59.1702C71.3657 58.915 71.2891 58.6386 71.2891 58.3399C71.2891 57.9378 71.415 57.5947 71.6678 57.3111C71.9207 57.0274 72.2681 56.8374 72.7092 56.74C72.802 56.7183 73.0315 56.6695 73.3977 56.5944C73.7648 56.5188 74.0791 56.4496 74.3404 56.3867C74.6017 56.3238 74.8855 56.2478 75.1916 56.1577C75.1742 55.7695 75.0966 55.485 74.9594 55.3035C74.8223 55.1225 74.5385 55.0311 74.1077 55.0311C73.7379 55.0311 73.4596 55.0842 73.2726 55.1881C73.0857 55.2922 72.9252 55.4482 72.7921 55.6564C72.659 55.865 72.5644 56.0025 72.5092 56.0686C72.4541 56.1356 72.3353 56.1686 72.1538 56.1686C71.9906 56.1686 71.8485 56.1156 71.7293 56.0097C71.6105 55.9035 71.5509 55.7681 71.5509 55.6025C71.5509 55.3443 71.6414 55.0923 71.8229 54.8484C72.0049 54.6039 72.2878 54.4032 72.6715 54.2448C73.0561 54.0868 73.5349 54.0076 74.1077 54.0076C74.7488 54.0076 75.2522 54.0842 75.6188 54.237C75.986 54.389 76.2446 54.6312 76.3957 54.9615C76.5472 55.2922 76.6225 55.7301 76.6225 56.2763C76.6225 56.6211 76.622 56.9143 76.6203 57.155C76.6185 57.3957 76.6158 57.6635 76.6122 57.9576C76.6122 58.234 76.6575 58.5228 76.7485 58.8222C76.839 59.1223 76.8843 59.3158 76.8843 59.4019C76.8843 59.553 76.8135 59.69 76.6732 59.8144C76.5324 59.938 76.3737 60 76.1953 60C76.046 60 75.8981 59.929 75.7524 59.7869C75.6063 59.6453 75.4516 59.4399 75.2876 59.1702Z" fill="#918F90"/>
<path d="M81.8868 59.1702V58.9814C81.7124 59.2041 81.5286 59.391 81.3363 59.5421C81.144 59.6928 80.9342 59.8051 80.7065 59.8788C80.4788 59.9521 80.2192 59.9887 79.927 59.9887C79.5746 59.9887 79.259 59.9159 78.9798 59.7683C78.7001 59.6209 78.484 59.4176 78.3307 59.1589C78.1491 58.8468 78.0586 58.3978 78.0586 57.8123V54.8972C78.0586 54.6022 78.1245 54.3823 78.2563 54.237C78.3876 54.0909 78.5624 54.0181 78.779 54.0181C78.9995 54.0181 79.1779 54.0919 79.3128 54.2393C79.4487 54.3873 79.5163 54.6059 79.5163 54.8972V57.2519C79.5163 57.5933 79.5446 57.8793 79.602 58.111C79.6584 58.3431 79.7606 58.524 79.9086 58.6557C80.0561 58.7865 80.2564 58.8521 80.5088 58.8521C80.7544 58.8521 80.9862 58.7784 81.2027 58.6313C81.4201 58.4837 81.5788 58.2915 81.6783 58.0544C81.7603 57.8462 81.8007 57.3897 81.8007 56.6863V54.8972C81.8007 54.6059 81.8693 54.3873 82.0038 54.2393C82.1391 54.0919 82.3153 54.0181 82.5323 54.0181C82.7492 54.0181 82.924 54.0909 83.0558 54.237C83.1876 54.3823 83.2531 54.6022 83.2531 54.8972V59.1589C83.2531 59.4399 83.1899 59.6493 83.0639 59.79C82.937 59.9304 82.7748 60 82.5757 60C82.3758 60 82.2109 59.9275 82.0813 59.7819C81.9513 59.6363 81.8868 59.4327 81.8868 59.1702Z" fill="#918F90"/>
<path d="M84.587 54.1474H84.9335V53.7063C84.9335 53.2462 84.9918 52.8802 85.1075 52.6091C85.2231 52.3376 85.4186 52.1404 85.6951 52.0165C85.9708 51.8924 86.3492 51.8309 86.8292 51.8309C87.6796 51.8309 88.1055 52.0409 88.1055 52.4612C88.1055 52.5974 88.0606 52.7141 87.9719 52.8109C87.8827 52.9083 87.7773 52.9565 87.6572 52.9565C87.5998 52.9565 87.5016 52.9463 87.3631 52.924C87.2246 52.9028 87.1067 52.8918 87.0108 52.8918C86.7472 52.8918 86.5778 52.9702 86.5034 53.1268C86.4289 53.2828 86.3913 53.5064 86.3913 53.7978V54.1474H86.749C87.3049 54.1474 87.5819 54.3168 87.5819 54.6538C87.5819 54.8954 87.5084 55.0479 87.3609 55.1121C87.2125 55.1767 87.0086 55.2095 86.749 55.2095H86.3913V59.1055C86.3913 59.3964 86.3227 59.6181 86.1855 59.7706C86.0488 59.924 85.8713 60 85.6548 60C85.4481 60 85.2765 59.924 85.1393 59.7706C85.0026 59.6181 84.9335 59.3964 84.9335 59.1055V55.2095H84.5337C84.3163 55.2095 84.1491 55.1605 84.0316 55.0615C83.9142 54.9624 83.8555 54.8339 83.8555 54.6755C83.8555 54.324 84.0993 54.1474 84.587 54.1474Z" fill="#918F90"/>
<path d="M89.4193 56.5352H92.0627C92.0264 56.032 91.8923 55.6556 91.6588 55.4062C91.4261 55.157 91.1191 55.0311 90.7385 55.0311C90.375 55.0311 90.0769 55.1582 89.8438 55.4117C89.6107 55.6651 89.4695 56.0396 89.4193 56.5352ZM92.2707 57.3703H89.4193C89.4229 57.7043 89.4896 57.9993 89.6196 58.254C89.7496 58.5092 89.9222 58.7015 90.1374 58.8303C90.3525 58.9599 90.5906 59.0249 90.8506 59.0249C91.0245 59.0249 91.1836 59.0041 91.3284 58.9629C91.4723 58.9214 91.6122 58.8567 91.7471 58.7688C91.882 58.6812 92.0071 58.5866 92.1209 58.486C92.2353 58.3851 92.3827 58.2485 92.5643 58.0765C92.6387 58.0115 92.7454 57.9793 92.8848 57.9793C93.0336 57.9793 93.1546 58.0205 93.247 58.1029C93.3398 58.1861 93.3864 58.3028 93.3864 58.4535C93.3864 58.5866 93.3344 58.7418 93.2313 58.9191C93.1282 59.0977 92.9726 59.2683 92.7642 59.4313C92.5562 59.5951 92.2944 59.7303 91.9793 59.8385C91.6646 59.9461 91.3024 60 90.8927 60C89.9572 60 89.2292 59.7303 88.7092 59.1914C88.1892 58.6525 87.9297 57.9219 87.9297 56.9984C87.9297 56.5636 87.9942 56.1605 88.122 55.7886C88.2502 55.4166 88.4371 55.0981 88.6832 54.8325C88.9284 54.5659 89.2305 54.3629 89.5905 54.2208C89.95 54.0787 90.349 54.0076 90.7865 54.0076C91.3562 54.0076 91.8444 54.1289 92.2518 54.371C92.6593 54.614 92.965 54.9276 93.1672 55.3122C93.3707 55.6958 93.4711 56.0877 93.4711 56.4862C93.4711 56.8569 93.3662 57.0965 93.1564 57.2061C92.9466 57.3157 92.6512 57.3703 92.2707 57.3703Z" fill="#918F90"/>
<path d="M96.023 54.8325V55.0103C96.2794 54.6688 96.5596 54.4186 96.8639 54.2579C97.1679 54.0986 97.518 54.0181 97.9133 54.0181C98.2975 54.0181 98.6409 54.1033 98.9434 54.2718C99.2456 54.4406 99.4719 54.679 99.6216 54.9885C99.7176 55.1683 99.7799 55.3623 99.8081 55.5705C99.8368 55.7791 99.8512 56.0446 99.8512 56.3682V59.1055C99.8512 59.4 99.7839 59.6232 99.6512 59.7738C99.5177 59.9244 99.3437 60 99.1299 60C98.9129 60 98.7368 59.9231 98.6019 59.7683C98.4669 59.6136 98.3988 59.3927 98.3988 59.1055V56.6536C98.3988 56.1686 98.332 55.7977 98.1984 55.541C98.0653 55.2841 97.7995 55.1556 97.4005 55.1556C97.1405 55.1556 96.9043 55.2333 96.6905 55.3899C96.4766 55.546 96.3202 55.7609 96.2202 56.0338C96.1494 56.2533 96.114 56.6626 96.114 57.2626V59.1055C96.114 59.4031 96.0454 59.6276 95.9082 59.7764C95.7711 59.9254 95.594 60 95.3766 60C95.1673 60 94.9947 59.9231 94.8593 59.7683C94.7239 59.6136 94.6562 59.3927 94.6562 59.1055V54.8539C94.6562 54.5732 94.7172 54.3643 94.8378 54.2257C94.9593 54.0873 95.1242 54.0181 95.3345 54.0181C95.4627 54.0181 95.5783 54.0493 95.6814 54.1099C95.785 54.1715 95.867 54.2625 95.9298 54.3849C95.9916 54.5073 96.023 54.6561 96.023 54.8325Z" fill="#918F90"/>
<path d="M95.99 18.3438C95.6605 19.5251 95.6506 19.5543 94.573 19.1633C91.5571 18.0688 88.7711 16.5799 86.6464 14.0261C85.1564 12.2348 84.3324 10.1309 84.1334 7.76231C83.9232 5.2539 84.2831 2.80929 85.0506 0.412189C85.1734 0.0289593 85.367 -0.0701256 85.7239 0.046608C88.1077 0.824377 90.3472 1.87588 92.3088 3.51105C94.4385 5.28693 95.782 7.56233 96.345 10.335C96.7601 12.3814 96.6861 14.4478 96.3342 16.5113C96.2298 17.1239 96.1047 17.7331 95.99 18.3438Z" fill="#9FC530"/>
<path d="M96.8319 19.5742C97.4496 15.2102 99.708 13.5555 102.038 12.8135C104.729 11.9226 107.539 12.814 107.906 13.5257C108.272 14.2374 107.513 15.3422 107.107 15.3C105.038 15.0843 103.572 15.1227 101.736 15.6414C99.8057 16.1872 97.9898 18.9578 97.6415 19.6932C97.6065 19.7671 97.5509 19.9809 97.386 19.9209C97.3245 19.8985 97.2013 19.8475 97.0161 19.789C96.9646 19.7727 96.8117 19.7356 96.8319 19.5742Z" fill="#5A3114"/>
</g>
<defs>
<clipPath id="clip0_172_357">
<rect width="108" height="60" fill="white"/>
</clipPath>
</defs>
</svg>
