<svg width="917" height="367" viewBox="0 0 917 367" fill="none" xmlns="http://www.w3.org/2000/svg">
<rect x="899" y="341" width="20" height="320" transform="rotate(180 899 341)" fill="#BC0051"/>
<rect x="871" y="341" width="20" height="266" transform="rotate(180 871 341)" fill="#214B33"/>
<rect x="843" y="341" width="20" height="254" transform="rotate(180 843 341)" fill="#A2C33D" fill-opacity="0.4"/>
<rect x="815" y="341" width="20" height="248" transform="rotate(180 815 341)" fill="#A2C33D" fill-opacity="0.4"/>
<rect x="787" y="341" width="20" height="240" transform="rotate(180 787 341)" fill="#A2C33D" fill-opacity="0.4"/>
<rect x="759" y="341" width="20" height="226" transform="rotate(180 759 341)" fill="#A2C33D" fill-opacity="0.4"/>
<rect x="731" y="341" width="20" height="220" transform="rotate(180 731 341)" fill="#A2C33D" fill-opacity="0.4"/>
<rect x="703" y="341" width="20" height="200" transform="rotate(180 703 341)" fill="#A2C33D" fill-opacity="0.4"/>
<rect x="675" y="341" width="20" height="196" transform="rotate(180 675 341)" fill="#A2C33D" fill-opacity="0.4"/>
<rect x="647" y="341" width="20" height="184" transform="rotate(180 647 341)" fill="#A2C33D" fill-opacity="0.4"/>
<rect x="619" y="341" width="20" height="184" transform="rotate(180 619 341)" fill="#A2C33D" fill-opacity="0.4"/>
<rect x="591" y="341" width="20" height="176" transform="rotate(180 591 341)" fill="#A2C33D" fill-opacity="0.4"/>
<rect x="563" y="341" width="20" height="172" transform="rotate(180 563 341)" fill="#A2C33D" fill-opacity="0.4"/>
<rect x="535" y="341" width="20" height="172" transform="rotate(180 535 341)" fill="#A2C33D" fill-opacity="0.4"/>
<rect x="507" y="341" width="20" height="152" transform="rotate(180 507 341)" fill="#A2C33D" fill-opacity="0.4"/>
<rect x="479" y="341" width="20" height="144" transform="rotate(180 479 341)" fill="#A2C33D" fill-opacity="0.4"/>
<rect x="451" y="341" width="20" height="140" transform="rotate(180 451 341)" fill="#A2C33D" fill-opacity="0.4"/>
<rect x="423" y="341" width="20" height="126" transform="rotate(180 423 341)" fill="#A2C33D" fill-opacity="0.4"/>
<rect x="395" y="341" width="20" height="120" transform="rotate(180 395 341)" fill="#A2C33D" fill-opacity="0.4"/>
<rect x="367" y="341" width="20" height="100" transform="rotate(180 367 341)" fill="#A2C33D"/>
<path d="M357 76V240.5" stroke="#A2C33D" stroke-width="20" stroke-dasharray="10 10"/>
<path d="M71.788 241V236.014L72.31 237.454L66.838 228.4H69.34L73.732 235.69H72.328L76.756 228.4H79.06L73.588 237.454L74.128 236.014V241H71.788ZM83.6241 241.126C82.6401 241.126 81.7641 240.916 80.9961 240.496C80.2281 240.064 79.6221 239.476 79.1781 238.732C78.7341 237.988 78.5121 237.142 78.5121 236.194C78.5121 235.234 78.7341 234.388 79.1781 233.656C79.6221 232.912 80.2281 232.33 80.9961 231.91C81.7641 231.49 82.6401 231.28 83.6241 231.28C84.6201 231.28 85.5021 231.49 86.2701 231.91C87.0501 232.33 87.6561 232.906 88.0881 233.638C88.5321 234.37 88.7541 235.222 88.7541 236.194C88.7541 237.142 88.5321 237.988 88.0881 238.732C87.6561 239.476 87.0501 240.064 86.2701 240.496C85.5021 240.916 84.6201 241.126 83.6241 241.126ZM83.6241 239.2C84.1761 239.2 84.6681 239.08 85.1001 238.84C85.5321 238.6 85.8681 238.252 86.1081 237.796C86.3601 237.34 86.4861 236.806 86.4861 236.194C86.4861 235.57 86.3601 235.036 86.1081 234.592C85.8681 234.136 85.5321 233.788 85.1001 233.548C84.6681 233.308 84.1821 233.188 83.6421 233.188C83.0901 233.188 82.5981 233.308 82.1661 233.548C81.7461 233.788 81.4101 234.136 81.1581 234.592C80.9061 235.036 80.7801 235.57 80.7801 236.194C80.7801 236.806 80.9061 237.34 81.1581 237.796C81.4101 238.252 81.7461 238.6 82.1661 238.84C82.5981 239.08 83.0841 239.2 83.6241 239.2ZM94.9737 241.126C94.1577 241.126 93.4377 240.976 92.8137 240.676C92.1897 240.364 91.7037 239.896 91.3557 239.272C91.0077 238.636 90.8337 237.838 90.8337 236.878V231.388H93.0837V236.572C93.0837 237.436 93.2757 238.084 93.6597 238.516C94.0557 238.936 94.6137 239.146 95.3337 239.146C95.8617 239.146 96.3177 239.038 96.7017 238.822C97.0977 238.606 97.4037 238.282 97.6197 237.85C97.8477 237.418 97.9617 236.884 97.9617 236.248V231.388H100.212V241H98.0697V238.408L98.4477 239.2C98.1237 239.824 97.6497 240.304 97.0257 240.64C96.4017 240.964 95.7177 241.126 94.9737 241.126ZM113.46 241.126C112.644 241.126 111.918 240.946 111.282 240.586C110.646 240.226 110.142 239.686 109.77 238.966C109.41 238.234 109.23 237.31 109.23 236.194C109.23 235.066 109.416 234.142 109.788 233.422C110.172 232.702 110.682 232.168 111.318 231.82C111.966 231.46 112.68 231.28 113.46 231.28C114.408 231.28 115.242 231.484 115.962 231.892C116.694 232.3 117.27 232.87 117.69 233.602C118.122 234.334 118.338 235.198 118.338 236.194C118.338 237.19 118.122 238.054 117.69 238.786C117.27 239.518 116.694 240.094 115.962 240.514C115.242 240.922 114.408 241.126 113.46 241.126ZM108.132 241V227.644H110.382V233.62L110.202 236.176L110.274 238.732V241H108.132ZM113.208 239.2C113.748 239.2 114.228 239.08 114.648 238.84C115.08 238.6 115.422 238.252 115.674 237.796C115.926 237.34 116.052 236.806 116.052 236.194C116.052 235.57 115.926 235.036 115.674 234.592C115.422 234.136 115.08 233.788 114.648 233.548C114.228 233.308 113.748 233.188 113.208 233.188C112.668 233.188 112.182 233.308 111.75 233.548C111.318 233.788 110.976 234.136 110.724 234.592C110.472 235.036 110.346 235.57 110.346 236.194C110.346 236.806 110.472 237.34 110.724 237.796C110.976 238.252 111.318 238.6 111.75 238.84C112.182 239.08 112.668 239.2 113.208 239.2ZM124.54 241.126C123.724 241.126 123.004 240.976 122.38 240.676C121.756 240.364 121.27 239.896 120.922 239.272C120.574 238.636 120.4 237.838 120.4 236.878V231.388H122.65V236.572C122.65 237.436 122.842 238.084 123.226 238.516C123.622 238.936 124.18 239.146 124.9 239.146C125.428 239.146 125.884 239.038 126.268 238.822C126.664 238.606 126.97 238.282 127.186 237.85C127.414 237.418 127.528 236.884 127.528 236.248V231.388H129.778V241H127.636V238.408L128.014 239.2C127.69 239.824 127.216 240.304 126.592 240.64C125.968 240.964 125.284 241.126 124.54 241.126ZM133.516 244.618C133.048 244.618 132.58 244.54 132.112 244.384C131.644 244.228 131.254 244.012 130.942 243.736L131.842 242.08C132.07 242.284 132.328 242.446 132.616 242.566C132.904 242.686 133.198 242.746 133.498 242.746C133.906 242.746 134.236 242.644 134.488 242.44C134.74 242.236 134.974 241.894 135.19 241.414L135.748 240.154L135.928 239.884L139.564 231.388H141.724L137.224 241.774C136.924 242.494 136.588 243.064 136.216 243.484C135.856 243.904 135.448 244.198 134.992 244.366C134.548 244.534 134.056 244.618 133.516 244.618ZM135.496 241.342L131.158 231.388H133.498L137.026 239.686L135.496 241.342ZM148.411 241V230.848C148.411 229.84 148.705 229.036 149.293 228.436C149.893 227.824 150.745 227.518 151.849 227.518C152.245 227.518 152.617 227.56 152.965 227.644C153.325 227.728 153.625 227.86 153.865 228.04L153.253 229.732C153.085 229.6 152.893 229.504 152.677 229.444C152.461 229.372 152.239 229.336 152.011 229.336C151.543 229.336 151.189 229.468 150.949 229.732C150.709 229.984 150.589 230.368 150.589 230.884V231.964L150.661 232.972V241H148.411ZM146.827 233.26V231.46H153.235V233.26H146.827ZM158.817 241.126C158.001 241.126 157.281 240.976 156.657 240.676C156.033 240.364 155.547 239.896 155.199 239.272C154.851 238.636 154.677 237.838 154.677 236.878V231.388H156.927V236.572C156.927 237.436 157.119 238.084 157.503 238.516C157.899 238.936 158.457 239.146 159.177 239.146C159.705 239.146 160.161 239.038 160.545 238.822C160.941 238.606 161.247 238.282 161.463 237.85C161.691 237.418 161.805 236.884 161.805 236.248V231.388H164.055V241H161.913V238.408L162.291 239.2C161.967 239.824 161.493 240.304 160.869 240.64C160.245 240.964 159.561 241.126 158.817 241.126ZM170.619 241.126C169.563 241.126 168.747 240.856 168.171 240.316C167.595 239.764 167.307 238.954 167.307 237.886V229.264H169.557V237.832C169.557 238.288 169.671 238.642 169.899 238.894C170.139 239.146 170.469 239.272 170.889 239.272C171.393 239.272 171.813 239.14 172.149 238.876L172.779 240.478C172.515 240.694 172.191 240.856 171.807 240.964C171.423 241.072 171.027 241.126 170.619 241.126ZM165.723 233.26V231.46H172.131V233.26H165.723ZM178.698 241.126C177.882 241.126 177.162 240.976 176.538 240.676C175.914 240.364 175.428 239.896 175.08 239.272C174.732 238.636 174.558 237.838 174.558 236.878V231.388H176.808V236.572C176.808 237.436 177 238.084 177.384 238.516C177.78 238.936 178.338 239.146 179.058 239.146C179.586 239.146 180.042 239.038 180.426 238.822C180.822 238.606 181.128 238.282 181.344 237.85C181.572 237.418 181.686 236.884 181.686 236.248V231.388H183.936V241H181.794V238.408L182.172 239.2C181.848 239.824 181.374 240.304 180.75 240.64C180.126 240.964 179.442 241.126 178.698 241.126ZM186.882 241V231.388H189.024V234.034L188.772 233.26C189.06 232.612 189.51 232.12 190.122 231.784C190.746 231.448 191.52 231.28 192.444 231.28V233.422C192.348 233.398 192.258 233.386 192.174 233.386C192.09 233.374 192.006 233.368 191.922 233.368C191.07 233.368 190.392 233.62 189.888 234.124C189.384 234.616 189.132 235.354 189.132 236.338V241H186.882ZM198.783 241.126C197.715 241.126 196.779 240.916 195.975 240.496C195.183 240.064 194.565 239.476 194.121 238.732C193.689 237.988 193.473 237.142 193.473 236.194C193.473 235.234 193.683 234.388 194.103 233.656C194.535 232.912 195.123 232.33 195.867 231.91C196.623 231.49 197.481 231.28 198.441 231.28C199.377 231.28 200.211 231.484 200.943 231.892C201.675 232.3 202.251 232.876 202.671 233.62C203.091 234.364 203.301 235.24 203.301 236.248C203.301 236.344 203.295 236.452 203.283 236.572C203.283 236.692 203.277 236.806 203.265 236.914H195.255V235.42H202.077L201.195 235.888C201.207 235.336 201.093 234.85 200.853 234.43C200.613 234.01 200.283 233.68 199.863 233.44C199.455 233.2 198.981 233.08 198.441 233.08C197.889 233.08 197.403 233.2 196.983 233.44C196.575 233.68 196.251 234.016 196.011 234.448C195.783 234.868 195.669 235.366 195.669 235.942V236.302C195.669 236.878 195.801 237.388 196.065 237.832C196.329 238.276 196.701 238.618 197.181 238.858C197.661 239.098 198.213 239.218 198.837 239.218C199.377 239.218 199.863 239.134 200.295 238.966C200.727 238.798 201.111 238.534 201.447 238.174L202.653 239.56C202.221 240.064 201.675 240.454 201.015 240.73C200.367 240.994 199.623 241.126 198.783 241.126ZM208.432 241.126C207.628 241.126 206.854 241.024 206.11 240.82C205.378 240.604 204.796 240.346 204.364 240.046L205.228 238.336C205.66 238.612 206.176 238.84 206.776 239.02C207.376 239.2 207.976 239.29 208.576 239.29C209.284 239.29 209.794 239.194 210.106 239.002C210.43 238.81 210.592 238.552 210.592 238.228C210.592 237.964 210.484 237.766 210.268 237.634C210.052 237.49 209.77 237.382 209.422 237.31C209.074 237.238 208.684 237.172 208.252 237.112C207.832 237.052 207.406 236.974 206.974 236.878C206.554 236.77 206.17 236.62 205.822 236.428C205.474 236.224 205.192 235.954 204.976 235.618C204.76 235.282 204.652 234.838 204.652 234.286C204.652 233.674 204.826 233.146 205.174 232.702C205.522 232.246 206.008 231.898 206.632 231.658C207.268 231.406 208.018 231.28 208.882 231.28C209.53 231.28 210.184 231.352 210.844 231.496C211.504 231.64 212.05 231.844 212.482 232.108L211.618 233.818C211.162 233.542 210.7 233.356 210.232 233.26C209.776 233.152 209.32 233.098 208.864 233.098C208.18 233.098 207.67 233.2 207.334 233.404C207.01 233.608 206.848 233.866 206.848 234.178C206.848 234.466 206.956 234.682 207.172 234.826C207.388 234.97 207.67 235.084 208.018 235.168C208.366 235.252 208.75 235.324 209.17 235.384C209.602 235.432 210.028 235.51 210.448 235.618C210.868 235.726 211.252 235.876 211.6 236.068C211.96 236.248 212.248 236.506 212.464 236.842C212.68 237.178 212.788 237.616 212.788 238.156C212.788 238.756 212.608 239.278 212.248 239.722C211.9 240.166 211.402 240.514 210.754 240.766C210.106 241.006 209.332 241.126 208.432 241.126ZM225.623 241V239.056L225.497 238.642V235.24C225.497 234.58 225.299 234.07 224.903 233.71C224.507 233.338 223.907 233.152 223.103 233.152C222.563 233.152 222.029 233.236 221.501 233.404C220.985 233.572 220.547 233.806 220.187 234.106L219.305 232.468C219.821 232.072 220.433 231.778 221.141 231.586C221.861 231.382 222.605 231.28 223.373 231.28C224.765 231.28 225.839 231.616 226.595 232.288C227.363 232.948 227.747 233.974 227.747 235.366V241H225.623ZM222.599 241.126C221.879 241.126 221.249 241.006 220.709 240.766C220.169 240.514 219.749 240.172 219.449 239.74C219.161 239.296 219.017 238.798 219.017 238.246C219.017 237.706 219.143 237.22 219.395 236.788C219.659 236.356 220.085 236.014 220.673 235.762C221.261 235.51 222.041 235.384 223.013 235.384H225.803V236.878H223.175C222.407 236.878 221.891 237.004 221.627 237.256C221.363 237.496 221.231 237.796 221.231 238.156C221.231 238.564 221.393 238.888 221.717 239.128C222.041 239.368 222.491 239.488 223.067 239.488C223.619 239.488 224.111 239.362 224.543 239.11C224.987 238.858 225.305 238.486 225.497 237.994L225.875 239.344C225.659 239.908 225.269 240.346 224.705 240.658C224.153 240.97 223.451 241.126 222.599 241.126ZM234.252 241.126C233.196 241.126 232.38 240.856 231.804 240.316C231.228 239.764 230.94 238.954 230.94 237.886V229.264H233.19V237.832C233.19 238.288 233.304 238.642 233.532 238.894C233.772 239.146 234.102 239.272 234.522 239.272C235.026 239.272 235.446 239.14 235.782 238.876L236.412 240.478C236.148 240.694 235.824 240.856 235.44 240.964C235.056 241.072 234.66 241.126 234.252 241.126ZM229.356 233.26V231.46H235.764V233.26H229.356ZM246.856 241.126C245.8 241.126 244.984 240.856 244.408 240.316C243.832 239.764 243.544 238.954 243.544 237.886V229.264H245.794V237.832C245.794 238.288 245.908 238.642 246.136 238.894C246.376 239.146 246.706 239.272 247.126 239.272C247.63 239.272 248.05 239.14 248.386 238.876L249.016 240.478C248.752 240.694 248.428 240.856 248.044 240.964C247.66 241.072 247.264 241.126 246.856 241.126ZM241.96 233.26V231.46H248.368V233.26H241.96ZM256.321 231.28C257.089 231.28 257.773 231.43 258.373 231.73C258.985 232.03 259.465 232.492 259.813 233.116C260.161 233.728 260.335 234.52 260.335 235.492V241H258.085V235.78C258.085 234.928 257.881 234.292 257.473 233.872C257.077 233.452 256.519 233.242 255.799 233.242C255.271 233.242 254.803 233.35 254.395 233.566C253.987 233.782 253.669 234.106 253.441 234.538C253.225 234.958 253.117 235.492 253.117 236.14V241H250.867V227.644H253.117V233.98L252.631 233.188C252.967 232.576 253.453 232.108 254.089 231.784C254.737 231.448 255.481 231.28 256.321 231.28ZM263.189 241V231.388H265.439V241H263.189ZM264.323 229.804C263.903 229.804 263.555 229.672 263.279 229.408C263.015 229.144 262.883 228.826 262.883 228.454C262.883 228.07 263.015 227.752 263.279 227.5C263.555 227.236 263.903 227.104 264.323 227.104C264.743 227.104 265.085 227.23 265.349 227.482C265.625 227.722 265.763 228.028 265.763 228.4C265.763 228.796 265.631 229.132 265.367 229.408C265.103 229.672 264.755 229.804 264.323 229.804ZM271.362 241.126C270.558 241.126 269.784 241.024 269.04 240.82C268.308 240.604 267.726 240.346 267.294 240.046L268.158 238.336C268.59 238.612 269.106 238.84 269.706 239.02C270.306 239.2 270.906 239.29 271.506 239.29C272.214 239.29 272.724 239.194 273.036 239.002C273.36 238.81 273.522 238.552 273.522 238.228C273.522 237.964 273.414 237.766 273.198 237.634C272.982 237.49 272.7 237.382 272.352 237.31C272.004 237.238 271.614 237.172 271.182 237.112C270.762 237.052 270.336 236.974 269.904 236.878C269.484 236.77 269.1 236.62 268.752 236.428C268.404 236.224 268.122 235.954 267.906 235.618C267.69 235.282 267.582 234.838 267.582 234.286C267.582 233.674 267.756 233.146 268.104 232.702C268.452 232.246 268.938 231.898 269.562 231.658C270.198 231.406 270.948 231.28 271.812 231.28C272.46 231.28 273.114 231.352 273.774 231.496C274.434 231.64 274.98 231.844 275.412 232.108L274.548 233.818C274.092 233.542 273.63 233.356 273.162 233.26C272.706 233.152 272.25 233.098 271.794 233.098C271.11 233.098 270.6 233.2 270.264 233.404C269.94 233.608 269.778 233.866 269.778 234.178C269.778 234.466 269.886 234.682 270.102 234.826C270.318 234.97 270.6 235.084 270.948 235.168C271.296 235.252 271.68 235.324 272.1 235.384C272.532 235.432 272.958 235.51 273.378 235.618C273.798 235.726 274.182 235.876 274.53 236.068C274.89 236.248 275.178 236.506 275.394 236.842C275.61 237.178 275.718 237.616 275.718 238.156C275.718 238.756 275.538 239.278 275.178 239.722C274.83 240.166 274.332 240.514 273.684 240.766C273.036 241.006 272.262 241.126 271.362 241.126ZM287.958 241.126C287.178 241.126 286.464 240.946 285.816 240.586C285.18 240.226 284.67 239.686 284.286 238.966C283.914 238.234 283.728 237.31 283.728 236.194C283.728 235.066 283.908 234.142 284.268 233.422C284.64 232.702 285.144 232.168 285.78 231.82C286.416 231.46 287.142 231.28 287.958 231.28C288.906 231.28 289.74 231.484 290.46 231.892C291.192 232.3 291.768 232.87 292.188 233.602C292.62 234.334 292.836 235.198 292.836 236.194C292.836 237.19 292.62 238.06 292.188 238.804C291.768 239.536 291.192 240.106 290.46 240.514C289.74 240.922 288.906 241.126 287.958 241.126ZM282.63 244.492V231.388H284.772V233.656L284.7 236.212L284.88 238.768V244.492H282.63ZM287.706 239.2C288.246 239.2 288.726 239.08 289.146 238.84C289.578 238.6 289.92 238.252 290.172 237.796C290.424 237.34 290.55 236.806 290.55 236.194C290.55 235.57 290.424 235.036 290.172 234.592C289.92 234.136 289.578 233.788 289.146 233.548C288.726 233.308 288.246 233.188 287.706 233.188C287.166 233.188 286.68 233.308 286.248 233.548C285.816 233.788 285.474 234.136 285.222 234.592C284.97 235.036 284.844 235.57 284.844 236.194C284.844 236.806 284.97 237.34 285.222 237.796C285.474 238.252 285.816 238.6 286.248 238.84C286.68 239.08 287.166 239.2 287.706 239.2ZM294.97 241V231.388H297.112V234.034L296.86 233.26C297.148 232.612 297.598 232.12 298.21 231.784C298.834 231.448 299.608 231.28 300.532 231.28V233.422C300.436 233.398 300.346 233.386 300.262 233.386C300.178 233.374 300.094 233.368 300.01 233.368C299.158 233.368 298.48 233.62 297.976 234.124C297.472 234.616 297.22 235.354 297.22 236.338V241H294.97ZM302.441 241V231.388H304.691V241H302.441ZM303.575 229.804C303.155 229.804 302.807 229.672 302.531 229.408C302.267 229.144 302.135 228.826 302.135 228.454C302.135 228.07 302.267 227.752 302.531 227.5C302.807 227.236 303.155 227.104 303.575 227.104C303.995 227.104 304.337 227.23 304.601 227.482C304.877 227.722 305.015 228.028 305.015 228.4C305.015 228.796 304.883 229.132 304.619 229.408C304.355 229.672 304.007 229.804 303.575 229.804ZM312.054 241.126C311.046 241.126 310.146 240.916 309.354 240.496C308.574 240.064 307.962 239.476 307.518 238.732C307.074 237.988 306.852 237.142 306.852 236.194C306.852 235.234 307.074 234.388 307.518 233.656C307.962 232.912 308.574 232.33 309.354 231.91C310.146 231.49 311.046 231.28 312.054 231.28C312.99 231.28 313.812 231.472 314.52 231.856C315.24 232.228 315.786 232.78 316.158 233.512L314.43 234.52C314.142 234.064 313.788 233.728 313.368 233.512C312.96 233.296 312.516 233.188 312.036 233.188C311.484 233.188 310.986 233.308 310.542 233.548C310.098 233.788 309.75 234.136 309.498 234.592C309.246 235.036 309.12 235.57 309.12 236.194C309.12 236.818 309.246 237.358 309.498 237.814C309.75 238.258 310.098 238.6 310.542 238.84C310.986 239.08 311.484 239.2 312.036 239.2C312.516 239.2 312.96 239.092 313.368 238.876C313.788 238.66 314.142 238.324 314.43 237.868L316.158 238.876C315.786 239.596 315.24 240.154 314.52 240.55C313.812 240.934 312.99 241.126 312.054 241.126ZM322.48 241.126C321.412 241.126 320.476 240.916 319.672 240.496C318.88 240.064 318.262 239.476 317.818 238.732C317.386 237.988 317.17 237.142 317.17 236.194C317.17 235.234 317.38 234.388 317.8 233.656C318.232 232.912 318.82 232.33 319.564 231.91C320.32 231.49 321.178 231.28 322.138 231.28C323.074 231.28 323.908 231.484 324.64 231.892C325.372 232.3 325.948 232.876 326.368 233.62C326.788 234.364 326.998 235.24 326.998 236.248C326.998 236.344 326.992 236.452 326.98 236.572C326.98 236.692 326.974 236.806 326.962 236.914H318.952V235.42H325.774L324.892 235.888C324.904 235.336 324.79 234.85 324.55 234.43C324.31 234.01 323.98 233.68 323.56 233.44C323.152 233.2 322.678 233.08 322.138 233.08C321.586 233.08 321.1 233.2 320.68 233.44C320.272 233.68 319.948 234.016 319.708 234.448C319.48 234.868 319.366 235.366 319.366 235.942V236.302C319.366 236.878 319.498 237.388 319.762 237.832C320.026 238.276 320.398 238.618 320.878 238.858C321.358 239.098 321.91 239.218 322.534 239.218C323.074 239.218 323.56 239.134 323.992 238.966C324.424 238.798 324.808 238.534 325.144 238.174L326.35 239.56C325.918 240.064 325.372 240.454 324.712 240.73C324.064 240.994 323.32 241.126 322.48 241.126Z" fill="#A2C33D"/>
<path d="M327 241H367" stroke="#A2C33D"/>
<path d="M324 73.0001L870.5 75.5102" stroke="#214B33"/>
<path d="M71.788 73V68.014L72.31 69.454L66.838 60.4H69.34L73.732 67.69H72.328L76.756 60.4H79.06L73.588 69.454L74.128 68.014V73H71.788ZM83.6241 73.126C82.6401 73.126 81.7641 72.916 80.9961 72.496C80.2281 72.064 79.6221 71.476 79.1781 70.732C78.7341 69.988 78.5121 69.142 78.5121 68.194C78.5121 67.234 78.7341 66.388 79.1781 65.656C79.6221 64.912 80.2281 64.33 80.9961 63.91C81.7641 63.49 82.6401 63.28 83.6241 63.28C84.6201 63.28 85.5021 63.49 86.2701 63.91C87.0501 64.33 87.6561 64.906 88.0881 65.638C88.5321 66.37 88.7541 67.222 88.7541 68.194C88.7541 69.142 88.5321 69.988 88.0881 70.732C87.6561 71.476 87.0501 72.064 86.2701 72.496C85.5021 72.916 84.6201 73.126 83.6241 73.126ZM83.6241 71.2C84.1761 71.2 84.6681 71.08 85.1001 70.84C85.5321 70.6 85.8681 70.252 86.1081 69.796C86.3601 69.34 86.4861 68.806 86.4861 68.194C86.4861 67.57 86.3601 67.036 86.1081 66.592C85.8681 66.136 85.5321 65.788 85.1001 65.548C84.6681 65.308 84.1821 65.188 83.6421 65.188C83.0901 65.188 82.5981 65.308 82.1661 65.548C81.7461 65.788 81.4101 66.136 81.1581 66.592C80.9061 67.036 80.7801 67.57 80.7801 68.194C80.7801 68.806 80.9061 69.34 81.1581 69.796C81.4101 70.252 81.7461 70.6 82.1661 70.84C82.5981 71.08 83.0841 71.2 83.6241 71.2ZM94.9737 73.126C94.1577 73.126 93.4377 72.976 92.8137 72.676C92.1897 72.364 91.7037 71.896 91.3557 71.272C91.0077 70.636 90.8337 69.838 90.8337 68.878V63.388H93.0837V68.572C93.0837 69.436 93.2757 70.084 93.6597 70.516C94.0557 70.936 94.6137 71.146 95.3337 71.146C95.8617 71.146 96.3177 71.038 96.7017 70.822C97.0977 70.606 97.4037 70.282 97.6197 69.85C97.8477 69.418 97.9617 68.884 97.9617 68.248V63.388H100.212V73H98.0697V70.408L98.4477 71.2C98.1237 71.824 97.6497 72.304 97.0257 72.64C96.4017 72.964 95.7177 73.126 94.9737 73.126ZM111.102 73.126C110.298 73.126 109.524 73.024 108.78 72.82C108.048 72.604 107.466 72.346 107.034 72.046L107.898 70.336C108.33 70.612 108.846 70.84 109.446 71.02C110.046 71.2 110.646 71.29 111.246 71.29C111.954 71.29 112.464 71.194 112.776 71.002C113.1 70.81 113.262 70.552 113.262 70.228C113.262 69.964 113.154 69.766 112.938 69.634C112.722 69.49 112.44 69.382 112.092 69.31C111.744 69.238 111.354 69.172 110.922 69.112C110.502 69.052 110.076 68.974 109.644 68.878C109.224 68.77 108.84 68.62 108.492 68.428C108.144 68.224 107.862 67.954 107.646 67.618C107.43 67.282 107.322 66.838 107.322 66.286C107.322 65.674 107.496 65.146 107.844 64.702C108.192 64.246 108.678 63.898 109.302 63.658C109.938 63.406 110.688 63.28 111.552 63.28C112.2 63.28 112.854 63.352 113.514 63.496C114.174 63.64 114.72 63.844 115.152 64.108L114.288 65.818C113.832 65.542 113.37 65.356 112.902 65.26C112.446 65.152 111.99 65.098 111.534 65.098C110.85 65.098 110.34 65.2 110.004 65.404C109.68 65.608 109.518 65.866 109.518 66.178C109.518 66.466 109.626 66.682 109.842 66.826C110.058 66.97 110.34 67.084 110.688 67.168C111.036 67.252 111.42 67.324 111.84 67.384C112.272 67.432 112.698 67.51 113.118 67.618C113.538 67.726 113.922 67.876 114.27 68.068C114.63 68.248 114.918 68.506 115.134 68.842C115.35 69.178 115.458 69.616 115.458 70.156C115.458 70.756 115.278 71.278 114.918 71.722C114.57 72.166 114.072 72.514 113.424 72.766C112.776 73.006 112.002 73.126 111.102 73.126ZM121.914 73.126C120.846 73.126 119.91 72.916 119.106 72.496C118.314 72.064 117.696 71.476 117.252 70.732C116.82 69.988 116.604 69.142 116.604 68.194C116.604 67.234 116.814 66.388 117.234 65.656C117.666 64.912 118.254 64.33 118.998 63.91C119.754 63.49 120.612 63.28 121.572 63.28C122.508 63.28 123.342 63.484 124.074 63.892C124.806 64.3 125.382 64.876 125.802 65.62C126.222 66.364 126.432 67.24 126.432 68.248C126.432 68.344 126.426 68.452 126.414 68.572C126.414 68.692 126.408 68.806 126.396 68.914H118.386V67.42H125.208L124.326 67.888C124.338 67.336 124.224 66.85 123.984 66.43C123.744 66.01 123.414 65.68 122.994 65.44C122.586 65.2 122.112 65.08 121.572 65.08C121.02 65.08 120.534 65.2 120.114 65.44C119.706 65.68 119.382 66.016 119.142 66.448C118.914 66.868 118.8 67.366 118.8 67.942V68.302C118.8 68.878 118.932 69.388 119.196 69.832C119.46 70.276 119.832 70.618 120.312 70.858C120.792 71.098 121.344 71.218 121.968 71.218C122.508 71.218 122.994 71.134 123.426 70.966C123.858 70.798 124.242 70.534 124.578 70.174L125.784 71.56C125.352 72.064 124.806 72.454 124.146 72.73C123.498 72.994 122.754 73.126 121.914 73.126ZM128.593 73V59.644H130.843V73H128.593ZM133.796 73V59.644H136.046V73H133.796ZM144.28 73V62.848C144.28 61.84 144.574 61.036 145.162 60.436C145.762 59.824 146.614 59.518 147.718 59.518C148.114 59.518 148.486 59.56 148.834 59.644C149.194 59.728 149.494 59.86 149.734 60.04L149.122 61.732C148.954 61.6 148.762 61.504 148.546 61.444C148.33 61.372 148.108 61.336 147.88 61.336C147.412 61.336 147.058 61.468 146.818 61.732C146.578 61.984 146.458 62.368 146.458 62.884V63.964L146.53 64.972V73H144.28ZM142.696 65.26V63.46H149.104V65.26H142.696ZM154.687 73.126C153.871 73.126 153.151 72.976 152.527 72.676C151.903 72.364 151.417 71.896 151.069 71.272C150.721 70.636 150.547 69.838 150.547 68.878V63.388H152.797V68.572C152.797 69.436 152.989 70.084 153.373 70.516C153.769 70.936 154.327 71.146 155.047 71.146C155.575 71.146 156.031 71.038 156.415 70.822C156.811 70.606 157.117 70.282 157.333 69.85C157.561 69.418 157.675 68.884 157.675 68.248V63.388H159.925V73H157.783V70.408L158.161 71.2C157.837 71.824 157.363 72.304 156.739 72.64C156.115 72.964 155.431 73.126 154.687 73.126ZM166.489 73.126C165.433 73.126 164.617 72.856 164.041 72.316C163.465 71.764 163.177 70.954 163.177 69.886V61.264H165.427V69.832C165.427 70.288 165.541 70.642 165.769 70.894C166.009 71.146 166.339 71.272 166.759 71.272C167.263 71.272 167.683 71.14 168.019 70.876L168.649 72.478C168.385 72.694 168.061 72.856 167.677 72.964C167.293 73.072 166.897 73.126 166.489 73.126ZM161.593 65.26V63.46H168.001V65.26H161.593ZM174.567 73.126C173.751 73.126 173.031 72.976 172.407 72.676C171.783 72.364 171.297 71.896 170.949 71.272C170.601 70.636 170.427 69.838 170.427 68.878V63.388H172.677V68.572C172.677 69.436 172.869 70.084 173.253 70.516C173.649 70.936 174.207 71.146 174.927 71.146C175.455 71.146 175.911 71.038 176.295 70.822C176.691 70.606 176.997 70.282 177.213 69.85C177.441 69.418 177.555 68.884 177.555 68.248V63.388H179.805V73H177.663V70.408L178.041 71.2C177.717 71.824 177.243 72.304 176.619 72.64C175.995 72.964 175.311 73.126 174.567 73.126ZM182.751 73V63.388H184.893V66.034L184.641 65.26C184.929 64.612 185.379 64.12 185.991 63.784C186.615 63.448 187.389 63.28 188.313 63.28V65.422C188.217 65.398 188.127 65.386 188.043 65.386C187.959 65.374 187.875 65.368 187.791 65.368C186.939 65.368 186.261 65.62 185.757 66.124C185.253 66.616 185.001 67.354 185.001 68.338V73H182.751ZM194.652 73.126C193.584 73.126 192.648 72.916 191.844 72.496C191.052 72.064 190.434 71.476 189.99 70.732C189.558 69.988 189.342 69.142 189.342 68.194C189.342 67.234 189.552 66.388 189.972 65.656C190.404 64.912 190.992 64.33 191.736 63.91C192.492 63.49 193.35 63.28 194.31 63.28C195.246 63.28 196.08 63.484 196.812 63.892C197.544 64.3 198.12 64.876 198.54 65.62C198.96 66.364 199.17 67.24 199.17 68.248C199.17 68.344 199.164 68.452 199.152 68.572C199.152 68.692 199.146 68.806 199.134 68.914H191.124V67.42H197.946L197.064 67.888C197.076 67.336 196.962 66.85 196.722 66.43C196.482 66.01 196.152 65.68 195.732 65.44C195.324 65.2 194.85 65.08 194.31 65.08C193.758 65.08 193.272 65.2 192.852 65.44C192.444 65.68 192.12 66.016 191.88 66.448C191.652 66.868 191.538 67.366 191.538 67.942V68.302C191.538 68.878 191.67 69.388 191.934 69.832C192.198 70.276 192.57 70.618 193.05 70.858C193.53 71.098 194.082 71.218 194.706 71.218C195.246 71.218 195.732 71.134 196.164 70.966C196.596 70.798 196.98 70.534 197.316 70.174L198.522 71.56C198.09 72.064 197.544 72.454 196.884 72.73C196.236 72.994 195.492 73.126 194.652 73.126ZM204.301 73.126C203.497 73.126 202.723 73.024 201.979 72.82C201.247 72.604 200.665 72.346 200.233 72.046L201.097 70.336C201.529 70.612 202.045 70.84 202.645 71.02C203.245 71.2 203.845 71.29 204.445 71.29C205.153 71.29 205.663 71.194 205.975 71.002C206.299 70.81 206.461 70.552 206.461 70.228C206.461 69.964 206.353 69.766 206.137 69.634C205.921 69.49 205.639 69.382 205.291 69.31C204.943 69.238 204.553 69.172 204.121 69.112C203.701 69.052 203.275 68.974 202.843 68.878C202.423 68.77 202.039 68.62 201.691 68.428C201.343 68.224 201.061 67.954 200.845 67.618C200.629 67.282 200.521 66.838 200.521 66.286C200.521 65.674 200.695 65.146 201.043 64.702C201.391 64.246 201.877 63.898 202.501 63.658C203.137 63.406 203.887 63.28 204.751 63.28C205.399 63.28 206.053 63.352 206.713 63.496C207.373 63.64 207.919 63.844 208.351 64.108L207.487 65.818C207.031 65.542 206.569 65.356 206.101 65.26C205.645 65.152 205.189 65.098 204.733 65.098C204.049 65.098 203.539 65.2 203.203 65.404C202.879 65.608 202.717 65.866 202.717 66.178C202.717 66.466 202.825 66.682 203.041 66.826C203.257 66.97 203.539 67.084 203.887 67.168C204.235 67.252 204.619 67.324 205.039 67.384C205.471 67.432 205.897 67.51 206.317 67.618C206.737 67.726 207.121 67.876 207.469 68.068C207.829 68.248 208.117 68.506 208.333 68.842C208.549 69.178 208.657 69.616 208.657 70.156C208.657 70.756 208.477 71.278 208.117 71.722C207.769 72.166 207.271 72.514 206.623 72.766C205.975 73.006 205.201 73.126 204.301 73.126ZM221.492 73V71.056L221.366 70.642V67.24C221.366 66.58 221.168 66.07 220.772 65.71C220.376 65.338 219.776 65.152 218.972 65.152C218.432 65.152 217.898 65.236 217.37 65.404C216.854 65.572 216.416 65.806 216.056 66.106L215.174 64.468C215.69 64.072 216.302 63.778 217.01 63.586C217.73 63.382 218.474 63.28 219.242 63.28C220.634 63.28 221.708 63.616 222.464 64.288C223.232 64.948 223.616 65.974 223.616 67.366V73H221.492ZM218.468 73.126C217.748 73.126 217.118 73.006 216.578 72.766C216.038 72.514 215.618 72.172 215.318 71.74C215.03 71.296 214.886 70.798 214.886 70.246C214.886 69.706 215.012 69.22 215.264 68.788C215.528 68.356 215.954 68.014 216.542 67.762C217.13 67.51 217.91 67.384 218.882 67.384H221.672V68.878H219.044C218.276 68.878 217.76 69.004 217.496 69.256C217.232 69.496 217.1 69.796 217.1 70.156C217.1 70.564 217.262 70.888 217.586 71.128C217.91 71.368 218.36 71.488 218.936 71.488C219.488 71.488 219.98 71.362 220.412 71.11C220.856 70.858 221.174 70.486 221.366 69.994L221.744 71.344C221.528 71.908 221.138 72.346 220.574 72.658C220.022 72.97 219.32 73.126 218.468 73.126ZM230.121 73.126C229.065 73.126 228.249 72.856 227.673 72.316C227.097 71.764 226.809 70.954 226.809 69.886V61.264H229.059V69.832C229.059 70.288 229.173 70.642 229.401 70.894C229.641 71.146 229.971 71.272 230.391 71.272C230.895 71.272 231.315 71.14 231.651 70.876L232.281 72.478C232.017 72.694 231.693 72.856 231.309 72.964C230.925 73.072 230.529 73.126 230.121 73.126ZM225.225 65.26V63.46H231.633V65.26H225.225ZM242.725 73.126C241.669 73.126 240.853 72.856 240.277 72.316C239.701 71.764 239.413 70.954 239.413 69.886V61.264H241.663V69.832C241.663 70.288 241.777 70.642 242.005 70.894C242.245 71.146 242.575 71.272 242.995 71.272C243.499 71.272 243.919 71.14 244.255 70.876L244.885 72.478C244.621 72.694 244.297 72.856 243.913 72.964C243.529 73.072 243.133 73.126 242.725 73.126ZM237.829 65.26V63.46H244.237V65.26H237.829ZM252.19 63.28C252.958 63.28 253.642 63.43 254.242 63.73C254.854 64.03 255.334 64.492 255.682 65.116C256.03 65.728 256.204 66.52 256.204 67.492V73H253.954V67.78C253.954 66.928 253.75 66.292 253.342 65.872C252.946 65.452 252.388 65.242 251.668 65.242C251.14 65.242 250.672 65.35 250.264 65.566C249.856 65.782 249.538 66.106 249.31 66.538C249.094 66.958 248.986 67.492 248.986 68.14V73H246.736V59.644H248.986V65.98L248.5 65.188C248.836 64.576 249.322 64.108 249.958 63.784C250.606 63.448 251.35 63.28 252.19 63.28ZM259.058 73V63.388H261.308V73H259.058ZM260.192 61.804C259.772 61.804 259.424 61.672 259.148 61.408C258.884 61.144 258.752 60.826 258.752 60.454C258.752 60.07 258.884 59.752 259.148 59.5C259.424 59.236 259.772 59.104 260.192 59.104C260.612 59.104 260.954 59.23 261.218 59.482C261.494 59.722 261.632 60.028 261.632 60.4C261.632 60.796 261.5 61.132 261.236 61.408C260.972 61.672 260.624 61.804 260.192 61.804ZM267.231 73.126C266.427 73.126 265.653 73.024 264.909 72.82C264.177 72.604 263.595 72.346 263.163 72.046L264.027 70.336C264.459 70.612 264.975 70.84 265.575 71.02C266.175 71.2 266.775 71.29 267.375 71.29C268.083 71.29 268.593 71.194 268.905 71.002C269.229 70.81 269.391 70.552 269.391 70.228C269.391 69.964 269.283 69.766 269.067 69.634C268.851 69.49 268.569 69.382 268.221 69.31C267.873 69.238 267.483 69.172 267.051 69.112C266.631 69.052 266.205 68.974 265.773 68.878C265.353 68.77 264.969 68.62 264.621 68.428C264.273 68.224 263.991 67.954 263.775 67.618C263.559 67.282 263.451 66.838 263.451 66.286C263.451 65.674 263.625 65.146 263.973 64.702C264.321 64.246 264.807 63.898 265.431 63.658C266.067 63.406 266.817 63.28 267.681 63.28C268.329 63.28 268.983 63.352 269.643 63.496C270.303 63.64 270.849 63.844 271.281 64.108L270.417 65.818C269.961 65.542 269.499 65.356 269.031 65.26C268.575 65.152 268.119 65.098 267.663 65.098C266.979 65.098 266.469 65.2 266.133 65.404C265.809 65.608 265.647 65.866 265.647 66.178C265.647 66.466 265.755 66.682 265.971 66.826C266.187 66.97 266.469 67.084 266.817 67.168C267.165 67.252 267.549 67.324 267.969 67.384C268.401 67.432 268.827 67.51 269.247 67.618C269.667 67.726 270.051 67.876 270.399 68.068C270.759 68.248 271.047 68.506 271.263 68.842C271.479 69.178 271.587 69.616 271.587 70.156C271.587 70.756 271.407 71.278 271.047 71.722C270.699 72.166 270.201 72.514 269.553 72.766C268.905 73.006 268.131 73.126 267.231 73.126ZM283.827 73.126C283.047 73.126 282.333 72.946 281.685 72.586C281.049 72.226 280.539 71.686 280.155 70.966C279.783 70.234 279.597 69.31 279.597 68.194C279.597 67.066 279.777 66.142 280.137 65.422C280.509 64.702 281.013 64.168 281.649 63.82C282.285 63.46 283.011 63.28 283.827 63.28C284.775 63.28 285.609 63.484 286.329 63.892C287.061 64.3 287.637 64.87 288.057 65.602C288.489 66.334 288.705 67.198 288.705 68.194C288.705 69.19 288.489 70.06 288.057 70.804C287.637 71.536 287.061 72.106 286.329 72.514C285.609 72.922 284.775 73.126 283.827 73.126ZM278.499 76.492V63.388H280.641V65.656L280.569 68.212L280.749 70.768V76.492H278.499ZM283.575 71.2C284.115 71.2 284.595 71.08 285.015 70.84C285.447 70.6 285.789 70.252 286.041 69.796C286.293 69.34 286.419 68.806 286.419 68.194C286.419 67.57 286.293 67.036 286.041 66.592C285.789 66.136 285.447 65.788 285.015 65.548C284.595 65.308 284.115 65.188 283.575 65.188C283.035 65.188 282.549 65.308 282.117 65.548C281.685 65.788 281.343 66.136 281.091 66.592C280.839 67.036 280.713 67.57 280.713 68.194C280.713 68.806 280.839 69.34 281.091 69.796C281.343 70.252 281.685 70.6 282.117 70.84C282.549 71.08 283.035 71.2 283.575 71.2ZM290.839 73V63.388H292.981V66.034L292.729 65.26C293.017 64.612 293.467 64.12 294.079 63.784C294.703 63.448 295.477 63.28 296.401 63.28V65.422C296.305 65.398 296.215 65.386 296.131 65.386C296.047 65.374 295.963 65.368 295.879 65.368C295.027 65.368 294.349 65.62 293.845 66.124C293.341 66.616 293.089 67.354 293.089 68.338V73H290.839ZM298.31 73V63.388H300.56V73H298.31ZM299.444 61.804C299.024 61.804 298.676 61.672 298.4 61.408C298.136 61.144 298.004 60.826 298.004 60.454C298.004 60.07 298.136 59.752 298.4 59.5C298.676 59.236 299.024 59.104 299.444 59.104C299.864 59.104 300.206 59.23 300.47 59.482C300.746 59.722 300.884 60.028 300.884 60.4C300.884 60.796 300.752 61.132 300.488 61.408C300.224 61.672 299.876 61.804 299.444 61.804ZM307.923 73.126C306.915 73.126 306.015 72.916 305.223 72.496C304.443 72.064 303.831 71.476 303.387 70.732C302.943 69.988 302.721 69.142 302.721 68.194C302.721 67.234 302.943 66.388 303.387 65.656C303.831 64.912 304.443 64.33 305.223 63.91C306.015 63.49 306.915 63.28 307.923 63.28C308.859 63.28 309.681 63.472 310.389 63.856C311.109 64.228 311.655 64.78 312.027 65.512L310.299 66.52C310.011 66.064 309.657 65.728 309.237 65.512C308.829 65.296 308.385 65.188 307.905 65.188C307.353 65.188 306.855 65.308 306.411 65.548C305.967 65.788 305.619 66.136 305.367 66.592C305.115 67.036 304.989 67.57 304.989 68.194C304.989 68.818 305.115 69.358 305.367 69.814C305.619 70.258 305.967 70.6 306.411 70.84C306.855 71.08 307.353 71.2 307.905 71.2C308.385 71.2 308.829 71.092 309.237 70.876C309.657 70.66 310.011 70.324 310.299 69.868L312.027 70.876C311.655 71.596 311.109 72.154 310.389 72.55C309.681 72.934 308.859 73.126 307.923 73.126ZM318.349 73.126C317.281 73.126 316.345 72.916 315.541 72.496C314.749 72.064 314.131 71.476 313.687 70.732C313.255 69.988 313.039 69.142 313.039 68.194C313.039 67.234 313.249 66.388 313.669 65.656C314.101 64.912 314.689 64.33 315.433 63.91C316.189 63.49 317.047 63.28 318.007 63.28C318.943 63.28 319.777 63.484 320.509 63.892C321.241 64.3 321.817 64.876 322.237 65.62C322.657 66.364 322.867 67.24 322.867 68.248C322.867 68.344 322.861 68.452 322.849 68.572C322.849 68.692 322.843 68.806 322.831 68.914H314.821V67.42H321.643L320.761 67.888C320.773 67.336 320.659 66.85 320.419 66.43C320.179 66.01 319.849 65.68 319.429 65.44C319.021 65.2 318.547 65.08 318.007 65.08C317.455 65.08 316.969 65.2 316.549 65.44C316.141 65.68 315.817 66.016 315.577 66.448C315.349 66.868 315.235 67.366 315.235 67.942V68.302C315.235 68.878 315.367 69.388 315.631 69.832C315.895 70.276 316.267 70.618 316.747 70.858C317.227 71.098 317.779 71.218 318.403 71.218C318.943 71.218 319.429 71.134 319.861 70.966C320.293 70.798 320.677 70.534 321.013 70.174L322.219 71.56C321.787 72.064 321.241 72.454 320.581 72.73C319.933 72.994 319.189 73.126 318.349 73.126Z" fill="#214B33"/>
<path d="M172 21L899 21" stroke="#BC0051"/>
<path d="M68.692 21V8.4H73.876C74.992 8.4 75.946 8.58 76.738 8.94C77.542 9.3 78.16 9.816 78.592 10.488C79.024 11.16 79.24 11.958 79.24 12.882C79.24 13.806 79.024 14.604 78.592 15.276C78.16 15.936 77.542 16.446 76.738 16.806C75.946 17.154 74.992 17.328 73.876 17.328H69.988L71.032 16.266V21H68.692ZM76.936 21L73.75 16.428H76.252L79.456 21H76.936ZM71.032 16.518L69.988 15.402H73.768C74.8 15.402 75.574 15.18 76.09 14.736C76.618 14.292 76.882 13.674 76.882 12.882C76.882 12.078 76.618 11.46 76.09 11.028C75.574 10.596 74.8 10.38 73.768 10.38H69.988L71.032 9.228V16.518ZM86.16 21.126C85.092 21.126 84.156 20.916 83.352 20.496C82.56 20.064 81.942 19.476 81.498 18.732C81.066 17.988 80.85 17.142 80.85 16.194C80.85 15.234 81.06 14.388 81.48 13.656C81.912 12.912 82.5 12.33 83.244 11.91C84 11.49 84.858 11.28 85.818 11.28C86.754 11.28 87.588 11.484 88.32 11.892C89.052 12.3 89.628 12.876 90.048 13.62C90.468 14.364 90.678 15.24 90.678 16.248C90.678 16.344 90.672 16.452 90.66 16.572C90.66 16.692 90.654 16.806 90.642 16.914H82.632V15.42H89.454L88.572 15.888C88.584 15.336 88.47 14.85 88.23 14.43C87.99 14.01 87.66 13.68 87.24 13.44C86.832 13.2 86.358 13.08 85.818 13.08C85.266 13.08 84.78 13.2 84.36 13.44C83.952 13.68 83.628 14.016 83.388 14.448C83.16 14.868 83.046 15.366 83.046 15.942V16.302C83.046 16.878 83.178 17.388 83.442 17.832C83.706 18.276 84.078 18.618 84.558 18.858C85.038 19.098 85.59 19.218 86.214 19.218C86.754 19.218 87.24 19.134 87.672 18.966C88.104 18.798 88.488 18.534 88.824 18.174L90.03 19.56C89.598 20.064 89.052 20.454 88.392 20.73C87.744 20.994 87 21.126 86.16 21.126ZM96.4573 21.126C95.4013 21.126 94.5853 20.856 94.0093 20.316C93.4333 19.764 93.1453 18.954 93.1453 17.886V9.264H95.3953V17.832C95.3953 18.288 95.5093 18.642 95.7373 18.894C95.9773 19.146 96.3073 19.272 96.7273 19.272C97.2313 19.272 97.6513 19.14 97.9873 18.876L98.6173 20.478C98.3533 20.694 98.0293 20.856 97.6453 20.964C97.2613 21.072 96.8653 21.126 96.4573 21.126ZM91.5613 13.26V11.46H97.9693V13.26H91.5613ZM106.39 21V19.056L106.264 18.642V15.24C106.264 14.58 106.066 14.07 105.67 13.71C105.274 13.338 104.674 13.152 103.87 13.152C103.33 13.152 102.796 13.236 102.268 13.404C101.752 13.572 101.314 13.806 100.954 14.106L100.072 12.468C100.588 12.072 101.2 11.778 101.908 11.586C102.628 11.382 103.372 11.28 104.14 11.28C105.532 11.28 106.606 11.616 107.362 12.288C108.13 12.948 108.514 13.974 108.514 15.366V21H106.39ZM103.366 21.126C102.646 21.126 102.016 21.006 101.476 20.766C100.936 20.514 100.516 20.172 100.216 19.74C99.9282 19.296 99.7842 18.798 99.7842 18.246C99.7842 17.706 99.9102 17.22 100.162 16.788C100.426 16.356 100.852 16.014 101.44 15.762C102.028 15.51 102.808 15.384 103.78 15.384H106.57V16.878H103.942C103.174 16.878 102.658 17.004 102.394 17.256C102.13 17.496 101.998 17.796 101.998 18.156C101.998 18.564 102.16 18.888 102.484 19.128C102.808 19.368 103.258 19.488 103.834 19.488C104.386 19.488 104.878 19.362 105.31 19.11C105.754 18.858 106.072 18.486 106.264 17.994L106.642 19.344C106.426 19.908 106.036 20.346 105.472 20.658C104.92 20.97 104.218 21.126 103.366 21.126ZM111.402 21V11.388H113.652V21H111.402ZM112.536 9.804C112.116 9.804 111.768 9.672 111.492 9.408C111.228 9.144 111.096 8.826 111.096 8.454C111.096 8.07 111.228 7.752 111.492 7.5C111.768 7.236 112.116 7.104 112.536 7.104C112.956 7.104 113.298 7.23 113.562 7.482C113.838 7.722 113.976 8.028 113.976 8.4C113.976 8.796 113.844 9.132 113.58 9.408C113.316 9.672 112.968 9.804 112.536 9.804ZM116.605 21V7.644H118.855V21H116.605ZM132.111 21.126C131.331 21.126 130.617 20.946 129.969 20.586C129.333 20.226 128.823 19.686 128.439 18.966C128.067 18.234 127.881 17.31 127.881 16.194C127.881 15.066 128.061 14.142 128.421 13.422C128.793 12.702 129.297 12.168 129.933 11.82C130.569 11.46 131.295 11.28 132.111 11.28C133.059 11.28 133.893 11.484 134.613 11.892C135.345 12.3 135.921 12.87 136.341 13.602C136.773 14.334 136.989 15.198 136.989 16.194C136.989 17.19 136.773 18.06 136.341 18.804C135.921 19.536 135.345 20.106 134.613 20.514C133.893 20.922 133.059 21.126 132.111 21.126ZM126.783 24.492V11.388H128.925V13.656L128.853 16.212L129.033 18.768V24.492H126.783ZM131.859 19.2C132.399 19.2 132.879 19.08 133.299 18.84C133.731 18.6 134.073 18.252 134.325 17.796C134.577 17.34 134.703 16.806 134.703 16.194C134.703 15.57 134.577 15.036 134.325 14.592C134.073 14.136 133.731 13.788 133.299 13.548C132.879 13.308 132.399 13.188 131.859 13.188C131.319 13.188 130.833 13.308 130.401 13.548C129.969 13.788 129.627 14.136 129.375 14.592C129.123 15.036 128.997 15.57 128.997 16.194C128.997 16.806 129.123 17.34 129.375 17.796C129.627 18.252 129.969 18.6 130.401 18.84C130.833 19.08 131.319 19.2 131.859 19.2ZM139.122 21V11.388H141.264V14.034L141.012 13.26C141.3 12.612 141.75 12.12 142.362 11.784C142.986 11.448 143.76 11.28 144.684 11.28V13.422C144.588 13.398 144.498 13.386 144.414 13.386C144.33 13.374 144.246 13.368 144.162 13.368C143.31 13.368 142.632 13.62 142.128 14.124C141.624 14.616 141.372 15.354 141.372 16.338V21H139.122ZM146.593 21V11.388H148.843V21H146.593ZM147.727 9.804C147.307 9.804 146.959 9.672 146.683 9.408C146.419 9.144 146.287 8.826 146.287 8.454C146.287 8.07 146.419 7.752 146.683 7.5C146.959 7.236 147.307 7.104 147.727 7.104C148.147 7.104 148.489 7.23 148.753 7.482C149.029 7.722 149.167 8.028 149.167 8.4C149.167 8.796 149.035 9.132 148.771 9.408C148.507 9.672 148.159 9.804 147.727 9.804ZM156.206 21.126C155.198 21.126 154.298 20.916 153.506 20.496C152.726 20.064 152.114 19.476 151.67 18.732C151.226 17.988 151.004 17.142 151.004 16.194C151.004 15.234 151.226 14.388 151.67 13.656C152.114 12.912 152.726 12.33 153.506 11.91C154.298 11.49 155.198 11.28 156.206 11.28C157.142 11.28 157.964 11.472 158.672 11.856C159.392 12.228 159.938 12.78 160.31 13.512L158.582 14.52C158.294 14.064 157.94 13.728 157.52 13.512C157.112 13.296 156.668 13.188 156.188 13.188C155.636 13.188 155.138 13.308 154.694 13.548C154.25 13.788 153.902 14.136 153.65 14.592C153.398 15.036 153.272 15.57 153.272 16.194C153.272 16.818 153.398 17.358 153.65 17.814C153.902 18.258 154.25 18.6 154.694 18.84C155.138 19.08 155.636 19.2 156.188 19.2C156.668 19.2 157.112 19.092 157.52 18.876C157.94 18.66 158.294 18.324 158.582 17.868L160.31 18.876C159.938 19.596 159.392 20.154 158.672 20.55C157.964 20.934 157.142 21.126 156.206 21.126ZM166.633 21.126C165.565 21.126 164.629 20.916 163.825 20.496C163.033 20.064 162.415 19.476 161.971 18.732C161.539 17.988 161.323 17.142 161.323 16.194C161.323 15.234 161.533 14.388 161.953 13.656C162.385 12.912 162.973 12.33 163.717 11.91C164.473 11.49 165.331 11.28 166.291 11.28C167.227 11.28 168.061 11.484 168.793 11.892C169.525 12.3 170.101 12.876 170.521 13.62C170.941 14.364 171.151 15.24 171.151 16.248C171.151 16.344 171.145 16.452 171.133 16.572C171.133 16.692 171.127 16.806 171.115 16.914H163.105V15.42H169.927L169.045 15.888C169.057 15.336 168.943 14.85 168.703 14.43C168.463 14.01 168.133 13.68 167.713 13.44C167.305 13.2 166.831 13.08 166.291 13.08C165.739 13.08 165.253 13.2 164.833 13.44C164.425 13.68 164.101 14.016 163.861 14.448C163.633 14.868 163.519 15.366 163.519 15.942V16.302C163.519 16.878 163.651 17.388 163.915 17.832C164.179 18.276 164.551 18.618 165.031 18.858C165.511 19.098 166.063 19.218 166.687 19.218C167.227 19.218 167.713 19.134 168.145 18.966C168.577 18.798 168.961 18.534 169.297 18.174L170.503 19.56C170.071 20.064 169.525 20.454 168.865 20.73C168.217 20.994 167.473 21.126 166.633 21.126Z" fill="#BC0051"/>
<path d="M347 158L1 158" stroke="#A2C33D"/>
<path d="M9.512 150V141.136L10.44 143.696L0.712 127.6H5.16L12.968 140.56H10.472L18.344 127.6H22.44L12.712 143.696L13.672 141.136V150H9.512ZM30.554 150.224C28.8047 150.224 27.2473 149.851 25.882 149.104C24.5167 148.336 23.4393 147.291 22.65 145.968C21.8607 144.645 21.466 143.141 21.466 141.456C21.466 139.749 21.8607 138.245 22.65 136.944C23.4393 135.621 24.5167 134.587 25.882 133.84C27.2473 133.093 28.8047 132.72 30.554 132.72C32.3247 132.72 33.8927 133.093 35.258 133.84C36.6447 134.587 37.722 135.611 38.49 136.912C39.2793 138.213 39.674 139.728 39.674 141.456C39.674 143.141 39.2793 144.645 38.49 145.968C37.722 147.291 36.6447 148.336 35.258 149.104C33.8927 149.851 32.3247 150.224 30.554 150.224ZM30.554 146.8C31.5353 146.8 32.41 146.587 33.178 146.16C33.946 145.733 34.5433 145.115 34.97 144.304C35.418 143.493 35.642 142.544 35.642 141.456C35.642 140.347 35.418 139.397 34.97 138.608C34.5433 137.797 33.946 137.179 33.178 136.752C32.41 136.325 31.546 136.112 30.586 136.112C29.6047 136.112 28.73 136.325 27.962 136.752C27.2153 137.179 26.618 137.797 26.17 138.608C25.722 139.397 25.498 140.347 25.498 141.456C25.498 142.544 25.722 143.493 26.17 144.304C26.618 145.115 27.2153 145.733 27.962 146.16C28.73 146.587 29.594 146.8 30.554 146.8ZM50.731 150.224C49.2803 150.224 48.0003 149.957 46.891 149.424C45.7817 148.869 44.9177 148.037 44.299 146.928C43.6803 145.797 43.371 144.379 43.371 142.672V132.912H47.371V142.128C47.371 143.664 47.7123 144.816 48.395 145.584C49.099 146.331 50.091 146.704 51.371 146.704C52.3097 146.704 53.1203 146.512 53.803 146.128C54.507 145.744 55.051 145.168 55.435 144.4C55.8403 143.632 56.043 142.683 56.043 141.552V132.912H60.043V150H56.235V145.392L56.907 146.8C56.331 147.909 55.4883 148.763 54.379 149.36C53.2697 149.936 52.0537 150.224 50.731 150.224ZM65.2803 150V132.912H69.0883V137.616L68.6403 136.24C69.1523 135.088 69.9523 134.213 71.0403 133.616C72.1496 133.019 73.5256 132.72 75.1683 132.72V136.528C74.9976 136.485 74.8376 136.464 74.6883 136.464C74.5389 136.443 74.3896 136.432 74.2403 136.432C72.7256 136.432 71.5203 136.88 70.6243 137.776C69.7283 138.651 69.2803 139.963 69.2803 141.712V150H65.2803ZM97.0335 150.224C95.5828 150.224 94.2922 149.904 93.1615 149.264C92.0308 148.624 91.1348 147.664 90.4735 146.384C89.8335 145.083 89.5135 143.44 89.5135 141.456C89.5135 139.451 89.8442 137.808 90.5055 136.528C91.1882 135.248 92.0948 134.299 93.2255 133.68C94.3775 133.04 95.6468 132.72 97.0335 132.72C98.7188 132.72 100.202 133.083 101.482 133.808C102.783 134.533 103.807 135.547 104.554 136.848C105.322 138.149 105.706 139.685 105.706 141.456C105.706 143.227 105.322 144.763 104.554 146.064C103.807 147.365 102.783 148.389 101.482 149.136C100.202 149.861 98.7188 150.224 97.0335 150.224ZM87.5615 150V126.256H91.5615V136.88L91.2415 141.424L91.3695 145.968V150H87.5615ZM96.5855 146.8C97.5455 146.8 98.3988 146.587 99.1455 146.16C99.9135 145.733 100.522 145.115 100.97 144.304C101.418 143.493 101.642 142.544 101.642 141.456C101.642 140.347 101.418 139.397 100.97 138.608C100.522 137.797 99.9135 137.179 99.1455 136.752C98.3988 136.325 97.5455 136.112 96.5855 136.112C95.6255 136.112 94.7615 136.325 93.9935 136.752C93.2255 137.179 92.6175 137.797 92.1695 138.608C91.7215 139.397 91.4975 140.347 91.4975 141.456C91.4975 142.544 91.7215 143.493 92.1695 144.304C92.6175 145.115 93.2255 145.733 93.9935 146.16C94.7615 146.587 95.6255 146.8 96.5855 146.8ZM117.531 150.224C115.632 150.224 113.968 149.851 112.539 149.104C111.131 148.336 110.032 147.291 109.243 145.968C108.475 144.645 108.091 143.141 108.091 141.456C108.091 139.749 108.464 138.245 109.211 136.944C109.979 135.621 111.024 134.587 112.347 133.84C113.691 133.093 115.216 132.72 116.923 132.72C118.587 132.72 120.07 133.083 121.371 133.808C122.672 134.533 123.696 135.557 124.443 136.88C125.19 138.203 125.563 139.76 125.563 141.552C125.563 141.723 125.552 141.915 125.531 142.128C125.531 142.341 125.52 142.544 125.499 142.736H111.259V140.08H123.387L121.819 140.912C121.84 139.931 121.638 139.067 121.211 138.32C120.784 137.573 120.198 136.987 119.451 136.56C118.726 136.133 117.883 135.92 116.923 135.92C115.942 135.92 115.078 136.133 114.331 136.56C113.606 136.987 113.03 137.584 112.603 138.352C112.198 139.099 111.995 139.984 111.995 141.008V141.648C111.995 142.672 112.23 143.579 112.699 144.368C113.168 145.157 113.83 145.765 114.683 146.192C115.536 146.619 116.518 146.832 117.627 146.832C118.587 146.832 119.451 146.683 120.219 146.384C120.987 146.085 121.67 145.616 122.267 144.976L124.411 147.44C123.643 148.336 122.672 149.029 121.499 149.52C120.347 149.989 119.024 150.224 117.531 150.224ZM139.101 132.72C140.467 132.72 141.683 132.987 142.749 133.52C143.837 134.053 144.691 134.875 145.309 135.984C145.928 137.072 146.237 138.48 146.237 140.208V150H142.237V140.72C142.237 139.205 141.875 138.075 141.149 137.328C140.445 136.581 139.453 136.208 138.173 136.208C137.235 136.208 136.403 136.4 135.677 136.784C134.952 137.168 134.387 137.744 133.981 138.512C133.597 139.259 133.405 140.208 133.405 141.36V150H129.405V132.912H133.213V137.52L132.541 136.112C133.139 135.024 134.003 134.192 135.133 133.616C136.285 133.019 137.608 132.72 139.101 132.72ZM159.375 150.224C157.476 150.224 155.812 149.851 154.383 149.104C152.975 148.336 151.876 147.291 151.087 145.968C150.319 144.645 149.935 143.141 149.935 141.456C149.935 139.749 150.308 138.245 151.055 136.944C151.823 135.621 152.868 134.587 154.191 133.84C155.535 133.093 157.06 132.72 158.767 132.72C160.431 132.72 161.913 133.083 163.215 133.808C164.516 134.533 165.54 135.557 166.287 136.88C167.033 138.203 167.407 139.76 167.407 141.552C167.407 141.723 167.396 141.915 167.375 142.128C167.375 142.341 167.364 142.544 167.343 142.736H153.103V140.08H165.231L163.663 140.912C163.684 139.931 163.481 139.067 163.055 138.32C162.628 137.573 162.041 136.987 161.295 136.56C160.569 136.133 159.727 135.92 158.767 135.92C157.785 135.92 156.921 136.133 156.175 136.56C155.449 136.987 154.873 137.584 154.447 138.352C154.041 139.099 153.839 139.984 153.839 141.008V141.648C153.839 142.672 154.073 143.579 154.543 144.368C155.012 145.157 155.673 145.765 156.527 146.192C157.38 146.619 158.361 146.832 159.471 146.832C160.431 146.832 161.295 146.683 162.063 146.384C162.831 146.085 163.513 145.616 164.111 144.976L166.255 147.44C165.487 148.336 164.516 149.029 163.343 149.52C162.191 149.989 160.868 150.224 159.375 150.224ZM171.793 150V131.952C171.793 130.16 172.316 128.731 173.361 127.664C174.428 126.576 175.942 126.032 177.905 126.032C178.609 126.032 179.27 126.107 179.889 126.256C180.529 126.405 181.062 126.64 181.489 126.96L180.401 129.968C180.102 129.733 179.761 129.563 179.377 129.456C178.993 129.328 178.598 129.264 178.193 129.264C177.361 129.264 176.732 129.499 176.305 129.968C175.878 130.416 175.665 131.099 175.665 132.016V133.936L175.793 135.728V150H171.793ZM168.977 136.24V133.04H180.369V136.24H168.977ZM183.185 150V132.912H187.185V150H183.185ZM185.201 130.096C184.454 130.096 183.836 129.861 183.345 129.392C182.876 128.923 182.641 128.357 182.641 127.696C182.641 127.013 182.876 126.448 183.345 126C183.836 125.531 184.454 125.296 185.201 125.296C185.948 125.296 186.556 125.52 187.025 125.968C187.516 126.395 187.761 126.939 187.761 127.6C187.761 128.304 187.526 128.901 187.057 129.392C186.588 129.861 185.969 130.096 185.201 130.096ZM198.869 150.224C196.991 150.224 195.541 149.744 194.516 148.784C193.493 147.803 192.981 146.363 192.981 144.464V129.136H196.981V144.368C196.981 145.179 197.183 145.808 197.589 146.256C198.015 146.704 198.602 146.928 199.349 146.928C200.245 146.928 200.991 146.693 201.589 146.224L202.709 149.072C202.239 149.456 201.663 149.744 200.981 149.936C200.298 150.128 199.594 150.224 198.869 150.224ZM190.165 136.24V133.04H201.557V136.24H190.165Z" fill="#A2C33D"/>
<path d="M340.436 361V351.62L340.884 352.096H338.126V351.2H341.444V361H340.436ZM352.715 361V359.376L352.673 359.11V356.394C352.673 355.769 352.495 355.288 352.141 354.952C351.795 354.616 351.277 354.448 350.587 354.448C350.111 354.448 349.658 354.527 349.229 354.686C348.799 354.845 348.435 355.055 348.137 355.316L347.689 354.574C348.062 354.257 348.51 354.014 349.033 353.846C349.555 353.669 350.106 353.58 350.685 353.58C351.637 353.58 352.369 353.818 352.883 354.294C353.405 354.761 353.667 355.475 353.667 356.436V361H352.715ZM350.181 361.07C349.63 361.07 349.149 360.981 348.739 360.804C348.337 360.617 348.029 360.365 347.815 360.048C347.6 359.721 347.493 359.348 347.493 358.928C347.493 358.545 347.581 358.2 347.759 357.892C347.945 357.575 348.244 357.323 348.655 357.136C349.075 356.94 349.635 356.842 350.335 356.842H352.869V357.584H350.363C349.653 357.584 349.159 357.71 348.879 357.962C348.608 358.214 348.473 358.527 348.473 358.9C348.473 359.32 348.636 359.656 348.963 359.908C349.289 360.16 349.747 360.286 350.335 360.286C350.895 360.286 351.375 360.16 351.777 359.908C352.187 359.647 352.486 359.273 352.673 358.788L352.897 359.474C352.71 359.959 352.383 360.347 351.917 360.636C351.459 360.925 350.881 361.07 350.181 361.07ZM360.16 361.07C359.526 361.07 358.952 360.925 358.438 360.636C357.925 360.337 357.514 359.913 357.206 359.362C356.908 358.802 356.758 358.121 356.758 357.318C356.758 356.515 356.908 355.839 357.206 355.288C357.505 354.728 357.911 354.303 358.424 354.014C358.938 353.725 359.516 353.58 360.16 353.58C360.86 353.58 361.486 353.739 362.036 354.056C362.596 354.364 363.035 354.803 363.352 355.372C363.67 355.932 363.828 356.581 363.828 357.318C363.828 358.065 363.67 358.718 363.352 359.278C363.035 359.838 362.596 360.277 362.036 360.594C361.486 360.911 360.86 361.07 360.16 361.07ZM356.366 363.716V353.65H357.318V355.862L357.22 357.332L357.36 358.816V363.716H356.366ZM360.09 360.188C360.613 360.188 361.08 360.071 361.49 359.838C361.901 359.595 362.228 359.259 362.47 358.83C362.713 358.391 362.834 357.887 362.834 357.318C362.834 356.749 362.713 356.249 362.47 355.82C362.228 355.391 361.901 355.055 361.49 354.812C361.08 354.569 360.613 354.448 360.09 354.448C359.568 354.448 359.096 354.569 358.676 354.812C358.266 355.055 357.939 355.391 357.696 355.82C357.463 356.249 357.346 356.749 357.346 357.318C357.346 357.887 357.463 358.391 357.696 358.83C357.939 359.259 358.266 359.595 358.676 359.838C359.096 360.071 359.568 360.188 360.09 360.188ZM365.855 361V353.65H366.807V355.652L366.709 355.302C366.914 354.742 367.259 354.317 367.745 354.028C368.23 353.729 368.832 353.58 369.551 353.58V354.546C369.513 354.546 369.476 354.546 369.439 354.546C369.401 354.537 369.364 354.532 369.327 354.532C368.552 354.532 367.945 354.77 367.507 355.246C367.068 355.713 366.849 356.38 366.849 357.248V361H365.855ZM371.365 361V353.65H372.359V361H371.365ZM371.869 352.026C371.663 352.026 371.491 351.956 371.351 351.816C371.211 351.676 371.141 351.508 371.141 351.312C371.141 351.116 371.211 350.953 371.351 350.822C371.491 350.682 371.663 350.612 371.869 350.612C372.074 350.612 372.247 350.677 372.387 350.808C372.527 350.939 372.597 351.102 372.597 351.298C372.597 351.503 372.527 351.676 372.387 351.816C372.256 351.956 372.083 352.026 371.869 352.026ZM375.124 361V350.612H376.118V361H375.124Z" fill="#313131"/>
<path d="M868.654 361.084C867.945 361.084 867.273 360.972 866.638 360.748C866.013 360.515 865.509 360.207 865.126 359.824L865.616 359.026C865.933 359.353 866.358 359.623 866.89 359.838C867.431 360.053 868.019 360.16 868.654 360.16C869.466 360.16 870.087 359.983 870.516 359.628C870.955 359.273 871.174 358.797 871.174 358.2C871.174 357.603 870.959 357.127 870.53 356.772C870.11 356.417 869.443 356.24 868.528 356.24H867.828V355.498L870.852 351.704L870.992 352.096H865.532V351.2H871.832V351.914L868.808 355.708L868.318 355.386H868.696C869.872 355.386 870.749 355.647 871.328 356.17C871.916 356.693 872.21 357.365 872.21 358.186C872.21 358.737 872.079 359.231 871.818 359.67C871.557 360.109 871.16 360.454 870.628 360.706C870.105 360.958 869.447 361.084 868.654 361.084ZM877.536 361.084C876.78 361.084 876.108 360.888 875.52 360.496C874.932 360.095 874.47 359.525 874.134 358.788C873.798 358.041 873.63 357.145 873.63 356.1C873.63 355.055 873.798 354.163 874.134 353.426C874.47 352.679 874.932 352.11 875.52 351.718C876.108 351.317 876.78 351.116 877.536 351.116C878.292 351.116 878.964 351.317 879.552 351.718C880.14 352.11 880.602 352.679 880.938 353.426C881.284 354.163 881.456 355.055 881.456 356.1C881.456 357.145 881.284 358.041 880.938 358.788C880.602 359.525 880.14 360.095 879.552 360.496C878.964 360.888 878.292 361.084 877.536 361.084ZM877.536 360.16C878.115 360.16 878.619 360.006 879.048 359.698C879.478 359.381 879.814 358.923 880.056 358.326C880.299 357.719 880.42 356.977 880.42 356.1C880.42 355.223 880.299 354.485 880.056 353.888C879.814 353.281 879.478 352.824 879.048 352.516C878.619 352.199 878.115 352.04 877.536 352.04C876.976 352.04 876.477 352.199 876.038 352.516C875.6 352.824 875.259 353.281 875.016 353.888C874.774 354.485 874.652 355.223 874.652 356.1C874.652 356.977 874.774 357.719 875.016 358.326C875.259 358.923 875.6 359.381 876.038 359.698C876.477 360.006 876.976 360.16 877.536 360.16ZM891.828 361V359.376L891.786 359.11V356.394C891.786 355.769 891.609 355.288 891.254 354.952C890.909 354.616 890.391 354.448 889.7 354.448C889.224 354.448 888.771 354.527 888.342 354.686C887.913 354.845 887.549 355.055 887.25 355.316L886.802 354.574C887.175 354.257 887.623 354.014 888.146 353.846C888.669 353.669 889.219 353.58 889.798 353.58C890.75 353.58 891.483 353.818 891.996 354.294C892.519 354.761 892.78 355.475 892.78 356.436V361H891.828ZM889.294 361.07C888.743 361.07 888.263 360.981 887.852 360.804C887.451 360.617 887.143 360.365 886.928 360.048C886.713 359.721 886.606 359.348 886.606 358.928C886.606 358.545 886.695 358.2 886.872 357.892C887.059 357.575 887.357 357.323 887.768 357.136C888.188 356.94 888.748 356.842 889.448 356.842H891.982V357.584H889.476C888.767 357.584 888.272 357.71 887.992 357.962C887.721 358.214 887.586 358.527 887.586 358.9C887.586 359.32 887.749 359.656 888.076 359.908C888.403 360.16 888.86 360.286 889.448 360.286C890.008 360.286 890.489 360.16 890.89 359.908C891.301 359.647 891.599 359.273 891.786 358.788L892.01 359.474C891.823 359.959 891.497 360.347 891.03 360.636C890.573 360.925 889.994 361.07 889.294 361.07ZM899.274 361.07C898.639 361.07 898.065 360.925 897.552 360.636C897.038 360.337 896.628 359.913 896.32 359.362C896.021 358.802 895.872 358.121 895.872 357.318C895.872 356.515 896.021 355.839 896.32 355.288C896.618 354.728 897.024 354.303 897.538 354.014C898.051 353.725 898.63 353.58 899.274 353.58C899.974 353.58 900.599 353.739 901.15 354.056C901.71 354.364 902.148 354.803 902.466 355.372C902.783 355.932 902.942 356.581 902.942 357.318C902.942 358.065 902.783 358.718 902.466 359.278C902.148 359.838 901.71 360.277 901.15 360.594C900.599 360.911 899.974 361.07 899.274 361.07ZM895.48 363.716V353.65H896.432V355.862L896.334 357.332L896.474 358.816V363.716H895.48ZM899.204 360.188C899.726 360.188 900.193 360.071 900.604 359.838C901.014 359.595 901.341 359.259 901.584 358.83C901.826 358.391 901.948 357.887 901.948 357.318C901.948 356.749 901.826 356.249 901.584 355.82C901.341 355.391 901.014 355.055 900.604 354.812C900.193 354.569 899.726 354.448 899.204 354.448C898.681 354.448 898.21 354.569 897.79 354.812C897.379 355.055 897.052 355.391 896.81 355.82C896.576 356.249 896.46 356.749 896.46 357.318C896.46 357.887 896.576 358.391 896.81 358.83C897.052 359.259 897.379 359.595 897.79 359.838C898.21 360.071 898.681 360.188 899.204 360.188ZM904.968 361V353.65H905.92V355.652L905.822 355.302C906.027 354.742 906.373 354.317 906.858 354.028C907.343 353.729 907.945 353.58 908.664 353.58V354.546C908.627 354.546 908.589 354.546 908.552 354.546C908.515 354.537 908.477 354.532 908.44 354.532C907.665 354.532 907.059 354.77 906.62 355.246C906.181 355.713 905.962 356.38 905.962 357.248V361H904.968ZM910.478 361V353.65H911.472V361H910.478ZM910.982 352.026C910.776 352.026 910.604 351.956 910.464 351.816C910.324 351.676 910.254 351.508 910.254 351.312C910.254 351.116 910.324 350.953 910.464 350.822C910.604 350.682 910.776 350.612 910.982 350.612C911.187 350.612 911.36 350.677 911.5 350.808C911.64 350.939 911.71 351.102 911.71 351.298C911.71 351.503 911.64 351.676 911.5 351.816C911.369 351.956 911.196 352.026 910.982 352.026ZM914.238 361V350.612H915.232V361H914.238Z" fill="#313131"/>
<path d="M589.436 361V351.62L589.884 352.096H587.126V351.2H590.444V361H589.436ZM595.881 361.084C595.181 361.084 594.513 360.972 593.879 360.748C593.244 360.515 592.74 360.207 592.367 359.824L592.857 359.026C593.165 359.353 593.585 359.623 594.117 359.838C594.658 360.053 595.241 360.16 595.867 360.16C596.697 360.16 597.327 359.978 597.757 359.614C598.195 359.241 598.415 358.755 598.415 358.158C598.415 357.738 598.312 357.379 598.107 357.08C597.911 356.772 597.575 356.534 597.099 356.366C596.623 356.198 595.969 356.114 595.139 356.114H593.053L593.557 351.2H598.919V352.096H593.963L594.481 351.606L594.047 355.722L593.529 355.218H595.363C596.352 355.218 597.145 355.339 597.743 355.582C598.34 355.825 598.769 356.165 599.031 356.604C599.301 357.033 599.437 357.537 599.437 358.116C599.437 358.667 599.306 359.171 599.045 359.628C598.783 360.076 598.391 360.431 597.869 360.692C597.346 360.953 596.683 361.084 595.881 361.084ZM609.644 361V359.376L609.602 359.11V356.394C609.602 355.769 609.425 355.288 609.07 354.952C608.725 354.616 608.207 354.448 607.516 354.448C607.04 354.448 606.588 354.527 606.158 354.686C605.729 354.845 605.365 355.055 605.066 355.316L604.618 354.574C604.992 354.257 605.44 354.014 605.962 353.846C606.485 353.669 607.036 353.58 607.614 353.58C608.566 353.58 609.299 353.818 609.812 354.294C610.335 354.761 610.596 355.475 610.596 356.436V361H609.644ZM607.11 361.07C606.56 361.07 606.079 360.981 605.668 360.804C605.267 360.617 604.959 360.365 604.744 360.048C604.53 359.721 604.422 359.348 604.422 358.928C604.422 358.545 604.511 358.2 604.688 357.892C604.875 357.575 605.174 357.323 605.584 357.136C606.004 356.94 606.564 356.842 607.264 356.842H609.798V357.584H607.292C606.583 357.584 606.088 357.71 605.808 357.962C605.538 358.214 605.402 358.527 605.402 358.9C605.402 359.32 605.566 359.656 605.892 359.908C606.219 360.16 606.676 360.286 607.264 360.286C607.824 360.286 608.305 360.16 608.706 359.908C609.117 359.647 609.416 359.273 609.602 358.788L609.826 359.474C609.64 359.959 609.313 360.347 608.846 360.636C608.389 360.925 607.81 361.07 607.11 361.07ZM617.09 361.07C616.455 361.07 615.881 360.925 615.368 360.636C614.855 360.337 614.444 359.913 614.136 359.362C613.837 358.802 613.688 358.121 613.688 357.318C613.688 356.515 613.837 355.839 614.136 355.288C614.435 354.728 614.841 354.303 615.354 354.014C615.867 353.725 616.446 353.58 617.09 353.58C617.79 353.58 618.415 353.739 618.966 354.056C619.526 354.364 619.965 354.803 620.282 355.372C620.599 355.932 620.758 356.581 620.758 357.318C620.758 358.065 620.599 358.718 620.282 359.278C619.965 359.838 619.526 360.277 618.966 360.594C618.415 360.911 617.79 361.07 617.09 361.07ZM613.296 363.716V353.65H614.248V355.862L614.15 357.332L614.29 358.816V363.716H613.296ZM617.02 360.188C617.543 360.188 618.009 360.071 618.42 359.838C618.831 359.595 619.157 359.259 619.4 358.83C619.643 358.391 619.764 357.887 619.764 357.318C619.764 356.749 619.643 356.249 619.4 355.82C619.157 355.391 618.831 355.055 618.42 354.812C618.009 354.569 617.543 354.448 617.02 354.448C616.497 354.448 616.026 354.569 615.606 354.812C615.195 355.055 614.869 355.391 614.626 355.82C614.393 356.249 614.276 356.749 614.276 357.318C614.276 357.887 614.393 358.391 614.626 358.83C614.869 359.259 615.195 359.595 615.606 359.838C616.026 360.071 616.497 360.188 617.02 360.188ZM622.784 361V353.65H623.736V355.652L623.638 355.302C623.844 354.742 624.189 354.317 624.674 354.028C625.16 353.729 625.762 353.58 626.48 353.58V354.546C626.443 354.546 626.406 354.546 626.368 354.546C626.331 354.537 626.294 354.532 626.256 354.532C625.482 354.532 624.875 354.77 624.436 355.246C623.998 355.713 623.778 356.38 623.778 357.248V361H622.784ZM628.294 361V353.65H629.288V361H628.294ZM628.798 352.026C628.593 352.026 628.42 351.956 628.28 351.816C628.14 351.676 628.07 351.508 628.07 351.312C628.07 351.116 628.14 350.953 628.28 350.822C628.42 350.682 628.593 350.612 628.798 350.612C629.004 350.612 629.176 350.677 629.316 350.808C629.456 350.939 629.526 351.102 629.526 351.298C629.526 351.503 629.456 351.676 629.316 351.816C629.186 351.956 629.013 352.026 628.798 352.026ZM632.054 361V350.612H633.048V361H632.054Z" fill="#313131"/>
</svg>
