<svg width="920" height="367" viewBox="0 0 920 367" fill="none" xmlns="http://www.w3.org/2000/svg">
<rect x="902" y="341" width="20" height="320" transform="rotate(180 902 341)" fill="#BC0051"/>
<rect x="874" y="341" width="20" height="266" transform="rotate(180 874 341)" fill="#214B33"/>
<rect x="846" y="341" width="20" height="254" transform="rotate(180 846 341)" fill="#A2C33D" fill-opacity="0.4"/>
<rect x="818" y="341" width="20" height="248" transform="rotate(180 818 341)" fill="#A2C33D" fill-opacity="0.4"/>
<rect x="790" y="341" width="20" height="240" transform="rotate(180 790 341)" fill="#A2C33D" fill-opacity="0.4"/>
<rect x="762" y="341" width="20" height="226" transform="rotate(180 762 341)" fill="#A2C33D" fill-opacity="0.4"/>
<rect x="734" y="341" width="20" height="220" transform="rotate(180 734 341)" fill="#A2C33D" fill-opacity="0.4"/>
<rect x="706" y="341" width="20" height="200" transform="rotate(180 706 341)" fill="#A2C33D" fill-opacity="0.4"/>
<rect x="678" y="341" width="20" height="196" transform="rotate(180 678 341)" fill="#A2C33D" fill-opacity="0.4"/>
<rect x="650" y="341" width="20" height="184" transform="rotate(180 650 341)" fill="#A2C33D" fill-opacity="0.4"/>
<rect x="622" y="341" width="20" height="184" transform="rotate(180 622 341)" fill="#A2C33D" fill-opacity="0.4"/>
<rect x="594" y="341" width="20" height="176" transform="rotate(180 594 341)" fill="#A2C33D" fill-opacity="0.4"/>
<rect x="566" y="341" width="20" height="172" transform="rotate(180 566 341)" fill="#A2C33D" fill-opacity="0.4"/>
<rect x="538" y="341" width="20" height="172" transform="rotate(180 538 341)" fill="#A2C33D" fill-opacity="0.4"/>
<rect x="510" y="341" width="20" height="152" transform="rotate(180 510 341)" fill="#A2C33D" fill-opacity="0.4"/>
<rect x="482" y="341" width="20" height="144" transform="rotate(180 482 341)" fill="#A2C33D" fill-opacity="0.4"/>
<rect x="454" y="341" width="20" height="140" transform="rotate(180 454 341)" fill="#A2C33D" fill-opacity="0.4"/>
<rect x="426" y="341" width="20" height="126" transform="rotate(180 426 341)" fill="#A2C33D" fill-opacity="0.4"/>
<rect x="398" y="341" width="20" height="120" transform="rotate(180 398 341)" fill="#A2C33D" fill-opacity="0.4"/>
<rect x="370" y="341" width="20" height="100" transform="rotate(180 370 341)" fill="#A2C33D"/>
<path d="M360 76V240.5" stroke="#A2C33D" stroke-width="20" stroke-dasharray="10 10"/>
<path d="M7.598 242.18C6.614 242.18 5.672 242.042 4.772 241.766C3.872 241.478 3.158 241.112 2.63 240.668L3.44 238.85C3.944 239.246 4.568 239.576 5.312 239.84C6.056 240.104 6.818 240.236 7.598 240.236C8.258 240.236 8.792 240.164 9.2 240.02C9.608 239.876 9.908 239.684 10.1 239.444C10.292 239.192 10.388 238.91 10.388 238.598C10.388 238.214 10.25 237.908 9.974 237.68C9.698 237.44 9.338 237.254 8.894 237.122C8.462 236.978 7.976 236.846 7.436 236.726C6.908 236.606 6.374 236.468 5.834 236.312C5.306 236.144 4.82 235.934 4.376 235.682C3.944 235.418 3.59 235.07 3.314 234.638C3.038 234.206 2.9 233.654 2.9 232.982C2.9 232.298 3.08 231.674 3.44 231.11C3.812 230.534 4.37 230.078 5.114 229.742C5.87 229.394 6.824 229.22 7.976 229.22C8.732 229.22 9.482 229.316 10.226 229.508C10.97 229.7 11.618 229.976 12.17 230.336L11.432 232.154C10.868 231.818 10.286 231.572 9.686 231.416C9.086 231.248 8.51 231.164 7.958 231.164C7.31 231.164 6.782 231.242 6.374 231.398C5.978 231.554 5.684 231.758 5.492 232.01C5.312 232.262 5.222 232.55 5.222 232.874C5.222 233.258 5.354 233.57 5.618 233.81C5.894 234.038 6.248 234.218 6.68 234.35C7.124 234.482 7.616 234.614 8.156 234.746C8.696 234.866 9.23 235.004 9.758 235.16C10.298 235.316 10.784 235.52 11.216 235.772C11.66 236.024 12.014 236.366 12.278 236.798C12.554 237.23 12.692 237.776 12.692 238.436C12.692 239.108 12.506 239.732 12.134 240.308C11.774 240.872 11.216 241.328 10.46 241.676C9.704 242.012 8.75 242.18 7.598 242.18ZM14.7963 242V232.388H17.0463V242H14.7963ZM15.9303 230.804C15.5103 230.804 15.1623 230.672 14.8863 230.408C14.6223 230.144 14.4903 229.826 14.4903 229.454C14.4903 229.07 14.6223 228.752 14.8863 228.5C15.1623 228.236 15.5103 228.104 15.9303 228.104C16.3503 228.104 16.6923 228.23 16.9563 228.482C17.2323 228.722 17.3703 229.028 17.3703 229.4C17.3703 229.796 17.2383 230.132 16.9743 230.408C16.7103 230.672 16.3623 230.804 15.9303 230.804ZM24.5174 242.126C23.4494 242.126 22.5134 241.916 21.7094 241.496C20.9174 241.064 20.2994 240.476 19.8554 239.732C19.4234 238.988 19.2074 238.142 19.2074 237.194C19.2074 236.234 19.4174 235.388 19.8374 234.656C20.2694 233.912 20.8574 233.33 21.6014 232.91C22.3574 232.49 23.2154 232.28 24.1754 232.28C25.1114 232.28 25.9454 232.484 26.6774 232.892C27.4094 233.3 27.9854 233.876 28.4054 234.62C28.8254 235.364 29.0354 236.24 29.0354 237.248C29.0354 237.344 29.0294 237.452 29.0174 237.572C29.0174 237.692 29.0114 237.806 28.9994 237.914H20.9894V236.42H27.8114L26.9294 236.888C26.9414 236.336 26.8274 235.85 26.5874 235.43C26.3474 235.01 26.0174 234.68 25.5974 234.44C25.1894 234.2 24.7154 234.08 24.1754 234.08C23.6234 234.08 23.1374 234.2 22.7174 234.44C22.3094 234.68 21.9854 235.016 21.7454 235.448C21.5174 235.868 21.4034 236.366 21.4034 236.942V237.302C21.4034 237.878 21.5354 238.388 21.7994 238.832C22.0634 239.276 22.4354 239.618 22.9154 239.858C23.3954 240.098 23.9474 240.218 24.5714 240.218C25.1114 240.218 25.5974 240.134 26.0294 239.966C26.4614 239.798 26.8454 239.534 27.1814 239.174L28.3874 240.56C27.9554 241.064 27.4094 241.454 26.7494 241.73C26.1014 241.994 25.3574 242.126 24.5174 242.126ZM38.0073 239.858L38.0613 237.032L43.0833 232.388H45.7833L41.5173 236.672L40.3293 237.662L38.0073 239.858ZM36.1713 242V228.644H38.4213V242H36.1713ZM43.4253 242L39.9153 237.662L41.3373 235.862L46.1613 242H43.4253ZM53.3609 242V240.056L53.2349 239.642V236.24C53.2349 235.58 53.0369 235.07 52.6409 234.71C52.2449 234.338 51.6449 234.152 50.8409 234.152C50.3009 234.152 49.7669 234.236 49.2389 234.404C48.7229 234.572 48.2849 234.806 47.9249 235.106L47.0429 233.468C47.5589 233.072 48.1709 232.778 48.8789 232.586C49.5989 232.382 50.3429 232.28 51.1109 232.28C52.5029 232.28 53.5769 232.616 54.3329 233.288C55.1009 233.948 55.4849 234.974 55.4849 236.366V242H53.3609ZM50.3369 242.126C49.6169 242.126 48.9869 242.006 48.4469 241.766C47.9069 241.514 47.4869 241.172 47.1869 240.74C46.8989 240.296 46.7549 239.798 46.7549 239.246C46.7549 238.706 46.8809 238.22 47.1329 237.788C47.3969 237.356 47.8229 237.014 48.4109 236.762C48.9989 236.51 49.7789 236.384 50.7509 236.384H53.5409V237.878H50.9129C50.1449 237.878 49.6289 238.004 49.3649 238.256C49.1009 238.496 48.9689 238.796 48.9689 239.156C48.9689 239.564 49.1309 239.888 49.4549 240.128C49.7789 240.368 50.2289 240.488 50.8049 240.488C51.3569 240.488 51.8489 240.362 52.2809 240.11C52.7249 239.858 53.0429 239.486 53.2349 238.994L53.6129 240.344C53.3969 240.908 53.0069 241.346 52.4429 241.658C51.8909 241.97 51.1889 242.126 50.3369 242.126ZM62.4405 242.126C61.6245 242.126 60.9045 241.976 60.2805 241.676C59.6565 241.364 59.1705 240.896 58.8225 240.272C58.4745 239.636 58.3005 238.838 58.3005 237.878V232.388H60.5505V237.572C60.5505 238.436 60.7425 239.084 61.1265 239.516C61.5225 239.936 62.0805 240.146 62.8005 240.146C63.3285 240.146 63.7845 240.038 64.1685 239.822C64.5645 239.606 64.8705 239.282 65.0865 238.85C65.3145 238.418 65.4285 237.884 65.4285 237.248V232.388H67.6785V242H65.5365V239.408L65.9145 240.2C65.5905 240.824 65.1165 241.304 64.4925 241.64C63.8685 241.964 63.1845 242.126 62.4405 242.126ZM70.9304 242V231.848C70.9304 230.84 71.2244 230.036 71.8124 229.436C72.4124 228.824 73.2644 228.518 74.3684 228.518C74.7644 228.518 75.1364 228.56 75.4844 228.644C75.8444 228.728 76.1444 228.86 76.3844 229.04L75.7724 230.732C75.6044 230.6 75.4124 230.504 75.1964 230.444C74.9804 230.372 74.7584 230.336 74.5304 230.336C74.0624 230.336 73.7084 230.468 73.4684 230.732C73.2284 230.984 73.1084 231.368 73.1084 231.884V232.964L73.1804 233.972V242H70.9304ZM69.3464 234.26V232.46H75.7544V234.26H69.3464ZM81.6463 242.126C80.5783 242.126 79.6423 241.916 78.8383 241.496C78.0463 241.064 77.4283 240.476 76.9843 239.732C76.5523 238.988 76.3363 238.142 76.3363 237.194C76.3363 236.234 76.5463 235.388 76.9663 234.656C77.3983 233.912 77.9863 233.33 78.7303 232.91C79.4863 232.49 80.3443 232.28 81.3043 232.28C82.2403 232.28 83.0743 232.484 83.8063 232.892C84.5383 233.3 85.1143 233.876 85.5343 234.62C85.9543 235.364 86.1643 236.24 86.1643 237.248C86.1643 237.344 86.1583 237.452 86.1463 237.572C86.1463 237.692 86.1403 237.806 86.1283 237.914H78.1183V236.42H84.9403L84.0583 236.888C84.0703 236.336 83.9563 235.85 83.7163 235.43C83.4763 235.01 83.1463 234.68 82.7263 234.44C82.3183 234.2 81.8443 234.08 81.3043 234.08C80.7523 234.08 80.2663 234.2 79.8463 234.44C79.4383 234.68 79.1143 235.016 78.8743 235.448C78.6463 235.868 78.5323 236.366 78.5323 236.942V237.302C78.5323 237.878 78.6643 238.388 78.9283 238.832C79.1923 239.276 79.5643 239.618 80.0443 239.858C80.5243 240.098 81.0763 240.218 81.7003 240.218C82.2403 240.218 82.7263 240.134 83.1583 239.966C83.5903 239.798 83.9743 239.534 84.3103 239.174L85.5163 240.56C85.0843 241.064 84.5383 241.454 83.8783 241.73C83.2303 241.994 82.4863 242.126 81.6463 242.126ZM93.7796 232.28C94.5476 232.28 95.2316 232.43 95.8316 232.73C96.4436 233.03 96.9236 233.492 97.2716 234.116C97.6196 234.728 97.7936 235.52 97.7936 236.492V242H95.5436V236.78C95.5436 235.928 95.3396 235.292 94.9316 234.872C94.5356 234.452 93.9776 234.242 93.2576 234.242C92.7296 234.242 92.2616 234.35 91.8536 234.566C91.4456 234.782 91.1276 235.106 90.8996 235.538C90.6836 235.958 90.5756 236.492 90.5756 237.14V242H88.3256V232.388H90.4676V234.98L90.0896 234.188C90.4256 233.576 90.9116 233.108 91.5476 232.784C92.1956 232.448 92.9396 232.28 93.7796 232.28ZM107.98 235.196H114.262V237.176H107.98V235.196ZM108.178 242H105.838V229.4H115.036V231.362H108.178V242ZM120.888 242.126C120.072 242.126 119.352 241.976 118.728 241.676C118.104 241.364 117.618 240.896 117.27 240.272C116.922 239.636 116.748 238.838 116.748 237.878V232.388H118.998V237.572C118.998 238.436 119.19 239.084 119.574 239.516C119.97 239.936 120.528 240.146 121.248 240.146C121.776 240.146 122.232 240.038 122.616 239.822C123.012 239.606 123.318 239.282 123.534 238.85C123.762 238.418 123.876 237.884 123.876 237.248V232.388H126.126V242H123.984V239.408L124.362 240.2C124.038 240.824 123.564 241.304 122.94 241.64C122.316 241.964 121.632 242.126 120.888 242.126ZM132.69 242.126C131.634 242.126 130.818 241.856 130.242 241.316C129.666 240.764 129.378 239.954 129.378 238.886V230.264H131.628V238.832C131.628 239.288 131.742 239.642 131.97 239.894C132.21 240.146 132.54 240.272 132.96 240.272C133.464 240.272 133.884 240.14 134.22 239.876L134.85 241.478C134.586 241.694 134.262 241.856 133.878 241.964C133.494 242.072 133.098 242.126 132.69 242.126ZM127.794 234.26V232.46H134.202V234.26H127.794ZM140.769 242.126C139.953 242.126 139.233 241.976 138.609 241.676C137.985 241.364 137.499 240.896 137.151 240.272C136.803 239.636 136.629 238.838 136.629 237.878V232.388H138.879V237.572C138.879 238.436 139.071 239.084 139.455 239.516C139.851 239.936 140.409 240.146 141.129 240.146C141.657 240.146 142.113 240.038 142.497 239.822C142.893 239.606 143.199 239.282 143.415 238.85C143.643 238.418 143.757 237.884 143.757 237.248V232.388H146.007V242H143.865V239.408L144.243 240.2C143.919 240.824 143.445 241.304 142.821 241.64C142.197 241.964 141.513 242.126 140.769 242.126ZM148.953 242V232.388H151.095V235.034L150.843 234.26C151.131 233.612 151.581 233.12 152.193 232.784C152.817 232.448 153.591 232.28 154.515 232.28V234.422C154.419 234.398 154.329 234.386 154.245 234.386C154.161 234.374 154.077 234.368 153.993 234.368C153.141 234.368 152.463 234.62 151.959 235.124C151.455 235.616 151.203 236.354 151.203 237.338V242H148.953ZM160.853 242.126C159.785 242.126 158.849 241.916 158.045 241.496C157.253 241.064 156.635 240.476 156.191 239.732C155.759 238.988 155.543 238.142 155.543 237.194C155.543 236.234 155.753 235.388 156.173 234.656C156.605 233.912 157.193 233.33 157.937 232.91C158.693 232.49 159.551 232.28 160.511 232.28C161.447 232.28 162.281 232.484 163.013 232.892C163.745 233.3 164.321 233.876 164.741 234.62C165.161 235.364 165.371 236.24 165.371 237.248C165.371 237.344 165.365 237.452 165.353 237.572C165.353 237.692 165.347 237.806 165.335 237.914H157.325V236.42H164.147L163.265 236.888C163.277 236.336 163.163 235.85 162.923 235.43C162.683 235.01 162.353 234.68 161.933 234.44C161.525 234.2 161.051 234.08 160.511 234.08C159.959 234.08 159.473 234.2 159.053 234.44C158.645 234.68 158.321 235.016 158.081 235.448C157.853 235.868 157.739 236.366 157.739 236.942V237.302C157.739 237.878 157.871 238.388 158.135 238.832C158.399 239.276 158.771 239.618 159.251 239.858C159.731 240.098 160.283 240.218 160.907 240.218C161.447 240.218 161.933 240.134 162.365 239.966C162.797 239.798 163.181 239.534 163.517 239.174L164.723 240.56C164.291 241.064 163.745 241.454 163.085 241.73C162.437 241.994 161.693 242.126 160.853 242.126ZM170.503 242.126C169.699 242.126 168.925 242.024 168.181 241.82C167.449 241.604 166.867 241.346 166.435 241.046L167.299 239.336C167.731 239.612 168.247 239.84 168.847 240.02C169.447 240.2 170.047 240.29 170.647 240.29C171.355 240.29 171.865 240.194 172.177 240.002C172.501 239.81 172.663 239.552 172.663 239.228C172.663 238.964 172.555 238.766 172.339 238.634C172.123 238.49 171.841 238.382 171.493 238.31C171.145 238.238 170.755 238.172 170.323 238.112C169.903 238.052 169.477 237.974 169.045 237.878C168.625 237.77 168.241 237.62 167.893 237.428C167.545 237.224 167.263 236.954 167.047 236.618C166.831 236.282 166.723 235.838 166.723 235.286C166.723 234.674 166.897 234.146 167.245 233.702C167.593 233.246 168.079 232.898 168.703 232.658C169.339 232.406 170.089 232.28 170.953 232.28C171.601 232.28 172.255 232.352 172.915 232.496C173.575 232.64 174.121 232.844 174.553 233.108L173.689 234.818C173.233 234.542 172.771 234.356 172.303 234.26C171.847 234.152 171.391 234.098 170.935 234.098C170.251 234.098 169.741 234.2 169.405 234.404C169.081 234.608 168.919 234.866 168.919 235.178C168.919 235.466 169.027 235.682 169.243 235.826C169.459 235.97 169.741 236.084 170.089 236.168C170.437 236.252 170.821 236.324 171.241 236.384C171.673 236.432 172.099 236.51 172.519 236.618C172.939 236.726 173.323 236.876 173.671 237.068C174.031 237.248 174.319 237.506 174.535 237.842C174.751 238.178 174.859 238.616 174.859 239.156C174.859 239.756 174.679 240.278 174.319 240.722C173.971 241.166 173.473 241.514 172.825 241.766C172.177 242.006 171.403 242.126 170.503 242.126ZM180.979 242V240.578L186.901 233.414L187.315 234.188H181.087V232.388H189.115V233.81L183.193 240.974L182.743 240.2H189.277V242H180.979ZM195.419 242.126C194.603 242.126 193.883 241.976 193.259 241.676C192.635 241.364 192.149 240.896 191.801 240.272C191.453 239.636 191.279 238.838 191.279 237.878V232.388H193.529V237.572C193.529 238.436 193.721 239.084 194.105 239.516C194.501 239.936 195.059 240.146 195.779 240.146C196.307 240.146 196.763 240.038 197.147 239.822C197.543 239.606 197.849 239.282 198.065 238.85C198.293 238.418 198.407 237.884 198.407 237.248V232.388H200.657V242H198.515V239.408L198.893 240.2C198.569 240.824 198.095 241.304 197.471 241.64C196.847 241.964 196.163 242.126 195.419 242.126ZM212.646 242.126C211.722 242.126 210.888 241.922 210.144 241.514C209.412 241.094 208.836 240.518 208.416 239.786C207.996 239.054 207.786 238.19 207.786 237.194C207.786 236.198 207.996 235.334 208.416 234.602C208.836 233.87 209.412 233.3 210.144 232.892C210.888 232.484 211.722 232.28 212.646 232.28C213.45 232.28 214.17 232.46 214.806 232.82C215.442 233.168 215.946 233.702 216.318 234.422C216.69 235.142 216.876 236.066 216.876 237.194C216.876 238.31 216.696 239.234 216.336 239.966C215.976 240.686 215.478 241.226 214.842 241.586C214.206 241.946 213.474 242.126 212.646 242.126ZM212.916 240.2C213.456 240.2 213.936 240.08 214.356 239.84C214.788 239.6 215.13 239.252 215.382 238.796C215.646 238.34 215.778 237.806 215.778 237.194C215.778 236.57 215.646 236.036 215.382 235.592C215.13 235.136 214.788 234.788 214.356 234.548C213.936 234.308 213.456 234.188 212.916 234.188C212.376 234.188 211.89 234.308 211.458 234.548C211.038 234.788 210.696 235.136 210.432 235.592C210.18 236.036 210.054 236.57 210.054 237.194C210.054 237.806 210.18 238.34 210.432 238.796C210.696 239.252 211.038 239.6 211.458 239.84C211.89 240.08 212.376 240.2 212.916 240.2ZM215.832 242V239.732L215.922 237.176L215.742 234.62V228.644H217.974V242H215.832ZM220.935 242V232.388H223.185V242H220.935ZM222.069 230.804C221.649 230.804 221.301 230.672 221.025 230.408C220.761 230.144 220.629 229.826 220.629 229.454C220.629 229.07 220.761 228.752 221.025 228.5C221.301 228.236 221.649 228.104 222.069 228.104C222.489 228.104 222.831 228.23 223.095 228.482C223.371 228.722 223.509 229.028 223.509 229.4C223.509 229.796 223.377 230.132 223.113 230.408C222.849 230.672 222.501 230.804 222.069 230.804ZM230.656 242.126C229.588 242.126 228.652 241.916 227.848 241.496C227.056 241.064 226.438 240.476 225.994 239.732C225.562 238.988 225.346 238.142 225.346 237.194C225.346 236.234 225.556 235.388 225.976 234.656C226.408 233.912 226.996 233.33 227.74 232.91C228.496 232.49 229.354 232.28 230.314 232.28C231.25 232.28 232.084 232.484 232.816 232.892C233.548 233.3 234.124 233.876 234.544 234.62C234.964 235.364 235.174 236.24 235.174 237.248C235.174 237.344 235.168 237.452 235.156 237.572C235.156 237.692 235.15 237.806 235.138 237.914H227.128V236.42H233.95L233.068 236.888C233.08 236.336 232.966 235.85 232.726 235.43C232.486 235.01 232.156 234.68 231.736 234.44C231.328 234.2 230.854 234.08 230.314 234.08C229.762 234.08 229.276 234.2 228.856 234.44C228.448 234.68 228.124 235.016 227.884 235.448C227.656 235.868 227.542 236.366 227.542 236.942V237.302C227.542 237.878 227.674 238.388 227.938 238.832C228.202 239.276 228.574 239.618 229.054 239.858C229.534 240.098 230.086 240.218 230.71 240.218C231.25 240.218 231.736 240.134 232.168 239.966C232.6 239.798 232.984 239.534 233.32 239.174L234.526 240.56C234.094 241.064 233.548 241.454 232.888 241.73C232.24 241.994 231.496 242.126 230.656 242.126ZM240.305 242.126C239.501 242.126 238.727 242.024 237.983 241.82C237.251 241.604 236.669 241.346 236.237 241.046L237.101 239.336C237.533 239.612 238.049 239.84 238.649 240.02C239.249 240.2 239.849 240.29 240.449 240.29C241.157 240.29 241.667 240.194 241.979 240.002C242.303 239.81 242.465 239.552 242.465 239.228C242.465 238.964 242.357 238.766 242.141 238.634C241.925 238.49 241.643 238.382 241.295 238.31C240.947 238.238 240.557 238.172 240.125 238.112C239.705 238.052 239.279 237.974 238.847 237.878C238.427 237.77 238.043 237.62 237.695 237.428C237.347 237.224 237.065 236.954 236.849 236.618C236.633 236.282 236.525 235.838 236.525 235.286C236.525 234.674 236.699 234.146 237.047 233.702C237.395 233.246 237.881 232.898 238.505 232.658C239.141 232.406 239.891 232.28 240.755 232.28C241.403 232.28 242.057 232.352 242.717 232.496C243.377 232.64 243.923 232.844 244.355 233.108L243.491 234.818C243.035 234.542 242.573 234.356 242.105 234.26C241.649 234.152 241.193 234.098 240.737 234.098C240.053 234.098 239.543 234.2 239.207 234.404C238.883 234.608 238.721 234.866 238.721 235.178C238.721 235.466 238.829 235.682 239.045 235.826C239.261 235.97 239.543 236.084 239.891 236.168C240.239 236.252 240.623 236.324 241.043 236.384C241.475 236.432 241.901 236.51 242.321 236.618C242.741 236.726 243.125 236.876 243.473 237.068C243.833 237.248 244.121 237.506 244.337 237.842C244.553 238.178 244.661 238.616 244.661 239.156C244.661 239.756 244.481 240.278 244.121 240.722C243.773 241.166 243.275 241.514 242.627 241.766C241.979 242.006 241.205 242.126 240.305 242.126ZM251.117 242.126C250.049 242.126 249.113 241.916 248.309 241.496C247.517 241.064 246.899 240.476 246.455 239.732C246.023 238.988 245.807 238.142 245.807 237.194C245.807 236.234 246.017 235.388 246.437 234.656C246.869 233.912 247.457 233.33 248.201 232.91C248.957 232.49 249.815 232.28 250.775 232.28C251.711 232.28 252.545 232.484 253.277 232.892C254.009 233.3 254.585 233.876 255.005 234.62C255.425 235.364 255.635 236.24 255.635 237.248C255.635 237.344 255.629 237.452 255.617 237.572C255.617 237.692 255.611 237.806 255.599 237.914H247.589V236.42H254.411L253.529 236.888C253.541 236.336 253.427 235.85 253.187 235.43C252.947 235.01 252.617 234.68 252.197 234.44C251.789 234.2 251.315 234.08 250.775 234.08C250.223 234.08 249.737 234.2 249.317 234.44C248.909 234.68 248.585 235.016 248.345 235.448C248.117 235.868 248.003 236.366 248.003 236.942V237.302C248.003 237.878 248.135 238.388 248.399 238.832C248.663 239.276 249.035 239.618 249.515 239.858C249.995 240.098 250.547 240.218 251.171 240.218C251.711 240.218 252.197 240.134 252.629 239.966C253.061 239.798 253.445 239.534 253.781 239.174L254.987 240.56C254.555 241.064 254.009 241.454 253.349 241.73C252.701 241.994 251.957 242.126 251.117 242.126ZM269.928 232.28C270.696 232.28 271.374 232.43 271.962 232.73C272.562 233.03 273.03 233.492 273.366 234.116C273.702 234.728 273.87 235.52 273.87 236.492V242H271.62V236.78C271.62 235.928 271.434 235.292 271.062 234.872C270.69 234.452 270.156 234.242 269.46 234.242C268.968 234.242 268.53 234.35 268.146 234.566C267.774 234.782 267.48 235.1 267.264 235.52C267.06 235.94 266.958 236.474 266.958 237.122V242H264.708V236.78C264.708 235.928 264.522 235.292 264.15 234.872C263.778 234.452 263.244 234.242 262.548 234.242C262.056 234.242 261.618 234.35 261.234 234.566C260.862 234.782 260.568 235.1 260.352 235.52C260.148 235.94 260.046 236.474 260.046 237.122V242H257.796V232.388H259.938V234.944L259.56 234.188C259.884 233.564 260.352 233.09 260.964 232.766C261.588 232.442 262.296 232.28 263.088 232.28C263.988 232.28 264.768 232.502 265.428 232.946C266.1 233.39 266.544 234.062 266.76 234.962L265.878 234.656C266.19 233.936 266.706 233.36 267.426 232.928C268.146 232.496 268.98 232.28 269.928 232.28ZM281.936 242V229.4H287.12C288.236 229.4 289.19 229.58 289.982 229.94C290.786 230.3 291.404 230.816 291.836 231.488C292.268 232.16 292.484 232.958 292.484 233.882C292.484 234.806 292.268 235.604 291.836 236.276C291.404 236.948 290.786 237.464 289.982 237.824C289.19 238.184 288.236 238.364 287.12 238.364H283.232L284.276 237.266V242H281.936ZM284.276 237.518L283.232 236.384H287.012C288.044 236.384 288.818 236.168 289.334 235.736C289.862 235.292 290.126 234.674 290.126 233.882C290.126 233.078 289.862 232.46 289.334 232.028C288.818 231.596 288.044 231.38 287.012 231.38H283.232L284.276 230.228V237.518ZM294.517 242V232.388H296.659V235.034L296.407 234.26C296.695 233.612 297.145 233.12 297.757 232.784C298.381 232.448 299.155 232.28 300.079 232.28V234.422C299.983 234.398 299.893 234.386 299.809 234.386C299.725 234.374 299.641 234.368 299.557 234.368C298.705 234.368 298.027 234.62 297.523 235.124C297.019 235.616 296.767 236.354 296.767 237.338V242H294.517ZM306.418 242.126C305.35 242.126 304.414 241.916 303.61 241.496C302.818 241.064 302.2 240.476 301.756 239.732C301.324 238.988 301.108 238.142 301.108 237.194C301.108 236.234 301.318 235.388 301.738 234.656C302.17 233.912 302.758 233.33 303.502 232.91C304.258 232.49 305.116 232.28 306.076 232.28C307.012 232.28 307.846 232.484 308.578 232.892C309.31 233.3 309.886 233.876 310.306 234.62C310.726 235.364 310.936 236.24 310.936 237.248C310.936 237.344 310.93 237.452 310.918 237.572C310.918 237.692 310.912 237.806 310.9 237.914H302.89V236.42H309.712L308.83 236.888C308.842 236.336 308.728 235.85 308.488 235.43C308.248 235.01 307.918 234.68 307.498 234.44C307.09 234.2 306.616 234.08 306.076 234.08C305.524 234.08 305.038 234.2 304.618 234.44C304.21 234.68 303.886 235.016 303.646 235.448C303.418 235.868 303.304 236.366 303.304 236.942V237.302C303.304 237.878 303.436 238.388 303.7 238.832C303.964 239.276 304.336 239.618 304.816 239.858C305.296 240.098 305.848 240.218 306.472 240.218C307.012 240.218 307.498 240.134 307.93 239.966C308.362 239.798 308.746 239.534 309.082 239.174L310.288 240.56C309.856 241.064 309.31 241.454 308.65 241.73C308.002 241.994 307.258 242.126 306.418 242.126ZM313.097 242V232.388H315.347V242H313.097ZM314.231 230.804C313.811 230.804 313.463 230.672 313.187 230.408C312.923 230.144 312.791 229.826 312.791 229.454C312.791 229.07 312.923 228.752 313.187 228.5C313.463 228.236 313.811 228.104 314.231 228.104C314.651 228.104 314.993 228.23 315.257 228.482C315.533 228.722 315.671 229.028 315.671 229.4C315.671 229.796 315.539 230.132 315.275 230.408C315.011 230.672 314.663 230.804 314.231 230.804ZM321.27 242.126C320.466 242.126 319.692 242.024 318.948 241.82C318.216 241.604 317.634 241.346 317.202 241.046L318.066 239.336C318.498 239.612 319.014 239.84 319.614 240.02C320.214 240.2 320.814 240.29 321.414 240.29C322.122 240.29 322.632 240.194 322.944 240.002C323.268 239.81 323.43 239.552 323.43 239.228C323.43 238.964 323.322 238.766 323.106 238.634C322.89 238.49 322.608 238.382 322.26 238.31C321.912 238.238 321.522 238.172 321.09 238.112C320.67 238.052 320.244 237.974 319.812 237.878C319.392 237.77 319.008 237.62 318.66 237.428C318.312 237.224 318.03 236.954 317.814 236.618C317.598 236.282 317.49 235.838 317.49 235.286C317.49 234.674 317.664 234.146 318.012 233.702C318.36 233.246 318.846 232.898 319.47 232.658C320.106 232.406 320.856 232.28 321.72 232.28C322.368 232.28 323.022 232.352 323.682 232.496C324.342 232.64 324.888 232.844 325.32 233.108L324.456 234.818C324 234.542 323.538 234.356 323.07 234.26C322.614 234.152 322.158 234.098 321.702 234.098C321.018 234.098 320.508 234.2 320.172 234.404C319.848 234.608 319.686 234.866 319.686 235.178C319.686 235.466 319.794 235.682 320.01 235.826C320.226 235.97 320.508 236.084 320.856 236.168C321.204 236.252 321.588 236.324 322.008 236.384C322.44 236.432 322.866 236.51 323.286 236.618C323.706 236.726 324.09 236.876 324.438 237.068C324.798 237.248 325.086 237.506 325.302 237.842C325.518 238.178 325.626 238.616 325.626 239.156C325.626 239.756 325.446 240.278 325.086 240.722C324.738 241.166 324.24 241.514 323.592 241.766C322.944 242.006 322.17 242.126 321.27 242.126Z" fill="#A2C33D"/>
<path d="M330 241H370" stroke="#A2C33D"/>
<path d="M327 73.0001L873.5 75.5102" stroke="#214B33"/>
<path d="M6.598 73.18C5.614 73.18 4.672 73.042 3.772 72.766C2.872 72.478 2.158 72.112 1.63 71.668L2.44 69.85C2.944 70.246 3.568 70.576 4.312 70.84C5.056 71.104 5.818 71.236 6.598 71.236C7.258 71.236 7.792 71.164 8.2 71.02C8.608 70.876 8.908 70.684 9.1 70.444C9.292 70.192 9.388 69.91 9.388 69.598C9.388 69.214 9.25 68.908 8.974 68.68C8.698 68.44 8.338 68.254 7.894 68.122C7.462 67.978 6.976 67.846 6.436 67.726C5.908 67.606 5.374 67.468 4.834 67.312C4.306 67.144 3.82 66.934 3.376 66.682C2.944 66.418 2.59 66.07 2.314 65.638C2.038 65.206 1.9 64.654 1.9 63.982C1.9 63.298 2.08 62.674 2.44 62.11C2.812 61.534 3.37 61.078 4.114 60.742C4.87 60.394 5.824 60.22 6.976 60.22C7.732 60.22 8.482 60.316 9.226 60.508C9.97 60.7 10.618 60.976 11.17 61.336L10.432 63.154C9.868 62.818 9.286 62.572 8.686 62.416C8.086 62.248 7.51 62.164 6.958 62.164C6.31 62.164 5.782 62.242 5.374 62.398C4.978 62.554 4.684 62.758 4.492 63.01C4.312 63.262 4.222 63.55 4.222 63.874C4.222 64.258 4.354 64.57 4.618 64.81C4.894 65.038 5.248 65.218 5.68 65.35C6.124 65.482 6.616 65.614 7.156 65.746C7.696 65.866 8.23 66.004 8.758 66.16C9.298 66.316 9.784 66.52 10.216 66.772C10.66 67.024 11.014 67.366 11.278 67.798C11.554 68.23 11.692 68.776 11.692 69.436C11.692 70.108 11.506 70.732 11.134 71.308C10.774 71.872 10.216 72.328 9.46 72.676C8.704 73.012 7.75 73.18 6.598 73.18ZM13.7963 73V63.388H16.0463V73H13.7963ZM14.9303 61.804C14.5103 61.804 14.1623 61.672 13.8863 61.408C13.6223 61.144 13.4903 60.826 13.4903 60.454C13.4903 60.07 13.6223 59.752 13.8863 59.5C14.1623 59.236 14.5103 59.104 14.9303 59.104C15.3503 59.104 15.6923 59.23 15.9563 59.482C16.2323 59.722 16.3703 60.028 16.3703 60.4C16.3703 60.796 16.2383 61.132 15.9743 61.408C15.7103 61.672 15.3623 61.804 14.9303 61.804ZM23.5174 73.126C22.4494 73.126 21.5134 72.916 20.7094 72.496C19.9174 72.064 19.2994 71.476 18.8554 70.732C18.4234 69.988 18.2074 69.142 18.2074 68.194C18.2074 67.234 18.4174 66.388 18.8374 65.656C19.2694 64.912 19.8574 64.33 20.6014 63.91C21.3574 63.49 22.2154 63.28 23.1754 63.28C24.1114 63.28 24.9454 63.484 25.6774 63.892C26.4094 64.3 26.9854 64.876 27.4054 65.62C27.8254 66.364 28.0354 67.24 28.0354 68.248C28.0354 68.344 28.0294 68.452 28.0174 68.572C28.0174 68.692 28.0114 68.806 27.9994 68.914H19.9894V67.42H26.8114L25.9294 67.888C25.9414 67.336 25.8274 66.85 25.5874 66.43C25.3474 66.01 25.0174 65.68 24.5974 65.44C24.1894 65.2 23.7154 65.08 23.1754 65.08C22.6234 65.08 22.1374 65.2 21.7174 65.44C21.3094 65.68 20.9854 66.016 20.7454 66.448C20.5174 66.868 20.4034 67.366 20.4034 67.942V68.302C20.4034 68.878 20.5354 69.388 20.7994 69.832C21.0634 70.276 21.4354 70.618 21.9154 70.858C22.3954 71.098 22.9474 71.218 23.5714 71.218C24.1114 71.218 24.5974 71.134 25.0294 70.966C25.4614 70.798 25.8454 70.534 26.1814 70.174L27.3874 71.56C26.9554 72.064 26.4094 72.454 25.7494 72.73C25.1014 72.994 24.3574 73.126 23.5174 73.126ZM37.7273 73L33.6053 63.388H35.9453L39.4913 71.866H38.3393L42.0113 63.388H44.1713L40.0493 73H37.7273ZM49.8319 73.126C48.7639 73.126 47.8279 72.916 47.0239 72.496C46.2319 72.064 45.6139 71.476 45.1699 70.732C44.7379 69.988 44.5219 69.142 44.5219 68.194C44.5219 67.234 44.7319 66.388 45.1519 65.656C45.5839 64.912 46.1719 64.33 46.9159 63.91C47.6719 63.49 48.5299 63.28 49.4899 63.28C50.4259 63.28 51.2599 63.484 51.9919 63.892C52.7239 64.3 53.2999 64.876 53.7199 65.62C54.1399 66.364 54.3499 67.24 54.3499 68.248C54.3499 68.344 54.3439 68.452 54.3319 68.572C54.3319 68.692 54.3259 68.806 54.3139 68.914H46.3039V67.42H53.1259L52.2439 67.888C52.2559 67.336 52.1419 66.85 51.9019 66.43C51.6619 66.01 51.3319 65.68 50.9119 65.44C50.5039 65.2 50.0299 65.08 49.4899 65.08C48.9379 65.08 48.4519 65.2 48.0319 65.44C47.6239 65.68 47.2999 66.016 47.0599 66.448C46.8319 66.868 46.7179 67.366 46.7179 67.942V68.302C46.7179 68.878 46.8499 69.388 47.1139 69.832C47.3779 70.276 47.7499 70.618 48.2299 70.858C48.7099 71.098 49.2619 71.218 49.8859 71.218C50.4259 71.218 50.9119 71.134 51.3439 70.966C51.7759 70.798 52.1599 70.534 52.4959 70.174L53.7019 71.56C53.2699 72.064 52.7239 72.454 52.0639 72.73C51.4159 72.994 50.6719 73.126 49.8319 73.126ZM56.5112 73V63.388H58.6532V66.034L58.4012 65.26C58.6892 64.612 59.1392 64.12 59.7512 63.784C60.3752 63.448 61.1492 63.28 62.0732 63.28V65.422C61.9772 65.398 61.8872 65.386 61.8032 65.386C61.7192 65.374 61.6352 65.368 61.5512 65.368C60.6992 65.368 60.0212 65.62 59.5172 66.124C59.0132 66.616 58.7612 67.354 58.7612 68.338V73H56.5112ZM65.8179 70.858L65.8719 68.032L70.8939 63.388H73.5939L69.3279 67.672L68.1399 68.662L65.8179 70.858ZM63.9819 73V59.644H66.2319V73H63.9819ZM71.2359 73L67.7259 68.662L69.1479 66.862L73.9719 73H71.2359ZM81.1714 73V71.056L81.0454 70.642V67.24C81.0454 66.58 80.8474 66.07 80.4514 65.71C80.0554 65.338 79.4554 65.152 78.6514 65.152C78.1114 65.152 77.5774 65.236 77.0494 65.404C76.5334 65.572 76.0954 65.806 75.7354 66.106L74.8534 64.468C75.3694 64.072 75.9814 63.778 76.6894 63.586C77.4094 63.382 78.1534 63.28 78.9214 63.28C80.3134 63.28 81.3874 63.616 82.1434 64.288C82.9114 64.948 83.2954 65.974 83.2954 67.366V73H81.1714ZM78.1474 73.126C77.4274 73.126 76.7974 73.006 76.2574 72.766C75.7174 72.514 75.2974 72.172 74.9974 71.74C74.7094 71.296 74.5654 70.798 74.5654 70.246C74.5654 69.706 74.6914 69.22 74.9434 68.788C75.2074 68.356 75.6334 68.014 76.2214 67.762C76.8094 67.51 77.5894 67.384 78.5614 67.384H81.3514V68.878H78.7234C77.9554 68.878 77.4394 69.004 77.1754 69.256C76.9114 69.496 76.7794 69.796 76.7794 70.156C76.7794 70.564 76.9414 70.888 77.2654 71.128C77.5894 71.368 78.0394 71.488 78.6154 71.488C79.1674 71.488 79.6594 71.362 80.0914 71.11C80.5354 70.858 80.8534 70.486 81.0454 69.994L81.4234 71.344C81.2074 71.908 80.8174 72.346 80.2534 72.658C79.7014 72.97 78.9994 73.126 78.1474 73.126ZM90.251 73.126C89.435 73.126 88.715 72.976 88.091 72.676C87.467 72.364 86.981 71.896 86.633 71.272C86.285 70.636 86.111 69.838 86.111 68.878V63.388H88.361V68.572C88.361 69.436 88.553 70.084 88.937 70.516C89.333 70.936 89.891 71.146 90.611 71.146C91.139 71.146 91.595 71.038 91.979 70.822C92.375 70.606 92.681 70.282 92.897 69.85C93.125 69.418 93.239 68.884 93.239 68.248V63.388H95.489V73H93.347V70.408L93.725 71.2C93.401 71.824 92.927 72.304 92.303 72.64C91.679 72.964 90.995 73.126 90.251 73.126ZM98.741 73V62.848C98.741 61.84 99.035 61.036 99.623 60.436C100.223 59.824 101.075 59.518 102.179 59.518C102.575 59.518 102.947 59.56 103.295 59.644C103.655 59.728 103.955 59.86 104.195 60.04L103.583 61.732C103.415 61.6 103.223 61.504 103.007 61.444C102.791 61.372 102.569 61.336 102.341 61.336C101.873 61.336 101.519 61.468 101.279 61.732C101.039 61.984 100.919 62.368 100.919 62.884V63.964L100.991 64.972V73H98.741ZM97.157 65.26V63.46H103.565V65.26H97.157ZM109.457 73.126C108.389 73.126 107.453 72.916 106.649 72.496C105.857 72.064 105.239 71.476 104.795 70.732C104.363 69.988 104.147 69.142 104.147 68.194C104.147 67.234 104.357 66.388 104.777 65.656C105.209 64.912 105.797 64.33 106.541 63.91C107.297 63.49 108.155 63.28 109.115 63.28C110.051 63.28 110.885 63.484 111.617 63.892C112.349 64.3 112.925 64.876 113.345 65.62C113.765 66.364 113.975 67.24 113.975 68.248C113.975 68.344 113.969 68.452 113.957 68.572C113.957 68.692 113.951 68.806 113.939 68.914H105.929V67.42H112.751L111.869 67.888C111.881 67.336 111.767 66.85 111.527 66.43C111.287 66.01 110.957 65.68 110.537 65.44C110.129 65.2 109.655 65.08 109.115 65.08C108.563 65.08 108.077 65.2 107.657 65.44C107.249 65.68 106.925 66.016 106.685 66.448C106.457 66.868 106.343 67.366 106.343 67.942V68.302C106.343 68.878 106.475 69.388 106.739 69.832C107.003 70.276 107.375 70.618 107.855 70.858C108.335 71.098 108.887 71.218 109.511 71.218C110.051 71.218 110.537 71.134 110.969 70.966C111.401 70.798 111.785 70.534 112.121 70.174L113.327 71.56C112.895 72.064 112.349 72.454 111.689 72.73C111.041 72.994 110.297 73.126 109.457 73.126ZM121.59 63.28C122.358 63.28 123.042 63.43 123.642 63.73C124.254 64.03 124.734 64.492 125.082 65.116C125.43 65.728 125.604 66.52 125.604 67.492V73H123.354V67.78C123.354 66.928 123.15 66.292 122.742 65.872C122.346 65.452 121.788 65.242 121.068 65.242C120.54 65.242 120.072 65.35 119.664 65.566C119.256 65.782 118.938 66.106 118.71 66.538C118.494 66.958 118.386 67.492 118.386 68.14V73H116.136V63.388H118.278V65.98L117.9 65.188C118.236 64.576 118.722 64.108 119.358 63.784C120.006 63.448 120.75 63.28 121.59 63.28ZM135.791 66.196H142.073V68.176H135.791V66.196ZM135.989 73H133.649V60.4H142.847V62.362H135.989V73ZM148.698 73.126C147.882 73.126 147.162 72.976 146.538 72.676C145.914 72.364 145.428 71.896 145.08 71.272C144.732 70.636 144.558 69.838 144.558 68.878V63.388H146.808V68.572C146.808 69.436 147 70.084 147.384 70.516C147.78 70.936 148.338 71.146 149.058 71.146C149.586 71.146 150.042 71.038 150.426 70.822C150.822 70.606 151.128 70.282 151.344 69.85C151.572 69.418 151.686 68.884 151.686 68.248V63.388H153.936V73H151.794V70.408L152.172 71.2C151.848 71.824 151.374 72.304 150.75 72.64C150.126 72.964 149.442 73.126 148.698 73.126ZM160.5 73.126C159.444 73.126 158.628 72.856 158.052 72.316C157.476 71.764 157.188 70.954 157.188 69.886V61.264H159.438V69.832C159.438 70.288 159.552 70.642 159.78 70.894C160.02 71.146 160.35 71.272 160.77 71.272C161.274 71.272 161.694 71.14 162.03 70.876L162.66 72.478C162.396 72.694 162.072 72.856 161.688 72.964C161.304 73.072 160.908 73.126 160.5 73.126ZM155.604 65.26V63.46H162.012V65.26H155.604ZM168.579 73.126C167.763 73.126 167.043 72.976 166.419 72.676C165.795 72.364 165.309 71.896 164.961 71.272C164.613 70.636 164.439 69.838 164.439 68.878V63.388H166.689V68.572C166.689 69.436 166.881 70.084 167.265 70.516C167.661 70.936 168.219 71.146 168.939 71.146C169.467 71.146 169.923 71.038 170.307 70.822C170.703 70.606 171.009 70.282 171.225 69.85C171.453 69.418 171.567 68.884 171.567 68.248V63.388H173.817V73H171.675V70.408L172.053 71.2C171.729 71.824 171.255 72.304 170.631 72.64C170.007 72.964 169.323 73.126 168.579 73.126ZM176.763 73V63.388H178.905V66.034L178.653 65.26C178.941 64.612 179.391 64.12 180.003 63.784C180.627 63.448 181.401 63.28 182.325 63.28V65.422C182.229 65.398 182.139 65.386 182.055 65.386C181.971 65.374 181.887 65.368 181.803 65.368C180.951 65.368 180.273 65.62 179.769 66.124C179.265 66.616 179.013 67.354 179.013 68.338V73H176.763ZM188.664 73.126C187.596 73.126 186.66 72.916 185.856 72.496C185.064 72.064 184.446 71.476 184.002 70.732C183.57 69.988 183.354 69.142 183.354 68.194C183.354 67.234 183.564 66.388 183.984 65.656C184.416 64.912 185.004 64.33 185.748 63.91C186.504 63.49 187.362 63.28 188.322 63.28C189.258 63.28 190.092 63.484 190.824 63.892C191.556 64.3 192.132 64.876 192.552 65.62C192.972 66.364 193.182 67.24 193.182 68.248C193.182 68.344 193.176 68.452 193.164 68.572C193.164 68.692 193.158 68.806 193.146 68.914H185.136V67.42H191.958L191.076 67.888C191.088 67.336 190.974 66.85 190.734 66.43C190.494 66.01 190.164 65.68 189.744 65.44C189.336 65.2 188.862 65.08 188.322 65.08C187.77 65.08 187.284 65.2 186.864 65.44C186.456 65.68 186.132 66.016 185.892 66.448C185.664 66.868 185.55 67.366 185.55 67.942V68.302C185.55 68.878 185.682 69.388 185.946 69.832C186.21 70.276 186.582 70.618 187.062 70.858C187.542 71.098 188.094 71.218 188.718 71.218C189.258 71.218 189.744 71.134 190.176 70.966C190.608 70.798 190.992 70.534 191.328 70.174L192.534 71.56C192.102 72.064 191.556 72.454 190.896 72.73C190.248 72.994 189.504 73.126 188.664 73.126ZM198.313 73.126C197.509 73.126 196.735 73.024 195.991 72.82C195.259 72.604 194.677 72.346 194.245 72.046L195.109 70.336C195.541 70.612 196.057 70.84 196.657 71.02C197.257 71.2 197.857 71.29 198.457 71.29C199.165 71.29 199.675 71.194 199.987 71.002C200.311 70.81 200.473 70.552 200.473 70.228C200.473 69.964 200.365 69.766 200.149 69.634C199.933 69.49 199.651 69.382 199.303 69.31C198.955 69.238 198.565 69.172 198.133 69.112C197.713 69.052 197.287 68.974 196.855 68.878C196.435 68.77 196.051 68.62 195.703 68.428C195.355 68.224 195.073 67.954 194.857 67.618C194.641 67.282 194.533 66.838 194.533 66.286C194.533 65.674 194.707 65.146 195.055 64.702C195.403 64.246 195.889 63.898 196.513 63.658C197.149 63.406 197.899 63.28 198.763 63.28C199.411 63.28 200.065 63.352 200.725 63.496C201.385 63.64 201.931 63.844 202.363 64.108L201.499 65.818C201.043 65.542 200.581 65.356 200.113 65.26C199.657 65.152 199.201 65.098 198.745 65.098C198.061 65.098 197.551 65.2 197.215 65.404C196.891 65.608 196.729 65.866 196.729 66.178C196.729 66.466 196.837 66.682 197.053 66.826C197.269 66.97 197.551 67.084 197.899 67.168C198.247 67.252 198.631 67.324 199.051 67.384C199.483 67.432 199.909 67.51 200.329 67.618C200.749 67.726 201.133 67.876 201.481 68.068C201.841 68.248 202.129 68.506 202.345 68.842C202.561 69.178 202.669 69.616 202.669 70.156C202.669 70.756 202.489 71.278 202.129 71.722C201.781 72.166 201.283 72.514 200.635 72.766C199.987 73.006 199.213 73.126 198.313 73.126ZM208.789 73V71.578L214.711 64.414L215.125 65.188H208.897V63.388H216.925V64.81L211.003 71.974L210.553 71.2H217.087V73H208.789ZM223.23 73.126C222.414 73.126 221.694 72.976 221.07 72.676C220.446 72.364 219.96 71.896 219.612 71.272C219.264 70.636 219.09 69.838 219.09 68.878V63.388H221.34V68.572C221.34 69.436 221.532 70.084 221.916 70.516C222.312 70.936 222.87 71.146 223.59 71.146C224.118 71.146 224.574 71.038 224.958 70.822C225.354 70.606 225.66 70.282 225.876 69.85C226.104 69.418 226.218 68.884 226.218 68.248V63.388H228.468V73H226.326V70.408L226.704 71.2C226.38 71.824 225.906 72.304 225.282 72.64C224.658 72.964 223.974 73.126 223.23 73.126ZM240.456 73.126C239.532 73.126 238.698 72.922 237.954 72.514C237.222 72.094 236.646 71.518 236.226 70.786C235.806 70.054 235.596 69.19 235.596 68.194C235.596 67.198 235.806 66.334 236.226 65.602C236.646 64.87 237.222 64.3 237.954 63.892C238.698 63.484 239.532 63.28 240.456 63.28C241.26 63.28 241.98 63.46 242.616 63.82C243.252 64.168 243.756 64.702 244.128 65.422C244.5 66.142 244.686 67.066 244.686 68.194C244.686 69.31 244.506 70.234 244.146 70.966C243.786 71.686 243.288 72.226 242.652 72.586C242.016 72.946 241.284 73.126 240.456 73.126ZM240.726 71.2C241.266 71.2 241.746 71.08 242.166 70.84C242.598 70.6 242.94 70.252 243.192 69.796C243.456 69.34 243.588 68.806 243.588 68.194C243.588 67.57 243.456 67.036 243.192 66.592C242.94 66.136 242.598 65.788 242.166 65.548C241.746 65.308 241.266 65.188 240.726 65.188C240.186 65.188 239.7 65.308 239.268 65.548C238.848 65.788 238.506 66.136 238.242 66.592C237.99 67.036 237.864 67.57 237.864 68.194C237.864 68.806 237.99 69.34 238.242 69.796C238.506 70.252 238.848 70.6 239.268 70.84C239.7 71.08 240.186 71.2 240.726 71.2ZM243.642 73V70.732L243.732 68.176L243.552 65.62V59.644H245.784V73H243.642ZM248.746 73V63.388H250.996V73H248.746ZM249.88 61.804C249.46 61.804 249.112 61.672 248.836 61.408C248.572 61.144 248.44 60.826 248.44 60.454C248.44 60.07 248.572 59.752 248.836 59.5C249.112 59.236 249.46 59.104 249.88 59.104C250.3 59.104 250.642 59.23 250.906 59.482C251.182 59.722 251.32 60.028 251.32 60.4C251.32 60.796 251.188 61.132 250.924 61.408C250.66 61.672 250.312 61.804 249.88 61.804ZM258.467 73.126C257.399 73.126 256.463 72.916 255.659 72.496C254.867 72.064 254.249 71.476 253.805 70.732C253.373 69.988 253.157 69.142 253.157 68.194C253.157 67.234 253.367 66.388 253.787 65.656C254.219 64.912 254.807 64.33 255.551 63.91C256.307 63.49 257.165 63.28 258.125 63.28C259.061 63.28 259.895 63.484 260.627 63.892C261.359 64.3 261.935 64.876 262.355 65.62C262.775 66.364 262.985 67.24 262.985 68.248C262.985 68.344 262.979 68.452 262.967 68.572C262.967 68.692 262.961 68.806 262.949 68.914H254.939V67.42H261.761L260.879 67.888C260.891 67.336 260.777 66.85 260.537 66.43C260.297 66.01 259.967 65.68 259.547 65.44C259.139 65.2 258.665 65.08 258.125 65.08C257.573 65.08 257.087 65.2 256.667 65.44C256.259 65.68 255.935 66.016 255.695 66.448C255.467 66.868 255.353 67.366 255.353 67.942V68.302C255.353 68.878 255.485 69.388 255.749 69.832C256.013 70.276 256.385 70.618 256.865 70.858C257.345 71.098 257.897 71.218 258.521 71.218C259.061 71.218 259.547 71.134 259.979 70.966C260.411 70.798 260.795 70.534 261.131 70.174L262.337 71.56C261.905 72.064 261.359 72.454 260.699 72.73C260.051 72.994 259.307 73.126 258.467 73.126ZM268.116 73.126C267.312 73.126 266.538 73.024 265.794 72.82C265.062 72.604 264.48 72.346 264.048 72.046L264.912 70.336C265.344 70.612 265.86 70.84 266.46 71.02C267.06 71.2 267.66 71.29 268.26 71.29C268.968 71.29 269.478 71.194 269.79 71.002C270.114 70.81 270.276 70.552 270.276 70.228C270.276 69.964 270.168 69.766 269.952 69.634C269.736 69.49 269.454 69.382 269.106 69.31C268.758 69.238 268.368 69.172 267.936 69.112C267.516 69.052 267.09 68.974 266.658 68.878C266.238 68.77 265.854 68.62 265.506 68.428C265.158 68.224 264.876 67.954 264.66 67.618C264.444 67.282 264.336 66.838 264.336 66.286C264.336 65.674 264.51 65.146 264.858 64.702C265.206 64.246 265.692 63.898 266.316 63.658C266.952 63.406 267.702 63.28 268.566 63.28C269.214 63.28 269.868 63.352 270.528 63.496C271.188 63.64 271.734 63.844 272.166 64.108L271.302 65.818C270.846 65.542 270.384 65.356 269.916 65.26C269.46 65.152 269.004 65.098 268.548 65.098C267.864 65.098 267.354 65.2 267.018 65.404C266.694 65.608 266.532 65.866 266.532 66.178C266.532 66.466 266.64 66.682 266.856 66.826C267.072 66.97 267.354 67.084 267.702 67.168C268.05 67.252 268.434 67.324 268.854 67.384C269.286 67.432 269.712 67.51 270.132 67.618C270.552 67.726 270.936 67.876 271.284 68.068C271.644 68.248 271.932 68.506 272.148 68.842C272.364 69.178 272.472 69.616 272.472 70.156C272.472 70.756 272.292 71.278 271.932 71.722C271.584 72.166 271.086 72.514 270.438 72.766C269.79 73.006 269.016 73.126 268.116 73.126ZM278.928 73.126C277.86 73.126 276.924 72.916 276.12 72.496C275.328 72.064 274.71 71.476 274.266 70.732C273.834 69.988 273.618 69.142 273.618 68.194C273.618 67.234 273.828 66.388 274.248 65.656C274.68 64.912 275.268 64.33 276.012 63.91C276.768 63.49 277.626 63.28 278.586 63.28C279.522 63.28 280.356 63.484 281.088 63.892C281.82 64.3 282.396 64.876 282.816 65.62C283.236 66.364 283.446 67.24 283.446 68.248C283.446 68.344 283.44 68.452 283.428 68.572C283.428 68.692 283.422 68.806 283.41 68.914H275.4V67.42H282.222L281.34 67.888C281.352 67.336 281.238 66.85 280.998 66.43C280.758 66.01 280.428 65.68 280.008 65.44C279.6 65.2 279.126 65.08 278.586 65.08C278.034 65.08 277.548 65.2 277.128 65.44C276.72 65.68 276.396 66.016 276.156 66.448C275.928 66.868 275.814 67.366 275.814 67.942V68.302C275.814 68.878 275.946 69.388 276.21 69.832C276.474 70.276 276.846 70.618 277.326 70.858C277.806 71.098 278.358 71.218 278.982 71.218C279.522 71.218 280.008 71.134 280.44 70.966C280.872 70.798 281.256 70.534 281.592 70.174L282.798 71.56C282.366 72.064 281.82 72.454 281.16 72.73C280.512 72.994 279.768 73.126 278.928 73.126ZM297.739 63.28C298.507 63.28 299.185 63.43 299.773 63.73C300.373 64.03 300.841 64.492 301.177 65.116C301.513 65.728 301.681 66.52 301.681 67.492V73H299.431V67.78C299.431 66.928 299.245 66.292 298.873 65.872C298.501 65.452 297.967 65.242 297.271 65.242C296.779 65.242 296.341 65.35 295.957 65.566C295.585 65.782 295.291 66.1 295.075 66.52C294.871 66.94 294.769 67.474 294.769 68.122V73H292.519V67.78C292.519 66.928 292.333 66.292 291.961 65.872C291.589 65.452 291.055 65.242 290.359 65.242C289.867 65.242 289.429 65.35 289.045 65.566C288.673 65.782 288.379 66.1 288.163 66.52C287.959 66.94 287.857 67.474 287.857 68.122V73H285.607V63.388H287.749V65.944L287.371 65.188C287.695 64.564 288.163 64.09 288.775 63.766C289.399 63.442 290.107 63.28 290.899 63.28C291.799 63.28 292.579 63.502 293.239 63.946C293.911 64.39 294.355 65.062 294.571 65.962L293.689 65.656C294.001 64.936 294.517 64.36 295.237 63.928C295.957 63.496 296.791 63.28 297.739 63.28ZM309.747 73V60.4H314.931C316.047 60.4 317.001 60.58 317.793 60.94C318.597 61.3 319.215 61.816 319.647 62.488C320.079 63.16 320.295 63.958 320.295 64.882C320.295 65.806 320.079 66.604 319.647 67.276C319.215 67.948 318.597 68.464 317.793 68.824C317.001 69.184 316.047 69.364 314.931 69.364H311.043L312.087 68.266V73H309.747ZM312.087 68.518L311.043 67.384H314.823C315.855 67.384 316.629 67.168 317.145 66.736C317.673 66.292 317.937 65.674 317.937 64.882C317.937 64.078 317.673 63.46 317.145 63.028C316.629 62.596 315.855 62.38 314.823 62.38H311.043L312.087 61.228V68.518ZM322.328 73V63.388H324.47V66.034L324.218 65.26C324.506 64.612 324.956 64.12 325.568 63.784C326.192 63.448 326.966 63.28 327.89 63.28V65.422C327.794 65.398 327.704 65.386 327.62 65.386C327.536 65.374 327.452 65.368 327.368 65.368C326.516 65.368 325.838 65.62 325.334 66.124C324.83 66.616 324.578 67.354 324.578 68.338V73H322.328ZM334.228 73.126C333.16 73.126 332.224 72.916 331.42 72.496C330.628 72.064 330.01 71.476 329.566 70.732C329.134 69.988 328.918 69.142 328.918 68.194C328.918 67.234 329.128 66.388 329.548 65.656C329.98 64.912 330.568 64.33 331.312 63.91C332.068 63.49 332.926 63.28 333.886 63.28C334.822 63.28 335.656 63.484 336.388 63.892C337.12 64.3 337.696 64.876 338.116 65.62C338.536 66.364 338.746 67.24 338.746 68.248C338.746 68.344 338.74 68.452 338.728 68.572C338.728 68.692 338.722 68.806 338.71 68.914H330.7V67.42H337.522L336.64 67.888C336.652 67.336 336.538 66.85 336.298 66.43C336.058 66.01 335.728 65.68 335.308 65.44C334.9 65.2 334.426 65.08 333.886 65.08C333.334 65.08 332.848 65.2 332.428 65.44C332.02 65.68 331.696 66.016 331.456 66.448C331.228 66.868 331.114 67.366 331.114 67.942V68.302C331.114 68.878 331.246 69.388 331.51 69.832C331.774 70.276 332.146 70.618 332.626 70.858C333.106 71.098 333.658 71.218 334.282 71.218C334.822 71.218 335.308 71.134 335.74 70.966C336.172 70.798 336.556 70.534 336.892 70.174L338.098 71.56C337.666 72.064 337.12 72.454 336.46 72.73C335.812 72.994 335.068 73.126 334.228 73.126ZM340.908 73V63.388H343.158V73H340.908ZM342.042 61.804C341.622 61.804 341.274 61.672 340.998 61.408C340.734 61.144 340.602 60.826 340.602 60.454C340.602 60.07 340.734 59.752 340.998 59.5C341.274 59.236 341.622 59.104 342.042 59.104C342.462 59.104 342.804 59.23 343.068 59.482C343.344 59.722 343.482 60.028 343.482 60.4C343.482 60.796 343.35 61.132 343.086 61.408C342.822 61.672 342.474 61.804 342.042 61.804ZM349.081 73.126C348.277 73.126 347.503 73.024 346.759 72.82C346.027 72.604 345.445 72.346 345.013 72.046L345.877 70.336C346.309 70.612 346.825 70.84 347.425 71.02C348.025 71.2 348.625 71.29 349.225 71.29C349.933 71.29 350.443 71.194 350.755 71.002C351.079 70.81 351.241 70.552 351.241 70.228C351.241 69.964 351.133 69.766 350.917 69.634C350.701 69.49 350.419 69.382 350.071 69.31C349.723 69.238 349.333 69.172 348.901 69.112C348.481 69.052 348.055 68.974 347.623 68.878C347.203 68.77 346.819 68.62 346.471 68.428C346.123 68.224 345.841 67.954 345.625 67.618C345.409 67.282 345.301 66.838 345.301 66.286C345.301 65.674 345.475 65.146 345.823 64.702C346.171 64.246 346.657 63.898 347.281 63.658C347.917 63.406 348.667 63.28 349.531 63.28C350.179 63.28 350.833 63.352 351.493 63.496C352.153 63.64 352.699 63.844 353.131 64.108L352.267 65.818C351.811 65.542 351.349 65.356 350.881 65.26C350.425 65.152 349.969 65.098 349.513 65.098C348.829 65.098 348.319 65.2 347.983 65.404C347.659 65.608 347.497 65.866 347.497 66.178C347.497 66.466 347.605 66.682 347.821 66.826C348.037 66.97 348.319 67.084 348.667 67.168C349.015 67.252 349.399 67.324 349.819 67.384C350.251 67.432 350.677 67.51 351.097 67.618C351.517 67.726 351.901 67.876 352.249 68.068C352.609 68.248 352.897 68.506 353.113 68.842C353.329 69.178 353.437 69.616 353.437 70.156C353.437 70.756 353.257 71.278 352.897 71.722C352.549 72.166 352.051 72.514 351.403 72.766C350.755 73.006 349.981 73.126 349.081 73.126Z" fill="#214B33"/>
<path d="M175 21L902 21" stroke="#BC0051"/>
<path d="M3.852 13.638H10.116V15.564H3.852V13.638ZM4.032 19.038H11.142V21H1.692V8.4H10.89V10.362H4.032V19.038ZM13.5346 21V11.388H15.7846V21H13.5346ZM14.6686 9.804C14.2486 9.804 13.9006 9.672 13.6246 9.408C13.3606 9.144 13.2286 8.826 13.2286 8.454C13.2286 8.07 13.3606 7.752 13.6246 7.5C13.9006 7.236 14.2486 7.104 14.6686 7.104C15.0886 7.104 15.4306 7.23 15.6946 7.482C15.9706 7.722 16.1086 8.028 16.1086 8.4C16.1086 8.796 15.9766 9.132 15.7126 9.408C15.4486 9.672 15.1006 9.804 14.6686 9.804ZM24.1917 11.28C24.9597 11.28 25.6437 11.43 26.2437 11.73C26.8557 12.03 27.3357 12.492 27.6837 13.116C28.0317 13.728 28.2057 14.52 28.2057 15.492V21H25.9557V15.78C25.9557 14.928 25.7517 14.292 25.3437 13.872C24.9477 13.452 24.3897 13.242 23.6697 13.242C23.1417 13.242 22.6737 13.35 22.2657 13.566C21.8577 13.782 21.5397 14.106 21.3117 14.538C21.0957 14.958 20.9877 15.492 20.9877 16.14V21H18.7377V11.388H20.8797V13.98L20.5017 13.188C20.8377 12.576 21.3237 12.108 21.9597 11.784C22.6077 11.448 23.3517 11.28 24.1917 11.28ZM30.268 21V19.578L36.19 12.414L36.604 13.188H30.376V11.388H38.404V12.81L32.482 19.974L32.032 19.2H38.566V21H30.268ZM45.0174 21.126C43.9494 21.126 43.0134 20.916 42.2094 20.496C41.4174 20.064 40.7994 19.476 40.3554 18.732C39.9234 17.988 39.7074 17.142 39.7074 16.194C39.7074 15.234 39.9174 14.388 40.3374 13.656C40.7694 12.912 41.3574 12.33 42.1014 11.91C42.8574 11.49 43.7154 11.28 44.6754 11.28C45.6114 11.28 46.4454 11.484 47.1774 11.892C47.9094 12.3 48.4854 12.876 48.9054 13.62C49.3254 14.364 49.5354 15.24 49.5354 16.248C49.5354 16.344 49.5294 16.452 49.5174 16.572C49.5174 16.692 49.5114 16.806 49.4994 16.914H41.4894V15.42H48.3114L47.4294 15.888C47.4414 15.336 47.3274 14.85 47.0874 14.43C46.8474 14.01 46.5174 13.68 46.0974 13.44C45.6894 13.2 45.2154 13.08 44.6754 13.08C44.1234 13.08 43.6374 13.2 43.2174 13.44C42.8094 13.68 42.4854 14.016 42.2454 14.448C42.0174 14.868 41.9034 15.366 41.9034 15.942V16.302C41.9034 16.878 42.0354 17.388 42.2994 17.832C42.5634 18.276 42.9354 18.618 43.4154 18.858C43.8954 19.098 44.4474 19.218 45.0714 19.218C45.6114 19.218 46.0974 19.134 46.5294 18.966C46.9614 18.798 47.3454 18.534 47.6814 18.174L48.8874 19.56C48.4554 20.064 47.9094 20.454 47.2494 20.73C46.6014 20.994 45.8574 21.126 45.0174 21.126ZM51.6967 21V7.644H53.9467V21H51.6967ZM62.3538 11.28C63.1218 11.28 63.8058 11.43 64.4058 11.73C65.0178 12.03 65.4978 12.492 65.8458 13.116C66.1938 13.728 66.3678 14.52 66.3678 15.492V21H64.1178V15.78C64.1178 14.928 63.9138 14.292 63.5058 13.872C63.1098 13.452 62.5518 13.242 61.8318 13.242C61.3038 13.242 60.8358 13.35 60.4278 13.566C60.0198 13.782 59.7018 14.106 59.4738 14.538C59.2578 14.958 59.1498 15.492 59.1498 16.14V21H56.8998V7.644H59.1498V13.98L58.6638 13.188C58.9998 12.576 59.4858 12.108 60.1218 11.784C60.7698 11.448 61.5138 11.28 62.3538 11.28ZM75.1441 21V19.056L75.0181 18.642V15.24C75.0181 14.58 74.8201 14.07 74.4241 13.71C74.0281 13.338 73.4281 13.152 72.6241 13.152C72.0841 13.152 71.5501 13.236 71.0221 13.404C70.5061 13.572 70.0681 13.806 69.7081 14.106L68.8261 12.468C69.3421 12.072 69.9541 11.778 70.6621 11.586C71.3821 11.382 72.1261 11.28 72.8941 11.28C74.2861 11.28 75.3601 11.616 76.1161 12.288C76.8841 12.948 77.2681 13.974 77.2681 15.366V21H75.1441ZM72.1201 21.126C71.4001 21.126 70.7701 21.006 70.2301 20.766C69.6901 20.514 69.2701 20.172 68.9701 19.74C68.6821 19.296 68.5381 18.798 68.5381 18.246C68.5381 17.706 68.6641 17.22 68.9161 16.788C69.1801 16.356 69.6061 16.014 70.1941 15.762C70.7821 15.51 71.5621 15.384 72.5341 15.384H75.3241V16.878H72.6961C71.9281 16.878 71.4121 17.004 71.1481 17.256C70.8841 17.496 70.7521 17.796 70.7521 18.156C70.7521 18.564 70.9141 18.888 71.2381 19.128C71.5621 19.368 72.0121 19.488 72.5881 19.488C73.1401 19.488 73.6321 19.362 74.0641 19.11C74.5081 18.858 74.8261 18.486 75.0181 17.994L75.3961 19.344C75.1801 19.908 74.7901 20.346 74.2261 20.658C73.6741 20.97 72.9721 21.126 72.1201 21.126ZM85.6097 11.28C86.3777 11.28 87.0617 11.43 87.6617 11.73C88.2737 12.03 88.7537 12.492 89.1017 13.116C89.4497 13.728 89.6237 14.52 89.6237 15.492V21H87.3737V15.78C87.3737 14.928 87.1697 14.292 86.7617 13.872C86.3657 13.452 85.8077 13.242 85.0877 13.242C84.5597 13.242 84.0917 13.35 83.6837 13.566C83.2757 13.782 82.9577 14.106 82.7297 14.538C82.5137 14.958 82.4057 15.492 82.4057 16.14V21H80.1557V11.388H82.2977V13.98L81.9197 13.188C82.2557 12.576 82.7417 12.108 83.3777 11.784C84.0257 11.448 84.7697 11.28 85.6097 11.28ZM96.5635 21.126C95.6395 21.126 94.8055 20.922 94.0615 20.514C93.3295 20.094 92.7535 19.518 92.3335 18.786C91.9135 18.054 91.7035 17.19 91.7035 16.194C91.7035 15.198 91.9135 14.334 92.3335 13.602C92.7535 12.87 93.3295 12.3 94.0615 11.892C94.8055 11.484 95.6395 11.28 96.5635 11.28C97.3675 11.28 98.0875 11.46 98.7235 11.82C99.3595 12.168 99.8635 12.702 100.236 13.422C100.608 14.142 100.794 15.066 100.794 16.194C100.794 17.31 100.614 18.234 100.254 18.966C99.8935 19.686 99.3955 20.226 98.7595 20.586C98.1235 20.946 97.3915 21.126 96.5635 21.126ZM96.8335 19.2C97.3735 19.2 97.8535 19.08 98.2735 18.84C98.7055 18.6 99.0475 18.252 99.2995 17.796C99.5635 17.34 99.6955 16.806 99.6955 16.194C99.6955 15.57 99.5635 15.036 99.2995 14.592C99.0475 14.136 98.7055 13.788 98.2735 13.548C97.8535 13.308 97.3735 13.188 96.8335 13.188C96.2935 13.188 95.8075 13.308 95.3755 13.548C94.9555 13.788 94.6135 14.136 94.3495 14.592C94.0975 15.036 93.9715 15.57 93.9715 16.194C93.9715 16.806 94.0975 17.34 94.3495 17.796C94.6135 18.252 94.9555 18.6 95.3755 18.84C95.8075 19.08 96.2935 19.2 96.8335 19.2ZM99.7495 21V18.732L99.8395 16.176L99.6595 13.62V7.644H101.892V21H99.7495ZM109.371 21.126C108.303 21.126 107.367 20.916 106.563 20.496C105.771 20.064 105.153 19.476 104.709 18.732C104.277 17.988 104.061 17.142 104.061 16.194C104.061 15.234 104.271 14.388 104.691 13.656C105.123 12.912 105.711 12.33 106.455 11.91C107.211 11.49 108.069 11.28 109.029 11.28C109.965 11.28 110.799 11.484 111.531 11.892C112.263 12.3 112.839 12.876 113.259 13.62C113.679 14.364 113.889 15.24 113.889 16.248C113.889 16.344 113.883 16.452 113.871 16.572C113.871 16.692 113.865 16.806 113.853 16.914H105.843V15.42H112.665L111.783 15.888C111.795 15.336 111.681 14.85 111.441 14.43C111.201 14.01 110.871 13.68 110.451 13.44C110.043 13.2 109.569 13.08 109.029 13.08C108.477 13.08 107.991 13.2 107.571 13.44C107.163 13.68 106.839 14.016 106.599 14.448C106.371 14.868 106.257 15.366 106.257 15.942V16.302C106.257 16.878 106.389 17.388 106.653 17.832C106.917 18.276 107.289 18.618 107.769 18.858C108.249 19.098 108.801 19.218 109.425 19.218C109.965 19.218 110.451 19.134 110.883 18.966C111.315 18.798 111.699 18.534 112.035 18.174L113.241 19.56C112.809 20.064 112.263 20.454 111.603 20.73C110.955 20.994 110.211 21.126 109.371 21.126ZM116.05 21V7.644H118.3V21H116.05ZM124.223 21.126C123.419 21.126 122.645 21.024 121.901 20.82C121.169 20.604 120.587 20.346 120.155 20.046L121.019 18.336C121.451 18.612 121.967 18.84 122.567 19.02C123.167 19.2 123.767 19.29 124.367 19.29C125.075 19.29 125.585 19.194 125.897 19.002C126.221 18.81 126.383 18.552 126.383 18.228C126.383 17.964 126.275 17.766 126.059 17.634C125.843 17.49 125.561 17.382 125.213 17.31C124.865 17.238 124.475 17.172 124.043 17.112C123.623 17.052 123.197 16.974 122.765 16.878C122.345 16.77 121.961 16.62 121.613 16.428C121.265 16.224 120.983 15.954 120.767 15.618C120.551 15.282 120.443 14.838 120.443 14.286C120.443 13.674 120.617 13.146 120.965 12.702C121.313 12.246 121.799 11.898 122.423 11.658C123.059 11.406 123.809 11.28 124.673 11.28C125.321 11.28 125.975 11.352 126.635 11.496C127.295 11.64 127.841 11.844 128.273 12.108L127.409 13.818C126.953 13.542 126.491 13.356 126.023 13.26C125.567 13.152 125.111 13.098 124.655 13.098C123.971 13.098 123.461 13.2 123.125 13.404C122.801 13.608 122.639 13.866 122.639 14.178C122.639 14.466 122.747 14.682 122.963 14.826C123.179 14.97 123.461 15.084 123.809 15.168C124.157 15.252 124.541 15.324 124.961 15.384C125.393 15.432 125.819 15.51 126.239 15.618C126.659 15.726 127.043 15.876 127.391 16.068C127.751 16.248 128.039 16.506 128.255 16.842C128.471 17.178 128.579 17.616 128.579 18.156C128.579 18.756 128.399 19.278 128.039 19.722C127.691 20.166 127.193 20.514 126.545 20.766C125.897 21.006 125.123 21.126 124.223 21.126ZM135.845 21.126C135.065 21.126 134.351 20.946 133.703 20.586C133.067 20.226 132.557 19.686 132.173 18.966C131.801 18.234 131.615 17.31 131.615 16.194C131.615 15.066 131.795 14.142 132.155 13.422C132.527 12.702 133.031 12.168 133.667 11.82C134.303 11.46 135.029 11.28 135.845 11.28C136.793 11.28 137.627 11.484 138.347 11.892C139.079 12.3 139.655 12.87 140.075 13.602C140.507 14.334 140.723 15.198 140.723 16.194C140.723 17.19 140.507 18.06 140.075 18.804C139.655 19.536 139.079 20.106 138.347 20.514C137.627 20.922 136.793 21.126 135.845 21.126ZM130.517 24.492V11.388H132.659V13.656L132.587 16.212L132.767 18.768V24.492H130.517ZM135.593 19.2C136.133 19.2 136.613 19.08 137.033 18.84C137.465 18.6 137.807 18.252 138.059 17.796C138.311 17.34 138.437 16.806 138.437 16.194C138.437 15.57 138.311 15.036 138.059 14.592C137.807 14.136 137.465 13.788 137.033 13.548C136.613 13.308 136.133 13.188 135.593 13.188C135.053 13.188 134.567 13.308 134.135 13.548C133.703 13.788 133.361 14.136 133.109 14.592C132.857 15.036 132.731 15.57 132.731 16.194C132.731 16.806 132.857 17.34 133.109 17.796C133.361 18.252 133.703 18.6 134.135 18.84C134.567 19.08 135.053 19.2 135.593 19.2ZM142.857 21V11.388H144.999V14.034L144.747 13.26C145.035 12.612 145.485 12.12 146.097 11.784C146.721 11.448 147.495 11.28 148.419 11.28V13.422C148.323 13.398 148.233 13.386 148.149 13.386C148.065 13.374 147.981 13.368 147.897 13.368C147.045 13.368 146.367 13.62 145.863 14.124C145.359 14.616 145.107 15.354 145.107 16.338V21H142.857ZM154.758 21.126C153.69 21.126 152.754 20.916 151.95 20.496C151.158 20.064 150.54 19.476 150.096 18.732C149.664 17.988 149.448 17.142 149.448 16.194C149.448 15.234 149.658 14.388 150.078 13.656C150.51 12.912 151.098 12.33 151.842 11.91C152.598 11.49 153.456 11.28 154.416 11.28C155.352 11.28 156.186 11.484 156.918 11.892C157.65 12.3 158.226 12.876 158.646 13.62C159.066 14.364 159.276 15.24 159.276 16.248C159.276 16.344 159.27 16.452 159.258 16.572C159.258 16.692 159.252 16.806 159.24 16.914H151.23V15.42H158.052L157.17 15.888C157.182 15.336 157.068 14.85 156.828 14.43C156.588 14.01 156.258 13.68 155.838 13.44C155.43 13.2 154.956 13.08 154.416 13.08C153.864 13.08 153.378 13.2 152.958 13.44C152.55 13.68 152.226 14.016 151.986 14.448C151.758 14.868 151.644 15.366 151.644 15.942V16.302C151.644 16.878 151.776 17.388 152.04 17.832C152.304 18.276 152.676 18.618 153.156 18.858C153.636 19.098 154.188 19.218 154.812 19.218C155.352 19.218 155.838 19.134 156.27 18.966C156.702 18.798 157.086 18.534 157.422 18.174L158.628 19.56C158.196 20.064 157.65 20.454 156.99 20.73C156.342 20.994 155.598 21.126 154.758 21.126ZM161.437 21V11.388H163.687V21H161.437ZM162.571 9.804C162.151 9.804 161.803 9.672 161.527 9.408C161.263 9.144 161.131 8.826 161.131 8.454C161.131 8.07 161.263 7.752 161.527 7.5C161.803 7.236 162.151 7.104 162.571 7.104C162.991 7.104 163.333 7.23 163.597 7.482C163.873 7.722 164.011 8.028 164.011 8.4C164.011 8.796 163.879 9.132 163.615 9.408C163.351 9.672 163.003 9.804 162.571 9.804ZM169.61 21.126C168.806 21.126 168.032 21.024 167.288 20.82C166.556 20.604 165.974 20.346 165.542 20.046L166.406 18.336C166.838 18.612 167.354 18.84 167.954 19.02C168.554 19.2 169.154 19.29 169.754 19.29C170.462 19.29 170.972 19.194 171.284 19.002C171.608 18.81 171.77 18.552 171.77 18.228C171.77 17.964 171.662 17.766 171.446 17.634C171.23 17.49 170.948 17.382 170.6 17.31C170.252 17.238 169.862 17.172 169.43 17.112C169.01 17.052 168.584 16.974 168.152 16.878C167.732 16.77 167.348 16.62 167 16.428C166.652 16.224 166.37 15.954 166.154 15.618C165.938 15.282 165.83 14.838 165.83 14.286C165.83 13.674 166.004 13.146 166.352 12.702C166.7 12.246 167.186 11.898 167.81 11.658C168.446 11.406 169.196 11.28 170.06 11.28C170.708 11.28 171.362 11.352 172.022 11.496C172.682 11.64 173.228 11.844 173.66 12.108L172.796 13.818C172.34 13.542 171.878 13.356 171.41 13.26C170.954 13.152 170.498 13.098 170.042 13.098C169.358 13.098 168.848 13.2 168.512 13.404C168.188 13.608 168.026 13.866 168.026 14.178C168.026 14.466 168.134 14.682 168.35 14.826C168.566 14.97 168.848 15.084 169.196 15.168C169.544 15.252 169.928 15.324 170.348 15.384C170.78 15.432 171.206 15.51 171.626 15.618C172.046 15.726 172.43 15.876 172.778 16.068C173.138 16.248 173.426 16.506 173.642 16.842C173.858 17.178 173.966 17.616 173.966 18.156C173.966 18.756 173.786 19.278 173.426 19.722C173.078 20.166 172.58 20.514 171.932 20.766C171.284 21.006 170.51 21.126 169.61 21.126Z" fill="#BC0051"/>
<path d="M350 158L1 158" stroke="#A2C33D"/>
<path d="M4.008 150V127.6H8.168V150H4.008ZM23.5388 132.72C24.9041 132.72 26.1201 132.987 27.1868 133.52C28.2748 134.053 29.1281 134.875 29.7468 135.984C30.3654 137.072 30.6748 138.48 30.6748 140.208V150H26.6748V140.72C26.6748 139.205 26.3121 138.075 25.5868 137.328C24.8828 136.581 23.8908 136.208 22.6108 136.208C21.6721 136.208 20.8401 136.4 20.1148 136.784C19.3894 137.168 18.8241 137.744 18.4188 138.512C18.0348 139.259 17.8428 140.208 17.8428 141.36V150H13.8428V126.256H17.8428V137.52L16.9788 136.112C17.5761 135.024 18.4401 134.192 19.5708 133.616C20.7228 133.019 22.0454 132.72 23.5388 132.72ZM35.749 150V132.912H39.557V137.616L39.109 136.24C39.621 135.088 40.421 134.213 41.509 133.616C42.6183 133.019 43.9943 132.72 45.637 132.72V136.528C45.4663 136.485 45.3063 136.464 45.157 136.464C45.0077 136.443 44.8583 136.432 44.709 136.432C43.1943 136.432 41.989 136.88 41.093 137.776C40.197 138.651 39.749 139.963 39.749 141.712V150H35.749ZM65.0383 150L55.2462 127.6H59.7583L68.4943 147.856H65.9023L74.7343 127.6H78.8943L69.1343 150H65.0383ZM87.2728 150.224C85.5234 150.224 83.9661 149.851 82.6008 149.104C81.2354 148.336 80.1581 147.291 79.3688 145.968C78.5794 144.645 78.1848 143.141 78.1848 141.456C78.1848 139.749 78.5794 138.245 79.3688 136.944C80.1581 135.621 81.2354 134.587 82.6008 133.84C83.9661 133.093 85.5234 132.72 87.2728 132.72C89.0434 132.72 90.6114 133.093 91.9768 133.84C93.3634 134.587 94.4408 135.611 95.2088 136.912C95.9981 138.213 96.3928 139.728 96.3928 141.456C96.3928 143.141 95.9981 144.645 95.2088 145.968C94.4408 147.291 93.3634 148.336 91.9768 149.104C90.6114 149.851 89.0434 150.224 87.2728 150.224ZM87.2728 146.8C88.2541 146.8 89.1288 146.587 89.8968 146.16C90.6648 145.733 91.2621 145.115 91.6888 144.304C92.1368 143.493 92.3608 142.544 92.3608 141.456C92.3608 140.347 92.1368 139.397 91.6888 138.608C91.2621 137.797 90.6648 137.179 89.8968 136.752C89.1288 136.325 88.2648 136.112 87.3048 136.112C86.3234 136.112 85.4488 136.325 84.6808 136.752C83.9341 137.179 83.3368 137.797 82.8888 138.608C82.4408 139.397 82.2168 140.347 82.2168 141.456C82.2168 142.544 82.4408 143.493 82.8888 144.304C83.3368 145.115 83.9341 145.733 84.6808 146.16C85.4488 146.587 86.3128 146.8 87.2728 146.8ZM100.218 150V132.912H104.026V137.616L103.578 136.24C104.09 135.088 104.89 134.213 105.978 133.616C107.087 133.019 108.463 132.72 110.106 132.72V136.528C109.935 136.485 109.775 136.464 109.626 136.464C109.476 136.443 109.327 136.432 109.178 136.432C107.663 136.432 106.458 136.88 105.562 137.776C104.666 138.651 104.218 139.963 104.218 141.712V150H100.218ZM120.556 150.224C118.679 150.224 117.228 149.744 116.204 148.784C115.18 147.803 114.668 146.363 114.668 144.464V129.136H118.668V144.368C118.668 145.179 118.871 145.808 119.276 146.256C119.703 146.704 120.289 146.928 121.036 146.928C121.932 146.928 122.679 146.693 123.276 146.224L124.396 149.072C123.927 149.456 123.351 149.744 122.668 149.936C121.985 150.128 121.281 150.224 120.556 150.224ZM111.852 136.24V133.04H123.244V136.24H111.852ZM135.156 150.224C133.257 150.224 131.593 149.851 130.164 149.104C128.756 148.336 127.657 147.291 126.868 145.968C126.1 144.645 125.716 143.141 125.716 141.456C125.716 139.749 126.089 138.245 126.836 136.944C127.604 135.621 128.649 134.587 129.972 133.84C131.316 133.093 132.841 132.72 134.548 132.72C136.212 132.72 137.695 133.083 138.996 133.808C140.297 134.533 141.321 135.557 142.068 136.88C142.815 138.203 143.188 139.76 143.188 141.552C143.188 141.723 143.177 141.915 143.156 142.128C143.156 142.341 143.145 142.544 143.124 142.736H128.884V140.08H141.012L139.444 140.912C139.465 139.931 139.263 139.067 138.836 138.32C138.409 137.573 137.823 136.987 137.076 136.56C136.351 136.133 135.508 135.92 134.548 135.92C133.567 135.92 132.703 136.133 131.956 136.56C131.231 136.987 130.655 137.584 130.228 138.352C129.823 139.099 129.62 139.984 129.62 141.008V141.648C129.62 142.672 129.855 143.579 130.324 144.368C130.793 145.157 131.455 145.765 132.308 146.192C133.161 146.619 134.143 146.832 135.252 146.832C136.212 146.832 137.076 146.683 137.844 146.384C138.612 146.085 139.295 145.616 139.892 144.976L142.036 147.44C141.268 148.336 140.297 149.029 139.124 149.52C137.972 149.989 136.649 150.224 135.156 150.224ZM147.03 150V132.912H151.03V150H147.03ZM149.046 130.096C148.3 130.096 147.681 129.861 147.19 129.392C146.721 128.923 146.486 128.357 146.486 127.696C146.486 127.013 146.721 126.448 147.19 126C147.681 125.531 148.3 125.296 149.046 125.296C149.793 125.296 150.401 125.52 150.87 125.968C151.361 126.395 151.606 126.939 151.606 127.6C151.606 128.304 151.372 128.901 150.902 129.392C150.433 129.861 149.814 130.096 149.046 130.096ZM156.28 150V126.256H160.28V150H156.28Z" fill="#A2C33D"/>
<path d="M343.436 361V351.62L343.884 352.096H341.126V351.2H344.444V361H343.436ZM355.715 361V359.376L355.673 359.11V356.394C355.673 355.769 355.495 355.288 355.141 354.952C354.795 354.616 354.277 354.448 353.587 354.448C353.111 354.448 352.658 354.527 352.229 354.686C351.799 354.845 351.435 355.055 351.137 355.316L350.689 354.574C351.062 354.257 351.51 354.014 352.033 353.846C352.555 353.669 353.106 353.58 353.685 353.58C354.637 353.58 355.369 353.818 355.883 354.294C356.405 354.761 356.667 355.475 356.667 356.436V361H355.715ZM353.181 361.07C352.63 361.07 352.149 360.981 351.739 360.804C351.337 360.617 351.029 360.365 350.815 360.048C350.6 359.721 350.493 359.348 350.493 358.928C350.493 358.545 350.581 358.2 350.759 357.892C350.945 357.575 351.244 357.323 351.655 357.136C352.075 356.94 352.635 356.842 353.335 356.842H355.869V357.584H353.363C352.653 357.584 352.159 357.71 351.879 357.962C351.608 358.214 351.473 358.527 351.473 358.9C351.473 359.32 351.636 359.656 351.963 359.908C352.289 360.16 352.747 360.286 353.335 360.286C353.895 360.286 354.375 360.16 354.777 359.908C355.187 359.647 355.486 359.273 355.673 358.788L355.897 359.474C355.71 359.959 355.383 360.347 354.917 360.636C354.459 360.925 353.881 361.07 353.181 361.07ZM363.16 361.07C362.526 361.07 361.952 360.925 361.438 360.636C360.925 360.337 360.514 359.913 360.206 359.362C359.908 358.802 359.758 358.121 359.758 357.318C359.758 356.515 359.908 355.839 360.206 355.288C360.505 354.728 360.911 354.303 361.424 354.014C361.938 353.725 362.516 353.58 363.16 353.58C363.86 353.58 364.486 353.739 365.036 354.056C365.596 354.364 366.035 354.803 366.352 355.372C366.67 355.932 366.828 356.581 366.828 357.318C366.828 358.065 366.67 358.718 366.352 359.278C366.035 359.838 365.596 360.277 365.036 360.594C364.486 360.911 363.86 361.07 363.16 361.07ZM359.366 363.716V353.65H360.318V355.862L360.22 357.332L360.36 358.816V363.716H359.366ZM363.09 360.188C363.613 360.188 364.08 360.071 364.49 359.838C364.901 359.595 365.228 359.259 365.47 358.83C365.713 358.391 365.834 357.887 365.834 357.318C365.834 356.749 365.713 356.249 365.47 355.82C365.228 355.391 364.901 355.055 364.49 354.812C364.08 354.569 363.613 354.448 363.09 354.448C362.568 354.448 362.096 354.569 361.676 354.812C361.266 355.055 360.939 355.391 360.696 355.82C360.463 356.249 360.346 356.749 360.346 357.318C360.346 357.887 360.463 358.391 360.696 358.83C360.939 359.259 361.266 359.595 361.676 359.838C362.096 360.071 362.568 360.188 363.09 360.188ZM368.855 361V353.65H369.807V355.652L369.709 355.302C369.914 354.742 370.259 354.317 370.745 354.028C371.23 353.729 371.832 353.58 372.551 353.58V354.546C372.513 354.546 372.476 354.546 372.439 354.546C372.401 354.537 372.364 354.532 372.327 354.532C371.552 354.532 370.945 354.77 370.507 355.246C370.068 355.713 369.849 356.38 369.849 357.248V361H368.855ZM374.365 361V353.65H375.359V361H374.365ZM374.869 352.026C374.663 352.026 374.491 351.956 374.351 351.816C374.211 351.676 374.141 351.508 374.141 351.312C374.141 351.116 374.211 350.953 374.351 350.822C374.491 350.682 374.663 350.612 374.869 350.612C375.074 350.612 375.247 350.677 375.387 350.808C375.527 350.939 375.597 351.102 375.597 351.298C375.597 351.503 375.527 351.676 375.387 351.816C375.256 351.956 375.083 352.026 374.869 352.026ZM378.124 361V350.612H379.118V361H378.124Z" fill="#313131"/>
<path d="M871.654 361.084C870.945 361.084 870.273 360.972 869.638 360.748C869.013 360.515 868.509 360.207 868.126 359.824L868.616 359.026C868.933 359.353 869.358 359.623 869.89 359.838C870.431 360.053 871.019 360.16 871.654 360.16C872.466 360.16 873.087 359.983 873.516 359.628C873.955 359.273 874.174 358.797 874.174 358.2C874.174 357.603 873.959 357.127 873.53 356.772C873.11 356.417 872.443 356.24 871.528 356.24H870.828V355.498L873.852 351.704L873.992 352.096H868.532V351.2H874.832V351.914L871.808 355.708L871.318 355.386H871.696C872.872 355.386 873.749 355.647 874.328 356.17C874.916 356.693 875.21 357.365 875.21 358.186C875.21 358.737 875.079 359.231 874.818 359.67C874.557 360.109 874.16 360.454 873.628 360.706C873.105 360.958 872.447 361.084 871.654 361.084ZM880.536 361.084C879.78 361.084 879.108 360.888 878.52 360.496C877.932 360.095 877.47 359.525 877.134 358.788C876.798 358.041 876.63 357.145 876.63 356.1C876.63 355.055 876.798 354.163 877.134 353.426C877.47 352.679 877.932 352.11 878.52 351.718C879.108 351.317 879.78 351.116 880.536 351.116C881.292 351.116 881.964 351.317 882.552 351.718C883.14 352.11 883.602 352.679 883.938 353.426C884.284 354.163 884.456 355.055 884.456 356.1C884.456 357.145 884.284 358.041 883.938 358.788C883.602 359.525 883.14 360.095 882.552 360.496C881.964 360.888 881.292 361.084 880.536 361.084ZM880.536 360.16C881.115 360.16 881.619 360.006 882.048 359.698C882.478 359.381 882.814 358.923 883.056 358.326C883.299 357.719 883.42 356.977 883.42 356.1C883.42 355.223 883.299 354.485 883.056 353.888C882.814 353.281 882.478 352.824 882.048 352.516C881.619 352.199 881.115 352.04 880.536 352.04C879.976 352.04 879.477 352.199 879.038 352.516C878.6 352.824 878.259 353.281 878.016 353.888C877.774 354.485 877.652 355.223 877.652 356.1C877.652 356.977 877.774 357.719 878.016 358.326C878.259 358.923 878.6 359.381 879.038 359.698C879.477 360.006 879.976 360.16 880.536 360.16ZM894.828 361V359.376L894.786 359.11V356.394C894.786 355.769 894.609 355.288 894.254 354.952C893.909 354.616 893.391 354.448 892.7 354.448C892.224 354.448 891.771 354.527 891.342 354.686C890.913 354.845 890.549 355.055 890.25 355.316L889.802 354.574C890.175 354.257 890.623 354.014 891.146 353.846C891.669 353.669 892.219 353.58 892.798 353.58C893.75 353.58 894.483 353.818 894.996 354.294C895.519 354.761 895.78 355.475 895.78 356.436V361H894.828ZM892.294 361.07C891.743 361.07 891.263 360.981 890.852 360.804C890.451 360.617 890.143 360.365 889.928 360.048C889.713 359.721 889.606 359.348 889.606 358.928C889.606 358.545 889.695 358.2 889.872 357.892C890.059 357.575 890.357 357.323 890.768 357.136C891.188 356.94 891.748 356.842 892.448 356.842H894.982V357.584H892.476C891.767 357.584 891.272 357.71 890.992 357.962C890.721 358.214 890.586 358.527 890.586 358.9C890.586 359.32 890.749 359.656 891.076 359.908C891.403 360.16 891.86 360.286 892.448 360.286C893.008 360.286 893.489 360.16 893.89 359.908C894.301 359.647 894.599 359.273 894.786 358.788L895.01 359.474C894.823 359.959 894.497 360.347 894.03 360.636C893.573 360.925 892.994 361.07 892.294 361.07ZM902.274 361.07C901.639 361.07 901.065 360.925 900.552 360.636C900.038 360.337 899.628 359.913 899.32 359.362C899.021 358.802 898.872 358.121 898.872 357.318C898.872 356.515 899.021 355.839 899.32 355.288C899.618 354.728 900.024 354.303 900.538 354.014C901.051 353.725 901.63 353.58 902.274 353.58C902.974 353.58 903.599 353.739 904.15 354.056C904.71 354.364 905.148 354.803 905.466 355.372C905.783 355.932 905.942 356.581 905.942 357.318C905.942 358.065 905.783 358.718 905.466 359.278C905.148 359.838 904.71 360.277 904.15 360.594C903.599 360.911 902.974 361.07 902.274 361.07ZM898.48 363.716V353.65H899.432V355.862L899.334 357.332L899.474 358.816V363.716H898.48ZM902.204 360.188C902.726 360.188 903.193 360.071 903.604 359.838C904.014 359.595 904.341 359.259 904.584 358.83C904.826 358.391 904.948 357.887 904.948 357.318C904.948 356.749 904.826 356.249 904.584 355.82C904.341 355.391 904.014 355.055 903.604 354.812C903.193 354.569 902.726 354.448 902.204 354.448C901.681 354.448 901.21 354.569 900.79 354.812C900.379 355.055 900.052 355.391 899.81 355.82C899.576 356.249 899.46 356.749 899.46 357.318C899.46 357.887 899.576 358.391 899.81 358.83C900.052 359.259 900.379 359.595 900.79 359.838C901.21 360.071 901.681 360.188 902.204 360.188ZM907.968 361V353.65H908.92V355.652L908.822 355.302C909.027 354.742 909.373 354.317 909.858 354.028C910.343 353.729 910.945 353.58 911.664 353.58V354.546C911.627 354.546 911.589 354.546 911.552 354.546C911.515 354.537 911.477 354.532 911.44 354.532C910.665 354.532 910.059 354.77 909.62 355.246C909.181 355.713 908.962 356.38 908.962 357.248V361H907.968ZM913.478 361V353.65H914.472V361H913.478ZM913.982 352.026C913.776 352.026 913.604 351.956 913.464 351.816C913.324 351.676 913.254 351.508 913.254 351.312C913.254 351.116 913.324 350.953 913.464 350.822C913.604 350.682 913.776 350.612 913.982 350.612C914.187 350.612 914.36 350.677 914.5 350.808C914.64 350.939 914.71 351.102 914.71 351.298C914.71 351.503 914.64 351.676 914.5 351.816C914.369 351.956 914.196 352.026 913.982 352.026ZM917.238 361V350.612H918.232V361H917.238Z" fill="#313131"/>
<path d="M592.436 361V351.62L592.884 352.096H590.126V351.2H593.444V361H592.436ZM598.881 361.084C598.181 361.084 597.513 360.972 596.879 360.748C596.244 360.515 595.74 360.207 595.367 359.824L595.857 359.026C596.165 359.353 596.585 359.623 597.117 359.838C597.658 360.053 598.241 360.16 598.867 360.16C599.697 360.16 600.327 359.978 600.757 359.614C601.195 359.241 601.415 358.755 601.415 358.158C601.415 357.738 601.312 357.379 601.107 357.08C600.911 356.772 600.575 356.534 600.099 356.366C599.623 356.198 598.969 356.114 598.139 356.114H596.053L596.557 351.2H601.919V352.096H596.963L597.481 351.606L597.047 355.722L596.529 355.218H598.363C599.352 355.218 600.145 355.339 600.743 355.582C601.34 355.825 601.769 356.165 602.031 356.604C602.301 357.033 602.437 357.537 602.437 358.116C602.437 358.667 602.306 359.171 602.045 359.628C601.783 360.076 601.391 360.431 600.869 360.692C600.346 360.953 599.683 361.084 598.881 361.084ZM612.644 361V359.376L612.602 359.11V356.394C612.602 355.769 612.425 355.288 612.07 354.952C611.725 354.616 611.207 354.448 610.516 354.448C610.04 354.448 609.588 354.527 609.158 354.686C608.729 354.845 608.365 355.055 608.066 355.316L607.618 354.574C607.992 354.257 608.44 354.014 608.962 353.846C609.485 353.669 610.036 353.58 610.614 353.58C611.566 353.58 612.299 353.818 612.812 354.294C613.335 354.761 613.596 355.475 613.596 356.436V361H612.644ZM610.11 361.07C609.56 361.07 609.079 360.981 608.668 360.804C608.267 360.617 607.959 360.365 607.744 360.048C607.53 359.721 607.422 359.348 607.422 358.928C607.422 358.545 607.511 358.2 607.688 357.892C607.875 357.575 608.174 357.323 608.584 357.136C609.004 356.94 609.564 356.842 610.264 356.842H612.798V357.584H610.292C609.583 357.584 609.088 357.71 608.808 357.962C608.538 358.214 608.402 358.527 608.402 358.9C608.402 359.32 608.566 359.656 608.892 359.908C609.219 360.16 609.676 360.286 610.264 360.286C610.824 360.286 611.305 360.16 611.706 359.908C612.117 359.647 612.416 359.273 612.602 358.788L612.826 359.474C612.64 359.959 612.313 360.347 611.846 360.636C611.389 360.925 610.81 361.07 610.11 361.07ZM620.09 361.07C619.455 361.07 618.881 360.925 618.368 360.636C617.855 360.337 617.444 359.913 617.136 359.362C616.837 358.802 616.688 358.121 616.688 357.318C616.688 356.515 616.837 355.839 617.136 355.288C617.435 354.728 617.841 354.303 618.354 354.014C618.867 353.725 619.446 353.58 620.09 353.58C620.79 353.58 621.415 353.739 621.966 354.056C622.526 354.364 622.965 354.803 623.282 355.372C623.599 355.932 623.758 356.581 623.758 357.318C623.758 358.065 623.599 358.718 623.282 359.278C622.965 359.838 622.526 360.277 621.966 360.594C621.415 360.911 620.79 361.07 620.09 361.07ZM616.296 363.716V353.65H617.248V355.862L617.15 357.332L617.29 358.816V363.716H616.296ZM620.02 360.188C620.543 360.188 621.009 360.071 621.42 359.838C621.831 359.595 622.157 359.259 622.4 358.83C622.643 358.391 622.764 357.887 622.764 357.318C622.764 356.749 622.643 356.249 622.4 355.82C622.157 355.391 621.831 355.055 621.42 354.812C621.009 354.569 620.543 354.448 620.02 354.448C619.497 354.448 619.026 354.569 618.606 354.812C618.195 355.055 617.869 355.391 617.626 355.82C617.393 356.249 617.276 356.749 617.276 357.318C617.276 357.887 617.393 358.391 617.626 358.83C617.869 359.259 618.195 359.595 618.606 359.838C619.026 360.071 619.497 360.188 620.02 360.188ZM625.784 361V353.65H626.736V355.652L626.638 355.302C626.844 354.742 627.189 354.317 627.674 354.028C628.16 353.729 628.762 353.58 629.48 353.58V354.546C629.443 354.546 629.406 354.546 629.368 354.546C629.331 354.537 629.294 354.532 629.256 354.532C628.482 354.532 627.875 354.77 627.436 355.246C626.998 355.713 626.778 356.38 626.778 357.248V361H625.784ZM631.294 361V353.65H632.288V361H631.294ZM631.798 352.026C631.593 352.026 631.42 351.956 631.28 351.816C631.14 351.676 631.07 351.508 631.07 351.312C631.07 351.116 631.14 350.953 631.28 350.822C631.42 350.682 631.593 350.612 631.798 350.612C632.004 350.612 632.176 350.677 632.316 350.808C632.456 350.939 632.526 351.102 632.526 351.298C632.526 351.503 632.456 351.676 632.316 351.816C632.186 351.956 632.013 352.026 631.798 352.026ZM635.054 361V350.612H636.048V361H635.054Z" fill="#313131"/>
</svg>
