<svg width="688" height="375" viewBox="0 0 688 375" fill="none" xmlns="http://www.w3.org/2000/svg">
<rect x="686" y="349" width="20" height="320" transform="rotate(180 686 349)" fill="#BC0051"/>
<rect x="659" y="349" width="20" height="266" transform="rotate(180 659 349)" fill="#214B33"/>
<rect x="632" y="349" width="20" height="254" transform="rotate(180 632 349)" fill="#A2C33D" fill-opacity="0.4"/>
<rect x="605" y="349" width="20" height="248" transform="rotate(180 605 349)" fill="#A2C33D" fill-opacity="0.4"/>
<rect x="578" y="349" width="20" height="240" transform="rotate(180 578 349)" fill="#A2C33D" fill-opacity="0.4"/>
<rect x="551" y="349" width="20" height="226" transform="rotate(180 551 349)" fill="#A2C33D" fill-opacity="0.4"/>
<rect x="524" y="349" width="20" height="220" transform="rotate(180 524 349)" fill="#A2C33D" fill-opacity="0.4"/>
<rect x="497" y="349" width="20" height="200" transform="rotate(180 497 349)" fill="#A2C33D" fill-opacity="0.4"/>
<rect x="470" y="349" width="20" height="196" transform="rotate(180 470 349)" fill="#A2C33D" fill-opacity="0.4"/>
<rect x="443" y="349" width="20" height="184" transform="rotate(180 443 349)" fill="#A2C33D" fill-opacity="0.4"/>
<rect x="416" y="349" width="20" height="184" transform="rotate(180 416 349)" fill="#A2C33D" fill-opacity="0.4"/>
<rect x="389" y="349" width="20" height="176" transform="rotate(180 389 349)" fill="#A2C33D" fill-opacity="0.4"/>
<rect x="362" y="349" width="20" height="172" transform="rotate(180 362 349)" fill="#A2C33D" fill-opacity="0.4"/>
<rect x="335" y="349" width="20" height="172" transform="rotate(180 335 349)" fill="#A2C33D" fill-opacity="0.4"/>
<rect x="308" y="349" width="20" height="152" transform="rotate(180 308 349)" fill="#A2C33D" fill-opacity="0.4"/>
<rect x="281" y="349" width="20" height="144" transform="rotate(180 281 349)" fill="#A2C33D" fill-opacity="0.4"/>
<rect x="254" y="349" width="20" height="140" transform="rotate(180 254 349)" fill="#A2C33D" fill-opacity="0.4"/>
<rect x="227" y="349" width="20" height="126" transform="rotate(180 227 349)" fill="#A2C33D" fill-opacity="0.4"/>
<rect x="200" y="349" width="20" height="120" transform="rotate(180 200 349)" fill="#A2C33D" fill-opacity="0.4"/>
<rect x="173" y="349" width="20" height="100" transform="rotate(180 173 349)" fill="#A2C33D"/>
<path d="M163 84V248.5" stroke="#A2C33D" stroke-width="20" stroke-dasharray="10 10"/>
<path d="M7.368 238.144C6.12 238.144 4.92 237.944 3.768 237.544C2.632 237.128 1.752 236.6 1.128 235.96L1.824 234.592C2.416 235.168 3.208 235.656 4.2 236.056C5.208 236.44 6.264 236.632 7.368 236.632C8.424 236.632 9.28 236.504 9.936 236.248C10.608 235.976 11.096 235.616 11.4 235.168C11.72 234.72 11.88 234.224 11.88 233.68C11.88 233.024 11.688 232.496 11.304 232.096C10.936 231.696 10.448 231.384 9.84 231.16C9.232 230.92 8.56 230.712 7.824 230.536C7.088 230.36 6.352 230.176 5.616 229.984C4.88 229.776 4.2 229.504 3.576 229.168C2.968 228.832 2.472 228.392 2.088 227.848C1.72 227.288 1.536 226.56 1.536 225.664C1.536 224.832 1.752 224.072 2.184 223.384C2.632 222.68 3.312 222.12 4.224 221.704C5.136 221.272 6.304 221.056 7.728 221.056C8.672 221.056 9.608 221.192 10.536 221.464C11.464 221.72 12.264 222.08 12.936 222.544L12.336 223.96C11.616 223.48 10.848 223.128 10.032 222.904C9.232 222.68 8.456 222.568 7.704 222.568C6.696 222.568 5.864 222.704 5.208 222.976C4.552 223.248 4.064 223.616 3.744 224.08C3.44 224.528 3.288 225.04 3.288 225.616C3.288 226.272 3.472 226.8 3.84 227.2C4.224 227.6 4.72 227.912 5.328 228.136C5.952 228.36 6.632 228.56 7.368 228.736C8.104 228.912 8.832 229.104 9.552 229.312C10.288 229.52 10.96 229.792 11.568 230.128C12.192 230.448 12.688 230.88 13.056 231.424C13.44 231.968 13.632 232.68 13.632 233.56C13.632 234.376 13.408 235.136 12.96 235.84C12.512 236.528 11.824 237.088 10.896 237.52C9.984 237.936 8.808 238.144 7.368 238.144ZM17.1416 238V225.4H18.8456V238H17.1416ZM18.0056 222.616C17.6536 222.616 17.3576 222.496 17.1176 222.256C16.8776 222.016 16.7576 221.728 16.7576 221.392C16.7576 221.056 16.8776 220.776 17.1176 220.552C17.3576 220.312 17.6536 220.192 18.0056 220.192C18.3576 220.192 18.6536 220.304 18.8936 220.528C19.1336 220.752 19.2536 221.032 19.2536 221.368C19.2536 221.72 19.1336 222.016 18.8936 222.256C18.6696 222.496 18.3736 222.616 18.0056 222.616ZM28.9389 238.12C27.6269 238.12 26.4749 237.848 25.4829 237.304C24.4909 236.744 23.7149 235.984 23.1549 235.024C22.5949 234.048 22.3149 232.936 22.3149 231.688C22.3149 230.44 22.5789 229.336 23.1069 228.376C23.6509 227.416 24.3869 226.664 25.3149 226.12C26.2589 225.56 27.3149 225.28 28.4829 225.28C29.6669 225.28 30.7149 225.552 31.6269 226.096C32.5549 226.624 33.2829 227.376 33.8109 228.352C34.3389 229.312 34.6029 230.424 34.6029 231.688C34.6029 231.768 34.5949 231.856 34.5789 231.952C34.5789 232.032 34.5789 232.12 34.5789 232.216H23.6109V230.944H33.6669L32.9949 231.448C32.9949 230.536 32.7949 229.728 32.3949 229.024C32.0109 228.304 31.4829 227.744 30.8109 227.344C30.1389 226.944 29.3629 226.744 28.4829 226.744C27.6189 226.744 26.8429 226.944 26.1549 227.344C25.4669 227.744 24.9309 228.304 24.5469 229.024C24.1629 229.744 23.9709 230.568 23.9709 231.496V231.76C23.9709 232.72 24.1789 233.568 24.5949 234.304C25.0269 235.024 25.6189 235.592 26.3709 236.008C27.1389 236.408 28.0109 236.608 28.9869 236.608C29.7549 236.608 30.4669 236.472 31.1229 236.2C31.7949 235.928 32.3709 235.512 32.8509 234.952L33.8109 236.056C33.2509 236.728 32.5469 237.24 31.6989 237.592C30.8669 237.944 29.9469 238.12 28.9389 238.12ZM45.6966 234.736L45.7446 232.552L53.5926 225.4H55.6806L50.1366 230.704L49.1766 231.52L45.6966 234.736ZM44.3526 238V220.192H46.0566V238H44.3526ZM54.1206 238L48.8646 231.448L49.9686 230.128L56.2086 238H54.1206ZM66.4283 238V235.216L66.3563 234.76V230.104C66.3563 229.032 66.0523 228.208 65.4443 227.632C64.8523 227.056 63.9643 226.768 62.7803 226.768C61.9643 226.768 61.1883 226.904 60.4523 227.176C59.7163 227.448 59.0923 227.808 58.5803 228.256L57.8123 226.984C58.4523 226.44 59.2203 226.024 60.1163 225.736C61.0123 225.432 61.9563 225.28 62.9483 225.28C64.5803 225.28 65.8363 225.688 66.7163 226.504C67.6123 227.304 68.0603 228.528 68.0603 230.176V238H66.4283ZM62.0843 238.12C61.1403 238.12 60.3163 237.968 59.6123 237.664C58.9243 237.344 58.3963 236.912 58.0283 236.368C57.6603 235.808 57.4763 235.168 57.4763 234.448C57.4763 233.792 57.6283 233.2 57.9323 232.672C58.2523 232.128 58.7643 231.696 59.4683 231.376C60.1883 231.04 61.1483 230.872 62.3483 230.872H66.6923V232.144H62.3963C61.1803 232.144 60.3323 232.36 59.8523 232.792C59.3883 233.224 59.1562 233.76 59.1562 234.4C59.1562 235.12 59.4363 235.696 59.9963 236.128C60.5563 236.56 61.3403 236.776 62.3483 236.776C63.3083 236.776 64.1323 236.56 64.8203 236.128C65.5243 235.68 66.0363 235.04 66.3563 234.208L66.7403 235.384C66.4203 236.216 65.8603 236.88 65.0603 237.376C64.2763 237.872 63.2843 238.12 62.0843 238.12ZM77.8965 238.12C76.8245 238.12 75.8885 237.92 75.0885 237.52C74.2885 237.12 73.6645 236.52 73.2165 235.72C72.7845 234.92 72.5685 233.92 72.5685 232.72V225.4H74.2725V232.528C74.2725 233.872 74.6005 234.888 75.2565 235.576C75.9285 236.248 76.8645 236.584 78.0645 236.584C78.9445 236.584 79.7045 236.408 80.3445 236.056C81.0005 235.688 81.4965 235.16 81.8325 234.472C82.1845 233.784 82.3605 232.96 82.3605 232V225.4H84.0645V238H82.4325V234.544L82.6965 235.168C82.2965 236.096 81.6725 236.824 80.8245 237.352C79.9925 237.864 79.0165 238.12 77.8965 238.12ZM89.1015 238V223.816C89.1015 222.696 89.4295 221.792 90.0855 221.104C90.7415 220.416 91.6855 220.072 92.9175 220.072C93.3975 220.072 93.8615 220.136 94.3095 220.264C94.7575 220.392 95.1335 220.592 95.4375 220.864L94.8615 222.136C94.6215 221.928 94.3415 221.776 94.0215 221.68C93.7015 221.568 93.3575 221.512 92.9895 221.512C92.2695 221.512 91.7175 221.712 91.3335 222.112C90.9495 222.512 90.7575 223.104 90.7575 223.888V225.808L90.8055 226.6V238H89.1015ZM86.8455 226.816V225.4H94.6455V226.816H86.8455ZM102.087 238.12C100.775 238.12 99.6234 237.848 98.6314 237.304C97.6394 236.744 96.8634 235.984 96.3034 235.024C95.7434 234.048 95.4634 232.936 95.4634 231.688C95.4634 230.44 95.7274 229.336 96.2554 228.376C96.7994 227.416 97.5354 226.664 98.4634 226.12C99.4074 225.56 100.463 225.28 101.631 225.28C102.815 225.28 103.863 225.552 104.775 226.096C105.703 226.624 106.431 227.376 106.959 228.352C107.487 229.312 107.751 230.424 107.751 231.688C107.751 231.768 107.743 231.856 107.727 231.952C107.727 232.032 107.727 232.12 107.727 232.216H96.7594V230.944H106.815L106.143 231.448C106.143 230.536 105.943 229.728 105.543 229.024C105.159 228.304 104.631 227.744 103.959 227.344C103.287 226.944 102.511 226.744 101.631 226.744C100.767 226.744 99.9914 226.944 99.3034 227.344C98.6154 227.744 98.0794 228.304 97.6954 229.024C97.3114 229.744 97.1194 230.568 97.1194 231.496V231.76C97.1194 232.72 97.3274 233.568 97.7434 234.304C98.1754 235.024 98.7674 235.592 99.5194 236.008C100.287 236.408 101.159 236.608 102.135 236.608C102.903 236.608 103.615 236.472 104.271 236.2C104.943 235.928 105.519 235.512 105.999 234.952L106.959 236.056C106.399 236.728 105.695 237.24 104.847 237.592C104.015 237.944 103.095 238.12 102.087 238.12ZM117.652 225.28C118.676 225.28 119.572 225.48 120.34 225.88C121.124 226.264 121.732 226.856 122.164 227.656C122.612 228.456 122.836 229.464 122.836 230.68V238H121.132V230.848C121.132 229.52 120.796 228.52 120.124 227.848C119.468 227.16 118.54 226.816 117.34 226.816C116.444 226.816 115.66 227 114.988 227.368C114.332 227.72 113.82 228.24 113.452 228.928C113.1 229.6 112.924 230.416 112.924 231.376V238H111.22V225.4H112.852V228.856L112.588 228.208C112.988 227.296 113.628 226.584 114.508 226.072C115.388 225.544 116.436 225.28 117.652 225.28ZM4.32 261.336H13.2V262.872H4.32V261.336ZM4.512 270H2.736V253.2H14.256V254.736H4.512V270ZM22.3496 270.12C21.2776 270.12 20.3416 269.92 19.5416 269.52C18.7416 269.12 18.1176 268.52 17.6696 267.72C17.2376 266.92 17.0216 265.92 17.0216 264.72V257.4H18.7256V264.528C18.7256 265.872 19.0536 266.888 19.7096 267.576C20.3816 268.248 21.3176 268.584 22.5176 268.584C23.3976 268.584 24.1576 268.408 24.7976 268.056C25.4536 267.688 25.9496 267.16 26.2856 266.472C26.6376 265.784 26.8136 264.96 26.8136 264V257.4H28.5176V270H26.8856V266.544L27.1496 267.168C26.7496 268.096 26.1256 268.824 25.2776 269.352C24.4456 269.864 23.4696 270.12 22.3496 270.12ZM37.2506 270.12C36.0666 270.12 35.1546 269.8 34.5146 269.16C33.8746 268.52 33.5546 267.616 33.5546 266.448V254.616H35.2586V266.352C35.2586 267.088 35.4426 267.656 35.8106 268.056C36.1946 268.456 36.7386 268.656 37.4426 268.656C38.1946 268.656 38.8186 268.44 39.3146 268.008L39.9146 269.232C39.5786 269.536 39.1706 269.76 38.6906 269.904C38.2266 270.048 37.7466 270.12 37.2506 270.12ZM31.2986 258.816V257.4H39.0986V258.816H31.2986ZM48.2246 270.12C47.1526 270.12 46.2166 269.92 45.4166 269.52C44.6166 269.12 43.9926 268.52 43.5446 267.72C43.1126 266.92 42.8966 265.92 42.8966 264.72V257.4H44.6006V264.528C44.6006 265.872 44.9286 266.888 45.5846 267.576C46.2566 268.248 47.1926 268.584 48.3926 268.584C49.2726 268.584 50.0326 268.408 50.6726 268.056C51.3286 267.688 51.8246 267.16 52.1606 266.472C52.5126 265.784 52.6886 264.96 52.6886 264V257.4H54.3926V270H52.7606V266.544L53.0246 267.168C52.6246 268.096 52.0006 268.824 51.1526 269.352C50.3206 269.864 49.3446 270.12 48.2246 270.12ZM59.1416 270V257.4H60.7736V260.832L60.6056 260.232C60.9576 259.272 61.5496 258.544 62.3816 258.048C63.2136 257.536 64.2456 257.28 65.4776 257.28V258.936C65.4136 258.936 65.3496 258.936 65.2856 258.936C65.2216 258.92 65.1576 258.912 65.0936 258.912C63.7656 258.912 62.7256 259.32 61.9736 260.136C61.2216 260.936 60.8456 262.08 60.8456 263.568V270H59.1416ZM73.8218 270.12C72.5098 270.12 71.3578 269.848 70.3658 269.304C69.3738 268.744 68.5978 267.984 68.0378 267.024C67.4778 266.048 67.1978 264.936 67.1978 263.688C67.1978 262.44 67.4618 261.336 67.9898 260.376C68.5338 259.416 69.2698 258.664 70.1978 258.12C71.1418 257.56 72.1978 257.28 73.3658 257.28C74.5498 257.28 75.5978 257.552 76.5098 258.096C77.4378 258.624 78.1658 259.376 78.6938 260.352C79.2218 261.312 79.4858 262.424 79.4858 263.688C79.4858 263.768 79.4778 263.856 79.4618 263.952C79.4618 264.032 79.4618 264.12 79.4618 264.216H68.4938V262.944H78.5498L77.8778 263.448C77.8778 262.536 77.6778 261.728 77.2778 261.024C76.8938 260.304 76.3658 259.744 75.6938 259.344C75.0218 258.944 74.2458 258.744 73.3658 258.744C72.5018 258.744 71.7258 258.944 71.0378 259.344C70.3498 259.744 69.8138 260.304 69.4298 261.024C69.0458 261.744 68.8538 262.568 68.8538 263.496V263.76C68.8538 264.72 69.0618 265.568 69.4778 266.304C69.9098 267.024 70.5018 267.592 71.2538 268.008C72.0218 268.408 72.8938 268.608 73.8698 268.608C74.6378 268.608 75.3498 268.472 76.0058 268.2C76.6778 267.928 77.2538 267.512 77.7338 266.952L78.6938 268.056C78.1338 268.728 77.4298 269.24 76.5818 269.592C75.7498 269.944 74.8298 270.12 73.8218 270.12ZM86.3381 270.12C85.2981 270.12 84.3141 269.976 83.3861 269.688C82.4581 269.384 81.7301 269.008 81.2021 268.56L81.9701 267.216C82.4821 267.6 83.1381 267.936 83.9381 268.224C84.7381 268.496 85.5781 268.632 86.4581 268.632C87.6581 268.632 88.5221 268.448 89.0501 268.08C89.5781 267.696 89.8421 267.192 89.8421 266.568C89.8421 266.104 89.6901 265.744 89.3861 265.488C89.0981 265.216 88.7141 265.016 88.2341 264.888C87.7541 264.744 87.2181 264.624 86.6261 264.528C86.0341 264.432 85.4421 264.32 84.8501 264.192C84.2741 264.064 83.7461 263.88 83.2661 263.64C82.7861 263.384 82.3941 263.04 82.0901 262.608C81.8021 262.176 81.6581 261.6 81.6581 260.88C81.6581 260.192 81.8501 259.576 82.2341 259.032C82.6181 258.488 83.1781 258.064 83.9141 257.76C84.6661 257.44 85.5781 257.28 86.6501 257.28C87.4661 257.28 88.2821 257.392 89.0981 257.616C89.9141 257.824 90.5861 258.104 91.1141 258.456L90.3701 259.824C89.8101 259.44 89.2101 259.168 88.5701 259.008C87.9301 258.832 87.2901 258.744 86.6501 258.744C85.5141 258.744 84.6741 258.944 84.1301 259.344C83.6021 259.728 83.3381 260.224 83.3381 260.832C83.3381 261.312 83.4821 261.688 83.7701 261.96C84.0741 262.232 84.4661 262.448 84.9461 262.608C85.4421 262.752 85.9781 262.872 86.5541 262.968C87.1461 263.064 87.7301 263.184 88.3061 263.328C88.8981 263.456 89.4341 263.64 89.9141 263.88C90.4101 264.104 90.8021 264.432 91.0901 264.864C91.3941 265.28 91.5461 265.832 91.5461 266.52C91.5461 267.256 91.3381 267.896 90.9221 268.44C90.5221 268.968 89.9301 269.384 89.1461 269.688C88.3781 269.976 87.4421 270.12 86.3381 270.12ZM99.5861 270V268.872L107.986 258.24L108.346 258.816H99.7301V257.4H109.69V258.504L101.314 269.16L100.882 268.584H109.858V270H99.5861ZM118.42 270.12C117.348 270.12 116.412 269.92 115.612 269.52C114.812 269.12 114.188 268.52 113.74 267.72C113.308 266.92 113.092 265.92 113.092 264.72V257.4H114.796V264.528C114.796 265.872 115.124 266.888 115.78 267.576C116.452 268.248 117.388 268.584 118.588 268.584C119.468 268.584 120.228 268.408 120.868 268.056C121.524 267.688 122.02 267.16 122.356 266.472C122.708 265.784 122.884 264.96 122.884 264V257.4H124.588V270H122.956V266.544L123.22 267.168C122.82 268.096 122.196 268.824 121.348 269.352C120.516 269.864 119.54 270.12 118.42 270.12ZM7.392 302.12C6.192 302.12 5.112 301.848 4.152 301.304C3.208 300.76 2.464 300.008 1.92 299.048C1.376 298.072 1.104 296.952 1.104 295.688C1.104 294.408 1.376 293.288 1.92 292.328C2.464 291.368 3.208 290.624 4.152 290.096C5.112 289.552 6.192 289.28 7.392 289.28C8.496 289.28 9.48 289.528 10.344 290.024C11.224 290.52 11.92 291.248 12.432 292.208C12.96 293.152 13.224 294.312 13.224 295.688C13.224 297.048 12.968 298.208 12.456 299.168C11.944 300.128 11.248 300.864 10.368 301.376C9.504 301.872 8.512 302.12 7.392 302.12ZM7.512 300.608C8.408 300.608 9.208 300.408 9.912 300.008C10.632 299.592 11.192 299.016 11.592 298.28C12.008 297.528 12.216 296.664 12.216 295.688C12.216 294.696 12.008 293.832 11.592 293.096C11.192 292.36 10.632 291.792 9.912 291.392C9.208 290.976 8.408 290.768 7.512 290.768C6.632 290.768 5.84 290.976 5.136 291.392C4.432 291.792 3.872 292.36 3.456 293.096C3.04 293.832 2.832 294.696 2.832 295.688C2.832 296.664 3.04 297.528 3.456 298.28C3.872 299.016 4.432 299.592 5.136 300.008C5.84 300.408 6.632 300.608 7.512 300.608ZM12.264 302V298.208L12.432 295.664L12.192 293.12V284.192H13.896V302H12.264ZM18.6416 302V289.4H20.3456V302H18.6416ZM19.5056 286.616C19.1536 286.616 18.8576 286.496 18.6176 286.256C18.3776 286.016 18.2576 285.728 18.2576 285.392C18.2576 285.056 18.3776 284.776 18.6176 284.552C18.8576 284.312 19.1536 284.192 19.5056 284.192C19.8576 284.192 20.1536 284.304 20.3936 284.528C20.6336 284.752 20.7536 285.032 20.7536 285.368C20.7536 285.72 20.6336 286.016 20.3936 286.256C20.1696 286.496 19.8736 286.616 19.5056 286.616ZM30.4389 302.12C29.1269 302.12 27.9749 301.848 26.9829 301.304C25.9909 300.744 25.2149 299.984 24.6549 299.024C24.0949 298.048 23.8149 296.936 23.8149 295.688C23.8149 294.44 24.0789 293.336 24.6069 292.376C25.1509 291.416 25.8869 290.664 26.8149 290.12C27.7589 289.56 28.8149 289.28 29.9829 289.28C31.1669 289.28 32.2149 289.552 33.1269 290.096C34.0549 290.624 34.7829 291.376 35.3109 292.352C35.8389 293.312 36.1029 294.424 36.1029 295.688C36.1029 295.768 36.0949 295.856 36.0789 295.952C36.0789 296.032 36.0789 296.12 36.0789 296.216H25.1109V294.944H35.1669L34.4949 295.448C34.4949 294.536 34.2949 293.728 33.8949 293.024C33.5109 292.304 32.9829 291.744 32.3109 291.344C31.6389 290.944 30.8629 290.744 29.9829 290.744C29.1189 290.744 28.3429 290.944 27.6549 291.344C26.9669 291.744 26.4309 292.304 26.0469 293.024C25.6629 293.744 25.4709 294.568 25.4709 295.496V295.76C25.4709 296.72 25.6789 297.568 26.0949 298.304C26.5269 299.024 27.1189 299.592 27.8709 300.008C28.6389 300.408 29.5109 300.608 30.4869 300.608C31.2549 300.608 31.9669 300.472 32.6229 300.2C33.2949 299.928 33.8709 299.512 34.3509 298.952L35.3109 300.056C34.7509 300.728 34.0469 301.24 33.1989 301.592C32.3669 301.944 31.4469 302.12 30.4389 302.12ZM42.9553 302.12C41.9153 302.12 40.9313 301.976 40.0033 301.688C39.0753 301.384 38.3473 301.008 37.8193 300.56L38.5873 299.216C39.0993 299.6 39.7553 299.936 40.5553 300.224C41.3553 300.496 42.1953 300.632 43.0753 300.632C44.2753 300.632 45.1393 300.448 45.6673 300.08C46.1953 299.696 46.4593 299.192 46.4593 298.568C46.4593 298.104 46.3073 297.744 46.0033 297.488C45.7153 297.216 45.3313 297.016 44.8513 296.888C44.3713 296.744 43.8353 296.624 43.2433 296.528C42.6513 296.432 42.0593 296.32 41.4673 296.192C40.8913 296.064 40.3633 295.88 39.8833 295.64C39.4033 295.384 39.0113 295.04 38.7073 294.608C38.4193 294.176 38.2753 293.6 38.2753 292.88C38.2753 292.192 38.4673 291.576 38.8513 291.032C39.2353 290.488 39.7953 290.064 40.5313 289.76C41.2833 289.44 42.1953 289.28 43.2673 289.28C44.0833 289.28 44.8993 289.392 45.7153 289.616C46.5313 289.824 47.2033 290.104 47.7313 290.456L46.9873 291.824C46.4273 291.44 45.8273 291.168 45.1873 291.008C44.5473 290.832 43.9073 290.744 43.2673 290.744C42.1313 290.744 41.2913 290.944 40.7473 291.344C40.2193 291.728 39.9553 292.224 39.9553 292.832C39.9553 293.312 40.0993 293.688 40.3873 293.96C40.6913 294.232 41.0833 294.448 41.5633 294.608C42.0593 294.752 42.5953 294.872 43.1713 294.968C43.7633 295.064 44.3473 295.184 44.9233 295.328C45.5153 295.456 46.0513 295.64 46.5313 295.88C47.0273 296.104 47.4193 296.432 47.7073 296.864C48.0113 297.28 48.1633 297.832 48.1633 298.52C48.1633 299.256 47.9553 299.896 47.5393 300.44C47.1393 300.968 46.5473 301.384 45.7633 301.688C44.9953 301.976 44.0593 302.12 42.9553 302.12ZM56.6421 302.12C55.3301 302.12 54.1781 301.848 53.1861 301.304C52.1941 300.744 51.4181 299.984 50.8581 299.024C50.2981 298.048 50.0181 296.936 50.0181 295.688C50.0181 294.44 50.2821 293.336 50.8101 292.376C51.3541 291.416 52.0901 290.664 53.0181 290.12C53.9621 289.56 55.0181 289.28 56.1861 289.28C57.3701 289.28 58.4181 289.552 59.3301 290.096C60.2581 290.624 60.9861 291.376 61.5141 292.352C62.0421 293.312 62.3061 294.424 62.3061 295.688C62.3061 295.768 62.2981 295.856 62.2821 295.952C62.2821 296.032 62.2821 296.12 62.2821 296.216H51.3141V294.944H61.3701L60.6981 295.448C60.6981 294.536 60.4981 293.728 60.0981 293.024C59.7141 292.304 59.1861 291.744 58.5141 291.344C57.8421 290.944 57.0661 290.744 56.1861 290.744C55.3221 290.744 54.5461 290.944 53.8581 291.344C53.1701 291.744 52.6341 292.304 52.2501 293.024C51.8661 293.744 51.6741 294.568 51.6741 295.496V295.76C51.6741 296.72 51.8821 297.568 52.2981 298.304C52.7301 299.024 53.3221 299.592 54.0741 300.008C54.8421 300.408 55.7141 300.608 56.6901 300.608C57.4581 300.608 58.1701 300.472 58.8261 300.2C59.4981 299.928 60.0741 299.512 60.5541 298.952L61.5141 300.056C60.9541 300.728 60.2501 301.24 59.4021 301.592C58.5701 301.944 57.6501 302.12 56.6421 302.12ZM81.5184 289.28C82.5424 289.28 83.4304 289.48 84.1824 289.88C84.9504 290.264 85.5424 290.856 85.9584 291.656C86.3904 292.456 86.6064 293.464 86.6064 294.68V302H84.9024V294.848C84.9024 293.52 84.5824 292.52 83.9424 291.848C83.3184 291.16 82.4304 290.816 81.2784 290.816C80.4144 290.816 79.6624 291 79.0224 291.368C78.3984 291.72 77.9104 292.24 77.5584 292.928C77.2224 293.6 77.0544 294.416 77.0544 295.376V302H75.3504V294.848C75.3504 293.52 75.0304 292.52 74.3904 291.848C73.7504 291.16 72.8544 290.816 71.7024 290.816C70.8544 290.816 70.1104 291 69.4704 291.368C68.8304 291.72 68.3344 292.24 67.9824 292.928C67.6464 293.6 67.4784 294.416 67.4784 295.376V302H65.7744V289.4H67.4064V292.808L67.1424 292.208C67.5264 291.296 68.1424 290.584 68.9904 290.072C69.8544 289.544 70.8704 289.28 72.0384 289.28C73.2704 289.28 74.3184 289.592 75.1824 290.216C76.0464 290.824 76.6064 291.744 76.8624 292.976L76.1904 292.712C76.5584 291.688 77.2064 290.864 78.1344 290.24C79.0784 289.6 80.2064 289.28 81.5184 289.28ZM2.736 334V317.2H9.024C10.448 317.2 11.672 317.432 12.696 317.896C13.72 318.344 14.504 319 15.048 319.864C15.608 320.712 15.888 321.744 15.888 322.96C15.888 324.144 15.608 325.168 15.048 326.032C14.504 326.88 13.72 327.536 12.696 328C11.672 328.464 10.448 328.696 9.024 328.696H3.72L4.512 327.856V334H2.736ZM4.512 328L3.72 327.136H8.976C10.656 327.136 11.928 326.776 12.792 326.056C13.672 325.32 14.112 324.288 14.112 322.96C14.112 321.616 13.672 320.576 12.792 319.84C11.928 319.104 10.656 318.736 8.976 318.736H3.72L4.512 317.896V328ZM19.0635 334V321.4H20.6955V324.832L20.5275 324.232C20.8795 323.272 21.4715 322.544 22.3035 322.048C23.1355 321.536 24.1675 321.28 25.3995 321.28V322.936C25.3355 322.936 25.2715 322.936 25.2075 322.936C25.1435 322.92 25.0795 322.912 25.0155 322.912C23.6875 322.912 22.6475 323.32 21.8955 324.136C21.1435 324.936 20.7675 326.08 20.7675 327.568V334H19.0635ZM33.7436 334.12C32.4316 334.12 31.2796 333.848 30.2876 333.304C29.2956 332.744 28.5196 331.984 27.9596 331.024C27.3996 330.048 27.1196 328.936 27.1196 327.688C27.1196 326.44 27.3836 325.336 27.9116 324.376C28.4556 323.416 29.1916 322.664 30.1196 322.12C31.0636 321.56 32.1196 321.28 33.2876 321.28C34.4716 321.28 35.5196 321.552 36.4316 322.096C37.3596 322.624 38.0876 323.376 38.6156 324.352C39.1436 325.312 39.4076 326.424 39.4076 327.688C39.4076 327.768 39.3996 327.856 39.3836 327.952C39.3836 328.032 39.3836 328.12 39.3836 328.216H28.4156V326.944H38.4716L37.7996 327.448C37.7996 326.536 37.5996 325.728 37.1996 325.024C36.8156 324.304 36.2876 323.744 35.6156 323.344C34.9436 322.944 34.1676 322.744 33.2876 322.744C32.4236 322.744 31.6476 322.944 30.9596 323.344C30.2716 323.744 29.7356 324.304 29.3516 325.024C28.9676 325.744 28.7756 326.568 28.7756 327.496V327.76C28.7756 328.72 28.9836 329.568 29.3996 330.304C29.8316 331.024 30.4236 331.592 31.1756 332.008C31.9436 332.408 32.8156 332.608 33.7916 332.608C34.5596 332.608 35.2716 332.472 35.9276 332.2C36.5996 331.928 37.1756 331.512 37.6556 330.952L38.6156 332.056C38.0556 332.728 37.3516 333.24 36.5036 333.592C35.6716 333.944 34.7516 334.12 33.7436 334.12ZM42.876 334V321.4H44.58V334H42.876ZM43.74 318.616C43.388 318.616 43.092 318.496 42.852 318.256C42.612 318.016 42.492 317.728 42.492 317.392C42.492 317.056 42.612 316.776 42.852 316.552C43.092 316.312 43.388 316.192 43.74 316.192C44.092 316.192 44.388 316.304 44.628 316.528C44.868 316.752 44.988 317.032 44.988 317.368C44.988 317.72 44.868 318.016 44.628 318.256C44.404 318.496 44.108 318.616 43.74 318.616ZM52.7053 334.12C51.6653 334.12 50.6813 333.976 49.7533 333.688C48.8253 333.384 48.0973 333.008 47.5693 332.56L48.3373 331.216C48.8493 331.6 49.5053 331.936 50.3053 332.224C51.1053 332.496 51.9453 332.632 52.8253 332.632C54.0253 332.632 54.8893 332.448 55.4173 332.08C55.9453 331.696 56.2093 331.192 56.2093 330.568C56.2093 330.104 56.0573 329.744 55.7533 329.488C55.4653 329.216 55.0813 329.016 54.6013 328.888C54.1213 328.744 53.5853 328.624 52.9933 328.528C52.4013 328.432 51.8093 328.32 51.2173 328.192C50.6413 328.064 50.1133 327.88 49.6333 327.64C49.1533 327.384 48.7613 327.04 48.4573 326.608C48.1693 326.176 48.0253 325.6 48.0253 324.88C48.0253 324.192 48.2173 323.576 48.6013 323.032C48.9853 322.488 49.5453 322.064 50.2813 321.76C51.0333 321.44 51.9453 321.28 53.0173 321.28C53.8333 321.28 54.6493 321.392 55.4653 321.616C56.2813 321.824 56.9533 322.104 57.4813 322.456L56.7373 323.824C56.1773 323.44 55.5773 323.168 54.9373 323.008C54.2973 322.832 53.6573 322.744 53.0173 322.744C51.8813 322.744 51.0413 322.944 50.4973 323.344C49.9693 323.728 49.7053 324.224 49.7053 324.832C49.7053 325.312 49.8493 325.688 50.1373 325.96C50.4413 326.232 50.8333 326.448 51.3133 326.608C51.8093 326.752 52.3453 326.872 52.9213 326.968C53.5133 327.064 54.0973 327.184 54.6733 327.328C55.2653 327.456 55.8013 327.64 56.2813 327.88C56.7773 328.104 57.1693 328.432 57.4573 328.864C57.7613 329.28 57.9133 329.832 57.9133 330.52C57.9133 331.256 57.7053 331.896 57.2893 332.44C56.8893 332.968 56.2973 333.384 55.5133 333.688C54.7453 333.976 53.8093 334.12 52.7053 334.12Z" fill="#A2C33D"/>
<path d="M116 249H156" stroke="#A2C33D"/>
<path d="M330 83H660" stroke="#214B33"/>
<path d="M7.368 82.144C6.12 82.144 4.92 81.944 3.768 81.544C2.632 81.128 1.752 80.6 1.128 79.96L1.824 78.592C2.416 79.168 3.208 79.656 4.2 80.056C5.208 80.44 6.264 80.632 7.368 80.632C8.424 80.632 9.28 80.504 9.936 80.248C10.608 79.976 11.096 79.616 11.4 79.168C11.72 78.72 11.88 78.224 11.88 77.68C11.88 77.024 11.688 76.496 11.304 76.096C10.936 75.696 10.448 75.384 9.84 75.16C9.232 74.92 8.56 74.712 7.824 74.536C7.088 74.36 6.352 74.176 5.616 73.984C4.88 73.776 4.2 73.504 3.576 73.168C2.968 72.832 2.472 72.392 2.088 71.848C1.72 71.288 1.536 70.56 1.536 69.664C1.536 68.832 1.752 68.072 2.184 67.384C2.632 66.68 3.312 66.12 4.224 65.704C5.136 65.272 6.304 65.056 7.728 65.056C8.672 65.056 9.608 65.192 10.536 65.464C11.464 65.72 12.264 66.08 12.936 66.544L12.336 67.96C11.616 67.48 10.848 67.128 10.032 66.904C9.232 66.68 8.456 66.568 7.704 66.568C6.696 66.568 5.864 66.704 5.208 66.976C4.552 67.248 4.064 67.616 3.744 68.08C3.44 68.528 3.288 69.04 3.288 69.616C3.288 70.272 3.472 70.8 3.84 71.2C4.224 71.6 4.72 71.912 5.328 72.136C5.952 72.36 6.632 72.56 7.368 72.736C8.104 72.912 8.832 73.104 9.552 73.312C10.288 73.52 10.96 73.792 11.568 74.128C12.192 74.448 12.688 74.88 13.056 75.424C13.44 75.968 13.632 76.68 13.632 77.56C13.632 78.376 13.408 79.136 12.96 79.84C12.512 80.528 11.824 81.088 10.896 81.52C9.984 81.936 8.808 82.144 7.368 82.144ZM17.1416 82V69.4H18.8456V82H17.1416ZM18.0056 66.616C17.6536 66.616 17.3576 66.496 17.1176 66.256C16.8776 66.016 16.7576 65.728 16.7576 65.392C16.7576 65.056 16.8776 64.776 17.1176 64.552C17.3576 64.312 17.6536 64.192 18.0056 64.192C18.3576 64.192 18.6536 64.304 18.8936 64.528C19.1336 64.752 19.2536 65.032 19.2536 65.368C19.2536 65.72 19.1336 66.016 18.8936 66.256C18.6696 66.496 18.3736 66.616 18.0056 66.616ZM28.9389 82.12C27.6269 82.12 26.4749 81.848 25.4829 81.304C24.4909 80.744 23.7149 79.984 23.1549 79.024C22.5949 78.048 22.3149 76.936 22.3149 75.688C22.3149 74.44 22.5789 73.336 23.1069 72.376C23.6509 71.416 24.3869 70.664 25.3149 70.12C26.2589 69.56 27.3149 69.28 28.4829 69.28C29.6669 69.28 30.7149 69.552 31.6269 70.096C32.5549 70.624 33.2829 71.376 33.8109 72.352C34.3389 73.312 34.6029 74.424 34.6029 75.688C34.6029 75.768 34.5949 75.856 34.5789 75.952C34.5789 76.032 34.5789 76.12 34.5789 76.216H23.6109V74.944H33.6669L32.9949 75.448C32.9949 74.536 32.7949 73.728 32.3949 73.024C32.0109 72.304 31.4829 71.744 30.8109 71.344C30.1389 70.944 29.3629 70.744 28.4829 70.744C27.6189 70.744 26.8429 70.944 26.1549 71.344C25.4669 71.744 24.9309 72.304 24.5469 73.024C24.1629 73.744 23.9709 74.568 23.9709 75.496V75.76C23.9709 76.72 24.1789 77.568 24.5949 78.304C25.0269 79.024 25.6189 79.592 26.3709 80.008C27.1389 80.408 28.0109 80.608 28.9869 80.608C29.7549 80.608 30.4669 80.472 31.1229 80.2C31.7949 79.928 32.3709 79.512 32.8509 78.952L33.8109 80.056C33.2509 80.728 32.5469 81.24 31.6989 81.592C30.8669 81.944 29.9469 82.12 28.9389 82.12ZM47.5926 82L42.0006 69.4H43.7766L48.9126 81.088H48.0726L53.2806 69.4H54.9606L49.3446 82H47.5926ZM62.3608 82.12C61.0488 82.12 59.8968 81.848 58.9048 81.304C57.9128 80.744 57.1368 79.984 56.5768 79.024C56.0168 78.048 55.7368 76.936 55.7368 75.688C55.7368 74.44 56.0008 73.336 56.5288 72.376C57.0728 71.416 57.8088 70.664 58.7368 70.12C59.6808 69.56 60.7368 69.28 61.9048 69.28C63.0888 69.28 64.1368 69.552 65.0488 70.096C65.9768 70.624 66.7048 71.376 67.2328 72.352C67.7608 73.312 68.0248 74.424 68.0248 75.688C68.0248 75.768 68.0168 75.856 68.0008 75.952C68.0008 76.032 68.0008 76.12 68.0008 76.216H57.0328V74.944H67.0888L66.4168 75.448C66.4168 74.536 66.2168 73.728 65.8168 73.024C65.4328 72.304 64.9048 71.744 64.2328 71.344C63.5608 70.944 62.7848 70.744 61.9048 70.744C61.0408 70.744 60.2648 70.944 59.5768 71.344C58.8888 71.744 58.3528 72.304 57.9688 73.024C57.5848 73.744 57.3928 74.568 57.3928 75.496V75.76C57.3928 76.72 57.6008 77.568 58.0168 78.304C58.4488 79.024 59.0408 79.592 59.7928 80.008C60.5608 80.408 61.4328 80.608 62.4088 80.608C63.1768 80.608 63.8888 80.472 64.5448 80.2C65.2168 79.928 65.7928 79.512 66.2728 78.952L67.2328 80.056C66.6728 80.728 65.9688 81.24 65.1208 81.592C64.2888 81.944 63.3688 82.12 62.3608 82.12ZM71.4932 82V69.4H73.1252V72.832L72.9572 72.232C73.3092 71.272 73.9012 70.544 74.7332 70.048C75.5652 69.536 76.5972 69.28 77.8292 69.28V70.936C77.7652 70.936 77.7012 70.936 77.6372 70.936C77.5732 70.92 77.5092 70.912 77.4452 70.912C76.1172 70.912 75.0772 71.32 74.3252 72.136C73.5732 72.936 73.1972 74.08 73.1972 75.568V82H71.4932ZM82.2825 78.736L82.3305 76.552L90.1785 69.4H92.2665L86.7225 74.704L85.7625 75.52L82.2825 78.736ZM80.9385 82V64.192H82.6425V82H80.9385ZM90.7065 82L85.4505 75.448L86.5545 74.128L92.7945 82H90.7065ZM103.014 82V79.216L102.942 78.76V74.104C102.942 73.032 102.638 72.208 102.03 71.632C101.438 71.056 100.55 70.768 99.3662 70.768C98.5502 70.768 97.7742 70.904 97.0382 71.176C96.3022 71.448 95.6782 71.808 95.1662 72.256L94.3982 70.984C95.0382 70.44 95.8062 70.024 96.7022 69.736C97.5982 69.432 98.5422 69.28 99.5342 69.28C101.166 69.28 102.422 69.688 103.302 70.504C104.198 71.304 104.646 72.528 104.646 74.176V82H103.014ZM98.6702 82.12C97.7262 82.12 96.9022 81.968 96.1982 81.664C95.5102 81.344 94.9822 80.912 94.6142 80.368C94.2462 79.808 94.0622 79.168 94.0622 78.448C94.0622 77.792 94.2142 77.2 94.5182 76.672C94.8382 76.128 95.3502 75.696 96.0542 75.376C96.7742 75.04 97.7342 74.872 98.9342 74.872H103.278V76.144H98.9822C97.7662 76.144 96.9182 76.36 96.4382 76.792C95.9742 77.224 95.7422 77.76 95.7422 78.4C95.7422 79.12 96.0222 79.696 96.5822 80.128C97.1422 80.56 97.9262 80.776 98.9342 80.776C99.8942 80.776 100.718 80.56 101.406 80.128C102.11 79.68 102.622 79.04 102.942 78.208L103.326 79.384C103.006 80.216 102.446 80.88 101.646 81.376C100.862 81.872 99.8702 82.12 98.6702 82.12ZM114.482 82.12C113.41 82.12 112.474 81.92 111.674 81.52C110.874 81.12 110.25 80.52 109.802 79.72C109.37 78.92 109.154 77.92 109.154 76.72V69.4H110.858V76.528C110.858 77.872 111.186 78.888 111.842 79.576C112.514 80.248 113.45 80.584 114.65 80.584C115.53 80.584 116.29 80.408 116.93 80.056C117.586 79.688 118.082 79.16 118.418 78.472C118.77 77.784 118.946 76.96 118.946 76V69.4H120.65V82H119.018V78.544L119.282 79.168C118.882 80.096 118.258 80.824 117.41 81.352C116.578 81.864 115.602 82.12 114.482 82.12ZM125.687 82V67.816C125.687 66.696 126.015 65.792 126.671 65.104C127.327 64.416 128.271 64.072 129.503 64.072C129.983 64.072 130.447 64.136 130.895 64.264C131.343 64.392 131.719 64.592 132.023 64.864L131.447 66.136C131.207 65.928 130.927 65.776 130.607 65.68C130.287 65.568 129.943 65.512 129.575 65.512C128.855 65.512 128.303 65.712 127.919 66.112C127.535 66.512 127.343 67.104 127.343 67.888V69.808L127.391 70.6V82H125.687ZM123.431 70.816V69.4H131.231V70.816H123.431ZM138.673 82.12C137.361 82.12 136.209 81.848 135.217 81.304C134.225 80.744 133.449 79.984 132.889 79.024C132.329 78.048 132.049 76.936 132.049 75.688C132.049 74.44 132.313 73.336 132.841 72.376C133.385 71.416 134.121 70.664 135.049 70.12C135.993 69.56 137.049 69.28 138.217 69.28C139.401 69.28 140.449 69.552 141.361 70.096C142.289 70.624 143.017 71.376 143.545 72.352C144.073 73.312 144.337 74.424 144.337 75.688C144.337 75.768 144.329 75.856 144.313 75.952C144.313 76.032 144.313 76.12 144.313 76.216H133.345V74.944H143.401L142.729 75.448C142.729 74.536 142.529 73.728 142.129 73.024C141.745 72.304 141.217 71.744 140.545 71.344C139.873 70.944 139.097 70.744 138.217 70.744C137.353 70.744 136.577 70.944 135.889 71.344C135.201 71.744 134.665 72.304 134.281 73.024C133.897 73.744 133.705 74.568 133.705 75.496V75.76C133.705 76.72 133.913 77.568 134.329 78.304C134.761 79.024 135.353 79.592 136.105 80.008C136.873 80.408 137.745 80.608 138.721 80.608C139.489 80.608 140.201 80.472 140.857 80.2C141.529 79.928 142.105 79.512 142.585 78.952L143.545 80.056C142.985 80.728 142.281 81.24 141.433 81.592C140.601 81.944 139.681 82.12 138.673 82.12ZM154.238 69.28C155.262 69.28 156.158 69.48 156.926 69.88C157.71 70.264 158.318 70.856 158.75 71.656C159.198 72.456 159.422 73.464 159.422 74.68V82H157.718V74.848C157.718 73.52 157.382 72.52 156.71 71.848C156.054 71.16 155.126 70.816 153.926 70.816C153.03 70.816 152.246 71 151.574 71.368C150.918 71.72 150.406 72.24 150.038 72.928C149.686 73.6 149.51 74.416 149.51 75.376V82H147.806V69.4H149.438V72.856L149.174 72.208C149.574 71.296 150.214 70.584 151.094 70.072C151.974 69.544 153.022 69.28 154.238 69.28ZM172.25 73.336H181.13V74.872H172.25V73.336ZM172.442 82H170.666V65.2H182.186V66.736H172.442V82ZM190.279 82.12C189.207 82.12 188.271 81.92 187.471 81.52C186.671 81.12 186.047 80.52 185.599 79.72C185.167 78.92 184.951 77.92 184.951 76.72V69.4H186.655V76.528C186.655 77.872 186.983 78.888 187.639 79.576C188.311 80.248 189.247 80.584 190.447 80.584C191.327 80.584 192.087 80.408 192.727 80.056C193.383 79.688 193.879 79.16 194.215 78.472C194.567 77.784 194.743 76.96 194.743 76V69.4H196.447V82H194.815V78.544L195.079 79.168C194.679 80.096 194.055 80.824 193.207 81.352C192.375 81.864 191.399 82.12 190.279 82.12ZM205.18 82.12C203.996 82.12 203.084 81.8 202.444 81.16C201.804 80.52 201.484 79.616 201.484 78.448V66.616H203.188V78.352C203.188 79.088 203.372 79.656 203.74 80.056C204.124 80.456 204.668 80.656 205.372 80.656C206.124 80.656 206.748 80.44 207.244 80.008L207.844 81.232C207.508 81.536 207.1 81.76 206.62 81.904C206.156 82.048 205.676 82.12 205.18 82.12ZM199.228 70.816V69.4H207.028V70.816H199.228ZM216.154 82.12C215.082 82.12 214.146 81.92 213.346 81.52C212.546 81.12 211.922 80.52 211.474 79.72C211.042 78.92 210.826 77.92 210.826 76.72V69.4H212.53V76.528C212.53 77.872 212.858 78.888 213.514 79.576C214.186 80.248 215.122 80.584 216.322 80.584C217.202 80.584 217.962 80.408 218.602 80.056C219.258 79.688 219.754 79.16 220.09 78.472C220.442 77.784 220.618 76.96 220.618 76V69.4H222.322V82H220.69V78.544L220.954 79.168C220.554 80.096 219.93 80.824 219.082 81.352C218.25 81.864 217.274 82.12 216.154 82.12ZM227.071 82V69.4H228.703V72.832L228.535 72.232C228.887 71.272 229.479 70.544 230.311 70.048C231.143 69.536 232.175 69.28 233.407 69.28V70.936C233.343 70.936 233.279 70.936 233.215 70.936C233.151 70.92 233.087 70.912 233.023 70.912C231.695 70.912 230.655 71.32 229.903 72.136C229.151 72.936 228.775 74.08 228.775 75.568V82H227.071ZM241.751 82.12C240.439 82.12 239.287 81.848 238.295 81.304C237.303 80.744 236.527 79.984 235.967 79.024C235.407 78.048 235.127 76.936 235.127 75.688C235.127 74.44 235.391 73.336 235.919 72.376C236.463 71.416 237.199 70.664 238.127 70.12C239.071 69.56 240.127 69.28 241.295 69.28C242.479 69.28 243.527 69.552 244.439 70.096C245.367 70.624 246.095 71.376 246.623 72.352C247.151 73.312 247.415 74.424 247.415 75.688C247.415 75.768 247.407 75.856 247.391 75.952C247.391 76.032 247.391 76.12 247.391 76.216H236.423V74.944H246.479L245.807 75.448C245.807 74.536 245.607 73.728 245.207 73.024C244.823 72.304 244.295 71.744 243.623 71.344C242.951 70.944 242.175 70.744 241.295 70.744C240.431 70.744 239.655 70.944 238.967 71.344C238.279 71.744 237.743 72.304 237.359 73.024C236.975 73.744 236.783 74.568 236.783 75.496V75.76C236.783 76.72 236.991 77.568 237.407 78.304C237.839 79.024 238.431 79.592 239.183 80.008C239.951 80.408 240.823 80.608 241.799 80.608C242.567 80.608 243.279 80.472 243.935 80.2C244.607 79.928 245.183 79.512 245.663 78.952L246.623 80.056C246.063 80.728 245.359 81.24 244.511 81.592C243.679 81.944 242.759 82.12 241.751 82.12ZM254.268 82.12C253.228 82.12 252.244 81.976 251.316 81.688C250.388 81.384 249.66 81.008 249.132 80.56L249.9 79.216C250.412 79.6 251.068 79.936 251.868 80.224C252.668 80.496 253.508 80.632 254.388 80.632C255.588 80.632 256.452 80.448 256.98 80.08C257.508 79.696 257.772 79.192 257.772 78.568C257.772 78.104 257.62 77.744 257.316 77.488C257.028 77.216 256.644 77.016 256.164 76.888C255.684 76.744 255.148 76.624 254.556 76.528C253.964 76.432 253.372 76.32 252.78 76.192C252.204 76.064 251.676 75.88 251.196 75.64C250.716 75.384 250.324 75.04 250.02 74.608C249.732 74.176 249.588 73.6 249.588 72.88C249.588 72.192 249.78 71.576 250.164 71.032C250.548 70.488 251.108 70.064 251.844 69.76C252.596 69.44 253.508 69.28 254.58 69.28C255.396 69.28 256.212 69.392 257.028 69.616C257.844 69.824 258.516 70.104 259.044 70.456L258.3 71.824C257.74 71.44 257.14 71.168 256.5 71.008C255.86 70.832 255.22 70.744 254.58 70.744C253.444 70.744 252.604 70.944 252.06 71.344C251.532 71.728 251.268 72.224 251.268 72.832C251.268 73.312 251.412 73.688 251.7 73.96C252.004 74.232 252.396 74.448 252.876 74.608C253.372 74.752 253.908 74.872 254.484 74.968C255.076 75.064 255.66 75.184 256.236 75.328C256.828 75.456 257.364 75.64 257.844 75.88C258.34 76.104 258.732 76.432 259.02 76.864C259.324 77.28 259.476 77.832 259.476 78.52C259.476 79.256 259.268 79.896 258.852 80.44C258.452 80.968 257.86 81.384 257.076 81.688C256.308 81.976 255.372 82.12 254.268 82.12ZM267.516 82V80.872L275.916 70.24L276.276 70.816H267.66V69.4H277.62V70.504L269.244 81.16L268.812 80.584H277.788V82H267.516ZM286.35 82.12C285.278 82.12 284.342 81.92 283.542 81.52C282.742 81.12 282.118 80.52 281.67 79.72C281.238 78.92 281.022 77.92 281.022 76.72V69.4H282.726V76.528C282.726 77.872 283.054 78.888 283.71 79.576C284.382 80.248 285.318 80.584 286.518 80.584C287.398 80.584 288.158 80.408 288.798 80.056C289.454 79.688 289.95 79.16 290.286 78.472C290.638 77.784 290.814 76.96 290.814 76V69.4H292.518V82H290.886V78.544L291.15 79.168C290.75 80.096 290.126 80.824 289.278 81.352C288.446 81.864 287.47 82.12 286.35 82.12ZM308.564 82.12C307.364 82.12 306.284 81.848 305.324 81.304C304.38 80.76 303.636 80.008 303.092 79.048C302.548 78.072 302.276 76.952 302.276 75.688C302.276 74.408 302.548 73.288 303.092 72.328C303.636 71.368 304.38 70.624 305.324 70.096C306.284 69.552 307.364 69.28 308.564 69.28C309.668 69.28 310.652 69.528 311.516 70.024C312.396 70.52 313.092 71.248 313.604 72.208C314.132 73.152 314.396 74.312 314.396 75.688C314.396 77.048 314.14 78.208 313.628 79.168C313.116 80.128 312.42 80.864 311.54 81.376C310.676 81.872 309.684 82.12 308.564 82.12ZM308.684 80.608C309.58 80.608 310.38 80.408 311.084 80.008C311.804 79.592 312.364 79.016 312.764 78.28C313.18 77.528 313.388 76.664 313.388 75.688C313.388 74.696 313.18 73.832 312.764 73.096C312.364 72.36 311.804 71.792 311.084 71.392C310.38 70.976 309.58 70.768 308.684 70.768C307.804 70.768 307.012 70.976 306.308 71.392C305.604 71.792 305.044 72.36 304.628 73.096C304.212 73.832 304.004 74.696 304.004 75.688C304.004 76.664 304.212 77.528 304.628 78.28C305.044 79.016 305.604 79.592 306.308 80.008C307.012 80.408 307.804 80.608 308.684 80.608ZM313.436 82V78.208L313.604 75.664L313.364 73.12V64.192H315.068V82H313.436ZM319.814 82V69.4H321.518V82H319.814ZM320.678 66.616C320.326 66.616 320.03 66.496 319.79 66.256C319.55 66.016 319.43 65.728 319.43 65.392C319.43 65.056 319.55 64.776 319.79 64.552C320.03 64.312 320.326 64.192 320.678 64.192C321.03 64.192 321.326 64.304 321.566 64.528C321.806 64.752 321.926 65.032 321.926 65.368C321.926 65.72 321.806 66.016 321.566 66.256C321.342 66.496 321.046 66.616 320.678 66.616ZM331.611 82.12C330.299 82.12 329.147 81.848 328.155 81.304C327.163 80.744 326.387 79.984 325.827 79.024C325.267 78.048 324.987 76.936 324.987 75.688C324.987 74.44 325.251 73.336 325.779 72.376C326.323 71.416 327.059 70.664 327.987 70.12C328.931 69.56 329.987 69.28 331.155 69.28C332.339 69.28 333.387 69.552 334.299 70.096C335.227 70.624 335.955 71.376 336.483 72.352C337.011 73.312 337.275 74.424 337.275 75.688C337.275 75.768 337.267 75.856 337.251 75.952C337.251 76.032 337.251 76.12 337.251 76.216H326.283V74.944H336.339L335.667 75.448C335.667 74.536 335.467 73.728 335.067 73.024C334.683 72.304 334.155 71.744 333.483 71.344C332.811 70.944 332.035 70.744 331.155 70.744C330.291 70.744 329.515 70.944 328.827 71.344C328.139 71.744 327.603 72.304 327.219 73.024C326.835 73.744 326.643 74.568 326.643 75.496V75.76C326.643 76.72 326.851 77.568 327.267 78.304C327.699 79.024 328.291 79.592 329.043 80.008C329.811 80.408 330.683 80.608 331.659 80.608C332.427 80.608 333.139 80.472 333.795 80.2C334.467 79.928 335.043 79.512 335.523 78.952L336.483 80.056C335.923 80.728 335.219 81.24 334.371 81.592C333.539 81.944 332.619 82.12 331.611 82.12ZM344.127 82.12C343.087 82.12 342.103 81.976 341.175 81.688C340.247 81.384 339.519 81.008 338.991 80.56L339.759 79.216C340.271 79.6 340.927 79.936 341.727 80.224C342.527 80.496 343.367 80.632 344.247 80.632C345.447 80.632 346.311 80.448 346.839 80.08C347.367 79.696 347.631 79.192 347.631 78.568C347.631 78.104 347.479 77.744 347.175 77.488C346.887 77.216 346.503 77.016 346.023 76.888C345.543 76.744 345.007 76.624 344.415 76.528C343.823 76.432 343.231 76.32 342.639 76.192C342.063 76.064 341.535 75.88 341.055 75.64C340.575 75.384 340.183 75.04 339.879 74.608C339.591 74.176 339.447 73.6 339.447 72.88C339.447 72.192 339.639 71.576 340.023 71.032C340.407 70.488 340.967 70.064 341.703 69.76C342.455 69.44 343.367 69.28 344.439 69.28C345.255 69.28 346.071 69.392 346.887 69.616C347.703 69.824 348.375 70.104 348.903 70.456L348.159 71.824C347.599 71.44 346.999 71.168 346.359 71.008C345.719 70.832 345.079 70.744 344.439 70.744C343.303 70.744 342.463 70.944 341.919 71.344C341.391 71.728 341.127 72.224 341.127 72.832C341.127 73.312 341.271 73.688 341.559 73.96C341.863 74.232 342.255 74.448 342.735 74.608C343.231 74.752 343.767 74.872 344.343 74.968C344.935 75.064 345.519 75.184 346.095 75.328C346.687 75.456 347.223 75.64 347.703 75.88C348.199 76.104 348.591 76.432 348.879 76.864C349.183 77.28 349.335 77.832 349.335 78.52C349.335 79.256 349.127 79.896 348.711 80.44C348.311 80.968 347.719 81.384 346.935 81.688C346.167 81.976 345.231 82.12 344.127 82.12ZM357.814 82.12C356.502 82.12 355.35 81.848 354.358 81.304C353.366 80.744 352.59 79.984 352.03 79.024C351.47 78.048 351.19 76.936 351.19 75.688C351.19 74.44 351.454 73.336 351.982 72.376C352.526 71.416 353.262 70.664 354.19 70.12C355.134 69.56 356.19 69.28 357.358 69.28C358.542 69.28 359.59 69.552 360.502 70.096C361.43 70.624 362.158 71.376 362.686 72.352C363.214 73.312 363.478 74.424 363.478 75.688C363.478 75.768 363.47 75.856 363.454 75.952C363.454 76.032 363.454 76.12 363.454 76.216H352.486V74.944H362.542L361.87 75.448C361.87 74.536 361.67 73.728 361.27 73.024C360.886 72.304 360.358 71.744 359.686 71.344C359.014 70.944 358.238 70.744 357.358 70.744C356.494 70.744 355.718 70.944 355.03 71.344C354.342 71.744 353.806 72.304 353.422 73.024C353.038 73.744 352.846 74.568 352.846 75.496V75.76C352.846 76.72 353.054 77.568 353.47 78.304C353.902 79.024 354.494 79.592 355.246 80.008C356.014 80.408 356.886 80.608 357.862 80.608C358.63 80.608 359.342 80.472 359.998 80.2C360.67 79.928 361.246 79.512 361.726 78.952L362.686 80.056C362.126 80.728 361.422 81.24 360.574 81.592C359.742 81.944 358.822 82.12 357.814 82.12ZM382.69 69.28C383.714 69.28 384.602 69.48 385.354 69.88C386.122 70.264 386.714 70.856 387.13 71.656C387.562 72.456 387.778 73.464 387.778 74.68V82H386.074V74.848C386.074 73.52 385.754 72.52 385.114 71.848C384.49 71.16 383.602 70.816 382.45 70.816C381.586 70.816 380.834 71 380.194 71.368C379.57 71.72 379.082 72.24 378.73 72.928C378.394 73.6 378.226 74.416 378.226 75.376V82H376.522V74.848C376.522 73.52 376.202 72.52 375.562 71.848C374.922 71.16 374.026 70.816 372.874 70.816C372.026 70.816 371.282 71 370.642 71.368C370.002 71.72 369.506 72.24 369.154 72.928C368.818 73.6 368.65 74.416 368.65 75.376V82H366.946V69.4H368.578V72.808L368.314 72.208C368.698 71.296 369.314 70.584 370.162 70.072C371.026 69.544 372.042 69.28 373.21 69.28C374.442 69.28 375.49 69.592 376.354 70.216C377.218 70.824 377.778 71.744 378.034 72.976L377.362 72.712C377.73 71.688 378.378 70.864 379.306 70.24C380.25 69.6 381.378 69.28 382.69 69.28ZM399.041 82V65.2H405.329C406.753 65.2 407.977 65.432 409.001 65.896C410.025 66.344 410.809 67 411.353 67.864C411.913 68.712 412.193 69.744 412.193 70.96C412.193 72.144 411.913 73.168 411.353 74.032C410.809 74.88 410.025 75.536 409.001 76C407.977 76.464 406.753 76.696 405.329 76.696H400.025L400.817 75.856V82H399.041ZM400.817 76L400.025 75.136H405.281C406.961 75.136 408.233 74.776 409.097 74.056C409.977 73.32 410.417 72.288 410.417 70.96C410.417 69.616 409.977 68.576 409.097 67.84C408.233 67.104 406.961 66.736 405.281 66.736H400.025L400.817 65.896V76ZM415.368 82V69.4H417V72.832L416.832 72.232C417.184 71.272 417.776 70.544 418.608 70.048C419.44 69.536 420.472 69.28 421.704 69.28V70.936C421.64 70.936 421.576 70.936 421.512 70.936C421.448 70.92 421.384 70.912 421.32 70.912C419.992 70.912 418.952 71.32 418.2 72.136C417.448 72.936 417.072 74.08 417.072 75.568V82H415.368ZM430.048 82.12C428.736 82.12 427.584 81.848 426.592 81.304C425.6 80.744 424.824 79.984 424.264 79.024C423.704 78.048 423.424 76.936 423.424 75.688C423.424 74.44 423.688 73.336 424.216 72.376C424.76 71.416 425.496 70.664 426.424 70.12C427.368 69.56 428.424 69.28 429.592 69.28C430.776 69.28 431.824 69.552 432.736 70.096C433.664 70.624 434.392 71.376 434.92 72.352C435.448 73.312 435.712 74.424 435.712 75.688C435.712 75.768 435.704 75.856 435.688 75.952C435.688 76.032 435.688 76.12 435.688 76.216H424.72V74.944H434.776L434.104 75.448C434.104 74.536 433.904 73.728 433.504 73.024C433.12 72.304 432.592 71.744 431.92 71.344C431.248 70.944 430.472 70.744 429.592 70.744C428.728 70.744 427.952 70.944 427.264 71.344C426.576 71.744 426.04 72.304 425.656 73.024C425.272 73.744 425.08 74.568 425.08 75.496V75.76C425.08 76.72 425.288 77.568 425.704 78.304C426.136 79.024 426.728 79.592 427.48 80.008C428.248 80.408 429.12 80.608 430.096 80.608C430.864 80.608 431.576 80.472 432.232 80.2C432.904 79.928 433.48 79.512 433.96 78.952L434.92 80.056C434.36 80.728 433.656 81.24 432.808 81.592C431.976 81.944 431.056 82.12 430.048 82.12ZM439.181 82V69.4H440.885V82H439.181ZM440.045 66.616C439.693 66.616 439.397 66.496 439.157 66.256C438.917 66.016 438.797 65.728 438.797 65.392C438.797 65.056 438.917 64.776 439.157 64.552C439.397 64.312 439.693 64.192 440.045 64.192C440.397 64.192 440.693 64.304 440.933 64.528C441.173 64.752 441.293 65.032 441.293 65.368C441.293 65.72 441.173 66.016 440.933 66.256C440.709 66.496 440.413 66.616 440.045 66.616ZM449.01 82.12C447.97 82.12 446.986 81.976 446.058 81.688C445.13 81.384 444.402 81.008 443.874 80.56L444.642 79.216C445.154 79.6 445.81 79.936 446.61 80.224C447.41 80.496 448.25 80.632 449.13 80.632C450.33 80.632 451.194 80.448 451.722 80.08C452.25 79.696 452.514 79.192 452.514 78.568C452.514 78.104 452.362 77.744 452.058 77.488C451.77 77.216 451.386 77.016 450.906 76.888C450.426 76.744 449.89 76.624 449.298 76.528C448.706 76.432 448.114 76.32 447.522 76.192C446.946 76.064 446.418 75.88 445.938 75.64C445.458 75.384 445.066 75.04 444.762 74.608C444.474 74.176 444.33 73.6 444.33 72.88C444.33 72.192 444.522 71.576 444.906 71.032C445.29 70.488 445.85 70.064 446.586 69.76C447.338 69.44 448.25 69.28 449.322 69.28C450.138 69.28 450.954 69.392 451.77 69.616C452.586 69.824 453.258 70.104 453.786 70.456L453.042 71.824C452.482 71.44 451.882 71.168 451.242 71.008C450.602 70.832 449.962 70.744 449.322 70.744C448.186 70.744 447.346 70.944 446.802 71.344C446.274 71.728 446.01 72.224 446.01 72.832C446.01 73.312 446.154 73.688 446.442 73.96C446.746 74.232 447.138 74.448 447.618 74.608C448.114 74.752 448.65 74.872 449.226 74.968C449.818 75.064 450.402 75.184 450.978 75.328C451.57 75.456 452.106 75.64 452.586 75.88C453.082 76.104 453.474 76.432 453.762 76.864C454.066 77.28 454.218 77.832 454.218 78.52C454.218 79.256 454.01 79.896 453.594 80.44C453.194 80.968 452.602 81.384 451.818 81.688C451.05 81.976 450.114 82.12 449.01 82.12Z" fill="#214B33"/>
<path d="M138 29L688 29" stroke="#BC0051"/>
<path d="M4.32 19.712H13.2V21.224H4.32V19.712ZM4.512 27.464H14.616V29H2.736V12.2H14.256V13.736H4.512V27.464ZM18.4307 29V16.4H20.1347V29H18.4307ZM19.2947 13.616C18.9427 13.616 18.6467 13.496 18.4067 13.256C18.1667 13.016 18.0467 12.728 18.0467 12.392C18.0467 12.056 18.1667 11.776 18.4067 11.552C18.6467 11.312 18.9427 11.192 19.2947 11.192C19.6467 11.192 19.9427 11.304 20.1827 11.528C20.4227 11.752 20.5427 12.032 20.5427 12.368C20.5427 12.72 20.4227 13.016 20.1827 13.256C19.9587 13.496 19.6627 13.616 19.2947 13.616ZM31.308 16.28C32.332 16.28 33.228 16.48 33.996 16.88C34.78 17.264 35.388 17.856 35.82 18.656C36.268 19.456 36.492 20.464 36.492 21.68V29H34.788V21.848C34.788 20.52 34.452 19.52 33.78 18.848C33.124 18.16 32.196 17.816 30.996 17.816C30.1 17.816 29.316 18 28.644 18.368C27.988 18.72 27.476 19.24 27.108 19.928C26.756 20.6 26.58 21.416 26.58 22.376V29H24.876V16.4H26.508V19.856L26.244 19.208C26.644 18.296 27.284 17.584 28.164 17.072C29.044 16.544 30.092 16.28 31.308 16.28ZM39.7268 29V27.872L48.1268 17.24L48.4868 17.816H39.8708V16.4H49.8308V17.504L41.4548 28.16L41.0228 27.584H49.9988V29H39.7268ZM58.4936 29.12C57.1816 29.12 56.0296 28.848 55.0376 28.304C54.0456 27.744 53.2696 26.984 52.7096 26.024C52.1496 25.048 51.8696 23.936 51.8696 22.688C51.8696 21.44 52.1336 20.336 52.6616 19.376C53.2056 18.416 53.9416 17.664 54.8696 17.12C55.8136 16.56 56.8696 16.28 58.0376 16.28C59.2216 16.28 60.2696 16.552 61.1816 17.096C62.1096 17.624 62.8376 18.376 63.3656 19.352C63.8936 20.312 64.1576 21.424 64.1576 22.688C64.1576 22.768 64.1496 22.856 64.1336 22.952C64.1336 23.032 64.1336 23.12 64.1336 23.216H53.1656V21.944H63.2216L62.5496 22.448C62.5496 21.536 62.3496 20.728 61.9496 20.024C61.5656 19.304 61.0376 18.744 60.3656 18.344C59.6936 17.944 58.9176 17.744 58.0376 17.744C57.1736 17.744 56.3976 17.944 55.7096 18.344C55.0216 18.744 54.4856 19.304 54.1016 20.024C53.7176 20.744 53.5256 21.568 53.5256 22.496V22.76C53.5256 23.72 53.7336 24.568 54.1496 25.304C54.5816 26.024 55.1736 26.592 55.9256 27.008C56.6936 27.408 57.5656 27.608 58.5416 27.608C59.3096 27.608 60.0216 27.472 60.6776 27.2C61.3496 26.928 61.9256 26.512 62.4056 25.952L63.3656 27.056C62.8056 27.728 62.1016 28.24 61.2536 28.592C60.4216 28.944 59.5016 29.12 58.4936 29.12ZM67.626 29V11.192H69.33V29H67.626ZM80.5033 16.28C81.5273 16.28 82.4233 16.48 83.1913 16.88C83.9753 17.264 84.5833 17.856 85.0153 18.656C85.4633 19.456 85.6873 20.464 85.6873 21.68V29H83.9833V21.848C83.9833 20.52 83.6473 19.52 82.9753 18.848C82.3193 18.16 81.3913 17.816 80.1913 17.816C79.2953 17.816 78.5113 18 77.8393 18.368C77.1833 18.72 76.6713 19.24 76.3033 19.928C75.9513 20.6 75.7753 21.416 75.7753 22.376V29H74.0713V11.192H75.7753V19.856L75.4393 19.208C75.8393 18.296 76.4793 17.584 77.3593 17.072C78.2393 16.544 79.2873 16.28 80.5033 16.28ZM98.1861 29V26.216L98.1141 25.76V21.104C98.1141 20.032 97.8101 19.208 97.2021 18.632C96.6101 18.056 95.7221 17.768 94.5381 17.768C93.7221 17.768 92.9461 17.904 92.2101 18.176C91.4741 18.448 90.8501 18.808 90.3381 19.256L89.5701 17.984C90.2101 17.44 90.9781 17.024 91.8741 16.736C92.7701 16.432 93.7141 16.28 94.7061 16.28C96.3381 16.28 97.5941 16.688 98.4741 17.504C99.3701 18.304 99.8181 19.528 99.8181 21.176V29H98.1861ZM93.8421 29.12C92.8981 29.12 92.0741 28.968 91.3701 28.664C90.6821 28.344 90.1541 27.912 89.7861 27.368C89.4181 26.808 89.2341 26.168 89.2341 25.448C89.2341 24.792 89.3861 24.2 89.6901 23.672C90.0101 23.128 90.5221 22.696 91.2261 22.376C91.9461 22.04 92.9061 21.872 94.1061 21.872H98.4501V23.144H94.1541C92.9381 23.144 92.0901 23.36 91.6101 23.792C91.1461 24.224 90.9141 24.76 90.9141 25.4C90.9141 26.12 91.1941 26.696 91.7541 27.128C92.3141 27.56 93.0981 27.776 94.1061 27.776C95.0661 27.776 95.8901 27.56 96.5781 27.128C97.2821 26.68 97.7941 26.04 98.1141 25.208L98.4981 26.384C98.1781 27.216 97.6181 27.88 96.8181 28.376C96.0341 28.872 95.0421 29.12 93.8421 29.12ZM110.878 16.28C111.902 16.28 112.798 16.48 113.566 16.88C114.35 17.264 114.958 17.856 115.39 18.656C115.838 19.456 116.062 20.464 116.062 21.68V29H114.358V21.848C114.358 20.52 114.022 19.52 113.35 18.848C112.694 18.16 111.766 17.816 110.566 17.816C109.67 17.816 108.886 18 108.214 18.368C107.558 18.72 107.046 19.24 106.678 19.928C106.326 20.6 106.15 21.416 106.15 22.376V29H104.446V16.4H106.078V19.856L105.814 19.208C106.214 18.296 106.854 17.584 107.734 17.072C108.614 16.544 109.662 16.28 110.878 16.28ZM125.681 29.12C124.481 29.12 123.401 28.848 122.441 28.304C121.497 27.76 120.753 27.008 120.209 26.048C119.665 25.072 119.393 23.952 119.393 22.688C119.393 21.408 119.665 20.288 120.209 19.328C120.753 18.368 121.497 17.624 122.441 17.096C123.401 16.552 124.481 16.28 125.681 16.28C126.785 16.28 127.769 16.528 128.633 17.024C129.513 17.52 130.209 18.248 130.721 19.208C131.249 20.152 131.513 21.312 131.513 22.688C131.513 24.048 131.257 25.208 130.745 26.168C130.233 27.128 129.537 27.864 128.657 28.376C127.793 28.872 126.801 29.12 125.681 29.12ZM125.801 27.608C126.697 27.608 127.497 27.408 128.201 27.008C128.921 26.592 129.481 26.016 129.881 25.28C130.297 24.528 130.505 23.664 130.505 22.688C130.505 21.696 130.297 20.832 129.881 20.096C129.481 19.36 128.921 18.792 128.201 18.392C127.497 17.976 126.697 17.768 125.801 17.768C124.921 17.768 124.129 17.976 123.425 18.392C122.721 18.792 122.161 19.36 121.745 20.096C121.329 20.832 121.121 21.696 121.121 22.688C121.121 23.664 121.329 24.528 121.745 25.28C122.161 26.016 122.721 26.592 123.425 27.008C124.129 27.408 124.921 27.608 125.801 27.608ZM130.553 29V25.208L130.721 22.664L130.481 20.12V11.192H132.185V29H130.553ZM142.283 29.12C140.971 29.12 139.819 28.848 138.827 28.304C137.835 27.744 137.059 26.984 136.499 26.024C135.939 25.048 135.659 23.936 135.659 22.688C135.659 21.44 135.923 20.336 136.451 19.376C136.995 18.416 137.731 17.664 138.659 17.12C139.603 16.56 140.659 16.28 141.827 16.28C143.011 16.28 144.059 16.552 144.971 17.096C145.899 17.624 146.627 18.376 147.155 19.352C147.683 20.312 147.947 21.424 147.947 22.688C147.947 22.768 147.939 22.856 147.923 22.952C147.923 23.032 147.923 23.12 147.923 23.216H136.955V21.944H147.011L146.339 22.448C146.339 21.536 146.139 20.728 145.739 20.024C145.355 19.304 144.827 18.744 144.155 18.344C143.483 17.944 142.707 17.744 141.827 17.744C140.963 17.744 140.187 17.944 139.499 18.344C138.811 18.744 138.275 19.304 137.891 20.024C137.507 20.744 137.315 21.568 137.315 22.496V22.76C137.315 23.72 137.523 24.568 137.939 25.304C138.371 26.024 138.963 26.592 139.715 27.008C140.483 27.408 141.355 27.608 142.331 27.608C143.099 27.608 143.811 27.472 144.467 27.2C145.139 26.928 145.715 26.512 146.195 25.952L147.155 27.056C146.595 27.728 145.891 28.24 145.043 28.592C144.211 28.944 143.291 29.12 142.283 29.12ZM151.415 29V11.192H153.119V29H151.415ZM161.244 29.12C160.204 29.12 159.22 28.976 158.292 28.688C157.364 28.384 156.636 28.008 156.108 27.56L156.876 26.216C157.388 26.6 158.044 26.936 158.844 27.224C159.644 27.496 160.484 27.632 161.364 27.632C162.564 27.632 163.428 27.448 163.956 27.08C164.484 26.696 164.748 26.192 164.748 25.568C164.748 25.104 164.596 24.744 164.292 24.488C164.004 24.216 163.62 24.016 163.14 23.888C162.66 23.744 162.124 23.624 161.532 23.528C160.94 23.432 160.348 23.32 159.756 23.192C159.18 23.064 158.652 22.88 158.172 22.64C157.692 22.384 157.3 22.04 156.996 21.608C156.708 21.176 156.564 20.6 156.564 19.88C156.564 19.192 156.756 18.576 157.14 18.032C157.524 17.488 158.084 17.064 158.82 16.76C159.572 16.44 160.484 16.28 161.556 16.28C162.372 16.28 163.188 16.392 164.004 16.616C164.82 16.824 165.492 17.104 166.02 17.456L165.276 18.824C164.716 18.44 164.116 18.168 163.476 18.008C162.836 17.832 162.196 17.744 161.556 17.744C160.42 17.744 159.58 17.944 159.036 18.344C158.508 18.728 158.244 19.224 158.244 19.832C158.244 20.312 158.388 20.688 158.676 20.96C158.98 21.232 159.372 21.448 159.852 21.608C160.348 21.752 160.884 21.872 161.46 21.968C162.052 22.064 162.636 22.184 163.212 22.328C163.804 22.456 164.34 22.64 164.82 22.88C165.316 23.104 165.708 23.432 165.996 23.864C166.3 24.28 166.452 24.832 166.452 25.52C166.452 26.256 166.244 26.896 165.828 27.44C165.428 27.968 164.836 28.384 164.052 28.688C163.284 28.976 162.348 29.12 161.244 29.12ZM176.083 29.12C174.995 29.12 174.011 28.872 173.131 28.376C172.251 27.864 171.547 27.136 171.019 26.192C170.507 25.232 170.251 24.064 170.251 22.688C170.251 21.312 170.507 20.152 171.019 19.208C171.531 18.248 172.227 17.52 173.107 17.024C173.987 16.528 174.979 16.28 176.083 16.28C177.283 16.28 178.355 16.552 179.299 17.096C180.259 17.624 181.011 18.376 181.555 19.352C182.099 20.312 182.371 21.424 182.371 22.688C182.371 23.968 182.099 25.088 181.555 26.048C181.011 27.008 180.259 27.76 179.299 28.304C178.355 28.848 177.283 29.12 176.083 29.12ZM169.579 33.656V16.4H171.211V20.192L171.043 22.712L171.283 25.256V33.656H169.579ZM175.963 27.608C176.859 27.608 177.659 27.408 178.363 27.008C179.067 26.592 179.627 26.016 180.043 25.28C180.459 24.528 180.667 23.664 180.667 22.688C180.667 21.712 180.459 20.856 180.043 20.12C179.627 19.384 179.067 18.808 178.363 18.392C177.659 17.976 176.859 17.768 175.963 17.768C175.067 17.768 174.259 17.976 173.539 18.392C172.835 18.808 172.275 19.384 171.859 20.12C171.459 20.856 171.259 21.712 171.259 22.688C171.259 23.664 171.459 24.528 171.859 25.28C172.275 26.016 172.835 26.592 173.539 27.008C174.259 27.408 175.067 27.608 175.963 27.608ZM185.845 29V16.4H187.477V19.832L187.309 19.232C187.661 18.272 188.253 17.544 189.085 17.048C189.917 16.536 190.949 16.28 192.181 16.28V17.936C192.117 17.936 192.053 17.936 191.989 17.936C191.925 17.92 191.861 17.912 191.797 17.912C190.469 17.912 189.429 18.32 188.677 19.136C187.925 19.936 187.549 21.08 187.549 22.568V29H185.845ZM200.525 29.12C199.213 29.12 198.061 28.848 197.069 28.304C196.077 27.744 195.301 26.984 194.741 26.024C194.181 25.048 193.901 23.936 193.901 22.688C193.901 21.44 194.165 20.336 194.693 19.376C195.237 18.416 195.973 17.664 196.901 17.12C197.845 16.56 198.901 16.28 200.069 16.28C201.253 16.28 202.301 16.552 203.213 17.096C204.141 17.624 204.869 18.376 205.397 19.352C205.925 20.312 206.189 21.424 206.189 22.688C206.189 22.768 206.181 22.856 206.165 22.952C206.165 23.032 206.165 23.12 206.165 23.216H195.197V21.944H205.253L204.581 22.448C204.581 21.536 204.381 20.728 203.981 20.024C203.597 19.304 203.069 18.744 202.397 18.344C201.725 17.944 200.949 17.744 200.069 17.744C199.205 17.744 198.429 17.944 197.741 18.344C197.053 18.744 196.517 19.304 196.133 20.024C195.749 20.744 195.557 21.568 195.557 22.496V22.76C195.557 23.72 195.765 24.568 196.181 25.304C196.613 26.024 197.205 26.592 197.957 27.008C198.725 27.408 199.597 27.608 200.573 27.608C201.341 27.608 202.053 27.472 202.709 27.2C203.381 26.928 203.957 26.512 204.437 25.952L205.397 27.056C204.837 27.728 204.133 28.24 203.285 28.592C202.453 28.944 201.533 29.12 200.525 29.12ZM209.657 29V16.4H211.361V29H209.657ZM210.521 13.616C210.169 13.616 209.873 13.496 209.633 13.256C209.393 13.016 209.273 12.728 209.273 12.392C209.273 12.056 209.393 11.776 209.633 11.552C209.873 11.312 210.169 11.192 210.521 11.192C210.873 11.192 211.169 11.304 211.409 11.528C211.649 11.752 211.769 12.032 211.769 12.368C211.769 12.72 211.649 13.016 211.409 13.256C211.185 13.496 210.889 13.616 210.521 13.616ZM219.487 29.12C218.447 29.12 217.463 28.976 216.535 28.688C215.607 28.384 214.879 28.008 214.351 27.56L215.119 26.216C215.631 26.6 216.287 26.936 217.087 27.224C217.887 27.496 218.727 27.632 219.607 27.632C220.807 27.632 221.671 27.448 222.199 27.08C222.727 26.696 222.991 26.192 222.991 25.568C222.991 25.104 222.839 24.744 222.535 24.488C222.247 24.216 221.863 24.016 221.383 23.888C220.903 23.744 220.367 23.624 219.775 23.528C219.183 23.432 218.591 23.32 217.999 23.192C217.423 23.064 216.895 22.88 216.415 22.64C215.935 22.384 215.543 22.04 215.239 21.608C214.951 21.176 214.807 20.6 214.807 19.88C214.807 19.192 214.999 18.576 215.383 18.032C215.767 17.488 216.327 17.064 217.063 16.76C217.815 16.44 218.727 16.28 219.799 16.28C220.615 16.28 221.431 16.392 222.247 16.616C223.063 16.824 223.735 17.104 224.263 17.456L223.519 18.824C222.959 18.44 222.359 18.168 221.719 18.008C221.079 17.832 220.439 17.744 219.799 17.744C218.663 17.744 217.823 17.944 217.279 18.344C216.751 18.728 216.487 19.224 216.487 19.832C216.487 20.312 216.631 20.688 216.919 20.96C217.223 21.232 217.615 21.448 218.095 21.608C218.591 21.752 219.127 21.872 219.703 21.968C220.295 22.064 220.879 22.184 221.455 22.328C222.047 22.456 222.583 22.64 223.063 22.88C223.559 23.104 223.951 23.432 224.239 23.864C224.543 24.28 224.695 24.832 224.695 25.52C224.695 26.256 224.487 26.896 224.071 27.44C223.671 27.968 223.079 28.384 222.295 28.688C221.527 28.976 220.591 29.12 219.487 29.12Z" fill="#BC0051"/>
<path d="M153 166H0" stroke="#A2C33D"/>
<path d="M2.256 155V138.2H5.376V155H2.256ZM16.9041 142.04C17.9281 142.04 18.8401 142.24 19.6401 142.64C20.4561 143.04 21.0961 143.656 21.5601 144.488C22.0241 145.304 22.2561 146.36 22.2561 147.656V155H19.2561V148.04C19.2561 146.904 18.9841 146.056 18.4401 145.496C17.9121 144.936 17.1681 144.656 16.2081 144.656C15.5041 144.656 14.8801 144.8 14.3361 145.088C13.7921 145.376 13.3681 145.808 13.0641 146.384C12.7761 146.944 12.6321 147.656 12.6321 148.52V155H9.63206V137.192H12.6321V145.64L11.9841 144.584C12.4321 143.768 13.0801 143.144 13.9281 142.712C14.7921 142.264 15.7841 142.04 16.9041 142.04ZM26.0618 155V142.184H28.9178V145.712L28.5818 144.68C28.9658 143.816 29.5658 143.16 30.3818 142.712C31.2138 142.264 32.2458 142.04 33.4778 142.04V144.896C33.3498 144.864 33.2298 144.848 33.1178 144.848C33.0058 144.832 32.8938 144.824 32.7818 144.824C31.6458 144.824 30.7418 145.16 30.0698 145.832C29.3978 146.488 29.0618 147.472 29.0618 148.784V155H26.0618ZM48.0287 155L40.6847 138.2H44.0687L50.6207 153.392H48.6767L55.3007 138.2H58.4207L51.1007 155H48.0287ZM64.7046 155.168C63.3926 155.168 62.2246 154.888 61.2006 154.328C60.1766 153.752 59.3686 152.968 58.7766 151.976C58.1846 150.984 57.8886 149.856 57.8886 148.592C57.8886 147.312 58.1846 146.184 58.7766 145.208C59.3686 144.216 60.1766 143.44 61.2006 142.88C62.2246 142.32 63.3926 142.04 64.7046 142.04C66.0326 142.04 67.2086 142.32 68.2326 142.88C69.2726 143.44 70.0806 144.208 70.6566 145.184C71.2486 146.16 71.5446 147.296 71.5446 148.592C71.5446 149.856 71.2486 150.984 70.6566 151.976C70.0806 152.968 69.2726 153.752 68.2326 154.328C67.2086 154.888 66.0326 155.168 64.7046 155.168ZM64.7046 152.6C65.4406 152.6 66.0966 152.44 66.6726 152.12C67.2486 151.8 67.6966 151.336 68.0166 150.728C68.3526 150.12 68.5206 149.408 68.5206 148.592C68.5206 147.76 68.3526 147.048 68.0166 146.456C67.6966 145.848 67.2486 145.384 66.6726 145.064C66.0966 144.744 65.4486 144.584 64.7286 144.584C63.9926 144.584 63.3366 144.744 62.7606 145.064C62.2006 145.384 61.7526 145.848 61.4166 146.456C61.0806 147.048 60.9126 147.76 60.9126 148.592C60.9126 149.408 61.0806 150.12 61.4166 150.728C61.7526 151.336 62.2006 151.8 62.7606 152.12C63.3366 152.44 63.9846 152.6 64.7046 152.6ZM74.4133 155V142.184H77.2693V145.712L76.9333 144.68C77.3173 143.816 77.9173 143.16 78.7333 142.712C79.5653 142.264 80.5973 142.04 81.8293 142.04V144.896C81.7013 144.864 81.5813 144.848 81.4693 144.848C81.3573 144.832 81.2453 144.824 81.1333 144.824C79.9973 144.824 79.0933 145.16 78.4213 145.832C77.7493 146.488 77.4133 147.472 77.4133 148.784V155H74.4133ZM89.667 155.168C88.259 155.168 87.171 154.808 86.403 154.088C85.635 153.352 85.251 152.272 85.251 150.848V139.352H88.251V150.776C88.251 151.384 88.403 151.856 88.707 152.192C89.027 152.528 89.467 152.696 90.027 152.696C90.699 152.696 91.259 152.52 91.707 152.168L92.547 154.304C92.195 154.592 91.763 154.808 91.251 154.952C90.739 155.096 90.211 155.168 89.667 155.168ZM83.139 144.68V142.28H91.683V144.68H83.139ZM100.617 155.168C99.193 155.168 97.945 154.888 96.873 154.328C95.817 153.752 94.993 152.968 94.401 151.976C93.825 150.984 93.537 149.856 93.537 148.592C93.537 147.312 93.817 146.184 94.377 145.208C94.953 144.216 95.737 143.44 96.729 142.88C97.737 142.32 98.881 142.04 100.161 142.04C101.409 142.04 102.521 142.312 103.497 142.856C104.473 143.4 105.241 144.168 105.801 145.16C106.361 146.152 106.641 147.32 106.641 148.664C106.641 148.792 106.633 148.936 106.617 149.096C106.617 149.256 106.609 149.408 106.593 149.552H95.913V147.56H105.009L103.833 148.184C103.849 147.448 103.697 146.8 103.377 146.24C103.057 145.68 102.617 145.24 102.057 144.92C101.513 144.6 100.881 144.44 100.161 144.44C99.425 144.44 98.777 144.6 98.217 144.92C97.673 145.24 97.241 145.688 96.921 146.264C96.617 146.824 96.465 147.488 96.465 148.256V148.736C96.465 149.504 96.641 150.184 96.993 150.776C97.345 151.368 97.841 151.824 98.481 152.144C99.121 152.464 99.857 152.624 100.689 152.624C101.409 152.624 102.057 152.512 102.633 152.288C103.209 152.064 103.721 151.712 104.169 151.232L105.777 153.08C105.201 153.752 104.473 154.272 103.593 154.64C102.729 154.992 101.737 155.168 100.617 155.168ZM109.523 155V142.184H112.523V155H109.523ZM111.035 140.072C110.475 140.072 110.011 139.896 109.643 139.544C109.291 139.192 109.115 138.768 109.115 138.272C109.115 137.76 109.291 137.336 109.643 137C110.011 136.648 110.475 136.472 111.035 136.472C111.595 136.472 112.051 136.64 112.403 136.976C112.771 137.296 112.955 137.704 112.955 138.2C112.955 138.728 112.779 139.176 112.427 139.544C112.075 139.896 111.611 140.072 111.035 140.072ZM116.46 155V137.192H119.46V155H116.46Z" fill="#A2C33D"/>
<path d="M138.436 369V359.62L138.884 360.096H136.126V359.2H139.444V369H138.436ZM150.715 369V367.376L150.673 367.11V364.394C150.673 363.769 150.495 363.288 150.141 362.952C149.795 362.616 149.277 362.448 148.587 362.448C148.111 362.448 147.658 362.527 147.229 362.686C146.799 362.845 146.435 363.055 146.137 363.316L145.689 362.574C146.062 362.257 146.51 362.014 147.033 361.846C147.555 361.669 148.106 361.58 148.685 361.58C149.637 361.58 150.369 361.818 150.883 362.294C151.405 362.761 151.667 363.475 151.667 364.436V369H150.715ZM148.181 369.07C147.63 369.07 147.149 368.981 146.739 368.804C146.337 368.617 146.029 368.365 145.815 368.048C145.6 367.721 145.493 367.348 145.493 366.928C145.493 366.545 145.581 366.2 145.759 365.892C145.945 365.575 146.244 365.323 146.655 365.136C147.075 364.94 147.635 364.842 148.335 364.842H150.869V365.584H148.363C147.653 365.584 147.159 365.71 146.879 365.962C146.608 366.214 146.473 366.527 146.473 366.9C146.473 367.32 146.636 367.656 146.963 367.908C147.289 368.16 147.747 368.286 148.335 368.286C148.895 368.286 149.375 368.16 149.777 367.908C150.187 367.647 150.486 367.273 150.673 366.788L150.897 367.474C150.71 367.959 150.383 368.347 149.917 368.636C149.459 368.925 148.881 369.07 148.181 369.07ZM158.16 369.07C157.526 369.07 156.952 368.925 156.438 368.636C155.925 368.337 155.514 367.913 155.206 367.362C154.908 366.802 154.758 366.121 154.758 365.318C154.758 364.515 154.908 363.839 155.206 363.288C155.505 362.728 155.911 362.303 156.424 362.014C156.938 361.725 157.516 361.58 158.16 361.58C158.86 361.58 159.486 361.739 160.036 362.056C160.596 362.364 161.035 362.803 161.352 363.372C161.67 363.932 161.828 364.581 161.828 365.318C161.828 366.065 161.67 366.718 161.352 367.278C161.035 367.838 160.596 368.277 160.036 368.594C159.486 368.911 158.86 369.07 158.16 369.07ZM154.366 371.716V361.65H155.318V363.862L155.22 365.332L155.36 366.816V371.716H154.366ZM158.09 368.188C158.613 368.188 159.08 368.071 159.49 367.838C159.901 367.595 160.228 367.259 160.47 366.83C160.713 366.391 160.834 365.887 160.834 365.318C160.834 364.749 160.713 364.249 160.47 363.82C160.228 363.391 159.901 363.055 159.49 362.812C159.08 362.569 158.613 362.448 158.09 362.448C157.568 362.448 157.096 362.569 156.676 362.812C156.266 363.055 155.939 363.391 155.696 363.82C155.463 364.249 155.346 364.749 155.346 365.318C155.346 365.887 155.463 366.391 155.696 366.83C155.939 367.259 156.266 367.595 156.676 367.838C157.096 368.071 157.568 368.188 158.09 368.188ZM163.855 369V361.65H164.807V363.652L164.709 363.302C164.914 362.742 165.259 362.317 165.745 362.028C166.23 361.729 166.832 361.58 167.551 361.58V362.546C167.513 362.546 167.476 362.546 167.439 362.546C167.401 362.537 167.364 362.532 167.327 362.532C166.552 362.532 165.945 362.77 165.507 363.246C165.068 363.713 164.849 364.38 164.849 365.248V369H163.855ZM169.365 369V361.65H170.359V369H169.365ZM169.869 360.026C169.663 360.026 169.491 359.956 169.351 359.816C169.211 359.676 169.141 359.508 169.141 359.312C169.141 359.116 169.211 358.953 169.351 358.822C169.491 358.682 169.663 358.612 169.869 358.612C170.074 358.612 170.247 358.677 170.387 358.808C170.527 358.939 170.597 359.102 170.597 359.298C170.597 359.503 170.527 359.676 170.387 359.816C170.256 359.956 170.083 360.026 169.869 360.026ZM173.124 369V358.612H174.118V369H173.124Z" fill="#313131"/>
<path d="M639.654 369.084C638.945 369.084 638.273 368.972 637.638 368.748C637.013 368.515 636.509 368.207 636.126 367.824L636.616 367.026C636.933 367.353 637.358 367.623 637.89 367.838C638.431 368.053 639.019 368.16 639.654 368.16C640.466 368.16 641.087 367.983 641.516 367.628C641.955 367.273 642.174 366.797 642.174 366.2C642.174 365.603 641.959 365.127 641.53 364.772C641.11 364.417 640.443 364.24 639.528 364.24H638.828V363.498L641.852 359.704L641.992 360.096H636.532V359.2H642.832V359.914L639.808 363.708L639.318 363.386H639.696C640.872 363.386 641.749 363.647 642.328 364.17C642.916 364.693 643.21 365.365 643.21 366.186C643.21 366.737 643.079 367.231 642.818 367.67C642.557 368.109 642.16 368.454 641.628 368.706C641.105 368.958 640.447 369.084 639.654 369.084ZM648.536 369.084C647.78 369.084 647.108 368.888 646.52 368.496C645.932 368.095 645.47 367.525 645.134 366.788C644.798 366.041 644.63 365.145 644.63 364.1C644.63 363.055 644.798 362.163 645.134 361.426C645.47 360.679 645.932 360.11 646.52 359.718C647.108 359.317 647.78 359.116 648.536 359.116C649.292 359.116 649.964 359.317 650.552 359.718C651.14 360.11 651.602 360.679 651.938 361.426C652.284 362.163 652.456 363.055 652.456 364.1C652.456 365.145 652.284 366.041 651.938 366.788C651.602 367.525 651.14 368.095 650.552 368.496C649.964 368.888 649.292 369.084 648.536 369.084ZM648.536 368.16C649.115 368.16 649.619 368.006 650.048 367.698C650.478 367.381 650.814 366.923 651.056 366.326C651.299 365.719 651.42 364.977 651.42 364.1C651.42 363.223 651.299 362.485 651.056 361.888C650.814 361.281 650.478 360.824 650.048 360.516C649.619 360.199 649.115 360.04 648.536 360.04C647.976 360.04 647.477 360.199 647.038 360.516C646.6 360.824 646.259 361.281 646.016 361.888C645.774 362.485 645.652 363.223 645.652 364.1C645.652 364.977 645.774 365.719 646.016 366.326C646.259 366.923 646.6 367.381 647.038 367.698C647.477 368.006 647.976 368.16 648.536 368.16ZM662.828 369V367.376L662.786 367.11V364.394C662.786 363.769 662.609 363.288 662.254 362.952C661.909 362.616 661.391 362.448 660.7 362.448C660.224 362.448 659.771 362.527 659.342 362.686C658.913 362.845 658.549 363.055 658.25 363.316L657.802 362.574C658.175 362.257 658.623 362.014 659.146 361.846C659.669 361.669 660.219 361.58 660.798 361.58C661.75 361.58 662.483 361.818 662.996 362.294C663.519 362.761 663.78 363.475 663.78 364.436V369H662.828ZM660.294 369.07C659.743 369.07 659.263 368.981 658.852 368.804C658.451 368.617 658.143 368.365 657.928 368.048C657.713 367.721 657.606 367.348 657.606 366.928C657.606 366.545 657.695 366.2 657.872 365.892C658.059 365.575 658.357 365.323 658.768 365.136C659.188 364.94 659.748 364.842 660.448 364.842H662.982V365.584H660.476C659.767 365.584 659.272 365.71 658.992 365.962C658.721 366.214 658.586 366.527 658.586 366.9C658.586 367.32 658.749 367.656 659.076 367.908C659.403 368.16 659.86 368.286 660.448 368.286C661.008 368.286 661.489 368.16 661.89 367.908C662.301 367.647 662.599 367.273 662.786 366.788L663.01 367.474C662.823 367.959 662.497 368.347 662.03 368.636C661.573 368.925 660.994 369.07 660.294 369.07ZM670.274 369.07C669.639 369.07 669.065 368.925 668.552 368.636C668.038 368.337 667.628 367.913 667.32 367.362C667.021 366.802 666.872 366.121 666.872 365.318C666.872 364.515 667.021 363.839 667.32 363.288C667.618 362.728 668.024 362.303 668.538 362.014C669.051 361.725 669.63 361.58 670.274 361.58C670.974 361.58 671.599 361.739 672.15 362.056C672.71 362.364 673.148 362.803 673.466 363.372C673.783 363.932 673.942 364.581 673.942 365.318C673.942 366.065 673.783 366.718 673.466 367.278C673.148 367.838 672.71 368.277 672.15 368.594C671.599 368.911 670.974 369.07 670.274 369.07ZM666.48 371.716V361.65H667.432V363.862L667.334 365.332L667.474 366.816V371.716H666.48ZM670.204 368.188C670.726 368.188 671.193 368.071 671.604 367.838C672.014 367.595 672.341 367.259 672.584 366.83C672.826 366.391 672.948 365.887 672.948 365.318C672.948 364.749 672.826 364.249 672.584 363.82C672.341 363.391 672.014 363.055 671.604 362.812C671.193 362.569 670.726 362.448 670.204 362.448C669.681 362.448 669.21 362.569 668.79 362.812C668.379 363.055 668.052 363.391 667.81 363.82C667.576 364.249 667.46 364.749 667.46 365.318C667.46 365.887 667.576 366.391 667.81 366.83C668.052 367.259 668.379 367.595 668.79 367.838C669.21 368.071 669.681 368.188 670.204 368.188ZM675.968 369V361.65H676.92V363.652L676.822 363.302C677.027 362.742 677.373 362.317 677.858 362.028C678.343 361.729 678.945 361.58 679.664 361.58V362.546C679.627 362.546 679.589 362.546 679.552 362.546C679.515 362.537 679.477 362.532 679.44 362.532C678.665 362.532 678.059 362.77 677.62 363.246C677.181 363.713 676.962 364.38 676.962 365.248V369H675.968ZM681.478 369V361.65H682.472V369H681.478ZM681.982 360.026C681.776 360.026 681.604 359.956 681.464 359.816C681.324 359.676 681.254 359.508 681.254 359.312C681.254 359.116 681.324 358.953 681.464 358.822C681.604 358.682 681.776 358.612 681.982 358.612C682.187 358.612 682.36 358.677 682.5 358.808C682.64 358.939 682.71 359.102 682.71 359.298C682.71 359.503 682.64 359.676 682.5 359.816C682.369 359.956 682.196 360.026 681.982 360.026ZM685.238 369V358.612H686.232V369H685.238Z" fill="#313131"/>
<path d="M378.436 369V359.62L378.884 360.096H376.126V359.2H379.444V369H378.436ZM384.881 369.084C384.181 369.084 383.513 368.972 382.879 368.748C382.244 368.515 381.74 368.207 381.367 367.824L381.857 367.026C382.165 367.353 382.585 367.623 383.117 367.838C383.658 368.053 384.241 368.16 384.867 368.16C385.697 368.16 386.327 367.978 386.757 367.614C387.195 367.241 387.415 366.755 387.415 366.158C387.415 365.738 387.312 365.379 387.107 365.08C386.911 364.772 386.575 364.534 386.099 364.366C385.623 364.198 384.969 364.114 384.139 364.114H382.053L382.557 359.2H387.919V360.096H382.963L383.481 359.606L383.047 363.722L382.529 363.218H384.363C385.352 363.218 386.145 363.339 386.743 363.582C387.34 363.825 387.769 364.165 388.031 364.604C388.301 365.033 388.437 365.537 388.437 366.116C388.437 366.667 388.306 367.171 388.045 367.628C387.783 368.076 387.391 368.431 386.869 368.692C386.346 368.953 385.683 369.084 384.881 369.084ZM398.644 369V367.376L398.602 367.11V364.394C398.602 363.769 398.425 363.288 398.07 362.952C397.725 362.616 397.207 362.448 396.516 362.448C396.04 362.448 395.588 362.527 395.158 362.686C394.729 362.845 394.365 363.055 394.066 363.316L393.618 362.574C393.992 362.257 394.44 362.014 394.962 361.846C395.485 361.669 396.036 361.58 396.614 361.58C397.566 361.58 398.299 361.818 398.812 362.294C399.335 362.761 399.596 363.475 399.596 364.436V369H398.644ZM396.11 369.07C395.56 369.07 395.079 368.981 394.668 368.804C394.267 368.617 393.959 368.365 393.744 368.048C393.53 367.721 393.422 367.348 393.422 366.928C393.422 366.545 393.511 366.2 393.688 365.892C393.875 365.575 394.174 365.323 394.584 365.136C395.004 364.94 395.564 364.842 396.264 364.842H398.798V365.584H396.292C395.583 365.584 395.088 365.71 394.808 365.962C394.538 366.214 394.402 366.527 394.402 366.9C394.402 367.32 394.566 367.656 394.892 367.908C395.219 368.16 395.676 368.286 396.264 368.286C396.824 368.286 397.305 368.16 397.706 367.908C398.117 367.647 398.416 367.273 398.602 366.788L398.826 367.474C398.64 367.959 398.313 368.347 397.846 368.636C397.389 368.925 396.81 369.07 396.11 369.07ZM406.09 369.07C405.455 369.07 404.881 368.925 404.368 368.636C403.855 368.337 403.444 367.913 403.136 367.362C402.837 366.802 402.688 366.121 402.688 365.318C402.688 364.515 402.837 363.839 403.136 363.288C403.435 362.728 403.841 362.303 404.354 362.014C404.867 361.725 405.446 361.58 406.09 361.58C406.79 361.58 407.415 361.739 407.966 362.056C408.526 362.364 408.965 362.803 409.282 363.372C409.599 363.932 409.758 364.581 409.758 365.318C409.758 366.065 409.599 366.718 409.282 367.278C408.965 367.838 408.526 368.277 407.966 368.594C407.415 368.911 406.79 369.07 406.09 369.07ZM402.296 371.716V361.65H403.248V363.862L403.15 365.332L403.29 366.816V371.716H402.296ZM406.02 368.188C406.543 368.188 407.009 368.071 407.42 367.838C407.831 367.595 408.157 367.259 408.4 366.83C408.643 366.391 408.764 365.887 408.764 365.318C408.764 364.749 408.643 364.249 408.4 363.82C408.157 363.391 407.831 363.055 407.42 362.812C407.009 362.569 406.543 362.448 406.02 362.448C405.497 362.448 405.026 362.569 404.606 362.812C404.195 363.055 403.869 363.391 403.626 363.82C403.393 364.249 403.276 364.749 403.276 365.318C403.276 365.887 403.393 366.391 403.626 366.83C403.869 367.259 404.195 367.595 404.606 367.838C405.026 368.071 405.497 368.188 406.02 368.188ZM411.784 369V361.65H412.736V363.652L412.638 363.302C412.844 362.742 413.189 362.317 413.674 362.028C414.16 361.729 414.762 361.58 415.48 361.58V362.546C415.443 362.546 415.406 362.546 415.368 362.546C415.331 362.537 415.294 362.532 415.256 362.532C414.482 362.532 413.875 362.77 413.436 363.246C412.998 363.713 412.778 364.38 412.778 365.248V369H411.784ZM417.294 369V361.65H418.288V369H417.294ZM417.798 360.026C417.593 360.026 417.42 359.956 417.28 359.816C417.14 359.676 417.07 359.508 417.07 359.312C417.07 359.116 417.14 358.953 417.28 358.822C417.42 358.682 417.593 358.612 417.798 358.612C418.004 358.612 418.176 358.677 418.316 358.808C418.456 358.939 418.526 359.102 418.526 359.298C418.526 359.503 418.456 359.676 418.316 359.816C418.186 359.956 418.013 360.026 417.798 360.026ZM421.054 369V358.612H422.048V369H421.054Z" fill="#313131"/>
</svg>
