<svg width="694" height="378" viewBox="0 0 694 378" fill="none" xmlns="http://www.w3.org/2000/svg">
<rect x="692" y="352" width="20" height="320" transform="rotate(180 692 352)" fill="#BC0051"/>
<rect x="665" y="352" width="20" height="266" transform="rotate(180 665 352)" fill="#214B33"/>
<rect x="638" y="352" width="20" height="254" transform="rotate(180 638 352)" fill="#A2C33D" fill-opacity="0.4"/>
<rect x="611" y="352" width="20" height="248" transform="rotate(180 611 352)" fill="#A2C33D" fill-opacity="0.4"/>
<rect x="584" y="352" width="20" height="240" transform="rotate(180 584 352)" fill="#A2C33D" fill-opacity="0.4"/>
<rect x="557" y="352" width="20" height="226" transform="rotate(180 557 352)" fill="#A2C33D" fill-opacity="0.4"/>
<rect x="530" y="352" width="20" height="220" transform="rotate(180 530 352)" fill="#A2C33D" fill-opacity="0.4"/>
<rect x="503" y="352" width="20" height="200" transform="rotate(180 503 352)" fill="#A2C33D" fill-opacity="0.4"/>
<rect x="476" y="352" width="20" height="196" transform="rotate(180 476 352)" fill="#A2C33D" fill-opacity="0.4"/>
<rect x="449" y="352" width="20" height="184" transform="rotate(180 449 352)" fill="#A2C33D" fill-opacity="0.4"/>
<rect x="422" y="352" width="20" height="184" transform="rotate(180 422 352)" fill="#A2C33D" fill-opacity="0.4"/>
<rect x="395" y="352" width="20" height="176" transform="rotate(180 395 352)" fill="#A2C33D" fill-opacity="0.4"/>
<rect x="368" y="352" width="20" height="172" transform="rotate(180 368 352)" fill="#A2C33D" fill-opacity="0.4"/>
<rect x="341" y="352" width="20" height="172" transform="rotate(180 341 352)" fill="#A2C33D" fill-opacity="0.4"/>
<rect x="314" y="352" width="20" height="152" transform="rotate(180 314 352)" fill="#A2C33D" fill-opacity="0.4"/>
<rect x="287" y="352" width="20" height="144" transform="rotate(180 287 352)" fill="#A2C33D" fill-opacity="0.4"/>
<rect x="260" y="352" width="20" height="140" transform="rotate(180 260 352)" fill="#A2C33D" fill-opacity="0.4"/>
<rect x="233" y="352" width="20" height="126" transform="rotate(180 233 352)" fill="#A2C33D" fill-opacity="0.4"/>
<rect x="206" y="352" width="20" height="120" transform="rotate(180 206 352)" fill="#A2C33D" fill-opacity="0.4"/>
<rect x="179" y="352" width="20" height="100" transform="rotate(180 179 352)" fill="#A2C33D"/>
<path d="M169 87V251.5" stroke="#A2C33D" stroke-width="20" stroke-dasharray="10 10"/>
<path d="M16.032 241.144C14.768 241.144 13.6 240.936 12.528 240.52C11.456 240.088 10.528 239.488 9.744 238.72C8.96 237.952 8.344 237.048 7.896 236.008C7.464 234.968 7.248 233.832 7.248 232.6C7.248 231.368 7.464 230.232 7.896 229.192C8.344 228.152 8.96 227.248 9.744 226.48C10.544 225.712 11.48 225.12 12.552 224.704C13.624 224.272 14.792 224.056 16.056 224.056C17.272 224.056 18.416 224.264 19.488 224.68C20.56 225.08 21.464 225.688 22.2 226.504L21.072 227.632C20.384 226.928 19.624 226.424 18.792 226.12C17.96 225.8 17.064 225.64 16.104 225.64C15.096 225.64 14.16 225.816 13.296 226.168C12.432 226.504 11.68 226.992 11.04 227.632C10.4 228.256 9.896 228.992 9.528 229.84C9.176 230.672 9 231.592 9 232.6C9 233.608 9.176 234.536 9.528 235.384C9.896 236.216 10.4 236.952 11.04 237.592C11.68 238.216 12.432 238.704 13.296 239.056C14.16 239.392 15.096 239.56 16.104 239.56C17.064 239.56 17.96 239.4 18.792 239.08C19.624 238.76 20.384 238.248 21.072 237.544L22.2 238.672C21.464 239.488 20.56 240.104 19.488 240.52C18.416 240.936 17.264 241.144 16.032 241.144ZM30.1995 241.12C28.9835 241.12 27.8875 240.848 26.9115 240.304C25.9515 239.744 25.1915 238.984 24.6315 238.024C24.0715 237.048 23.7915 235.936 23.7915 234.688C23.7915 233.424 24.0715 232.312 24.6315 231.352C25.1915 230.392 25.9515 229.64 26.9115 229.096C27.8715 228.552 28.9675 228.28 30.1995 228.28C31.4475 228.28 32.5515 228.552 33.5115 229.096C34.4875 229.64 35.2475 230.392 35.7915 231.352C36.3515 232.312 36.6315 233.424 36.6315 234.688C36.6315 235.936 36.3515 237.048 35.7915 238.024C35.2475 238.984 34.4875 239.744 33.5115 240.304C32.5355 240.848 31.4315 241.12 30.1995 241.12ZM30.1995 239.608C31.1115 239.608 31.9195 239.408 32.6235 239.008C33.3275 238.592 33.8795 238.016 34.2795 237.28C34.6955 236.528 34.9035 235.664 34.9035 234.688C34.9035 233.696 34.6955 232.832 34.2795 232.096C33.8795 231.36 33.3275 230.792 32.6235 230.392C31.9195 229.976 31.1195 229.768 30.2235 229.768C29.3275 229.768 28.5275 229.976 27.8235 230.392C27.1195 230.792 26.5595 231.36 26.1435 232.096C25.7275 232.832 25.5195 233.696 25.5195 234.688C25.5195 235.664 25.7275 236.528 26.1435 237.28C26.5595 238.016 27.1195 238.592 27.8235 239.008C28.5275 239.408 29.3195 239.608 30.1995 239.608ZM55.8544 228.28C56.8784 228.28 57.7664 228.48 58.5184 228.88C59.2864 229.264 59.8784 229.856 60.2944 230.656C60.7264 231.456 60.9424 232.464 60.9424 233.68V241H59.2384V233.848C59.2384 232.52 58.9184 231.52 58.2784 230.848C57.6544 230.16 56.7664 229.816 55.6144 229.816C54.7504 229.816 53.9984 230 53.3584 230.368C52.7344 230.72 52.2464 231.24 51.8944 231.928C51.5584 232.6 51.3904 233.416 51.3904 234.376V241H49.6864V233.848C49.6864 232.52 49.3664 231.52 48.7264 230.848C48.0864 230.16 47.1904 229.816 46.0384 229.816C45.1904 229.816 44.4464 230 43.8064 230.368C43.1664 230.72 42.6704 231.24 42.3184 231.928C41.9824 232.6 41.8144 233.416 41.8144 234.376V241H40.1104V228.4H41.7424V231.808L41.4784 231.208C41.8624 230.296 42.4784 229.584 43.3264 229.072C44.1904 228.544 45.2064 228.28 46.3744 228.28C47.6064 228.28 48.6544 228.592 49.5184 229.216C50.3824 229.824 50.9424 230.744 51.1984 231.976L50.5264 231.712C50.8944 230.688 51.5424 229.864 52.4704 229.24C53.4144 228.6 54.5424 228.28 55.8544 228.28ZM72.0675 241.12C70.9795 241.12 69.9955 240.872 69.1155 240.376C68.2355 239.864 67.5315 239.136 67.0035 238.192C66.4915 237.232 66.2355 236.064 66.2355 234.688C66.2355 233.312 66.4915 232.152 67.0035 231.208C67.5155 230.248 68.2115 229.52 69.0915 229.024C69.9715 228.528 70.9635 228.28 72.0675 228.28C73.2675 228.28 74.3395 228.552 75.2835 229.096C76.2435 229.624 76.9955 230.376 77.5395 231.352C78.0835 232.312 78.3555 233.424 78.3555 234.688C78.3555 235.968 78.0835 237.088 77.5395 238.048C76.9955 239.008 76.2435 239.76 75.2835 240.304C74.3395 240.848 73.2675 241.12 72.0675 241.12ZM65.5635 245.656V228.4H67.1955V232.192L67.0275 234.712L67.2675 237.256V245.656H65.5635ZM71.9475 239.608C72.8435 239.608 73.6435 239.408 74.3475 239.008C75.0515 238.592 75.6115 238.016 76.0275 237.28C76.4435 236.528 76.6515 235.664 76.6515 234.688C76.6515 233.712 76.4435 232.856 76.0275 232.12C75.6115 231.384 75.0515 230.808 74.3475 230.392C73.6435 229.976 72.8435 229.768 71.9475 229.768C71.0515 229.768 70.2435 229.976 69.5235 230.392C68.8195 230.808 68.2595 231.384 67.8435 232.12C67.4435 232.856 67.2435 233.712 67.2435 234.688C67.2435 235.664 67.4435 236.528 67.8435 237.28C68.2595 238.016 68.8195 238.592 69.5235 239.008C70.2435 239.408 71.0515 239.608 71.9475 239.608ZM81.8291 241V228.4H83.4611V231.832L83.2931 231.232C83.6451 230.272 84.2371 229.544 85.0691 229.048C85.9011 228.536 86.9331 228.28 88.1651 228.28V229.936C88.1011 229.936 88.0371 229.936 87.9731 229.936C87.9091 229.92 87.8451 229.912 87.7811 229.912C86.4531 229.912 85.4131 230.32 84.6611 231.136C83.9091 231.936 83.5331 233.08 83.5331 234.568V241H81.8291ZM98.2329 241V238.216L98.1609 237.76V233.104C98.1609 232.032 97.8569 231.208 97.2489 230.632C96.6569 230.056 95.7689 229.768 94.5849 229.768C93.7689 229.768 92.9929 229.904 92.2569 230.176C91.5209 230.448 90.8969 230.808 90.3849 231.256L89.6169 229.984C90.2569 229.44 91.0249 229.024 91.9209 228.736C92.8169 228.432 93.7609 228.28 94.7529 228.28C96.3849 228.28 97.6409 228.688 98.5209 229.504C99.4169 230.304 99.8649 231.528 99.8649 233.176V241H98.2329ZM93.8889 241.12C92.9449 241.12 92.1209 240.968 91.4169 240.664C90.7289 240.344 90.2009 239.912 89.8329 239.368C89.4649 238.808 89.2809 238.168 89.2809 237.448C89.2809 236.792 89.4329 236.2 89.7369 235.672C90.0569 235.128 90.5689 234.696 91.2729 234.376C91.9929 234.04 92.9529 233.872 94.1529 233.872H98.4969V235.144H94.2009C92.9849 235.144 92.1369 235.36 91.6569 235.792C91.1929 236.224 90.9609 236.76 90.9609 237.4C90.9609 238.12 91.2409 238.696 91.8009 239.128C92.3609 239.56 93.1449 239.776 94.1529 239.776C95.1129 239.776 95.9369 239.56 96.6249 239.128C97.3289 238.68 97.8409 238.04 98.1609 237.208L98.5449 238.384C98.2249 239.216 97.6649 239.88 96.8649 240.376C96.0809 240.872 95.0889 241.12 93.8889 241.12ZM108.477 241.12C107.293 241.12 106.381 240.8 105.741 240.16C105.101 239.52 104.781 238.616 104.781 237.448V225.616H106.485V237.352C106.485 238.088 106.669 238.656 107.037 239.056C107.421 239.456 107.965 239.656 108.669 239.656C109.421 239.656 110.045 239.44 110.541 239.008L111.141 240.232C110.805 240.536 110.397 240.76 109.917 240.904C109.453 241.048 108.973 241.12 108.477 241.12ZM102.525 229.816V228.4H110.325V229.816H102.525ZM119.15 241.12C117.838 241.12 116.686 240.848 115.694 240.304C114.702 239.744 113.926 238.984 113.366 238.024C112.806 237.048 112.526 235.936 112.526 234.688C112.526 233.44 112.79 232.336 113.318 231.376C113.862 230.416 114.598 229.664 115.526 229.12C116.47 228.56 117.526 228.28 118.694 228.28C119.878 228.28 120.926 228.552 121.838 229.096C122.766 229.624 123.494 230.376 124.022 231.352C124.55 232.312 124.814 233.424 124.814 234.688C124.814 234.768 124.806 234.856 124.79 234.952C124.79 235.032 124.79 235.12 124.79 235.216H113.822V233.944H123.878L123.206 234.448C123.206 233.536 123.006 232.728 122.606 232.024C122.222 231.304 121.694 230.744 121.022 230.344C120.35 229.944 119.574 229.744 118.694 229.744C117.83 229.744 117.054 229.944 116.366 230.344C115.678 230.744 115.142 231.304 114.758 232.024C114.374 232.744 114.182 233.568 114.182 234.496V234.76C114.182 235.72 114.39 236.568 114.806 237.304C115.238 238.024 115.83 238.592 116.582 239.008C117.35 239.408 118.222 239.608 119.198 239.608C119.966 239.608 120.678 239.472 121.334 239.2C122.006 238.928 122.582 238.512 123.062 237.952L124.022 239.056C123.462 239.728 122.758 240.24 121.91 240.592C121.078 240.944 120.158 241.12 119.15 241.12ZM8.664 273V258.816C8.664 257.696 8.992 256.792 9.648 256.104C10.304 255.416 11.248 255.072 12.48 255.072C12.96 255.072 13.424 255.136 13.872 255.264C14.32 255.392 14.696 255.592 15 255.864L14.424 257.136C14.184 256.928 13.904 256.776 13.584 256.68C13.264 256.568 12.92 256.512 12.552 256.512C11.832 256.512 11.28 256.712 10.896 257.112C10.512 257.512 10.32 258.104 10.32 258.888V260.808L10.368 261.6V273H8.664ZM6.408 261.816V260.4H14.208V261.816H6.408ZM21.7168 273.12C20.6448 273.12 19.7088 272.92 18.9088 272.52C18.1088 272.12 17.4848 271.52 17.0368 270.72C16.6048 269.92 16.3888 268.92 16.3888 267.72V260.4H18.0928V267.528C18.0928 268.872 18.4208 269.888 19.0768 270.576C19.7488 271.248 20.6848 271.584 21.8848 271.584C22.7648 271.584 23.5248 271.408 24.1648 271.056C24.8208 270.688 25.3168 270.16 25.6528 269.472C26.0048 268.784 26.1808 267.96 26.1808 267V260.4H27.8848V273H26.2528V269.544L26.5168 270.168C26.1168 271.096 25.4928 271.824 24.6448 272.352C23.8128 272.864 22.8368 273.12 21.7168 273.12ZM36.6178 273.12C35.4338 273.12 34.5218 272.8 33.8818 272.16C33.2418 271.52 32.9218 270.616 32.9218 269.448V257.616H34.6258V269.352C34.6258 270.088 34.8098 270.656 35.1778 271.056C35.5618 271.456 36.1058 271.656 36.8098 271.656C37.5618 271.656 38.1858 271.44 38.6818 271.008L39.2818 272.232C38.9458 272.536 38.5378 272.76 38.0578 272.904C37.5938 273.048 37.1138 273.12 36.6178 273.12ZM30.6658 261.816V260.4H38.4658V261.816H30.6658ZM47.5918 273.12C46.5198 273.12 45.5838 272.92 44.7838 272.52C43.9838 272.12 43.3598 271.52 42.9118 270.72C42.4798 269.92 42.2638 268.92 42.2638 267.72V260.4H43.9678V267.528C43.9678 268.872 44.2958 269.888 44.9518 270.576C45.6238 271.248 46.5598 271.584 47.7598 271.584C48.6398 271.584 49.3998 271.408 50.0398 271.056C50.6958 270.688 51.1918 270.16 51.5278 269.472C51.8798 268.784 52.0558 267.96 52.0558 267V260.4H53.7598V273H52.1278V269.544L52.3918 270.168C51.9918 271.096 51.3678 271.824 50.5198 272.352C49.6878 272.864 48.7118 273.12 47.5918 273.12ZM58.5088 273V260.4H60.1408V263.832L59.9728 263.232C60.3248 262.272 60.9168 261.544 61.7488 261.048C62.5808 260.536 63.6128 260.28 64.8448 260.28V261.936C64.7808 261.936 64.7168 261.936 64.6528 261.936C64.5888 261.92 64.5248 261.912 64.4608 261.912C63.1328 261.912 62.0928 262.32 61.3408 263.136C60.5888 263.936 60.2128 265.08 60.2128 266.568V273H58.5088ZM73.1889 273.12C71.8769 273.12 70.7249 272.848 69.7329 272.304C68.7409 271.744 67.9649 270.984 67.4049 270.024C66.8449 269.048 66.5649 267.936 66.5649 266.688C66.5649 265.44 66.8289 264.336 67.3569 263.376C67.9009 262.416 68.6369 261.664 69.5649 261.12C70.5089 260.56 71.5649 260.28 72.7329 260.28C73.9169 260.28 74.9649 260.552 75.8769 261.096C76.8049 261.624 77.5329 262.376 78.0609 263.352C78.5889 264.312 78.8529 265.424 78.8529 266.688C78.8529 266.768 78.8449 266.856 78.8289 266.952C78.8289 267.032 78.8289 267.12 78.8289 267.216H67.8609V265.944H77.9169L77.2449 266.448C77.2449 265.536 77.0449 264.728 76.6449 264.024C76.2609 263.304 75.7329 262.744 75.0609 262.344C74.3889 261.944 73.6129 261.744 72.7329 261.744C71.8689 261.744 71.0929 261.944 70.4049 262.344C69.7169 262.744 69.1809 263.304 68.7969 264.024C68.4129 264.744 68.2209 265.568 68.2209 266.496V266.76C68.2209 267.72 68.4289 268.568 68.8449 269.304C69.2769 270.024 69.8689 270.592 70.6209 271.008C71.3889 271.408 72.2609 271.608 73.2369 271.608C74.0049 271.608 74.7169 271.472 75.3729 271.2C76.0449 270.928 76.6209 270.512 77.1009 269.952L78.0609 271.056C77.5009 271.728 76.7969 272.24 75.9489 272.592C75.1169 272.944 74.1969 273.12 73.1889 273.12ZM85.7053 273.12C84.6653 273.12 83.6813 272.976 82.7533 272.688C81.8253 272.384 81.0973 272.008 80.5693 271.56L81.3373 270.216C81.8493 270.6 82.5053 270.936 83.3053 271.224C84.1053 271.496 84.9453 271.632 85.8253 271.632C87.0253 271.632 87.8893 271.448 88.4173 271.08C88.9453 270.696 89.2093 270.192 89.2093 269.568C89.2093 269.104 89.0573 268.744 88.7533 268.488C88.4653 268.216 88.0813 268.016 87.6013 267.888C87.1213 267.744 86.5853 267.624 85.9933 267.528C85.4013 267.432 84.8093 267.32 84.2173 267.192C83.6413 267.064 83.1133 266.88 82.6333 266.64C82.1533 266.384 81.7613 266.04 81.4573 265.608C81.1693 265.176 81.0253 264.6 81.0253 263.88C81.0253 263.192 81.2173 262.576 81.6013 262.032C81.9853 261.488 82.5453 261.064 83.2813 260.76C84.0333 260.44 84.9453 260.28 86.0173 260.28C86.8333 260.28 87.6493 260.392 88.4653 260.616C89.2813 260.824 89.9533 261.104 90.4813 261.456L89.7373 262.824C89.1773 262.44 88.5773 262.168 87.9373 262.008C87.2973 261.832 86.6573 261.744 86.0173 261.744C84.8813 261.744 84.0413 261.944 83.4973 262.344C82.9693 262.728 82.7053 263.224 82.7053 263.832C82.7053 264.312 82.8493 264.688 83.1373 264.96C83.4413 265.232 83.8333 265.448 84.3133 265.608C84.8093 265.752 85.3453 265.872 85.9213 265.968C86.5133 266.064 87.0973 266.184 87.6733 266.328C88.2653 266.456 88.8013 266.64 89.2813 266.88C89.7773 267.104 90.1693 267.432 90.4573 267.864C90.7613 268.28 90.9133 268.832 90.9133 269.52C90.9133 270.256 90.7053 270.896 90.2893 271.44C89.8893 271.968 89.2973 272.384 88.5133 272.688C87.7453 272.976 86.8093 273.12 85.7053 273.12ZM108.217 273V270.216L108.145 269.76V265.104C108.145 264.032 107.841 263.208 107.233 262.632C106.641 262.056 105.753 261.768 104.569 261.768C103.753 261.768 102.977 261.904 102.241 262.176C101.505 262.448 100.881 262.808 100.369 263.256L99.6013 261.984C100.241 261.44 101.009 261.024 101.905 260.736C102.801 260.432 103.745 260.28 104.737 260.28C106.369 260.28 107.625 260.688 108.505 261.504C109.401 262.304 109.849 263.528 109.849 265.176V273H108.217ZM103.873 273.12C102.929 273.12 102.105 272.968 101.401 272.664C100.713 272.344 100.185 271.912 99.8173 271.368C99.4493 270.808 99.2653 270.168 99.2653 269.448C99.2653 268.792 99.4173 268.2 99.7213 267.672C100.041 267.128 100.553 266.696 101.257 266.376C101.977 266.04 102.937 265.872 104.137 265.872H108.481V267.144H104.185C102.969 267.144 102.121 267.36 101.641 267.792C101.177 268.224 100.945 268.76 100.945 269.4C100.945 270.12 101.225 270.696 101.785 271.128C102.345 271.56 103.129 271.776 104.137 271.776C105.097 271.776 105.921 271.56 106.609 271.128C107.313 270.68 107.825 270.04 108.145 269.208L108.529 270.384C108.209 271.216 107.649 271.88 106.849 272.376C106.065 272.872 105.073 273.12 103.873 273.12ZM13.392 305.12C12.192 305.12 11.112 304.848 10.152 304.304C9.208 303.76 8.464 303.008 7.92 302.048C7.376 301.088 7.104 299.968 7.104 298.688C7.104 297.424 7.376 296.312 7.92 295.352C8.464 294.376 9.208 293.624 10.152 293.096C11.112 292.552 12.192 292.28 13.392 292.28C14.512 292.28 15.504 292.528 16.368 293.024C17.248 293.52 17.944 294.248 18.456 295.208C18.968 296.152 19.224 297.312 19.224 298.688C19.224 300.064 18.96 301.232 18.432 302.192C17.92 303.136 17.224 303.864 16.344 304.376C15.48 304.872 14.496 305.12 13.392 305.12ZM13.512 303.608C14.408 303.608 15.208 303.408 15.912 303.008C16.632 302.592 17.192 302.016 17.592 301.28C18.008 300.528 18.216 299.664 18.216 298.688C18.216 297.712 18.008 296.856 17.592 296.12C17.192 295.384 16.632 294.808 15.912 294.392C15.208 293.976 14.408 293.768 13.512 293.768C12.632 293.768 11.84 293.976 11.136 294.392C10.432 294.808 9.872 295.384 9.456 296.12C9.04 296.856 8.832 297.712 8.832 298.688C8.832 299.664 9.04 300.528 9.456 301.28C9.872 302.016 10.432 302.592 11.136 303.008C11.84 303.408 12.632 303.608 13.512 303.608ZM18.192 309.656V301.256L18.432 298.712L18.264 296.192V292.4H19.896V309.656H18.192ZM29.8496 305.12C28.7776 305.12 27.8416 304.92 27.0416 304.52C26.2416 304.12 25.6176 303.52 25.1696 302.72C24.7376 301.92 24.5216 300.92 24.5216 299.72V292.4H26.2256V299.528C26.2256 300.872 26.5536 301.888 27.2096 302.576C27.8816 303.248 28.8176 303.584 30.0176 303.584C30.8976 303.584 31.6576 303.408 32.2976 303.056C32.9536 302.688 33.4496 302.16 33.7856 301.472C34.1376 300.784 34.3136 299.96 34.3136 299V292.4H36.0176V305H34.3856V301.544L34.6496 302.168C34.2496 303.096 33.6256 303.824 32.7776 304.352C31.9456 304.864 30.9696 305.12 29.8496 305.12ZM46.1186 305.12C44.8066 305.12 43.6546 304.848 42.6626 304.304C41.6706 303.744 40.8946 302.984 40.3346 302.024C39.7746 301.048 39.4946 299.936 39.4946 298.688C39.4946 297.44 39.7586 296.336 40.2866 295.376C40.8306 294.416 41.5666 293.664 42.4946 293.12C43.4386 292.56 44.4946 292.28 45.6626 292.28C46.8466 292.28 47.8946 292.552 48.8066 293.096C49.7346 293.624 50.4626 294.376 50.9906 295.352C51.5186 296.312 51.7826 297.424 51.7826 298.688C51.7826 298.768 51.7746 298.856 51.7586 298.952C51.7586 299.032 51.7586 299.12 51.7586 299.216H40.7906V297.944H50.8466L50.1746 298.448C50.1746 297.536 49.9746 296.728 49.5746 296.024C49.1906 295.304 48.6626 294.744 47.9906 294.344C47.3186 293.944 46.5426 293.744 45.6626 293.744C44.7986 293.744 44.0226 293.944 43.3346 294.344C42.6466 294.744 42.1106 295.304 41.7266 296.024C41.3426 296.744 41.1506 297.568 41.1506 298.496V298.76C41.1506 299.72 41.3586 300.568 41.7746 301.304C42.2066 302.024 42.7986 302.592 43.5506 303.008C44.3186 303.408 45.1906 303.608 46.1666 303.608C46.9346 303.608 47.6466 303.472 48.3026 303.2C48.9746 302.928 49.5506 302.512 50.0306 301.952L50.9906 303.056C50.4306 303.728 49.7266 304.24 48.8786 304.592C48.0466 304.944 47.1266 305.12 46.1186 305.12ZM58.635 305.12C57.595 305.12 56.611 304.976 55.683 304.688C54.755 304.384 54.027 304.008 53.499 303.56L54.267 302.216C54.779 302.6 55.435 302.936 56.235 303.224C57.035 303.496 57.875 303.632 58.755 303.632C59.955 303.632 60.819 303.448 61.347 303.08C61.875 302.696 62.139 302.192 62.139 301.568C62.139 301.104 61.987 300.744 61.683 300.488C61.395 300.216 61.011 300.016 60.531 299.888C60.051 299.744 59.515 299.624 58.923 299.528C58.331 299.432 57.739 299.32 57.147 299.192C56.571 299.064 56.043 298.88 55.563 298.64C55.083 298.384 54.691 298.04 54.387 297.608C54.099 297.176 53.955 296.6 53.955 295.88C53.955 295.192 54.147 294.576 54.531 294.032C54.915 293.488 55.475 293.064 56.211 292.76C56.963 292.44 57.875 292.28 58.947 292.28C59.763 292.28 60.579 292.392 61.395 292.616C62.211 292.824 62.883 293.104 63.411 293.456L62.667 294.824C62.107 294.44 61.507 294.168 60.867 294.008C60.227 293.832 59.587 293.744 58.947 293.744C57.811 293.744 56.971 293.944 56.427 294.344C55.899 294.728 55.635 295.224 55.635 295.832C55.635 296.312 55.779 296.688 56.067 296.96C56.371 297.232 56.763 297.448 57.243 297.608C57.739 297.752 58.275 297.872 58.851 297.968C59.443 298.064 60.027 298.184 60.603 298.328C61.195 298.456 61.731 298.64 62.211 298.88C62.707 299.104 63.099 299.432 63.387 299.864C63.691 300.28 63.843 300.832 63.843 301.52C63.843 302.256 63.635 302.896 63.219 303.44C62.819 303.968 62.227 304.384 61.443 304.688C60.675 304.976 59.739 305.12 58.635 305.12ZM70.9538 305.12C69.7698 305.12 68.8578 304.8 68.2178 304.16C67.5778 303.52 67.2578 302.616 67.2578 301.448V289.616H68.9618V301.352C68.9618 302.088 69.1458 302.656 69.5138 303.056C69.8978 303.456 70.4418 303.656 71.1458 303.656C71.8978 303.656 72.5218 303.44 73.0178 303.008L73.6178 304.232C73.2818 304.536 72.8738 304.76 72.3938 304.904C71.9298 305.048 71.4498 305.12 70.9538 305.12ZM65.0018 293.816V292.4H72.8018V293.816H65.0018ZM81.4104 305.12C80.1944 305.12 79.0984 304.848 78.1224 304.304C77.1624 303.744 76.4024 302.984 75.8424 302.024C75.2824 301.048 75.0024 299.936 75.0024 298.688C75.0024 297.424 75.2824 296.312 75.8424 295.352C76.4024 294.392 77.1624 293.64 78.1224 293.096C79.0824 292.552 80.1784 292.28 81.4104 292.28C82.6584 292.28 83.7624 292.552 84.7224 293.096C85.6984 293.64 86.4584 294.392 87.0024 295.352C87.5624 296.312 87.8424 297.424 87.8424 298.688C87.8424 299.936 87.5624 301.048 87.0024 302.024C86.4584 302.984 85.6984 303.744 84.7224 304.304C83.7464 304.848 82.6424 305.12 81.4104 305.12ZM81.4104 303.608C82.3224 303.608 83.1304 303.408 83.8344 303.008C84.5384 302.592 85.0904 302.016 85.4904 301.28C85.9064 300.528 86.1144 299.664 86.1144 298.688C86.1144 297.696 85.9064 296.832 85.4904 296.096C85.0904 295.36 84.5384 294.792 83.8344 294.392C83.1304 293.976 82.3304 293.768 81.4344 293.768C80.5384 293.768 79.7384 293.976 79.0344 294.392C78.3304 294.792 77.7704 295.36 77.3544 296.096C76.9384 296.832 76.7304 297.696 76.7304 298.688C76.7304 299.664 76.9384 300.528 77.3544 301.28C77.7704 302.016 78.3304 302.592 79.0344 303.008C79.7384 303.408 80.5304 303.608 81.4104 303.608ZM14.88 337.12C13.792 337.12 12.808 336.872 11.928 336.376C11.048 335.864 10.344 335.136 9.816 334.192C9.304 333.232 9.048 332.064 9.048 330.688C9.048 329.312 9.304 328.152 9.816 327.208C10.328 326.248 11.024 325.52 11.904 325.024C12.784 324.528 13.776 324.28 14.88 324.28C16.08 324.28 17.152 324.552 18.096 325.096C19.056 325.624 19.808 326.376 20.352 327.352C20.896 328.312 21.168 329.424 21.168 330.688C21.168 331.968 20.896 333.088 20.352 334.048C19.808 335.008 19.056 335.76 18.096 336.304C17.152 336.848 16.08 337.12 14.88 337.12ZM8.376 341.656V324.4H10.008V328.192L9.84 330.712L10.08 333.256V341.656H8.376ZM14.76 335.608C15.656 335.608 16.456 335.408 17.16 335.008C17.864 334.592 18.424 334.016 18.84 333.28C19.256 332.528 19.464 331.664 19.464 330.688C19.464 329.712 19.256 328.856 18.84 328.12C18.424 327.384 17.864 326.808 17.16 326.392C16.456 325.976 15.656 325.768 14.76 325.768C13.864 325.768 13.056 325.976 12.336 326.392C11.632 326.808 11.072 327.384 10.656 328.12C10.256 328.856 10.056 329.712 10.056 330.688C10.056 331.664 10.256 332.528 10.656 333.28C11.072 334.016 11.632 334.592 12.336 335.008C13.056 335.408 13.864 335.608 14.76 335.608ZM24.6416 337V324.4H26.2736V327.832L26.1056 327.232C26.4576 326.272 27.0496 325.544 27.8816 325.048C28.7136 324.536 29.7456 324.28 30.9776 324.28V325.936C30.9136 325.936 30.8496 325.936 30.7856 325.936C30.7216 325.92 30.6576 325.912 30.5936 325.912C29.2656 325.912 28.2256 326.32 27.4736 327.136C26.7216 327.936 26.3456 329.08 26.3456 330.568V337H24.6416ZM39.3218 337.12C38.0098 337.12 36.8578 336.848 35.8658 336.304C34.8738 335.744 34.0978 334.984 33.5378 334.024C32.9778 333.048 32.6978 331.936 32.6978 330.688C32.6978 329.44 32.9618 328.336 33.4898 327.376C34.0338 326.416 34.7698 325.664 35.6978 325.12C36.6418 324.56 37.6978 324.28 38.8658 324.28C40.0498 324.28 41.0978 324.552 42.0098 325.096C42.9378 325.624 43.6658 326.376 44.1938 327.352C44.7218 328.312 44.9858 329.424 44.9858 330.688C44.9858 330.768 44.9778 330.856 44.9618 330.952C44.9618 331.032 44.9618 331.12 44.9618 331.216H33.9938V329.944H44.0498L43.3778 330.448C43.3778 329.536 43.1778 328.728 42.7778 328.024C42.3938 327.304 41.8658 326.744 41.1938 326.344C40.5218 325.944 39.7458 325.744 38.8658 325.744C38.0018 325.744 37.2258 325.944 36.5378 326.344C35.8498 326.744 35.3138 327.304 34.9298 328.024C34.5458 328.744 34.3538 329.568 34.3538 330.496V330.76C34.3538 331.72 34.5618 332.568 34.9778 333.304C35.4098 334.024 36.0018 334.592 36.7538 335.008C37.5218 335.408 38.3938 335.608 39.3698 335.608C40.1378 335.608 40.8498 335.472 41.5058 335.2C42.1778 334.928 42.7538 334.512 43.2338 333.952L44.1938 335.056C43.6338 335.728 42.9298 336.24 42.0818 336.592C41.2498 336.944 40.3298 337.12 39.3218 337.12ZM46.9689 337V335.872L55.3689 325.24L55.7289 325.816H47.1129V324.4H57.0729V325.504L48.6969 336.16L48.2649 335.584H57.2409V337H46.9689ZM59.2268 337V335.872L67.6268 325.24L67.9868 325.816H59.3708V324.4H69.3308V325.504L60.9548 336.16L60.5228 335.584H69.4988V337H59.2268ZM77.7776 337.12C76.5616 337.12 75.4656 336.848 74.4896 336.304C73.5296 335.744 72.7696 334.984 72.2096 334.024C71.6496 333.048 71.3696 331.936 71.3696 330.688C71.3696 329.424 71.6496 328.312 72.2096 327.352C72.7696 326.392 73.5296 325.64 74.4896 325.096C75.4496 324.552 76.5456 324.28 77.7776 324.28C79.0256 324.28 80.1296 324.552 81.0896 325.096C82.0656 325.64 82.8256 326.392 83.3696 327.352C83.9296 328.312 84.2096 329.424 84.2096 330.688C84.2096 331.936 83.9296 333.048 83.3696 334.024C82.8256 334.984 82.0656 335.744 81.0896 336.304C80.1136 336.848 79.0096 337.12 77.7776 337.12ZM77.7776 335.608C78.6896 335.608 79.4976 335.408 80.2016 335.008C80.9056 334.592 81.4576 334.016 81.8576 333.28C82.2736 332.528 82.4816 331.664 82.4816 330.688C82.4816 329.696 82.2736 328.832 81.8576 328.096C81.4576 327.36 80.9056 326.792 80.2016 326.392C79.4976 325.976 78.6976 325.768 77.8016 325.768C76.9056 325.768 76.1056 325.976 75.4016 326.392C74.6976 326.792 74.1376 327.36 73.7216 328.096C73.3056 328.832 73.0976 329.696 73.0976 330.688C73.0976 331.664 73.3056 332.528 73.7216 333.28C74.1376 334.016 74.6976 334.592 75.4016 335.008C76.1056 335.408 76.8976 335.608 77.7776 335.608Z" fill="#A2C33D"/>
<path d="M122 252H162" stroke="#A2C33D"/>
<path d="M336 86H666" stroke="#214B33"/>
<path d="M12.512 83L5.072 66.2H6.992L13.952 82.016H12.896L19.904 66.2H21.704L14.264 83H12.512ZM28.1733 83.12C26.8613 83.12 25.7093 82.848 24.7173 82.304C23.7253 81.744 22.9493 80.984 22.3893 80.024C21.8293 79.048 21.5493 77.936 21.5493 76.688C21.5493 75.44 21.8133 74.336 22.3413 73.376C22.8853 72.416 23.6213 71.664 24.5493 71.12C25.4933 70.56 26.5493 70.28 27.7173 70.28C28.9013 70.28 29.9493 70.552 30.8613 71.096C31.7893 71.624 32.5173 72.376 33.0453 73.352C33.5733 74.312 33.8373 75.424 33.8373 76.688C33.8373 76.768 33.8293 76.856 33.8133 76.952C33.8133 77.032 33.8133 77.12 33.8133 77.216H22.8453V75.944H32.9013L32.2293 76.448C32.2293 75.536 32.0293 74.728 31.6293 74.024C31.2453 73.304 30.7173 72.744 30.0453 72.344C29.3733 71.944 28.5973 71.744 27.7173 71.744C26.8533 71.744 26.0773 71.944 25.3893 72.344C24.7013 72.744 24.1653 73.304 23.7813 74.024C23.3973 74.744 23.2053 75.568 23.2053 76.496V76.76C23.2053 77.72 23.4133 78.568 23.8293 79.304C24.2613 80.024 24.8533 80.592 25.6053 81.008C26.3733 81.408 27.2453 81.608 28.2213 81.608C28.9893 81.608 29.7013 81.472 30.3573 81.2C31.0293 80.928 31.6053 80.512 32.0853 79.952L33.0453 81.056C32.4853 81.728 31.7813 82.24 30.9333 82.592C30.1013 82.944 29.1813 83.12 28.1733 83.12ZM43.7377 70.28C44.7617 70.28 45.6577 70.48 46.4257 70.88C47.2097 71.264 47.8177 71.856 48.2497 72.656C48.6977 73.456 48.9217 74.464 48.9217 75.68V83H47.2177V75.848C47.2177 74.52 46.8817 73.52 46.2097 72.848C45.5537 72.16 44.6257 71.816 43.4257 71.816C42.5297 71.816 41.7457 72 41.0737 72.368C40.4177 72.72 39.9057 73.24 39.5377 73.928C39.1857 74.6 39.0097 75.416 39.0097 76.376V83H37.3057V70.4H38.9377V73.856L38.6737 73.208C39.0737 72.296 39.7137 71.584 40.5937 71.072C41.4737 70.544 42.5217 70.28 43.7377 70.28ZM58.5404 83.12C57.3404 83.12 56.2604 82.848 55.3004 82.304C54.3564 81.76 53.6124 81.008 53.0684 80.048C52.5244 79.072 52.2524 77.952 52.2524 76.688C52.2524 75.408 52.5244 74.288 53.0684 73.328C53.6124 72.368 54.3564 71.624 55.3004 71.096C56.2604 70.552 57.3404 70.28 58.5404 70.28C59.6444 70.28 60.6284 70.528 61.4924 71.024C62.3724 71.52 63.0684 72.248 63.5804 73.208C64.1084 74.152 64.3724 75.312 64.3724 76.688C64.3724 78.048 64.1164 79.208 63.6044 80.168C63.0924 81.128 62.3964 81.864 61.5164 82.376C60.6524 82.872 59.6604 83.12 58.5404 83.12ZM58.6604 81.608C59.5564 81.608 60.3564 81.408 61.0604 81.008C61.7804 80.592 62.3404 80.016 62.7404 79.28C63.1564 78.528 63.3644 77.664 63.3644 76.688C63.3644 75.696 63.1564 74.832 62.7404 74.096C62.3404 73.36 61.7804 72.792 61.0604 72.392C60.3564 71.976 59.5564 71.768 58.6604 71.768C57.7804 71.768 56.9884 71.976 56.2844 72.392C55.5804 72.792 55.0204 73.36 54.6044 74.096C54.1884 74.832 53.9804 75.696 53.9804 76.688C53.9804 77.664 54.1884 78.528 54.6044 79.28C55.0204 80.016 55.5804 80.592 56.2844 81.008C56.9884 81.408 57.7804 81.608 58.6604 81.608ZM63.4124 83V79.208L63.5804 76.664L63.3404 74.12V65.192H65.0444V83H63.4124ZM75.1421 83.12C73.8301 83.12 72.6781 82.848 71.6861 82.304C70.6941 81.744 69.9181 80.984 69.3581 80.024C68.7981 79.048 68.5181 77.936 68.5181 76.688C68.5181 75.44 68.7821 74.336 69.3101 73.376C69.8541 72.416 70.5901 71.664 71.5181 71.12C72.4621 70.56 73.5181 70.28 74.6861 70.28C75.8701 70.28 76.9181 70.552 77.8301 71.096C78.7581 71.624 79.4861 72.376 80.0141 73.352C80.5421 74.312 80.8061 75.424 80.8061 76.688C80.8061 76.768 80.7981 76.856 80.7821 76.952C80.7821 77.032 80.7821 77.12 80.7821 77.216H69.8141V75.944H79.8701L79.1981 76.448C79.1981 75.536 78.9981 74.728 78.5981 74.024C78.2141 73.304 77.6861 72.744 77.0141 72.344C76.3421 71.944 75.5661 71.744 74.6861 71.744C73.8221 71.744 73.0461 71.944 72.3581 72.344C71.6701 72.744 71.1341 73.304 70.7501 74.024C70.3661 74.744 70.1741 75.568 70.1741 76.496V76.76C70.1741 77.72 70.3821 78.568 70.7981 79.304C71.2301 80.024 71.8221 80.592 72.5741 81.008C73.3421 81.408 74.2141 81.608 75.1901 81.608C75.9581 81.608 76.6701 81.472 77.3261 81.2C77.9981 80.928 78.5741 80.512 79.0541 79.952L80.0141 81.056C79.4541 81.728 78.7501 82.24 77.9021 82.592C77.0701 82.944 76.1501 83.12 75.1421 83.12ZM88.2584 83.12C87.0744 83.12 86.1624 82.8 85.5224 82.16C84.8824 81.52 84.5624 80.616 84.5624 79.448V67.616H86.2664V79.352C86.2664 80.088 86.4504 80.656 86.8184 81.056C87.2024 81.456 87.7464 81.656 88.4504 81.656C89.2024 81.656 89.8264 81.44 90.3224 81.008L90.9224 82.232C90.5864 82.536 90.1784 82.76 89.6984 82.904C89.2344 83.048 88.7544 83.12 88.2584 83.12ZM82.3064 71.816V70.4H90.1064V71.816H82.3064ZM98.9311 83.12C97.6191 83.12 96.4671 82.848 95.4751 82.304C94.4831 81.744 93.7071 80.984 93.1471 80.024C92.5871 79.048 92.3071 77.936 92.3071 76.688C92.3071 75.44 92.5711 74.336 93.0991 73.376C93.6431 72.416 94.3791 71.664 95.3071 71.12C96.2511 70.56 97.3071 70.28 98.4751 70.28C99.6591 70.28 100.707 70.552 101.619 71.096C102.547 71.624 103.275 72.376 103.803 73.352C104.331 74.312 104.595 75.424 104.595 76.688C104.595 76.768 104.587 76.856 104.571 76.952C104.571 77.032 104.571 77.12 104.571 77.216H93.6031V75.944H103.659L102.987 76.448C102.987 75.536 102.787 74.728 102.387 74.024C102.003 73.304 101.475 72.744 100.803 72.344C100.131 71.944 99.3551 71.744 98.4751 71.744C97.6111 71.744 96.8351 71.944 96.1471 72.344C95.4591 72.744 94.9231 73.304 94.5391 74.024C94.1551 74.744 93.9631 75.568 93.9631 76.496V76.76C93.9631 77.72 94.1711 78.568 94.5871 79.304C95.0191 80.024 95.6111 80.592 96.3631 81.008C97.1311 81.408 98.0031 81.608 98.9791 81.608C99.7471 81.608 100.459 81.472 101.115 81.2C101.787 80.928 102.363 80.512 102.843 79.952L103.803 81.056C103.243 81.728 102.539 82.24 101.691 82.592C100.859 82.944 99.9391 83.12 98.9311 83.12ZM114.633 83V68.816C114.633 67.696 114.961 66.792 115.617 66.104C116.273 65.416 117.217 65.072 118.449 65.072C118.929 65.072 119.393 65.136 119.841 65.264C120.289 65.392 120.665 65.592 120.969 65.864L120.393 67.136C120.153 66.928 119.873 66.776 119.553 66.68C119.233 66.568 118.889 66.512 118.521 66.512C117.801 66.512 117.249 66.712 116.865 67.112C116.481 67.512 116.289 68.104 116.289 68.888V70.808L116.337 71.6V83H114.633ZM112.377 71.816V70.4H120.177V71.816H112.377ZM127.686 83.12C126.614 83.12 125.678 82.92 124.878 82.52C124.078 82.12 123.454 81.52 123.006 80.72C122.574 79.92 122.358 78.92 122.358 77.72V70.4H124.062V77.528C124.062 78.872 124.39 79.888 125.046 80.576C125.718 81.248 126.654 81.584 127.854 81.584C128.734 81.584 129.494 81.408 130.134 81.056C130.79 80.688 131.286 80.16 131.622 79.472C131.974 78.784 132.15 77.96 132.15 77V70.4H133.854V83H132.222V79.544L132.486 80.168C132.086 81.096 131.462 81.824 130.614 82.352C129.782 82.864 128.806 83.12 127.686 83.12ZM142.587 83.12C141.403 83.12 140.491 82.8 139.851 82.16C139.211 81.52 138.891 80.616 138.891 79.448V67.616H140.595V79.352C140.595 80.088 140.779 80.656 141.147 81.056C141.531 81.456 142.075 81.656 142.779 81.656C143.531 81.656 144.155 81.44 144.651 81.008L145.251 82.232C144.915 82.536 144.507 82.76 144.027 82.904C143.563 83.048 143.083 83.12 142.587 83.12ZM136.635 71.816V70.4H144.435V71.816H136.635ZM153.561 83.12C152.489 83.12 151.553 82.92 150.753 82.52C149.953 82.12 149.329 81.52 148.881 80.72C148.449 79.92 148.233 78.92 148.233 77.72V70.4H149.937V77.528C149.937 78.872 150.265 79.888 150.921 80.576C151.593 81.248 152.529 81.584 153.729 81.584C154.609 81.584 155.369 81.408 156.009 81.056C156.665 80.688 157.161 80.16 157.497 79.472C157.849 78.784 158.025 77.96 158.025 77V70.4H159.729V83H158.097V79.544L158.361 80.168C157.961 81.096 157.337 81.824 156.489 82.352C155.657 82.864 154.681 83.12 153.561 83.12ZM164.478 83V70.4H166.11V73.832L165.942 73.232C166.294 72.272 166.886 71.544 167.718 71.048C168.55 70.536 169.582 70.28 170.814 70.28V71.936C170.75 71.936 170.686 71.936 170.622 71.936C170.558 71.92 170.494 71.912 170.43 71.912C169.102 71.912 168.062 72.32 167.31 73.136C166.558 73.936 166.182 75.08 166.182 76.568V83H164.478ZM179.158 83.12C177.846 83.12 176.694 82.848 175.702 82.304C174.71 81.744 173.934 80.984 173.374 80.024C172.814 79.048 172.534 77.936 172.534 76.688C172.534 75.44 172.798 74.336 173.326 73.376C173.87 72.416 174.606 71.664 175.534 71.12C176.478 70.56 177.534 70.28 178.702 70.28C179.886 70.28 180.934 70.552 181.846 71.096C182.774 71.624 183.502 72.376 184.03 73.352C184.558 74.312 184.822 75.424 184.822 76.688C184.822 76.768 184.814 76.856 184.798 76.952C184.798 77.032 184.798 77.12 184.798 77.216H173.83V75.944H183.886L183.214 76.448C183.214 75.536 183.014 74.728 182.614 74.024C182.23 73.304 181.702 72.744 181.03 72.344C180.358 71.944 179.582 71.744 178.702 71.744C177.838 71.744 177.062 71.944 176.374 72.344C175.686 72.744 175.15 73.304 174.766 74.024C174.382 74.744 174.19 75.568 174.19 76.496V76.76C174.19 77.72 174.398 78.568 174.814 79.304C175.246 80.024 175.838 80.592 176.59 81.008C177.358 81.408 178.23 81.608 179.206 81.608C179.974 81.608 180.686 81.472 181.342 81.2C182.014 80.928 182.59 80.512 183.07 79.952L184.03 81.056C183.47 81.728 182.766 82.24 181.918 82.592C181.086 82.944 180.166 83.12 179.158 83.12ZM191.674 83.12C190.634 83.12 189.65 82.976 188.722 82.688C187.794 82.384 187.066 82.008 186.538 81.56L187.306 80.216C187.818 80.6 188.474 80.936 189.274 81.224C190.074 81.496 190.914 81.632 191.794 81.632C192.994 81.632 193.858 81.448 194.386 81.08C194.914 80.696 195.178 80.192 195.178 79.568C195.178 79.104 195.026 78.744 194.722 78.488C194.434 78.216 194.05 78.016 193.57 77.888C193.09 77.744 192.554 77.624 191.962 77.528C191.37 77.432 190.778 77.32 190.186 77.192C189.61 77.064 189.082 76.88 188.602 76.64C188.122 76.384 187.73 76.04 187.426 75.608C187.138 75.176 186.994 74.6 186.994 73.88C186.994 73.192 187.186 72.576 187.57 72.032C187.954 71.488 188.514 71.064 189.25 70.76C190.002 70.44 190.914 70.28 191.986 70.28C192.802 70.28 193.618 70.392 194.434 70.616C195.25 70.824 195.922 71.104 196.45 71.456L195.706 72.824C195.146 72.44 194.546 72.168 193.906 72.008C193.266 71.832 192.626 71.744 191.986 71.744C190.85 71.744 190.01 71.944 189.466 72.344C188.938 72.728 188.674 73.224 188.674 73.832C188.674 74.312 188.818 74.688 189.106 74.96C189.41 75.232 189.802 75.448 190.282 75.608C190.778 75.752 191.314 75.872 191.89 75.968C192.482 76.064 193.066 76.184 193.642 76.328C194.234 76.456 194.77 76.64 195.25 76.88C195.746 77.104 196.138 77.432 196.426 77.864C196.73 78.28 196.882 78.832 196.882 79.52C196.882 80.256 196.674 80.896 196.258 81.44C195.858 81.968 195.266 82.384 194.482 82.688C193.714 82.976 192.778 83.12 191.674 83.12ZM214.186 83V80.216L214.114 79.76V75.104C214.114 74.032 213.81 73.208 213.202 72.632C212.61 72.056 211.722 71.768 210.538 71.768C209.722 71.768 208.946 71.904 208.21 72.176C207.474 72.448 206.85 72.808 206.338 73.256L205.57 71.984C206.21 71.44 206.978 71.024 207.874 70.736C208.77 70.432 209.714 70.28 210.706 70.28C212.338 70.28 213.594 70.688 214.474 71.504C215.37 72.304 215.818 73.528 215.818 75.176V83H214.186ZM209.842 83.12C208.898 83.12 208.074 82.968 207.37 82.664C206.682 82.344 206.154 81.912 205.786 81.368C205.418 80.808 205.234 80.168 205.234 79.448C205.234 78.792 205.386 78.2 205.69 77.672C206.01 77.128 206.522 76.696 207.226 76.376C207.946 76.04 208.906 75.872 210.106 75.872H214.45V77.144H210.154C208.938 77.144 208.09 77.36 207.61 77.792C207.146 78.224 206.914 78.76 206.914 79.4C206.914 80.12 207.194 80.696 207.754 81.128C208.314 81.56 209.098 81.776 210.106 81.776C211.066 81.776 211.89 81.56 212.578 81.128C213.282 80.68 213.794 80.04 214.114 79.208L214.498 80.384C214.178 81.216 213.618 81.88 212.818 82.376C212.034 82.872 211.042 83.12 209.842 83.12ZM231.744 83.12C230.544 83.12 229.464 82.848 228.504 82.304C227.56 81.76 226.816 81.008 226.272 80.048C225.728 79.088 225.456 77.968 225.456 76.688C225.456 75.424 225.728 74.312 226.272 73.352C226.816 72.376 227.56 71.624 228.504 71.096C229.464 70.552 230.544 70.28 231.744 70.28C232.864 70.28 233.856 70.528 234.72 71.024C235.6 71.52 236.296 72.248 236.808 73.208C237.32 74.152 237.576 75.312 237.576 76.688C237.576 78.064 237.312 79.232 236.784 80.192C236.272 81.136 235.576 81.864 234.696 82.376C233.832 82.872 232.848 83.12 231.744 83.12ZM231.864 81.608C232.76 81.608 233.56 81.408 234.264 81.008C234.984 80.592 235.544 80.016 235.944 79.28C236.36 78.528 236.568 77.664 236.568 76.688C236.568 75.712 236.36 74.856 235.944 74.12C235.544 73.384 234.984 72.808 234.264 72.392C233.56 71.976 232.76 71.768 231.864 71.768C230.984 71.768 230.192 71.976 229.488 72.392C228.784 72.808 228.224 73.384 227.808 74.12C227.392 74.856 227.184 75.712 227.184 76.688C227.184 77.664 227.392 78.528 227.808 79.28C228.224 80.016 228.784 80.592 229.488 81.008C230.192 81.408 230.984 81.608 231.864 81.608ZM236.544 87.656V79.256L236.784 76.712L236.616 74.192V70.4H238.248V87.656H236.544ZM248.201 83.12C247.129 83.12 246.193 82.92 245.393 82.52C244.593 82.12 243.969 81.52 243.521 80.72C243.089 79.92 242.873 78.92 242.873 77.72V70.4H244.577V77.528C244.577 78.872 244.905 79.888 245.561 80.576C246.233 81.248 247.169 81.584 248.369 81.584C249.249 81.584 250.009 81.408 250.649 81.056C251.305 80.688 251.801 80.16 252.137 79.472C252.489 78.784 252.665 77.96 252.665 77V70.4H254.369V83H252.737V79.544L253.001 80.168C252.601 81.096 251.977 81.824 251.129 82.352C250.297 82.864 249.321 83.12 248.201 83.12ZM264.47 83.12C263.158 83.12 262.006 82.848 261.014 82.304C260.022 81.744 259.246 80.984 258.686 80.024C258.126 79.048 257.846 77.936 257.846 76.688C257.846 75.44 258.11 74.336 258.638 73.376C259.182 72.416 259.918 71.664 260.846 71.12C261.79 70.56 262.846 70.28 264.014 70.28C265.198 70.28 266.246 70.552 267.158 71.096C268.086 71.624 268.814 72.376 269.342 73.352C269.87 74.312 270.134 75.424 270.134 76.688C270.134 76.768 270.126 76.856 270.11 76.952C270.11 77.032 270.11 77.12 270.11 77.216H259.142V75.944H269.198L268.526 76.448C268.526 75.536 268.326 74.728 267.926 74.024C267.542 73.304 267.014 72.744 266.342 72.344C265.67 71.944 264.894 71.744 264.014 71.744C263.15 71.744 262.374 71.944 261.686 72.344C260.998 72.744 260.462 73.304 260.078 74.024C259.694 74.744 259.502 75.568 259.502 76.496V76.76C259.502 77.72 259.71 78.568 260.126 79.304C260.558 80.024 261.15 80.592 261.902 81.008C262.67 81.408 263.542 81.608 264.518 81.608C265.286 81.608 265.998 81.472 266.654 81.2C267.326 80.928 267.902 80.512 268.382 79.952L269.342 81.056C268.782 81.728 268.078 82.24 267.23 82.592C266.398 82.944 265.478 83.12 264.47 83.12ZM276.987 83.12C275.947 83.12 274.963 82.976 274.035 82.688C273.107 82.384 272.379 82.008 271.851 81.56L272.619 80.216C273.131 80.6 273.787 80.936 274.587 81.224C275.387 81.496 276.227 81.632 277.107 81.632C278.307 81.632 279.171 81.448 279.699 81.08C280.227 80.696 280.491 80.192 280.491 79.568C280.491 79.104 280.339 78.744 280.035 78.488C279.747 78.216 279.363 78.016 278.883 77.888C278.403 77.744 277.867 77.624 277.275 77.528C276.683 77.432 276.091 77.32 275.499 77.192C274.923 77.064 274.395 76.88 273.915 76.64C273.435 76.384 273.043 76.04 272.739 75.608C272.451 75.176 272.307 74.6 272.307 73.88C272.307 73.192 272.499 72.576 272.883 72.032C273.267 71.488 273.827 71.064 274.563 70.76C275.315 70.44 276.227 70.28 277.299 70.28C278.115 70.28 278.931 70.392 279.747 70.616C280.563 70.824 281.235 71.104 281.763 71.456L281.019 72.824C280.459 72.44 279.859 72.168 279.219 72.008C278.579 71.832 277.939 71.744 277.299 71.744C276.163 71.744 275.323 71.944 274.779 72.344C274.251 72.728 273.987 73.224 273.987 73.832C273.987 74.312 274.131 74.688 274.419 74.96C274.723 75.232 275.115 75.448 275.595 75.608C276.091 75.752 276.627 75.872 277.203 75.968C277.795 76.064 278.379 76.184 278.955 76.328C279.547 76.456 280.083 76.64 280.563 76.88C281.059 77.104 281.451 77.432 281.739 77.864C282.043 78.28 282.195 78.832 282.195 79.52C282.195 80.256 281.987 80.896 281.571 81.44C281.171 81.968 280.579 82.384 279.795 82.688C279.027 82.976 278.091 83.12 276.987 83.12ZM289.305 83.12C288.121 83.12 287.209 82.8 286.569 82.16C285.929 81.52 285.609 80.616 285.609 79.448V67.616H287.313V79.352C287.313 80.088 287.497 80.656 287.865 81.056C288.249 81.456 288.793 81.656 289.497 81.656C290.249 81.656 290.873 81.44 291.369 81.008L291.969 82.232C291.633 82.536 291.225 82.76 290.745 82.904C290.281 83.048 289.801 83.12 289.305 83.12ZM283.353 71.816V70.4H291.153V71.816H283.353ZM299.762 83.12C298.546 83.12 297.45 82.848 296.474 82.304C295.514 81.744 294.754 80.984 294.194 80.024C293.634 79.048 293.354 77.936 293.354 76.688C293.354 75.424 293.634 74.312 294.194 73.352C294.754 72.392 295.514 71.64 296.474 71.096C297.434 70.552 298.53 70.28 299.762 70.28C301.01 70.28 302.114 70.552 303.074 71.096C304.05 71.64 304.81 72.392 305.354 73.352C305.914 74.312 306.194 75.424 306.194 76.688C306.194 77.936 305.914 79.048 305.354 80.024C304.81 80.984 304.05 81.744 303.074 82.304C302.098 82.848 300.994 83.12 299.762 83.12ZM299.762 81.608C300.674 81.608 301.482 81.408 302.186 81.008C302.89 80.592 303.442 80.016 303.842 79.28C304.258 78.528 304.466 77.664 304.466 76.688C304.466 75.696 304.258 74.832 303.842 74.096C303.442 73.36 302.89 72.792 302.186 72.392C301.482 71.976 300.682 71.768 299.786 71.768C298.89 71.768 298.09 71.976 297.386 72.392C296.682 72.792 296.122 73.36 295.706 74.096C295.29 74.832 295.082 75.696 295.082 76.688C295.082 77.664 295.29 78.528 295.706 79.28C296.122 80.016 296.682 80.592 297.386 81.008C298.09 81.408 298.882 81.608 299.762 81.608ZM322.458 83.12C321.37 83.12 320.386 82.872 319.506 82.376C318.626 81.864 317.922 81.136 317.394 80.192C316.882 79.232 316.626 78.064 316.626 76.688C316.626 75.312 316.882 74.152 317.394 73.208C317.906 72.248 318.602 71.52 319.482 71.024C320.362 70.528 321.354 70.28 322.458 70.28C323.658 70.28 324.73 70.552 325.674 71.096C326.634 71.624 327.386 72.376 327.93 73.352C328.474 74.312 328.746 75.424 328.746 76.688C328.746 77.968 328.474 79.088 327.93 80.048C327.386 81.008 326.634 81.76 325.674 82.304C324.73 82.848 323.658 83.12 322.458 83.12ZM315.954 87.656V70.4H317.586V74.192L317.418 76.712L317.658 79.256V87.656H315.954ZM322.338 81.608C323.234 81.608 324.034 81.408 324.738 81.008C325.442 80.592 326.002 80.016 326.418 79.28C326.834 78.528 327.042 77.664 327.042 76.688C327.042 75.712 326.834 74.856 326.418 74.12C326.002 73.384 325.442 72.808 324.738 72.392C324.034 71.976 323.234 71.768 322.338 71.768C321.442 71.768 320.634 71.976 319.914 72.392C319.21 72.808 318.65 73.384 318.234 74.12C317.834 74.856 317.634 75.712 317.634 76.688C317.634 77.664 317.834 78.528 318.234 79.28C318.65 80.016 319.21 80.592 319.914 81.008C320.634 81.408 321.442 81.608 322.338 81.608ZM332.22 83V70.4H333.852V73.832L333.684 73.232C334.036 72.272 334.628 71.544 335.46 71.048C336.292 70.536 337.324 70.28 338.556 70.28V71.936C338.492 71.936 338.428 71.936 338.364 71.936C338.3 71.92 338.236 71.912 338.172 71.912C336.844 71.912 335.804 72.32 335.052 73.136C334.3 73.936 333.924 75.08 333.924 76.568V83H332.22ZM346.9 83.12C345.588 83.12 344.436 82.848 343.444 82.304C342.452 81.744 341.676 80.984 341.116 80.024C340.556 79.048 340.276 77.936 340.276 76.688C340.276 75.44 340.54 74.336 341.068 73.376C341.612 72.416 342.348 71.664 343.276 71.12C344.22 70.56 345.276 70.28 346.444 70.28C347.628 70.28 348.676 70.552 349.588 71.096C350.516 71.624 351.244 72.376 351.772 73.352C352.3 74.312 352.564 75.424 352.564 76.688C352.564 76.768 352.556 76.856 352.54 76.952C352.54 77.032 352.54 77.12 352.54 77.216H341.572V75.944H351.628L350.956 76.448C350.956 75.536 350.756 74.728 350.356 74.024C349.972 73.304 349.444 72.744 348.772 72.344C348.1 71.944 347.324 71.744 346.444 71.744C345.58 71.744 344.804 71.944 344.116 72.344C343.428 72.744 342.892 73.304 342.508 74.024C342.124 74.744 341.932 75.568 341.932 76.496V76.76C341.932 77.72 342.14 78.568 342.556 79.304C342.988 80.024 343.58 80.592 344.332 81.008C345.1 81.408 345.972 81.608 346.948 81.608C347.716 81.608 348.428 81.472 349.084 81.2C349.756 80.928 350.332 80.512 350.812 79.952L351.772 81.056C351.212 81.728 350.508 82.24 349.66 82.592C348.828 82.944 347.908 83.12 346.9 83.12ZM354.547 83V81.872L362.947 71.24L363.307 71.816H354.691V70.4H364.651V71.504L356.275 82.16L355.843 81.584H364.819V83H354.547ZM366.805 83V81.872L375.205 71.24L375.565 71.816H366.949V70.4H376.909V71.504L368.533 82.16L368.101 81.584H377.077V83H366.805ZM385.356 83.12C384.14 83.12 383.044 82.848 382.068 82.304C381.108 81.744 380.348 80.984 379.788 80.024C379.228 79.048 378.948 77.936 378.948 76.688C378.948 75.424 379.228 74.312 379.788 73.352C380.348 72.392 381.108 71.64 382.068 71.096C383.028 70.552 384.124 70.28 385.356 70.28C386.604 70.28 387.708 70.552 388.668 71.096C389.644 71.64 390.404 72.392 390.948 73.352C391.508 74.312 391.788 75.424 391.788 76.688C391.788 77.936 391.508 79.048 390.948 80.024C390.404 80.984 389.644 81.744 388.668 82.304C387.692 82.848 386.588 83.12 385.356 83.12ZM385.356 81.608C386.268 81.608 387.076 81.408 387.78 81.008C388.484 80.592 389.036 80.016 389.436 79.28C389.852 78.528 390.06 77.664 390.06 76.688C390.06 75.696 389.852 74.832 389.436 74.096C389.036 73.36 388.484 72.792 387.78 72.392C387.076 71.976 386.276 71.768 385.38 71.768C384.484 71.768 383.684 71.976 382.98 72.392C382.276 72.792 381.716 73.36 381.3 74.096C380.884 74.832 380.676 75.696 380.676 76.688C380.676 77.664 380.884 78.528 381.3 79.28C381.716 80.016 382.276 80.592 382.98 81.008C383.684 81.408 384.476 81.608 385.356 81.608Z" fill="#214B33"/>
<path d="M144 32L694 32" stroke="#BC0051"/>
<path d="M2.736 29V12.2H9.024C10.448 12.2 11.672 12.432 12.696 12.896C13.72 13.344 14.504 14 15.048 14.864C15.608 15.712 15.888 16.744 15.888 17.96C15.888 19.144 15.608 20.168 15.048 21.032C14.504 21.88 13.72 22.536 12.696 23C11.672 23.464 10.448 23.696 9.024 23.696H3.72L4.512 22.856V29H2.736ZM4.512 23L3.72 22.136H8.976C10.656 22.136 11.928 21.776 12.792 21.056C13.672 20.32 14.112 19.288 14.112 17.96C14.112 16.616 13.672 15.576 12.792 14.84C11.928 14.104 10.656 13.736 8.976 13.736H3.72L4.512 12.896V23ZM19.0635 29V16.4H20.6955V19.832L20.5275 19.232C20.8795 18.272 21.4715 17.544 22.3035 17.048C23.1355 16.536 24.1675 16.28 25.3995 16.28V17.936C25.3355 17.936 25.2715 17.936 25.2075 17.936C25.1435 17.92 25.0795 17.912 25.0155 17.912C23.6875 17.912 22.6475 18.32 21.8955 19.136C21.1435 19.936 20.7675 21.08 20.7675 22.568V29H19.0635ZM33.7436 29.12C32.4316 29.12 31.2796 28.848 30.2876 28.304C29.2956 27.744 28.5196 26.984 27.9596 26.024C27.3996 25.048 27.1196 23.936 27.1196 22.688C27.1196 21.44 27.3836 20.336 27.9116 19.376C28.4556 18.416 29.1916 17.664 30.1196 17.12C31.0636 16.56 32.1196 16.28 33.2876 16.28C34.4716 16.28 35.5196 16.552 36.4316 17.096C37.3596 17.624 38.0876 18.376 38.6156 19.352C39.1436 20.312 39.4076 21.424 39.4076 22.688C39.4076 22.768 39.3996 22.856 39.3836 22.952C39.3836 23.032 39.3836 23.12 39.3836 23.216H28.4156V21.944H38.4716L37.7996 22.448C37.7996 21.536 37.5996 20.728 37.1996 20.024C36.8156 19.304 36.2876 18.744 35.6156 18.344C34.9436 17.944 34.1676 17.744 33.2876 17.744C32.4236 17.744 31.6476 17.944 30.9596 18.344C30.2716 18.744 29.7356 19.304 29.3516 20.024C28.9676 20.744 28.7756 21.568 28.7756 22.496V22.76C28.7756 23.72 28.9836 24.568 29.3996 25.304C29.8316 26.024 30.4236 26.592 31.1756 27.008C31.9436 27.408 32.8156 27.608 33.7916 27.608C34.5596 27.608 35.2716 27.472 35.9276 27.2C36.5996 26.928 37.1756 26.512 37.6556 25.952L38.6156 27.056C38.0556 27.728 37.3516 28.24 36.5036 28.592C35.6716 28.944 34.7516 29.12 33.7436 29.12ZM41.3908 29V27.872L49.7908 17.24L50.1508 17.816H41.5348V16.4H51.4948V17.504L43.1188 28.16L42.6868 27.584H51.6628V29H41.3908ZM53.6486 29V27.872L62.0486 17.24L62.4086 17.816H53.7926V16.4H63.7526V17.504L55.3766 28.16L54.9446 27.584H63.9206V29H53.6486ZM72.1995 29.12C70.9835 29.12 69.8875 28.848 68.9115 28.304C67.9515 27.744 67.1915 26.984 66.6315 26.024C66.0715 25.048 65.7915 23.936 65.7915 22.688C65.7915 21.424 66.0715 20.312 66.6315 19.352C67.1915 18.392 67.9515 17.64 68.9115 17.096C69.8715 16.552 70.9675 16.28 72.1995 16.28C73.4475 16.28 74.5515 16.552 75.5115 17.096C76.4875 17.64 77.2475 18.392 77.7915 19.352C78.3515 20.312 78.6315 21.424 78.6315 22.688C78.6315 23.936 78.3515 25.048 77.7915 26.024C77.2475 26.984 76.4875 27.744 75.5115 28.304C74.5355 28.848 73.4315 29.12 72.1995 29.12ZM72.1995 27.608C73.1115 27.608 73.9195 27.408 74.6235 27.008C75.3275 26.592 75.8795 26.016 76.2795 25.28C76.6955 24.528 76.9035 23.664 76.9035 22.688C76.9035 21.696 76.6955 20.832 76.2795 20.096C75.8795 19.36 75.3275 18.792 74.6235 18.392C73.9195 17.976 73.1195 17.768 72.2235 17.768C71.3275 17.768 70.5275 17.976 69.8235 18.392C69.1195 18.792 68.5595 19.36 68.1435 20.096C67.7275 20.832 67.5195 21.696 67.5195 22.688C67.5195 23.664 67.7275 24.528 68.1435 25.28C68.5595 26.016 69.1195 26.592 69.8235 27.008C70.5275 27.408 71.3195 27.608 72.1995 27.608ZM96.2876 29V26.216L96.2156 25.76V21.104C96.2156 20.032 95.9116 19.208 95.3036 18.632C94.7116 18.056 93.8236 17.768 92.6396 17.768C91.8236 17.768 91.0476 17.904 90.3116 18.176C89.5756 18.448 88.9516 18.808 88.4396 19.256L87.6716 17.984C88.3116 17.44 89.0796 17.024 89.9756 16.736C90.8716 16.432 91.8156 16.28 92.8076 16.28C94.4396 16.28 95.6956 16.688 96.5756 17.504C97.4716 18.304 97.9196 19.528 97.9196 21.176V29H96.2876ZM91.9436 29.12C90.9996 29.12 90.1756 28.968 89.4716 28.664C88.7836 28.344 88.2556 27.912 87.8876 27.368C87.5196 26.808 87.3356 26.168 87.3356 25.448C87.3356 24.792 87.4876 24.2 87.7916 23.672C88.1116 23.128 88.6236 22.696 89.3276 22.376C90.0476 22.04 91.0076 21.872 92.2076 21.872H96.5516V23.144H92.2556C91.0396 23.144 90.1916 23.36 89.7116 23.792C89.2476 24.224 89.0156 24.76 89.0156 25.4C89.0156 26.12 89.2956 26.696 89.8556 27.128C90.4156 27.56 91.1996 27.776 92.2076 27.776C93.1676 27.776 93.9916 27.56 94.6796 27.128C95.3836 26.68 95.8956 26.04 96.2156 25.208L96.5996 26.384C96.2796 27.216 95.7196 27.88 94.9196 28.376C94.1356 28.872 93.1436 29.12 91.9436 29.12ZM102.548 29V11.192H104.252V29H102.548ZM120.29 29.12C119.09 29.12 118.01 28.848 117.05 28.304C116.106 27.76 115.362 27.008 114.818 26.048C114.274 25.072 114.002 23.952 114.002 22.688C114.002 21.408 114.274 20.288 114.818 19.328C115.362 18.368 116.106 17.624 117.05 17.096C118.01 16.552 119.09 16.28 120.29 16.28C121.394 16.28 122.378 16.528 123.242 17.024C124.122 17.52 124.818 18.248 125.33 19.208C125.858 20.152 126.122 21.312 126.122 22.688C126.122 24.048 125.866 25.208 125.354 26.168C124.842 27.128 124.146 27.864 123.266 28.376C122.402 28.872 121.41 29.12 120.29 29.12ZM120.41 27.608C121.306 27.608 122.106 27.408 122.81 27.008C123.53 26.592 124.09 26.016 124.49 25.28C124.906 24.528 125.114 23.664 125.114 22.688C125.114 21.696 124.906 20.832 124.49 20.096C124.09 19.36 123.53 18.792 122.81 18.392C122.106 17.976 121.306 17.768 120.41 17.768C119.53 17.768 118.738 17.976 118.034 18.392C117.33 18.792 116.77 19.36 116.354 20.096C115.938 20.832 115.73 21.696 115.73 22.688C115.73 23.664 115.938 24.528 116.354 25.28C116.77 26.016 117.33 26.592 118.034 27.008C118.738 27.408 119.53 27.608 120.41 27.608ZM125.162 29V25.208L125.33 22.664L125.09 20.12V11.192H126.794V29H125.162ZM136.892 29.12C135.58 29.12 134.428 28.848 133.436 28.304C132.444 27.744 131.668 26.984 131.108 26.024C130.548 25.048 130.268 23.936 130.268 22.688C130.268 21.44 130.532 20.336 131.06 19.376C131.604 18.416 132.34 17.664 133.268 17.12C134.212 16.56 135.268 16.28 136.436 16.28C137.62 16.28 138.668 16.552 139.58 17.096C140.508 17.624 141.236 18.376 141.764 19.352C142.292 20.312 142.556 21.424 142.556 22.688C142.556 22.768 142.548 22.856 142.532 22.952C142.532 23.032 142.532 23.12 142.532 23.216H131.564V21.944H141.62L140.948 22.448C140.948 21.536 140.748 20.728 140.348 20.024C139.964 19.304 139.436 18.744 138.764 18.344C138.092 17.944 137.316 17.744 136.436 17.744C135.572 17.744 134.796 17.944 134.108 18.344C133.42 18.744 132.884 19.304 132.5 20.024C132.116 20.744 131.924 21.568 131.924 22.496V22.76C131.924 23.72 132.132 24.568 132.548 25.304C132.98 26.024 133.572 26.592 134.324 27.008C135.092 27.408 135.964 27.608 136.94 27.608C137.708 27.608 138.42 27.472 139.076 27.2C139.748 26.928 140.324 26.512 140.804 25.952L141.764 27.056C141.204 27.728 140.5 28.24 139.652 28.592C138.82 28.944 137.9 29.12 136.892 29.12ZM150.008 29.12C148.824 29.12 147.912 28.8 147.272 28.16C146.632 27.52 146.312 26.616 146.312 25.448V13.616H148.016V25.352C148.016 26.088 148.2 26.656 148.568 27.056C148.952 27.456 149.496 27.656 150.2 27.656C150.952 27.656 151.576 27.44 152.072 27.008L152.672 28.232C152.336 28.536 151.928 28.76 151.448 28.904C150.984 29.048 150.504 29.12 150.008 29.12ZM144.056 17.816V16.4H151.856V17.816H144.056ZM159.43 29.12C158.246 29.12 157.334 28.8 156.694 28.16C156.054 27.52 155.734 26.616 155.734 25.448V13.616H157.438V25.352C157.438 26.088 157.622 26.656 157.99 27.056C158.374 27.456 158.918 27.656 159.622 27.656C160.374 27.656 160.998 27.44 161.494 27.008L162.094 28.232C161.758 28.536 161.35 28.76 160.87 28.904C160.406 29.048 159.926 29.12 159.43 29.12ZM153.478 17.816V16.4H161.278V17.816H153.478ZM173.092 29V26.216L173.02 25.76V21.104C173.02 20.032 172.716 19.208 172.108 18.632C171.516 18.056 170.628 17.768 169.444 17.768C168.628 17.768 167.852 17.904 167.116 18.176C166.38 18.448 165.756 18.808 165.244 19.256L164.476 17.984C165.116 17.44 165.884 17.024 166.78 16.736C167.676 16.432 168.62 16.28 169.612 16.28C171.244 16.28 172.5 16.688 173.38 17.504C174.276 18.304 174.724 19.528 174.724 21.176V29H173.092ZM168.748 29.12C167.804 29.12 166.98 28.968 166.276 28.664C165.588 28.344 165.06 27.912 164.692 27.368C164.324 26.808 164.14 26.168 164.14 25.448C164.14 24.792 164.292 24.2 164.596 23.672C164.916 23.128 165.428 22.696 166.132 22.376C166.852 22.04 167.812 21.872 169.012 21.872H173.356V23.144H169.06C167.844 23.144 166.996 23.36 166.516 23.792C166.052 24.224 165.82 24.76 165.82 25.4C165.82 26.12 166.1 26.696 166.66 27.128C167.22 27.56 168.004 27.776 169.012 27.776C169.972 27.776 170.796 27.56 171.484 27.128C172.188 26.68 172.7 26.04 173.02 25.208L173.404 26.384C173.084 27.216 172.524 27.88 171.724 28.376C170.94 28.872 169.948 29.12 168.748 29.12ZM184.729 33.776C183.577 33.776 182.473 33.608 181.417 33.272C180.361 32.936 179.505 32.456 178.849 31.832L179.713 30.536C180.305 31.064 181.033 31.48 181.897 31.784C182.777 32.104 183.705 32.264 184.681 32.264C186.281 32.264 187.457 31.888 188.209 31.136C188.961 30.4 189.337 29.248 189.337 27.68V24.536L189.577 22.376L189.409 20.216V16.4H191.041V27.464C191.041 29.64 190.505 31.232 189.433 32.24C188.377 33.264 186.809 33.776 184.729 33.776ZM184.417 28.52C183.217 28.52 182.137 28.264 181.177 27.752C180.217 27.224 179.457 26.496 178.897 25.568C178.353 24.64 178.081 23.576 178.081 22.376C178.081 21.176 178.353 20.12 178.897 19.208C179.457 18.28 180.217 17.56 181.177 17.048C182.137 16.536 183.217 16.28 184.417 16.28C185.537 16.28 186.545 16.512 187.441 16.976C188.337 17.44 189.049 18.128 189.577 19.04C190.105 19.952 190.369 21.064 190.369 22.376C190.369 23.688 190.105 24.8 189.577 25.712C189.049 26.624 188.337 27.32 187.441 27.8C186.545 28.28 185.537 28.52 184.417 28.52ZM184.585 27.008C185.513 27.008 186.337 26.816 187.057 26.432C187.777 26.032 188.345 25.488 188.761 24.8C189.177 24.096 189.385 23.288 189.385 22.376C189.385 21.464 189.177 20.664 188.761 19.976C188.345 19.288 187.777 18.752 187.057 18.368C186.337 17.968 185.513 17.768 184.585 17.768C183.673 17.768 182.849 17.968 182.113 18.368C181.393 18.752 180.825 19.288 180.409 19.976C180.009 20.664 179.809 21.464 179.809 22.376C179.809 23.288 180.009 24.096 180.409 24.8C180.825 25.488 181.393 26.032 182.113 26.432C182.849 26.816 183.673 27.008 184.585 27.008ZM195.782 29V11.192H197.486V29H195.782ZM202.228 29V16.4H203.932V29H202.228ZM203.092 13.616C202.74 13.616 202.444 13.496 202.204 13.256C201.964 13.016 201.844 12.728 201.844 12.392C201.844 12.056 201.964 11.776 202.204 11.552C202.444 11.312 202.74 11.192 203.092 11.192C203.444 11.192 203.74 11.304 203.98 11.528C204.22 11.752 204.34 12.032 204.34 12.368C204.34 12.72 204.22 13.016 203.98 13.256C203.756 13.496 203.46 13.616 203.092 13.616ZM213.809 29.12C212.593 29.12 211.497 28.848 210.521 28.304C209.561 27.744 208.801 26.984 208.241 26.024C207.681 25.048 207.401 23.936 207.401 22.688C207.401 21.424 207.681 20.312 208.241 19.352C208.801 18.392 209.561 17.64 210.521 17.096C211.481 16.552 212.577 16.28 213.809 16.28C215.057 16.28 216.161 16.552 217.121 17.096C218.097 17.64 218.857 18.392 219.401 19.352C219.961 20.312 220.241 21.424 220.241 22.688C220.241 23.936 219.961 25.048 219.401 26.024C218.857 26.984 218.097 27.744 217.121 28.304C216.145 28.848 215.041 29.12 213.809 29.12ZM213.809 27.608C214.721 27.608 215.529 27.408 216.233 27.008C216.937 26.592 217.489 26.016 217.889 25.28C218.305 24.528 218.513 23.664 218.513 22.688C218.513 21.696 218.305 20.832 217.889 20.096C217.489 19.36 216.937 18.792 216.233 18.392C215.529 17.976 214.729 17.768 213.833 17.768C212.937 17.768 212.137 17.976 211.433 18.392C210.729 18.792 210.169 19.36 209.753 20.096C209.337 20.832 209.129 21.696 209.129 22.688C209.129 23.664 209.337 24.528 209.753 25.28C210.169 26.016 210.729 26.592 211.433 27.008C212.137 27.408 212.929 27.608 213.809 27.608Z" fill="#BC0051"/>
<path d="M159 169H6" stroke="#A2C33D"/>
<path d="M6.692 164V151.4H9.032V164H6.692ZM12.224 164V150.644H14.474V164H12.224ZM26.0198 164.126C24.9638 164.126 24.1478 163.856 23.5718 163.316C22.9958 162.764 22.7078 161.954 22.7078 160.886V152.264H24.9578V160.832C24.9578 161.288 25.0718 161.642 25.2998 161.894C25.5398 162.146 25.8698 162.272 26.2898 162.272C26.7938 162.272 27.2138 162.14 27.5498 161.876L28.1798 163.478C27.9158 163.694 27.5918 163.856 27.2078 163.964C26.8238 164.072 26.4278 164.126 26.0198 164.126ZM21.1238 156.26V154.46H27.5318V156.26H21.1238ZM34.0987 164.126C33.2827 164.126 32.5627 163.976 31.9387 163.676C31.3147 163.364 30.8287 162.896 30.4807 162.272C30.1327 161.636 29.9587 160.838 29.9587 159.878V154.388H32.2087V159.572C32.2087 160.436 32.4007 161.084 32.7847 161.516C33.1807 161.936 33.7387 162.146 34.4587 162.146C34.9867 162.146 35.4427 162.038 35.8267 161.822C36.2227 161.606 36.5287 161.282 36.7447 160.85C36.9727 160.418 37.0867 159.884 37.0867 159.248V154.388H39.3367V164H37.1947V161.408L37.5727 162.2C37.2487 162.824 36.7747 163.304 36.1507 163.64C35.5267 163.964 34.8427 164.126 34.0987 164.126ZM46.6026 164.126C45.6186 164.126 44.7426 163.916 43.9746 163.496C43.2066 163.064 42.6006 162.476 42.1566 161.732C41.7126 160.988 41.4906 160.142 41.4906 159.194C41.4906 158.234 41.7126 157.388 42.1566 156.656C42.6006 155.912 43.2066 155.33 43.9746 154.91C44.7426 154.49 45.6186 154.28 46.6026 154.28C47.5986 154.28 48.4806 154.49 49.2486 154.91C50.0286 155.33 50.6346 155.906 51.0666 156.638C51.5106 157.37 51.7326 158.222 51.7326 159.194C51.7326 160.142 51.5106 160.988 51.0666 161.732C50.6346 162.476 50.0286 163.064 49.2486 163.496C48.4806 163.916 47.5986 164.126 46.6026 164.126ZM46.6026 162.2C47.1546 162.2 47.6466 162.08 48.0786 161.84C48.5106 161.6 48.8466 161.252 49.0866 160.796C49.3386 160.34 49.4646 159.806 49.4646 159.194C49.4646 158.57 49.3386 158.036 49.0866 157.592C48.8466 157.136 48.5106 156.788 48.0786 156.548C47.6466 156.308 47.1606 156.188 46.6206 156.188C46.0686 156.188 45.5766 156.308 45.1446 156.548C44.7246 156.788 44.3886 157.136 44.1366 157.592C43.8846 158.036 43.7586 158.57 43.7586 159.194C43.7586 159.806 43.8846 160.34 44.1366 160.796C44.3886 161.252 44.7246 161.6 45.1446 161.84C45.5766 162.08 46.0626 162.2 46.6026 162.2ZM61.4148 164L57.2928 154.388H59.6328L63.1788 162.866H62.0268L65.6988 154.388H67.8588L63.7368 164H61.4148ZM74.8882 164V162.056L74.7622 161.642V158.24C74.7622 157.58 74.5642 157.07 74.1682 156.71C73.7722 156.338 73.1722 156.152 72.3682 156.152C71.8282 156.152 71.2942 156.236 70.7662 156.404C70.2502 156.572 69.8122 156.806 69.4522 157.106L68.5702 155.468C69.0862 155.072 69.6982 154.778 70.4062 154.586C71.1262 154.382 71.8702 154.28 72.6382 154.28C74.0302 154.28 75.1042 154.616 75.8602 155.288C76.6282 155.948 77.0122 156.974 77.0122 158.366V164H74.8882ZM71.8642 164.126C71.1442 164.126 70.5142 164.006 69.9742 163.766C69.4342 163.514 69.0142 163.172 68.7142 162.74C68.4262 162.296 68.2822 161.798 68.2822 161.246C68.2822 160.706 68.4082 160.22 68.6602 159.788C68.9242 159.356 69.3502 159.014 69.9382 158.762C70.5262 158.51 71.3062 158.384 72.2782 158.384H75.0682V159.878H72.4402C71.6722 159.878 71.1562 160.004 70.8922 160.256C70.6282 160.496 70.4962 160.796 70.4962 161.156C70.4962 161.564 70.6582 161.888 70.9822 162.128C71.3062 162.368 71.7562 162.488 72.3322 162.488C72.8842 162.488 73.3762 162.362 73.8082 162.11C74.2522 161.858 74.5702 161.486 74.7622 160.994L75.1402 162.344C74.9242 162.908 74.5342 163.346 73.9702 163.658C73.4182 163.97 72.7162 164.126 71.8642 164.126ZM85.3538 154.28C86.1218 154.28 86.8058 154.43 87.4058 154.73C88.0178 155.03 88.4978 155.492 88.8458 156.116C89.1938 156.728 89.3678 157.52 89.3678 158.492V164H87.1178V158.78C87.1178 157.928 86.9138 157.292 86.5058 156.872C86.1098 156.452 85.5518 156.242 84.8318 156.242C84.3038 156.242 83.8358 156.35 83.4278 156.566C83.0198 156.782 82.7018 157.106 82.4738 157.538C82.2578 157.958 82.1498 158.492 82.1498 159.14V164H79.8998V154.388H82.0418V156.98L81.6638 156.188C81.9998 155.576 82.4858 155.108 83.1218 154.784C83.7698 154.448 84.5138 154.28 85.3538 154.28ZM95.8401 164.126C94.7841 164.126 93.9681 163.856 93.3921 163.316C92.8161 162.764 92.5281 161.954 92.5281 160.886V152.264H94.7781V160.832C94.7781 161.288 94.8921 161.642 95.1201 161.894C95.3601 162.146 95.6901 162.272 96.1101 162.272C96.6141 162.272 97.0341 162.14 97.3701 161.876L98.0001 163.478C97.7361 163.694 97.4121 163.856 97.0281 163.964C96.6441 164.072 96.2481 164.126 95.8401 164.126ZM90.9441 156.26V154.46H97.3521V156.26H90.9441ZM105.773 164V162.056L105.647 161.642V158.24C105.647 157.58 105.449 157.07 105.053 156.71C104.657 156.338 104.057 156.152 103.253 156.152C102.713 156.152 102.179 156.236 101.651 156.404C101.135 156.572 100.697 156.806 100.337 157.106L99.455 155.468C99.971 155.072 100.583 154.778 101.291 154.586C102.011 154.382 102.755 154.28 103.523 154.28C104.915 154.28 105.989 154.616 106.745 155.288C107.513 155.948 107.897 156.974 107.897 158.366V164H105.773ZM102.749 164.126C102.029 164.126 101.399 164.006 100.859 163.766C100.319 163.514 99.899 163.172 99.599 162.74C99.311 162.296 99.167 161.798 99.167 161.246C99.167 160.706 99.293 160.22 99.545 159.788C99.809 159.356 100.235 159.014 100.823 158.762C101.411 158.51 102.191 158.384 103.163 158.384H105.953V159.878H103.325C102.557 159.878 102.041 160.004 101.777 160.256C101.513 160.496 101.381 160.796 101.381 161.156C101.381 161.564 101.543 161.888 101.867 162.128C102.191 162.368 102.641 162.488 103.217 162.488C103.769 162.488 104.261 162.362 104.693 162.11C105.137 161.858 105.455 161.486 105.647 160.994L106.025 162.344C105.809 162.908 105.419 163.346 104.855 163.658C104.303 163.97 103.601 164.126 102.749 164.126ZM115.158 167.618C114.27 167.618 113.4 167.498 112.548 167.258C111.708 167.03 111.018 166.694 110.478 166.25L111.486 164.558C111.906 164.906 112.434 165.182 113.07 165.386C113.718 165.602 114.372 165.71 115.032 165.71C116.088 165.71 116.862 165.464 117.354 164.972C117.846 164.492 118.092 163.766 118.092 162.794V161.084L118.272 158.906L118.2 156.728V154.388H120.342V162.542C120.342 164.282 119.898 165.56 119.01 166.376C118.122 167.204 116.838 167.618 115.158 167.618ZM114.87 163.568C113.958 163.568 113.13 163.376 112.386 162.992C111.654 162.596 111.072 162.05 110.64 161.354C110.22 160.658 110.01 159.842 110.01 158.906C110.01 157.982 110.22 157.172 110.64 156.476C111.072 155.78 111.654 155.24 112.386 154.856C113.13 154.472 113.958 154.28 114.87 154.28C115.686 154.28 116.418 154.442 117.066 154.766C117.714 155.09 118.23 155.594 118.614 156.278C119.01 156.962 119.208 157.838 119.208 158.906C119.208 159.974 119.01 160.856 118.614 161.552C118.23 162.236 117.714 162.746 117.066 163.082C116.418 163.406 115.686 163.568 114.87 163.568ZM115.212 161.66C115.776 161.66 116.28 161.546 116.724 161.318C117.168 161.078 117.51 160.754 117.75 160.346C118.002 159.926 118.128 159.446 118.128 158.906C118.128 158.366 118.002 157.892 117.75 157.484C117.51 157.064 117.168 156.746 116.724 156.53C116.28 156.302 115.776 156.188 115.212 156.188C114.648 156.188 114.138 156.302 113.682 156.53C113.238 156.746 112.89 157.064 112.638 157.484C112.398 157.892 112.278 158.366 112.278 158.906C112.278 159.446 112.398 159.926 112.638 160.346C112.89 160.754 113.238 161.078 113.682 161.318C114.138 161.546 114.648 161.66 115.212 161.66ZM127.656 167.618C126.768 167.618 125.898 167.498 125.046 167.258C124.206 167.03 123.516 166.694 122.976 166.25L123.984 164.558C124.404 164.906 124.932 165.182 125.568 165.386C126.216 165.602 126.87 165.71 127.53 165.71C128.586 165.71 129.36 165.464 129.852 164.972C130.344 164.492 130.59 163.766 130.59 162.794V161.084L130.77 158.906L130.698 156.728V154.388H132.84V162.542C132.84 164.282 132.396 165.56 131.508 166.376C130.62 167.204 129.336 167.618 127.656 167.618ZM127.368 163.568C126.456 163.568 125.628 163.376 124.884 162.992C124.152 162.596 123.57 162.05 123.138 161.354C122.718 160.658 122.508 159.842 122.508 158.906C122.508 157.982 122.718 157.172 123.138 156.476C123.57 155.78 124.152 155.24 124.884 154.856C125.628 154.472 126.456 154.28 127.368 154.28C128.184 154.28 128.916 154.442 129.564 154.766C130.212 155.09 130.728 155.594 131.112 156.278C131.508 156.962 131.706 157.838 131.706 158.906C131.706 159.974 131.508 160.856 131.112 161.552C130.728 162.236 130.212 162.746 129.564 163.082C128.916 163.406 128.184 163.568 127.368 163.568ZM127.71 161.66C128.274 161.66 128.778 161.546 129.222 161.318C129.666 161.078 130.008 160.754 130.248 160.346C130.5 159.926 130.626 159.446 130.626 158.906C130.626 158.366 130.5 157.892 130.248 157.484C130.008 157.064 129.666 156.746 129.222 156.53C128.778 156.302 128.274 156.188 127.71 156.188C127.146 156.188 126.636 156.302 126.18 156.53C125.736 156.746 125.388 157.064 125.136 157.484C124.896 157.892 124.776 158.366 124.776 158.906C124.776 159.446 124.896 159.926 125.136 160.346C125.388 160.754 125.736 161.078 126.18 161.318C126.636 161.546 127.146 161.66 127.71 161.66ZM135.798 164V154.388H138.048V164H135.798ZM136.932 152.804C136.512 152.804 136.164 152.672 135.888 152.408C135.624 152.144 135.492 151.826 135.492 151.454C135.492 151.07 135.624 150.752 135.888 150.5C136.164 150.236 136.512 150.104 136.932 150.104C137.352 150.104 137.694 150.23 137.958 150.482C138.234 150.722 138.372 151.028 138.372 151.4C138.372 151.796 138.24 152.132 137.976 152.408C137.712 152.672 137.364 152.804 136.932 152.804ZM145.321 164.126C144.337 164.126 143.461 163.916 142.693 163.496C141.925 163.064 141.319 162.476 140.875 161.732C140.431 160.988 140.209 160.142 140.209 159.194C140.209 158.234 140.431 157.388 140.875 156.656C141.319 155.912 141.925 155.33 142.693 154.91C143.461 154.49 144.337 154.28 145.321 154.28C146.317 154.28 147.199 154.49 147.967 154.91C148.747 155.33 149.353 155.906 149.785 156.638C150.229 157.37 150.451 158.222 150.451 159.194C150.451 160.142 150.229 160.988 149.785 161.732C149.353 162.476 148.747 163.064 147.967 163.496C147.199 163.916 146.317 164.126 145.321 164.126ZM145.321 162.2C145.873 162.2 146.365 162.08 146.797 161.84C147.229 161.6 147.565 161.252 147.805 160.796C148.057 160.34 148.183 159.806 148.183 159.194C148.183 158.57 148.057 158.036 147.805 157.592C147.565 157.136 147.229 156.788 146.797 156.548C146.365 156.308 145.879 156.188 145.339 156.188C144.787 156.188 144.295 156.308 143.863 156.548C143.443 156.788 143.107 157.136 142.855 157.592C142.603 158.036 142.477 158.57 142.477 159.194C142.477 159.806 142.603 160.34 142.855 160.796C143.107 161.252 143.443 161.6 143.863 161.84C144.295 162.08 144.781 162.2 145.321 162.2Z" fill="#A2C33D"/>
<path d="M160.436 372V362.62L160.884 363.096H158.126V362.2H161.444V372H160.436ZM172.715 372V370.376L172.673 370.11V367.394C172.673 366.769 172.495 366.288 172.141 365.952C171.795 365.616 171.277 365.448 170.587 365.448C170.111 365.448 169.658 365.527 169.229 365.686C168.799 365.845 168.435 366.055 168.137 366.316L167.689 365.574C168.062 365.257 168.51 365.014 169.033 364.846C169.555 364.669 170.106 364.58 170.685 364.58C171.637 364.58 172.369 364.818 172.883 365.294C173.405 365.761 173.667 366.475 173.667 367.436V372H172.715ZM170.181 372.07C169.63 372.07 169.149 371.981 168.739 371.804C168.337 371.617 168.029 371.365 167.815 371.048C167.6 370.721 167.493 370.348 167.493 369.928C167.493 369.545 167.581 369.2 167.759 368.892C167.945 368.575 168.244 368.323 168.655 368.136C169.075 367.94 169.635 367.842 170.335 367.842H172.869V368.584H170.363C169.653 368.584 169.159 368.71 168.879 368.962C168.608 369.214 168.473 369.527 168.473 369.9C168.473 370.32 168.636 370.656 168.963 370.908C169.289 371.16 169.747 371.286 170.335 371.286C170.895 371.286 171.375 371.16 171.777 370.908C172.187 370.647 172.486 370.273 172.673 369.788L172.897 370.474C172.71 370.959 172.383 371.347 171.917 371.636C171.459 371.925 170.881 372.07 170.181 372.07ZM180.16 372.07C179.526 372.07 178.952 371.925 178.438 371.636C177.925 371.337 177.514 370.913 177.206 370.362C176.908 369.802 176.758 369.121 176.758 368.318C176.758 367.515 176.908 366.839 177.206 366.288C177.505 365.728 177.911 365.303 178.424 365.014C178.938 364.725 179.516 364.58 180.16 364.58C180.86 364.58 181.486 364.739 182.036 365.056C182.596 365.364 183.035 365.803 183.352 366.372C183.67 366.932 183.828 367.581 183.828 368.318C183.828 369.065 183.67 369.718 183.352 370.278C183.035 370.838 182.596 371.277 182.036 371.594C181.486 371.911 180.86 372.07 180.16 372.07ZM176.366 374.716V364.65H177.318V366.862L177.22 368.332L177.36 369.816V374.716H176.366ZM180.09 371.188C180.613 371.188 181.08 371.071 181.49 370.838C181.901 370.595 182.228 370.259 182.47 369.83C182.713 369.391 182.834 368.887 182.834 368.318C182.834 367.749 182.713 367.249 182.47 366.82C182.228 366.391 181.901 366.055 181.49 365.812C181.08 365.569 180.613 365.448 180.09 365.448C179.568 365.448 179.096 365.569 178.676 365.812C178.266 366.055 177.939 366.391 177.696 366.82C177.463 367.249 177.346 367.749 177.346 368.318C177.346 368.887 177.463 369.391 177.696 369.83C177.939 370.259 178.266 370.595 178.676 370.838C179.096 371.071 179.568 371.188 180.09 371.188ZM185.855 372V364.65H186.807V366.652L186.709 366.302C186.914 365.742 187.259 365.317 187.745 365.028C188.23 364.729 188.832 364.58 189.551 364.58V365.546C189.513 365.546 189.476 365.546 189.439 365.546C189.401 365.537 189.364 365.532 189.327 365.532C188.552 365.532 187.945 365.77 187.507 366.246C187.068 366.713 186.849 367.38 186.849 368.248V372H185.855ZM191.365 372V364.65H192.359V372H191.365ZM191.869 363.026C191.663 363.026 191.491 362.956 191.351 362.816C191.211 362.676 191.141 362.508 191.141 362.312C191.141 362.116 191.211 361.953 191.351 361.822C191.491 361.682 191.663 361.612 191.869 361.612C192.074 361.612 192.247 361.677 192.387 361.808C192.527 361.939 192.597 362.102 192.597 362.298C192.597 362.503 192.527 362.676 192.387 362.816C192.256 362.956 192.083 363.026 191.869 363.026ZM195.124 372V361.612H196.118V372H195.124ZM202.006 372.07C201.241 372.07 200.569 371.911 199.99 371.594C199.411 371.267 198.959 370.824 198.632 370.264C198.305 369.695 198.142 369.046 198.142 368.318C198.142 367.59 198.296 366.946 198.604 366.386C198.921 365.826 199.351 365.387 199.892 365.07C200.443 364.743 201.059 364.58 201.74 364.58C202.431 364.58 203.042 364.739 203.574 365.056C204.115 365.364 204.54 365.803 204.848 366.372C205.156 366.932 205.31 367.581 205.31 368.318C205.31 368.365 205.305 368.416 205.296 368.472C205.296 368.519 205.296 368.57 205.296 368.626H198.898V367.884H204.764L204.372 368.178C204.372 367.646 204.255 367.175 204.022 366.764C203.798 366.344 203.49 366.017 203.098 365.784C202.706 365.551 202.253 365.434 201.74 365.434C201.236 365.434 200.783 365.551 200.382 365.784C199.981 366.017 199.668 366.344 199.444 366.764C199.22 367.184 199.108 367.665 199.108 368.206V368.36C199.108 368.92 199.229 369.415 199.472 369.844C199.724 370.264 200.069 370.595 200.508 370.838C200.956 371.071 201.465 371.188 202.034 371.188C202.482 371.188 202.897 371.109 203.28 370.95C203.672 370.791 204.008 370.549 204.288 370.222L204.848 370.866C204.521 371.258 204.111 371.557 203.616 371.762C203.131 371.967 202.594 372.07 202.006 372.07Z" fill="#313131"/>
<path d="M634.654 372.084C633.945 372.084 633.273 371.972 632.638 371.748C632.013 371.515 631.509 371.207 631.126 370.824L631.616 370.026C631.933 370.353 632.358 370.623 632.89 370.838C633.431 371.053 634.019 371.16 634.654 371.16C635.466 371.16 636.087 370.983 636.516 370.628C636.955 370.273 637.174 369.797 637.174 369.2C637.174 368.603 636.959 368.127 636.53 367.772C636.11 367.417 635.443 367.24 634.528 367.24H633.828V366.498L636.852 362.704L636.992 363.096H631.532V362.2H637.832V362.914L634.808 366.708L634.318 366.386H634.696C635.872 366.386 636.749 366.647 637.328 367.17C637.916 367.693 638.21 368.365 638.21 369.186C638.21 369.737 638.079 370.231 637.818 370.67C637.557 371.109 637.16 371.454 636.628 371.706C636.105 371.958 635.447 372.084 634.654 372.084ZM643.536 372.084C642.78 372.084 642.108 371.888 641.52 371.496C640.932 371.095 640.47 370.525 640.134 369.788C639.798 369.041 639.63 368.145 639.63 367.1C639.63 366.055 639.798 365.163 640.134 364.426C640.47 363.679 640.932 363.11 641.52 362.718C642.108 362.317 642.78 362.116 643.536 362.116C644.292 362.116 644.964 362.317 645.552 362.718C646.14 363.11 646.602 363.679 646.938 364.426C647.284 365.163 647.456 366.055 647.456 367.1C647.456 368.145 647.284 369.041 646.938 369.788C646.602 370.525 646.14 371.095 645.552 371.496C644.964 371.888 644.292 372.084 643.536 372.084ZM643.536 371.16C644.115 371.16 644.619 371.006 645.048 370.698C645.478 370.381 645.814 369.923 646.056 369.326C646.299 368.719 646.42 367.977 646.42 367.1C646.42 366.223 646.299 365.485 646.056 364.888C645.814 364.281 645.478 363.824 645.048 363.516C644.619 363.199 644.115 363.04 643.536 363.04C642.976 363.04 642.477 363.199 642.038 363.516C641.6 363.824 641.259 364.281 641.016 364.888C640.774 365.485 640.652 366.223 640.652 367.1C640.652 367.977 640.774 368.719 641.016 369.326C641.259 369.923 641.6 370.381 642.038 370.698C642.477 371.006 642.976 371.16 643.536 371.16ZM657.828 372V370.376L657.786 370.11V367.394C657.786 366.769 657.609 366.288 657.254 365.952C656.909 365.616 656.391 365.448 655.7 365.448C655.224 365.448 654.771 365.527 654.342 365.686C653.913 365.845 653.549 366.055 653.25 366.316L652.802 365.574C653.175 365.257 653.623 365.014 654.146 364.846C654.669 364.669 655.219 364.58 655.798 364.58C656.75 364.58 657.483 364.818 657.996 365.294C658.519 365.761 658.78 366.475 658.78 367.436V372H657.828ZM655.294 372.07C654.743 372.07 654.263 371.981 653.852 371.804C653.451 371.617 653.143 371.365 652.928 371.048C652.713 370.721 652.606 370.348 652.606 369.928C652.606 369.545 652.695 369.2 652.872 368.892C653.059 368.575 653.357 368.323 653.768 368.136C654.188 367.94 654.748 367.842 655.448 367.842H657.982V368.584H655.476C654.767 368.584 654.272 368.71 653.992 368.962C653.721 369.214 653.586 369.527 653.586 369.9C653.586 370.32 653.749 370.656 654.076 370.908C654.403 371.16 654.86 371.286 655.448 371.286C656.008 371.286 656.489 371.16 656.89 370.908C657.301 370.647 657.599 370.273 657.786 369.788L658.01 370.474C657.823 370.959 657.497 371.347 657.03 371.636C656.573 371.925 655.994 372.07 655.294 372.07ZM665.274 372.07C664.639 372.07 664.065 371.925 663.552 371.636C663.038 371.337 662.628 370.913 662.32 370.362C662.021 369.802 661.872 369.121 661.872 368.318C661.872 367.515 662.021 366.839 662.32 366.288C662.618 365.728 663.024 365.303 663.538 365.014C664.051 364.725 664.63 364.58 665.274 364.58C665.974 364.58 666.599 364.739 667.15 365.056C667.71 365.364 668.148 365.803 668.466 366.372C668.783 366.932 668.942 367.581 668.942 368.318C668.942 369.065 668.783 369.718 668.466 370.278C668.148 370.838 667.71 371.277 667.15 371.594C666.599 371.911 665.974 372.07 665.274 372.07ZM661.48 374.716V364.65H662.432V366.862L662.334 368.332L662.474 369.816V374.716H661.48ZM665.204 371.188C665.726 371.188 666.193 371.071 666.604 370.838C667.014 370.595 667.341 370.259 667.584 369.83C667.826 369.391 667.948 368.887 667.948 368.318C667.948 367.749 667.826 367.249 667.584 366.82C667.341 366.391 667.014 366.055 666.604 365.812C666.193 365.569 665.726 365.448 665.204 365.448C664.681 365.448 664.21 365.569 663.79 365.812C663.379 366.055 663.052 366.391 662.81 366.82C662.576 367.249 662.46 367.749 662.46 368.318C662.46 368.887 662.576 369.391 662.81 369.83C663.052 370.259 663.379 370.595 663.79 370.838C664.21 371.071 664.681 371.188 665.204 371.188ZM670.968 372V364.65H671.92V366.652L671.822 366.302C672.027 365.742 672.373 365.317 672.858 365.028C673.343 364.729 673.945 364.58 674.664 364.58V365.546C674.627 365.546 674.589 365.546 674.552 365.546C674.515 365.537 674.477 365.532 674.44 365.532C673.665 365.532 673.059 365.77 672.62 366.246C672.181 366.713 671.962 367.38 671.962 368.248V372H670.968ZM676.478 372V364.65H677.472V372H676.478ZM676.982 363.026C676.776 363.026 676.604 362.956 676.464 362.816C676.324 362.676 676.254 362.508 676.254 362.312C676.254 362.116 676.324 361.953 676.464 361.822C676.604 361.682 676.776 361.612 676.982 361.612C677.187 361.612 677.36 361.677 677.5 361.808C677.64 361.939 677.71 362.102 677.71 362.298C677.71 362.503 677.64 362.676 677.5 362.816C677.369 362.956 677.196 363.026 676.982 363.026ZM680.238 372V361.612H681.232V372H680.238ZM687.119 372.07C686.354 372.07 685.682 371.911 685.103 371.594C684.525 371.267 684.072 370.824 683.745 370.264C683.419 369.695 683.255 369.046 683.255 368.318C683.255 367.59 683.409 366.946 683.717 366.386C684.035 365.826 684.464 365.387 685.005 365.07C685.556 364.743 686.172 364.58 686.853 364.58C687.544 364.58 688.155 364.739 688.687 365.056C689.229 365.364 689.653 365.803 689.961 366.372C690.269 366.932 690.423 367.581 690.423 368.318C690.423 368.365 690.419 368.416 690.409 368.472C690.409 368.519 690.409 368.57 690.409 368.626H684.011V367.884H689.877L689.485 368.178C689.485 367.646 689.369 367.175 689.135 366.764C688.911 366.344 688.603 366.017 688.211 365.784C687.819 365.551 687.367 365.434 686.853 365.434C686.349 365.434 685.897 365.551 685.495 365.784C685.094 366.017 684.781 366.344 684.557 366.764C684.333 367.184 684.221 367.665 684.221 368.206V368.36C684.221 368.92 684.343 369.415 684.585 369.844C684.837 370.264 685.183 370.595 685.621 370.838C686.069 371.071 686.578 371.188 687.147 371.188C687.595 371.188 688.011 371.109 688.393 370.95C688.785 370.791 689.121 370.549 689.401 370.222L689.961 370.866C689.635 371.258 689.224 371.557 688.729 371.762C688.244 371.967 687.707 372.07 687.119 372.07Z" fill="#313131"/>
<path d="M384.436 372V362.62L384.884 363.096H382.126V362.2H385.444V372H384.436ZM390.881 372.084C390.181 372.084 389.513 371.972 388.879 371.748C388.244 371.515 387.74 371.207 387.367 370.824L387.857 370.026C388.165 370.353 388.585 370.623 389.117 370.838C389.658 371.053 390.241 371.16 390.867 371.16C391.697 371.16 392.327 370.978 392.757 370.614C393.195 370.241 393.415 369.755 393.415 369.158C393.415 368.738 393.312 368.379 393.107 368.08C392.911 367.772 392.575 367.534 392.099 367.366C391.623 367.198 390.969 367.114 390.139 367.114H388.053L388.557 362.2H393.919V363.096H388.963L389.481 362.606L389.047 366.722L388.529 366.218H390.363C391.352 366.218 392.145 366.339 392.743 366.582C393.34 366.825 393.769 367.165 394.031 367.604C394.301 368.033 394.437 368.537 394.437 369.116C394.437 369.667 394.306 370.171 394.045 370.628C393.783 371.076 393.391 371.431 392.869 371.692C392.346 371.953 391.683 372.084 390.881 372.084ZM404.644 372V370.376L404.602 370.11V367.394C404.602 366.769 404.425 366.288 404.07 365.952C403.725 365.616 403.207 365.448 402.516 365.448C402.04 365.448 401.588 365.527 401.158 365.686C400.729 365.845 400.365 366.055 400.066 366.316L399.618 365.574C399.992 365.257 400.44 365.014 400.962 364.846C401.485 364.669 402.036 364.58 402.614 364.58C403.566 364.58 404.299 364.818 404.812 365.294C405.335 365.761 405.596 366.475 405.596 367.436V372H404.644ZM402.11 372.07C401.56 372.07 401.079 371.981 400.668 371.804C400.267 371.617 399.959 371.365 399.744 371.048C399.53 370.721 399.422 370.348 399.422 369.928C399.422 369.545 399.511 369.2 399.688 368.892C399.875 368.575 400.174 368.323 400.584 368.136C401.004 367.94 401.564 367.842 402.264 367.842H404.798V368.584H402.292C401.583 368.584 401.088 368.71 400.808 368.962C400.538 369.214 400.402 369.527 400.402 369.9C400.402 370.32 400.566 370.656 400.892 370.908C401.219 371.16 401.676 371.286 402.264 371.286C402.824 371.286 403.305 371.16 403.706 370.908C404.117 370.647 404.416 370.273 404.602 369.788L404.826 370.474C404.64 370.959 404.313 371.347 403.846 371.636C403.389 371.925 402.81 372.07 402.11 372.07ZM412.09 372.07C411.455 372.07 410.881 371.925 410.368 371.636C409.855 371.337 409.444 370.913 409.136 370.362C408.837 369.802 408.688 369.121 408.688 368.318C408.688 367.515 408.837 366.839 409.136 366.288C409.435 365.728 409.841 365.303 410.354 365.014C410.867 364.725 411.446 364.58 412.09 364.58C412.79 364.58 413.415 364.739 413.966 365.056C414.526 365.364 414.965 365.803 415.282 366.372C415.599 366.932 415.758 367.581 415.758 368.318C415.758 369.065 415.599 369.718 415.282 370.278C414.965 370.838 414.526 371.277 413.966 371.594C413.415 371.911 412.79 372.07 412.09 372.07ZM408.296 374.716V364.65H409.248V366.862L409.15 368.332L409.29 369.816V374.716H408.296ZM412.02 371.188C412.543 371.188 413.009 371.071 413.42 370.838C413.831 370.595 414.157 370.259 414.4 369.83C414.643 369.391 414.764 368.887 414.764 368.318C414.764 367.749 414.643 367.249 414.4 366.82C414.157 366.391 413.831 366.055 413.42 365.812C413.009 365.569 412.543 365.448 412.02 365.448C411.497 365.448 411.026 365.569 410.606 365.812C410.195 366.055 409.869 366.391 409.626 366.82C409.393 367.249 409.276 367.749 409.276 368.318C409.276 368.887 409.393 369.391 409.626 369.83C409.869 370.259 410.195 370.595 410.606 370.838C411.026 371.071 411.497 371.188 412.02 371.188ZM417.784 372V364.65H418.736V366.652L418.638 366.302C418.844 365.742 419.189 365.317 419.674 365.028C420.16 364.729 420.762 364.58 421.48 364.58V365.546C421.443 365.546 421.406 365.546 421.368 365.546C421.331 365.537 421.294 365.532 421.256 365.532C420.482 365.532 419.875 365.77 419.436 366.246C418.998 366.713 418.778 367.38 418.778 368.248V372H417.784ZM423.294 372V364.65H424.288V372H423.294ZM423.798 363.026C423.593 363.026 423.42 362.956 423.28 362.816C423.14 362.676 423.07 362.508 423.07 362.312C423.07 362.116 423.14 361.953 423.28 361.822C423.42 361.682 423.593 361.612 423.798 361.612C424.004 361.612 424.176 361.677 424.316 361.808C424.456 361.939 424.526 362.102 424.526 362.298C424.526 362.503 424.456 362.676 424.316 362.816C424.186 362.956 424.013 363.026 423.798 363.026ZM427.054 372V361.612H428.048V372H427.054ZM433.936 372.07C433.17 372.07 432.498 371.911 431.92 371.594C431.341 371.267 430.888 370.824 430.562 370.264C430.235 369.695 430.072 369.046 430.072 368.318C430.072 367.59 430.226 366.946 430.534 366.386C430.851 365.826 431.28 365.387 431.822 365.07C432.372 364.743 432.988 364.58 433.67 364.58C434.36 364.58 434.972 364.739 435.504 365.056C436.045 365.364 436.47 365.803 436.778 366.372C437.086 366.932 437.24 367.581 437.24 368.318C437.24 368.365 437.235 368.416 437.226 368.472C437.226 368.519 437.226 368.57 437.226 368.626H430.828V367.884H436.694L436.302 368.178C436.302 367.646 436.185 367.175 435.952 366.764C435.728 366.344 435.42 366.017 435.028 365.784C434.636 365.551 434.183 365.434 433.67 365.434C433.166 365.434 432.713 365.551 432.312 365.784C431.91 366.017 431.598 366.344 431.374 366.764C431.15 367.184 431.038 367.665 431.038 368.206V368.36C431.038 368.92 431.159 369.415 431.402 369.844C431.654 370.264 431.999 370.595 432.438 370.838C432.886 371.071 433.394 371.188 433.964 371.188C434.412 371.188 434.827 371.109 435.21 370.95C435.602 370.791 435.938 370.549 436.218 370.222L436.778 370.866C436.451 371.258 436.04 371.557 435.546 371.762C435.06 371.967 434.524 372.07 433.936 372.07Z" fill="#313131"/>
</svg>
