<svg width="302" height="227" viewBox="0 0 302 227" fill="none" xmlns="http://www.w3.org/2000/svg">
<path d="M253.654 221.084C252.945 221.084 252.273 220.972 251.638 220.748C251.013 220.515 250.509 220.207 250.126 219.824L250.616 219.026C250.933 219.353 251.358 219.623 251.89 219.838C252.431 220.053 253.019 220.16 253.654 220.16C254.466 220.16 255.087 219.983 255.516 219.628C255.955 219.273 256.174 218.797 256.174 218.2C256.174 217.603 255.959 217.127 255.53 216.772C255.11 216.417 254.443 216.24 253.528 216.24H252.828V215.498L255.852 211.704L255.992 212.096H250.532V211.2H256.832V211.914L253.808 215.708L253.318 215.386H253.696C254.872 215.386 255.749 215.647 256.328 216.17C256.916 216.693 257.21 217.365 257.21 218.186C257.21 218.737 257.079 219.231 256.818 219.67C256.557 220.109 256.16 220.454 255.628 220.706C255.105 220.958 254.447 221.084 253.654 221.084ZM262.536 221.084C261.78 221.084 261.108 220.888 260.52 220.496C259.932 220.095 259.47 219.525 259.134 218.788C258.798 218.041 258.63 217.145 258.63 216.1C258.63 215.055 258.798 214.163 259.134 213.426C259.47 212.679 259.932 212.11 260.52 211.718C261.108 211.317 261.78 211.116 262.536 211.116C263.292 211.116 263.964 211.317 264.552 211.718C265.14 212.11 265.602 212.679 265.938 213.426C266.284 214.163 266.456 215.055 266.456 216.1C266.456 217.145 266.284 218.041 265.938 218.788C265.602 219.525 265.14 220.095 264.552 220.496C263.964 220.888 263.292 221.084 262.536 221.084ZM262.536 220.16C263.115 220.16 263.619 220.006 264.048 219.698C264.478 219.381 264.814 218.923 265.056 218.326C265.299 217.719 265.42 216.977 265.42 216.1C265.42 215.223 265.299 214.485 265.056 213.888C264.814 213.281 264.478 212.824 264.048 212.516C263.619 212.199 263.115 212.04 262.536 212.04C261.976 212.04 261.477 212.199 261.038 212.516C260.6 212.824 260.259 213.281 260.016 213.888C259.774 214.485 259.652 215.223 259.652 216.1C259.652 216.977 259.774 217.719 260.016 218.326C260.259 218.923 260.6 219.381 261.038 219.698C261.477 220.006 261.976 220.16 262.536 220.16ZM276.828 221V219.376L276.786 219.11V216.394C276.786 215.769 276.609 215.288 276.254 214.952C275.909 214.616 275.391 214.448 274.7 214.448C274.224 214.448 273.771 214.527 273.342 214.686C272.913 214.845 272.549 215.055 272.25 215.316L271.802 214.574C272.175 214.257 272.623 214.014 273.146 213.846C273.669 213.669 274.219 213.58 274.798 213.58C275.75 213.58 276.483 213.818 276.996 214.294C277.519 214.761 277.78 215.475 277.78 216.436V221H276.828ZM274.294 221.07C273.743 221.07 273.263 220.981 272.852 220.804C272.451 220.617 272.143 220.365 271.928 220.048C271.713 219.721 271.606 219.348 271.606 218.928C271.606 218.545 271.695 218.2 271.872 217.892C272.059 217.575 272.357 217.323 272.768 217.136C273.188 216.94 273.748 216.842 274.448 216.842H276.982V217.584H274.476C273.767 217.584 273.272 217.71 272.992 217.962C272.721 218.214 272.586 218.527 272.586 218.9C272.586 219.32 272.749 219.656 273.076 219.908C273.403 220.16 273.86 220.286 274.448 220.286C275.008 220.286 275.489 220.16 275.89 219.908C276.301 219.647 276.599 219.273 276.786 218.788L277.01 219.474C276.823 219.959 276.497 220.347 276.03 220.636C275.573 220.925 274.994 221.07 274.294 221.07ZM282.233 221L278.971 213.65H280.007L283.003 220.468H282.513L285.551 213.65H286.531L283.255 221H282.233ZM287.931 221V213.65H288.883V215.652L288.785 215.302C288.99 214.742 289.336 214.317 289.821 214.028C290.306 213.729 290.908 213.58 291.627 213.58V214.546C291.59 214.546 291.552 214.546 291.515 214.546C291.478 214.537 291.44 214.532 291.403 214.532C290.628 214.532 290.022 214.77 289.583 215.246C289.144 215.713 288.925 216.38 288.925 217.248V221H287.931ZM293.441 221V213.65H294.435V221H293.441ZM293.945 212.026C293.739 212.026 293.567 211.956 293.427 211.816C293.287 211.676 293.217 211.508 293.217 211.312C293.217 211.116 293.287 210.953 293.427 210.822C293.567 210.682 293.739 210.612 293.945 210.612C294.15 210.612 294.323 210.677 294.463 210.808C294.603 210.939 294.673 211.102 294.673 211.298C294.673 211.503 294.603 211.676 294.463 211.816C294.332 211.956 294.159 212.026 293.945 212.026ZM297.2 221V210.612H298.194V221H297.2Z" fill="#313131"/>
<path d="M129.436 221V211.62L129.884 212.096H127.126V211.2H130.444V221H129.436ZM135.881 221.084C135.181 221.084 134.513 220.972 133.879 220.748C133.244 220.515 132.74 220.207 132.367 219.824L132.857 219.026C133.165 219.353 133.585 219.623 134.117 219.838C134.658 220.053 135.241 220.16 135.867 220.16C136.697 220.16 137.327 219.978 137.757 219.614C138.195 219.241 138.415 218.755 138.415 218.158C138.415 217.738 138.312 217.379 138.107 217.08C137.911 216.772 137.575 216.534 137.099 216.366C136.623 216.198 135.969 216.114 135.139 216.114H133.053L133.557 211.2H138.919V212.096H133.963L134.481 211.606L134.047 215.722L133.529 215.218H135.363C136.352 215.218 137.145 215.339 137.743 215.582C138.34 215.825 138.769 216.165 139.031 216.604C139.301 217.033 139.437 217.537 139.437 218.116C139.437 218.667 139.306 219.171 139.045 219.628C138.783 220.076 138.391 220.431 137.869 220.692C137.346 220.953 136.683 221.084 135.881 221.084ZM149.644 221V219.376L149.602 219.11V216.394C149.602 215.769 149.425 215.288 149.07 214.952C148.725 214.616 148.207 214.448 147.516 214.448C147.04 214.448 146.588 214.527 146.158 214.686C145.729 214.845 145.365 215.055 145.066 215.316L144.618 214.574C144.992 214.257 145.44 214.014 145.962 213.846C146.485 213.669 147.036 213.58 147.614 213.58C148.566 213.58 149.299 213.818 149.812 214.294C150.335 214.761 150.596 215.475 150.596 216.436V221H149.644ZM147.11 221.07C146.56 221.07 146.079 220.981 145.668 220.804C145.267 220.617 144.959 220.365 144.744 220.048C144.53 219.721 144.422 219.348 144.422 218.928C144.422 218.545 144.511 218.2 144.688 217.892C144.875 217.575 145.174 217.323 145.584 217.136C146.004 216.94 146.564 216.842 147.264 216.842H149.798V217.584H147.292C146.583 217.584 146.088 217.71 145.808 217.962C145.538 218.214 145.402 218.527 145.402 218.9C145.402 219.32 145.566 219.656 145.892 219.908C146.219 220.16 146.676 220.286 147.264 220.286C147.824 220.286 148.305 220.16 148.706 219.908C149.117 219.647 149.416 219.273 149.602 218.788L149.826 219.474C149.64 219.959 149.313 220.347 148.846 220.636C148.389 220.925 147.81 221.07 147.11 221.07ZM155.049 221L151.787 213.65H152.823L155.819 220.468H155.329L158.367 213.65H159.347L156.071 221H155.049ZM160.747 221V213.65H161.699V215.652L161.601 215.302C161.807 214.742 162.152 214.317 162.637 214.028C163.123 213.729 163.725 213.58 164.443 213.58V214.546C164.406 214.546 164.369 214.546 164.331 214.546C164.294 214.537 164.257 214.532 164.219 214.532C163.445 214.532 162.838 214.77 162.399 215.246C161.961 215.713 161.741 216.38 161.741 217.248V221H160.747ZM166.257 221V213.65H167.251V221H166.257ZM166.761 212.026C166.556 212.026 166.383 211.956 166.243 211.816C166.103 211.676 166.033 211.508 166.033 211.312C166.033 211.116 166.103 210.953 166.243 210.822C166.383 210.682 166.556 210.612 166.761 210.612C166.966 210.612 167.139 210.677 167.279 210.808C167.419 210.939 167.489 211.102 167.489 211.298C167.489 211.503 167.419 211.676 167.279 211.816C167.148 211.956 166.976 212.026 166.761 212.026ZM170.017 221V210.612H171.011V221H170.017Z" fill="#313131"/>
<path d="M2.436 221V211.62L2.884 212.096H0.126V211.2H3.444V221H2.436ZM9.56659 221.07C8.80126 221.07 8.12926 220.911 7.55059 220.594C6.97193 220.267 6.51926 219.824 6.19259 219.264C5.86593 218.695 5.70259 218.046 5.70259 217.318C5.70259 216.59 5.85659 215.946 6.16459 215.386C6.48193 214.826 6.91126 214.387 7.45259 214.07C8.00326 213.743 8.61926 213.58 9.30059 213.58C9.99126 213.58 10.6026 213.739 11.1346 214.056C11.6759 214.364 12.1006 214.803 12.4086 215.372C12.7166 215.932 12.8706 216.581 12.8706 217.318C12.8706 217.365 12.8659 217.416 12.8566 217.472C12.8566 217.519 12.8566 217.57 12.8566 217.626H6.45859V216.884H12.3246L11.9326 217.178C11.9326 216.646 11.8159 216.175 11.5826 215.764C11.3586 215.344 11.0506 215.017 10.6586 214.784C10.2666 214.551 9.81393 214.434 9.30059 214.434C8.79659 214.434 8.34393 214.551 7.94259 214.784C7.54126 215.017 7.22859 215.344 7.00459 215.764C6.78059 216.184 6.66859 216.665 6.66859 217.206V217.36C6.66859 217.92 6.78993 218.415 7.03259 218.844C7.28459 219.264 7.62993 219.595 8.06859 219.838C8.51659 220.071 9.02526 220.188 9.59459 220.188C10.0426 220.188 10.4579 220.109 10.8406 219.95C11.2326 219.791 11.5686 219.549 11.8486 219.222L12.4086 219.866C12.0819 220.258 11.6713 220.557 11.1766 220.762C10.6913 220.967 10.1546 221.07 9.56659 221.07ZM14.8938 221V213.65H15.8458V215.652L15.7478 215.302C15.9531 214.742 16.2985 214.317 16.7838 214.028C17.2691 213.729 17.8711 213.58 18.5898 213.58V214.546C18.5525 214.546 18.5151 214.546 18.4778 214.546C18.4405 214.537 18.4031 214.532 18.3658 214.532C17.5911 214.532 16.9845 214.77 16.5458 215.246C16.1071 215.713 15.8878 216.38 15.8878 217.248V221H14.8938ZM28.783 221V219.376L28.741 219.11V216.394C28.741 215.769 28.5637 215.288 28.209 214.952C27.8637 214.616 27.3457 214.448 26.655 214.448C26.179 214.448 25.7263 214.527 25.297 214.686C24.8677 214.845 24.5037 215.055 24.205 215.316L23.757 214.574C24.1303 214.257 24.5783 214.014 25.101 213.846C25.6237 213.669 26.1743 213.58 26.753 213.58C27.705 213.58 28.4377 213.818 28.951 214.294C29.4737 214.761 29.735 215.475 29.735 216.436V221H28.783ZM26.249 221.07C25.6983 221.07 25.2177 220.981 24.807 220.804C24.4057 220.617 24.0977 220.365 23.883 220.048C23.6683 219.721 23.561 219.348 23.561 218.928C23.561 218.545 23.6497 218.2 23.827 217.892C24.0137 217.575 24.3123 217.323 24.723 217.136C25.143 216.94 25.703 216.842 26.403 216.842H28.937V217.584H26.431C25.7217 217.584 25.227 217.71 24.947 217.962C24.6763 218.214 24.541 218.527 24.541 218.9C24.541 219.32 24.7043 219.656 25.031 219.908C25.3577 220.16 25.815 220.286 26.403 220.286C26.963 220.286 27.4437 220.16 27.845 219.908C28.2557 219.647 28.5543 219.273 28.741 218.788L28.965 219.474C28.7783 219.959 28.4517 220.347 27.985 220.636C27.5277 220.925 26.949 221.07 26.249 221.07ZM34.1881 221L30.9261 213.65H31.9621L34.9581 220.468H34.4681L37.5061 213.65H38.4861L35.2101 221H34.1881ZM39.886 221V213.65H40.838V215.652L40.74 215.302C40.9453 214.742 41.2907 214.317 41.776 214.028C42.2613 213.729 42.8633 213.58 43.582 213.58V214.546C43.5447 214.546 43.5073 214.546 43.47 214.546C43.4327 214.537 43.3953 214.532 43.358 214.532C42.5833 214.532 41.9767 214.77 41.538 215.246C41.0993 215.713 40.88 216.38 40.88 217.248V221H39.886ZM45.3958 221V213.65H46.3898V221H45.3958ZM45.8998 212.026C45.6944 212.026 45.5218 211.956 45.3818 211.816C45.2418 211.676 45.1718 211.508 45.1718 211.312C45.1718 211.116 45.2418 210.953 45.3818 210.822C45.5218 210.682 45.6944 210.612 45.8998 210.612C46.1051 210.612 46.2778 210.677 46.4178 210.808C46.5578 210.939 46.6278 211.102 46.6278 211.298C46.6278 211.503 46.5578 211.676 46.4178 211.816C46.2871 211.956 46.1144 212.026 45.8998 212.026ZM49.1555 221V210.612H50.1495V221H49.1555Z" fill="#313131"/>
<rect x="301.998" y="204" width="11" height="181" transform="rotate(180 301.998 204)" fill="#BC0051"/>
<rect x="286.998" y="204" width="11" height="151" transform="rotate(180 286.998 204)" fill="#214B33"/>
<rect x="270.998" y="204" width="11" height="144" transform="rotate(180 270.998 204)" fill="#A2C33D" fill-opacity="0.4"/>
<rect x="255.998" y="204" width="11" height="141" transform="rotate(180 255.998 204)" fill="#A2C33D" fill-opacity="0.4"/>
<rect x="240.998" y="204" width="11" height="136" transform="rotate(180 240.998 204)" fill="#A2C33D" fill-opacity="0.4"/>
<rect x="225.998" y="204" width="11" height="128" transform="rotate(180 225.998 204)" fill="#A2C33D" fill-opacity="0.4"/>
<rect x="209.998" y="204" width="11" height="125" transform="rotate(180 209.998 204)" fill="#A2C33D" fill-opacity="0.4"/>
<rect x="194.998" y="204" width="11" height="113" transform="rotate(180 194.998 204)" fill="#A2C33D" fill-opacity="0.4"/>
<rect x="179.998" y="204" width="11" height="111" transform="rotate(180 179.998 204)" fill="#A2C33D" fill-opacity="0.4"/>
<rect x="163.998" y="204" width="11" height="104" transform="rotate(180 163.998 204)" fill="#A2C33D" fill-opacity="0.4"/>
<rect x="148.998" y="204" width="11" height="104" transform="rotate(180 148.998 204)" fill="#A2C33D" fill-opacity="0.4"/>
<rect x="133.998" y="204" width="11" height="100" transform="rotate(180 133.998 204)" fill="#A2C33D" fill-opacity="0.4"/>
<rect x="117.998" y="204" width="11" height="97" transform="rotate(180 117.998 204)" fill="#A2C33D" fill-opacity="0.4"/>
<rect x="102.998" y="204" width="11" height="97" transform="rotate(180 102.998 204)" fill="#A2C33D" fill-opacity="0.4"/>
<rect x="87.998" y="204" width="11" height="86" transform="rotate(180 87.998 204)" fill="#A2C33D" fill-opacity="0.4"/>
<rect x="72.998" y="204" width="11" height="82" transform="rotate(180 72.998 204)" fill="#A2C33D" fill-opacity="0.4"/>
<rect x="56.998" y="204" width="11" height="79" transform="rotate(180 56.998 204)" fill="#A2C33D" fill-opacity="0.4"/>
<rect x="41.998" y="204" width="11" height="71" transform="rotate(180 41.998 204)" fill="#A2C33D" fill-opacity="0.4"/>
<rect x="26.998" y="204" width="11" height="68" transform="rotate(180 26.998 204)" fill="#A2C33D" fill-opacity="0.4"/>
<rect x="11" y="204" width="11" height="57" transform="rotate(180 11 204)" fill="#A2C33D"/>
<path d="M6 54V147" stroke="#A2C33D" stroke-width="11.3313" stroke-dasharray="5.67 5.67"/>
<path d="M23.382 129L19.042 119.2H20.162L24.222 128.426H23.606L27.694 119.2H28.744L24.404 129H23.382ZM32.3918 129.07C31.6824 129.07 31.0431 128.911 30.4738 128.594C29.9138 128.267 29.4704 127.824 29.1438 127.264C28.8171 126.695 28.6538 126.046 28.6538 125.318C28.6538 124.581 28.8171 123.932 29.1438 123.372C29.4704 122.812 29.9138 122.373 30.4738 122.056C31.0338 121.739 31.6731 121.58 32.3918 121.58C33.1198 121.58 33.7638 121.739 34.3238 122.056C34.8931 122.373 35.3364 122.812 35.6538 123.372C35.9804 123.932 36.1438 124.581 36.1438 125.318C36.1438 126.046 35.9804 126.695 35.6538 127.264C35.3364 127.824 34.8931 128.267 34.3238 128.594C33.7544 128.911 33.1104 129.07 32.3918 129.07ZM32.3918 128.188C32.9238 128.188 33.3951 128.071 33.8058 127.838C34.2164 127.595 34.5384 127.259 34.7718 126.83C35.0144 126.391 35.1358 125.887 35.1358 125.318C35.1358 124.739 35.0144 124.235 34.7718 123.806C34.5384 123.377 34.2164 123.045 33.8058 122.812C33.3951 122.569 32.9284 122.448 32.4058 122.448C31.8831 122.448 31.4164 122.569 31.0058 122.812C30.5951 123.045 30.2684 123.377 30.0258 123.806C29.7831 124.235 29.6618 124.739 29.6618 125.318C29.6618 125.887 29.7831 126.391 30.0258 126.83C30.2684 127.259 30.5951 127.595 31.0058 127.838C31.4164 128.071 31.8784 128.188 32.3918 128.188ZM41.2111 129.07C40.5858 129.07 40.0398 128.953 39.5731 128.72C39.1064 128.487 38.7424 128.137 38.4811 127.67C38.2291 127.203 38.1031 126.62 38.1031 125.92V121.65H39.0971V125.808C39.0971 126.592 39.2884 127.185 39.6711 127.586C40.0631 127.978 40.6091 128.174 41.3091 128.174C41.8224 128.174 42.2658 128.071 42.6391 127.866C43.0218 127.651 43.3111 127.343 43.5071 126.942C43.7124 126.541 43.8151 126.06 43.8151 125.5V121.65H44.8091V129H43.8571V126.984L44.0111 127.348C43.7778 127.889 43.4138 128.314 42.9191 128.622C42.4338 128.921 41.8644 129.07 41.2111 129.07ZM49.5534 129.07C48.9467 129.07 48.3727 128.986 47.8314 128.818C47.29 128.641 46.8654 128.421 46.5574 128.16L47.0054 127.376C47.304 127.6 47.6867 127.796 48.1534 127.964C48.62 128.123 49.11 128.202 49.6234 128.202C50.3234 128.202 50.8274 128.095 51.1354 127.88C51.4434 127.656 51.5974 127.362 51.5974 126.998C51.5974 126.727 51.5087 126.517 51.3314 126.368C51.1634 126.209 50.9394 126.093 50.6594 126.018C50.3794 125.934 50.0667 125.864 49.7214 125.808C49.376 125.752 49.0307 125.687 48.6854 125.612C48.3494 125.537 48.0414 125.43 47.7614 125.29C47.4814 125.141 47.2527 124.94 47.0754 124.688C46.9074 124.436 46.8234 124.1 46.8234 123.68C46.8234 123.279 46.9354 122.919 47.1594 122.602C47.3834 122.285 47.71 122.037 48.1394 121.86C48.578 121.673 49.11 121.58 49.7354 121.58C50.2114 121.58 50.6874 121.645 51.1634 121.776C51.6394 121.897 52.0314 122.061 52.3394 122.266L51.9054 123.064C51.5787 122.84 51.2287 122.681 50.8554 122.588C50.482 122.485 50.1087 122.434 49.7354 122.434C49.0727 122.434 48.5827 122.551 48.2654 122.784C47.9574 123.008 47.8034 123.297 47.8034 123.652C47.8034 123.932 47.8874 124.151 48.0554 124.31C48.2327 124.469 48.4614 124.595 48.7414 124.688C49.0307 124.772 49.3434 124.842 49.6794 124.898C50.0247 124.954 50.3654 125.024 50.7014 125.108C51.0467 125.183 51.3594 125.29 51.6394 125.43C51.9287 125.561 52.1574 125.752 52.3254 126.004C52.5027 126.247 52.5914 126.569 52.5914 126.97C52.5914 127.399 52.47 127.773 52.2274 128.09C51.994 128.398 51.6487 128.641 51.1914 128.818C50.7434 128.986 50.1974 129.07 49.5534 129.07ZM62.6854 129V127.376L62.6434 127.11V124.394C62.6434 123.769 62.466 123.288 62.1114 122.952C61.766 122.616 61.248 122.448 60.5574 122.448C60.0814 122.448 59.6287 122.527 59.1994 122.686C58.77 122.845 58.406 123.055 58.1074 123.316L57.6594 122.574C58.0327 122.257 58.4807 122.014 59.0034 121.846C59.526 121.669 60.0767 121.58 60.6554 121.58C61.6074 121.58 62.34 121.818 62.8534 122.294C63.376 122.761 63.6374 123.475 63.6374 124.436V129H62.6854ZM60.1514 129.07C59.6007 129.07 59.12 128.981 58.7094 128.804C58.308 128.617 58 128.365 57.7854 128.048C57.5707 127.721 57.4634 127.348 57.4634 126.928C57.4634 126.545 57.552 126.2 57.7294 125.892C57.916 125.575 58.2147 125.323 58.6254 125.136C59.0454 124.94 59.6054 124.842 60.3054 124.842H62.8394V125.584H60.3334C59.624 125.584 59.1294 125.71 58.8494 125.962C58.5787 126.214 58.4434 126.527 58.4434 126.9C58.4434 127.32 58.6067 127.656 58.9334 127.908C59.26 128.16 59.7174 128.286 60.3054 128.286C60.8654 128.286 61.346 128.16 61.7474 127.908C62.158 127.647 62.4567 127.273 62.6434 126.788L62.8674 127.474C62.6807 127.959 62.354 128.347 61.8874 128.636C61.43 128.925 60.8514 129.07 60.1514 129.07ZM69.3892 129.07C68.6612 129.07 68.0078 128.911 67.4292 128.594C66.8598 128.267 66.4118 127.824 66.0852 127.264C65.7585 126.695 65.5952 126.046 65.5952 125.318C65.5952 124.581 65.7585 123.932 66.0852 123.372C66.4118 122.812 66.8598 122.373 67.4292 122.056C68.0078 121.739 68.6612 121.58 69.3892 121.58C70.0145 121.58 70.5792 121.701 71.0832 121.944C71.5872 122.187 71.9838 122.551 72.2732 123.036L71.5312 123.54C71.2792 123.167 70.9665 122.891 70.5932 122.714C70.2198 122.537 69.8138 122.448 69.3752 122.448C68.8525 122.448 68.3812 122.569 67.9612 122.812C67.5412 123.045 67.2098 123.377 66.9672 123.806C66.7245 124.235 66.6032 124.739 66.6032 125.318C66.6032 125.897 66.7245 126.401 66.9672 126.83C67.2098 127.259 67.5412 127.595 67.9612 127.838C68.3812 128.071 68.8525 128.188 69.3752 128.188C69.8138 128.188 70.2198 128.099 70.5932 127.922C70.9665 127.745 71.2792 127.474 71.5312 127.11L72.2732 127.614C71.9838 128.09 71.5872 128.454 71.0832 128.706C70.5792 128.949 70.0145 129.07 69.3892 129.07ZM77.8685 121.58C78.4658 121.58 78.9885 121.697 79.4365 121.93C79.8938 122.154 80.2485 122.499 80.5005 122.966C80.7618 123.433 80.8925 124.021 80.8925 124.73V129H79.8985V124.828C79.8985 124.053 79.7025 123.47 79.3105 123.078C78.9278 122.677 78.3865 122.476 77.6865 122.476C77.1638 122.476 76.7065 122.583 76.3145 122.798C75.9318 123.003 75.6331 123.307 75.4185 123.708C75.2131 124.1 75.1105 124.576 75.1105 125.136V129H74.1165V118.612H75.1105V123.666L74.9145 123.288C75.1478 122.756 75.5211 122.341 76.0345 122.042C76.5478 121.734 77.1591 121.58 77.8685 121.58ZM86.6994 129.07C85.9341 129.07 85.2621 128.911 84.6834 128.594C84.1047 128.267 83.6521 127.824 83.3254 127.264C82.9987 126.695 82.8354 126.046 82.8354 125.318C82.8354 124.59 82.9894 123.946 83.2974 123.386C83.6147 122.826 84.0441 122.387 84.5854 122.07C85.1361 121.743 85.7521 121.58 86.4334 121.58C87.1241 121.58 87.7354 121.739 88.2674 122.056C88.8087 122.364 89.2334 122.803 89.5414 123.372C89.8494 123.932 90.0034 124.581 90.0034 125.318C90.0034 125.365 89.9987 125.416 89.9894 125.472C89.9894 125.519 89.9894 125.57 89.9894 125.626H83.5914V124.884H89.4574L89.0654 125.178C89.0654 124.646 88.9487 124.175 88.7154 123.764C88.4914 123.344 88.1834 123.017 87.7914 122.784C87.3994 122.551 86.9467 122.434 86.4334 122.434C85.9294 122.434 85.4767 122.551 85.0754 122.784C84.6741 123.017 84.3614 123.344 84.1374 123.764C83.9134 124.184 83.8014 124.665 83.8014 125.206V125.36C83.8014 125.92 83.9227 126.415 84.1654 126.844C84.4174 127.264 84.7627 127.595 85.2014 127.838C85.6494 128.071 86.1581 128.188 86.7274 128.188C87.1754 128.188 87.5907 128.109 87.9734 127.95C88.3654 127.791 88.7014 127.549 88.9814 127.222L89.5414 127.866C89.2147 128.258 88.8041 128.557 88.3094 128.762C87.8241 128.967 87.2874 129.07 86.6994 129.07ZM94.3506 129.07C93.66 129.07 93.128 128.883 92.7546 128.51C92.3813 128.137 92.1946 127.609 92.1946 126.928V120.026H93.1886V126.872C93.1886 127.301 93.296 127.633 93.5106 127.866C93.7346 128.099 94.052 128.216 94.4626 128.216C94.9013 128.216 95.2653 128.09 95.5546 127.838L95.9046 128.552C95.7086 128.729 95.4706 128.86 95.1906 128.944C94.92 129.028 94.64 129.07 94.3506 129.07ZM90.8786 122.476V121.65H95.4286V122.476H90.8786ZM100.576 129.07C99.811 129.07 99.139 128.911 98.5604 128.594C97.9817 128.267 97.529 127.824 97.2024 127.264C96.8757 126.695 96.7124 126.046 96.7124 125.318C96.7124 124.59 96.8664 123.946 97.1744 123.386C97.4917 122.826 97.921 122.387 98.4624 122.07C99.013 121.743 99.629 121.58 100.31 121.58C101.001 121.58 101.612 121.739 102.144 122.056C102.686 122.364 103.11 122.803 103.418 123.372C103.726 123.932 103.88 124.581 103.88 125.318C103.88 125.365 103.876 125.416 103.866 125.472C103.866 125.519 103.866 125.57 103.866 125.626H97.4684V124.884H103.334L102.942 125.178C102.942 124.646 102.826 124.175 102.592 123.764C102.368 123.344 102.06 123.017 101.668 122.784C101.276 122.551 100.824 122.434 100.31 122.434C99.8064 122.434 99.3537 122.551 98.9524 122.784C98.551 123.017 98.2384 123.344 98.0144 123.764C97.7904 124.184 97.6784 124.665 97.6784 125.206V125.36C97.6784 125.92 97.7997 126.415 98.0424 126.844C98.2944 127.264 98.6397 127.595 99.0784 127.838C99.5264 128.071 100.035 128.188 100.604 128.188C101.052 128.188 101.468 128.109 101.85 127.95C102.242 127.791 102.578 127.549 102.858 127.222L103.418 127.866C103.092 128.258 102.681 128.557 102.186 128.762C101.701 128.967 101.164 129.07 100.576 129.07ZM105.037 129V128.342L109.937 122.14L110.147 122.476H105.121V121.65H110.931V122.294L106.045 128.51L105.793 128.174H111.029V129H105.037ZM119.576 129.07C118.876 129.07 118.246 128.911 117.686 128.594C117.135 128.277 116.701 127.838 116.384 127.278C116.066 126.709 115.908 126.055 115.908 125.318C115.908 124.571 116.066 123.918 116.384 123.358C116.701 122.798 117.135 122.364 117.686 122.056C118.246 121.739 118.876 121.58 119.576 121.58C120.22 121.58 120.794 121.725 121.298 122.014C121.811 122.303 122.217 122.728 122.516 123.288C122.824 123.839 122.978 124.515 122.978 125.318C122.978 126.111 122.828 126.788 122.53 127.348C122.231 127.908 121.825 128.337 121.312 128.636C120.808 128.925 120.229 129.07 119.576 129.07ZM119.646 128.188C120.168 128.188 120.635 128.071 121.046 127.838C121.466 127.595 121.792 127.259 122.026 126.83C122.268 126.391 122.39 125.887 122.39 125.318C122.39 124.739 122.268 124.235 122.026 123.806C121.792 123.377 121.466 123.045 121.046 122.812C120.635 122.569 120.168 122.448 119.646 122.448C119.132 122.448 118.67 122.569 118.26 122.812C117.849 123.045 117.522 123.377 117.28 123.806C117.037 124.235 116.916 124.739 116.916 125.318C116.916 125.887 117.037 126.391 117.28 126.83C117.522 127.259 117.849 127.595 118.26 127.838C118.67 128.071 119.132 128.188 119.646 128.188ZM122.418 129V126.788L122.516 125.304L122.376 123.82V118.612H123.37V129H122.418ZM129.26 129.07C128.495 129.07 127.823 128.911 127.244 128.594C126.665 128.267 126.213 127.824 125.886 127.264C125.559 126.695 125.396 126.046 125.396 125.318C125.396 124.59 125.55 123.946 125.858 123.386C126.175 122.826 126.605 122.387 127.146 122.07C127.697 121.743 128.313 121.58 128.994 121.58C129.685 121.58 130.296 121.739 130.828 122.056C131.369 122.364 131.794 122.803 132.102 123.372C132.41 123.932 132.564 124.581 132.564 125.318C132.564 125.365 132.559 125.416 132.55 125.472C132.55 125.519 132.55 125.57 132.55 125.626H126.152V124.884H132.018L131.626 125.178C131.626 124.646 131.509 124.175 131.276 123.764C131.052 123.344 130.744 123.017 130.352 122.784C129.96 122.551 129.507 122.434 128.994 122.434C128.49 122.434 128.037 122.551 127.636 122.784C127.235 123.017 126.922 123.344 126.698 123.764C126.474 124.184 126.362 124.665 126.362 125.206V125.36C126.362 125.92 126.483 126.415 126.726 126.844C126.978 127.264 127.323 127.595 127.762 127.838C128.21 128.071 128.719 128.188 129.288 128.188C129.736 128.188 130.151 128.109 130.534 127.95C130.926 127.791 131.262 127.549 131.542 127.222L132.102 127.866C131.775 128.258 131.365 128.557 130.87 128.762C130.385 128.967 129.848 129.07 129.26 129.07ZM136.561 129.07C135.955 129.07 135.381 128.986 134.839 128.818C134.298 128.641 133.873 128.421 133.565 128.16L134.013 127.376C134.312 127.6 134.695 127.796 135.161 127.964C135.628 128.123 136.118 128.202 136.631 128.202C137.331 128.202 137.835 128.095 138.143 127.88C138.451 127.656 138.605 127.362 138.605 126.998C138.605 126.727 138.517 126.517 138.339 126.368C138.171 126.209 137.947 126.093 137.667 126.018C137.387 125.934 137.075 125.864 136.729 125.808C136.384 125.752 136.039 125.687 135.693 125.612C135.357 125.537 135.049 125.43 134.769 125.29C134.489 125.141 134.261 124.94 134.083 124.688C133.915 124.436 133.831 124.1 133.831 123.68C133.831 123.279 133.943 122.919 134.167 122.602C134.391 122.285 134.718 122.037 135.147 121.86C135.586 121.673 136.118 121.58 136.743 121.58C137.219 121.58 137.695 121.645 138.171 121.776C138.647 121.897 139.039 122.061 139.347 122.266L138.913 123.064C138.587 122.84 138.237 122.681 137.863 122.588C137.49 122.485 137.117 122.434 136.743 122.434C136.081 122.434 135.591 122.551 135.273 122.784C134.965 123.008 134.811 123.297 134.811 123.652C134.811 123.932 134.895 124.151 135.063 124.31C135.241 124.469 135.469 124.595 135.749 124.688C136.039 124.772 136.351 124.842 136.687 124.898C137.033 124.954 137.373 125.024 137.709 125.108C138.055 125.183 138.367 125.29 138.647 125.43C138.937 125.561 139.165 125.752 139.333 126.004C139.511 126.247 139.599 126.569 139.599 126.97C139.599 127.399 139.478 127.773 139.235 128.09C139.002 128.398 138.657 128.641 138.199 128.818C137.751 128.986 137.205 129.07 136.561 129.07ZM148.139 129.07C147.411 129.07 146.758 128.911 146.179 128.594C145.61 128.267 145.162 127.824 144.835 127.264C144.509 126.695 144.345 126.046 144.345 125.318C144.345 124.581 144.509 123.932 144.835 123.372C145.162 122.812 145.61 122.373 146.179 122.056C146.758 121.739 147.411 121.58 148.139 121.58C148.765 121.58 149.329 121.701 149.833 121.944C150.337 122.187 150.734 122.551 151.023 123.036L150.281 123.54C150.029 123.167 149.717 122.891 149.343 122.714C148.97 122.537 148.564 122.448 148.125 122.448C147.603 122.448 147.131 122.569 146.711 122.812C146.291 123.045 145.96 123.377 145.717 123.806C145.475 124.235 145.353 124.739 145.353 125.318C145.353 125.897 145.475 126.401 145.717 126.83C145.96 127.259 146.291 127.595 146.711 127.838C147.131 128.071 147.603 128.188 148.125 128.188C148.564 128.188 148.97 128.099 149.343 127.922C149.717 127.745 150.029 127.474 150.281 127.11L151.023 127.614C150.734 128.09 150.337 128.454 149.833 128.706C149.329 128.949 148.765 129.07 148.139 129.07ZM155.849 129.07C155.139 129.07 154.5 128.911 153.931 128.594C153.371 128.267 152.927 127.824 152.601 127.264C152.274 126.695 152.111 126.046 152.111 125.318C152.111 124.581 152.274 123.932 152.601 123.372C152.927 122.812 153.371 122.373 153.931 122.056C154.491 121.739 155.13 121.58 155.849 121.58C156.577 121.58 157.221 121.739 157.781 122.056C158.35 122.373 158.793 122.812 159.111 123.372C159.437 123.932 159.601 124.581 159.601 125.318C159.601 126.046 159.437 126.695 159.111 127.264C158.793 127.824 158.35 128.267 157.781 128.594C157.211 128.911 156.567 129.07 155.849 129.07ZM155.849 128.188C156.381 128.188 156.852 128.071 157.263 127.838C157.673 127.595 157.995 127.259 158.229 126.83C158.471 126.391 158.593 125.887 158.593 125.318C158.593 124.739 158.471 124.235 158.229 123.806C157.995 123.377 157.673 123.045 157.263 122.812C156.852 122.569 156.385 122.448 155.863 122.448C155.34 122.448 154.873 122.569 154.463 122.812C154.052 123.045 153.725 123.377 153.483 123.806C153.24 124.235 153.119 124.739 153.119 125.318C153.119 125.887 153.24 126.391 153.483 126.83C153.725 127.259 154.052 127.595 154.463 127.838C154.873 128.071 155.335 128.188 155.849 128.188ZM165.382 121.58C165.979 121.58 166.502 121.697 166.95 121.93C167.407 122.154 167.762 122.499 168.014 122.966C168.275 123.433 168.406 124.021 168.406 124.73V129H167.412V124.828C167.412 124.053 167.216 123.47 166.824 123.078C166.441 122.677 165.9 122.476 165.2 122.476C164.677 122.476 164.22 122.583 163.828 122.798C163.445 123.003 163.147 123.307 162.932 123.708C162.727 124.1 162.624 124.576 162.624 125.136V129H161.63V121.65H162.582V123.666L162.428 123.288C162.661 122.756 163.035 122.341 163.548 122.042C164.061 121.734 164.673 121.58 165.382 121.58ZM173.415 129.07C172.724 129.07 172.192 128.883 171.819 128.51C171.446 128.137 171.259 127.609 171.259 126.928V120.026H172.253V126.872C172.253 127.301 172.36 127.633 172.575 127.866C172.799 128.099 173.116 128.216 173.527 128.216C173.966 128.216 174.33 128.09 174.619 127.838L174.969 128.552C174.773 128.729 174.535 128.86 174.255 128.944C173.984 129.028 173.704 129.07 173.415 129.07ZM169.943 122.476V121.65H174.493V122.476H169.943ZM176.779 129V121.65H177.731V123.652L177.633 123.302C177.838 122.742 178.183 122.317 178.669 122.028C179.154 121.729 179.756 121.58 180.475 121.58V122.546C180.437 122.546 180.4 122.546 180.363 122.546C180.325 122.537 180.288 122.532 180.251 122.532C179.476 122.532 178.869 122.77 178.431 123.246C177.992 123.713 177.773 124.38 177.773 125.248V129H176.779ZM186.347 129V127.376L186.305 127.11V124.394C186.305 123.769 186.128 123.288 185.773 122.952C185.428 122.616 184.91 122.448 184.219 122.448C183.743 122.448 183.291 122.527 182.861 122.686C182.432 122.845 182.068 123.055 181.769 123.316L181.321 122.574C181.695 122.257 182.143 122.014 182.665 121.846C183.188 121.669 183.739 121.58 184.317 121.58C185.269 121.58 186.002 121.818 186.515 122.294C187.038 122.761 187.299 123.475 187.299 124.436V129H186.347ZM183.813 129.07C183.263 129.07 182.782 128.981 182.371 128.804C181.97 128.617 181.662 128.365 181.447 128.048C181.233 127.721 181.125 127.348 181.125 126.928C181.125 126.545 181.214 126.2 181.391 125.892C181.578 125.575 181.877 125.323 182.287 125.136C182.707 124.94 183.267 124.842 183.967 124.842H186.501V125.584H183.995C183.286 125.584 182.791 125.71 182.511 125.962C182.241 126.214 182.105 126.527 182.105 126.9C182.105 127.32 182.269 127.656 182.595 127.908C182.922 128.16 183.379 128.286 183.967 128.286C184.527 128.286 185.008 128.16 185.409 127.908C185.82 127.647 186.119 127.273 186.305 126.788L186.529 127.474C186.343 127.959 186.016 128.347 185.549 128.636C185.092 128.925 184.513 129.07 183.813 129.07ZM192.323 129.07C191.633 129.07 191.101 128.883 190.727 128.51C190.354 128.137 190.167 127.609 190.167 126.928V120.026H191.161V126.872C191.161 127.301 191.269 127.633 191.483 127.866C191.707 128.099 192.025 128.216 192.435 128.216C192.874 128.216 193.238 128.09 193.527 127.838L193.877 128.552C193.681 128.729 193.443 128.86 193.163 128.944C192.893 129.028 192.613 129.07 192.323 129.07ZM188.851 122.476V121.65H193.401V122.476H188.851ZM197.661 129.07C197.054 129.07 196.48 128.986 195.939 128.818C195.397 128.641 194.973 128.421 194.665 128.16L195.113 127.376C195.411 127.6 195.794 127.796 196.261 127.964C196.727 128.123 197.217 128.202 197.731 128.202C198.431 128.202 198.935 128.095 199.243 127.88C199.551 127.656 199.705 127.362 199.705 126.998C199.705 126.727 199.616 126.517 199.439 126.368C199.271 126.209 199.047 126.093 198.767 126.018C198.487 125.934 198.174 125.864 197.829 125.808C197.483 125.752 197.138 125.687 196.793 125.612C196.457 125.537 196.149 125.43 195.869 125.29C195.589 125.141 195.36 124.94 195.183 124.688C195.015 124.436 194.931 124.1 194.931 123.68C194.931 123.279 195.043 122.919 195.267 122.602C195.491 122.285 195.817 122.037 196.247 121.86C196.685 121.673 197.217 121.58 197.843 121.58C198.319 121.58 198.795 121.645 199.271 121.776C199.747 121.897 200.139 122.061 200.447 122.266L200.013 123.064C199.686 122.84 199.336 122.681 198.963 122.588C198.589 122.485 198.216 122.434 197.843 122.434C197.18 122.434 196.69 122.551 196.373 122.784C196.065 123.008 195.911 123.297 195.911 123.652C195.911 123.932 195.995 124.151 196.163 124.31C196.34 124.469 196.569 124.595 196.849 124.688C197.138 124.772 197.451 124.842 197.787 124.898C198.132 124.954 198.473 125.024 198.809 125.108C199.154 125.183 199.467 125.29 199.747 125.43C200.036 125.561 200.265 125.752 200.433 126.004C200.61 126.247 200.699 126.569 200.699 126.97C200.699 127.399 200.577 127.773 200.335 128.09C200.101 128.398 199.756 128.641 199.299 128.818C198.851 128.986 198.305 129.07 197.661 129.07ZM210.793 129V127.376L210.751 127.11V124.394C210.751 123.769 210.573 123.288 210.219 122.952C209.873 122.616 209.355 122.448 208.665 122.448C208.189 122.448 207.736 122.527 207.307 122.686C206.877 122.845 206.513 123.055 206.215 123.316L205.767 122.574C206.14 122.257 206.588 122.014 207.111 121.846C207.633 121.669 208.184 121.58 208.763 121.58C209.715 121.58 210.447 121.818 210.961 122.294C211.483 122.761 211.745 123.475 211.745 124.436V129H210.793ZM208.259 129.07C207.708 129.07 207.227 128.981 206.817 128.804C206.415 128.617 206.107 128.365 205.893 128.048C205.678 127.721 205.571 127.348 205.571 126.928C205.571 126.545 205.659 126.2 205.837 125.892C206.023 125.575 206.322 125.323 206.733 125.136C207.153 124.94 207.713 124.842 208.413 124.842H210.947V125.584H208.441C207.731 125.584 207.237 125.71 206.957 125.962C206.686 126.214 206.551 126.527 206.551 126.9C206.551 127.32 206.714 127.656 207.041 127.908C207.367 128.16 207.825 128.286 208.413 128.286C208.973 128.286 209.453 128.16 209.855 127.908C210.265 127.647 210.564 127.273 210.751 126.788L210.975 127.474C210.788 127.959 210.461 128.347 209.995 128.636C209.537 128.925 208.959 129.07 208.259 129.07ZM208.721 120.502L206.453 118.766H207.783L209.701 120.502H208.721ZM220.433 129.07C219.742 129.07 219.21 128.883 218.837 128.51C218.463 128.137 218.277 127.609 218.277 126.928V120.026H219.271V126.872C219.271 127.301 219.378 127.633 219.593 127.866C219.817 128.099 220.134 128.216 220.545 128.216C220.983 128.216 221.347 128.09 221.637 127.838L221.987 128.552C221.791 128.729 221.553 128.86 221.273 128.944C221.002 129.028 220.722 129.07 220.433 129.07ZM216.961 122.476V121.65H221.511V122.476H216.961ZM226.658 129.07C225.893 129.07 225.221 128.911 224.642 128.594C224.064 128.267 223.611 127.824 223.284 127.264C222.958 126.695 222.794 126.046 222.794 125.318C222.794 124.59 222.948 123.946 223.256 123.386C223.574 122.826 224.003 122.387 224.544 122.07C225.095 121.743 225.711 121.58 226.392 121.58C227.083 121.58 227.694 121.739 228.226 122.056C228.768 122.364 229.192 122.803 229.5 123.372C229.808 123.932 229.962 124.581 229.962 125.318C229.962 125.365 229.958 125.416 229.948 125.472C229.948 125.519 229.948 125.57 229.948 125.626H223.55V124.884H229.416L229.024 125.178C229.024 124.646 228.908 124.175 228.674 123.764C228.45 123.344 228.142 123.017 227.75 122.784C227.358 122.551 226.906 122.434 226.392 122.434C225.888 122.434 225.436 122.551 225.034 122.784C224.633 123.017 224.32 123.344 224.096 123.764C223.872 124.184 223.76 124.665 223.76 125.206V125.36C223.76 125.92 223.882 126.415 224.124 126.844C224.376 127.264 224.722 127.595 225.16 127.838C225.608 128.071 226.117 128.188 226.686 128.188C227.134 128.188 227.55 128.109 227.932 127.95C228.324 127.791 228.66 127.549 228.94 127.222L229.5 127.866C229.174 128.258 228.763 128.557 228.268 128.762C227.783 128.967 227.246 129.07 226.658 129.07ZM231.986 129V121.65H232.938V123.652L232.84 123.302C233.045 122.742 233.39 122.317 233.876 122.028C234.361 121.729 234.963 121.58 235.682 121.58V122.546C235.644 122.546 235.607 122.546 235.57 122.546C235.532 122.537 235.495 122.532 235.458 122.532C234.683 122.532 234.076 122.77 233.638 123.246C233.199 123.713 232.98 124.38 232.98 125.248V129H231.986ZM246.679 121.58C247.277 121.58 247.795 121.697 248.233 121.93C248.681 122.154 249.027 122.499 249.269 122.966C249.521 123.433 249.647 124.021 249.647 124.73V129H248.653V124.828C248.653 124.053 248.467 123.47 248.093 123.078C247.729 122.677 247.211 122.476 246.539 122.476C246.035 122.476 245.597 122.583 245.223 122.798C244.859 123.003 244.575 123.307 244.369 123.708C244.173 124.1 244.075 124.576 244.075 125.136V129H243.081V124.828C243.081 124.053 242.895 123.47 242.521 123.078C242.148 122.677 241.625 122.476 240.953 122.476C240.459 122.476 240.025 122.583 239.651 122.798C239.278 123.003 238.989 123.307 238.783 123.708C238.587 124.1 238.489 124.576 238.489 125.136V129H237.495V121.65H238.447V123.638L238.293 123.288C238.517 122.756 238.877 122.341 239.371 122.042C239.875 121.734 240.468 121.58 241.149 121.58C241.868 121.58 242.479 121.762 242.983 122.126C243.487 122.481 243.814 123.017 243.963 123.736L243.571 123.582C243.786 122.985 244.164 122.504 244.705 122.14C245.256 121.767 245.914 121.58 246.679 121.58ZM255.465 129.07C254.7 129.07 254.028 128.911 253.449 128.594C252.87 128.267 252.418 127.824 252.091 127.264C251.764 126.695 251.601 126.046 251.601 125.318C251.601 124.59 251.755 123.946 252.063 123.386C252.38 122.826 252.81 122.387 253.351 122.07C253.902 121.743 254.518 121.58 255.199 121.58C255.89 121.58 256.501 121.739 257.033 122.056C257.574 122.364 257.999 122.803 258.307 123.372C258.615 123.932 258.769 124.581 258.769 125.318C258.769 125.365 258.764 125.416 258.755 125.472C258.755 125.519 258.755 125.57 258.755 125.626H252.357V124.884H258.223L257.831 125.178C257.831 124.646 257.714 124.175 257.481 123.764C257.257 123.344 256.949 123.017 256.557 122.784C256.165 122.551 255.712 122.434 255.199 122.434C254.695 122.434 254.242 122.551 253.841 122.784C253.44 123.017 253.127 123.344 252.903 123.764C252.679 124.184 252.567 124.665 252.567 125.206V125.36C252.567 125.92 252.688 126.415 252.931 126.844C253.183 127.264 253.528 127.595 253.967 127.838C254.415 128.071 254.924 128.188 255.493 128.188C255.941 128.188 256.356 128.109 256.739 127.95C257.131 127.791 257.467 127.549 257.747 127.222L258.307 127.866C257.98 128.258 257.57 128.557 257.075 128.762C256.59 128.967 256.053 129.07 255.465 129.07ZM24.992 152V150.376L24.95 150.11V147.394C24.95 146.769 24.7727 146.288 24.418 145.952C24.0727 145.616 23.5547 145.448 22.864 145.448C22.388 145.448 21.9353 145.527 21.506 145.686C21.0767 145.845 20.7127 146.055 20.414 146.316L19.966 145.574C20.3393 145.257 20.7873 145.014 21.31 144.846C21.8327 144.669 22.3833 144.58 22.962 144.58C23.914 144.58 24.6467 144.818 25.16 145.294C25.6827 145.761 25.944 146.475 25.944 147.436V152H24.992ZM22.458 152.07C21.9073 152.07 21.4267 151.981 21.016 151.804C20.6147 151.617 20.3067 151.365 20.092 151.048C19.8773 150.721 19.77 150.348 19.77 149.928C19.77 149.545 19.8587 149.2 20.036 148.892C20.2227 148.575 20.5213 148.323 20.932 148.136C21.352 147.94 21.912 147.842 22.612 147.842H25.146V148.584H22.64C21.9307 148.584 21.436 148.71 21.156 148.962C20.8853 149.214 20.75 149.527 20.75 149.9C20.75 150.32 20.9133 150.656 21.24 150.908C21.5667 151.16 22.024 151.286 22.612 151.286C23.172 151.286 23.6527 151.16 24.054 150.908C24.4647 150.647 24.7633 150.273 24.95 149.788L25.174 150.474C24.9873 150.959 24.6607 151.347 24.194 151.636C23.7367 151.925 23.158 152.07 22.458 152.07ZM22.92 143.502L20.652 141.766H21.982L23.9 143.502H22.92ZM35.3599 152.07C34.6319 152.07 33.9785 151.911 33.3999 151.594C32.8305 151.267 32.3825 150.824 32.0559 150.264C31.7292 149.695 31.5659 149.046 31.5659 148.318C31.5659 147.581 31.7292 146.932 32.0559 146.372C32.3825 145.812 32.8305 145.373 33.3999 145.056C33.9785 144.739 34.6319 144.58 35.3599 144.58C35.9852 144.58 36.5499 144.701 37.0539 144.944C37.5579 145.187 37.9545 145.551 38.2439 146.036L37.5019 146.54C37.2499 146.167 36.9372 145.891 36.5639 145.714C36.1905 145.537 35.7845 145.448 35.3459 145.448C34.8232 145.448 34.3519 145.569 33.9319 145.812C33.5119 146.045 33.1805 146.377 32.9379 146.806C32.6952 147.235 32.5739 147.739 32.5739 148.318C32.5739 148.897 32.6952 149.401 32.9379 149.83C33.1805 150.259 33.5119 150.595 33.9319 150.838C34.3519 151.071 34.8232 151.188 35.3459 151.188C35.7845 151.188 36.1905 151.099 36.5639 150.922C36.9372 150.745 37.2499 150.474 37.5019 150.11L38.2439 150.614C37.9545 151.09 37.5579 151.454 37.0539 151.706C36.5499 151.949 35.9852 152.07 35.3599 152.07ZM43.1955 152.07C42.4302 152.07 41.7582 151.911 41.1795 151.594C40.6008 151.267 40.1482 150.824 39.8215 150.264C39.4948 149.695 39.3315 149.046 39.3315 148.318C39.3315 147.59 39.4855 146.946 39.7935 146.386C40.1108 145.826 40.5402 145.387 41.0815 145.07C41.6322 144.743 42.2482 144.58 42.9295 144.58C43.6202 144.58 44.2315 144.739 44.7635 145.056C45.3048 145.364 45.7295 145.803 46.0375 146.372C46.3455 146.932 46.4995 147.581 46.4995 148.318C46.4995 148.365 46.4948 148.416 46.4855 148.472C46.4855 148.519 46.4855 148.57 46.4855 148.626H40.0875V147.884H45.9535L45.5615 148.178C45.5615 147.646 45.4448 147.175 45.2115 146.764C44.9875 146.344 44.6795 146.017 44.2875 145.784C43.8955 145.551 43.4428 145.434 42.9295 145.434C42.4255 145.434 41.9728 145.551 41.5715 145.784C41.1702 146.017 40.8575 146.344 40.6335 146.764C40.4095 147.184 40.2975 147.665 40.2975 148.206V148.36C40.2975 148.92 40.4188 149.415 40.6615 149.844C40.9135 150.264 41.2588 150.595 41.6975 150.838C42.1455 151.071 42.6542 151.188 43.2235 151.188C43.6715 151.188 44.0868 151.109 44.4695 150.95C44.8615 150.791 45.1975 150.549 45.4775 150.222L46.0375 150.866C45.7108 151.258 45.3002 151.557 44.8055 151.762C44.3202 151.967 43.7835 152.07 43.1955 152.07ZM55.9808 152.07C55.3461 152.07 54.7721 151.925 54.2588 151.636C53.7454 151.337 53.3348 150.913 53.0268 150.362C52.7281 149.802 52.5788 149.121 52.5788 148.318C52.5788 147.515 52.7281 146.839 53.0268 146.288C53.3254 145.728 53.7314 145.303 54.2448 145.014C54.7581 144.725 55.3368 144.58 55.9808 144.58C56.6808 144.58 57.3061 144.739 57.8568 145.056C58.4168 145.364 58.8554 145.803 59.1728 146.372C59.4901 146.932 59.6488 147.581 59.6488 148.318C59.6488 149.065 59.4901 149.718 59.1728 150.278C58.8554 150.838 58.4168 151.277 57.8568 151.594C57.3061 151.911 56.6808 152.07 55.9808 152.07ZM52.1868 154.716V144.65H53.1388V146.862L53.0408 148.332L53.1808 149.816V154.716H52.1868ZM55.9108 151.188C56.4334 151.188 56.9001 151.071 57.3108 150.838C57.7214 150.595 58.0481 150.259 58.2908 149.83C58.5334 149.391 58.6548 148.887 58.6548 148.318C58.6548 147.749 58.5334 147.249 58.2908 146.82C58.0481 146.391 57.7214 146.055 57.3108 145.812C56.9001 145.569 56.4334 145.448 55.9108 145.448C55.3881 145.448 54.9168 145.569 54.4968 145.812C54.0861 146.055 53.7594 146.391 53.5168 146.82C53.2834 147.249 53.1668 147.749 53.1668 148.318C53.1668 148.887 53.2834 149.391 53.5168 149.83C53.7594 150.259 54.0861 150.595 54.4968 150.838C54.9168 151.071 55.3881 151.188 55.9108 151.188ZM61.6751 152V144.65H62.6271V146.652L62.5291 146.302C62.7344 145.742 63.0797 145.317 63.5651 145.028C64.0504 144.729 64.6524 144.58 65.3711 144.58V145.546C65.3337 145.546 65.2964 145.546 65.2591 145.546C65.2217 145.537 65.1844 145.532 65.1471 145.532C64.3724 145.532 63.7657 145.77 63.3271 146.246C62.8884 146.713 62.6691 147.38 62.6691 148.248V152H61.6751ZM67.1848 152V144.65H68.1788V152H67.1848ZM67.6888 143.026C67.4835 143.026 67.3108 142.956 67.1708 142.816C67.0308 142.676 66.9608 142.508 66.9608 142.312C66.9608 142.116 67.0308 141.953 67.1708 141.822C67.3108 141.682 67.4835 141.612 67.6888 141.612C67.8942 141.612 68.0668 141.677 68.2068 141.808C68.3468 141.939 68.4168 142.102 68.4168 142.298C68.4168 142.503 68.3468 142.676 68.2068 142.816C68.0762 142.956 67.9035 143.026 67.6888 143.026ZM69.8246 152L72.9326 147.968L72.9186 148.458L69.9646 144.65H71.0846L73.5066 147.8L73.0866 147.786L75.5086 144.65H76.6006L73.6186 148.5L73.6326 147.968L76.7686 152H75.6346L73.0726 148.64L73.4646 148.696L70.9446 152H69.8246Z" fill="#214B33"/>
<path d="M11 154L217 154" stroke="#214B33"/>
<path d="M24.382 96L20.042 86.2H21.162L25.222 95.426H24.606L28.694 86.2H29.744L25.404 96H24.382ZM33.3918 96.07C32.6824 96.07 32.0431 95.9113 31.4738 95.594C30.9138 95.2673 30.4704 94.824 30.1438 94.264C29.8171 93.6947 29.6538 93.046 29.6538 92.318C29.6538 91.5807 29.8171 90.932 30.1438 90.372C30.4704 89.812 30.9138 89.3733 31.4738 89.056C32.0338 88.7387 32.6731 88.58 33.3918 88.58C34.1198 88.58 34.7638 88.7387 35.3238 89.056C35.8931 89.3733 36.3364 89.812 36.6538 90.372C36.9804 90.932 37.1438 91.5807 37.1438 92.318C37.1438 93.046 36.9804 93.6947 36.6538 94.264C36.3364 94.824 35.8931 95.2673 35.3238 95.594C34.7544 95.9113 34.1104 96.07 33.3918 96.07ZM33.3918 95.188C33.9238 95.188 34.3951 95.0713 34.8058 94.838C35.2164 94.5953 35.5384 94.2593 35.7718 93.83C36.0144 93.3913 36.1358 92.8873 36.1358 92.318C36.1358 91.7393 36.0144 91.2353 35.7718 90.806C35.5384 90.3767 35.2164 90.0453 34.8058 89.812C34.3951 89.5693 33.9284 89.448 33.4058 89.448C32.8831 89.448 32.4164 89.5693 32.0058 89.812C31.5951 90.0453 31.2684 90.3767 31.0258 90.806C30.7831 91.2353 30.6618 91.7393 30.6618 92.318C30.6618 92.8873 30.7831 93.3913 31.0258 93.83C31.2684 94.2593 31.5951 94.5953 32.0058 94.838C32.4164 95.0713 32.8784 95.188 33.3918 95.188ZM41.4971 96.07C40.8064 96.07 40.2744 95.8833 39.9011 95.51C39.5278 95.1367 39.3411 94.6093 39.3411 93.928V87.026H40.3351V93.872C40.3351 94.3013 40.4424 94.6327 40.6571 94.866C40.8811 95.0993 41.1984 95.216 41.6091 95.216C42.0478 95.216 42.4118 95.09 42.7011 94.838L43.0511 95.552C42.8551 95.7293 42.6171 95.86 42.3371 95.944C42.0664 96.028 41.7864 96.07 41.4971 96.07ZM38.0251 89.476V88.65H42.5751V89.476H38.0251ZM44.8606 96V88.65H45.8126V90.652L45.7146 90.302C45.9199 89.742 46.2653 89.3173 46.7506 89.028C47.2359 88.7293 47.8379 88.58 48.5566 88.58V89.546C48.5193 89.546 48.4819 89.546 48.4446 89.546C48.4073 89.5367 48.3699 89.532 48.3326 89.532C47.5579 89.532 46.9513 89.77 46.5126 90.246C46.0739 90.7127 45.8546 91.38 45.8546 92.248V96H44.8606ZM53.424 96.07C52.6587 96.07 51.9867 95.9113 51.408 95.594C50.8293 95.2673 50.3767 94.824 50.05 94.264C49.7233 93.6947 49.56 93.046 49.56 92.318C49.56 91.59 49.714 90.946 50.022 90.386C50.3393 89.826 50.7687 89.3873 51.31 89.07C51.8607 88.7433 52.4767 88.58 53.158 88.58C53.8487 88.58 54.46 88.7387 54.992 89.056C55.5333 89.364 55.958 89.8027 56.266 90.372C56.574 90.932 56.728 91.5807 56.728 92.318C56.728 92.3647 56.7233 92.416 56.714 92.472C56.714 92.5187 56.714 92.57 56.714 92.626H50.316V91.884H56.182L55.79 92.178C55.79 91.646 55.6733 91.1747 55.44 90.764C55.216 90.344 54.908 90.0173 54.516 89.784C54.124 89.5507 53.6713 89.434 53.158 89.434C52.654 89.434 52.2013 89.5507 51.8 89.784C51.3987 90.0173 51.086 90.344 50.862 90.764C50.638 91.184 50.526 91.6647 50.526 92.206V92.36C50.526 92.92 50.6473 93.4147 50.89 93.844C51.142 94.264 51.4873 94.5953 51.926 94.838C52.374 95.0713 52.8827 95.188 53.452 95.188C53.9 95.188 54.3153 95.1087 54.698 94.95C55.09 94.7913 55.426 94.5487 55.706 94.222L56.266 94.866C55.9393 95.258 55.5287 95.5567 55.034 95.762C54.5487 95.9673 54.012 96.07 53.424 96.07ZM67.0213 96V94.376L66.9793 94.11V91.394C66.9793 90.7687 66.802 90.288 66.4473 89.952C66.102 89.616 65.584 89.448 64.8933 89.448C64.4173 89.448 63.9646 89.5273 63.5353 89.686C63.106 89.8447 62.742 90.0547 62.4433 90.316L61.9953 89.574C62.3686 89.2567 62.8166 89.014 63.3393 88.846C63.862 88.6687 64.4126 88.58 64.9913 88.58C65.9433 88.58 66.676 88.818 67.1893 89.294C67.712 89.7607 67.9733 90.4747 67.9733 91.436V96H67.0213ZM64.4873 96.07C63.9366 96.07 63.456 95.9813 63.0453 95.804C62.644 95.6173 62.336 95.3653 62.1213 95.048C61.9066 94.7213 61.7993 94.348 61.7993 93.928C61.7993 93.5453 61.888 93.2 62.0653 92.892C62.252 92.5747 62.5506 92.3227 62.9613 92.136C63.3813 91.94 63.9413 91.842 64.6413 91.842H67.1753V92.584H64.6693C63.96 92.584 63.4653 92.71 63.1853 92.962C62.9146 93.214 62.7793 93.5267 62.7793 93.9C62.7793 94.32 62.9426 94.656 63.2693 94.908C63.596 95.16 64.0533 95.286 64.6413 95.286C65.2013 95.286 65.682 95.16 66.0833 94.908C66.494 94.6467 66.7926 94.2733 66.9793 93.788L67.2033 94.474C67.0166 94.9593 66.69 95.3467 66.2233 95.636C65.766 95.9253 65.1873 96.07 64.4873 96.07ZM72.4264 96L69.1644 88.65H70.2004L73.1964 95.468H72.7064L75.7444 88.65H76.7244L73.4484 96H72.4264ZM82.5115 96V94.376L82.4695 94.11V91.394C82.4695 90.7687 82.2922 90.288 81.9375 89.952C81.5922 89.616 81.0742 89.448 80.3835 89.448C79.9075 89.448 79.4549 89.5273 79.0255 89.686C78.5962 89.8447 78.2322 90.0547 77.9335 90.316L77.4855 89.574C77.8589 89.2567 78.3069 89.014 78.8295 88.846C79.3522 88.6687 79.9029 88.58 80.4815 88.58C81.4335 88.58 82.1662 88.818 82.6795 89.294C83.2022 89.7607 83.4635 90.4747 83.4635 91.436V96H82.5115ZM79.9775 96.07C79.4269 96.07 78.9462 95.9813 78.5355 95.804C78.1342 95.6173 77.8262 95.3653 77.6115 95.048C77.3969 94.7213 77.2895 94.348 77.2895 93.928C77.2895 93.5453 77.3782 93.2 77.5555 92.892C77.7422 92.5747 78.0409 92.3227 78.4515 92.136C78.8715 91.94 79.4315 91.842 80.1315 91.842H82.6655V92.584H80.1595C79.4502 92.584 78.9555 92.71 78.6755 92.962C78.4049 93.214 78.2695 93.5267 78.2695 93.9C78.2695 94.32 78.4329 94.656 78.7595 94.908C79.0862 95.16 79.5435 95.286 80.1315 95.286C80.6915 95.286 81.1722 95.16 81.5735 94.908C81.9842 94.6467 82.2829 94.2733 82.4695 93.788L82.6935 94.474C82.5069 94.9593 82.1802 95.3467 81.7135 95.636C81.2562 95.9253 80.6775 96.07 79.9775 96.07ZM89.9153 88.58C90.5127 88.58 91.0353 88.6967 91.4833 88.93C91.9407 89.154 92.2953 89.4993 92.5473 89.966C92.8087 90.4327 92.9393 91.0207 92.9393 91.73V96H91.9453V91.828C91.9453 91.0533 91.7493 90.47 91.3573 90.078C90.9747 89.6767 90.4333 89.476 89.7333 89.476C89.2107 89.476 88.7533 89.5833 88.3613 89.798C87.9787 90.0033 87.68 90.3067 87.4653 90.708C87.26 91.1 87.1573 91.576 87.1573 92.136V96H86.1633V88.65H87.1153V90.666L86.9613 90.288C87.1947 89.756 87.568 89.3407 88.0813 89.042C88.5947 88.734 89.206 88.58 89.9153 88.58ZM97.9483 96.07C97.2576 96.07 96.7256 95.8833 96.3523 95.51C95.9789 95.1367 95.7923 94.6093 95.7923 93.928V87.026H96.7863V93.872C96.7863 94.3013 96.8936 94.6327 97.1083 94.866C97.3323 95.0993 97.6496 95.216 98.0603 95.216C98.4989 95.216 98.8629 95.09 99.1523 94.838L99.5023 95.552C99.3063 95.7293 99.0683 95.86 98.7883 95.944C98.5176 96.028 98.2376 96.07 97.9483 96.07ZM94.4763 89.476V88.65H99.0263V89.476H94.4763ZM105.918 96V94.376L105.876 94.11V91.394C105.876 90.7687 105.698 90.288 105.344 89.952C104.998 89.616 104.48 89.448 103.79 89.448C103.314 89.448 102.861 89.5273 102.432 89.686C102.002 89.8447 101.638 90.0547 101.34 90.316L100.892 89.574C101.265 89.2567 101.713 89.014 102.236 88.846C102.758 88.6687 103.309 88.58 103.888 88.58C104.84 88.58 105.572 88.818 106.086 89.294C106.608 89.7607 106.87 90.4747 106.87 91.436V96H105.918ZM103.384 96.07C102.833 96.07 102.352 95.9813 101.942 95.804C101.54 95.6173 101.232 95.3653 101.018 95.048C100.803 94.7213 100.696 94.348 100.696 93.928C100.696 93.5453 100.784 93.2 100.962 92.892C101.148 92.5747 101.447 92.3227 101.858 92.136C102.278 91.94 102.838 91.842 103.538 91.842H106.072V92.584H103.566C102.856 92.584 102.362 92.71 102.082 92.962C101.811 93.214 101.676 93.5267 101.676 93.9C101.676 94.32 101.839 94.656 102.166 94.908C102.492 95.16 102.95 95.286 103.538 95.286C104.098 95.286 104.578 95.16 104.98 94.908C105.39 94.6467 105.689 94.2733 105.876 93.788L106.1 94.474C105.913 94.9593 105.586 95.3467 105.12 95.636C104.662 95.9253 104.084 96.07 103.384 96.07ZM112.706 98.786C112.034 98.786 111.39 98.688 110.774 98.492C110.158 98.296 109.658 98.016 109.276 97.652L109.78 96.896C110.125 97.204 110.55 97.4467 111.054 97.624C111.567 97.8107 112.108 97.904 112.678 97.904C113.611 97.904 114.297 97.6847 114.736 97.246C115.174 96.8167 115.394 96.1447 115.394 95.23V93.396L115.534 92.136L115.436 90.876V88.65H116.388V95.104C116.388 96.3733 116.075 97.302 115.45 97.89C114.834 98.4873 113.919 98.786 112.706 98.786ZM112.524 95.72C111.824 95.72 111.194 95.5707 110.634 95.272C110.074 94.964 109.63 94.5393 109.304 93.998C108.986 93.4567 108.828 92.836 108.828 92.136C108.828 91.436 108.986 90.82 109.304 90.288C109.63 89.7467 110.074 89.3267 110.634 89.028C111.194 88.7293 111.824 88.58 112.524 88.58C113.177 88.58 113.765 88.7153 114.288 88.986C114.81 89.2567 115.226 89.658 115.534 90.19C115.842 90.722 115.996 91.3707 115.996 92.136C115.996 92.9013 115.842 93.55 115.534 94.082C115.226 94.614 114.81 95.02 114.288 95.3C113.765 95.58 113.177 95.72 112.524 95.72ZM112.622 94.838C113.163 94.838 113.644 94.726 114.064 94.502C114.484 94.2687 114.815 93.9513 115.058 93.55C115.3 93.1393 115.422 92.668 115.422 92.136C115.422 91.604 115.3 91.1373 115.058 90.736C114.815 90.3347 114.484 90.022 114.064 89.798C113.644 89.5647 113.163 89.448 112.622 89.448C112.09 89.448 111.609 89.5647 111.18 89.798C110.76 90.022 110.428 90.3347 110.186 90.736C109.952 91.1373 109.836 91.604 109.836 92.136C109.836 92.668 109.952 93.1393 110.186 93.55C110.428 93.9513 110.76 94.2687 111.18 94.502C111.609 94.726 112.09 94.838 112.622 94.838ZM122.276 96.07C121.51 96.07 120.838 95.9113 120.26 95.594C119.681 95.2673 119.228 94.824 118.902 94.264C118.575 93.6947 118.412 93.046 118.412 92.318C118.412 91.59 118.566 90.946 118.874 90.386C119.191 89.826 119.62 89.3873 120.162 89.07C120.712 88.7433 121.328 88.58 122.01 88.58C122.7 88.58 123.312 88.7387 123.844 89.056C124.385 89.364 124.81 89.8027 125.118 90.372C125.426 90.932 125.58 91.5807 125.58 92.318C125.58 92.3647 125.575 92.416 125.566 92.472C125.566 92.5187 125.566 92.57 125.566 92.626H119.168V91.884H125.034L124.642 92.178C124.642 91.646 124.525 91.1747 124.292 90.764C124.068 90.344 123.76 90.0173 123.368 89.784C122.976 89.5507 122.523 89.434 122.01 89.434C121.506 89.434 121.053 89.5507 120.652 89.784C120.25 90.0173 119.938 90.344 119.714 90.764C119.49 91.184 119.378 91.6647 119.378 92.206V92.36C119.378 92.92 119.499 93.4147 119.742 93.844C119.994 94.264 120.339 94.5953 120.778 94.838C121.226 95.0713 121.734 95.188 122.304 95.188C122.752 95.188 123.167 95.1087 123.55 94.95C123.942 94.7913 124.278 94.5487 124.558 94.222L125.118 94.866C124.791 95.258 124.38 95.5567 123.886 95.762C123.4 95.9673 122.864 96.07 122.276 96.07Z" fill="#A2C33D"/>
<path d="M106 102L1 102" stroke="#A2C33D"/>
<path d="M119.382 34L115.042 24.2H116.162L120.222 33.426H119.606L123.694 24.2H124.744L120.404 34H119.382ZM128.392 34.07C127.682 34.07 127.043 33.9113 126.474 33.594C125.914 33.2673 125.47 32.824 125.144 32.264C124.817 31.6947 124.654 31.046 124.654 30.318C124.654 29.5807 124.817 28.932 125.144 28.372C125.47 27.812 125.914 27.3733 126.474 27.056C127.034 26.7387 127.673 26.58 128.392 26.58C129.12 26.58 129.764 26.7387 130.324 27.056C130.893 27.3733 131.336 27.812 131.654 28.372C131.98 28.932 132.144 29.5807 132.144 30.318C132.144 31.046 131.98 31.6947 131.654 32.264C131.336 32.824 130.893 33.2673 130.324 33.594C129.754 33.9113 129.11 34.07 128.392 34.07ZM128.392 33.188C128.924 33.188 129.395 33.0713 129.806 32.838C130.216 32.5953 130.538 32.2593 130.772 31.83C131.014 31.3913 131.136 30.8873 131.136 30.318C131.136 29.7393 131.014 29.2353 130.772 28.806C130.538 28.3767 130.216 28.0453 129.806 27.812C129.395 27.5693 128.928 27.448 128.406 27.448C127.883 27.448 127.416 27.5693 127.006 27.812C126.595 28.0453 126.268 28.3767 126.026 28.806C125.783 29.2353 125.662 29.7393 125.662 30.318C125.662 30.8873 125.783 31.3913 126.026 31.83C126.268 32.2593 126.595 32.5953 127.006 32.838C127.416 33.0713 127.878 33.188 128.392 33.188ZM137.211 34.07C136.586 34.07 136.04 33.9533 135.573 33.72C135.106 33.4867 134.742 33.1367 134.481 32.67C134.229 32.2033 134.103 31.62 134.103 30.92V26.65H135.097V30.808C135.097 31.592 135.288 32.1847 135.671 32.586C136.063 32.978 136.609 33.174 137.309 33.174C137.822 33.174 138.266 33.0713 138.639 32.866C139.022 32.6513 139.311 32.3433 139.507 31.942C139.712 31.5407 139.815 31.06 139.815 30.5V26.65H140.809V34H139.857V31.984L140.011 32.348C139.778 32.8893 139.414 33.314 138.919 33.622C138.434 33.9207 137.864 34.07 137.211 34.07ZM145.553 34.07C144.947 34.07 144.373 33.986 143.831 33.818C143.29 33.6407 142.865 33.4213 142.557 33.16L143.005 32.376C143.304 32.6 143.687 32.796 144.153 32.964C144.62 33.1227 145.11 33.202 145.623 33.202C146.323 33.202 146.827 33.0947 147.135 32.88C147.443 32.656 147.597 32.362 147.597 31.998C147.597 31.7273 147.509 31.5173 147.331 31.368C147.163 31.2093 146.939 31.0927 146.659 31.018C146.379 30.934 146.067 30.864 145.721 30.808C145.376 30.752 145.031 30.6867 144.685 30.612C144.349 30.5373 144.041 30.43 143.761 30.29C143.481 30.1407 143.253 29.94 143.075 29.688C142.907 29.436 142.823 29.1 142.823 28.68C142.823 28.2787 142.935 27.9193 143.159 27.602C143.383 27.2847 143.71 27.0373 144.139 26.86C144.578 26.6733 145.11 26.58 145.735 26.58C146.211 26.58 146.687 26.6453 147.163 26.776C147.639 26.8973 148.031 27.0607 148.339 27.266L147.905 28.064C147.579 27.84 147.229 27.6813 146.855 27.588C146.482 27.4853 146.109 27.434 145.735 27.434C145.073 27.434 144.583 27.5507 144.265 27.784C143.957 28.008 143.803 28.2973 143.803 28.652C143.803 28.932 143.887 29.1513 144.055 29.31C144.233 29.4687 144.461 29.5947 144.741 29.688C145.031 29.772 145.343 29.842 145.679 29.898C146.025 29.954 146.365 30.024 146.701 30.108C147.047 30.1827 147.359 30.29 147.639 30.43C147.929 30.5607 148.157 30.752 148.325 31.004C148.503 31.2467 148.591 31.5687 148.591 31.97C148.591 32.3993 148.47 32.7727 148.227 33.09C147.994 33.398 147.649 33.6407 147.191 33.818C146.743 33.986 146.197 34.07 145.553 34.07ZM155.969 34L152.707 26.65H153.743L156.739 33.468H156.249L159.287 26.65H160.267L156.991 34H155.969ZM164.584 34.07C163.819 34.07 163.147 33.9113 162.568 33.594C161.99 33.2673 161.537 32.824 161.21 32.264C160.884 31.6947 160.72 31.046 160.72 30.318C160.72 29.59 160.874 28.946 161.182 28.386C161.5 27.826 161.929 27.3873 162.47 27.07C163.021 26.7433 163.637 26.58 164.318 26.58C165.009 26.58 165.62 26.7387 166.152 27.056C166.694 27.364 167.118 27.8027 167.426 28.372C167.734 28.932 167.888 29.5807 167.888 30.318C167.888 30.3647 167.884 30.416 167.874 30.472C167.874 30.5187 167.874 30.57 167.874 30.626H161.476V29.884H167.342L166.95 30.178C166.95 29.646 166.834 29.1747 166.6 28.764C166.376 28.344 166.068 28.0173 165.676 27.784C165.284 27.5507 164.832 27.434 164.318 27.434C163.814 27.434 163.362 27.5507 162.96 27.784C162.559 28.0173 162.246 28.344 162.022 28.764C161.798 29.184 161.686 29.6647 161.686 30.206V30.36C161.686 30.92 161.808 31.4147 162.05 31.844C162.302 32.264 162.648 32.5953 163.086 32.838C163.534 33.0713 164.043 33.188 164.612 33.188C165.06 33.188 165.476 33.1087 165.858 32.95C166.25 32.7913 166.586 32.5487 166.866 32.222L167.426 32.866C167.1 33.258 166.689 33.5567 166.194 33.762C165.709 33.9673 165.172 34.07 164.584 34.07ZM173.663 26.58C174.261 26.58 174.783 26.6967 175.231 26.93C175.689 27.154 176.043 27.4993 176.295 27.966C176.557 28.4327 176.687 29.0207 176.687 29.73V34H175.693V29.828C175.693 29.0533 175.497 28.47 175.105 28.078C174.723 27.6767 174.181 27.476 173.481 27.476C172.959 27.476 172.501 27.5833 172.109 27.798C171.727 28.0033 171.428 28.3067 171.213 28.708C171.008 29.1 170.905 29.576 170.905 30.136V34H169.911V26.65H170.863V28.666L170.709 28.288C170.943 27.756 171.316 27.3407 171.829 27.042C172.343 26.734 172.954 26.58 173.663 26.58ZM182.298 34.07C181.598 34.07 180.968 33.9113 180.408 33.594C179.858 33.2767 179.424 32.838 179.106 32.278C178.789 31.7087 178.63 31.0553 178.63 30.318C178.63 29.5713 178.789 28.918 179.106 28.358C179.424 27.798 179.858 27.364 180.408 27.056C180.968 26.7387 181.598 26.58 182.298 26.58C182.942 26.58 183.516 26.7247 184.02 27.014C184.534 27.3033 184.94 27.728 185.238 28.288C185.546 28.8387 185.7 29.5153 185.7 30.318C185.7 31.1113 185.551 31.788 185.252 32.348C184.954 32.908 184.548 33.3373 184.034 33.636C183.53 33.9253 182.952 34.07 182.298 34.07ZM182.368 33.188C182.891 33.188 183.358 33.0713 183.768 32.838C184.188 32.5953 184.515 32.2593 184.748 31.83C184.991 31.3913 185.112 30.8873 185.112 30.318C185.112 29.7393 184.991 29.2353 184.748 28.806C184.515 28.3767 184.188 28.0453 183.768 27.812C183.358 27.5693 182.891 27.448 182.368 27.448C181.855 27.448 181.393 27.5693 180.982 27.812C180.572 28.0453 180.245 28.3767 180.002 28.806C179.76 29.2353 179.638 29.7393 179.638 30.318C179.638 30.8873 179.76 31.3913 180.002 31.83C180.245 32.2593 180.572 32.5953 180.982 32.838C181.393 33.0713 181.855 33.188 182.368 33.188ZM185.14 34V31.788L185.238 30.304L185.098 28.82V23.612H186.092V34H185.14ZM191.983 34.07C191.217 34.07 190.545 33.9113 189.967 33.594C189.388 33.2673 188.935 32.824 188.609 32.264C188.282 31.6947 188.119 31.046 188.119 30.318C188.119 29.59 188.273 28.946 188.581 28.386C188.898 27.826 189.327 27.3873 189.869 27.07C190.419 26.7433 191.035 26.58 191.717 26.58C192.407 26.58 193.019 26.7387 193.551 27.056C194.092 27.364 194.517 27.8027 194.825 28.372C195.133 28.932 195.287 29.5807 195.287 30.318C195.287 30.3647 195.282 30.416 195.273 30.472C195.273 30.5187 195.273 30.57 195.273 30.626H188.875V29.884H194.741L194.349 30.178C194.349 29.646 194.232 29.1747 193.999 28.764C193.775 28.344 193.467 28.0173 193.075 27.784C192.683 27.5507 192.23 27.434 191.717 27.434C191.213 27.434 190.76 27.5507 190.359 27.784C189.957 28.0173 189.645 28.344 189.421 28.764C189.197 29.184 189.085 29.6647 189.085 30.206V30.36C189.085 30.92 189.206 31.4147 189.449 31.844C189.701 32.264 190.046 32.5953 190.485 32.838C190.933 33.0713 191.441 33.188 192.011 33.188C192.459 33.188 192.874 33.1087 193.257 32.95C193.649 32.7913 193.985 32.5487 194.265 32.222L194.825 32.866C194.498 33.258 194.087 33.5567 193.593 33.762C193.107 33.9673 192.571 34.07 191.983 34.07ZM196.443 34V33.342L201.343 27.14L201.553 27.476H196.527V26.65H202.337V27.294L197.451 33.51L197.199 33.174H202.435V34H196.443ZM210.982 34.07C210.282 34.07 209.652 33.9113 209.092 33.594C208.541 33.2767 208.107 32.838 207.79 32.278C207.473 31.7087 207.314 31.0553 207.314 30.318C207.314 29.5713 207.473 28.918 207.79 28.358C208.107 27.798 208.541 27.364 209.092 27.056C209.652 26.7387 210.282 26.58 210.982 26.58C211.626 26.58 212.2 26.7247 212.704 27.014C213.217 27.3033 213.623 27.728 213.922 28.288C214.23 28.8387 214.384 29.5153 214.384 30.318C214.384 31.1113 214.235 31.788 213.936 32.348C213.637 32.908 213.231 33.3373 212.718 33.636C212.214 33.9253 211.635 34.07 210.982 34.07ZM211.052 33.188C211.575 33.188 212.041 33.0713 212.452 32.838C212.872 32.5953 213.199 32.2593 213.432 31.83C213.675 31.3913 213.796 30.8873 213.796 30.318C213.796 29.7393 213.675 29.2353 213.432 28.806C213.199 28.3767 212.872 28.0453 212.452 27.812C212.041 27.5693 211.575 27.448 211.052 27.448C210.539 27.448 210.077 27.5693 209.666 27.812C209.255 28.0453 208.929 28.3767 208.686 28.806C208.443 29.2353 208.322 29.7393 208.322 30.318C208.322 30.8873 208.443 31.3913 208.686 31.83C208.929 32.2593 209.255 32.5953 209.666 32.838C210.077 33.0713 210.539 33.188 211.052 33.188ZM213.824 34V31.788L213.922 30.304L213.782 28.82V23.612H214.776V34H213.824ZM220.666 34.07C219.901 34.07 219.229 33.9113 218.65 33.594C218.072 33.2673 217.619 32.824 217.292 32.264C216.966 31.6947 216.802 31.046 216.802 30.318C216.802 29.59 216.956 28.946 217.264 28.386C217.582 27.826 218.011 27.3873 218.552 27.07C219.103 26.7433 219.719 26.58 220.4 26.58C221.091 26.58 221.702 26.7387 222.234 27.056C222.776 27.364 223.2 27.8027 223.508 28.372C223.816 28.932 223.97 29.5807 223.97 30.318C223.97 30.3647 223.966 30.416 223.956 30.472C223.956 30.5187 223.956 30.57 223.956 30.626H217.558V29.884H223.424L223.032 30.178C223.032 29.646 222.916 29.1747 222.682 28.764C222.458 28.344 222.15 28.0173 221.758 27.784C221.366 27.5507 220.914 27.434 220.4 27.434C219.896 27.434 219.444 27.5507 219.042 27.784C218.641 28.0173 218.328 28.344 218.104 28.764C217.88 29.184 217.768 29.6647 217.768 30.206V30.36C217.768 30.92 217.89 31.4147 218.132 31.844C218.384 32.264 218.73 32.5953 219.168 32.838C219.616 33.0713 220.125 33.188 220.694 33.188C221.142 33.188 221.558 33.1087 221.94 32.95C222.332 32.7913 222.668 32.5487 222.948 32.222L223.508 32.866C223.182 33.258 222.771 33.5567 222.276 33.762C221.791 33.9673 221.254 34.07 220.666 34.07ZM227.967 34.07C227.361 34.07 226.787 33.986 226.245 33.818C225.704 33.6407 225.279 33.4213 224.971 33.16L225.419 32.376C225.718 32.6 226.101 32.796 226.567 32.964C227.034 33.1227 227.524 33.202 228.037 33.202C228.737 33.202 229.241 33.0947 229.549 32.88C229.857 32.656 230.011 32.362 230.011 31.998C230.011 31.7273 229.923 31.5173 229.745 31.368C229.577 31.2093 229.353 31.0927 229.073 31.018C228.793 30.934 228.481 30.864 228.135 30.808C227.79 30.752 227.445 30.6867 227.099 30.612C226.763 30.5373 226.455 30.43 226.175 30.29C225.895 30.1407 225.667 29.94 225.489 29.688C225.321 29.436 225.237 29.1 225.237 28.68C225.237 28.2787 225.349 27.9193 225.573 27.602C225.797 27.2847 226.124 27.0373 226.553 26.86C226.992 26.6733 227.524 26.58 228.149 26.58C228.625 26.58 229.101 26.6453 229.577 26.776C230.053 26.8973 230.445 27.0607 230.753 27.266L230.319 28.064C229.993 27.84 229.643 27.6813 229.269 27.588C228.896 27.4853 228.523 27.434 228.149 27.434C227.487 27.434 226.997 27.5507 226.679 27.784C226.371 28.008 226.217 28.2973 226.217 28.652C226.217 28.932 226.301 29.1513 226.469 29.31C226.647 29.4687 226.875 29.5947 227.155 29.688C227.445 29.772 227.757 29.842 228.093 29.898C228.439 29.954 228.779 30.024 229.115 30.108C229.461 30.1827 229.773 30.29 230.053 30.43C230.343 30.5607 230.571 30.752 230.739 31.004C230.917 31.2467 231.005 31.5687 231.005 31.97C231.005 32.3993 230.884 32.7727 230.641 33.09C230.408 33.398 230.063 33.6407 229.605 33.818C229.157 33.986 228.611 34.07 227.967 34.07ZM119.438 57.07C118.71 57.07 118.057 56.9113 117.478 56.594C116.909 56.2673 116.461 55.824 116.134 55.264C115.807 54.6947 115.644 54.046 115.644 53.318C115.644 52.5807 115.807 51.932 116.134 51.372C116.461 50.812 116.909 50.3733 117.478 50.056C118.057 49.7387 118.71 49.58 119.438 49.58C120.063 49.58 120.628 49.7013 121.132 49.944C121.636 50.1867 122.033 50.5507 122.322 51.036L121.58 51.54C121.328 51.1667 121.015 50.8913 120.642 50.714C120.269 50.5367 119.863 50.448 119.424 50.448C118.901 50.448 118.43 50.5693 118.01 50.812C117.59 51.0453 117.259 51.3767 117.016 51.806C116.773 52.2353 116.652 52.7393 116.652 53.318C116.652 53.8967 116.773 54.4007 117.016 54.83C117.259 55.2593 117.59 55.5953 118.01 55.838C118.43 56.0713 118.901 56.188 119.424 56.188C119.863 56.188 120.269 56.0993 120.642 55.922C121.015 55.7447 121.328 55.474 121.58 55.11L122.322 55.614C122.033 56.09 121.636 56.454 121.132 56.706C120.628 56.9487 120.063 57.07 119.438 57.07ZM127.148 57.07C126.438 57.07 125.799 56.9113 125.23 56.594C124.67 56.2673 124.226 55.824 123.9 55.264C123.573 54.6947 123.41 54.046 123.41 53.318C123.41 52.5807 123.573 51.932 123.9 51.372C124.226 50.812 124.67 50.3733 125.23 50.056C125.79 49.7387 126.429 49.58 127.148 49.58C127.876 49.58 128.52 49.7387 129.08 50.056C129.649 50.3733 130.092 50.812 130.41 51.372C130.736 51.932 130.9 52.5807 130.9 53.318C130.9 54.046 130.736 54.6947 130.41 55.264C130.092 55.824 129.649 56.2673 129.08 56.594C128.51 56.9113 127.866 57.07 127.148 57.07ZM127.148 56.188C127.68 56.188 128.151 56.0713 128.562 55.838C128.972 55.5953 129.294 55.2593 129.528 54.83C129.77 54.3913 129.892 53.8873 129.892 53.318C129.892 52.7393 129.77 52.2353 129.528 51.806C129.294 51.3767 128.972 51.0453 128.562 50.812C128.151 50.5693 127.684 50.448 127.162 50.448C126.639 50.448 126.172 50.5693 125.762 50.812C125.351 51.0453 125.024 51.3767 124.782 51.806C124.539 52.2353 124.418 52.7393 124.418 53.318C124.418 53.8873 124.539 54.3913 124.782 54.83C125.024 55.2593 125.351 55.5953 125.762 55.838C126.172 56.0713 126.634 56.188 127.148 56.188ZM136.681 49.58C137.278 49.58 137.801 49.6967 138.249 49.93C138.706 50.154 139.061 50.4993 139.313 50.966C139.574 51.4327 139.705 52.0207 139.705 52.73V57H138.711V52.828C138.711 52.0533 138.515 51.47 138.123 51.078C137.74 50.6767 137.199 50.476 136.499 50.476C135.976 50.476 135.519 50.5833 135.127 50.798C134.744 51.0033 134.446 51.3067 134.231 51.708C134.026 52.1 133.923 52.576 133.923 53.136V57H132.929V49.65H133.881V51.666L133.727 51.288C133.96 50.756 134.334 50.3407 134.847 50.042C135.36 49.734 135.972 49.58 136.681 49.58ZM144.714 57.07C144.023 57.07 143.491 56.8833 143.118 56.51C142.745 56.1367 142.558 55.6093 142.558 54.928V48.026H143.552V54.872C143.552 55.3013 143.659 55.6327 143.874 55.866C144.098 56.0993 144.415 56.216 144.826 56.216C145.265 56.216 145.629 56.09 145.918 55.838L146.268 56.552C146.072 56.7293 145.834 56.86 145.554 56.944C145.283 57.028 145.003 57.07 144.714 57.07ZM141.242 50.476V49.65H145.792V50.476H141.242ZM148.077 57V49.65H149.029V51.652L148.931 51.302C149.137 50.742 149.482 50.3173 149.967 50.028C150.453 49.7293 151.055 49.58 151.773 49.58V50.546C151.736 50.546 151.699 50.546 151.661 50.546C151.624 50.5367 151.587 50.532 151.549 50.532C150.775 50.532 150.168 50.77 149.729 51.246C149.291 51.7127 149.071 52.38 149.071 53.248V57H148.077ZM157.646 57V55.376L157.604 55.11V52.394C157.604 51.7687 157.427 51.288 157.072 50.952C156.727 50.616 156.209 50.448 155.518 50.448C155.042 50.448 154.59 50.5273 154.16 50.686C153.731 50.8447 153.367 51.0547 153.068 51.316L152.62 50.574C152.994 50.2567 153.442 50.014 153.964 49.846C154.487 49.6687 155.038 49.58 155.616 49.58C156.568 49.58 157.301 49.818 157.814 50.294C158.337 50.7607 158.598 51.4747 158.598 52.436V57H157.646ZM155.112 57.07C154.562 57.07 154.081 56.9813 153.67 56.804C153.269 56.6173 152.961 56.3653 152.746 56.048C152.532 55.7213 152.424 55.348 152.424 54.928C152.424 54.5453 152.513 54.2 152.69 53.892C152.877 53.5747 153.176 53.3227 153.586 53.136C154.006 52.94 154.566 52.842 155.266 52.842H157.8V53.584H155.294C154.585 53.584 154.09 53.71 153.81 53.962C153.54 54.214 153.404 54.5267 153.404 54.9C153.404 55.32 153.568 55.656 153.894 55.908C154.221 56.16 154.678 56.286 155.266 56.286C155.826 56.286 156.307 56.16 156.708 55.908C157.119 55.6467 157.418 55.2733 157.604 54.788L157.828 55.474C157.642 55.9593 157.315 56.3467 156.848 56.636C156.391 56.9253 155.812 57.07 155.112 57.07ZM163.622 57.07C162.931 57.07 162.399 56.8833 162.026 56.51C161.653 56.1367 161.466 55.6093 161.466 54.928V48.026H162.46V54.872C162.46 55.3013 162.567 55.6327 162.782 55.866C163.006 56.0993 163.323 56.216 163.734 56.216C164.173 56.216 164.537 56.09 164.826 55.838L165.176 56.552C164.98 56.7293 164.742 56.86 164.462 56.944C164.191 57.028 163.911 57.07 163.622 57.07ZM160.15 50.476V49.65H164.7V50.476H160.15ZM168.96 57.07C168.353 57.07 167.779 56.986 167.238 56.818C166.696 56.6407 166.272 56.4213 165.964 56.16L166.412 55.376C166.71 55.6 167.093 55.796 167.56 55.964C168.026 56.1227 168.516 56.202 169.03 56.202C169.73 56.202 170.234 56.0947 170.542 55.88C170.85 55.656 171.004 55.362 171.004 54.998C171.004 54.7273 170.915 54.5173 170.738 54.368C170.57 54.2093 170.346 54.0927 170.066 54.018C169.786 53.934 169.473 53.864 169.128 53.808C168.782 53.752 168.437 53.6867 168.092 53.612C167.756 53.5373 167.448 53.43 167.168 53.29C166.888 53.1407 166.659 52.94 166.482 52.688C166.314 52.436 166.23 52.1 166.23 51.68C166.23 51.2787 166.342 50.9193 166.566 50.602C166.79 50.2847 167.116 50.0373 167.546 49.86C167.984 49.6733 168.516 49.58 169.142 49.58C169.618 49.58 170.094 49.6453 170.57 49.776C171.046 49.8973 171.438 50.0607 171.746 50.266L171.312 51.064C170.985 50.84 170.635 50.6813 170.262 50.588C169.888 50.4853 169.515 50.434 169.142 50.434C168.479 50.434 167.989 50.5507 167.672 50.784C167.364 51.008 167.21 51.2973 167.21 51.652C167.21 51.932 167.294 52.1513 167.462 52.31C167.639 52.4687 167.868 52.5947 168.148 52.688C168.437 52.772 168.75 52.842 169.086 52.898C169.431 52.954 169.772 53.024 170.108 53.108C170.453 53.1827 170.766 53.29 171.046 53.43C171.335 53.5607 171.564 53.752 171.732 54.004C171.909 54.2467 171.998 54.5687 171.998 54.97C171.998 55.3993 171.876 55.7727 171.634 56.09C171.4 56.398 171.055 56.6407 170.598 56.818C170.15 56.986 169.604 57.07 168.96 57.07ZM182.092 57V55.376L182.05 55.11V52.394C182.05 51.7687 181.872 51.288 181.518 50.952C181.172 50.616 180.654 50.448 179.964 50.448C179.488 50.448 179.035 50.5273 178.606 50.686C178.176 50.8447 177.812 51.0547 177.514 51.316L177.066 50.574C177.439 50.2567 177.887 50.014 178.41 49.846C178.932 49.6687 179.483 49.58 180.062 49.58C181.014 49.58 181.746 49.818 182.26 50.294C182.782 50.7607 183.044 51.4747 183.044 52.436V57H182.092ZM179.558 57.07C179.007 57.07 178.526 56.9813 178.116 56.804C177.714 56.6173 177.406 56.3653 177.192 56.048C176.977 55.7213 176.87 55.348 176.87 54.928C176.87 54.5453 176.958 54.2 177.136 53.892C177.322 53.5747 177.621 53.3227 178.032 53.136C178.452 52.94 179.012 52.842 179.712 52.842H182.246V53.584H179.74C179.03 53.584 178.536 53.71 178.256 53.962C177.985 54.214 177.85 54.5267 177.85 54.9C177.85 55.32 178.013 55.656 178.34 55.908C178.666 56.16 179.124 56.286 179.712 56.286C180.272 56.286 180.752 56.16 181.154 55.908C181.564 55.6467 181.863 55.2733 182.05 54.788L182.274 55.474C182.087 55.9593 181.76 56.3467 181.294 56.636C180.836 56.9253 180.258 57.07 179.558 57.07ZM180.02 48.502L177.752 46.766H179.082L181 48.502H180.02ZM191.731 57.07C191.041 57.07 190.509 56.8833 190.135 56.51C189.762 56.1367 189.575 55.6093 189.575 54.928V48.026H190.569V54.872C190.569 55.3013 190.677 55.6327 190.891 55.866C191.115 56.0993 191.433 56.216 191.843 56.216C192.282 56.216 192.646 56.09 192.935 55.838L193.285 56.552C193.089 56.7293 192.851 56.86 192.571 56.944C192.301 57.028 192.021 57.07 191.731 57.07ZM188.259 50.476V49.65H192.809V50.476H188.259ZM197.957 57.07C197.192 57.07 196.52 56.9113 195.941 56.594C195.363 56.2673 194.91 55.824 194.583 55.264C194.257 54.6947 194.093 54.046 194.093 53.318C194.093 52.59 194.247 51.946 194.555 51.386C194.873 50.826 195.302 50.3873 195.843 50.07C196.394 49.7433 197.01 49.58 197.691 49.58C198.382 49.58 198.993 49.7387 199.525 50.056C200.067 50.364 200.491 50.8027 200.799 51.372C201.107 51.932 201.261 52.5807 201.261 53.318C201.261 53.3647 201.257 53.416 201.247 53.472C201.247 53.5187 201.247 53.57 201.247 53.626H194.849V52.884H200.715L200.323 53.178C200.323 52.646 200.207 52.1747 199.973 51.764C199.749 51.344 199.441 51.0173 199.049 50.784C198.657 50.5507 198.205 50.434 197.691 50.434C197.187 50.434 196.735 50.5507 196.333 50.784C195.932 51.0173 195.619 51.344 195.395 51.764C195.171 52.184 195.059 52.6647 195.059 53.206V53.36C195.059 53.92 195.181 54.4147 195.423 54.844C195.675 55.264 196.021 55.5953 196.459 55.838C196.907 56.0713 197.416 56.188 197.985 56.188C198.433 56.188 198.849 56.1087 199.231 55.95C199.623 55.7913 199.959 55.5487 200.239 55.222L200.799 55.866C200.473 56.258 200.062 56.5567 199.567 56.762C199.082 56.9673 198.545 57.07 197.957 57.07ZM203.284 57V49.65H204.236V51.652L204.138 51.302C204.344 50.742 204.689 50.3173 205.174 50.028C205.66 49.7293 206.262 49.58 206.98 49.58V50.546C206.943 50.546 206.906 50.546 206.868 50.546C206.831 50.5367 206.794 50.532 206.756 50.532C205.982 50.532 205.375 50.77 204.936 51.246C204.498 51.7127 204.278 52.38 204.278 53.248V57H203.284ZM217.978 49.58C218.576 49.58 219.094 49.6967 219.532 49.93C219.98 50.154 220.326 50.4993 220.568 50.966C220.82 51.4327 220.946 52.0207 220.946 52.73V57H219.952V52.828C219.952 52.0533 219.766 51.47 219.392 51.078C219.028 50.6767 218.51 50.476 217.838 50.476C217.334 50.476 216.896 50.5833 216.522 50.798C216.158 51.0033 215.874 51.3067 215.668 51.708C215.472 52.1 215.374 52.576 215.374 53.136V57H214.38V52.828C214.38 52.0533 214.194 51.47 213.82 51.078C213.447 50.6767 212.924 50.476 212.252 50.476C211.758 50.476 211.324 50.5833 210.95 50.798C210.577 51.0033 210.288 51.3067 210.082 51.708C209.886 52.1 209.788 52.576 209.788 53.136V57H208.794V49.65H209.746V51.638L209.592 51.288C209.816 50.756 210.176 50.3407 210.67 50.042C211.174 49.734 211.767 49.58 212.448 49.58C213.167 49.58 213.778 49.762 214.282 50.126C214.786 50.4807 215.113 51.0173 215.262 51.736L214.87 51.582C215.085 50.9847 215.463 50.504 216.004 50.14C216.555 49.7667 217.213 49.58 217.978 49.58ZM226.764 57.07C225.999 57.07 225.327 56.9113 224.748 56.594C224.169 56.2673 223.717 55.824 223.39 55.264C223.063 54.6947 222.9 54.046 222.9 53.318C222.9 52.59 223.054 51.946 223.362 51.386C223.679 50.826 224.109 50.3873 224.65 50.07C225.201 49.7433 225.817 49.58 226.498 49.58C227.189 49.58 227.8 49.7387 228.332 50.056C228.873 50.364 229.298 50.8027 229.606 51.372C229.914 51.932 230.068 52.5807 230.068 53.318C230.068 53.3647 230.063 53.416 230.054 53.472C230.054 53.5187 230.054 53.57 230.054 53.626H223.656V52.884H229.522L229.13 53.178C229.13 52.646 229.013 52.1747 228.78 51.764C228.556 51.344 228.248 51.0173 227.856 50.784C227.464 50.5507 227.011 50.434 226.498 50.434C225.994 50.434 225.541 50.5507 225.14 50.784C224.739 51.0173 224.426 51.344 224.202 51.764C223.978 52.184 223.866 52.6647 223.866 53.206V53.36C223.866 53.92 223.987 54.4147 224.23 54.844C224.482 55.264 224.827 55.5953 225.266 55.838C225.714 56.0713 226.223 56.188 226.792 56.188C227.24 56.188 227.655 56.1087 228.038 55.95C228.43 55.7913 228.766 55.5487 229.046 55.222L229.606 55.866C229.279 56.258 228.869 56.5567 228.374 56.762C227.889 56.9673 227.352 57.07 226.764 57.07ZM240.361 57V55.376L240.319 55.11V52.394C240.319 51.7687 240.142 51.288 239.787 50.952C239.442 50.616 238.924 50.448 238.233 50.448C237.757 50.448 237.304 50.5273 236.875 50.686C236.446 50.8447 236.082 51.0547 235.783 51.316L235.335 50.574C235.708 50.2567 236.156 50.014 236.679 49.846C237.202 49.6687 237.752 49.58 238.331 49.58C239.283 49.58 240.016 49.818 240.529 50.294C241.052 50.7607 241.313 51.4747 241.313 52.436V57H240.361ZM237.827 57.07C237.276 57.07 236.796 56.9813 236.385 56.804C235.984 56.6173 235.676 56.3653 235.461 56.048C235.246 55.7213 235.139 55.348 235.139 54.928C235.139 54.5453 235.228 54.2 235.405 53.892C235.592 53.5747 235.89 53.3227 236.301 53.136C236.721 52.94 237.281 52.842 237.981 52.842H240.515V53.584H238.009C237.3 53.584 236.805 53.71 236.525 53.962C236.254 54.214 236.119 54.5267 236.119 54.9C236.119 55.32 236.282 55.656 236.609 55.908C236.936 56.16 237.393 56.286 237.981 56.286C238.541 56.286 239.022 56.16 239.423 55.908C239.834 55.6467 240.132 55.2733 240.319 54.788L240.543 55.474C240.356 55.9593 240.03 56.3467 239.563 56.636C239.106 56.9253 238.527 57.07 237.827 57.07ZM238.289 48.502L236.021 46.766H237.351L239.269 48.502H238.289ZM250.729 57.07C250.001 57.07 249.348 56.9113 248.769 56.594C248.2 56.2673 247.752 55.824 247.425 55.264C247.098 54.6947 246.935 54.046 246.935 53.318C246.935 52.5807 247.098 51.932 247.425 51.372C247.752 50.812 248.2 50.3733 248.769 50.056C249.348 49.7387 250.001 49.58 250.729 49.58C251.354 49.58 251.919 49.7013 252.423 49.944C252.927 50.1867 253.324 50.5507 253.613 51.036L252.871 51.54C252.619 51.1667 252.306 50.8913 251.933 50.714C251.56 50.5367 251.154 50.448 250.715 50.448C250.192 50.448 249.721 50.5693 249.301 50.812C248.881 51.0453 248.55 51.3767 248.307 51.806C248.064 52.2353 247.943 52.7393 247.943 53.318C247.943 53.8967 248.064 54.4007 248.307 54.83C248.55 55.2593 248.881 55.5953 249.301 55.838C249.721 56.0713 250.192 56.188 250.715 56.188C251.154 56.188 251.56 56.0993 251.933 55.922C252.306 55.7447 252.619 55.474 252.871 55.11L253.613 55.614C253.324 56.09 252.927 56.454 252.423 56.706C251.919 56.9487 251.354 57.07 250.729 57.07ZM258.565 57.07C257.799 57.07 257.127 56.9113 256.549 56.594C255.97 56.2673 255.517 55.824 255.191 55.264C254.864 54.6947 254.701 54.046 254.701 53.318C254.701 52.59 254.855 51.946 255.163 51.386C255.48 50.826 255.909 50.3873 256.451 50.07C257.001 49.7433 257.617 49.58 258.299 49.58C258.989 49.58 259.601 49.7387 260.133 50.056C260.674 50.364 261.099 50.8027 261.407 51.372C261.715 51.932 261.869 52.5807 261.869 53.318C261.869 53.3647 261.864 53.416 261.855 53.472C261.855 53.5187 261.855 53.57 261.855 53.626H255.457V52.884H261.323L260.931 53.178C260.931 52.646 260.814 52.1747 260.581 51.764C260.357 51.344 260.049 51.0173 259.657 50.784C259.265 50.5507 258.812 50.434 258.299 50.434C257.795 50.434 257.342 50.5507 256.941 50.784C256.539 51.0173 256.227 51.344 256.003 51.764C255.779 52.184 255.667 52.6647 255.667 53.206V53.36C255.667 53.92 255.788 54.4147 256.031 54.844C256.283 55.264 256.628 55.5953 257.067 55.838C257.515 56.0713 258.023 56.188 258.593 56.188C259.041 56.188 259.456 56.1087 259.839 55.95C260.231 55.7913 260.567 55.5487 260.847 55.222L261.407 55.866C261.08 56.258 260.669 56.5567 260.175 56.762C259.689 56.9673 259.153 57.07 258.565 57.07ZM120.18 80.07C119.545 80.07 118.971 79.9253 118.458 79.636C117.945 79.3373 117.534 78.9127 117.226 78.362C116.927 77.802 116.778 77.1207 116.778 76.318C116.778 75.5153 116.927 74.8387 117.226 74.288C117.525 73.728 117.931 73.3033 118.444 73.014C118.957 72.7247 119.536 72.58 120.18 72.58C120.88 72.58 121.505 72.7387 122.056 73.056C122.616 73.364 123.055 73.8027 123.372 74.372C123.689 74.932 123.848 75.5807 123.848 76.318C123.848 77.0647 123.689 77.718 123.372 78.278C123.055 78.838 122.616 79.2767 122.056 79.594C121.505 79.9113 120.88 80.07 120.18 80.07ZM116.386 82.716V72.65H117.338V74.862L117.24 76.332L117.38 77.816V82.716H116.386ZM120.11 79.188C120.633 79.188 121.099 79.0713 121.51 78.838C121.921 78.5953 122.247 78.2593 122.49 77.83C122.733 77.3913 122.854 76.8873 122.854 76.318C122.854 75.7487 122.733 75.2493 122.49 74.82C122.247 74.3907 121.921 74.0547 121.51 73.812C121.099 73.5693 120.633 73.448 120.11 73.448C119.587 73.448 119.116 73.5693 118.696 73.812C118.285 74.0547 117.959 74.3907 117.716 74.82C117.483 75.2493 117.366 75.7487 117.366 76.318C117.366 76.8873 117.483 77.3913 117.716 77.83C117.959 78.2593 118.285 78.5953 118.696 78.838C119.116 79.0713 119.587 79.188 120.11 79.188ZM125.874 80V72.65H126.826V74.652L126.728 74.302C126.934 73.742 127.279 73.3173 127.764 73.028C128.25 72.7293 128.852 72.58 129.57 72.58V73.546C129.533 73.546 129.496 73.546 129.458 73.546C129.421 73.5367 129.384 73.532 129.346 73.532C128.572 73.532 127.965 73.77 127.526 74.246C127.088 74.7127 126.868 75.38 126.868 76.248V80H125.874ZM131.384 80V72.65H132.378V80H131.384ZM131.888 71.026C131.683 71.026 131.51 70.956 131.37 70.816C131.23 70.676 131.16 70.508 131.16 70.312C131.16 70.116 131.23 69.9527 131.37 69.822C131.51 69.682 131.683 69.612 131.888 69.612C132.093 69.612 132.266 69.6773 132.406 69.808C132.546 69.9387 132.616 70.102 132.616 70.298C132.616 70.5033 132.546 70.676 132.406 70.816C132.275 70.956 132.103 71.026 131.888 71.026ZM134.024 80L137.132 75.968L137.118 76.458L134.164 72.65H135.284L137.706 75.8L137.286 75.786L139.708 72.65H140.8L137.818 76.5L137.832 75.968L140.968 80H139.834L137.272 76.64L137.664 76.696L135.144 80H134.024Z" fill="#214B33"/>
<path d="M156 71L287 71" stroke="#214B33"/>
<path d="M144 23L290 23" stroke="#BC0051"/>
<path d="M145.596 17V7.2H149.264C150.095 7.2 150.809 7.33533 151.406 7.606C152.003 7.86733 152.461 8.25 152.778 8.754C153.105 9.24867 153.268 9.85067 153.268 10.56C153.268 11.2507 153.105 11.848 152.778 12.352C152.461 12.8467 152.003 13.2293 151.406 13.5C150.809 13.7707 150.095 13.906 149.264 13.906H146.17L146.632 13.416V17H145.596ZM146.632 13.5L146.17 12.996H149.236C150.216 12.996 150.958 12.786 151.462 12.366C151.975 11.9367 152.232 11.3347 152.232 10.56C152.232 9.776 151.975 9.16933 151.462 8.74C150.958 8.31067 150.216 8.096 149.236 8.096H146.17L146.632 7.606V13.5ZM155.12 17V9.65H156.072V11.652L155.974 11.302C156.18 10.742 156.525 10.3173 157.01 10.028C157.496 9.72933 158.098 9.58 158.816 9.58V10.546C158.779 10.546 158.742 10.546 158.704 10.546C158.667 10.5367 158.63 10.532 158.592 10.532C157.818 10.532 157.211 10.77 156.772 11.246C156.334 11.7127 156.114 12.38 156.114 13.248V17H155.12ZM160.63 17V9.65H161.624V17H160.63ZM161.134 8.026C160.929 8.026 160.756 7.956 160.616 7.816C160.476 7.676 160.406 7.508 160.406 7.312C160.406 7.116 160.476 6.95267 160.616 6.822C160.756 6.682 160.929 6.612 161.134 6.612C161.339 6.612 161.512 6.67733 161.652 6.808C161.792 6.93867 161.862 7.102 161.862 7.298C161.862 7.50333 161.792 7.676 161.652 7.816C161.521 7.956 161.349 8.026 161.134 8.026ZM163.27 17L166.378 12.968L166.364 13.458L163.41 9.65H164.53L166.952 12.8L166.532 12.786L168.954 9.65H170.046L167.064 13.5L167.078 12.968L170.214 17H169.08L166.518 13.64L166.91 13.696L164.39 17H163.27ZM178.458 17.07C177.758 17.07 177.128 16.9113 176.568 16.594C176.018 16.2767 175.584 15.838 175.266 15.278C174.949 14.7087 174.79 14.0553 174.79 13.318C174.79 12.5713 174.949 11.918 175.266 11.358C175.584 10.798 176.018 10.364 176.568 10.056C177.128 9.73867 177.758 9.58 178.458 9.58C179.102 9.58 179.676 9.72467 180.18 10.014C180.694 10.3033 181.1 10.728 181.398 11.288C181.706 11.8387 181.86 12.5153 181.86 13.318C181.86 14.1113 181.711 14.788 181.412 15.348C181.114 15.908 180.708 16.3373 180.194 16.636C179.69 16.9253 179.112 17.07 178.458 17.07ZM178.528 16.188C179.051 16.188 179.518 16.0713 179.928 15.838C180.348 15.5953 180.675 15.2593 180.908 14.83C181.151 14.3913 181.272 13.8873 181.272 13.318C181.272 12.7393 181.151 12.2353 180.908 11.806C180.675 11.3767 180.348 11.0453 179.928 10.812C179.518 10.5693 179.051 10.448 178.528 10.448C178.015 10.448 177.553 10.5693 177.142 10.812C176.732 11.0453 176.405 11.3767 176.162 11.806C175.92 12.2353 175.798 12.7393 175.798 13.318C175.798 13.8873 175.92 14.3913 176.162 14.83C176.405 15.2593 176.732 15.5953 177.142 15.838C177.553 16.0713 178.015 16.188 178.528 16.188ZM181.3 17V14.788L181.398 13.304L181.258 11.82V6.612H182.252V17H181.3ZM188.143 17.07C187.377 17.07 186.705 16.9113 186.127 16.594C185.548 16.2673 185.095 15.824 184.769 15.264C184.442 14.6947 184.279 14.046 184.279 13.318C184.279 12.59 184.433 11.946 184.741 11.386C185.058 10.826 185.487 10.3873 186.029 10.07C186.579 9.74333 187.195 9.58 187.877 9.58C188.567 9.58 189.179 9.73867 189.711 10.056C190.252 10.364 190.677 10.8027 190.985 11.372C191.293 11.932 191.447 12.5807 191.447 13.318C191.447 13.3647 191.442 13.416 191.433 13.472C191.433 13.5187 191.433 13.57 191.433 13.626H185.035V12.884H190.901L190.509 13.178C190.509 12.646 190.392 12.1747 190.159 11.764C189.935 11.344 189.627 11.0173 189.235 10.784C188.843 10.5507 188.39 10.434 187.877 10.434C187.373 10.434 186.92 10.5507 186.519 10.784C186.117 11.0173 185.805 11.344 185.581 11.764C185.357 12.184 185.245 12.6647 185.245 13.206V13.36C185.245 13.92 185.366 14.4147 185.609 14.844C185.861 15.264 186.206 15.5953 186.645 15.838C187.093 16.0713 187.601 16.188 188.171 16.188C188.619 16.188 189.034 16.1087 189.417 15.95C189.809 15.7913 190.145 15.5487 190.425 15.222L190.985 15.866C190.658 16.258 190.247 16.5567 189.753 16.762C189.267 16.9673 188.731 17.07 188.143 17.07ZM199.024 17L195.762 9.65H196.798L199.794 16.468H199.304L202.342 9.65H203.322L200.046 17H199.024ZM207.639 17.07C206.874 17.07 206.202 16.9113 205.623 16.594C205.044 16.2673 204.592 15.824 204.265 15.264C203.938 14.6947 203.775 14.046 203.775 13.318C203.775 12.59 203.929 11.946 204.237 11.386C204.554 10.826 204.984 10.3873 205.525 10.07C206.076 9.74333 206.692 9.58 207.373 9.58C208.064 9.58 208.675 9.73867 209.207 10.056C209.748 10.364 210.173 10.8027 210.481 11.372C210.789 11.932 210.943 12.5807 210.943 13.318C210.943 13.3647 210.938 13.416 210.929 13.472C210.929 13.5187 210.929 13.57 210.929 13.626H204.531V12.884H210.397L210.005 13.178C210.005 12.646 209.888 12.1747 209.655 11.764C209.431 11.344 209.123 11.0173 208.731 10.784C208.339 10.5507 207.886 10.434 207.373 10.434C206.869 10.434 206.416 10.5507 206.015 10.784C205.614 11.0173 205.301 11.344 205.077 11.764C204.853 12.184 204.741 12.6647 204.741 13.206V13.36C204.741 13.92 204.862 14.4147 205.105 14.844C205.357 15.264 205.702 15.5953 206.141 15.838C206.589 16.0713 207.098 16.188 207.667 16.188C208.115 16.188 208.53 16.1087 208.913 15.95C209.305 15.7913 209.641 15.5487 209.921 15.222L210.481 15.866C210.154 16.258 209.744 16.5567 209.249 16.762C208.764 16.9673 208.227 17.07 207.639 17.07ZM216.718 9.58C217.315 9.58 217.838 9.69667 218.286 9.93C218.743 10.154 219.098 10.4993 219.35 10.966C219.611 11.4327 219.742 12.0207 219.742 12.73V17H218.748V12.828C218.748 12.0533 218.552 11.47 218.16 11.078C217.777 10.6767 217.236 10.476 216.536 10.476C216.013 10.476 215.556 10.5833 215.164 10.798C214.781 11.0033 214.483 11.3067 214.268 11.708C214.063 12.1 213.96 12.576 213.96 13.136V17H212.966V9.65H213.918V11.666L213.764 11.288C213.997 10.756 214.371 10.3407 214.884 10.042C215.397 9.734 216.009 9.58 216.718 9.58ZM224.751 17.07C224.06 17.07 223.528 16.8833 223.155 16.51C222.782 16.1367 222.595 15.6093 222.595 14.928V8.026H223.589V14.872C223.589 15.3013 223.696 15.6327 223.911 15.866C224.135 16.0993 224.452 16.216 224.863 16.216C225.302 16.216 225.666 16.09 225.955 15.838L226.305 16.552C226.109 16.7293 225.871 16.86 225.591 16.944C225.32 17.028 225.04 17.07 224.751 17.07ZM221.279 10.476V9.65H225.829V10.476H221.279ZM230.977 17.07C230.211 17.07 229.539 16.9113 228.961 16.594C228.382 16.2673 227.929 15.824 227.603 15.264C227.276 14.6947 227.113 14.046 227.113 13.318C227.113 12.59 227.267 11.946 227.575 11.386C227.892 10.826 228.321 10.3873 228.863 10.07C229.413 9.74333 230.029 9.58 230.711 9.58C231.401 9.58 232.013 9.73867 232.545 10.056C233.086 10.364 233.511 10.8027 233.819 11.372C234.127 11.932 234.281 12.5807 234.281 13.318C234.281 13.3647 234.276 13.416 234.267 13.472C234.267 13.5187 234.267 13.57 234.267 13.626H227.869V12.884H233.735L233.343 13.178C233.343 12.646 233.226 12.1747 232.993 11.764C232.769 11.344 232.461 11.0173 232.069 10.784C231.677 10.5507 231.224 10.434 230.711 10.434C230.207 10.434 229.754 10.5507 229.353 10.784C228.951 11.0173 228.639 11.344 228.415 11.764C228.191 12.184 228.079 12.6647 228.079 13.206V13.36C228.079 13.92 228.2 14.4147 228.443 14.844C228.695 15.264 229.04 15.5953 229.479 15.838C229.927 16.0713 230.435 16.188 231.005 16.188C231.453 16.188 231.868 16.1087 232.251 15.95C232.643 15.7913 232.979 15.5487 233.259 15.222L233.819 15.866C233.492 16.258 233.081 16.5567 232.587 16.762C232.101 16.9673 231.565 17.07 230.977 17.07ZM244.574 17V15.376L244.532 15.11V12.394C244.532 11.7687 244.355 11.288 244 10.952C243.655 10.616 243.137 10.448 242.446 10.448C241.97 10.448 241.517 10.5273 241.088 10.686C240.659 10.8447 240.295 11.0547 239.996 11.316L239.548 10.574C239.921 10.2567 240.369 10.014 240.892 9.846C241.415 9.66867 241.965 9.58 242.544 9.58C243.496 9.58 244.229 9.818 244.742 10.294C245.265 10.7607 245.526 11.4747 245.526 12.436V17H244.574ZM242.04 17.07C241.489 17.07 241.009 16.9813 240.598 16.804C240.197 16.6173 239.889 16.3653 239.674 16.048C239.459 15.7213 239.352 15.348 239.352 14.928C239.352 14.5453 239.441 14.2 239.618 13.892C239.805 13.5747 240.103 13.3227 240.514 13.136C240.934 12.94 241.494 12.842 242.194 12.842H244.728V13.584H242.222C241.513 13.584 241.018 13.71 240.738 13.962C240.467 14.214 240.332 14.5267 240.332 14.9C240.332 15.32 240.495 15.656 240.822 15.908C241.149 16.16 241.606 16.286 242.194 16.286C242.754 16.286 243.235 16.16 243.636 15.908C244.047 15.6467 244.345 15.2733 244.532 14.788L244.756 15.474C244.569 15.9593 244.243 16.3467 243.776 16.636C243.319 16.9253 242.74 17.07 242.04 17.07ZM251.264 17.07C250.639 17.07 250.093 16.9533 249.626 16.72C249.159 16.4867 248.795 16.1367 248.534 15.67C248.282 15.2033 248.156 14.62 248.156 13.92V9.65H249.15V13.808C249.15 14.592 249.341 15.1847 249.724 15.586C250.116 15.978 250.662 16.174 251.362 16.174C251.875 16.174 252.319 16.0713 252.692 15.866C253.075 15.6513 253.364 15.3433 253.56 14.942C253.765 14.5407 253.868 14.06 253.868 13.5V9.65H254.862V17H253.91V14.984L254.064 15.348C253.831 15.8893 253.467 16.314 252.972 16.622C252.487 16.9207 251.917 17.07 251.264 17.07ZM264.222 17.07C263.522 17.07 262.892 16.9113 262.332 16.594C261.781 16.2767 261.347 15.838 261.03 15.278C260.713 14.7087 260.554 14.0553 260.554 13.318C260.554 12.5713 260.713 11.918 261.03 11.358C261.347 10.798 261.781 10.364 262.332 10.056C262.892 9.73867 263.522 9.58 264.222 9.58C264.866 9.58 265.44 9.72467 265.944 10.014C266.457 10.3033 266.863 10.728 267.162 11.288C267.47 11.8387 267.624 12.5153 267.624 13.318C267.624 14.1113 267.475 14.788 267.176 15.348C266.877 15.908 266.471 16.3373 265.958 16.636C265.454 16.9253 264.875 17.07 264.222 17.07ZM264.292 16.188C264.815 16.188 265.281 16.0713 265.692 15.838C266.112 15.5953 266.439 15.2593 266.672 14.83C266.915 14.3913 267.036 13.8873 267.036 13.318C267.036 12.7393 266.915 12.2353 266.672 11.806C266.439 11.3767 266.112 11.0453 265.692 10.812C265.281 10.5693 264.815 10.448 264.292 10.448C263.779 10.448 263.317 10.5693 262.906 10.812C262.495 11.0453 262.169 11.3767 261.926 11.806C261.683 12.2353 261.562 12.7393 261.562 13.318C261.562 13.8873 261.683 14.3913 261.926 14.83C262.169 15.2593 262.495 15.5953 262.906 15.838C263.317 16.0713 263.779 16.188 264.292 16.188ZM267.064 17V14.788L267.162 13.304L267.022 11.82V6.612H268.016V17H267.064ZM273.906 17.07C273.141 17.07 272.469 16.9113 271.89 16.594C271.312 16.2673 270.859 15.824 270.532 15.264C270.206 14.6947 270.042 14.046 270.042 13.318C270.042 12.59 270.196 11.946 270.504 11.386C270.822 10.826 271.251 10.3873 271.792 10.07C272.343 9.74333 272.959 9.58 273.64 9.58C274.331 9.58 274.942 9.73867 275.474 10.056C276.016 10.364 276.44 10.8027 276.748 11.372C277.056 11.932 277.21 12.5807 277.21 13.318C277.21 13.3647 277.206 13.416 277.196 13.472C277.196 13.5187 277.196 13.57 277.196 13.626H270.798V12.884H276.664L276.272 13.178C276.272 12.646 276.156 12.1747 275.922 11.764C275.698 11.344 275.39 11.0173 274.998 10.784C274.606 10.5507 274.154 10.434 273.64 10.434C273.136 10.434 272.684 10.5507 272.282 10.784C271.881 11.0173 271.568 11.344 271.344 11.764C271.12 12.184 271.008 12.6647 271.008 13.206V13.36C271.008 13.92 271.13 14.4147 271.372 14.844C271.624 15.264 271.97 15.5953 272.408 15.838C272.856 16.0713 273.365 16.188 273.934 16.188C274.382 16.188 274.798 16.1087 275.18 15.95C275.572 15.7913 275.908 15.5487 276.188 15.222L276.748 15.866C276.422 16.258 276.011 16.5567 275.516 16.762C275.031 16.9673 274.494 17.07 273.906 17.07ZM272.716 8.502L274.634 6.766H275.964L273.696 8.502H272.716ZM281.558 17.07C280.867 17.07 280.335 16.8833 279.962 16.51C279.588 16.1367 279.402 15.6093 279.402 14.928V8.026H280.396V14.872C280.396 15.3013 280.503 15.6327 280.718 15.866C280.942 16.0993 281.259 16.216 281.67 16.216C282.108 16.216 282.472 16.09 282.762 15.838L283.112 16.552C282.916 16.7293 282.678 16.86 282.398 16.944C282.127 17.028 281.847 17.07 281.558 17.07ZM278.086 10.476V9.65H282.636V10.476H278.086ZM289.527 17V15.376L289.485 15.11V12.394C289.485 11.7687 289.308 11.288 288.953 10.952C288.608 10.616 288.09 10.448 287.399 10.448C286.923 10.448 286.47 10.5273 286.041 10.686C285.612 10.8447 285.248 11.0547 284.949 11.316L284.501 10.574C284.874 10.2567 285.322 10.014 285.845 9.846C286.368 9.66867 286.918 9.58 287.497 9.58C288.449 9.58 289.182 9.818 289.695 10.294C290.218 10.7607 290.479 11.4747 290.479 12.436V17H289.527ZM286.993 17.07C286.442 17.07 285.962 16.9813 285.551 16.804C285.15 16.6173 284.842 16.3653 284.627 16.048C284.412 15.7213 284.305 15.348 284.305 14.928C284.305 14.5453 284.394 14.2 284.571 13.892C284.758 13.5747 285.056 13.3227 285.467 13.136C285.887 12.94 286.447 12.842 287.147 12.842H289.681V13.584H287.175C286.466 13.584 285.971 13.71 285.691 13.962C285.42 14.214 285.285 14.5267 285.285 14.9C285.285 15.32 285.448 15.656 285.775 15.908C286.102 16.16 286.559 16.286 287.147 16.286C287.707 16.286 288.188 16.16 288.589 15.908C289 15.6467 289.298 15.2733 289.485 14.788L289.709 15.474C289.522 15.9593 289.196 16.3467 288.729 16.636C288.272 16.9253 287.693 17.07 286.993 17.07ZM293.179 17V9.65H294.173V17H293.179ZM293.683 8.026C293.478 8.026 293.305 7.956 293.165 7.816C293.025 7.676 292.955 7.508 292.955 7.312C292.955 7.116 293.025 6.95267 293.165 6.822C293.305 6.682 293.478 6.612 293.683 6.612C293.888 6.612 294.061 6.67733 294.201 6.808C294.341 6.93867 294.411 7.102 294.411 7.298C294.411 7.50333 294.341 7.676 294.201 7.816C294.07 7.956 293.898 8.026 293.683 8.026ZM296.939 17V6.612H297.933V17H296.939Z" fill="#BC0051"/>
</svg>
