<svg width="922" height="376" viewBox="0 0 922 376" fill="none" xmlns="http://www.w3.org/2000/svg">
<rect x="902" y="350" width="20" height="320" transform="rotate(180 902 350)" fill="#BC0051"/>
<rect x="874" y="350" width="20" height="266" transform="rotate(180 874 350)" fill="#214B33"/>
<rect x="846" y="350" width="20" height="254" transform="rotate(180 846 350)" fill="#A2C33D" fill-opacity="0.4"/>
<rect x="818" y="350" width="20" height="248" transform="rotate(180 818 350)" fill="#A2C33D" fill-opacity="0.4"/>
<rect x="790" y="350" width="20" height="240" transform="rotate(180 790 350)" fill="#A2C33D" fill-opacity="0.4"/>
<rect x="762" y="350" width="20" height="226" transform="rotate(180 762 350)" fill="#A2C33D" fill-opacity="0.4"/>
<rect x="734" y="350" width="20" height="220" transform="rotate(180 734 350)" fill="#A2C33D" fill-opacity="0.4"/>
<rect x="706" y="350" width="20" height="200" transform="rotate(180 706 350)" fill="#A2C33D" fill-opacity="0.4"/>
<rect x="678" y="350" width="20" height="196" transform="rotate(180 678 350)" fill="#A2C33D" fill-opacity="0.4"/>
<rect x="650" y="350" width="20" height="184" transform="rotate(180 650 350)" fill="#A2C33D" fill-opacity="0.4"/>
<rect x="622" y="350" width="20" height="184" transform="rotate(180 622 350)" fill="#A2C33D" fill-opacity="0.4"/>
<rect x="594" y="350" width="20" height="176" transform="rotate(180 594 350)" fill="#A2C33D" fill-opacity="0.4"/>
<rect x="566" y="350" width="20" height="172" transform="rotate(180 566 350)" fill="#A2C33D" fill-opacity="0.4"/>
<rect x="538" y="350" width="20" height="172" transform="rotate(180 538 350)" fill="#A2C33D" fill-opacity="0.4"/>
<rect x="510" y="350" width="20" height="152" transform="rotate(180 510 350)" fill="#A2C33D" fill-opacity="0.4"/>
<rect x="482" y="350" width="20" height="144" transform="rotate(180 482 350)" fill="#A2C33D" fill-opacity="0.4"/>
<rect x="454" y="350" width="20" height="140" transform="rotate(180 454 350)" fill="#A2C33D" fill-opacity="0.4"/>
<rect x="426" y="350" width="20" height="126" transform="rotate(180 426 350)" fill="#A2C33D" fill-opacity="0.4"/>
<rect x="398" y="350" width="20" height="120" transform="rotate(180 398 350)" fill="#A2C33D" fill-opacity="0.4"/>
<rect x="370" y="350" width="20" height="100" transform="rotate(180 370 350)" fill="#A2C33D"/>
<path d="M360 85V249.5" stroke="#A2C33D" stroke-width="20" stroke-dasharray="10 10"/>
<path d="M3.782 251V238.4H9.416C10.832 238.4 11.936 238.682 12.728 239.246C13.52 239.798 13.916 240.596 13.916 241.64C13.916 242.672 13.538 243.47 12.782 244.034C12.026 244.586 11.03 244.862 9.794 244.862L10.118 244.214C11.522 244.214 12.608 244.496 13.376 245.06C14.144 245.624 14.528 246.44 14.528 247.508C14.528 248.6 14.126 249.458 13.322 250.082C12.518 250.694 11.33 251 9.758 251H3.782ZM6.086 249.2H9.686C10.502 249.2 11.12 249.05 11.54 248.75C11.96 248.438 12.17 247.964 12.17 247.328C12.17 246.692 11.96 246.23 11.54 245.942C11.12 245.642 10.502 245.492 9.686 245.492H6.086V249.2ZM6.086 243.782H9.218C9.974 243.782 10.55 243.632 10.946 243.332C11.342 243.02 11.54 242.576 11.54 242C11.54 241.4 11.342 240.95 10.946 240.65C10.55 240.35 9.974 240.2 9.218 240.2H6.086V243.782ZM26.6437 251V241.388H28.8937V251H26.6437ZM21.6217 244.556C22.8577 244.556 23.7937 244.832 24.4297 245.384C25.0777 245.936 25.4017 246.716 25.4017 247.724C25.4017 248.768 25.0417 249.584 24.3217 250.172C23.6137 250.748 22.6057 251.03 21.2977 251.018L16.9417 251V241.388H19.1917V244.538L21.6217 244.556ZM21.0997 249.362C21.7597 249.374 22.2637 249.236 22.6117 248.948C22.9597 248.66 23.1337 248.24 23.1337 247.688C23.1337 247.136 22.9597 246.74 22.6117 246.5C22.2757 246.248 21.7717 246.116 21.0997 246.104L19.1917 246.086V249.344L21.0997 249.362ZM36.8929 251V241.388H46.1089V251H43.8769V242.774L44.3989 243.296H38.6209L39.1429 242.774V251H36.8929ZM53.4288 251.126C52.4448 251.126 51.5688 250.916 50.8008 250.496C50.0328 250.064 49.4268 249.476 48.9828 248.732C48.5388 247.988 48.3168 247.142 48.3168 246.194C48.3168 245.234 48.5388 244.388 48.9828 243.656C49.4268 242.912 50.0328 242.33 50.8008 241.91C51.5688 241.49 52.4448 241.28 53.4288 241.28C54.4248 241.28 55.3068 241.49 56.0748 241.91C56.8548 242.33 57.4608 242.906 57.8928 243.638C58.3368 244.37 58.5588 245.222 58.5588 246.194C58.5588 247.142 58.3368 247.988 57.8928 248.732C57.4608 249.476 56.8548 250.064 56.0748 250.496C55.3068 250.916 54.4248 251.126 53.4288 251.126ZM53.4288 249.2C53.9808 249.2 54.4728 249.08 54.9048 248.84C55.3368 248.6 55.6728 248.252 55.9128 247.796C56.1648 247.34 56.2908 246.806 56.2908 246.194C56.2908 245.57 56.1648 245.036 55.9128 244.592C55.6728 244.136 55.3368 243.788 54.9048 243.548C54.4728 243.308 53.9868 243.188 53.4468 243.188C52.8948 243.188 52.4028 243.308 51.9708 243.548C51.5508 243.788 51.2148 244.136 50.9628 244.592C50.7108 245.036 50.5848 245.57 50.5848 246.194C50.5848 246.806 50.7108 247.34 50.9628 247.796C51.2148 248.252 51.5508 248.6 51.9708 248.84C52.4028 249.08 52.8888 249.2 53.4288 249.2ZM67.6755 251L64.2015 246.392L66.0375 245.258L70.3215 251H67.6755ZM60.7815 251V241.388H63.0315V251H60.7815ZM62.3655 247.148V245.276H65.6235V247.148H62.3655ZM66.2535 246.464L64.1475 246.212L67.6755 241.388H70.0875L66.2535 246.464ZM72.2276 254.618C71.7596 254.618 71.2916 254.54 70.8236 254.384C70.3556 254.228 69.9656 254.012 69.6536 253.736L70.5536 252.08C70.7816 252.284 71.0396 252.446 71.3276 252.566C71.6156 252.686 71.9096 252.746 72.2096 252.746C72.6176 252.746 72.9476 252.644 73.1996 252.44C73.4516 252.236 73.6856 251.894 73.9016 251.414L74.4596 250.154L74.6396 249.884L78.2756 241.388H80.4356L75.9356 251.774C75.6356 252.494 75.2996 253.064 74.9276 253.484C74.5676 253.904 74.1596 254.198 73.7036 254.366C73.2596 254.534 72.7676 254.618 72.2276 254.618ZM74.2076 251.342L69.8696 241.388H72.2096L75.7376 249.686L74.2076 251.342ZM81.9983 251V241.388H91.2143V251H88.9823V242.774L89.5043 243.296H83.7263L84.2483 242.774V251H81.9983ZM100.082 251V249.056L99.9563 248.642V245.24C99.9563 244.58 99.7583 244.07 99.3623 243.71C98.9663 243.338 98.3663 243.152 97.5623 243.152C97.0223 243.152 96.4883 243.236 95.9603 243.404C95.4443 243.572 95.0063 243.806 94.6463 244.106L93.7643 242.468C94.2803 242.072 94.8923 241.778 95.6003 241.586C96.3203 241.382 97.0643 241.28 97.8323 241.28C99.2243 241.28 100.298 241.616 101.054 242.288C101.822 242.948 102.206 243.974 102.206 245.366V251H100.082ZM97.0583 251.126C96.3383 251.126 95.7083 251.006 95.1683 250.766C94.6283 250.514 94.2083 250.172 93.9083 249.74C93.6203 249.296 93.4763 248.798 93.4763 248.246C93.4763 247.706 93.6023 247.22 93.8543 246.788C94.1183 246.356 94.5443 246.014 95.1323 245.762C95.7203 245.51 96.5003 245.384 97.4723 245.384H100.262V246.878H97.6343C96.8663 246.878 96.3503 247.004 96.0863 247.256C95.8223 247.496 95.6903 247.796 95.6903 248.156C95.6903 248.564 95.8523 248.888 96.1763 249.128C96.5003 249.368 96.9503 249.488 97.5263 249.488C98.0783 249.488 98.5703 249.362 99.0023 249.11C99.4463 248.858 99.7643 248.486 99.9563 247.994L100.334 249.344C100.118 249.908 99.7283 250.346 99.1643 250.658C98.6123 250.97 97.9103 251.126 97.0583 251.126ZM109.473 251.126C108.405 251.126 107.469 250.916 106.665 250.496C105.873 250.064 105.255 249.476 104.811 248.732C104.379 247.988 104.163 247.142 104.163 246.194C104.163 245.234 104.373 244.388 104.793 243.656C105.225 242.912 105.813 242.33 106.557 241.91C107.313 241.49 108.171 241.28 109.131 241.28C110.067 241.28 110.901 241.484 111.633 241.892C112.365 242.3 112.941 242.876 113.361 243.62C113.781 244.364 113.991 245.24 113.991 246.248C113.991 246.344 113.985 246.452 113.973 246.572C113.973 246.692 113.967 246.806 113.955 246.914H105.945V245.42H112.767L111.885 245.888C111.897 245.336 111.783 244.85 111.543 244.43C111.303 244.01 110.973 243.68 110.553 243.44C110.145 243.2 109.671 243.08 109.131 243.08C108.579 243.08 108.093 243.2 107.673 243.44C107.265 243.68 106.941 244.016 106.701 244.448C106.473 244.868 106.359 245.366 106.359 245.942V246.302C106.359 246.878 106.491 247.388 106.755 247.832C107.019 248.276 107.391 248.618 107.871 248.858C108.351 249.098 108.903 249.218 109.527 249.218C110.067 249.218 110.553 249.134 110.985 248.966C111.417 248.798 111.801 248.534 112.137 248.174L113.343 249.56C112.911 250.064 112.365 250.454 111.705 250.73C111.057 250.994 110.313 251.126 109.473 251.126ZM118.08 251V242.756L118.602 243.296H114.696V241.388H123.696V243.296H119.808L120.33 242.756V251H118.08ZM129.389 251.126C128.321 251.126 127.385 250.916 126.581 250.496C125.789 250.064 125.171 249.476 124.727 248.732C124.295 247.988 124.079 247.142 124.079 246.194C124.079 245.234 124.289 244.388 124.709 243.656C125.141 242.912 125.729 242.33 126.473 241.91C127.229 241.49 128.087 241.28 129.047 241.28C129.983 241.28 130.817 241.484 131.549 241.892C132.281 242.3 132.857 242.876 133.277 243.62C133.697 244.364 133.907 245.24 133.907 246.248C133.907 246.344 133.901 246.452 133.889 246.572C133.889 246.692 133.883 246.806 133.871 246.914H125.861V245.42H132.683L131.801 245.888C131.813 245.336 131.699 244.85 131.459 244.43C131.219 244.01 130.889 243.68 130.469 243.44C130.061 243.2 129.587 243.08 129.047 243.08C128.495 243.08 128.009 243.2 127.589 243.44C127.181 243.68 126.857 244.016 126.617 244.448C126.389 244.868 126.275 245.366 126.275 245.942V246.302C126.275 246.878 126.407 247.388 126.671 247.832C126.935 248.276 127.307 248.618 127.787 248.858C128.267 249.098 128.819 249.218 129.443 249.218C129.983 249.218 130.469 249.134 130.901 248.966C131.333 248.798 131.717 248.534 132.053 248.174L133.259 249.56C132.827 250.064 132.281 250.454 131.621 250.73C130.973 250.994 130.229 251.126 129.389 251.126ZM147.444 251.18C147.432 251.18 147.378 251.18 147.282 251.18C147.198 251.18 147.114 251.18 147.03 251.18C146.958 251.18 146.91 251.18 146.886 251.18C144.858 251.156 143.286 250.718 142.17 249.866C141.054 249.002 140.496 247.772 140.496 246.176C140.496 244.592 141.054 243.38 142.17 242.54C143.286 241.7 144.876 241.268 146.94 241.244C146.964 241.244 147.012 241.244 147.084 241.244C147.168 241.244 147.246 241.244 147.318 241.244C147.402 241.244 147.45 241.244 147.462 241.244C149.538 241.244 151.152 241.67 152.304 242.522C153.468 243.362 154.05 244.58 154.05 246.176C154.05 247.784 153.468 249.02 152.304 249.884C151.152 250.748 149.532 251.18 147.444 251.18ZM147.372 249.308C148.392 249.308 149.232 249.194 149.892 248.966C150.552 248.726 151.044 248.378 151.368 247.922C151.692 247.454 151.854 246.872 151.854 246.176C151.854 245.492 151.692 244.928 151.368 244.484C151.044 244.028 150.552 243.692 149.892 243.476C149.232 243.248 148.392 243.134 147.372 243.134C147.348 243.134 147.288 243.134 147.192 243.134C147.108 243.134 147.054 243.134 147.03 243.134C146.034 243.134 145.218 243.254 144.582 243.494C143.946 243.722 143.472 244.058 143.16 244.502C142.86 244.946 142.71 245.504 142.71 246.176C142.71 246.86 142.86 247.43 143.16 247.886C143.472 248.342 143.946 248.69 144.582 248.93C145.23 249.17 146.046 249.296 147.03 249.308C147.054 249.308 147.108 249.308 147.192 249.308C147.288 249.308 147.348 249.308 147.372 249.308ZM146.202 254.492V237.644H148.326V254.492H146.202ZM161.055 244.556C162.291 244.556 163.233 244.832 163.881 245.384C164.529 245.936 164.853 246.716 164.853 247.724C164.853 248.768 164.493 249.584 163.773 250.172C163.053 250.748 162.039 251.03 160.731 251.018L156.231 251V241.388H158.481V244.538L161.055 244.556ZM160.533 249.362C161.193 249.374 161.697 249.236 162.045 248.948C162.393 248.66 162.567 248.24 162.567 247.688C162.567 247.136 162.393 246.74 162.045 246.5C161.709 246.248 161.205 246.116 160.533 246.104L158.481 246.086V249.344L160.533 249.362ZM166.83 251V241.388H169.08V245.114H171.942V247.148H169.08V251H166.83ZM175.614 251.126C174.654 251.126 173.796 250.916 173.04 250.496C172.296 250.064 171.708 249.476 171.276 248.732C170.844 247.988 170.628 247.142 170.628 246.194C170.628 245.234 170.844 244.382 171.276 243.638C171.708 242.894 172.296 242.318 173.04 241.91C173.796 241.49 174.654 241.28 175.614 241.28C176.586 241.28 177.444 241.49 178.188 241.91C178.944 242.318 179.538 242.894 179.97 243.638C180.402 244.382 180.618 245.234 180.618 246.194C180.618 247.142 180.402 247.994 179.97 248.75C179.538 249.494 178.944 250.076 178.188 250.496C177.444 250.916 176.586 251.126 175.614 251.126ZM175.614 249.218C176.154 249.218 176.628 249.092 177.036 248.84C177.456 248.588 177.786 248.24 178.026 247.796C178.266 247.352 178.386 246.818 178.386 246.194C178.386 245.57 178.266 245.036 178.026 244.592C177.786 244.136 177.456 243.788 177.036 243.548C176.628 243.308 176.16 243.188 175.632 243.188C175.104 243.188 174.63 243.308 174.21 243.548C173.79 243.788 173.46 244.136 173.22 244.592C172.98 245.036 172.86 245.57 172.86 246.194C172.86 246.818 172.98 247.352 173.22 247.796C173.46 248.24 173.79 248.588 174.21 248.84C174.63 249.092 175.098 249.218 175.614 249.218ZM188.892 247.202C188.436 247.418 187.95 247.598 187.434 247.742C186.93 247.874 186.396 247.94 185.832 247.94C184.62 247.94 183.678 247.658 183.006 247.094C182.334 246.53 181.998 245.654 181.998 244.466V241.388H184.248V244.322C184.248 244.958 184.428 245.42 184.788 245.708C185.16 245.996 185.67 246.14 186.318 246.14C186.75 246.14 187.182 246.086 187.614 245.978C188.046 245.87 188.472 245.72 188.892 245.528V247.202ZM188.73 251V241.388H190.98V251H188.73ZM198.488 251.126C197.42 251.126 196.484 250.916 195.68 250.496C194.888 250.064 194.27 249.476 193.826 248.732C193.394 247.988 193.178 247.142 193.178 246.194C193.178 245.234 193.388 244.388 193.808 243.656C194.24 242.912 194.828 242.33 195.572 241.91C196.328 241.49 197.186 241.28 198.146 241.28C199.082 241.28 199.916 241.484 200.648 241.892C201.38 242.3 201.956 242.876 202.376 243.62C202.796 244.364 203.006 245.24 203.006 246.248C203.006 246.344 203 246.452 202.988 246.572C202.988 246.692 202.982 246.806 202.97 246.914H194.96V245.42H201.782L200.9 245.888C200.912 245.336 200.798 244.85 200.558 244.43C200.318 244.01 199.988 243.68 199.568 243.44C199.16 243.2 198.686 243.08 198.146 243.08C197.594 243.08 197.108 243.2 196.688 243.44C196.28 243.68 195.956 244.016 195.716 244.448C195.488 244.868 195.374 245.366 195.374 245.942V246.302C195.374 246.878 195.506 247.388 195.77 247.832C196.034 248.276 196.406 248.618 196.886 248.858C197.366 249.098 197.918 249.218 198.542 249.218C199.082 249.218 199.568 249.134 200 248.966C200.432 248.798 200.816 248.534 201.152 248.174L202.358 249.56C201.926 250.064 201.38 250.454 200.72 250.73C200.072 250.994 199.328 251.126 198.488 251.126ZM210.795 251.126C210.015 251.126 209.301 250.946 208.653 250.586C208.017 250.226 207.507 249.686 207.123 248.966C206.751 248.234 206.565 247.31 206.565 246.194C206.565 245.066 206.745 244.142 207.105 243.422C207.477 242.702 207.981 242.168 208.617 241.82C209.253 241.46 209.979 241.28 210.795 241.28C211.743 241.28 212.577 241.484 213.297 241.892C214.029 242.3 214.605 242.87 215.025 243.602C215.457 244.334 215.673 245.198 215.673 246.194C215.673 247.19 215.457 248.06 215.025 248.804C214.605 249.536 214.029 250.106 213.297 250.514C212.577 250.922 211.743 251.126 210.795 251.126ZM205.467 254.492V241.388H207.609V243.656L207.537 246.212L207.717 248.768V254.492H205.467ZM210.543 249.2C211.083 249.2 211.563 249.08 211.983 248.84C212.415 248.6 212.757 248.252 213.009 247.796C213.261 247.34 213.387 246.806 213.387 246.194C213.387 245.57 213.261 245.036 213.009 244.592C212.757 244.136 212.415 243.788 211.983 243.548C211.563 243.308 211.083 243.188 210.543 243.188C210.003 243.188 209.517 243.308 209.085 243.548C208.653 243.788 208.311 244.136 208.059 244.592C207.807 245.036 207.681 245.57 207.681 246.194C207.681 246.806 207.807 247.34 208.059 247.796C208.311 248.252 208.653 248.6 209.085 248.84C209.517 249.08 210.003 249.2 210.543 249.2ZM222.286 251.126C221.278 251.126 220.378 250.916 219.586 250.496C218.806 250.064 218.194 249.476 217.75 248.732C217.306 247.988 217.084 247.142 217.084 246.194C217.084 245.234 217.306 244.388 217.75 243.656C218.194 242.912 218.806 242.33 219.586 241.91C220.378 241.49 221.278 241.28 222.286 241.28C223.222 241.28 224.044 241.472 224.752 241.856C225.472 242.228 226.018 242.78 226.39 243.512L224.662 244.52C224.374 244.064 224.02 243.728 223.6 243.512C223.192 243.296 222.748 243.188 222.268 243.188C221.716 243.188 221.218 243.308 220.774 243.548C220.33 243.788 219.982 244.136 219.73 244.592C219.478 245.036 219.352 245.57 219.352 246.194C219.352 246.818 219.478 247.358 219.73 247.814C219.982 248.258 220.33 248.6 220.774 248.84C221.218 249.08 221.716 249.2 222.268 249.2C222.748 249.2 223.192 249.092 223.6 248.876C224.02 248.66 224.374 248.324 224.662 247.868L226.39 248.876C226.018 249.596 225.472 250.154 224.752 250.55C224.044 250.934 223.222 251.126 222.286 251.126ZM233.346 251V241.388H242.562V251H240.33V242.774L240.852 243.296H235.074L235.596 242.774V251H233.346ZM249.882 251.126C248.898 251.126 248.022 250.916 247.254 250.496C246.486 250.064 245.88 249.476 245.436 248.732C244.992 247.988 244.77 247.142 244.77 246.194C244.77 245.234 244.992 244.388 245.436 243.656C245.88 242.912 246.486 242.33 247.254 241.91C248.022 241.49 248.898 241.28 249.882 241.28C250.878 241.28 251.76 241.49 252.528 241.91C253.308 242.33 253.914 242.906 254.346 243.638C254.79 244.37 255.012 245.222 255.012 246.194C255.012 247.142 254.79 247.988 254.346 248.732C253.914 249.476 253.308 250.064 252.528 250.496C251.76 250.916 250.878 251.126 249.882 251.126ZM249.882 249.2C250.434 249.2 250.926 249.08 251.358 248.84C251.79 248.6 252.126 248.252 252.366 247.796C252.618 247.34 252.744 246.806 252.744 246.194C252.744 245.57 252.618 245.036 252.366 244.592C252.126 244.136 251.79 243.788 251.358 243.548C250.926 243.308 250.44 243.188 249.9 243.188C249.348 243.188 248.856 243.308 248.424 243.548C248.004 243.788 247.668 244.136 247.416 244.592C247.164 245.036 247.038 245.57 247.038 246.194C247.038 246.806 247.164 247.34 247.416 247.796C247.668 248.252 248.004 248.6 248.424 248.84C248.856 249.08 249.342 249.2 249.882 249.2ZM263.883 246.95V245.33H269.103V246.95H263.883ZM265.197 241.244C266.229 241.244 267.141 241.46 267.933 241.892C268.725 242.312 269.349 242.894 269.805 243.638C270.261 244.37 270.489 245.222 270.489 246.194C270.489 247.154 270.261 248.012 269.805 248.768C269.349 249.512 268.725 250.1 267.933 250.532C267.141 250.952 266.229 251.162 265.197 251.162C264.333 251.162 263.541 251.018 262.821 250.73C262.101 250.442 261.501 250.028 261.021 249.488L262.317 248.228C262.701 248.6 263.121 248.882 263.577 249.074C264.045 249.266 264.555 249.362 265.107 249.362C265.755 249.362 266.325 249.23 266.817 248.966C267.309 248.69 267.699 248.312 267.987 247.832C268.275 247.352 268.419 246.806 268.419 246.194C268.419 245.57 268.275 245.024 267.987 244.556C267.699 244.076 267.309 243.704 266.817 243.44C266.325 243.164 265.755 243.026 265.107 243.026C264.555 243.026 264.045 243.122 263.577 243.314C263.121 243.506 262.701 243.794 262.317 244.178L261.021 242.918C261.501 242.378 262.101 241.964 262.821 241.676C263.541 241.388 264.333 241.244 265.197 241.244ZM274.315 251V242.756L274.837 243.296H270.931V241.388H279.931V243.296H276.043L276.565 242.756V251H274.315ZM285.425 251.126C284.441 251.126 283.565 250.916 282.797 250.496C282.029 250.064 281.423 249.476 280.979 248.732C280.535 247.988 280.313 247.142 280.313 246.194C280.313 245.234 280.535 244.388 280.979 243.656C281.423 242.912 282.029 242.33 282.797 241.91C283.565 241.49 284.441 241.28 285.425 241.28C286.421 241.28 287.303 241.49 288.071 241.91C288.851 242.33 289.457 242.906 289.889 243.638C290.333 244.37 290.555 245.222 290.555 246.194C290.555 247.142 290.333 247.988 289.889 248.732C289.457 249.476 288.851 250.064 288.071 250.496C287.303 250.916 286.421 251.126 285.425 251.126ZM285.425 249.2C285.977 249.2 286.469 249.08 286.901 248.84C287.333 248.6 287.669 248.252 287.909 247.796C288.161 247.34 288.287 246.806 288.287 246.194C288.287 245.57 288.161 245.036 287.909 244.592C287.669 244.136 287.333 243.788 286.901 243.548C286.469 243.308 285.983 243.188 285.443 243.188C284.891 243.188 284.399 243.308 283.967 243.548C283.547 243.788 283.211 244.136 282.959 244.592C282.707 245.036 282.581 245.57 282.581 246.194C282.581 246.806 282.707 247.34 282.959 247.796C283.211 248.252 283.547 248.6 283.967 248.84C284.399 249.08 284.885 249.2 285.425 249.2ZM292.778 251V241.388H295.028V247.724L300.338 241.388H302.39V251H300.14V244.664L294.848 251H292.778ZM297.44 240.254C296.48 240.254 295.742 240.032 295.226 239.588C294.71 239.132 294.446 238.472 294.434 237.608H295.928C295.94 238.04 296.072 238.382 296.324 238.634C296.588 238.886 296.954 239.012 297.422 239.012C297.878 239.012 298.238 238.886 298.502 238.634C298.778 238.382 298.922 238.04 298.934 237.608H300.464C300.452 238.472 300.182 239.132 299.654 239.588C299.138 240.032 298.4 240.254 297.44 240.254ZM3.512 281V271.388H5.762V279.092H10.352V271.388H12.602V281H3.512ZM11.954 283.142V280.946L12.476 281H10.352V279.092H14.06V283.142H11.954ZM20.5448 281.126C19.4768 281.126 18.5408 280.916 17.7368 280.496C16.9448 280.064 16.3268 279.476 15.8828 278.732C15.4508 277.988 15.2348 277.142 15.2348 276.194C15.2348 275.234 15.4448 274.388 15.8648 273.656C16.2968 272.912 16.8848 272.33 17.6288 271.91C18.3848 271.49 19.2428 271.28 20.2028 271.28C21.1388 271.28 21.9728 271.484 22.7048 271.892C23.4368 272.3 24.0128 272.876 24.4328 273.62C24.8528 274.364 25.0628 275.24 25.0628 276.248C25.0628 276.344 25.0568 276.452 25.0448 276.572C25.0448 276.692 25.0388 276.806 25.0268 276.914H17.0168V275.42H23.8388L22.9568 275.888C22.9688 275.336 22.8548 274.85 22.6148 274.43C22.3748 274.01 22.0448 273.68 21.6248 273.44C21.2168 273.2 20.7428 273.08 20.2028 273.08C19.6508 273.08 19.1648 273.2 18.7448 273.44C18.3368 273.68 18.0128 274.016 17.7728 274.448C17.5448 274.868 17.4308 275.366 17.4308 275.942V276.302C17.4308 276.878 17.5628 277.388 17.8268 277.832C18.0908 278.276 18.4628 278.618 18.9428 278.858C19.4228 279.098 19.9748 279.218 20.5988 279.218C21.1388 279.218 21.6248 279.134 22.0568 278.966C22.4888 278.798 22.8728 278.534 23.2088 278.174L24.4148 279.56C23.9828 280.064 23.4368 280.454 22.7768 280.73C22.1288 280.994 21.3848 281.126 20.5448 281.126ZM27.5237 281V271.388H29.7737V275.294H34.6157V271.388H36.8657V281H34.6157V277.202H29.7737V281H27.5237ZM44.3631 281.126C43.2951 281.126 42.3591 280.916 41.5551 280.496C40.7631 280.064 40.1451 279.476 39.7011 278.732C39.2691 277.988 39.0531 277.142 39.0531 276.194C39.0531 275.234 39.2631 274.388 39.6831 273.656C40.1151 272.912 40.7031 272.33 41.4471 271.91C42.2031 271.49 43.0611 271.28 44.0211 271.28C44.9571 271.28 45.7911 271.484 46.5231 271.892C47.2551 272.3 47.8311 272.876 48.2511 273.62C48.6711 274.364 48.8811 275.24 48.8811 276.248C48.8811 276.344 48.8751 276.452 48.8631 276.572C48.8631 276.692 48.8571 276.806 48.8451 276.914H40.8351V275.42H47.6571L46.7751 275.888C46.7871 275.336 46.6731 274.85 46.4331 274.43C46.1931 274.01 45.8631 273.68 45.4431 273.44C45.0351 273.2 44.5611 273.08 44.0211 273.08C43.4691 273.08 42.9831 273.2 42.5631 273.44C42.1551 273.68 41.8311 274.016 41.5911 274.448C41.3631 274.868 41.2491 275.366 41.2491 275.942V276.302C41.2491 276.878 41.3811 277.388 41.6451 277.832C41.9091 278.276 42.2811 278.618 42.7611 278.858C43.2411 279.098 43.7931 279.218 44.4171 279.218C44.9571 279.218 45.4431 279.134 45.8751 278.966C46.3071 278.798 46.6911 278.534 47.0271 278.174L48.2331 279.56C47.8011 280.064 47.2551 280.454 46.5951 280.73C45.9471 280.994 45.2031 281.126 44.3631 281.126Z" fill="#A2C33D"/>
<path d="M330 250H370" stroke="#A2C33D"/>
<path d="M327 82.0001L873.5 84.5102" stroke="#214B33"/>
<path d="M2.782 73V60.4H8.416C9.832 60.4 10.936 60.682 11.728 61.246C12.52 61.798 12.916 62.596 12.916 63.64C12.916 64.672 12.538 65.47 11.782 66.034C11.026 66.586 10.03 66.862 8.794 66.862L9.118 66.214C10.522 66.214 11.608 66.496 12.376 67.06C13.144 67.624 13.528 68.44 13.528 69.508C13.528 70.6 13.126 71.458 12.322 72.082C11.518 72.694 10.33 73 8.758 73H2.782ZM5.086 71.2H8.686C9.502 71.2 10.12 71.05 10.54 70.75C10.96 70.438 11.17 69.964 11.17 69.328C11.17 68.692 10.96 68.23 10.54 67.942C10.12 67.642 9.502 67.492 8.686 67.492H5.086V71.2ZM5.086 65.782H8.218C8.974 65.782 9.55 65.632 9.946 65.332C10.342 65.02 10.54 64.576 10.54 64C10.54 63.4 10.342 62.95 9.946 62.65C9.55 62.35 8.974 62.2 8.218 62.2H5.086V65.782ZM25.6437 73V63.388H27.8937V73H25.6437ZM20.6217 66.556C21.8577 66.556 22.7937 66.832 23.4297 67.384C24.0777 67.936 24.4017 68.716 24.4017 69.724C24.4017 70.768 24.0417 71.584 23.3217 72.172C22.6137 72.748 21.6057 73.03 20.2977 73.018L15.9417 73V63.388H18.1917V66.538L20.6217 66.556ZM20.0997 71.362C20.7597 71.374 21.2637 71.236 21.6117 70.948C21.9597 70.66 22.1337 70.24 22.1337 69.688C22.1337 69.136 21.9597 68.74 21.6117 68.5C21.2757 68.248 20.7717 68.116 20.0997 68.104L18.1917 68.086V71.344L20.0997 71.362ZM35.8929 73V63.388H45.1089V73H42.8769V64.774L43.3989 65.296H37.6209L38.1429 64.774V73H35.8929ZM53.4728 73.126C52.6928 73.126 51.9788 72.946 51.3308 72.586C50.6948 72.226 50.1848 71.686 49.8008 70.966C49.4288 70.234 49.2428 69.31 49.2428 68.194C49.2428 67.066 49.4228 66.142 49.7828 65.422C50.1548 64.702 50.6588 64.168 51.2948 63.82C51.9308 63.46 52.6568 63.28 53.4728 63.28C54.4208 63.28 55.2548 63.484 55.9748 63.892C56.7068 64.3 57.2828 64.87 57.7028 65.602C58.1348 66.334 58.3508 67.198 58.3508 68.194C58.3508 69.19 58.1348 70.06 57.7028 70.804C57.2828 71.536 56.7068 72.106 55.9748 72.514C55.2548 72.922 54.4208 73.126 53.4728 73.126ZM48.1448 76.492V63.388H50.2868V65.656L50.2148 68.212L50.3948 70.768V76.492H48.1448ZM53.2208 71.2C53.7608 71.2 54.2408 71.08 54.6608 70.84C55.0928 70.6 55.4348 70.252 55.6868 69.796C55.9388 69.34 56.0648 68.806 56.0648 68.194C56.0648 67.57 55.9388 67.036 55.6868 66.592C55.4348 66.136 55.0928 65.788 54.6608 65.548C54.2408 65.308 53.7608 65.188 53.2208 65.188C52.6808 65.188 52.1948 65.308 51.7628 65.548C51.3308 65.788 50.9888 66.136 50.7368 66.592C50.4848 67.036 50.3588 67.57 50.3588 68.194C50.3588 68.806 50.4848 69.34 50.7368 69.796C50.9888 70.252 51.3308 70.6 51.7628 70.84C52.1948 71.08 52.6808 71.2 53.2208 71.2ZM64.8741 73.126C63.8901 73.126 63.0141 72.916 62.2461 72.496C61.4781 72.064 60.8721 71.476 60.4281 70.732C59.9841 69.988 59.7621 69.142 59.7621 68.194C59.7621 67.234 59.9841 66.388 60.4281 65.656C60.8721 64.912 61.4781 64.33 62.2461 63.91C63.0141 63.49 63.8901 63.28 64.8741 63.28C65.8701 63.28 66.7521 63.49 67.5201 63.91C68.3001 64.33 68.9061 64.906 69.3381 65.638C69.7821 66.37 70.0041 67.222 70.0041 68.194C70.0041 69.142 69.7821 69.988 69.3381 70.732C68.9061 71.476 68.3001 72.064 67.5201 72.496C66.7521 72.916 65.8701 73.126 64.8741 73.126ZM64.8741 71.2C65.4261 71.2 65.9181 71.08 66.3501 70.84C66.7821 70.6 67.1181 70.252 67.3581 69.796C67.6101 69.34 67.7361 68.806 67.7361 68.194C67.7361 67.57 67.6101 67.036 67.3581 66.592C67.1181 66.136 66.7821 65.788 66.3501 65.548C65.9181 65.308 65.4321 65.188 64.8921 65.188C64.3401 65.188 63.8481 65.308 63.4161 65.548C62.9961 65.788 62.6601 66.136 62.4081 66.592C62.1561 67.036 62.0301 67.57 62.0301 68.194C62.0301 68.806 62.1561 69.34 62.4081 69.796C62.6601 70.252 62.9961 70.6 63.4161 70.84C63.8481 71.08 64.3341 71.2 64.8741 71.2ZM78.7094 71.956V65.296H75.0194L74.9654 66.844C74.9414 67.396 74.9054 67.93 74.8574 68.446C74.8094 68.95 74.7314 69.418 74.6234 69.85C74.5154 70.27 74.3594 70.618 74.1554 70.894C73.9514 71.17 73.6814 71.35 73.3454 71.434L71.1134 71.092C71.4734 71.092 71.7614 70.978 71.9774 70.75C72.2054 70.51 72.3794 70.186 72.4994 69.778C72.6314 69.358 72.7274 68.884 72.7874 68.356C72.8474 67.816 72.8894 67.258 72.9134 66.682L73.0394 63.388H80.9594V71.956H78.7094ZM70.7714 75.142V71.092H82.3814V75.142H80.2754V73H72.8594V75.142H70.7714ZM90.2229 73V71.056L90.0969 70.642V67.24C90.0969 66.58 89.8989 66.07 89.5029 65.71C89.1069 65.338 88.5069 65.152 87.7029 65.152C87.1629 65.152 86.6289 65.236 86.1009 65.404C85.5849 65.572 85.1469 65.806 84.7869 66.106L83.9049 64.468C84.4209 64.072 85.0329 63.778 85.7409 63.586C86.4609 63.382 87.2049 63.28 87.9729 63.28C89.3649 63.28 90.4389 63.616 91.1949 64.288C91.9629 64.948 92.3469 65.974 92.3469 67.366V73H90.2229ZM87.1989 73.126C86.4789 73.126 85.8489 73.006 85.3089 72.766C84.7689 72.514 84.3489 72.172 84.0489 71.74C83.7609 71.296 83.6169 70.798 83.6169 70.246C83.6169 69.706 83.7429 69.22 83.9949 68.788C84.2589 68.356 84.6849 68.014 85.2729 67.762C85.8609 67.51 86.6409 67.384 87.6129 67.384H90.4029V68.878H87.7749C87.0069 68.878 86.4909 69.004 86.2269 69.256C85.9629 69.496 85.8309 69.796 85.8309 70.156C85.8309 70.564 85.9929 70.888 86.3169 71.128C86.6409 71.368 87.0909 71.488 87.6669 71.488C88.2189 71.488 88.7109 71.362 89.1429 71.11C89.5869 70.858 89.9049 70.486 90.0969 69.994L90.4749 71.344C90.2589 71.908 89.8689 72.346 89.3049 72.658C88.7529 72.97 88.0509 73.126 87.1989 73.126ZM99.6131 73.126C98.5451 73.126 97.6091 72.916 96.8051 72.496C96.0131 72.064 95.3951 71.476 94.9511 70.732C94.5191 69.988 94.3031 69.142 94.3031 68.194C94.3031 67.234 94.5131 66.388 94.9331 65.656C95.3651 64.912 95.9531 64.33 96.6971 63.91C97.4531 63.49 98.3111 63.28 99.2711 63.28C100.207 63.28 101.041 63.484 101.773 63.892C102.505 64.3 103.081 64.876 103.501 65.62C103.921 66.364 104.131 67.24 104.131 68.248C104.131 68.344 104.125 68.452 104.113 68.572C104.113 68.692 104.107 68.806 104.095 68.914H96.0851V67.42H102.907L102.025 67.888C102.037 67.336 101.923 66.85 101.683 66.43C101.443 66.01 101.113 65.68 100.693 65.44C100.285 65.2 99.8111 65.08 99.2711 65.08C98.7191 65.08 98.2331 65.2 97.8131 65.44C97.4051 65.68 97.0811 66.016 96.8411 66.448C96.6131 66.868 96.4991 67.366 96.4991 67.942V68.302C96.4991 68.878 96.6311 69.388 96.8951 69.832C97.1591 70.276 97.5311 70.618 98.0111 70.858C98.4911 71.098 99.0431 71.218 99.6671 71.218C100.207 71.218 100.693 71.134 101.125 70.966C101.557 70.798 101.941 70.534 102.277 70.174L103.483 71.56C103.051 72.064 102.505 72.454 101.845 72.73C101.197 72.994 100.453 73.126 99.6131 73.126ZM108.221 73V64.756L108.743 65.296H104.837V63.388H113.837V65.296H109.949L110.471 64.756V73H108.221ZM119.529 73.126C118.461 73.126 117.525 72.916 116.721 72.496C115.929 72.064 115.311 71.476 114.867 70.732C114.435 69.988 114.219 69.142 114.219 68.194C114.219 67.234 114.429 66.388 114.849 65.656C115.281 64.912 115.869 64.33 116.613 63.91C117.369 63.49 118.227 63.28 119.187 63.28C120.123 63.28 120.957 63.484 121.689 63.892C122.421 64.3 122.997 64.876 123.417 65.62C123.837 66.364 124.047 67.24 124.047 68.248C124.047 68.344 124.041 68.452 124.029 68.572C124.029 68.692 124.023 68.806 124.011 68.914H116.001V67.42H122.823L121.941 67.888C121.953 67.336 121.839 66.85 121.599 66.43C121.359 66.01 121.029 65.68 120.609 65.44C120.201 65.2 119.727 65.08 119.187 65.08C118.635 65.08 118.149 65.2 117.729 65.44C117.321 65.68 116.997 66.016 116.757 66.448C116.529 66.868 116.415 67.366 116.415 67.942V68.302C116.415 68.878 116.547 69.388 116.811 69.832C117.075 70.276 117.447 70.618 117.927 70.858C118.407 71.098 118.959 71.218 119.583 71.218C120.123 71.218 120.609 71.134 121.041 70.966C121.473 70.798 121.857 70.534 122.193 70.174L123.399 71.56C122.967 72.064 122.421 72.454 121.761 72.73C121.113 72.994 120.369 73.126 119.529 73.126ZM137.585 73.18C137.573 73.18 137.519 73.18 137.423 73.18C137.339 73.18 137.255 73.18 137.171 73.18C137.099 73.18 137.051 73.18 137.027 73.18C134.999 73.156 133.427 72.718 132.311 71.866C131.195 71.002 130.637 69.772 130.637 68.176C130.637 66.592 131.195 65.38 132.311 64.54C133.427 63.7 135.017 63.268 137.081 63.244C137.105 63.244 137.153 63.244 137.225 63.244C137.309 63.244 137.387 63.244 137.459 63.244C137.543 63.244 137.591 63.244 137.603 63.244C139.679 63.244 141.293 63.67 142.445 64.522C143.609 65.362 144.191 66.58 144.191 68.176C144.191 69.784 143.609 71.02 142.445 71.884C141.293 72.748 139.673 73.18 137.585 73.18ZM137.513 71.308C138.533 71.308 139.373 71.194 140.033 70.966C140.693 70.726 141.185 70.378 141.509 69.922C141.833 69.454 141.995 68.872 141.995 68.176C141.995 67.492 141.833 66.928 141.509 66.484C141.185 66.028 140.693 65.692 140.033 65.476C139.373 65.248 138.533 65.134 137.513 65.134C137.489 65.134 137.429 65.134 137.333 65.134C137.249 65.134 137.195 65.134 137.171 65.134C136.175 65.134 135.359 65.254 134.723 65.494C134.087 65.722 133.613 66.058 133.301 66.502C133.001 66.946 132.851 67.504 132.851 68.176C132.851 68.86 133.001 69.43 133.301 69.886C133.613 70.342 134.087 70.69 134.723 70.93C135.371 71.17 136.187 71.296 137.171 71.308C137.195 71.308 137.249 71.308 137.333 71.308C137.429 71.308 137.489 71.308 137.513 71.308ZM136.343 76.492V59.644H138.467V76.492H136.343ZM151.195 66.556C152.431 66.556 153.373 66.832 154.021 67.384C154.669 67.936 154.993 68.716 154.993 69.724C154.993 70.768 154.633 71.584 153.913 72.172C153.193 72.748 152.179 73.03 150.871 73.018L146.371 73V63.388H148.621V66.538L151.195 66.556ZM150.673 71.362C151.333 71.374 151.837 71.236 152.185 70.948C152.533 70.66 152.707 70.24 152.707 69.688C152.707 69.136 152.533 68.74 152.185 68.5C151.849 68.248 151.345 68.116 150.673 68.104L148.621 68.086V71.344L150.673 71.362ZM156.971 73V63.388H159.221V67.114H162.083V69.148H159.221V73H156.971ZM165.755 73.126C164.795 73.126 163.937 72.916 163.181 72.496C162.437 72.064 161.849 71.476 161.417 70.732C160.985 69.988 160.769 69.142 160.769 68.194C160.769 67.234 160.985 66.382 161.417 65.638C161.849 64.894 162.437 64.318 163.181 63.91C163.937 63.49 164.795 63.28 165.755 63.28C166.727 63.28 167.585 63.49 168.329 63.91C169.085 64.318 169.679 64.894 170.111 65.638C170.543 66.382 170.759 67.234 170.759 68.194C170.759 69.142 170.543 69.994 170.111 70.75C169.679 71.494 169.085 72.076 168.329 72.496C167.585 72.916 166.727 73.126 165.755 73.126ZM165.755 71.218C166.295 71.218 166.769 71.092 167.177 70.84C167.597 70.588 167.927 70.24 168.167 69.796C168.407 69.352 168.527 68.818 168.527 68.194C168.527 67.57 168.407 67.036 168.167 66.592C167.927 66.136 167.597 65.788 167.177 65.548C166.769 65.308 166.301 65.188 165.773 65.188C165.245 65.188 164.771 65.308 164.351 65.548C163.931 65.788 163.601 66.136 163.361 66.592C163.121 67.036 163.001 67.57 163.001 68.194C163.001 68.818 163.121 69.352 163.361 69.796C163.601 70.24 163.931 70.588 164.351 70.84C164.771 71.092 165.239 71.218 165.755 71.218ZM179.033 69.202C178.577 69.418 178.091 69.598 177.575 69.742C177.071 69.874 176.537 69.94 175.973 69.94C174.761 69.94 173.819 69.658 173.147 69.094C172.475 68.53 172.139 67.654 172.139 66.466V63.388H174.389V66.322C174.389 66.958 174.569 67.42 174.929 67.708C175.301 67.996 175.811 68.14 176.459 68.14C176.891 68.14 177.323 68.086 177.755 67.978C178.187 67.87 178.613 67.72 179.033 67.528V69.202ZM178.871 73V63.388H181.121V73H178.871ZM188.629 73.126C187.561 73.126 186.625 72.916 185.821 72.496C185.029 72.064 184.411 71.476 183.967 70.732C183.535 69.988 183.319 69.142 183.319 68.194C183.319 67.234 183.529 66.388 183.949 65.656C184.381 64.912 184.969 64.33 185.713 63.91C186.469 63.49 187.327 63.28 188.287 63.28C189.223 63.28 190.057 63.484 190.789 63.892C191.521 64.3 192.097 64.876 192.517 65.62C192.937 66.364 193.147 67.24 193.147 68.248C193.147 68.344 193.141 68.452 193.129 68.572C193.129 68.692 193.123 68.806 193.111 68.914H185.101V67.42H191.923L191.041 67.888C191.053 67.336 190.939 66.85 190.699 66.43C190.459 66.01 190.129 65.68 189.709 65.44C189.301 65.2 188.827 65.08 188.287 65.08C187.735 65.08 187.249 65.2 186.829 65.44C186.421 65.68 186.097 66.016 185.857 66.448C185.629 66.868 185.515 67.366 185.515 67.942V68.302C185.515 68.878 185.647 69.388 185.911 69.832C186.175 70.276 186.547 70.618 187.027 70.858C187.507 71.098 188.059 71.218 188.683 71.218C189.223 71.218 189.709 71.134 190.141 70.966C190.573 70.798 190.957 70.534 191.293 70.174L192.499 71.56C192.067 72.064 191.521 72.454 190.861 72.73C190.213 72.994 189.469 73.126 188.629 73.126ZM200.936 73.126C200.156 73.126 199.442 72.946 198.794 72.586C198.158 72.226 197.648 71.686 197.264 70.966C196.892 70.234 196.706 69.31 196.706 68.194C196.706 67.066 196.886 66.142 197.246 65.422C197.618 64.702 198.122 64.168 198.758 63.82C199.394 63.46 200.12 63.28 200.936 63.28C201.884 63.28 202.718 63.484 203.438 63.892C204.17 64.3 204.746 64.87 205.166 65.602C205.598 66.334 205.814 67.198 205.814 68.194C205.814 69.19 205.598 70.06 205.166 70.804C204.746 71.536 204.17 72.106 203.438 72.514C202.718 72.922 201.884 73.126 200.936 73.126ZM195.608 76.492V63.388H197.75V65.656L197.678 68.212L197.858 70.768V76.492H195.608ZM200.684 71.2C201.224 71.2 201.704 71.08 202.124 70.84C202.556 70.6 202.898 70.252 203.15 69.796C203.402 69.34 203.528 68.806 203.528 68.194C203.528 67.57 203.402 67.036 203.15 66.592C202.898 66.136 202.556 65.788 202.124 65.548C201.704 65.308 201.224 65.188 200.684 65.188C200.144 65.188 199.658 65.308 199.226 65.548C198.794 65.788 198.452 66.136 198.2 66.592C197.948 67.036 197.822 67.57 197.822 68.194C197.822 68.806 197.948 69.34 198.2 69.796C198.452 70.252 198.794 70.6 199.226 70.84C199.658 71.08 200.144 71.2 200.684 71.2ZM212.427 73.126C211.419 73.126 210.519 72.916 209.727 72.496C208.947 72.064 208.335 71.476 207.891 70.732C207.447 69.988 207.225 69.142 207.225 68.194C207.225 67.234 207.447 66.388 207.891 65.656C208.335 64.912 208.947 64.33 209.727 63.91C210.519 63.49 211.419 63.28 212.427 63.28C213.363 63.28 214.185 63.472 214.893 63.856C215.613 64.228 216.159 64.78 216.531 65.512L214.803 66.52C214.515 66.064 214.161 65.728 213.741 65.512C213.333 65.296 212.889 65.188 212.409 65.188C211.857 65.188 211.359 65.308 210.915 65.548C210.471 65.788 210.123 66.136 209.871 66.592C209.619 67.036 209.493 67.57 209.493 68.194C209.493 68.818 209.619 69.358 209.871 69.814C210.123 70.258 210.471 70.6 210.915 70.84C211.359 71.08 211.857 71.2 212.409 71.2C212.889 71.2 213.333 71.092 213.741 70.876C214.161 70.66 214.515 70.324 214.803 69.868L216.531 70.876C216.159 71.596 215.613 72.154 214.893 72.55C214.185 72.934 213.363 73.126 212.427 73.126ZM223.487 73V63.388H232.703V73H230.471V64.774L230.993 65.296H225.215L225.737 64.774V73H223.487ZM240.023 73.126C239.039 73.126 238.163 72.916 237.395 72.496C236.627 72.064 236.021 71.476 235.577 70.732C235.133 69.988 234.911 69.142 234.911 68.194C234.911 67.234 235.133 66.388 235.577 65.656C236.021 64.912 236.627 64.33 237.395 63.91C238.163 63.49 239.039 63.28 240.023 63.28C241.019 63.28 241.901 63.49 242.669 63.91C243.449 64.33 244.055 64.906 244.487 65.638C244.931 66.37 245.153 67.222 245.153 68.194C245.153 69.142 244.931 69.988 244.487 70.732C244.055 71.476 243.449 72.064 242.669 72.496C241.901 72.916 241.019 73.126 240.023 73.126ZM240.023 71.2C240.575 71.2 241.067 71.08 241.499 70.84C241.931 70.6 242.267 70.252 242.507 69.796C242.759 69.34 242.885 68.806 242.885 68.194C242.885 67.57 242.759 67.036 242.507 66.592C242.267 66.136 241.931 65.788 241.499 65.548C241.067 65.308 240.581 65.188 240.041 65.188C239.489 65.188 238.997 65.308 238.565 65.548C238.145 65.788 237.809 66.136 237.557 66.592C237.305 67.036 237.179 67.57 237.179 68.194C237.179 68.806 237.305 69.34 237.557 69.796C237.809 70.252 238.145 70.6 238.565 70.84C238.997 71.08 239.483 71.2 240.023 71.2ZM254.024 68.95V67.33H259.244V68.95H254.024ZM255.338 63.244C256.37 63.244 257.282 63.46 258.074 63.892C258.866 64.312 259.49 64.894 259.946 65.638C260.402 66.37 260.63 67.222 260.63 68.194C260.63 69.154 260.402 70.012 259.946 70.768C259.49 71.512 258.866 72.1 258.074 72.532C257.282 72.952 256.37 73.162 255.338 73.162C254.474 73.162 253.682 73.018 252.962 72.73C252.242 72.442 251.642 72.028 251.162 71.488L252.458 70.228C252.842 70.6 253.262 70.882 253.718 71.074C254.186 71.266 254.696 71.362 255.248 71.362C255.896 71.362 256.466 71.23 256.958 70.966C257.45 70.69 257.84 70.312 258.128 69.832C258.416 69.352 258.56 68.806 258.56 68.194C258.56 67.57 258.416 67.024 258.128 66.556C257.84 66.076 257.45 65.704 256.958 65.44C256.466 65.164 255.896 65.026 255.248 65.026C254.696 65.026 254.186 65.122 253.718 65.314C253.262 65.506 252.842 65.794 252.458 66.178L251.162 64.918C251.642 64.378 252.242 63.964 252.962 63.676C253.682 63.388 254.474 63.244 255.338 63.244ZM264.455 73V64.756L264.977 65.296H261.071V63.388H270.071V65.296H266.183L266.705 64.756V73H264.455ZM275.566 73.126C274.582 73.126 273.706 72.916 272.938 72.496C272.17 72.064 271.564 71.476 271.12 70.732C270.676 69.988 270.454 69.142 270.454 68.194C270.454 67.234 270.676 66.388 271.12 65.656C271.564 64.912 272.17 64.33 272.938 63.91C273.706 63.49 274.582 63.28 275.566 63.28C276.562 63.28 277.444 63.49 278.212 63.91C278.992 64.33 279.598 64.906 280.03 65.638C280.474 66.37 280.696 67.222 280.696 68.194C280.696 69.142 280.474 69.988 280.03 70.732C279.598 71.476 278.992 72.064 278.212 72.496C277.444 72.916 276.562 73.126 275.566 73.126ZM275.566 71.2C276.118 71.2 276.61 71.08 277.042 70.84C277.474 70.6 277.81 70.252 278.05 69.796C278.302 69.34 278.428 68.806 278.428 68.194C278.428 67.57 278.302 67.036 278.05 66.592C277.81 66.136 277.474 65.788 277.042 65.548C276.61 65.308 276.124 65.188 275.584 65.188C275.032 65.188 274.54 65.308 274.108 65.548C273.688 65.788 273.352 66.136 273.1 66.592C272.848 67.036 272.722 67.57 272.722 68.194C272.722 68.806 272.848 69.34 273.1 69.796C273.352 70.252 273.688 70.6 274.108 70.84C274.54 71.08 275.026 71.2 275.566 71.2ZM282.918 73V63.388H285.168V69.724L290.478 63.388H292.53V73H290.28V66.664L284.988 73H282.918ZM287.58 62.254C286.62 62.254 285.882 62.032 285.366 61.588C284.85 61.132 284.586 60.472 284.574 59.608H286.068C286.08 60.04 286.212 60.382 286.464 60.634C286.728 60.886 287.094 61.012 287.562 61.012C288.018 61.012 288.378 60.886 288.642 60.634C288.918 60.382 289.062 60.04 289.074 59.608H290.604C290.592 60.472 290.322 61.132 289.794 61.588C289.278 62.032 288.54 62.254 287.58 62.254ZM300.532 73V63.388H302.782V71.092H307.372V63.388H309.622V73H300.532ZM308.974 75.142V72.946L309.496 73H307.372V71.092H311.08V75.142H308.974ZM317.564 73.126C316.496 73.126 315.56 72.916 314.756 72.496C313.964 72.064 313.346 71.476 312.902 70.732C312.47 69.988 312.254 69.142 312.254 68.194C312.254 67.234 312.464 66.388 312.884 65.656C313.316 64.912 313.904 64.33 314.648 63.91C315.404 63.49 316.262 63.28 317.222 63.28C318.158 63.28 318.992 63.484 319.724 63.892C320.456 64.3 321.032 64.876 321.452 65.62C321.872 66.364 322.082 67.24 322.082 68.248C322.082 68.344 322.076 68.452 322.064 68.572C322.064 68.692 322.058 68.806 322.046 68.914H314.036V67.42H320.858L319.976 67.888C319.988 67.336 319.874 66.85 319.634 66.43C319.394 66.01 319.064 65.68 318.644 65.44C318.236 65.2 317.762 65.08 317.222 65.08C316.67 65.08 316.184 65.2 315.764 65.44C315.356 65.68 315.032 66.016 314.792 66.448C314.564 66.868 314.45 67.366 314.45 67.942V68.302C314.45 68.878 314.582 69.388 314.846 69.832C315.11 70.276 315.482 70.618 315.962 70.858C316.442 71.098 316.994 71.218 317.618 71.218C318.158 71.218 318.644 71.134 319.076 70.966C319.508 70.798 319.892 70.534 320.228 70.174L321.434 71.56C321.002 72.064 320.456 72.454 319.796 72.73C319.148 72.994 318.404 73.126 317.564 73.126ZM324.543 73V63.388H326.793V67.294H331.635V63.388H333.885V73H331.635V69.202H326.793V73H324.543ZM341.383 73.126C340.315 73.126 339.379 72.916 338.575 72.496C337.783 72.064 337.165 71.476 336.721 70.732C336.289 69.988 336.073 69.142 336.073 68.194C336.073 67.234 336.283 66.388 336.703 65.656C337.135 64.912 337.723 64.33 338.467 63.91C339.223 63.49 340.081 63.28 341.041 63.28C341.977 63.28 342.811 63.484 343.543 63.892C344.275 64.3 344.851 64.876 345.271 65.62C345.691 66.364 345.901 67.24 345.901 68.248C345.901 68.344 345.895 68.452 345.883 68.572C345.883 68.692 345.877 68.806 345.865 68.914H337.855V67.42H344.677L343.795 67.888C343.807 67.336 343.693 66.85 343.453 66.43C343.213 66.01 342.883 65.68 342.463 65.44C342.055 65.2 341.581 65.08 341.041 65.08C340.489 65.08 340.003 65.2 339.583 65.44C339.175 65.68 338.851 66.016 338.611 66.448C338.383 66.868 338.269 67.366 338.269 67.942V68.302C338.269 68.878 338.401 69.388 338.665 69.832C338.929 70.276 339.301 70.618 339.781 70.858C340.261 71.098 340.813 71.218 341.437 71.218C341.977 71.218 342.463 71.134 342.895 70.966C343.327 70.798 343.711 70.534 344.047 70.174L345.253 71.56C344.821 72.064 344.275 72.454 343.615 72.73C342.967 72.994 342.223 73.126 341.383 73.126Z" fill="#214B33"/>
<path d="M175 30L902 30" stroke="#BC0051"/>
<path d="M1.764 21V8.4H6.948C8.064 8.4 9.018 8.58 9.81 8.94C10.614 9.3 11.232 9.816 11.664 10.488C12.096 11.16 12.312 11.958 12.312 12.882C12.312 13.806 12.096 14.604 11.664 15.276C11.232 15.948 10.614 16.464 9.81 16.824C9.018 17.184 8.064 17.364 6.948 17.364H3.06L4.104 16.266V21H1.764ZM4.104 16.518L3.06 15.384H6.84C7.872 15.384 8.646 15.168 9.162 14.736C9.69 14.292 9.954 13.674 9.954 12.882C9.954 12.078 9.69 11.46 9.162 11.028C8.646 10.596 7.872 10.38 6.84 10.38H3.06L4.104 9.228V16.518ZM18.5226 21.126C17.5386 21.126 16.6626 20.916 15.8946 20.496C15.1266 20.064 14.5206 19.476 14.0766 18.732C13.6326 17.988 13.4106 17.142 13.4106 16.194C13.4106 15.234 13.6326 14.388 14.0766 13.656C14.5206 12.912 15.1266 12.33 15.8946 11.91C16.6626 11.49 17.5386 11.28 18.5226 11.28C19.5186 11.28 20.4006 11.49 21.1686 11.91C21.9486 12.33 22.5546 12.906 22.9866 13.638C23.4306 14.37 23.6526 15.222 23.6526 16.194C23.6526 17.142 23.4306 17.988 22.9866 18.732C22.5546 19.476 21.9486 20.064 21.1686 20.496C20.4006 20.916 19.5186 21.126 18.5226 21.126ZM18.5226 19.2C19.0746 19.2 19.5666 19.08 19.9986 18.84C20.4306 18.6 20.7666 18.252 21.0066 17.796C21.2586 17.34 21.3846 16.806 21.3846 16.194C21.3846 15.57 21.2586 15.036 21.0066 14.592C20.7666 14.136 20.4306 13.788 19.9986 13.548C19.5666 13.308 19.0806 13.188 18.5406 13.188C17.9886 13.188 17.4966 13.308 17.0646 13.548C16.6446 13.788 16.3086 14.136 16.0566 14.592C15.8046 15.036 15.6786 15.57 15.6786 16.194C15.6786 16.806 15.8046 17.34 16.0566 17.796C16.3086 18.252 16.6446 18.6 17.0646 18.84C17.4966 19.08 17.9826 19.2 18.5226 19.2ZM28.7767 21.162C28.0447 21.162 27.3187 21.078 26.5987 20.91C25.8907 20.73 25.2487 20.478 24.6727 20.154L25.3027 18.48C25.7707 18.744 26.2987 18.948 26.8867 19.092C27.4747 19.236 28.0627 19.308 28.6507 19.308C29.1547 19.308 29.5867 19.26 29.9467 19.164C30.3067 19.056 30.5827 18.9 30.7747 18.696C30.9787 18.492 31.0807 18.258 31.0807 17.994C31.0807 17.61 30.9127 17.322 30.5767 17.13C30.2527 16.926 29.7847 16.824 29.1727 16.824H27.3187V15.312H28.9927C29.3767 15.312 29.7007 15.27 29.9647 15.186C30.2407 15.102 30.4507 14.976 30.5947 14.808C30.7387 14.64 30.8107 14.442 30.8107 14.214C30.8107 13.986 30.7207 13.788 30.5407 13.62C30.3727 13.44 30.1267 13.308 29.8027 13.224C29.4787 13.128 29.0887 13.08 28.6327 13.08C28.1527 13.08 27.6547 13.14 27.1387 13.26C26.6347 13.38 26.1187 13.554 25.5907 13.782L25.0147 12.126C25.6267 11.85 26.2207 11.64 26.7967 11.496C27.3847 11.34 27.9667 11.256 28.5427 11.244C29.4187 11.208 30.1987 11.298 30.8827 11.514C31.5667 11.73 32.1067 12.042 32.5027 12.45C32.8987 12.858 33.0967 13.338 33.0967 13.89C33.0967 14.346 32.9527 14.76 32.6647 15.132C32.3887 15.492 32.0047 15.774 31.5127 15.978C31.0327 16.182 30.4807 16.284 29.8567 16.284L29.9287 15.798C30.9967 15.798 31.8367 16.014 32.4487 16.446C33.0607 16.866 33.3667 17.442 33.3667 18.174C33.3667 18.762 33.1687 19.284 32.7727 19.74C32.3767 20.184 31.8307 20.532 31.1347 20.784C30.4507 21.036 29.6647 21.162 28.7767 21.162ZM35.6839 21V11.388H37.9339V15.294H42.7759V11.388H45.0259V21H42.7759V17.202H37.9339V21H35.6839ZM48.0413 21V11.388H50.2913V17.724L55.6013 11.388H57.6533V21H55.4033V14.664L50.1113 21H48.0413ZM66.746 17.202C66.29 17.418 65.804 17.598 65.288 17.742C64.784 17.874 64.25 17.94 63.686 17.94C62.474 17.94 61.532 17.658 60.86 17.094C60.188 16.53 59.852 15.654 59.852 14.466V11.388H62.102V14.322C62.102 14.958 62.282 15.42 62.642 15.708C63.014 15.996 63.524 16.14 64.172 16.14C64.604 16.14 65.036 16.086 65.468 15.978C65.9 15.87 66.326 15.72 66.746 15.528V17.202ZM66.584 21V11.388H68.834V21H66.584ZM71.8597 21V11.388H74.1097V15.294H78.9517V11.388H81.2017V21H78.9517V17.202H74.1097V21H71.8597ZM90.0491 21V19.056L89.9231 18.642V15.24C89.9231 14.58 89.7251 14.07 89.3291 13.71C88.9331 13.338 88.3331 13.152 87.5291 13.152C86.9891 13.152 86.4551 13.236 85.9271 13.404C85.4111 13.572 84.9731 13.806 84.6131 14.106L83.7311 12.468C84.2471 12.072 84.8591 11.778 85.5671 11.586C86.2871 11.382 87.0311 11.28 87.7991 11.28C89.1911 11.28 90.2651 11.616 91.0211 12.288C91.7891 12.948 92.1731 13.974 92.1731 15.366V21H90.0491ZM87.0251 21.126C86.3051 21.126 85.6751 21.006 85.1351 20.766C84.5951 20.514 84.1751 20.172 83.8751 19.74C83.5871 19.296 83.4431 18.798 83.4431 18.246C83.4431 17.706 83.5691 17.22 83.8211 16.788C84.0851 16.356 84.5111 16.014 85.0991 15.762C85.6871 15.51 86.4671 15.384 87.4391 15.384H90.2291V16.878H87.6011C86.8331 16.878 86.3171 17.004 86.0531 17.256C85.7891 17.496 85.6571 17.796 85.6571 18.156C85.6571 18.564 85.8191 18.888 86.1431 19.128C86.4671 19.368 86.9171 19.488 87.4931 19.488C88.0451 19.488 88.5371 19.362 88.9691 19.11C89.4131 18.858 89.7311 18.486 89.9231 17.994L90.3011 19.344C90.0851 19.908 89.6951 20.346 89.1311 20.658C88.5791 20.97 87.8771 21.126 87.0251 21.126ZM101.059 21V17.724L101.383 18.102H98.5033C97.1833 18.102 96.1453 17.826 95.3893 17.274C94.6453 16.71 94.2733 15.9 94.2733 14.844C94.2733 13.716 94.6693 12.858 95.4613 12.27C96.2653 11.682 97.3333 11.388 98.6653 11.388H103.075V21H101.059ZM94.1473 21L96.7393 17.328H99.0433L96.5593 21H94.1473ZM101.059 17.004V12.684L101.383 13.278H98.7373C98.0413 13.278 97.5013 13.41 97.1173 13.674C96.7453 13.926 96.5593 14.34 96.5593 14.916C96.5593 15.996 97.2613 16.536 98.6653 16.536H101.383L101.059 17.004ZM111.076 21V11.388H113.326V19.092H117.916V11.388H120.166V21H111.076ZM119.518 23.142V20.946L120.04 21H117.916V19.092H121.624V23.142H119.518ZM128.109 21.126C127.041 21.126 126.105 20.916 125.301 20.496C124.509 20.064 123.891 19.476 123.447 18.732C123.015 17.988 122.799 17.142 122.799 16.194C122.799 15.234 123.009 14.388 123.429 13.656C123.861 12.912 124.449 12.33 125.193 11.91C125.949 11.49 126.807 11.28 127.767 11.28C128.703 11.28 129.537 11.484 130.269 11.892C131.001 12.3 131.577 12.876 131.997 13.62C132.417 14.364 132.627 15.24 132.627 16.248C132.627 16.344 132.621 16.452 132.609 16.572C132.609 16.692 132.603 16.806 132.591 16.914H124.581V15.42H131.403L130.521 15.888C130.533 15.336 130.419 14.85 130.179 14.43C129.939 14.01 129.609 13.68 129.189 13.44C128.781 13.2 128.307 13.08 127.767 13.08C127.215 13.08 126.729 13.2 126.309 13.44C125.901 13.68 125.577 14.016 125.337 14.448C125.109 14.868 124.995 15.366 124.995 15.942V16.302C124.995 16.878 125.127 17.388 125.391 17.832C125.655 18.276 126.027 18.618 126.507 18.858C126.987 19.098 127.539 19.218 128.163 19.218C128.703 19.218 129.189 19.134 129.621 18.966C130.053 18.798 130.437 18.534 130.773 18.174L131.979 19.56C131.547 20.064 131.001 20.454 130.341 20.73C129.693 20.994 128.949 21.126 128.109 21.126ZM135.088 21V11.388H137.338V15.294H142.18V11.388H144.43V21H142.18V17.202H137.338V21H135.088ZM153.278 21V19.056L153.152 18.642V15.24C153.152 14.58 152.954 14.07 152.558 13.71C152.162 13.338 151.562 13.152 150.758 13.152C150.218 13.152 149.684 13.236 149.156 13.404C148.64 13.572 148.202 13.806 147.842 14.106L146.96 12.468C147.476 12.072 148.088 11.778 148.796 11.586C149.516 11.382 150.26 11.28 151.028 11.28C152.42 11.28 153.494 11.616 154.25 12.288C155.018 12.948 155.402 13.974 155.402 15.366V21H153.278ZM150.254 21.126C149.534 21.126 148.904 21.006 148.364 20.766C147.824 20.514 147.404 20.172 147.104 19.74C146.816 19.296 146.672 18.798 146.672 18.246C146.672 17.706 146.798 17.22 147.05 16.788C147.314 16.356 147.74 16.014 148.328 15.762C148.916 15.51 149.696 15.384 150.668 15.384H153.458V16.878H150.83C150.062 16.878 149.546 17.004 149.282 17.256C149.018 17.496 148.886 17.796 148.886 18.156C148.886 18.564 149.048 18.888 149.372 19.128C149.696 19.368 150.146 19.488 150.722 19.488C151.274 19.488 151.766 19.362 152.198 19.11C152.642 18.858 152.96 18.486 153.152 17.994L153.53 19.344C153.314 19.908 152.924 20.346 152.36 20.658C151.808 20.97 151.106 21.126 150.254 21.126Z" fill="#BC0051"/>
<path d="M350 167L1 167" stroke="#A2C33D"/>
<path d="M4.168 159V136.6H14.184C16.7013 136.6 18.664 137.101 20.072 138.104C21.48 139.085 22.184 140.504 22.184 142.36C22.184 144.195 21.512 145.613 20.168 146.616C18.824 147.597 17.0533 148.088 14.856 148.088L15.432 146.936C17.928 146.936 19.8587 147.437 21.224 148.44C22.5893 149.443 23.272 150.893 23.272 152.792C23.272 154.733 22.5573 156.259 21.128 157.368C19.6987 158.456 17.5867 159 14.792 159H4.168ZM8.264 155.8H14.664C16.1147 155.8 17.2133 155.533 17.96 155C18.7067 154.445 19.08 153.603 19.08 152.472C19.08 151.341 18.7067 150.52 17.96 150.008C17.2133 149.475 16.1147 149.208 14.664 149.208H8.264V155.8ZM8.264 146.168H13.832C15.176 146.168 16.2 145.901 16.904 145.368C17.608 144.813 17.96 144.024 17.96 143C17.96 141.933 17.608 141.133 16.904 140.6C16.2 140.067 15.176 139.8 13.832 139.8H8.264V146.168ZM37.931 159V155.544L37.707 154.808V148.76C37.707 147.587 37.355 146.68 36.651 146.04C35.947 145.379 34.8803 145.048 33.451 145.048C32.491 145.048 31.5417 145.197 30.603 145.496C29.6857 145.795 28.907 146.211 28.267 146.744L26.699 143.832C27.6163 143.128 28.7043 142.605 29.963 142.264C31.243 141.901 32.5657 141.72 33.931 141.72C36.4057 141.72 38.315 142.317 39.659 143.512C41.0243 144.685 41.707 146.509 41.707 148.984V159H37.931ZM32.555 159.224C31.275 159.224 30.155 159.011 29.195 158.584C28.235 158.136 27.4883 157.528 26.955 156.76C26.443 155.971 26.187 155.085 26.187 154.104C26.187 153.144 26.411 152.28 26.859 151.512C27.3283 150.744 28.0857 150.136 29.131 149.688C30.1763 149.24 31.563 149.016 33.291 149.016H38.251V151.672H33.579C32.2137 151.672 31.2963 151.896 30.827 152.344C30.3577 152.771 30.123 153.304 30.123 153.944C30.123 154.669 30.411 155.245 30.987 155.672C31.563 156.099 32.363 156.312 33.387 156.312C34.3683 156.312 35.243 156.088 36.011 155.64C36.8003 155.192 37.3657 154.531 37.707 153.656L38.379 156.056C37.995 157.059 37.3017 157.837 36.299 158.392C35.3177 158.947 34.0697 159.224 32.555 159.224ZM58.1448 155.608L57.2808 156.568V141.912H61.2808V156.568L60.3208 155.608H68.7688L67.8408 156.568V141.912H71.8408V159H46.6568V141.912H50.6568V156.568L49.7288 155.608H58.1448ZM87.5873 159V155.544L87.3633 154.808V148.76C87.3633 147.587 87.0113 146.68 86.3073 146.04C85.6033 145.379 84.5366 145.048 83.1073 145.048C82.1473 145.048 81.1979 145.197 80.2593 145.496C79.3419 145.795 78.5633 146.211 77.9233 146.744L76.3553 143.832C77.2726 143.128 78.3606 142.605 79.6193 142.264C80.8993 141.901 82.2219 141.72 83.5873 141.72C86.0619 141.72 87.9713 142.317 89.3153 143.512C90.6806 144.685 91.3633 146.509 91.3633 148.984V159H87.5873ZM82.2113 159.224C80.9313 159.224 79.8113 159.011 78.8513 158.584C77.8913 158.136 77.1446 157.528 76.6113 156.76C76.0993 155.971 75.8433 155.085 75.8433 154.104C75.8433 153.144 76.0673 152.28 76.5153 151.512C76.9846 150.744 77.7419 150.136 78.7873 149.688C79.8326 149.24 81.2193 149.016 82.9473 149.016H87.9073V151.672H83.2353C81.8699 151.672 80.9526 151.896 80.4833 152.344C80.0139 152.771 79.7793 153.304 79.7793 153.944C79.7793 154.669 80.0673 155.245 80.6433 155.672C81.2193 156.099 82.0193 156.312 83.0433 156.312C84.0246 156.312 84.8993 156.088 85.6673 155.64C86.4566 155.192 87.0219 154.531 87.3633 153.656L88.0353 156.056C87.6513 157.059 86.9579 157.837 85.9553 158.392C84.9739 158.947 83.7259 159.224 82.2113 159.224ZM105.157 159V141.912H113.509C115.578 141.912 117.199 142.296 118.373 143.064C119.567 143.832 120.165 144.92 120.165 146.328C120.165 147.715 119.61 148.803 118.501 149.592C117.391 150.36 115.919 150.744 114.085 150.744L114.565 149.752C116.634 149.752 118.17 150.136 119.173 150.904C120.197 151.651 120.709 152.749 120.709 154.2C120.709 155.715 120.143 156.899 119.013 157.752C117.882 158.584 116.165 159 113.861 159H105.157ZM108.965 156.088H113.541C114.629 156.088 115.45 155.917 116.005 155.576C116.559 155.213 116.837 154.669 116.837 153.944C116.837 153.176 116.581 152.611 116.069 152.248C115.557 151.885 114.757 151.704 113.669 151.704H108.965V156.088ZM108.965 149.048H113.157C114.181 149.048 114.949 148.867 115.461 148.504C115.994 148.12 116.261 147.587 116.261 146.904C116.261 146.2 115.994 145.677 115.461 145.336C114.949 144.995 114.181 144.824 113.157 144.824H108.965V149.048ZM142.217 159V141.912H146.217V159H142.217ZM133.289 147.544C135.487 147.544 137.151 148.035 138.281 149.016C139.433 149.997 140.009 151.384 140.009 153.176C140.009 155.032 139.369 156.483 138.089 157.528C136.831 158.552 135.039 159.053 132.713 159.032L124.969 159V141.912H128.969V147.512L133.289 147.544ZM132.361 156.088C133.535 156.109 134.431 155.864 135.049 155.352C135.668 154.84 135.977 154.093 135.977 153.112C135.977 152.131 135.668 151.427 135.049 151C134.452 150.552 133.556 150.317 132.361 150.296L128.969 150.264V156.056L132.361 156.088ZM151.594 159V141.912H164.714V145.304H154.666L155.594 144.408V159H151.594ZM174.492 159.224C172.742 159.224 171.185 158.851 169.82 158.104C168.454 157.336 167.377 156.291 166.588 154.968C165.798 153.645 165.404 152.141 165.404 150.456C165.404 148.749 165.798 147.245 166.588 145.944C167.377 144.621 168.454 143.587 169.82 142.84C171.185 142.093 172.742 141.72 174.492 141.72C176.262 141.72 177.83 142.093 179.196 142.84C180.582 143.587 181.66 144.611 182.428 145.912C183.217 147.213 183.612 148.728 183.612 150.456C183.612 152.141 183.217 153.645 182.428 154.968C181.66 156.291 180.582 157.336 179.196 158.104C177.83 158.851 176.262 159.224 174.492 159.224ZM174.492 155.8C175.473 155.8 176.348 155.587 177.116 155.16C177.884 154.733 178.481 154.115 178.908 153.304C179.356 152.493 179.58 151.544 179.58 150.456C179.58 149.347 179.356 148.397 178.908 147.608C178.481 146.797 177.884 146.179 177.116 145.752C176.348 145.325 175.484 145.112 174.524 145.112C173.542 145.112 172.668 145.325 171.9 145.752C171.153 146.179 170.556 146.797 170.108 147.608C169.66 148.397 169.436 149.347 169.436 150.456C169.436 151.544 169.66 152.493 170.108 153.304C170.556 154.115 171.153 154.733 171.9 155.16C172.668 155.587 173.532 155.8 174.492 155.8ZM199.088 157.144V145.304H192.528L192.432 148.056C192.389 149.037 192.325 149.987 192.24 150.904C192.154 151.8 192.016 152.632 191.824 153.4C191.632 154.147 191.354 154.765 190.992 155.256C190.629 155.747 190.149 156.067 189.552 156.216L185.584 155.608C186.224 155.608 186.736 155.405 187.12 155C187.525 154.573 187.834 153.997 188.048 153.272C188.282 152.525 188.453 151.683 188.56 150.744C188.666 149.784 188.741 148.792 188.784 147.768L189.008 141.912H203.088V157.144H199.088ZM184.976 162.808V155.608H205.616V162.808H201.872V159H188.688V162.808H184.976ZM219.556 159V155.544L219.332 154.808V148.76C219.332 147.587 218.98 146.68 218.276 146.04C217.572 145.379 216.505 145.048 215.076 145.048C214.116 145.048 213.167 145.197 212.228 145.496C211.311 145.795 210.532 146.211 209.892 146.744L208.324 143.832C209.241 143.128 210.329 142.605 211.588 142.264C212.868 141.901 214.191 141.72 215.556 141.72C218.031 141.72 219.94 142.317 221.284 143.512C222.649 144.685 223.332 146.509 223.332 148.984V159H219.556ZM214.18 159.224C212.9 159.224 211.78 159.011 210.82 158.584C209.86 158.136 209.113 157.528 208.58 156.76C208.068 155.971 207.812 155.085 207.812 154.104C207.812 153.144 208.036 152.28 208.484 151.512C208.953 150.744 209.711 150.136 210.756 149.688C211.801 149.24 213.188 149.016 214.916 149.016H219.876V151.672H215.204C213.839 151.672 212.921 151.896 212.452 152.344C211.983 152.771 211.748 153.304 211.748 153.944C211.748 154.669 212.036 155.245 212.612 155.672C213.188 156.099 213.988 156.312 215.012 156.312C215.993 156.312 216.868 156.088 217.636 155.64C218.425 155.192 218.991 154.531 219.332 153.656L220.004 156.056C219.62 157.059 218.927 157.837 217.924 158.392C216.943 158.947 215.695 159.224 214.18 159.224Z" fill="#A2C33D"/>
<path d="M343.436 370V360.62L343.884 361.096H341.126V360.2H344.444V370H343.436ZM355.701 370V368.376L355.659 368.11V365.394C355.659 364.769 355.481 364.288 355.127 363.952C354.781 363.616 354.263 363.448 353.573 363.448C353.097 363.448 352.644 363.527 352.215 363.686C351.785 363.845 351.421 364.055 351.123 364.316L350.675 363.574C351.048 363.257 351.496 363.014 352.019 362.846C352.541 362.669 353.092 362.58 353.671 362.58C354.623 362.58 355.355 362.818 355.869 363.294C356.391 363.761 356.653 364.475 356.653 365.436V370H355.701ZM353.167 370.07C352.616 370.07 352.135 369.981 351.725 369.804C351.323 369.617 351.015 369.365 350.801 369.048C350.586 368.721 350.479 368.348 350.479 367.928C350.479 367.545 350.567 367.2 350.745 366.892C350.931 366.575 351.23 366.323 351.641 366.136C352.061 365.94 352.621 365.842 353.321 365.842H355.855V366.584H353.349C352.639 366.584 352.145 366.71 351.865 366.962C351.594 367.214 351.459 367.527 351.459 367.9C351.459 368.32 351.622 368.656 351.949 368.908C352.275 369.16 352.733 369.286 353.321 369.286C353.881 369.286 354.361 369.16 354.763 368.908C355.173 368.647 355.472 368.273 355.659 367.788L355.883 368.474C355.696 368.959 355.369 369.347 354.903 369.636C354.445 369.925 353.867 370.07 353.167 370.07ZM359.299 370V362.65H365.907V370H364.913V363.252L365.165 363.518H360.041L360.293 363.252V370H359.299ZM372.526 370.07C371.892 370.07 371.318 369.925 370.804 369.636C370.291 369.337 369.88 368.913 369.572 368.362C369.274 367.802 369.124 367.121 369.124 366.318C369.124 365.515 369.274 364.839 369.572 364.288C369.871 363.728 370.277 363.303 370.79 363.014C371.304 362.725 371.882 362.58 372.526 362.58C373.226 362.58 373.852 362.739 374.402 363.056C374.962 363.364 375.401 363.803 375.718 364.372C376.036 364.932 376.194 365.581 376.194 366.318C376.194 367.065 376.036 367.718 375.718 368.278C375.401 368.838 374.962 369.277 374.402 369.594C373.852 369.911 373.226 370.07 372.526 370.07ZM368.732 372.716V362.65H369.684V364.862L369.586 366.332L369.726 367.816V372.716H368.732ZM372.456 369.188C372.979 369.188 373.446 369.071 373.856 368.838C374.267 368.595 374.594 368.259 374.836 367.83C375.079 367.391 375.2 366.887 375.2 366.318C375.2 365.749 375.079 365.249 374.836 364.82C374.594 364.391 374.267 364.055 373.856 363.812C373.446 363.569 372.979 363.448 372.456 363.448C371.934 363.448 371.462 363.569 371.042 363.812C370.632 364.055 370.305 364.391 370.062 364.82C369.829 365.249 369.712 365.749 369.712 366.318C369.712 366.887 369.829 367.391 370.062 367.83C370.305 368.259 370.632 368.595 371.042 368.838C371.462 369.071 371.934 369.188 372.456 369.188ZM381.48 370.07C380.715 370.07 380.043 369.911 379.464 369.594C378.885 369.267 378.433 368.824 378.106 368.264C377.779 367.695 377.616 367.046 377.616 366.318C377.616 365.59 377.77 364.946 378.078 364.386C378.395 363.826 378.825 363.387 379.366 363.07C379.917 362.743 380.533 362.58 381.214 362.58C381.905 362.58 382.516 362.739 383.048 363.056C383.589 363.364 384.014 363.803 384.322 364.372C384.63 364.932 384.784 365.581 384.784 366.318C384.784 366.365 384.779 366.416 384.77 366.472C384.77 366.519 384.77 366.57 384.77 366.626H378.372V365.884H384.238L383.846 366.178C383.846 365.646 383.729 365.175 383.496 364.764C383.272 364.344 382.964 364.017 382.572 363.784C382.18 363.551 381.727 363.434 381.214 363.434C380.71 363.434 380.257 363.551 379.856 363.784C379.455 364.017 379.142 364.344 378.918 364.764C378.694 365.184 378.582 365.665 378.582 366.206V366.36C378.582 366.92 378.703 367.415 378.946 367.844C379.198 368.264 379.543 368.595 379.982 368.838C380.43 369.071 380.939 369.188 381.508 369.188C381.956 369.188 382.371 369.109 382.754 368.95C383.146 368.791 383.482 368.549 383.762 368.222L384.322 368.866C383.995 369.258 383.585 369.557 383.09 369.762C382.605 369.967 382.068 370.07 381.48 370.07ZM385.49 369.986L385.56 369.132C385.625 369.141 385.686 369.155 385.742 369.174C385.807 369.183 385.863 369.188 385.91 369.188C386.209 369.188 386.447 369.076 386.624 368.852C386.811 368.628 386.951 368.329 387.044 367.956C387.137 367.583 387.203 367.163 387.24 366.696C387.277 366.22 387.31 365.744 387.338 365.268L387.464 362.65H392.854V370H391.86V363.224L392.112 363.518H388.108L388.346 363.21L388.234 365.338C388.206 365.973 388.155 366.579 388.08 367.158C388.015 367.737 387.907 368.245 387.758 368.684C387.618 369.123 387.422 369.468 387.17 369.72C386.918 369.963 386.596 370.084 386.204 370.084C386.092 370.084 385.975 370.075 385.854 370.056C385.742 370.037 385.621 370.014 385.49 369.986ZM400.426 370V367.354L400.608 367.564H398.116C397.173 367.564 396.436 367.359 395.904 366.948C395.372 366.537 395.106 365.94 395.106 365.156C395.106 364.316 395.39 363.691 395.96 363.28C396.529 362.86 397.29 362.65 398.242 362.65H401.336V370H400.426ZM395.05 370L397.066 367.172H398.102L396.128 370H395.05ZM400.426 367.06V363.224L400.608 363.518H398.27C397.588 363.518 397.056 363.649 396.674 363.91C396.3 364.171 396.114 364.596 396.114 365.184C396.114 366.276 396.809 366.822 398.2 366.822H400.608L400.426 367.06Z" fill="#313131"/>
<path d="M851.654 370.084C850.945 370.084 850.273 369.972 849.638 369.748C849.013 369.515 848.509 369.207 848.126 368.824L848.616 368.026C848.933 368.353 849.358 368.623 849.89 368.838C850.431 369.053 851.019 369.16 851.654 369.16C852.466 369.16 853.087 368.983 853.516 368.628C853.955 368.273 854.174 367.797 854.174 367.2C854.174 366.603 853.959 366.127 853.53 365.772C853.11 365.417 852.443 365.24 851.528 365.24H850.828V364.498L853.852 360.704L853.992 361.096H848.532V360.2H854.832V360.914L851.808 364.708L851.318 364.386H851.696C852.872 364.386 853.749 364.647 854.328 365.17C854.916 365.693 855.21 366.365 855.21 367.186C855.21 367.737 855.079 368.231 854.818 368.67C854.557 369.109 854.16 369.454 853.628 369.706C853.105 369.958 852.447 370.084 851.654 370.084ZM860.536 370.084C859.78 370.084 859.108 369.888 858.52 369.496C857.932 369.095 857.47 368.525 857.134 367.788C856.798 367.041 856.63 366.145 856.63 365.1C856.63 364.055 856.798 363.163 857.134 362.426C857.47 361.679 857.932 361.11 858.52 360.718C859.108 360.317 859.78 360.116 860.536 360.116C861.292 360.116 861.964 360.317 862.552 360.718C863.14 361.11 863.602 361.679 863.938 362.426C864.284 363.163 864.456 364.055 864.456 365.1C864.456 366.145 864.284 367.041 863.938 367.788C863.602 368.525 863.14 369.095 862.552 369.496C861.964 369.888 861.292 370.084 860.536 370.084ZM860.536 369.16C861.115 369.16 861.619 369.006 862.048 368.698C862.478 368.381 862.814 367.923 863.056 367.326C863.299 366.719 863.42 365.977 863.42 365.1C863.42 364.223 863.299 363.485 863.056 362.888C862.814 362.281 862.478 361.824 862.048 361.516C861.619 361.199 861.115 361.04 860.536 361.04C859.976 361.04 859.477 361.199 859.038 361.516C858.6 361.824 858.259 362.281 858.016 362.888C857.774 363.485 857.652 364.223 857.652 365.1C857.652 365.977 857.774 366.719 858.016 367.326C858.259 367.923 858.6 368.381 859.038 368.698C859.477 369.006 859.976 369.16 860.536 369.16ZM874.814 370V368.376L874.772 368.11V365.394C874.772 364.769 874.595 364.288 874.24 363.952C873.895 363.616 873.377 363.448 872.686 363.448C872.21 363.448 871.757 363.527 871.328 363.686C870.899 363.845 870.535 364.055 870.236 364.316L869.788 363.574C870.161 363.257 870.609 363.014 871.132 362.846C871.655 362.669 872.205 362.58 872.784 362.58C873.736 362.58 874.469 362.818 874.982 363.294C875.505 363.761 875.766 364.475 875.766 365.436V370H874.814ZM872.28 370.07C871.729 370.07 871.249 369.981 870.838 369.804C870.437 369.617 870.129 369.365 869.914 369.048C869.699 368.721 869.592 368.348 869.592 367.928C869.592 367.545 869.681 367.2 869.858 366.892C870.045 366.575 870.343 366.323 870.754 366.136C871.174 365.94 871.734 365.842 872.434 365.842H874.968V366.584H872.462C871.753 366.584 871.258 366.71 870.978 366.962C870.707 367.214 870.572 367.527 870.572 367.9C870.572 368.32 870.735 368.656 871.062 368.908C871.389 369.16 871.846 369.286 872.434 369.286C872.994 369.286 873.475 369.16 873.876 368.908C874.287 368.647 874.585 368.273 874.772 367.788L874.996 368.474C874.809 368.959 874.483 369.347 874.016 369.636C873.559 369.925 872.98 370.07 872.28 370.07ZM878.412 370V362.65H885.02V370H884.026V363.252L884.278 363.518H879.154L879.406 363.252V370H878.412ZM891.64 370.07C891.005 370.07 890.431 369.925 889.918 369.636C889.404 369.337 888.994 368.913 888.686 368.362C888.387 367.802 888.238 367.121 888.238 366.318C888.238 365.515 888.387 364.839 888.686 364.288C888.984 363.728 889.39 363.303 889.904 363.014C890.417 362.725 890.996 362.58 891.64 362.58C892.34 362.58 892.965 362.739 893.516 363.056C894.076 363.364 894.514 363.803 894.832 364.372C895.149 364.932 895.308 365.581 895.308 366.318C895.308 367.065 895.149 367.718 894.832 368.278C894.514 368.838 894.076 369.277 893.516 369.594C892.965 369.911 892.34 370.07 891.64 370.07ZM887.846 372.716V362.65H888.798V364.862L888.7 366.332L888.84 367.816V372.716H887.846ZM891.57 369.188C892.092 369.188 892.559 369.071 892.97 368.838C893.38 368.595 893.707 368.259 893.95 367.83C894.192 367.391 894.314 366.887 894.314 366.318C894.314 365.749 894.192 365.249 893.95 364.82C893.707 364.391 893.38 364.055 892.97 363.812C892.559 363.569 892.092 363.448 891.57 363.448C891.047 363.448 890.576 363.569 890.156 363.812C889.745 364.055 889.418 364.391 889.176 364.82C888.942 365.249 888.826 365.749 888.826 366.318C888.826 366.887 888.942 367.391 889.176 367.83C889.418 368.259 889.745 368.595 890.156 368.838C890.576 369.071 891.047 369.188 891.57 369.188ZM900.593 370.07C899.828 370.07 899.156 369.911 898.577 369.594C897.999 369.267 897.546 368.824 897.219 368.264C896.893 367.695 896.729 367.046 896.729 366.318C896.729 365.59 896.883 364.946 897.191 364.386C897.509 363.826 897.938 363.387 898.479 363.07C899.03 362.743 899.646 362.58 900.327 362.58C901.018 362.58 901.629 362.739 902.161 363.056C902.703 363.364 903.127 363.803 903.435 364.372C903.743 364.932 903.897 365.581 903.897 366.318C903.897 366.365 903.893 366.416 903.883 366.472C903.883 366.519 903.883 366.57 903.883 366.626H897.485V365.884H903.351L902.959 366.178C902.959 365.646 902.843 365.175 902.609 364.764C902.385 364.344 902.077 364.017 901.685 363.784C901.293 363.551 900.841 363.434 900.327 363.434C899.823 363.434 899.371 363.551 898.969 363.784C898.568 364.017 898.255 364.344 898.031 364.764C897.807 365.184 897.695 365.665 897.695 366.206V366.36C897.695 366.92 897.817 367.415 898.059 367.844C898.311 368.264 898.657 368.595 899.095 368.838C899.543 369.071 900.052 369.188 900.621 369.188C901.069 369.188 901.485 369.109 901.867 368.95C902.259 368.791 902.595 368.549 902.875 368.222L903.435 368.866C903.109 369.258 902.698 369.557 902.203 369.762C901.718 369.967 901.181 370.07 900.593 370.07ZM904.603 369.986L904.673 369.132C904.739 369.141 904.799 369.155 904.855 369.174C904.921 369.183 904.977 369.188 905.023 369.188C905.322 369.188 905.56 369.076 905.737 368.852C905.924 368.628 906.064 368.329 906.157 367.956C906.251 367.583 906.316 367.163 906.353 366.696C906.391 366.22 906.423 365.744 906.451 365.268L906.577 362.65H911.967V370H910.973V363.224L911.225 363.518H907.221L907.459 363.21L907.347 365.338C907.319 365.973 907.268 366.579 907.193 367.158C907.128 367.737 907.021 368.245 906.871 368.684C906.731 369.123 906.535 369.468 906.283 369.72C906.031 369.963 905.709 370.084 905.317 370.084C905.205 370.084 905.089 370.075 904.967 370.056C904.855 370.037 904.734 370.014 904.603 369.986ZM919.539 370V367.354L919.721 367.564H917.229C916.286 367.564 915.549 367.359 915.017 366.948C914.485 366.537 914.219 365.94 914.219 365.156C914.219 364.316 914.504 363.691 915.073 363.28C915.642 362.86 916.403 362.65 917.355 362.65H920.449V370H919.539ZM914.163 370L916.179 367.172H917.215L915.241 370H914.163ZM919.539 367.06V363.224L919.721 363.518H917.383C916.702 363.518 916.17 363.649 915.787 363.91C915.414 364.171 915.227 364.596 915.227 365.184C915.227 366.276 915.922 366.822 917.313 366.822H919.721L919.539 367.06Z" fill="#313131"/>
<path d="M592.436 370V360.62L592.884 361.096H590.126V360.2H593.444V370H592.436ZM598.881 370.084C598.181 370.084 597.513 369.972 596.879 369.748C596.244 369.515 595.74 369.207 595.367 368.824L595.857 368.026C596.165 368.353 596.585 368.623 597.117 368.838C597.658 369.053 598.241 369.16 598.867 369.16C599.697 369.16 600.327 368.978 600.757 368.614C601.195 368.241 601.415 367.755 601.415 367.158C601.415 366.738 601.312 366.379 601.107 366.08C600.911 365.772 600.575 365.534 600.099 365.366C599.623 365.198 598.969 365.114 598.139 365.114H596.053L596.557 360.2H601.919V361.096H596.963L597.481 360.606L597.047 364.722L596.529 364.218H598.363C599.352 364.218 600.145 364.339 600.743 364.582C601.34 364.825 601.769 365.165 602.031 365.604C602.301 366.033 602.437 366.537 602.437 367.116C602.437 367.667 602.306 368.171 602.045 368.628C601.783 369.076 601.391 369.431 600.869 369.692C600.346 369.953 599.683 370.084 598.881 370.084ZM612.63 370V368.376L612.588 368.11V365.394C612.588 364.769 612.411 364.288 612.056 363.952C611.711 363.616 611.193 363.448 610.502 363.448C610.026 363.448 609.574 363.527 609.144 363.686C608.715 363.845 608.351 364.055 608.052 364.316L607.604 363.574C607.978 363.257 608.426 363.014 608.948 362.846C609.471 362.669 610.022 362.58 610.6 362.58C611.552 362.58 612.285 362.818 612.798 363.294C613.321 363.761 613.582 364.475 613.582 365.436V370H612.63ZM610.096 370.07C609.546 370.07 609.065 369.981 608.654 369.804C608.253 369.617 607.945 369.365 607.73 369.048C607.516 368.721 607.408 368.348 607.408 367.928C607.408 367.545 607.497 367.2 607.674 366.892C607.861 366.575 608.16 366.323 608.57 366.136C608.99 365.94 609.55 365.842 610.25 365.842H612.784V366.584H610.278C609.569 366.584 609.074 366.71 608.794 366.962C608.524 367.214 608.388 367.527 608.388 367.9C608.388 368.32 608.552 368.656 608.878 368.908C609.205 369.16 609.662 369.286 610.25 369.286C610.81 369.286 611.291 369.16 611.692 368.908C612.103 368.647 612.402 368.273 612.588 367.788L612.812 368.474C612.626 368.959 612.299 369.347 611.832 369.636C611.375 369.925 610.796 370.07 610.096 370.07ZM616.228 370V362.65H622.836V370H621.842V363.252L622.094 363.518H616.97L617.222 363.252V370H616.228ZM629.456 370.07C628.821 370.07 628.247 369.925 627.734 369.636C627.221 369.337 626.81 368.913 626.502 368.362C626.203 367.802 626.054 367.121 626.054 366.318C626.054 365.515 626.203 364.839 626.502 364.288C626.801 363.728 627.207 363.303 627.72 363.014C628.233 362.725 628.812 362.58 629.456 362.58C630.156 362.58 630.781 362.739 631.332 363.056C631.892 363.364 632.331 363.803 632.648 364.372C632.965 364.932 633.124 365.581 633.124 366.318C633.124 367.065 632.965 367.718 632.648 368.278C632.331 368.838 631.892 369.277 631.332 369.594C630.781 369.911 630.156 370.07 629.456 370.07ZM625.662 372.716V362.65H626.614V364.862L626.516 366.332L626.656 367.816V372.716H625.662ZM629.386 369.188C629.909 369.188 630.375 369.071 630.786 368.838C631.197 368.595 631.523 368.259 631.766 367.83C632.009 367.391 632.13 366.887 632.13 366.318C632.13 365.749 632.009 365.249 631.766 364.82C631.523 364.391 631.197 364.055 630.786 363.812C630.375 363.569 629.909 363.448 629.386 363.448C628.863 363.448 628.392 363.569 627.972 363.812C627.561 364.055 627.235 364.391 626.992 364.82C626.759 365.249 626.642 365.749 626.642 366.318C626.642 366.887 626.759 367.391 626.992 367.83C627.235 368.259 627.561 368.595 627.972 368.838C628.392 369.071 628.863 369.188 629.386 369.188ZM638.41 370.07C637.644 370.07 636.972 369.911 636.394 369.594C635.815 369.267 635.362 368.824 635.036 368.264C634.709 367.695 634.546 367.046 634.546 366.318C634.546 365.59 634.7 364.946 635.008 364.386C635.325 363.826 635.754 363.387 636.296 363.07C636.846 362.743 637.462 362.58 638.144 362.58C638.834 362.58 639.446 362.739 639.978 363.056C640.519 363.364 640.944 363.803 641.252 364.372C641.56 364.932 641.714 365.581 641.714 366.318C641.714 366.365 641.709 366.416 641.7 366.472C641.7 366.519 641.7 366.57 641.7 366.626H635.302V365.884H641.168L640.776 366.178C640.776 365.646 640.659 365.175 640.426 364.764C640.202 364.344 639.894 364.017 639.502 363.784C639.11 363.551 638.657 363.434 638.144 363.434C637.64 363.434 637.187 363.551 636.786 363.784C636.384 364.017 636.072 364.344 635.848 364.764C635.624 365.184 635.512 365.665 635.512 366.206V366.36C635.512 366.92 635.633 367.415 635.876 367.844C636.128 368.264 636.473 368.595 636.912 368.838C637.36 369.071 637.868 369.188 638.438 369.188C638.886 369.188 639.301 369.109 639.684 368.95C640.076 368.791 640.412 368.549 640.692 368.222L641.252 368.866C640.925 369.258 640.514 369.557 640.02 369.762C639.534 369.967 638.998 370.07 638.41 370.07ZM642.42 369.986L642.49 369.132C642.555 369.141 642.616 369.155 642.672 369.174C642.737 369.183 642.793 369.188 642.84 369.188C643.138 369.188 643.376 369.076 643.554 368.852C643.74 368.628 643.88 368.329 643.974 367.956C644.067 367.583 644.132 367.163 644.17 366.696C644.207 366.22 644.24 365.744 644.268 365.268L644.394 362.65H649.784V370H648.79V363.224L649.042 363.518H645.038L645.276 363.21L645.164 365.338C645.136 365.973 645.084 366.579 645.01 367.158C644.944 367.737 644.837 368.245 644.688 368.684C644.548 369.123 644.352 369.468 644.1 369.72C643.848 369.963 643.526 370.084 643.134 370.084C643.022 370.084 642.905 370.075 642.784 370.056C642.672 370.037 642.55 370.014 642.42 369.986ZM657.355 370V367.354L657.537 367.564H655.045C654.103 367.564 653.365 367.359 652.833 366.948C652.301 366.537 652.035 365.94 652.035 365.156C652.035 364.316 652.32 363.691 652.889 363.28C653.459 362.86 654.219 362.65 655.171 362.65H658.265V370H657.355ZM651.979 370L653.995 367.172H655.031L653.057 370H651.979ZM657.355 367.06V363.224L657.537 363.518H655.199C654.518 363.518 653.986 363.649 653.603 363.91C653.23 364.171 653.043 364.596 653.043 365.184C653.043 366.276 653.739 366.822 655.129 366.822H657.537L657.355 367.06Z" fill="#313131"/>
</svg>
