<svg width="689" height="375" viewBox="0 0 689 375" fill="none" xmlns="http://www.w3.org/2000/svg">
<rect x="687" y="349" width="20" height="320" transform="rotate(180 687 349)" fill="#BC0051"/>
<rect x="660" y="349" width="20" height="266" transform="rotate(180 660 349)" fill="#214B33"/>
<rect x="633" y="349" width="20" height="254" transform="rotate(180 633 349)" fill="#A2C33D" fill-opacity="0.4"/>
<rect x="606" y="349" width="20" height="248" transform="rotate(180 606 349)" fill="#A2C33D" fill-opacity="0.4"/>
<rect x="579" y="349" width="20" height="240" transform="rotate(180 579 349)" fill="#A2C33D" fill-opacity="0.4"/>
<rect x="552" y="349" width="20" height="226" transform="rotate(180 552 349)" fill="#A2C33D" fill-opacity="0.4"/>
<rect x="525" y="349" width="20" height="220" transform="rotate(180 525 349)" fill="#A2C33D" fill-opacity="0.4"/>
<rect x="498" y="349" width="20" height="200" transform="rotate(180 498 349)" fill="#A2C33D" fill-opacity="0.4"/>
<rect x="471" y="349" width="20" height="196" transform="rotate(180 471 349)" fill="#A2C33D" fill-opacity="0.4"/>
<rect x="444" y="349" width="20" height="184" transform="rotate(180 444 349)" fill="#A2C33D" fill-opacity="0.4"/>
<rect x="417" y="349" width="20" height="184" transform="rotate(180 417 349)" fill="#A2C33D" fill-opacity="0.4"/>
<rect x="390" y="349" width="20" height="176" transform="rotate(180 390 349)" fill="#A2C33D" fill-opacity="0.4"/>
<rect x="363" y="349" width="20" height="172" transform="rotate(180 363 349)" fill="#A2C33D" fill-opacity="0.4"/>
<rect x="336" y="349" width="20" height="172" transform="rotate(180 336 349)" fill="#A2C33D" fill-opacity="0.4"/>
<rect x="309" y="349" width="20" height="152" transform="rotate(180 309 349)" fill="#A2C33D" fill-opacity="0.4"/>
<rect x="282" y="349" width="20" height="144" transform="rotate(180 282 349)" fill="#A2C33D" fill-opacity="0.4"/>
<rect x="255" y="349" width="20" height="140" transform="rotate(180 255 349)" fill="#A2C33D" fill-opacity="0.4"/>
<rect x="228" y="349" width="20" height="126" transform="rotate(180 228 349)" fill="#A2C33D" fill-opacity="0.4"/>
<rect x="201" y="349" width="20" height="120" transform="rotate(180 201 349)" fill="#A2C33D" fill-opacity="0.4"/>
<rect x="174" y="349" width="20" height="100" transform="rotate(180 174 349)" fill="#A2C33D"/>
<path d="M164 84V248.5" stroke="#A2C33D" stroke-width="20" stroke-dasharray="10 10"/>
<path d="M7.744 246V239.76L8.152 240.864L1.024 229.2H2.92L9.184 239.448H8.176L14.44 229.2H16.216L9.088 240.864L9.496 239.76V246H7.744ZM22.3167 246.12C21.1007 246.12 20.0047 245.848 19.0287 245.304C18.0687 244.744 17.3087 243.984 16.7487 243.024C16.1887 242.048 15.9087 240.936 15.9087 239.688C15.9087 238.424 16.1887 237.312 16.7487 236.352C17.3087 235.392 18.0687 234.64 19.0287 234.096C19.9887 233.552 21.0847 233.28 22.3167 233.28C23.5647 233.28 24.6687 233.552 25.6287 234.096C26.6047 234.64 27.3647 235.392 27.9087 236.352C28.4687 237.312 28.7487 238.424 28.7487 239.688C28.7487 240.936 28.4687 242.048 27.9087 243.024C27.3647 243.984 26.6047 244.744 25.6287 245.304C24.6527 245.848 23.5487 246.12 22.3167 246.12ZM22.3167 244.608C23.2287 244.608 24.0367 244.408 24.7407 244.008C25.4447 243.592 25.9967 243.016 26.3967 242.28C26.8127 241.528 27.0207 240.664 27.0207 239.688C27.0207 238.696 26.8127 237.832 26.3967 237.096C25.9967 236.36 25.4447 235.792 24.7407 235.392C24.0367 234.976 23.2367 234.768 22.3407 234.768C21.4447 234.768 20.6447 234.976 19.9407 235.392C19.2367 235.792 18.6767 236.36 18.2607 237.096C17.8447 237.832 17.6367 238.696 17.6367 239.688C17.6367 240.664 17.8447 241.528 18.2607 242.28C18.6767 243.016 19.2367 243.592 19.9407 244.008C20.6447 244.408 21.4367 244.608 22.3167 244.608ZM37.4356 246.12C36.3636 246.12 35.4276 245.92 34.6276 245.52C33.8276 245.12 33.2036 244.52 32.7556 243.72C32.3236 242.92 32.1076 241.92 32.1076 240.72V233.4H33.8116V240.528C33.8116 241.872 34.1396 242.888 34.7956 243.576C35.4676 244.248 36.4036 244.584 37.6036 244.584C38.4836 244.584 39.2436 244.408 39.8836 244.056C40.5396 243.688 41.0356 243.16 41.3716 242.472C41.7236 241.784 41.8996 240.96 41.8996 240V233.4H43.6036V246H41.9716V242.544L42.2356 243.168C41.8356 244.096 41.2116 244.824 40.3636 245.352C39.5316 245.864 38.5556 246.12 37.4356 246.12ZM61.1378 246.12C60.0338 246.12 59.0418 245.872 58.1618 245.376C57.2818 244.864 56.5858 244.128 56.0738 243.168C55.5618 242.208 55.3058 241.048 55.3058 239.688C55.3058 238.312 55.5618 237.152 56.0738 236.208C56.6018 235.248 57.3058 234.52 58.1858 234.024C59.0658 233.528 60.0498 233.28 61.1378 233.28C62.3378 233.28 63.4098 233.552 64.3538 234.096C65.3138 234.624 66.0658 235.368 66.6098 236.328C67.1538 237.288 67.4258 238.408 67.4258 239.688C67.4258 240.952 67.1538 242.072 66.6098 243.048C66.0658 244.008 65.3138 244.76 64.3538 245.304C63.4098 245.848 62.3378 246.12 61.1378 246.12ZM54.6338 246V228.192H56.3378V237.12L56.0978 239.664L56.2658 242.208V246H54.6338ZM61.0178 244.608C61.9138 244.608 62.7138 244.408 63.4178 244.008C64.1218 243.592 64.6818 243.016 65.0978 242.28C65.5138 241.528 65.7218 240.664 65.7218 239.688C65.7218 238.696 65.5138 237.832 65.0978 237.096C64.6818 236.36 64.1218 235.792 63.4178 235.392C62.7138 234.976 61.9138 234.768 61.0178 234.768C60.1218 234.768 59.3138 234.976 58.5938 235.392C57.8898 235.792 57.3298 236.36 56.9138 237.096C56.5138 237.832 56.3138 238.696 56.3138 239.688C56.3138 240.664 56.5138 241.528 56.9138 242.28C57.3298 243.016 57.8898 243.592 58.5938 244.008C59.3138 244.408 60.1218 244.608 61.0178 244.608ZM76.1074 246.12C75.0354 246.12 74.0994 245.92 73.2994 245.52C72.4994 245.12 71.8754 244.52 71.4274 243.72C70.9954 242.92 70.7794 241.92 70.7794 240.72V233.4H72.4834V240.528C72.4834 241.872 72.8114 242.888 73.4674 243.576C74.1394 244.248 75.0754 244.584 76.2754 244.584C77.1554 244.584 77.9154 244.408 78.5554 244.056C79.2114 243.688 79.7074 243.16 80.0434 242.472C80.3954 241.784 80.5714 240.96 80.5714 240V233.4H82.2754V246H80.6434V242.544L80.9074 243.168C80.5074 244.096 79.8834 244.824 79.0354 245.352C78.2034 245.864 77.2274 246.12 76.1074 246.12ZM87.1204 250.776C86.5284 250.776 85.9604 250.68 85.4164 250.488C84.8884 250.296 84.4324 250.008 84.0484 249.624L84.8404 248.352C85.1604 248.656 85.5044 248.888 85.8724 249.048C86.2564 249.224 86.6804 249.312 87.1444 249.312C87.7044 249.312 88.1844 249.152 88.5844 248.832C89.0004 248.528 89.3924 247.984 89.7604 247.2L90.5764 245.352L90.7684 245.088L95.9524 233.4H97.6324L91.3204 247.512C90.9684 248.328 90.5764 248.976 90.1444 249.456C89.7284 249.936 89.2724 250.272 88.7764 250.464C88.2804 250.672 87.7284 250.776 87.1204 250.776ZM90.4804 246.36L84.6724 233.4H86.4484L91.5844 244.968L90.4804 246.36ZM3.664 286V271.816C3.664 270.696 3.992 269.792 4.648 269.104C5.304 268.416 6.248 268.072 7.48 268.072C7.96 268.072 8.424 268.136 8.872 268.264C9.32 268.392 9.696 268.592 10 268.864L9.424 270.136C9.184 269.928 8.904 269.776 8.584 269.68C8.264 269.568 7.92 269.512 7.552 269.512C6.832 269.512 6.28 269.712 5.896 270.112C5.512 270.512 5.32 271.104 5.32 271.888V273.808L5.368 274.6V286H3.664ZM1.408 274.816V273.4H9.208V274.816H1.408ZM16.7168 286.12C15.6448 286.12 14.7088 285.92 13.9088 285.52C13.1088 285.12 12.4848 284.52 12.0368 283.72C11.6048 282.92 11.3888 281.92 11.3888 280.72V273.4H13.0928V280.528C13.0928 281.872 13.4208 282.888 14.0768 283.576C14.7488 284.248 15.6848 284.584 16.8848 284.584C17.7648 284.584 18.5248 284.408 19.1648 284.056C19.8208 283.688 20.3168 283.16 20.6528 282.472C21.0048 281.784 21.1808 280.96 21.1808 280V273.4H22.8848V286H21.2528V282.544L21.5168 283.168C21.1168 284.096 20.4928 284.824 19.6448 285.352C18.8128 285.864 17.8368 286.12 16.7168 286.12ZM31.6178 286.12C30.4338 286.12 29.5218 285.8 28.8818 285.16C28.2418 284.52 27.9218 283.616 27.9218 282.448V270.616H29.6258V282.352C29.6258 283.088 29.8098 283.656 30.1778 284.056C30.5618 284.456 31.1058 284.656 31.8098 284.656C32.5618 284.656 33.1858 284.44 33.6818 284.008L34.2818 285.232C33.9458 285.536 33.5378 285.76 33.0578 285.904C32.5938 286.048 32.1138 286.12 31.6178 286.12ZM25.6658 274.816V273.4H33.4658V274.816H25.6658ZM42.5918 286.12C41.5198 286.12 40.5838 285.92 39.7838 285.52C38.9838 285.12 38.3598 284.52 37.9118 283.72C37.4798 282.92 37.2638 281.92 37.2638 280.72V273.4H38.9678V280.528C38.9678 281.872 39.2958 282.888 39.9518 283.576C40.6238 284.248 41.5598 284.584 42.7598 284.584C43.6398 284.584 44.3998 284.408 45.0398 284.056C45.6958 283.688 46.1918 283.16 46.5278 282.472C46.8798 281.784 47.0558 280.96 47.0558 280V273.4H48.7598V286H47.1278V282.544L47.3918 283.168C46.9918 284.096 46.3678 284.824 45.5198 285.352C44.6878 285.864 43.7118 286.12 42.5918 286.12ZM53.5088 286V273.4H55.1408V276.832L54.9728 276.232C55.3248 275.272 55.9168 274.544 56.7488 274.048C57.5808 273.536 58.6128 273.28 59.8448 273.28V274.936C59.7808 274.936 59.7168 274.936 59.6528 274.936C59.5888 274.92 59.5248 274.912 59.4608 274.912C58.1328 274.912 57.0928 275.32 56.3408 276.136C55.5888 276.936 55.2128 278.08 55.2128 279.568V286H53.5088ZM68.1889 286.12C66.8769 286.12 65.7249 285.848 64.7329 285.304C63.7409 284.744 62.9649 283.984 62.4049 283.024C61.8449 282.048 61.5649 280.936 61.5649 279.688C61.5649 278.44 61.8289 277.336 62.3569 276.376C62.9009 275.416 63.6369 274.664 64.5649 274.12C65.5089 273.56 66.5649 273.28 67.7329 273.28C68.9169 273.28 69.9649 273.552 70.8769 274.096C71.8049 274.624 72.5329 275.376 73.0609 276.352C73.5889 277.312 73.8529 278.424 73.8529 279.688C73.8529 279.768 73.8449 279.856 73.8289 279.952C73.8289 280.032 73.8289 280.12 73.8289 280.216H62.8609V278.944H72.9169L72.2449 279.448C72.2449 278.536 72.0449 277.728 71.6449 277.024C71.2609 276.304 70.7329 275.744 70.0609 275.344C69.3889 274.944 68.6129 274.744 67.7329 274.744C66.8689 274.744 66.0929 274.944 65.4049 275.344C64.7169 275.744 64.1809 276.304 63.7969 277.024C63.4129 277.744 63.2209 278.568 63.2209 279.496V279.76C63.2209 280.72 63.4289 281.568 63.8449 282.304C64.2769 283.024 64.8689 283.592 65.6209 284.008C66.3889 284.408 67.2609 284.608 68.2369 284.608C69.0049 284.608 69.7169 284.472 70.3729 284.2C71.0449 283.928 71.6209 283.512 72.1009 282.952L73.0609 284.056C72.5009 284.728 71.7969 285.24 70.9489 285.592C70.1169 285.944 69.1969 286.12 68.1889 286.12ZM80.7053 286.12C79.6653 286.12 78.6813 285.976 77.7533 285.688C76.8253 285.384 76.0973 285.008 75.5693 284.56L76.3373 283.216C76.8493 283.6 77.5053 283.936 78.3053 284.224C79.1053 284.496 79.9453 284.632 80.8253 284.632C82.0253 284.632 82.8893 284.448 83.4173 284.08C83.9453 283.696 84.2093 283.192 84.2093 282.568C84.2093 282.104 84.0573 281.744 83.7533 281.488C83.4653 281.216 83.0813 281.016 82.6013 280.888C82.1213 280.744 81.5853 280.624 80.9933 280.528C80.4013 280.432 79.8093 280.32 79.2173 280.192C78.6413 280.064 78.1133 279.88 77.6333 279.64C77.1533 279.384 76.7613 279.04 76.4573 278.608C76.1693 278.176 76.0253 277.6 76.0253 276.88C76.0253 276.192 76.2173 275.576 76.6013 275.032C76.9853 274.488 77.5453 274.064 78.2813 273.76C79.0333 273.44 79.9453 273.28 81.0173 273.28C81.8333 273.28 82.6493 273.392 83.4653 273.616C84.2813 273.824 84.9533 274.104 85.4813 274.456L84.7373 275.824C84.1773 275.44 83.5773 275.168 82.9373 275.008C82.2973 274.832 81.6573 274.744 81.0173 274.744C79.8813 274.744 79.0413 274.944 78.4973 275.344C77.9693 275.728 77.7053 276.224 77.7053 276.832C77.7053 277.312 77.8493 277.688 78.1373 277.96C78.4413 278.232 78.8333 278.448 79.3133 278.608C79.8093 278.752 80.3453 278.872 80.9213 278.968C81.5133 279.064 82.0973 279.184 82.6733 279.328C83.2653 279.456 83.8013 279.64 84.2813 279.88C84.7773 280.104 85.1693 280.432 85.4573 280.864C85.7613 281.28 85.9133 281.832 85.9133 282.52C85.9133 283.256 85.7053 283.896 85.2893 284.44C84.8893 284.968 84.2973 285.384 83.5133 285.688C82.7453 285.976 81.8093 286.12 80.7053 286.12ZM103.217 286V283.216L103.145 282.76V278.104C103.145 277.032 102.841 276.208 102.233 275.632C101.641 275.056 100.753 274.768 99.5693 274.768C98.7533 274.768 97.9773 274.904 97.2413 275.176C96.5053 275.448 95.8813 275.808 95.3693 276.256L94.6013 274.984C95.2413 274.44 96.0093 274.024 96.9053 273.736C97.8013 273.432 98.7453 273.28 99.7373 273.28C101.369 273.28 102.625 273.688 103.505 274.504C104.401 275.304 104.849 276.528 104.849 278.176V286H103.217ZM98.8733 286.12C97.9293 286.12 97.1053 285.968 96.4013 285.664C95.7133 285.344 95.1853 284.912 94.8173 284.368C94.4493 283.808 94.2653 283.168 94.2653 282.448C94.2653 281.792 94.4173 281.2 94.7213 280.672C95.0413 280.128 95.5533 279.696 96.2573 279.376C96.9773 279.04 97.9373 278.872 99.1373 278.872H103.481V280.144H99.1853C97.9693 280.144 97.1213 280.36 96.6413 280.792C96.1773 281.224 95.9453 281.76 95.9453 282.4C95.9453 283.12 96.2253 283.696 96.7853 284.128C97.3453 284.56 98.1293 284.776 99.1373 284.776C100.097 284.776 100.921 284.56 101.609 284.128C102.313 283.68 102.825 283.04 103.145 282.208L103.529 283.384C103.209 284.216 102.649 284.88 101.849 285.376C101.065 285.872 100.073 286.12 98.8733 286.12ZM113.462 286.12C112.278 286.12 111.366 285.8 110.726 285.16C110.086 284.52 109.766 283.616 109.766 282.448V270.616H111.47V282.352C111.47 283.088 111.654 283.656 112.022 284.056C112.406 284.456 112.95 284.656 113.654 284.656C114.406 284.656 115.03 284.44 115.526 284.008L116.126 285.232C115.79 285.536 115.382 285.76 114.902 285.904C114.438 286.048 113.958 286.12 113.462 286.12ZM107.51 274.816V273.4H115.31V274.816H107.51ZM7.36 326.12C6.176 326.12 5.264 325.8 4.624 325.16C3.984 324.52 3.664 323.616 3.664 322.448V310.616H5.368V322.352C5.368 323.088 5.552 323.656 5.92 324.056C6.304 324.456 6.848 324.656 7.552 324.656C8.304 324.656 8.928 324.44 9.424 324.008L10.024 325.232C9.688 325.536 9.28 325.76 8.8 325.904C8.336 326.048 7.856 326.12 7.36 326.12ZM1.408 314.816V313.4H9.208V314.816H1.408ZM19.558 313.28C20.582 313.28 21.478 313.48 22.246 313.88C23.03 314.264 23.638 314.856 24.07 315.656C24.518 316.456 24.742 317.464 24.742 318.68V326H23.038V318.848C23.038 317.52 22.702 316.52 22.03 315.848C21.374 315.16 20.446 314.816 19.246 314.816C18.35 314.816 17.566 315 16.894 315.368C16.238 315.72 15.726 316.24 15.358 316.928C15.006 317.6 14.83 318.416 14.83 319.376V326H13.126V308.192H14.83V316.856L14.494 316.208C14.894 315.296 15.534 314.584 16.414 314.072C17.294 313.544 18.342 313.28 19.558 313.28ZM29.3448 326V313.4H31.0488V326H29.3448ZM30.2088 310.616C29.8568 310.616 29.5608 310.496 29.3208 310.256C29.0808 310.016 28.9608 309.728 28.9608 309.392C28.9608 309.056 29.0808 308.776 29.3208 308.552C29.5608 308.312 29.8568 308.192 30.2088 308.192C30.5608 308.192 30.8568 308.304 31.0968 308.528C31.3368 308.752 31.4568 309.032 31.4568 309.368C31.4568 309.72 31.3368 310.016 31.0968 310.256C30.8728 310.496 30.5768 310.616 30.2088 310.616ZM39.1741 326.12C38.1341 326.12 37.1501 325.976 36.2221 325.688C35.2941 325.384 34.5661 325.008 34.0381 324.56L34.8061 323.216C35.3181 323.6 35.9741 323.936 36.7741 324.224C37.5741 324.496 38.4141 324.632 39.2941 324.632C40.4941 324.632 41.3581 324.448 41.8861 324.08C42.4141 323.696 42.6781 323.192 42.6781 322.568C42.6781 322.104 42.5261 321.744 42.2221 321.488C41.9341 321.216 41.5501 321.016 41.0701 320.888C40.5901 320.744 40.0541 320.624 39.4621 320.528C38.8701 320.432 38.2781 320.32 37.6861 320.192C37.1101 320.064 36.5821 319.88 36.1021 319.64C35.6221 319.384 35.2301 319.04 34.9261 318.608C34.6381 318.176 34.4941 317.6 34.4941 316.88C34.4941 316.192 34.6861 315.576 35.0701 315.032C35.4541 314.488 36.0141 314.064 36.7501 313.76C37.5021 313.44 38.4141 313.28 39.4861 313.28C40.3021 313.28 41.1181 313.392 41.9341 313.616C42.7501 313.824 43.4221 314.104 43.9501 314.456L43.2061 315.824C42.6461 315.44 42.0461 315.168 41.4061 315.008C40.7661 314.832 40.1261 314.744 39.4861 314.744C38.3501 314.744 37.5101 314.944 36.9661 315.344C36.4381 315.728 36.1741 316.224 36.1741 316.832C36.1741 317.312 36.3181 317.688 36.6061 317.96C36.9101 318.232 37.3021 318.448 37.7821 318.608C38.2781 318.752 38.8141 318.872 39.3901 318.968C39.9821 319.064 40.5661 319.184 41.1421 319.328C41.7341 319.456 42.2701 319.64 42.7501 319.88C43.2461 320.104 43.6381 320.432 43.9261 320.864C44.2301 321.28 44.3821 321.832 44.3821 322.52C44.3821 323.256 44.1741 323.896 43.7581 324.44C43.3581 324.968 42.7661 325.384 41.9821 325.688C41.2141 325.976 40.2781 326.12 39.1741 326.12ZM60.2941 326.12C59.2061 326.12 58.2221 325.872 57.3421 325.376C56.4621 324.864 55.7581 324.136 55.2301 323.192C54.7181 322.232 54.4621 321.064 54.4621 319.688C54.4621 318.312 54.7181 317.152 55.2301 316.208C55.7421 315.248 56.4381 314.52 57.3181 314.024C58.1981 313.528 59.1901 313.28 60.2941 313.28C61.4941 313.28 62.5661 313.552 63.5101 314.096C64.4701 314.624 65.2221 315.376 65.7661 316.352C66.3101 317.312 66.5821 318.424 66.5821 319.688C66.5821 320.968 66.3101 322.088 65.7661 323.048C65.2221 324.008 64.4701 324.76 63.5101 325.304C62.5661 325.848 61.4941 326.12 60.2941 326.12ZM53.7901 330.656V313.4H55.4221V317.192L55.2541 319.712L55.4941 322.256V330.656H53.7901ZM60.1741 324.608C61.0701 324.608 61.8701 324.408 62.5741 324.008C63.2781 323.592 63.8381 323.016 64.2541 322.28C64.6701 321.528 64.8781 320.664 64.8781 319.688C64.8781 318.712 64.6701 317.856 64.2541 317.12C63.8381 316.384 63.2781 315.808 62.5741 315.392C61.8701 314.976 61.0701 314.768 60.1741 314.768C59.2781 314.768 58.4701 314.976 57.7501 315.392C57.0461 315.808 56.4861 316.384 56.0701 317.12C55.6701 317.856 55.4701 318.712 55.4701 319.688C55.4701 320.664 55.6701 321.528 56.0701 322.28C56.4861 323.016 57.0461 323.592 57.7501 324.008C58.4701 324.408 59.2781 324.608 60.1741 324.608ZM70.0557 326V313.4H71.6877V316.832L71.5197 316.232C71.8717 315.272 72.4637 314.544 73.2957 314.048C74.1277 313.536 75.1597 313.28 76.3917 313.28V314.936C76.3277 314.936 76.2637 314.936 76.1997 314.936C76.1357 314.92 76.0717 314.912 76.0077 314.912C74.6797 314.912 73.6397 315.32 72.8877 316.136C72.1357 316.936 71.7597 318.08 71.7597 319.568V326H70.0557ZM79.501 326V313.4H81.205V326H79.501ZM80.365 310.616C80.013 310.616 79.717 310.496 79.477 310.256C79.237 310.016 79.117 309.728 79.117 309.392C79.117 309.056 79.237 308.776 79.477 308.552C79.717 308.312 80.013 308.192 80.365 308.192C80.717 308.192 81.013 308.304 81.253 308.528C81.493 308.752 81.613 309.032 81.613 309.368C81.613 309.72 81.493 310.016 81.253 310.256C81.029 310.496 80.733 310.616 80.365 310.616ZM91.1783 326.12C89.9303 326.12 88.8103 325.848 87.8183 325.304C86.8423 324.744 86.0743 323.984 85.5143 323.024C84.9543 322.048 84.6743 320.936 84.6743 319.688C84.6743 318.424 84.9543 317.312 85.5143 316.352C86.0743 315.392 86.8423 314.64 87.8183 314.096C88.8103 313.552 89.9303 313.28 91.1783 313.28C92.2503 313.28 93.2183 313.488 94.0823 313.904C94.9463 314.32 95.6263 314.944 96.1223 315.776L94.8503 316.64C94.4183 316 93.8823 315.528 93.2423 315.224C92.6023 314.92 91.9063 314.768 91.1543 314.768C90.2583 314.768 89.4503 314.976 88.7303 315.392C88.0103 315.792 87.4423 316.36 87.0263 317.096C86.6103 317.832 86.4023 318.696 86.4023 319.688C86.4023 320.68 86.6103 321.544 87.0263 322.28C87.4423 323.016 88.0103 323.592 88.7303 324.008C89.4503 324.408 90.2583 324.608 91.1543 324.608C91.9063 324.608 92.6023 324.456 93.2423 324.152C93.8823 323.848 94.4183 323.384 94.8503 322.76L96.1223 323.624C95.6263 324.44 94.9463 325.064 94.0823 325.496C93.2183 325.912 92.2503 326.12 91.1783 326.12ZM104.611 326.12C103.299 326.12 102.147 325.848 101.155 325.304C100.163 324.744 99.3868 323.984 98.8268 323.024C98.2668 322.048 97.9868 320.936 97.9868 319.688C97.9868 318.44 98.2508 317.336 98.7788 316.376C99.3228 315.416 100.059 314.664 100.987 314.12C101.931 313.56 102.987 313.28 104.155 313.28C105.339 313.28 106.387 313.552 107.299 314.096C108.227 314.624 108.955 315.376 109.483 316.352C110.011 317.312 110.275 318.424 110.275 319.688C110.275 319.768 110.267 319.856 110.251 319.952C110.251 320.032 110.251 320.12 110.251 320.216H99.2828V318.944H109.339L108.667 319.448C108.667 318.536 108.467 317.728 108.067 317.024C107.683 316.304 107.155 315.744 106.483 315.344C105.811 314.944 105.035 314.744 104.155 314.744C103.291 314.744 102.515 314.944 101.827 315.344C101.139 315.744 100.603 316.304 100.219 317.024C99.8348 317.744 99.6428 318.568 99.6428 319.496V319.76C99.6428 320.72 99.8508 321.568 100.267 322.304C100.699 323.024 101.291 323.592 102.043 324.008C102.811 324.408 103.683 324.608 104.659 324.608C105.427 324.608 106.139 324.472 106.795 324.2C107.467 323.928 108.043 323.512 108.523 322.952L109.483 324.056C108.923 324.728 108.219 325.24 107.371 325.592C106.539 325.944 105.619 326.12 104.611 326.12Z" fill="#A2C33D"/>
<path d="M117 249H157" stroke="#A2C33D"/>
<path d="M331 83H661" stroke="#214B33"/>
<path d="M7.744 82V75.76L8.152 76.864L1.024 65.2H2.92L9.184 75.448H8.176L14.44 65.2H16.216L9.088 76.864L9.496 75.76V82H7.744ZM22.3167 82.12C21.1007 82.12 20.0047 81.848 19.0287 81.304C18.0687 80.744 17.3087 79.984 16.7487 79.024C16.1887 78.048 15.9087 76.936 15.9087 75.688C15.9087 74.424 16.1887 73.312 16.7487 72.352C17.3087 71.392 18.0687 70.64 19.0287 70.096C19.9887 69.552 21.0847 69.28 22.3167 69.28C23.5647 69.28 24.6687 69.552 25.6287 70.096C26.6047 70.64 27.3647 71.392 27.9087 72.352C28.4687 73.312 28.7487 74.424 28.7487 75.688C28.7487 76.936 28.4687 78.048 27.9087 79.024C27.3647 79.984 26.6047 80.744 25.6287 81.304C24.6527 81.848 23.5487 82.12 22.3167 82.12ZM22.3167 80.608C23.2287 80.608 24.0367 80.408 24.7407 80.008C25.4447 79.592 25.9967 79.016 26.3967 78.28C26.8127 77.528 27.0207 76.664 27.0207 75.688C27.0207 74.696 26.8127 73.832 26.3967 73.096C25.9967 72.36 25.4447 71.792 24.7407 71.392C24.0367 70.976 23.2367 70.768 22.3407 70.768C21.4447 70.768 20.6447 70.976 19.9407 71.392C19.2367 71.792 18.6767 72.36 18.2607 73.096C17.8447 73.832 17.6367 74.696 17.6367 75.688C17.6367 76.664 17.8447 77.528 18.2607 78.28C18.6767 79.016 19.2367 79.592 19.9407 80.008C20.6447 80.408 21.4367 80.608 22.3167 80.608ZM37.4356 82.12C36.3636 82.12 35.4276 81.92 34.6276 81.52C33.8276 81.12 33.2036 80.52 32.7556 79.72C32.3236 78.92 32.1076 77.92 32.1076 76.72V69.4H33.8116V76.528C33.8116 77.872 34.1396 78.888 34.7956 79.576C35.4676 80.248 36.4036 80.584 37.6036 80.584C38.4836 80.584 39.2436 80.408 39.8836 80.056C40.5396 79.688 41.0356 79.16 41.3716 78.472C41.7236 77.784 41.8996 76.96 41.8996 76V69.4H43.6036V82H41.9716V78.544L42.2356 79.168C41.8356 80.096 41.2116 80.824 40.3636 81.352C39.5316 81.864 38.5556 82.12 37.4356 82.12ZM58.0178 82.12C56.9778 82.12 55.9938 81.976 55.0658 81.688C54.1378 81.384 53.4098 81.008 52.8818 80.56L53.6498 79.216C54.1618 79.6 54.8178 79.936 55.6178 80.224C56.4178 80.496 57.2578 80.632 58.1378 80.632C59.3378 80.632 60.2018 80.448 60.7298 80.08C61.2578 79.696 61.5218 79.192 61.5218 78.568C61.5218 78.104 61.3698 77.744 61.0658 77.488C60.7778 77.216 60.3938 77.016 59.9138 76.888C59.4338 76.744 58.8978 76.624 58.3058 76.528C57.7138 76.432 57.1218 76.32 56.5298 76.192C55.9538 76.064 55.4258 75.88 54.9458 75.64C54.4658 75.384 54.0738 75.04 53.7698 74.608C53.4818 74.176 53.3378 73.6 53.3378 72.88C53.3378 72.192 53.5298 71.576 53.9138 71.032C54.2978 70.488 54.8578 70.064 55.5938 69.76C56.3458 69.44 57.2578 69.28 58.3298 69.28C59.1458 69.28 59.9618 69.392 60.7778 69.616C61.5938 69.824 62.2658 70.104 62.7938 70.456L62.0498 71.824C61.4898 71.44 60.8898 71.168 60.2498 71.008C59.6098 70.832 58.9698 70.744 58.3298 70.744C57.1938 70.744 56.3538 70.944 55.8098 71.344C55.2818 71.728 55.0178 72.224 55.0178 72.832C55.0178 73.312 55.1618 73.688 55.4498 73.96C55.7538 74.232 56.1458 74.448 56.6258 74.608C57.1218 74.752 57.6578 74.872 58.2338 74.968C58.8258 75.064 59.4098 75.184 59.9858 75.328C60.5778 75.456 61.1138 75.64 61.5938 75.88C62.0898 76.104 62.4818 76.432 62.7698 76.864C63.0738 77.28 63.2258 77.832 63.2258 78.52C63.2258 79.256 63.0178 79.896 62.6018 80.44C62.2018 80.968 61.6098 81.384 60.8258 81.688C60.0578 81.976 59.1218 82.12 58.0178 82.12ZM71.7046 82.12C70.3926 82.12 69.2406 81.848 68.2486 81.304C67.2566 80.744 66.4806 79.984 65.9206 79.024C65.3606 78.048 65.0806 76.936 65.0806 75.688C65.0806 74.44 65.3446 73.336 65.8726 72.376C66.4166 71.416 67.1526 70.664 68.0806 70.12C69.0246 69.56 70.0806 69.28 71.2486 69.28C72.4326 69.28 73.4806 69.552 74.3926 70.096C75.3206 70.624 76.0486 71.376 76.5766 72.352C77.1046 73.312 77.3686 74.424 77.3686 75.688C77.3686 75.768 77.3606 75.856 77.3446 75.952C77.3446 76.032 77.3446 76.12 77.3446 76.216H66.3766V74.944H76.4326L75.7606 75.448C75.7606 74.536 75.5606 73.728 75.1606 73.024C74.7766 72.304 74.2486 71.744 73.5766 71.344C72.9046 70.944 72.1286 70.744 71.2486 70.744C70.3846 70.744 69.6086 70.944 68.9206 71.344C68.2326 71.744 67.6966 72.304 67.3126 73.024C66.9286 73.744 66.7366 74.568 66.7366 75.496V75.76C66.7366 76.72 66.9446 77.568 67.3606 78.304C67.7926 79.024 68.3846 79.592 69.1366 80.008C69.9046 80.408 70.7766 80.608 71.7526 80.608C72.5206 80.608 73.2326 80.472 73.8886 80.2C74.5606 79.928 75.1366 79.512 75.6166 78.952L76.5766 80.056C76.0166 80.728 75.3126 81.24 74.4646 81.592C73.6326 81.944 72.7126 82.12 71.7046 82.12ZM80.8369 82V64.192H82.5409V82H80.8369ZM87.2823 82V64.192H88.9863V82H87.2823ZM100.297 82V67.816C100.297 66.696 100.625 65.792 101.281 65.104C101.937 64.416 102.881 64.072 104.113 64.072C104.593 64.072 105.057 64.136 105.505 64.264C105.953 64.392 106.329 64.592 106.633 64.864L106.057 66.136C105.817 65.928 105.537 65.776 105.217 65.68C104.897 65.568 104.553 65.512 104.185 65.512C103.465 65.512 102.913 65.712 102.529 66.112C102.145 66.512 101.953 67.104 101.953 67.888V69.808L102.001 70.6V82H100.297ZM98.0408 70.816V69.4H105.841V70.816H98.0408ZM113.35 82.12C112.278 82.12 111.342 81.92 110.542 81.52C109.742 81.12 109.118 80.52 108.67 79.72C108.238 78.92 108.022 77.92 108.022 76.72V69.4H109.726V76.528C109.726 77.872 110.054 78.888 110.71 79.576C111.382 80.248 112.318 80.584 113.518 80.584C114.398 80.584 115.158 80.408 115.798 80.056C116.454 79.688 116.95 79.16 117.286 78.472C117.638 77.784 117.814 76.96 117.814 76V69.4H119.518V82H117.886V78.544L118.15 79.168C117.75 80.096 117.126 80.824 116.278 81.352C115.446 81.864 114.47 82.12 113.35 82.12ZM128.251 82.12C127.067 82.12 126.155 81.8 125.515 81.16C124.875 80.52 124.555 79.616 124.555 78.448V66.616H126.259V78.352C126.259 79.088 126.443 79.656 126.811 80.056C127.195 80.456 127.739 80.656 128.443 80.656C129.195 80.656 129.819 80.44 130.315 80.008L130.915 81.232C130.579 81.536 130.171 81.76 129.691 81.904C129.227 82.048 128.747 82.12 128.251 82.12ZM122.299 70.816V69.4H130.099V70.816H122.299ZM139.225 82.12C138.153 82.12 137.217 81.92 136.417 81.52C135.617 81.12 134.993 80.52 134.545 79.72C134.113 78.92 133.897 77.92 133.897 76.72V69.4H135.601V76.528C135.601 77.872 135.929 78.888 136.585 79.576C137.257 80.248 138.193 80.584 139.393 80.584C140.273 80.584 141.033 80.408 141.673 80.056C142.329 79.688 142.825 79.16 143.161 78.472C143.513 77.784 143.689 76.96 143.689 76V69.4H145.393V82H143.761V78.544L144.025 79.168C143.625 80.096 143.001 80.824 142.153 81.352C141.321 81.864 140.345 82.12 139.225 82.12ZM150.142 82V69.4H151.774V72.832L151.606 72.232C151.958 71.272 152.55 70.544 153.382 70.048C154.214 69.536 155.246 69.28 156.478 69.28V70.936C156.414 70.936 156.35 70.936 156.286 70.936C156.222 70.92 156.158 70.912 156.094 70.912C154.766 70.912 153.726 71.32 152.974 72.136C152.222 72.936 151.846 74.08 151.846 75.568V82H150.142ZM164.822 82.12C163.51 82.12 162.358 81.848 161.366 81.304C160.374 80.744 159.598 79.984 159.038 79.024C158.478 78.048 158.198 76.936 158.198 75.688C158.198 74.44 158.462 73.336 158.99 72.376C159.534 71.416 160.27 70.664 161.198 70.12C162.142 69.56 163.198 69.28 164.366 69.28C165.55 69.28 166.598 69.552 167.51 70.096C168.438 70.624 169.166 71.376 169.694 72.352C170.222 73.312 170.486 74.424 170.486 75.688C170.486 75.768 170.478 75.856 170.462 75.952C170.462 76.032 170.462 76.12 170.462 76.216H159.494V74.944H169.55L168.878 75.448C168.878 74.536 168.678 73.728 168.278 73.024C167.894 72.304 167.366 71.744 166.694 71.344C166.022 70.944 165.246 70.744 164.366 70.744C163.502 70.744 162.726 70.944 162.038 71.344C161.35 71.744 160.814 72.304 160.43 73.024C160.046 73.744 159.854 74.568 159.854 75.496V75.76C159.854 76.72 160.062 77.568 160.478 78.304C160.91 79.024 161.502 79.592 162.254 80.008C163.022 80.408 163.894 80.608 164.87 80.608C165.638 80.608 166.35 80.472 167.006 80.2C167.678 79.928 168.254 79.512 168.734 78.952L169.694 80.056C169.134 80.728 168.43 81.24 167.582 81.592C166.75 81.944 165.83 82.12 164.822 82.12ZM177.338 82.12C176.298 82.12 175.314 81.976 174.386 81.688C173.458 81.384 172.73 81.008 172.202 80.56L172.97 79.216C173.482 79.6 174.138 79.936 174.938 80.224C175.738 80.496 176.578 80.632 177.458 80.632C178.658 80.632 179.522 80.448 180.05 80.08C180.578 79.696 180.842 79.192 180.842 78.568C180.842 78.104 180.69 77.744 180.386 77.488C180.098 77.216 179.714 77.016 179.234 76.888C178.754 76.744 178.218 76.624 177.626 76.528C177.034 76.432 176.442 76.32 175.85 76.192C175.274 76.064 174.746 75.88 174.266 75.64C173.786 75.384 173.394 75.04 173.09 74.608C172.802 74.176 172.658 73.6 172.658 72.88C172.658 72.192 172.85 71.576 173.234 71.032C173.618 70.488 174.178 70.064 174.914 69.76C175.666 69.44 176.578 69.28 177.65 69.28C178.466 69.28 179.282 69.392 180.098 69.616C180.914 69.824 181.586 70.104 182.114 70.456L181.37 71.824C180.81 71.44 180.21 71.168 179.57 71.008C178.93 70.832 178.29 70.744 177.65 70.744C176.514 70.744 175.674 70.944 175.13 71.344C174.602 71.728 174.338 72.224 174.338 72.832C174.338 73.312 174.482 73.688 174.77 73.96C175.074 74.232 175.466 74.448 175.946 74.608C176.442 74.752 176.978 74.872 177.554 74.968C178.146 75.064 178.73 75.184 179.306 75.328C179.898 75.456 180.434 75.64 180.914 75.88C181.41 76.104 181.802 76.432 182.09 76.864C182.394 77.28 182.546 77.832 182.546 78.52C182.546 79.256 182.338 79.896 181.922 80.44C181.522 80.968 180.93 81.384 180.146 81.688C179.378 81.976 178.442 82.12 177.338 82.12ZM199.85 82V79.216L199.778 78.76V74.104C199.778 73.032 199.474 72.208 198.866 71.632C198.274 71.056 197.386 70.768 196.202 70.768C195.386 70.768 194.61 70.904 193.874 71.176C193.138 71.448 192.514 71.808 192.002 72.256L191.234 70.984C191.874 70.44 192.642 70.024 193.538 69.736C194.434 69.432 195.378 69.28 196.37 69.28C198.002 69.28 199.258 69.688 200.138 70.504C201.034 71.304 201.482 72.528 201.482 74.176V82H199.85ZM195.506 82.12C194.562 82.12 193.738 81.968 193.034 81.664C192.346 81.344 191.818 80.912 191.45 80.368C191.082 79.808 190.898 79.168 190.898 78.448C190.898 77.792 191.05 77.2 191.354 76.672C191.674 76.128 192.186 75.696 192.89 75.376C193.61 75.04 194.57 74.872 195.77 74.872H200.114V76.144H195.818C194.602 76.144 193.754 76.36 193.274 76.792C192.81 77.224 192.578 77.76 192.578 78.4C192.578 79.12 192.858 79.696 193.418 80.128C193.978 80.56 194.762 80.776 195.77 80.776C196.73 80.776 197.554 80.56 198.242 80.128C198.946 79.68 199.458 79.04 199.778 78.208L200.162 79.384C199.842 80.216 199.282 80.88 198.482 81.376C197.698 81.872 196.706 82.12 195.506 82.12ZM210.094 82.12C208.91 82.12 207.998 81.8 207.358 81.16C206.718 80.52 206.398 79.616 206.398 78.448V66.616H208.102V78.352C208.102 79.088 208.286 79.656 208.654 80.056C209.038 80.456 209.582 80.656 210.286 80.656C211.038 80.656 211.662 80.44 212.158 80.008L212.758 81.232C212.422 81.536 212.014 81.76 211.534 81.904C211.07 82.048 210.59 82.12 210.094 82.12ZM204.142 70.816V69.4H211.942V70.816H204.142ZM226.126 82.12C224.942 82.12 224.03 81.8 223.39 81.16C222.75 80.52 222.43 79.616 222.43 78.448V66.616H224.134V78.352C224.134 79.088 224.318 79.656 224.686 80.056C225.07 80.456 225.614 80.656 226.318 80.656C227.07 80.656 227.694 80.44 228.19 80.008L228.79 81.232C228.454 81.536 228.046 81.76 227.566 81.904C227.102 82.048 226.622 82.12 226.126 82.12ZM220.174 70.816V69.4H227.974V70.816H220.174ZM238.324 69.28C239.348 69.28 240.244 69.48 241.012 69.88C241.796 70.264 242.404 70.856 242.836 71.656C243.284 72.456 243.508 73.464 243.508 74.68V82H241.804V74.848C241.804 73.52 241.468 72.52 240.796 71.848C240.14 71.16 239.212 70.816 238.012 70.816C237.116 70.816 236.332 71 235.66 71.368C235.004 71.72 234.492 72.24 234.124 72.928C233.772 73.6 233.596 74.416 233.596 75.376V82H231.892V64.192H233.596V72.856L233.26 72.208C233.66 71.296 234.3 70.584 235.18 70.072C236.06 69.544 237.108 69.28 238.324 69.28ZM248.11 82V69.4H249.814V82H248.11ZM248.974 66.616C248.622 66.616 248.326 66.496 248.086 66.256C247.846 66.016 247.726 65.728 247.726 65.392C247.726 65.056 247.846 64.776 248.086 64.552C248.326 64.312 248.622 64.192 248.974 64.192C249.326 64.192 249.622 64.304 249.862 64.528C250.102 64.752 250.222 65.032 250.222 65.368C250.222 65.72 250.102 66.016 249.862 66.256C249.638 66.496 249.342 66.616 248.974 66.616ZM257.94 82.12C256.9 82.12 255.916 81.976 254.988 81.688C254.06 81.384 253.332 81.008 252.804 80.56L253.572 79.216C254.084 79.6 254.74 79.936 255.54 80.224C256.34 80.496 257.18 80.632 258.06 80.632C259.26 80.632 260.124 80.448 260.652 80.08C261.18 79.696 261.444 79.192 261.444 78.568C261.444 78.104 261.292 77.744 260.988 77.488C260.7 77.216 260.316 77.016 259.836 76.888C259.356 76.744 258.82 76.624 258.228 76.528C257.636 76.432 257.044 76.32 256.452 76.192C255.876 76.064 255.348 75.88 254.868 75.64C254.388 75.384 253.996 75.04 253.692 74.608C253.404 74.176 253.26 73.6 253.26 72.88C253.26 72.192 253.452 71.576 253.836 71.032C254.22 70.488 254.78 70.064 255.516 69.76C256.268 69.44 257.18 69.28 258.252 69.28C259.068 69.28 259.884 69.392 260.7 69.616C261.516 69.824 262.188 70.104 262.716 70.456L261.972 71.824C261.412 71.44 260.812 71.168 260.172 71.008C259.532 70.832 258.892 70.744 258.252 70.744C257.116 70.744 256.276 70.944 255.732 71.344C255.204 71.728 254.94 72.224 254.94 72.832C254.94 73.312 255.084 73.688 255.372 73.96C255.676 74.232 256.068 74.448 256.548 74.608C257.044 74.752 257.58 74.872 258.156 74.968C258.748 75.064 259.332 75.184 259.908 75.328C260.5 75.456 261.036 75.64 261.516 75.88C262.012 76.104 262.404 76.432 262.692 76.864C262.996 77.28 263.148 77.832 263.148 78.52C263.148 79.256 262.94 79.896 262.524 80.44C262.124 80.968 261.532 81.384 260.748 81.688C259.98 81.976 259.044 82.12 257.94 82.12ZM279.06 82.12C277.972 82.12 276.988 81.872 276.108 81.376C275.228 80.864 274.524 80.136 273.996 79.192C273.484 78.232 273.228 77.064 273.228 75.688C273.228 74.312 273.484 73.152 273.996 72.208C274.508 71.248 275.204 70.52 276.084 70.024C276.964 69.528 277.956 69.28 279.06 69.28C280.26 69.28 281.332 69.552 282.276 70.096C283.236 70.624 283.988 71.376 284.532 72.352C285.076 73.312 285.348 74.424 285.348 75.688C285.348 76.968 285.076 78.088 284.532 79.048C283.988 80.008 283.236 80.76 282.276 81.304C281.332 81.848 280.26 82.12 279.06 82.12ZM272.556 86.656V69.4H274.188V73.192L274.02 75.712L274.26 78.256V86.656H272.556ZM278.94 80.608C279.836 80.608 280.636 80.408 281.34 80.008C282.044 79.592 282.604 79.016 283.02 78.28C283.436 77.528 283.644 76.664 283.644 75.688C283.644 74.712 283.436 73.856 283.02 73.12C282.604 72.384 282.044 71.808 281.34 71.392C280.636 70.976 279.836 70.768 278.94 70.768C278.044 70.768 277.236 70.976 276.516 71.392C275.812 71.808 275.252 72.384 274.836 73.12C274.436 73.856 274.236 74.712 274.236 75.688C274.236 76.664 274.436 77.528 274.836 78.28C275.252 79.016 275.812 79.592 276.516 80.008C277.236 80.408 278.044 80.608 278.94 80.608ZM288.821 82V69.4H290.453V72.832L290.285 72.232C290.637 71.272 291.229 70.544 292.061 70.048C292.893 69.536 293.925 69.28 295.157 69.28V70.936C295.093 70.936 295.029 70.936 294.965 70.936C294.901 70.92 294.837 70.912 294.773 70.912C293.445 70.912 292.405 71.32 291.653 72.136C290.901 72.936 290.525 74.08 290.525 75.568V82H288.821ZM298.267 82V69.4H299.971V82H298.267ZM299.131 66.616C298.779 66.616 298.483 66.496 298.243 66.256C298.003 66.016 297.883 65.728 297.883 65.392C297.883 65.056 298.003 64.776 298.243 64.552C298.483 64.312 298.779 64.192 299.131 64.192C299.483 64.192 299.779 64.304 300.019 64.528C300.259 64.752 300.379 65.032 300.379 65.368C300.379 65.72 300.259 66.016 300.019 66.256C299.795 66.496 299.499 66.616 299.131 66.616ZM309.944 82.12C308.696 82.12 307.576 81.848 306.584 81.304C305.608 80.744 304.84 79.984 304.28 79.024C303.72 78.048 303.44 76.936 303.44 75.688C303.44 74.424 303.72 73.312 304.28 72.352C304.84 71.392 305.608 70.64 306.584 70.096C307.576 69.552 308.696 69.28 309.944 69.28C311.016 69.28 311.984 69.488 312.848 69.904C313.712 70.32 314.392 70.944 314.888 71.776L313.616 72.64C313.184 72 312.648 71.528 312.008 71.224C311.368 70.92 310.672 70.768 309.92 70.768C309.024 70.768 308.216 70.976 307.496 71.392C306.776 71.792 306.208 72.36 305.792 73.096C305.376 73.832 305.168 74.696 305.168 75.688C305.168 76.68 305.376 77.544 305.792 78.28C306.208 79.016 306.776 79.592 307.496 80.008C308.216 80.408 309.024 80.608 309.92 80.608C310.672 80.608 311.368 80.456 312.008 80.152C312.648 79.848 313.184 79.384 313.616 78.76L314.888 79.624C314.392 80.44 313.712 81.064 312.848 81.496C311.984 81.912 311.016 82.12 309.944 82.12ZM323.376 82.12C322.064 82.12 320.912 81.848 319.92 81.304C318.928 80.744 318.152 79.984 317.592 79.024C317.032 78.048 316.752 76.936 316.752 75.688C316.752 74.44 317.016 73.336 317.544 72.376C318.088 71.416 318.824 70.664 319.752 70.12C320.696 69.56 321.752 69.28 322.92 69.28C324.104 69.28 325.152 69.552 326.064 70.096C326.992 70.624 327.72 71.376 328.248 72.352C328.776 73.312 329.04 74.424 329.04 75.688C329.04 75.768 329.032 75.856 329.016 75.952C329.016 76.032 329.016 76.12 329.016 76.216H318.048V74.944H328.104L327.432 75.448C327.432 74.536 327.232 73.728 326.832 73.024C326.448 72.304 325.92 71.744 325.248 71.344C324.576 70.944 323.8 70.744 322.92 70.744C322.056 70.744 321.28 70.944 320.592 71.344C319.904 71.744 319.368 72.304 318.984 73.024C318.6 73.744 318.408 74.568 318.408 75.496V75.76C318.408 76.72 318.616 77.568 319.032 78.304C319.464 79.024 320.056 79.592 320.808 80.008C321.576 80.408 322.448 80.608 323.424 80.608C324.192 80.608 324.904 80.472 325.56 80.2C326.232 79.928 326.808 79.512 327.288 78.952L328.248 80.056C327.688 80.728 326.984 81.24 326.136 81.592C325.304 81.944 324.384 82.12 323.376 82.12Z" fill="#214B33"/>
<path d="M139 29L689 29" stroke="#BC0051"/>
<path d="M3.736 29V12.2H10.024C11.448 12.2 12.672 12.432 13.696 12.896C14.72 13.344 15.504 14 16.048 14.864C16.608 15.712 16.888 16.744 16.888 17.96C16.888 19.144 16.608 20.168 16.048 21.032C15.504 21.88 14.72 22.536 13.696 23C12.672 23.448 11.448 23.672 10.024 23.672H4.72L5.512 22.856V29H3.736ZM15.208 29L10.888 22.904H12.808L17.152 29H15.208ZM5.512 23L4.72 22.16H9.976C11.656 22.16 12.928 21.792 13.792 21.056C14.672 20.32 15.112 19.288 15.112 17.96C15.112 16.616 14.672 15.576 13.792 14.84C12.928 14.104 11.656 13.736 9.976 13.736H4.72L5.512 12.896V23ZM26.0718 29.12C24.7598 29.12 23.6078 28.848 22.6158 28.304C21.6238 27.744 20.8478 26.984 20.2878 26.024C19.7278 25.048 19.4478 23.936 19.4478 22.688C19.4478 21.44 19.7118 20.336 20.2398 19.376C20.7838 18.416 21.5198 17.664 22.4478 17.12C23.3918 16.56 24.4478 16.28 25.6158 16.28C26.7998 16.28 27.8478 16.552 28.7598 17.096C29.6878 17.624 30.4158 18.376 30.9438 19.352C31.4718 20.312 31.7358 21.424 31.7358 22.688C31.7358 22.768 31.7278 22.856 31.7118 22.952C31.7118 23.032 31.7118 23.12 31.7118 23.216H20.7438V21.944H30.7998L30.1278 22.448C30.1278 21.536 29.9278 20.728 29.5278 20.024C29.1438 19.304 28.6158 18.744 27.9438 18.344C27.2718 17.944 26.4958 17.744 25.6158 17.744C24.7518 17.744 23.9758 17.944 23.2878 18.344C22.5998 18.744 22.0638 19.304 21.6798 20.024C21.2958 20.744 21.1038 21.568 21.1038 22.496V22.76C21.1038 23.72 21.3118 24.568 21.7278 25.304C22.1598 26.024 22.7518 26.592 23.5038 27.008C24.2718 27.408 25.1438 27.608 26.1198 27.608C26.8878 27.608 27.5998 27.472 28.2558 27.2C28.9278 26.928 29.5038 26.512 29.9838 25.952L30.9438 27.056C30.3838 27.728 29.6798 28.24 28.8318 28.592C27.9998 28.944 27.0798 29.12 26.0718 29.12ZM39.1881 29.12C38.0041 29.12 37.0921 28.8 36.4521 28.16C35.8121 27.52 35.4921 26.616 35.4921 25.448V13.616H37.1961V25.352C37.1961 26.088 37.3801 26.656 37.7481 27.056C38.1321 27.456 38.6761 27.656 39.3801 27.656C40.1321 27.656 40.7561 27.44 41.2521 27.008L41.8521 28.232C41.5161 28.536 41.1081 28.76 40.6281 28.904C40.1641 29.048 39.6841 29.12 39.1881 29.12ZM33.2361 17.816V16.4H41.0361V17.816H33.2361ZM52.8501 29V26.216L52.7781 25.76V21.104C52.7781 20.032 52.4741 19.208 51.8661 18.632C51.2741 18.056 50.3861 17.768 49.2021 17.768C48.3861 17.768 47.6101 17.904 46.8741 18.176C46.1381 18.448 45.5141 18.808 45.0021 19.256L44.2341 17.984C44.8741 17.44 45.6421 17.024 46.5381 16.736C47.4341 16.432 48.3781 16.28 49.3701 16.28C51.0021 16.28 52.2581 16.688 53.1381 17.504C54.0341 18.304 54.4821 19.528 54.4821 21.176V29H52.8501ZM48.5061 29.12C47.5621 29.12 46.7381 28.968 46.0341 28.664C45.3461 28.344 44.8181 27.912 44.4501 27.368C44.0821 26.808 43.8981 26.168 43.8981 25.448C43.8981 24.792 44.0501 24.2 44.3541 23.672C44.6741 23.128 45.1861 22.696 45.8901 22.376C46.6101 22.04 47.5701 21.872 48.7701 21.872H53.1141V23.144H48.8181C47.6021 23.144 46.7541 23.36 46.2741 23.792C45.8101 24.224 45.5781 24.76 45.5781 25.4C45.5781 26.12 45.8581 26.696 46.4181 27.128C46.9781 27.56 47.7621 27.776 48.7701 27.776C49.7301 27.776 50.5541 27.56 51.2421 27.128C51.9461 26.68 52.4581 26.04 52.7781 25.208L53.1621 26.384C52.8421 27.216 52.2821 27.88 51.4821 28.376C50.6981 28.872 49.7061 29.12 48.5061 29.12ZM59.1104 29V16.4H60.8144V29H59.1104ZM59.9744 13.616C59.6224 13.616 59.3264 13.496 59.0864 13.256C58.8464 13.016 58.7264 12.728 58.7264 12.392C58.7264 12.056 58.8464 11.776 59.0864 11.552C59.3264 11.312 59.6224 11.192 59.9744 11.192C60.3264 11.192 60.6224 11.304 60.8624 11.528C61.1024 11.752 61.2224 12.032 61.2224 12.368C61.2224 12.72 61.1024 13.016 60.8624 13.256C60.6384 13.496 60.3424 13.616 59.9744 13.616ZM65.5557 29V11.192H67.2597V29H65.5557ZM84.7863 29.12C83.6983 29.12 82.7143 28.872 81.8343 28.376C80.9543 27.864 80.2503 27.136 79.7223 26.192C79.2103 25.232 78.9543 24.064 78.9543 22.688C78.9543 21.312 79.2103 20.152 79.7223 19.208C80.2343 18.248 80.9303 17.52 81.8103 17.024C82.6903 16.528 83.6823 16.28 84.7863 16.28C85.9863 16.28 87.0583 16.552 88.0023 17.096C88.9623 17.624 89.7143 18.376 90.2583 19.352C90.8023 20.312 91.0743 21.424 91.0743 22.688C91.0743 23.968 90.8023 25.088 90.2583 26.048C89.7143 27.008 88.9623 27.76 88.0023 28.304C87.0583 28.848 85.9863 29.12 84.7863 29.12ZM78.2823 33.656V16.4H79.9143V20.192L79.7463 22.712L79.9863 25.256V33.656H78.2823ZM84.6663 27.608C85.5623 27.608 86.3623 27.408 87.0663 27.008C87.7703 26.592 88.3303 26.016 88.7463 25.28C89.1623 24.528 89.3703 23.664 89.3703 22.688C89.3703 21.712 89.1623 20.856 88.7463 20.12C88.3303 19.384 87.7703 18.808 87.0663 18.392C86.3623 17.976 85.5623 17.768 84.6663 17.768C83.7703 17.768 82.9623 17.976 82.2422 18.392C81.5383 18.808 80.9783 19.384 80.5623 20.12C80.1623 20.856 79.9623 21.712 79.9623 22.688C79.9623 23.664 80.1623 24.528 80.5623 25.28C80.9783 26.016 81.5383 26.592 82.2422 27.008C82.9623 27.408 83.7703 27.608 84.6663 27.608ZM94.5479 29V16.4H96.1799V19.832L96.0119 19.232C96.3639 18.272 96.9559 17.544 97.7879 17.048C98.6199 16.536 99.6519 16.28 100.884 16.28V17.936C100.82 17.936 100.756 17.936 100.692 17.936C100.628 17.92 100.564 17.912 100.5 17.912C99.1719 17.912 98.1319 18.32 97.3799 19.136C96.6279 19.936 96.2519 21.08 96.2519 22.568V29H94.5479ZM103.993 29V16.4H105.697V29H103.993ZM104.857 13.616C104.505 13.616 104.209 13.496 103.969 13.256C103.729 13.016 103.609 12.728 103.609 12.392C103.609 12.056 103.729 11.776 103.969 11.552C104.209 11.312 104.505 11.192 104.857 11.192C105.209 11.192 105.505 11.304 105.745 11.528C105.985 11.752 106.105 12.032 106.105 12.368C106.105 12.72 105.985 13.016 105.745 13.256C105.521 13.496 105.225 13.616 104.857 13.616ZM115.671 29.12C114.423 29.12 113.303 28.848 112.311 28.304C111.335 27.744 110.567 26.984 110.007 26.024C109.447 25.048 109.167 23.936 109.167 22.688C109.167 21.424 109.447 20.312 110.007 19.352C110.567 18.392 111.335 17.64 112.311 17.096C113.303 16.552 114.423 16.28 115.671 16.28C116.743 16.28 117.711 16.488 118.575 16.904C119.439 17.32 120.119 17.944 120.615 18.776L119.343 19.64C118.911 19 118.375 18.528 117.735 18.224C117.095 17.92 116.399 17.768 115.647 17.768C114.751 17.768 113.943 17.976 113.223 18.392C112.503 18.792 111.935 19.36 111.519 20.096C111.103 20.832 110.895 21.696 110.895 22.688C110.895 23.68 111.103 24.544 111.519 25.28C111.935 26.016 112.503 26.592 113.223 27.008C113.943 27.408 114.751 27.608 115.647 27.608C116.399 27.608 117.095 27.456 117.735 27.152C118.375 26.848 118.911 26.384 119.343 25.76L120.615 26.624C120.119 27.44 119.439 28.064 118.575 28.496C117.711 28.912 116.743 29.12 115.671 29.12ZM129.103 29.12C127.791 29.12 126.639 28.848 125.647 28.304C124.655 27.744 123.879 26.984 123.319 26.024C122.759 25.048 122.479 23.936 122.479 22.688C122.479 21.44 122.743 20.336 123.271 19.376C123.815 18.416 124.551 17.664 125.479 17.12C126.423 16.56 127.479 16.28 128.647 16.28C129.831 16.28 130.879 16.552 131.791 17.096C132.719 17.624 133.447 18.376 133.975 19.352C134.503 20.312 134.767 21.424 134.767 22.688C134.767 22.768 134.759 22.856 134.743 22.952C134.743 23.032 134.743 23.12 134.743 23.216H123.775V21.944H133.831L133.159 22.448C133.159 21.536 132.959 20.728 132.559 20.024C132.175 19.304 131.647 18.744 130.975 18.344C130.303 17.944 129.527 17.744 128.647 17.744C127.783 17.744 127.007 17.944 126.319 18.344C125.631 18.744 125.095 19.304 124.711 20.024C124.327 20.744 124.135 21.568 124.135 22.496V22.76C124.135 23.72 124.343 24.568 124.759 25.304C125.191 26.024 125.783 26.592 126.535 27.008C127.303 27.408 128.175 27.608 129.151 27.608C129.919 27.608 130.631 27.472 131.287 27.2C131.959 26.928 132.535 26.512 133.015 25.952L133.975 27.056C133.415 27.728 132.711 28.24 131.863 28.592C131.031 28.944 130.111 29.12 129.103 29.12Z" fill="#BC0051"/>
<path d="M154 166H1" stroke="#A2C33D"/>
<path d="M7.384 155V148.352L8.08 150.272L0.784 138.2H4.12L9.976 147.92H8.104L14.008 138.2H17.08L9.784 150.272L10.504 148.352V155H7.384ZM23.1655 155.168C21.8535 155.168 20.6855 154.888 19.6615 154.328C18.6375 153.752 17.8295 152.968 17.2375 151.976C16.6455 150.984 16.3495 149.856 16.3495 148.592C16.3495 147.312 16.6455 146.184 17.2375 145.208C17.8295 144.216 18.6375 143.44 19.6615 142.88C20.6855 142.32 21.8535 142.04 23.1655 142.04C24.4935 142.04 25.6695 142.32 26.6935 142.88C27.7335 143.44 28.5415 144.208 29.1175 145.184C29.7095 146.16 30.0055 147.296 30.0055 148.592C30.0055 149.856 29.7095 150.984 29.1175 151.976C28.5415 152.968 27.7335 153.752 26.6935 154.328C25.6695 154.888 24.4935 155.168 23.1655 155.168ZM23.1655 152.6C23.9015 152.6 24.5575 152.44 25.1335 152.12C25.7095 151.8 26.1575 151.336 26.4775 150.728C26.8135 150.12 26.9815 149.408 26.9815 148.592C26.9815 147.76 26.8135 147.048 26.4775 146.456C26.1575 145.848 25.7095 145.384 25.1335 145.064C24.5575 144.744 23.9095 144.584 23.1895 144.584C22.4535 144.584 21.7975 144.744 21.2215 145.064C20.6615 145.384 20.2135 145.848 19.8775 146.456C19.5415 147.048 19.3735 147.76 19.3735 148.592C19.3735 149.408 19.5415 150.12 19.8775 150.728C20.2135 151.336 20.6615 151.8 21.2215 152.12C21.7975 152.44 22.4455 152.6 23.1655 152.6ZM38.2983 155.168C37.2103 155.168 36.2503 154.968 35.4183 154.568C34.5863 154.152 33.9383 153.528 33.4743 152.696C33.0103 151.848 32.7783 150.784 32.7783 149.504V142.184H35.7783V149.096C35.7783 150.248 36.0343 151.112 36.5463 151.688C37.0743 152.248 37.8183 152.528 38.7783 152.528C39.4823 152.528 40.0903 152.384 40.6023 152.096C41.1303 151.808 41.5383 151.376 41.8263 150.8C42.1303 150.224 42.2823 149.512 42.2823 148.664V142.184H45.2823V155H42.4263V151.544L42.9303 152.6C42.4983 153.432 41.8663 154.072 41.0343 154.52C40.2023 154.952 39.2903 155.168 38.2983 155.168ZM49.2102 155V142.184H52.0662V145.712L51.7302 144.68C52.1142 143.816 52.7142 143.16 53.5302 142.712C54.3622 142.264 55.3942 142.04 56.6262 142.04V144.896C56.4982 144.864 56.3782 144.848 56.2662 144.848C56.1542 144.832 56.0422 144.824 55.9302 144.824C54.7942 144.824 53.8902 145.16 53.2182 145.832C52.5462 146.488 52.2102 147.472 52.2102 148.784V155H49.2102ZM73.0251 155.168C71.9371 155.168 70.9691 154.928 70.1211 154.448C69.2731 153.968 68.6011 153.248 68.1051 152.288C67.6251 151.312 67.3851 150.08 67.3851 148.592C67.3851 147.088 67.6331 145.856 68.1291 144.896C68.6411 143.936 69.3211 143.224 70.1691 142.76C71.0331 142.28 71.9851 142.04 73.0251 142.04C74.2891 142.04 75.4011 142.312 76.3611 142.856C77.3371 143.4 78.1051 144.16 78.6651 145.136C79.2411 146.112 79.5291 147.264 79.5291 148.592C79.5291 149.92 79.2411 151.072 78.6651 152.048C78.1051 153.024 77.3371 153.792 76.3611 154.352C75.4011 154.896 74.2891 155.168 73.0251 155.168ZM65.9211 155V137.192H68.9211V145.16L68.6811 148.568L68.7771 151.976V155H65.9211ZM72.6891 152.6C73.4091 152.6 74.0491 152.44 74.6091 152.12C75.1851 151.8 75.6411 151.336 75.9771 150.728C76.3131 150.12 76.4811 149.408 76.4811 148.592C76.4811 147.76 76.3131 147.048 75.9771 146.456C75.6411 145.848 75.1851 145.384 74.6091 145.064C74.0491 144.744 73.4091 144.584 72.6891 144.584C71.9691 144.584 71.3211 144.744 70.7451 145.064C70.1691 145.384 69.7131 145.848 69.3771 146.456C69.0411 147.048 68.8731 147.76 68.8731 148.592C68.8731 149.408 69.0411 150.12 69.3771 150.728C69.7131 151.336 70.1691 151.8 70.7451 152.12C71.3211 152.44 71.9691 152.6 72.6891 152.6ZM88.3983 155.168C86.9743 155.168 85.7263 154.888 84.6543 154.328C83.5983 153.752 82.7743 152.968 82.1823 151.976C81.6063 150.984 81.3183 149.856 81.3183 148.592C81.3183 147.312 81.5983 146.184 82.1583 145.208C82.7343 144.216 83.5183 143.44 84.5103 142.88C85.5183 142.32 86.6623 142.04 87.9423 142.04C89.1903 142.04 90.3023 142.312 91.2783 142.856C92.2543 143.4 93.0223 144.168 93.5823 145.16C94.1423 146.152 94.4223 147.32 94.4223 148.664C94.4223 148.792 94.4143 148.936 94.3983 149.096C94.3983 149.256 94.3903 149.408 94.3743 149.552H83.6943V147.56H92.7903L91.6143 148.184C91.6303 147.448 91.4783 146.8 91.1583 146.24C90.8383 145.68 90.3983 145.24 89.8383 144.92C89.2943 144.6 88.6623 144.44 87.9423 144.44C87.2063 144.44 86.5583 144.6 85.9983 144.92C85.4543 145.24 85.0223 145.688 84.7023 146.264C84.3983 146.824 84.2463 147.488 84.2463 148.256V148.736C84.2463 149.504 84.4223 150.184 84.7743 150.776C85.1263 151.368 85.6223 151.824 86.2623 152.144C86.9023 152.464 87.6383 152.624 88.4703 152.624C89.1903 152.624 89.8383 152.512 90.4143 152.288C90.9903 152.064 91.5023 151.712 91.9503 151.232L93.5583 153.08C92.9823 153.752 92.2543 154.272 91.3743 154.64C90.5103 154.992 89.5183 155.168 88.3983 155.168ZM104.576 142.04C105.6 142.04 106.512 142.24 107.312 142.64C108.128 143.04 108.768 143.656 109.232 144.488C109.696 145.304 109.928 146.36 109.928 147.656V155H106.928V148.04C106.928 146.904 106.656 146.056 106.112 145.496C105.584 144.936 104.84 144.656 103.88 144.656C103.176 144.656 102.552 144.8 102.008 145.088C101.464 145.376 101.04 145.808 100.736 146.384C100.448 146.944 100.304 147.656 100.304 148.52V155H97.3039V142.184H100.16V145.64L99.6559 144.584C100.104 143.768 100.752 143.144 101.6 142.712C102.464 142.264 103.456 142.04 104.576 142.04ZM119.781 155.168C118.357 155.168 117.109 154.888 116.037 154.328C114.981 153.752 114.157 152.968 113.565 151.976C112.989 150.984 112.701 149.856 112.701 148.592C112.701 147.312 112.981 146.184 113.541 145.208C114.117 144.216 114.901 143.44 115.893 142.88C116.901 142.32 118.045 142.04 119.325 142.04C120.573 142.04 121.685 142.312 122.661 142.856C123.637 143.4 124.405 144.168 124.965 145.16C125.525 146.152 125.805 147.32 125.805 148.664C125.805 148.792 125.797 148.936 125.781 149.096C125.781 149.256 125.773 149.408 125.757 149.552H115.077V147.56H124.173L122.997 148.184C123.013 147.448 122.861 146.8 122.541 146.24C122.221 145.68 121.781 145.24 121.221 144.92C120.677 144.6 120.045 144.44 119.325 144.44C118.589 144.44 117.941 144.6 117.381 144.92C116.837 145.24 116.405 145.688 116.085 146.264C115.781 146.824 115.629 147.488 115.629 148.256V148.736C115.629 149.504 115.805 150.184 116.157 150.776C116.509 151.368 117.005 151.824 117.645 152.144C118.285 152.464 119.021 152.624 119.853 152.624C120.573 152.624 121.221 152.512 121.797 152.288C122.373 152.064 122.885 151.712 123.333 151.232L124.941 153.08C124.365 153.752 123.637 154.272 122.757 154.64C121.893 154.992 120.901 155.168 119.781 155.168ZM129.095 155V141.464C129.095 140.12 129.487 139.048 130.271 138.248C131.071 137.432 132.207 137.024 133.679 137.024C134.207 137.024 134.703 137.08 135.167 137.192C135.647 137.304 136.047 137.48 136.367 137.72L135.551 139.976C135.327 139.8 135.071 139.672 134.783 139.592C134.495 139.496 134.199 139.448 133.895 139.448C133.271 139.448 132.799 139.624 132.479 139.976C132.159 140.312 131.999 140.824 131.999 141.512V142.952L132.095 144.296V155H129.095ZM126.983 144.68V142.28H135.527V144.68H126.983ZM137.639 155V142.184H140.639V155H137.639ZM139.151 140.072C138.591 140.072 138.127 139.896 137.759 139.544C137.407 139.192 137.231 138.768 137.231 138.272C137.231 137.76 137.407 137.336 137.759 137C138.127 136.648 138.591 136.472 139.151 136.472C139.711 136.472 140.167 136.64 140.519 136.976C140.887 137.296 141.071 137.704 141.071 138.2C141.071 138.728 140.895 139.176 140.543 139.544C140.191 139.896 139.727 140.072 139.151 140.072ZM149.401 155.168C147.993 155.168 146.905 154.808 146.137 154.088C145.369 153.352 144.985 152.272 144.985 150.848V139.352H147.985V150.776C147.985 151.384 148.137 151.856 148.441 152.192C148.761 152.528 149.201 152.696 149.761 152.696C150.433 152.696 150.993 152.52 151.441 152.168L152.281 154.304C151.929 154.592 151.497 154.808 150.985 154.952C150.473 155.096 149.945 155.168 149.401 155.168ZM142.873 144.68V142.28H151.417V144.68H142.873Z" fill="#A2C33D"/>
<path d="M139.436 369V359.62L139.884 360.096H137.126V359.2H140.444V369H139.436ZM151.715 369V367.376L151.673 367.11V364.394C151.673 363.769 151.495 363.288 151.141 362.952C150.795 362.616 150.277 362.448 149.587 362.448C149.111 362.448 148.658 362.527 148.229 362.686C147.799 362.845 147.435 363.055 147.137 363.316L146.689 362.574C147.062 362.257 147.51 362.014 148.033 361.846C148.555 361.669 149.106 361.58 149.685 361.58C150.637 361.58 151.369 361.818 151.883 362.294C152.405 362.761 152.667 363.475 152.667 364.436V369H151.715ZM149.181 369.07C148.63 369.07 148.149 368.981 147.739 368.804C147.337 368.617 147.029 368.365 146.815 368.048C146.6 367.721 146.493 367.348 146.493 366.928C146.493 366.545 146.581 366.2 146.759 365.892C146.945 365.575 147.244 365.323 147.655 365.136C148.075 364.94 148.635 364.842 149.335 364.842H151.869V365.584H149.363C148.653 365.584 148.159 365.71 147.879 365.962C147.608 366.214 147.473 366.527 147.473 366.9C147.473 367.32 147.636 367.656 147.963 367.908C148.289 368.16 148.747 368.286 149.335 368.286C149.895 368.286 150.375 368.16 150.777 367.908C151.187 367.647 151.486 367.273 151.673 366.788L151.897 367.474C151.71 367.959 151.383 368.347 150.917 368.636C150.459 368.925 149.881 369.07 149.181 369.07ZM159.16 369.07C158.526 369.07 157.952 368.925 157.438 368.636C156.925 368.337 156.514 367.913 156.206 367.362C155.908 366.802 155.758 366.121 155.758 365.318C155.758 364.515 155.908 363.839 156.206 363.288C156.505 362.728 156.911 362.303 157.424 362.014C157.938 361.725 158.516 361.58 159.16 361.58C159.86 361.58 160.486 361.739 161.036 362.056C161.596 362.364 162.035 362.803 162.352 363.372C162.67 363.932 162.828 364.581 162.828 365.318C162.828 366.065 162.67 366.718 162.352 367.278C162.035 367.838 161.596 368.277 161.036 368.594C160.486 368.911 159.86 369.07 159.16 369.07ZM155.366 371.716V361.65H156.318V363.862L156.22 365.332L156.36 366.816V371.716H155.366ZM159.09 368.188C159.613 368.188 160.08 368.071 160.49 367.838C160.901 367.595 161.228 367.259 161.47 366.83C161.713 366.391 161.834 365.887 161.834 365.318C161.834 364.749 161.713 364.249 161.47 363.82C161.228 363.391 160.901 363.055 160.49 362.812C160.08 362.569 159.613 362.448 159.09 362.448C158.568 362.448 158.096 362.569 157.676 362.812C157.266 363.055 156.939 363.391 156.696 363.82C156.463 364.249 156.346 364.749 156.346 365.318C156.346 365.887 156.463 366.391 156.696 366.83C156.939 367.259 157.266 367.595 157.676 367.838C158.096 368.071 158.568 368.188 159.09 368.188ZM164.855 369V361.65H165.807V363.652L165.709 363.302C165.914 362.742 166.259 362.317 166.745 362.028C167.23 361.729 167.832 361.58 168.551 361.58V362.546C168.513 362.546 168.476 362.546 168.439 362.546C168.401 362.537 168.364 362.532 168.327 362.532C167.552 362.532 166.945 362.77 166.507 363.246C166.068 363.713 165.849 364.38 165.849 365.248V369H164.855ZM170.365 369V361.65H171.359V369H170.365ZM170.869 360.026C170.663 360.026 170.491 359.956 170.351 359.816C170.211 359.676 170.141 359.508 170.141 359.312C170.141 359.116 170.211 358.953 170.351 358.822C170.491 358.682 170.663 358.612 170.869 358.612C171.074 358.612 171.247 358.677 171.387 358.808C171.527 358.939 171.597 359.102 171.597 359.298C171.597 359.503 171.527 359.676 171.387 359.816C171.256 359.956 171.083 360.026 170.869 360.026ZM174.124 369V358.612H175.118V369H174.124Z" fill="#313131"/>
<path d="M640.654 369.084C639.945 369.084 639.273 368.972 638.638 368.748C638.013 368.515 637.509 368.207 637.126 367.824L637.616 367.026C637.933 367.353 638.358 367.623 638.89 367.838C639.431 368.053 640.019 368.16 640.654 368.16C641.466 368.16 642.087 367.983 642.516 367.628C642.955 367.273 643.174 366.797 643.174 366.2C643.174 365.603 642.959 365.127 642.53 364.772C642.11 364.417 641.443 364.24 640.528 364.24H639.828V363.498L642.852 359.704L642.992 360.096H637.532V359.2H643.832V359.914L640.808 363.708L640.318 363.386H640.696C641.872 363.386 642.749 363.647 643.328 364.17C643.916 364.693 644.21 365.365 644.21 366.186C644.21 366.737 644.079 367.231 643.818 367.67C643.557 368.109 643.16 368.454 642.628 368.706C642.105 368.958 641.447 369.084 640.654 369.084ZM649.536 369.084C648.78 369.084 648.108 368.888 647.52 368.496C646.932 368.095 646.47 367.525 646.134 366.788C645.798 366.041 645.63 365.145 645.63 364.1C645.63 363.055 645.798 362.163 646.134 361.426C646.47 360.679 646.932 360.11 647.52 359.718C648.108 359.317 648.78 359.116 649.536 359.116C650.292 359.116 650.964 359.317 651.552 359.718C652.14 360.11 652.602 360.679 652.938 361.426C653.284 362.163 653.456 363.055 653.456 364.1C653.456 365.145 653.284 366.041 652.938 366.788C652.602 367.525 652.14 368.095 651.552 368.496C650.964 368.888 650.292 369.084 649.536 369.084ZM649.536 368.16C650.115 368.16 650.619 368.006 651.048 367.698C651.478 367.381 651.814 366.923 652.056 366.326C652.299 365.719 652.42 364.977 652.42 364.1C652.42 363.223 652.299 362.485 652.056 361.888C651.814 361.281 651.478 360.824 651.048 360.516C650.619 360.199 650.115 360.04 649.536 360.04C648.976 360.04 648.477 360.199 648.038 360.516C647.6 360.824 647.259 361.281 647.016 361.888C646.774 362.485 646.652 363.223 646.652 364.1C646.652 364.977 646.774 365.719 647.016 366.326C647.259 366.923 647.6 367.381 648.038 367.698C648.477 368.006 648.976 368.16 649.536 368.16ZM663.828 369V367.376L663.786 367.11V364.394C663.786 363.769 663.609 363.288 663.254 362.952C662.909 362.616 662.391 362.448 661.7 362.448C661.224 362.448 660.771 362.527 660.342 362.686C659.913 362.845 659.549 363.055 659.25 363.316L658.802 362.574C659.175 362.257 659.623 362.014 660.146 361.846C660.669 361.669 661.219 361.58 661.798 361.58C662.75 361.58 663.483 361.818 663.996 362.294C664.519 362.761 664.78 363.475 664.78 364.436V369H663.828ZM661.294 369.07C660.743 369.07 660.263 368.981 659.852 368.804C659.451 368.617 659.143 368.365 658.928 368.048C658.713 367.721 658.606 367.348 658.606 366.928C658.606 366.545 658.695 366.2 658.872 365.892C659.059 365.575 659.357 365.323 659.768 365.136C660.188 364.94 660.748 364.842 661.448 364.842H663.982V365.584H661.476C660.767 365.584 660.272 365.71 659.992 365.962C659.721 366.214 659.586 366.527 659.586 366.9C659.586 367.32 659.749 367.656 660.076 367.908C660.403 368.16 660.86 368.286 661.448 368.286C662.008 368.286 662.489 368.16 662.89 367.908C663.301 367.647 663.599 367.273 663.786 366.788L664.01 367.474C663.823 367.959 663.497 368.347 663.03 368.636C662.573 368.925 661.994 369.07 661.294 369.07ZM671.274 369.07C670.639 369.07 670.065 368.925 669.552 368.636C669.038 368.337 668.628 367.913 668.32 367.362C668.021 366.802 667.872 366.121 667.872 365.318C667.872 364.515 668.021 363.839 668.32 363.288C668.618 362.728 669.024 362.303 669.538 362.014C670.051 361.725 670.63 361.58 671.274 361.58C671.974 361.58 672.599 361.739 673.15 362.056C673.71 362.364 674.148 362.803 674.466 363.372C674.783 363.932 674.942 364.581 674.942 365.318C674.942 366.065 674.783 366.718 674.466 367.278C674.148 367.838 673.71 368.277 673.15 368.594C672.599 368.911 671.974 369.07 671.274 369.07ZM667.48 371.716V361.65H668.432V363.862L668.334 365.332L668.474 366.816V371.716H667.48ZM671.204 368.188C671.726 368.188 672.193 368.071 672.604 367.838C673.014 367.595 673.341 367.259 673.584 366.83C673.826 366.391 673.948 365.887 673.948 365.318C673.948 364.749 673.826 364.249 673.584 363.82C673.341 363.391 673.014 363.055 672.604 362.812C672.193 362.569 671.726 362.448 671.204 362.448C670.681 362.448 670.21 362.569 669.79 362.812C669.379 363.055 669.052 363.391 668.81 363.82C668.576 364.249 668.46 364.749 668.46 365.318C668.46 365.887 668.576 366.391 668.81 366.83C669.052 367.259 669.379 367.595 669.79 367.838C670.21 368.071 670.681 368.188 671.204 368.188ZM676.968 369V361.65H677.92V363.652L677.822 363.302C678.027 362.742 678.373 362.317 678.858 362.028C679.343 361.729 679.945 361.58 680.664 361.58V362.546C680.627 362.546 680.589 362.546 680.552 362.546C680.515 362.537 680.477 362.532 680.44 362.532C679.665 362.532 679.059 362.77 678.62 363.246C678.181 363.713 677.962 364.38 677.962 365.248V369H676.968ZM682.478 369V361.65H683.472V369H682.478ZM682.982 360.026C682.776 360.026 682.604 359.956 682.464 359.816C682.324 359.676 682.254 359.508 682.254 359.312C682.254 359.116 682.324 358.953 682.464 358.822C682.604 358.682 682.776 358.612 682.982 358.612C683.187 358.612 683.36 358.677 683.5 358.808C683.64 358.939 683.71 359.102 683.71 359.298C683.71 359.503 683.64 359.676 683.5 359.816C683.369 359.956 683.196 360.026 682.982 360.026ZM686.238 369V358.612H687.232V369H686.238Z" fill="#313131"/>
<path d="M379.436 369V359.62L379.884 360.096H377.126V359.2H380.444V369H379.436ZM385.881 369.084C385.181 369.084 384.513 368.972 383.879 368.748C383.244 368.515 382.74 368.207 382.367 367.824L382.857 367.026C383.165 367.353 383.585 367.623 384.117 367.838C384.658 368.053 385.241 368.16 385.867 368.16C386.697 368.16 387.327 367.978 387.757 367.614C388.195 367.241 388.415 366.755 388.415 366.158C388.415 365.738 388.312 365.379 388.107 365.08C387.911 364.772 387.575 364.534 387.099 364.366C386.623 364.198 385.969 364.114 385.139 364.114H383.053L383.557 359.2H388.919V360.096H383.963L384.481 359.606L384.047 363.722L383.529 363.218H385.363C386.352 363.218 387.145 363.339 387.743 363.582C388.34 363.825 388.769 364.165 389.031 364.604C389.301 365.033 389.437 365.537 389.437 366.116C389.437 366.667 389.306 367.171 389.045 367.628C388.783 368.076 388.391 368.431 387.869 368.692C387.346 368.953 386.683 369.084 385.881 369.084ZM399.644 369V367.376L399.602 367.11V364.394C399.602 363.769 399.425 363.288 399.07 362.952C398.725 362.616 398.207 362.448 397.516 362.448C397.04 362.448 396.588 362.527 396.158 362.686C395.729 362.845 395.365 363.055 395.066 363.316L394.618 362.574C394.992 362.257 395.44 362.014 395.962 361.846C396.485 361.669 397.036 361.58 397.614 361.58C398.566 361.58 399.299 361.818 399.812 362.294C400.335 362.761 400.596 363.475 400.596 364.436V369H399.644ZM397.11 369.07C396.56 369.07 396.079 368.981 395.668 368.804C395.267 368.617 394.959 368.365 394.744 368.048C394.53 367.721 394.422 367.348 394.422 366.928C394.422 366.545 394.511 366.2 394.688 365.892C394.875 365.575 395.174 365.323 395.584 365.136C396.004 364.94 396.564 364.842 397.264 364.842H399.798V365.584H397.292C396.583 365.584 396.088 365.71 395.808 365.962C395.538 366.214 395.402 366.527 395.402 366.9C395.402 367.32 395.566 367.656 395.892 367.908C396.219 368.16 396.676 368.286 397.264 368.286C397.824 368.286 398.305 368.16 398.706 367.908C399.117 367.647 399.416 367.273 399.602 366.788L399.826 367.474C399.64 367.959 399.313 368.347 398.846 368.636C398.389 368.925 397.81 369.07 397.11 369.07ZM407.09 369.07C406.455 369.07 405.881 368.925 405.368 368.636C404.855 368.337 404.444 367.913 404.136 367.362C403.837 366.802 403.688 366.121 403.688 365.318C403.688 364.515 403.837 363.839 404.136 363.288C404.435 362.728 404.841 362.303 405.354 362.014C405.867 361.725 406.446 361.58 407.09 361.58C407.79 361.58 408.415 361.739 408.966 362.056C409.526 362.364 409.965 362.803 410.282 363.372C410.599 363.932 410.758 364.581 410.758 365.318C410.758 366.065 410.599 366.718 410.282 367.278C409.965 367.838 409.526 368.277 408.966 368.594C408.415 368.911 407.79 369.07 407.09 369.07ZM403.296 371.716V361.65H404.248V363.862L404.15 365.332L404.29 366.816V371.716H403.296ZM407.02 368.188C407.543 368.188 408.009 368.071 408.42 367.838C408.831 367.595 409.157 367.259 409.4 366.83C409.643 366.391 409.764 365.887 409.764 365.318C409.764 364.749 409.643 364.249 409.4 363.82C409.157 363.391 408.831 363.055 408.42 362.812C408.009 362.569 407.543 362.448 407.02 362.448C406.497 362.448 406.026 362.569 405.606 362.812C405.195 363.055 404.869 363.391 404.626 363.82C404.393 364.249 404.276 364.749 404.276 365.318C404.276 365.887 404.393 366.391 404.626 366.83C404.869 367.259 405.195 367.595 405.606 367.838C406.026 368.071 406.497 368.188 407.02 368.188ZM412.784 369V361.65H413.736V363.652L413.638 363.302C413.844 362.742 414.189 362.317 414.674 362.028C415.16 361.729 415.762 361.58 416.48 361.58V362.546C416.443 362.546 416.406 362.546 416.368 362.546C416.331 362.537 416.294 362.532 416.256 362.532C415.482 362.532 414.875 362.77 414.436 363.246C413.998 363.713 413.778 364.38 413.778 365.248V369H412.784ZM418.294 369V361.65H419.288V369H418.294ZM418.798 360.026C418.593 360.026 418.42 359.956 418.28 359.816C418.14 359.676 418.07 359.508 418.07 359.312C418.07 359.116 418.14 358.953 418.28 358.822C418.42 358.682 418.593 358.612 418.798 358.612C419.004 358.612 419.176 358.677 419.316 358.808C419.456 358.939 419.526 359.102 419.526 359.298C419.526 359.503 419.456 359.676 419.316 359.816C419.186 359.956 419.013 360.026 418.798 360.026ZM422.054 369V358.612H423.048V369H422.054Z" fill="#313131"/>
</svg>
