<svg width="914" height="376" viewBox="0 0 914 376" fill="none" xmlns="http://www.w3.org/2000/svg">
<rect x="902" y="350" width="20" height="320" transform="rotate(180 902 350)" fill="#BC0051"/>
<rect x="874" y="350" width="20" height="266" transform="rotate(180 874 350)" fill="#214B33"/>
<rect x="846" y="350" width="20" height="254" transform="rotate(180 846 350)" fill="#A2C33D" fill-opacity="0.4"/>
<rect x="818" y="350" width="20" height="248" transform="rotate(180 818 350)" fill="#A2C33D" fill-opacity="0.4"/>
<rect x="790" y="350" width="20" height="240" transform="rotate(180 790 350)" fill="#A2C33D" fill-opacity="0.4"/>
<rect x="762" y="350" width="20" height="226" transform="rotate(180 762 350)" fill="#A2C33D" fill-opacity="0.4"/>
<rect x="734" y="350" width="20" height="220" transform="rotate(180 734 350)" fill="#A2C33D" fill-opacity="0.4"/>
<rect x="706" y="350" width="20" height="200" transform="rotate(180 706 350)" fill="#A2C33D" fill-opacity="0.4"/>
<rect x="678" y="350" width="20" height="196" transform="rotate(180 678 350)" fill="#A2C33D" fill-opacity="0.4"/>
<rect x="650" y="350" width="20" height="184" transform="rotate(180 650 350)" fill="#A2C33D" fill-opacity="0.4"/>
<rect x="622" y="350" width="20" height="184" transform="rotate(180 622 350)" fill="#A2C33D" fill-opacity="0.4"/>
<rect x="594" y="350" width="20" height="176" transform="rotate(180 594 350)" fill="#A2C33D" fill-opacity="0.4"/>
<rect x="566" y="350" width="20" height="172" transform="rotate(180 566 350)" fill="#A2C33D" fill-opacity="0.4"/>
<rect x="538" y="350" width="20" height="172" transform="rotate(180 538 350)" fill="#A2C33D" fill-opacity="0.4"/>
<rect x="510" y="350" width="20" height="152" transform="rotate(180 510 350)" fill="#A2C33D" fill-opacity="0.4"/>
<rect x="482" y="350" width="20" height="144" transform="rotate(180 482 350)" fill="#A2C33D" fill-opacity="0.4"/>
<rect x="454" y="350" width="20" height="140" transform="rotate(180 454 350)" fill="#A2C33D" fill-opacity="0.4"/>
<rect x="426" y="350" width="20" height="126" transform="rotate(180 426 350)" fill="#A2C33D" fill-opacity="0.4"/>
<rect x="398" y="350" width="20" height="120" transform="rotate(180 398 350)" fill="#A2C33D" fill-opacity="0.4"/>
<rect x="370" y="350" width="20" height="100" transform="rotate(180 370 350)" fill="#A2C33D"/>
<path d="M360 85V249.5" stroke="#A2C33D" stroke-width="20" stroke-dasharray="10 10"/>
<path d="M3.782 266V253.4H9.416C10.832 253.4 11.936 253.682 12.728 254.246C13.52 254.798 13.916 255.596 13.916 256.64C13.916 257.672 13.538 258.47 12.782 259.034C12.026 259.586 11.03 259.862 9.794 259.862L10.118 259.214C11.522 259.214 12.608 259.496 13.376 260.06C14.144 260.624 14.528 261.44 14.528 262.508C14.528 263.6 14.126 264.458 13.322 265.082C12.518 265.694 11.33 266 9.758 266H3.782ZM6.086 264.2H9.686C10.502 264.2 11.12 264.05 11.54 263.75C11.96 263.438 12.17 262.964 12.17 262.328C12.17 261.692 11.96 261.23 11.54 260.942C11.12 260.642 10.502 260.492 9.686 260.492H6.086V264.2ZM6.086 258.782H9.218C9.974 258.782 10.55 258.632 10.946 258.332C11.342 258.02 11.54 257.576 11.54 257C11.54 256.4 11.342 255.95 10.946 255.65C10.55 255.35 9.974 255.2 9.218 255.2H6.086V258.782ZM16.9417 266V256.388H19.1917V262.724L24.5017 256.388H26.5537V266H24.3037V259.664L19.0117 266H16.9417ZM41.449 266L37.975 261.392L39.811 260.258L44.095 266H41.449ZM34.555 266V256.388H36.805V266H34.555ZM36.139 262.148V260.276H39.397V262.148H36.139ZM40.027 261.464L37.921 261.212L41.449 256.388H43.861L40.027 261.464ZM46.001 269.618C45.533 269.618 45.065 269.54 44.597 269.384C44.129 269.228 43.739 269.012 43.427 268.736L44.327 267.08C44.555 267.284 44.813 267.446 45.101 267.566C45.389 267.686 45.683 267.746 45.983 267.746C46.391 267.746 46.721 267.644 46.973 267.44C47.225 267.236 47.459 266.894 47.675 266.414L48.233 265.154L48.413 264.884L52.049 256.388H54.209L49.709 266.774C49.409 267.494 49.073 268.064 48.701 268.484C48.341 268.904 47.933 269.198 47.477 269.366C47.033 269.534 46.541 269.618 46.001 269.618ZM47.981 266.342L43.643 256.388H45.983L49.511 264.686L47.981 266.342ZM55.7718 266V256.388H64.9878V266H62.7558V257.774L63.2778 258.296H57.4998L58.0218 257.774V266H55.7718ZM68.8877 269.618C68.4197 269.618 67.9517 269.54 67.4837 269.384C67.0157 269.228 66.6257 269.012 66.3137 268.736L67.2137 267.08C67.4417 267.284 67.6997 267.446 67.9877 267.566C68.2757 267.686 68.5697 267.746 68.8697 267.746C69.2777 267.746 69.6077 267.644 69.8597 267.44C70.1117 267.236 70.3457 266.894 70.5617 266.414L71.1197 265.154L71.2997 264.884L74.9357 256.388H77.0957L72.5957 266.774C72.2957 267.494 71.9597 268.064 71.5877 268.484C71.2277 268.904 70.8197 269.198 70.3637 269.366C69.9197 269.534 69.4277 269.618 68.8877 269.618ZM70.8677 266.342L66.5297 256.388H68.8697L72.3977 264.686L70.8677 266.342ZM84.1728 260.438V262.058H78.9528V260.438H84.1728ZM82.8588 266.144C81.8388 266.144 80.9268 265.934 80.1228 265.514C79.3308 265.094 78.7068 264.512 78.2508 263.768C77.7948 263.012 77.5668 262.154 77.5668 261.194C77.5668 260.222 77.7948 259.37 78.2508 258.638C78.7068 257.894 79.3308 257.306 80.1228 256.874C80.9268 256.442 81.8388 256.226 82.8588 256.226C83.7348 256.226 84.5268 256.37 85.2348 256.658C85.9548 256.946 86.5548 257.36 87.0348 257.9L85.7388 259.16C85.3668 258.776 84.9468 258.494 84.4788 258.314C84.0108 258.122 83.5008 258.026 82.9488 258.026C82.3128 258.026 81.7428 258.164 81.2388 258.44C80.7468 258.704 80.3568 259.076 80.0688 259.556C79.7928 260.024 79.6548 260.57 79.6548 261.194C79.6548 261.818 79.7928 262.37 80.0688 262.85C80.3568 263.318 80.7468 263.69 81.2388 263.966C81.7428 264.23 82.3128 264.362 82.9488 264.362C83.5008 264.362 84.0108 264.266 84.4788 264.074C84.9468 263.882 85.3668 263.594 85.7388 263.21L87.0348 264.47C86.5548 265.01 85.9548 265.424 85.2348 265.712C84.5268 266 83.7348 266.144 82.8588 266.144ZM90.8342 266V257.756L91.3562 258.296H87.4502V256.388H96.4502V258.296H92.5622L93.0842 257.756V266H90.8342ZM102.142 266.126C101.074 266.126 100.138 265.916 99.3344 265.496C98.5424 265.064 97.9244 264.476 97.4804 263.732C97.0484 262.988 96.8324 262.142 96.8324 261.194C96.8324 260.234 97.0424 259.388 97.4624 258.656C97.8944 257.912 98.4824 257.33 99.2264 256.91C99.9824 256.49 100.84 256.28 101.8 256.28C102.736 256.28 103.57 256.484 104.302 256.892C105.034 257.3 105.61 257.876 106.03 258.62C106.45 259.364 106.66 260.24 106.66 261.248C106.66 261.344 106.654 261.452 106.642 261.572C106.642 261.692 106.636 261.806 106.624 261.914H98.6144V260.42H105.436L104.554 260.888C104.566 260.336 104.452 259.85 104.212 259.43C103.972 259.01 103.642 258.68 103.222 258.44C102.814 258.2 102.34 258.08 101.8 258.08C101.248 258.08 100.762 258.2 100.342 258.44C99.9344 258.68 99.6104 259.016 99.3704 259.448C99.1424 259.868 99.0284 260.366 99.0284 260.942V261.302C99.0284 261.878 99.1604 262.388 99.4244 262.832C99.6884 263.276 100.06 263.618 100.54 263.858C101.02 264.098 101.572 264.218 102.196 264.218C102.736 264.218 103.222 264.134 103.654 263.966C104.086 263.798 104.47 263.534 104.806 263.174L106.012 264.56C105.58 265.064 105.034 265.454 104.374 265.73C103.726 265.994 102.982 266.126 102.142 266.126ZM120.198 266.18C120.186 266.18 120.132 266.18 120.036 266.18C119.952 266.18 119.868 266.18 119.784 266.18C119.712 266.18 119.664 266.18 119.64 266.18C117.612 266.156 116.04 265.718 114.924 264.866C113.808 264.002 113.25 262.772 113.25 261.176C113.25 259.592 113.808 258.38 114.924 257.54C116.04 256.7 117.63 256.268 119.694 256.244C119.718 256.244 119.766 256.244 119.838 256.244C119.922 256.244 120 256.244 120.072 256.244C120.156 256.244 120.204 256.244 120.216 256.244C122.292 256.244 123.906 256.67 125.058 257.522C126.222 258.362 126.804 259.58 126.804 261.176C126.804 262.784 126.222 264.02 125.058 264.884C123.906 265.748 122.286 266.18 120.198 266.18ZM120.126 264.308C121.146 264.308 121.986 264.194 122.646 263.966C123.306 263.726 123.798 263.378 124.122 262.922C124.446 262.454 124.608 261.872 124.608 261.176C124.608 260.492 124.446 259.928 124.122 259.484C123.798 259.028 123.306 258.692 122.646 258.476C121.986 258.248 121.146 258.134 120.126 258.134C120.102 258.134 120.042 258.134 119.946 258.134C119.862 258.134 119.808 258.134 119.784 258.134C118.788 258.134 117.972 258.254 117.336 258.494C116.7 258.722 116.226 259.058 115.914 259.502C115.614 259.946 115.464 260.504 115.464 261.176C115.464 261.86 115.614 262.43 115.914 262.886C116.226 263.342 116.7 263.69 117.336 263.93C117.984 264.17 118.8 264.296 119.784 264.308C119.808 264.308 119.862 264.308 119.946 264.308C120.042 264.308 120.102 264.308 120.126 264.308ZM118.956 269.492V252.644H121.08V269.492H118.956ZM128.361 258.386L128.217 253.4H130.161L129.999 258.386H128.361ZM132.676 266V256.388H134.926V260.114H137.788V262.148H134.926V266H132.676ZM141.46 266.126C140.5 266.126 139.642 265.916 138.886 265.496C138.142 265.064 137.554 264.476 137.122 263.732C136.69 262.988 136.474 262.142 136.474 261.194C136.474 260.234 136.69 259.382 137.122 258.638C137.554 257.894 138.142 257.318 138.886 256.91C139.642 256.49 140.5 256.28 141.46 256.28C142.432 256.28 143.29 256.49 144.034 256.91C144.79 257.318 145.384 257.894 145.816 258.638C146.248 259.382 146.464 260.234 146.464 261.194C146.464 262.142 146.248 262.994 145.816 263.75C145.384 264.494 144.79 265.076 144.034 265.496C143.29 265.916 142.432 266.126 141.46 266.126ZM141.46 264.218C142 264.218 142.474 264.092 142.882 263.84C143.302 263.588 143.632 263.24 143.872 262.796C144.112 262.352 144.232 261.818 144.232 261.194C144.232 260.57 144.112 260.036 143.872 259.592C143.632 259.136 143.302 258.788 142.882 258.548C142.474 258.308 142.006 258.188 141.478 258.188C140.95 258.188 140.476 258.308 140.056 258.548C139.636 258.788 139.306 259.136 139.066 259.592C138.826 260.036 138.706 260.57 138.706 261.194C138.706 261.818 138.826 262.352 139.066 262.796C139.306 263.24 139.636 263.588 140.056 263.84C140.476 264.092 140.944 264.218 141.46 264.218ZM154.738 262.202C154.282 262.418 153.796 262.598 153.28 262.742C152.776 262.874 152.242 262.94 151.678 262.94C150.466 262.94 149.524 262.658 148.852 262.094C148.18 261.53 147.844 260.654 147.844 259.466V256.388H150.094V259.322C150.094 259.958 150.274 260.42 150.634 260.708C151.006 260.996 151.516 261.14 152.164 261.14C152.596 261.14 153.028 261.086 153.46 260.978C153.892 260.87 154.318 260.72 154.738 260.528V262.202ZM154.576 266V256.388H156.826V266H154.576ZM164.334 266.126C163.266 266.126 162.33 265.916 161.526 265.496C160.734 265.064 160.116 264.476 159.672 263.732C159.24 262.988 159.024 262.142 159.024 261.194C159.024 260.234 159.234 259.388 159.654 258.656C160.086 257.912 160.674 257.33 161.418 256.91C162.174 256.49 163.032 256.28 163.992 256.28C164.928 256.28 165.762 256.484 166.494 256.892C167.226 257.3 167.802 257.876 168.222 258.62C168.642 259.364 168.852 260.24 168.852 261.248C168.852 261.344 168.846 261.452 168.834 261.572C168.834 261.692 168.828 261.806 168.816 261.914H160.806V260.42H167.628L166.746 260.888C166.758 260.336 166.644 259.85 166.404 259.43C166.164 259.01 165.834 258.68 165.414 258.44C165.006 258.2 164.532 258.08 163.992 258.08C163.44 258.08 162.954 258.2 162.534 258.44C162.126 258.68 161.802 259.016 161.562 259.448C161.334 259.868 161.22 260.366 161.22 260.942V261.302C161.22 261.878 161.352 262.388 161.616 262.832C161.88 263.276 162.252 263.618 162.732 263.858C163.212 264.098 163.764 264.218 164.388 264.218C164.928 264.218 165.414 264.134 165.846 263.966C166.278 263.798 166.662 263.534 166.998 263.174L168.204 264.56C167.772 265.064 167.226 265.454 166.566 265.73C165.918 265.994 165.174 266.126 164.334 266.126ZM176.641 266.126C175.861 266.126 175.147 265.946 174.499 265.586C173.863 265.226 173.353 264.686 172.969 263.966C172.597 263.234 172.411 262.31 172.411 261.194C172.411 260.066 172.591 259.142 172.951 258.422C173.323 257.702 173.827 257.168 174.463 256.82C175.099 256.46 175.825 256.28 176.641 256.28C177.589 256.28 178.423 256.484 179.143 256.892C179.875 257.3 180.451 257.87 180.871 258.602C181.303 259.334 181.519 260.198 181.519 261.194C181.519 262.19 181.303 263.06 180.871 263.804C180.451 264.536 179.875 265.106 179.143 265.514C178.423 265.922 177.589 266.126 176.641 266.126ZM171.313 269.492V256.388H173.455V258.656L173.383 261.212L173.563 263.768V269.492H171.313ZM176.389 264.2C176.929 264.2 177.409 264.08 177.829 263.84C178.261 263.6 178.603 263.252 178.855 262.796C179.107 262.34 179.233 261.806 179.233 261.194C179.233 260.57 179.107 260.036 178.855 259.592C178.603 259.136 178.261 258.788 177.829 258.548C177.409 258.308 176.929 258.188 176.389 258.188C175.849 258.188 175.363 258.308 174.931 258.548C174.499 258.788 174.157 259.136 173.905 259.592C173.653 260.036 173.527 260.57 173.527 261.194C173.527 261.806 173.653 262.34 173.905 262.796C174.157 263.252 174.499 263.6 174.931 263.84C175.363 264.08 175.849 264.2 176.389 264.2ZM188.132 266.126C187.124 266.126 186.224 265.916 185.432 265.496C184.652 265.064 184.04 264.476 183.596 263.732C183.152 262.988 182.93 262.142 182.93 261.194C182.93 260.234 183.152 259.388 183.596 258.656C184.04 257.912 184.652 257.33 185.432 256.91C186.224 256.49 187.124 256.28 188.132 256.28C189.068 256.28 189.89 256.472 190.598 256.856C191.318 257.228 191.864 257.78 192.236 258.512L190.508 259.52C190.22 259.064 189.866 258.728 189.446 258.512C189.038 258.296 188.594 258.188 188.114 258.188C187.562 258.188 187.064 258.308 186.62 258.548C186.176 258.788 185.828 259.136 185.576 259.592C185.324 260.036 185.198 260.57 185.198 261.194C185.198 261.818 185.324 262.358 185.576 262.814C185.828 263.258 186.176 263.6 186.62 263.84C187.064 264.08 187.562 264.2 188.114 264.2C188.594 264.2 189.038 264.092 189.446 263.876C189.866 263.66 190.22 263.324 190.508 262.868L192.236 263.876C191.864 264.596 191.318 265.154 190.598 265.55C189.89 265.934 189.068 266.126 188.132 266.126ZM202.234 266.162C201.502 266.162 200.776 266.078 200.056 265.91C199.348 265.73 198.706 265.478 198.13 265.154L198.76 263.48C199.228 263.744 199.756 263.948 200.344 264.092C200.932 264.236 201.52 264.308 202.108 264.308C202.612 264.308 203.044 264.26 203.404 264.164C203.764 264.056 204.04 263.9 204.232 263.696C204.436 263.492 204.538 263.258 204.538 262.994C204.538 262.61 204.37 262.322 204.034 262.13C203.71 261.926 203.242 261.824 202.63 261.824H200.776V260.312H202.45C202.834 260.312 203.158 260.27 203.422 260.186C203.698 260.102 203.908 259.976 204.052 259.808C204.196 259.64 204.268 259.442 204.268 259.214C204.268 258.986 204.178 258.788 203.998 258.62C203.83 258.44 203.584 258.308 203.26 258.224C202.936 258.128 202.546 258.08 202.09 258.08C201.61 258.08 201.112 258.14 200.596 258.26C200.092 258.38 199.576 258.554 199.048 258.782L198.472 257.126C199.084 256.85 199.678 256.64 200.254 256.496C200.842 256.34 201.424 256.256 202 256.244C202.876 256.208 203.656 256.298 204.34 256.514C205.024 256.73 205.564 257.042 205.96 257.45C206.356 257.858 206.554 258.338 206.554 258.89C206.554 259.346 206.41 259.76 206.122 260.132C205.846 260.492 205.462 260.774 204.97 260.978C204.49 261.182 203.938 261.284 203.314 261.284L203.386 260.798C204.454 260.798 205.294 261.014 205.906 261.446C206.518 261.866 206.824 262.442 206.824 263.174C206.824 263.762 206.626 264.284 206.23 264.74C205.834 265.184 205.288 265.532 204.592 265.784C203.908 266.036 203.122 266.162 202.234 266.162ZM214.973 266V264.056L214.847 263.642V260.24C214.847 259.58 214.649 259.07 214.253 258.71C213.857 258.338 213.257 258.152 212.453 258.152C211.913 258.152 211.379 258.236 210.851 258.404C210.335 258.572 209.897 258.806 209.537 259.106L208.655 257.468C209.171 257.072 209.783 256.778 210.491 256.586C211.211 256.382 211.955 256.28 212.723 256.28C214.115 256.28 215.189 256.616 215.945 257.288C216.713 257.948 217.097 258.974 217.097 260.366V266H214.973ZM211.949 266.126C211.229 266.126 210.599 266.006 210.059 265.766C209.519 265.514 209.099 265.172 208.799 264.74C208.511 264.296 208.367 263.798 208.367 263.246C208.367 262.706 208.493 262.22 208.745 261.788C209.009 261.356 209.435 261.014 210.023 260.762C210.611 260.51 211.391 260.384 212.363 260.384H215.153V261.878H212.525C211.757 261.878 211.241 262.004 210.977 262.256C210.713 262.496 210.581 262.796 210.581 263.156C210.581 263.564 210.743 263.888 211.067 264.128C211.391 264.368 211.841 264.488 212.417 264.488C212.969 264.488 213.461 264.362 213.893 264.11C214.337 263.858 214.655 263.486 214.847 262.994L215.225 264.344C215.009 264.908 214.619 265.346 214.055 265.658C213.503 265.97 212.801 266.126 211.949 266.126ZM224.856 266V256.388H227.106V264.092H231.696V256.388H233.946V266H224.856ZM233.298 268.142V265.946L233.82 266H231.696V264.092H235.404V268.142H233.298ZM237.407 266V256.388H239.657V266H237.407ZM238.541 254.804C238.121 254.804 237.773 254.672 237.497 254.408C237.233 254.144 237.101 253.826 237.101 253.454C237.101 253.07 237.233 252.752 237.497 252.5C237.773 252.236 238.121 252.104 238.541 252.104C238.961 252.104 239.303 252.23 239.567 252.482C239.843 252.722 239.981 253.028 239.981 253.4C239.981 253.796 239.849 254.132 239.585 254.408C239.321 254.672 238.973 254.804 238.541 254.804ZM248.476 260.438V262.058H243.256V260.438H248.476ZM247.162 266.144C246.142 266.144 245.23 265.934 244.426 265.514C243.634 265.094 243.01 264.512 242.554 263.768C242.098 263.012 241.87 262.154 241.87 261.194C241.87 260.222 242.098 259.37 242.554 258.638C243.01 257.894 243.634 257.306 244.426 256.874C245.23 256.442 246.142 256.226 247.162 256.226C248.038 256.226 248.83 256.37 249.538 256.658C250.258 256.946 250.858 257.36 251.338 257.9L250.042 259.16C249.67 258.776 249.25 258.494 248.782 258.314C248.314 258.122 247.804 258.026 247.252 258.026C246.616 258.026 246.046 258.164 245.542 258.44C245.05 258.704 244.66 259.076 244.372 259.556C244.096 260.024 243.958 260.57 243.958 261.194C243.958 261.818 244.096 262.37 244.372 262.85C244.66 263.318 245.05 263.69 245.542 263.966C246.046 264.23 246.616 264.362 247.252 264.362C247.804 264.362 248.314 264.266 248.782 264.074C249.25 263.882 249.67 263.594 250.042 263.21L251.338 264.47C250.858 265.01 250.258 265.424 249.538 265.712C248.83 266 248.038 266.144 247.162 266.144ZM253.209 266V256.388H255.459V260.114H258.321V262.148H255.459V266H253.209ZM261.993 266.126C261.033 266.126 260.175 265.916 259.419 265.496C258.675 265.064 258.087 264.476 257.655 263.732C257.223 262.988 257.007 262.142 257.007 261.194C257.007 260.234 257.223 259.382 257.655 258.638C258.087 257.894 258.675 257.318 259.419 256.91C260.175 256.49 261.033 256.28 261.993 256.28C262.965 256.28 263.823 256.49 264.567 256.91C265.323 257.318 265.917 257.894 266.349 258.638C266.781 259.382 266.997 260.234 266.997 261.194C266.997 262.142 266.781 262.994 266.349 263.75C265.917 264.494 265.323 265.076 264.567 265.496C263.823 265.916 262.965 266.126 261.993 266.126ZM261.993 264.218C262.533 264.218 263.007 264.092 263.415 263.84C263.835 263.588 264.165 263.24 264.405 262.796C264.645 262.352 264.765 261.818 264.765 261.194C264.765 260.57 264.645 260.036 264.405 259.592C264.165 259.136 263.835 258.788 263.415 258.548C263.007 258.308 262.539 258.188 262.011 258.188C261.483 258.188 261.009 258.308 260.589 258.548C260.169 258.788 259.839 259.136 259.599 259.592C259.359 260.036 259.239 260.57 259.239 261.194C259.239 261.818 259.359 262.352 259.599 262.796C259.839 263.24 260.169 263.588 260.589 263.84C261.009 264.092 261.477 264.218 261.993 264.218ZM274.18 266V256.388H276.43V264.092H281.02V256.388H283.27V266H274.18ZM282.622 268.142V265.946L283.144 266H281.02V264.092H284.728V268.142H282.622ZM286.731 266V256.388H288.981V266H286.731ZM287.865 254.804C287.445 254.804 287.097 254.672 286.821 254.408C286.557 254.144 286.425 253.826 286.425 253.454C286.425 253.07 286.557 252.752 286.821 252.5C287.097 252.236 287.445 252.104 287.865 252.104C288.285 252.104 288.627 252.23 288.891 252.482C289.167 252.722 289.305 253.028 289.305 253.4C289.305 253.796 289.173 254.132 288.909 254.408C288.645 254.672 288.297 254.804 287.865 254.804ZM292.022 266V256.388H294.272V260.294H299.114V256.388H301.364V266H299.114V262.202H294.272V266H292.022ZM308.663 266.126C307.679 266.126 306.803 265.916 306.035 265.496C305.267 265.064 304.661 264.476 304.217 263.732C303.773 262.988 303.551 262.142 303.551 261.194C303.551 260.234 303.773 259.388 304.217 258.656C304.661 257.912 305.267 257.33 306.035 256.91C306.803 256.49 307.679 256.28 308.663 256.28C309.659 256.28 310.541 256.49 311.309 256.91C312.089 257.33 312.695 257.906 313.127 258.638C313.571 259.37 313.793 260.222 313.793 261.194C313.793 262.142 313.571 262.988 313.127 263.732C312.695 264.476 312.089 265.064 311.309 265.496C310.541 265.916 309.659 266.126 308.663 266.126ZM308.663 264.2C309.215 264.2 309.707 264.08 310.139 263.84C310.571 263.6 310.907 263.252 311.147 262.796C311.399 262.34 311.525 261.806 311.525 261.194C311.525 260.57 311.399 260.036 311.147 259.592C310.907 259.136 310.571 258.788 310.139 258.548C309.707 258.308 309.221 258.188 308.681 258.188C308.129 258.188 307.637 258.308 307.205 258.548C306.785 258.788 306.449 259.136 306.197 259.592C305.945 260.036 305.819 260.57 305.819 261.194C305.819 261.806 305.945 262.34 306.197 262.796C306.449 263.252 306.785 263.6 307.205 263.84C307.637 264.08 308.123 264.2 308.663 264.2ZM316.016 266V256.388H318.266V260.114H321.128V262.148H318.266V266H316.016ZM324.8 266.126C323.84 266.126 322.982 265.916 322.226 265.496C321.482 265.064 320.894 264.476 320.462 263.732C320.03 262.988 319.814 262.142 319.814 261.194C319.814 260.234 320.03 259.382 320.462 258.638C320.894 257.894 321.482 257.318 322.226 256.91C322.982 256.49 323.84 256.28 324.8 256.28C325.772 256.28 326.63 256.49 327.374 256.91C328.13 257.318 328.724 257.894 329.156 258.638C329.588 259.382 329.804 260.234 329.804 261.194C329.804 262.142 329.588 262.994 329.156 263.75C328.724 264.494 328.13 265.076 327.374 265.496C326.63 265.916 325.772 266.126 324.8 266.126ZM324.8 264.218C325.34 264.218 325.814 264.092 326.222 263.84C326.642 263.588 326.972 263.24 327.212 262.796C327.452 262.352 327.572 261.818 327.572 261.194C327.572 260.57 327.452 260.036 327.212 259.592C326.972 259.136 326.642 258.788 326.222 258.548C325.814 258.308 325.346 258.188 324.818 258.188C324.29 258.188 323.816 258.308 323.396 258.548C322.976 258.788 322.646 259.136 322.406 259.592C322.166 260.036 322.046 260.57 322.046 261.194C322.046 261.818 322.166 262.352 322.406 262.796C322.646 263.24 322.976 263.588 323.396 263.84C323.816 264.092 324.284 264.218 324.8 264.218Z" fill="#A2C33D"/>
<path d="M330 250H370" stroke="#A2C33D"/>
<path d="M327 82.0001L873.5 84.5102" stroke="#214B33"/>
<path d="M2.782 73V60.4H8.416C9.832 60.4 10.936 60.682 11.728 61.246C12.52 61.798 12.916 62.596 12.916 63.64C12.916 64.672 12.538 65.47 11.782 66.034C11.026 66.586 10.03 66.862 8.794 66.862L9.118 66.214C10.522 66.214 11.608 66.496 12.376 67.06C13.144 67.624 13.528 68.44 13.528 69.508C13.528 70.6 13.126 71.458 12.322 72.082C11.518 72.694 10.33 73 8.758 73H2.782ZM5.086 71.2H8.686C9.502 71.2 10.12 71.05 10.54 70.75C10.96 70.438 11.17 69.964 11.17 69.328C11.17 68.692 10.96 68.23 10.54 67.942C10.12 67.642 9.502 67.492 8.686 67.492H5.086V71.2ZM5.086 65.782H8.218C8.974 65.782 9.55 65.632 9.946 65.332C10.342 65.02 10.54 64.576 10.54 64C10.54 63.4 10.342 62.95 9.946 62.65C9.55 62.35 8.974 62.2 8.218 62.2H5.086V65.782ZM15.9417 73V63.388H18.1917V69.724L23.5017 63.388H25.5537V73H23.3037V66.664L18.0117 73H15.9417ZM33.555 73V63.388H42.771V73H40.539V64.774L41.061 65.296H35.283L35.805 64.774V73H33.555ZM51.1349 73.126C50.3549 73.126 49.6409 72.946 48.9929 72.586C48.3569 72.226 47.8469 71.686 47.4629 70.966C47.0909 70.234 46.9049 69.31 46.9049 68.194C46.9049 67.066 47.0849 66.142 47.4449 65.422C47.8169 64.702 48.3209 64.168 48.9569 63.82C49.5929 63.46 50.3189 63.28 51.1349 63.28C52.0829 63.28 52.9169 63.484 53.6369 63.892C54.3689 64.3 54.9449 64.87 55.3649 65.602C55.7969 66.334 56.0129 67.198 56.0129 68.194C56.0129 69.19 55.7969 70.06 55.3649 70.804C54.9449 71.536 54.3689 72.106 53.6369 72.514C52.9169 72.922 52.0829 73.126 51.1349 73.126ZM45.8069 76.492V63.388H47.9489V65.656L47.8769 68.212L48.0569 70.768V76.492H45.8069ZM50.8829 71.2C51.4229 71.2 51.9029 71.08 52.3229 70.84C52.7549 70.6 53.0969 70.252 53.3489 69.796C53.6009 69.34 53.7269 68.806 53.7269 68.194C53.7269 67.57 53.6009 67.036 53.3489 66.592C53.0969 66.136 52.7549 65.788 52.3229 65.548C51.9029 65.308 51.4229 65.188 50.8829 65.188C50.3429 65.188 49.8569 65.308 49.4249 65.548C48.9929 65.788 48.6509 66.136 48.3989 66.592C48.1469 67.036 48.0209 67.57 48.0209 68.194C48.0209 68.806 48.1469 69.34 48.3989 69.796C48.6509 70.252 48.9929 70.6 49.4249 70.84C49.8569 71.08 50.3429 71.2 50.8829 71.2ZM62.5362 73.126C61.5522 73.126 60.6762 72.916 59.9082 72.496C59.1402 72.064 58.5342 71.476 58.0902 70.732C57.6462 69.988 57.4242 69.142 57.4242 68.194C57.4242 67.234 57.6462 66.388 58.0902 65.656C58.5342 64.912 59.1402 64.33 59.9082 63.91C60.6762 63.49 61.5522 63.28 62.5362 63.28C63.5322 63.28 64.4142 63.49 65.1822 63.91C65.9622 64.33 66.5682 64.906 67.0002 65.638C67.4442 66.37 67.6662 67.222 67.6662 68.194C67.6662 69.142 67.4442 69.988 67.0002 70.732C66.5682 71.476 65.9622 72.064 65.1822 72.496C64.4142 72.916 63.5322 73.126 62.5362 73.126ZM62.5362 71.2C63.0882 71.2 63.5802 71.08 64.0122 70.84C64.4442 70.6 64.7802 70.252 65.0202 69.796C65.2722 69.34 65.3982 68.806 65.3982 68.194C65.3982 67.57 65.2722 67.036 65.0202 66.592C64.7802 66.136 64.4442 65.788 64.0122 65.548C63.5802 65.308 63.0942 65.188 62.5542 65.188C62.0022 65.188 61.5102 65.308 61.0782 65.548C60.6582 65.788 60.3222 66.136 60.0702 66.592C59.8182 67.036 59.6922 67.57 59.6922 68.194C59.6922 68.806 59.8182 69.34 60.0702 69.796C60.3222 70.252 60.6582 70.6 61.0782 70.84C61.5102 71.08 61.9962 71.2 62.5362 71.2ZM76.3715 71.956V65.296H72.6815L72.6275 66.844C72.6035 67.396 72.5675 67.93 72.5195 68.446C72.4715 68.95 72.3935 69.418 72.2855 69.85C72.1775 70.27 72.0215 70.618 71.8175 70.894C71.6135 71.17 71.3435 71.35 71.0075 71.434L68.7755 71.092C69.1355 71.092 69.4235 70.978 69.6395 70.75C69.8675 70.51 70.0415 70.186 70.1615 69.778C70.2935 69.358 70.3895 68.884 70.4495 68.356C70.5095 67.816 70.5515 67.258 70.5755 66.682L70.7015 63.388H78.6215V71.956H76.3715ZM68.4335 75.142V71.092H80.0435V75.142H77.9375V73H70.5215V75.142H68.4335ZM87.885 73V71.056L87.759 70.642V67.24C87.759 66.58 87.561 66.07 87.165 65.71C86.769 65.338 86.169 65.152 85.365 65.152C84.825 65.152 84.291 65.236 83.763 65.404C83.247 65.572 82.809 65.806 82.449 66.106L81.567 64.468C82.083 64.072 82.695 63.778 83.403 63.586C84.123 63.382 84.867 63.28 85.635 63.28C87.027 63.28 88.101 63.616 88.857 64.288C89.625 64.948 90.009 65.974 90.009 67.366V73H87.885ZM84.861 73.126C84.141 73.126 83.511 73.006 82.971 72.766C82.431 72.514 82.011 72.172 81.711 71.74C81.423 71.296 81.279 70.798 81.279 70.246C81.279 69.706 81.405 69.22 81.657 68.788C81.921 68.356 82.347 68.014 82.935 67.762C83.523 67.51 84.303 67.384 85.275 67.384H88.065V68.878H85.437C84.669 68.878 84.153 69.004 83.889 69.256C83.625 69.496 83.493 69.796 83.493 70.156C83.493 70.564 83.655 70.888 83.979 71.128C84.303 71.368 84.753 71.488 85.329 71.488C85.881 71.488 86.373 71.362 86.805 71.11C87.249 70.858 87.567 70.486 87.759 69.994L88.137 71.344C87.921 71.908 87.531 72.346 86.967 72.658C86.415 72.97 85.713 73.126 84.861 73.126ZM98.5713 67.438V69.058H93.3513V67.438H98.5713ZM97.2573 73.144C96.2373 73.144 95.3253 72.934 94.5213 72.514C93.7293 72.094 93.1053 71.512 92.6493 70.768C92.1933 70.012 91.9653 69.154 91.9653 68.194C91.9653 67.222 92.1933 66.37 92.6493 65.638C93.1053 64.894 93.7293 64.306 94.5213 63.874C95.3253 63.442 96.2373 63.226 97.2573 63.226C98.1333 63.226 98.9253 63.37 99.6333 63.658C100.353 63.946 100.953 64.36 101.433 64.9L100.137 66.16C99.7653 65.776 99.3453 65.494 98.8773 65.314C98.4093 65.122 97.8993 65.026 97.3473 65.026C96.7113 65.026 96.1413 65.164 95.6373 65.44C95.1453 65.704 94.7553 66.076 94.4673 66.556C94.1913 67.024 94.0533 67.57 94.0533 68.194C94.0533 68.818 94.1913 69.37 94.4673 69.85C94.7553 70.318 95.1453 70.69 95.6373 70.966C96.1413 71.23 96.7113 71.362 97.3473 71.362C97.8993 71.362 98.4093 71.266 98.8773 71.074C99.3453 70.882 99.7653 70.594 100.137 70.21L101.433 71.47C100.953 72.01 100.353 72.424 99.6333 72.712C98.9253 73 98.1333 73.144 97.2573 73.144ZM105.233 73V64.756L105.755 65.296H101.849V63.388H110.849V65.296H106.961L107.483 64.756V73H105.233ZM116.541 73.126C115.473 73.126 114.537 72.916 113.733 72.496C112.941 72.064 112.323 71.476 111.879 70.732C111.447 69.988 111.231 69.142 111.231 68.194C111.231 67.234 111.441 66.388 111.861 65.656C112.293 64.912 112.881 64.33 113.625 63.91C114.381 63.49 115.239 63.28 116.199 63.28C117.135 63.28 117.969 63.484 118.701 63.892C119.433 64.3 120.009 64.876 120.429 65.62C120.849 66.364 121.059 67.24 121.059 68.248C121.059 68.344 121.053 68.452 121.041 68.572C121.041 68.692 121.035 68.806 121.023 68.914H113.013V67.42H119.835L118.953 67.888C118.965 67.336 118.851 66.85 118.611 66.43C118.371 66.01 118.041 65.68 117.621 65.44C117.213 65.2 116.739 65.08 116.199 65.08C115.647 65.08 115.161 65.2 114.741 65.44C114.333 65.68 114.009 66.016 113.769 66.448C113.541 66.868 113.427 67.366 113.427 67.942V68.302C113.427 68.878 113.559 69.388 113.823 69.832C114.087 70.276 114.459 70.618 114.939 70.858C115.419 71.098 115.971 71.218 116.595 71.218C117.135 71.218 117.621 71.134 118.053 70.966C118.485 70.798 118.869 70.534 119.205 70.174L120.411 71.56C119.979 72.064 119.433 72.454 118.773 72.73C118.125 72.994 117.381 73.126 116.541 73.126ZM134.596 73.18C134.584 73.18 134.53 73.18 134.434 73.18C134.35 73.18 134.266 73.18 134.182 73.18C134.11 73.18 134.062 73.18 134.038 73.18C132.01 73.156 130.438 72.718 129.322 71.866C128.206 71.002 127.648 69.772 127.648 68.176C127.648 66.592 128.206 65.38 129.322 64.54C130.438 63.7 132.028 63.268 134.092 63.244C134.116 63.244 134.164 63.244 134.236 63.244C134.32 63.244 134.398 63.244 134.47 63.244C134.554 63.244 134.602 63.244 134.614 63.244C136.69 63.244 138.304 63.67 139.456 64.522C140.62 65.362 141.202 66.58 141.202 68.176C141.202 69.784 140.62 71.02 139.456 71.884C138.304 72.748 136.684 73.18 134.596 73.18ZM134.524 71.308C135.544 71.308 136.384 71.194 137.044 70.966C137.704 70.726 138.196 70.378 138.52 69.922C138.844 69.454 139.006 68.872 139.006 68.176C139.006 67.492 138.844 66.928 138.52 66.484C138.196 66.028 137.704 65.692 137.044 65.476C136.384 65.248 135.544 65.134 134.524 65.134C134.5 65.134 134.44 65.134 134.344 65.134C134.26 65.134 134.206 65.134 134.182 65.134C133.186 65.134 132.37 65.254 131.734 65.494C131.098 65.722 130.624 66.058 130.312 66.502C130.012 66.946 129.862 67.504 129.862 68.176C129.862 68.86 130.012 69.43 130.312 69.886C130.624 70.342 131.098 70.69 131.734 70.93C132.382 71.17 133.198 71.296 134.182 71.308C134.206 71.308 134.26 71.308 134.344 71.308C134.44 71.308 134.5 71.308 134.524 71.308ZM133.354 76.492V59.644H135.478V76.492H133.354ZM142.759 65.386L142.615 60.4H144.559L144.397 65.386H142.759ZM147.075 73V63.388H149.325V67.114H152.187V69.148H149.325V73H147.075ZM155.859 73.126C154.899 73.126 154.041 72.916 153.285 72.496C152.541 72.064 151.953 71.476 151.521 70.732C151.089 69.988 150.873 69.142 150.873 68.194C150.873 67.234 151.089 66.382 151.521 65.638C151.953 64.894 152.541 64.318 153.285 63.91C154.041 63.49 154.899 63.28 155.859 63.28C156.831 63.28 157.689 63.49 158.433 63.91C159.189 64.318 159.783 64.894 160.215 65.638C160.647 66.382 160.863 67.234 160.863 68.194C160.863 69.142 160.647 69.994 160.215 70.75C159.783 71.494 159.189 72.076 158.433 72.496C157.689 72.916 156.831 73.126 155.859 73.126ZM155.859 71.218C156.399 71.218 156.873 71.092 157.281 70.84C157.701 70.588 158.031 70.24 158.271 69.796C158.511 69.352 158.631 68.818 158.631 68.194C158.631 67.57 158.511 67.036 158.271 66.592C158.031 66.136 157.701 65.788 157.281 65.548C156.873 65.308 156.405 65.188 155.877 65.188C155.349 65.188 154.875 65.308 154.455 65.548C154.035 65.788 153.705 66.136 153.465 66.592C153.225 67.036 153.105 67.57 153.105 68.194C153.105 68.818 153.225 69.352 153.465 69.796C153.705 70.24 154.035 70.588 154.455 70.84C154.875 71.092 155.343 71.218 155.859 71.218ZM169.137 69.202C168.681 69.418 168.195 69.598 167.679 69.742C167.175 69.874 166.641 69.94 166.077 69.94C164.865 69.94 163.923 69.658 163.251 69.094C162.579 68.53 162.243 67.654 162.243 66.466V63.388H164.493V66.322C164.493 66.958 164.673 67.42 165.033 67.708C165.405 67.996 165.915 68.14 166.563 68.14C166.995 68.14 167.427 68.086 167.859 67.978C168.291 67.87 168.717 67.72 169.137 67.528V69.202ZM168.975 73V63.388H171.225V73H168.975ZM178.732 73.126C177.664 73.126 176.728 72.916 175.924 72.496C175.132 72.064 174.514 71.476 174.07 70.732C173.638 69.988 173.422 69.142 173.422 68.194C173.422 67.234 173.632 66.388 174.052 65.656C174.484 64.912 175.072 64.33 175.816 63.91C176.572 63.49 177.43 63.28 178.39 63.28C179.326 63.28 180.16 63.484 180.892 63.892C181.624 64.3 182.2 64.876 182.62 65.62C183.04 66.364 183.25 67.24 183.25 68.248C183.25 68.344 183.244 68.452 183.232 68.572C183.232 68.692 183.226 68.806 183.214 68.914H175.204V67.42H182.026L181.144 67.888C181.156 67.336 181.042 66.85 180.802 66.43C180.562 66.01 180.232 65.68 179.812 65.44C179.404 65.2 178.93 65.08 178.39 65.08C177.838 65.08 177.352 65.2 176.932 65.44C176.524 65.68 176.2 66.016 175.96 66.448C175.732 66.868 175.618 67.366 175.618 67.942V68.302C175.618 68.878 175.75 69.388 176.014 69.832C176.278 70.276 176.65 70.618 177.13 70.858C177.61 71.098 178.162 71.218 178.786 71.218C179.326 71.218 179.812 71.134 180.244 70.966C180.676 70.798 181.06 70.534 181.396 70.174L182.602 71.56C182.17 72.064 181.624 72.454 180.964 72.73C180.316 72.994 179.572 73.126 178.732 73.126ZM191.039 73.126C190.259 73.126 189.545 72.946 188.897 72.586C188.261 72.226 187.751 71.686 187.367 70.966C186.995 70.234 186.809 69.31 186.809 68.194C186.809 67.066 186.989 66.142 187.349 65.422C187.721 64.702 188.225 64.168 188.861 63.82C189.497 63.46 190.223 63.28 191.039 63.28C191.987 63.28 192.821 63.484 193.541 63.892C194.273 64.3 194.849 64.87 195.269 65.602C195.701 66.334 195.917 67.198 195.917 68.194C195.917 69.19 195.701 70.06 195.269 70.804C194.849 71.536 194.273 72.106 193.541 72.514C192.821 72.922 191.987 73.126 191.039 73.126ZM185.711 76.492V63.388H187.853V65.656L187.781 68.212L187.961 70.768V76.492H185.711ZM190.787 71.2C191.327 71.2 191.807 71.08 192.227 70.84C192.659 70.6 193.001 70.252 193.253 69.796C193.505 69.34 193.631 68.806 193.631 68.194C193.631 67.57 193.505 67.036 193.253 66.592C193.001 66.136 192.659 65.788 192.227 65.548C191.807 65.308 191.327 65.188 190.787 65.188C190.247 65.188 189.761 65.308 189.329 65.548C188.897 65.788 188.555 66.136 188.303 66.592C188.051 67.036 187.925 67.57 187.925 68.194C187.925 68.806 188.051 69.34 188.303 69.796C188.555 70.252 188.897 70.6 189.329 70.84C189.761 71.08 190.247 71.2 190.787 71.2ZM202.531 73.126C201.523 73.126 200.623 72.916 199.831 72.496C199.051 72.064 198.439 71.476 197.995 70.732C197.551 69.988 197.329 69.142 197.329 68.194C197.329 67.234 197.551 66.388 197.995 65.656C198.439 64.912 199.051 64.33 199.831 63.91C200.623 63.49 201.523 63.28 202.531 63.28C203.467 63.28 204.289 63.472 204.997 63.856C205.717 64.228 206.263 64.78 206.635 65.512L204.907 66.52C204.619 66.064 204.265 65.728 203.845 65.512C203.437 65.296 202.993 65.188 202.513 65.188C201.961 65.188 201.463 65.308 201.019 65.548C200.575 65.788 200.227 66.136 199.975 66.592C199.723 67.036 199.597 67.57 199.597 68.194C199.597 68.818 199.723 69.358 199.975 69.814C200.227 70.258 200.575 70.6 201.019 70.84C201.463 71.08 201.961 71.2 202.513 71.2C202.993 71.2 203.437 71.092 203.845 70.876C204.265 70.66 204.619 70.324 204.907 69.868L206.635 70.876C206.263 71.596 205.717 72.154 204.997 72.55C204.289 72.934 203.467 73.126 202.531 73.126ZM216.632 73.162C215.9 73.162 215.174 73.078 214.454 72.91C213.746 72.73 213.104 72.478 212.528 72.154L213.158 70.48C213.626 70.744 214.154 70.948 214.742 71.092C215.33 71.236 215.918 71.308 216.506 71.308C217.01 71.308 217.442 71.26 217.802 71.164C218.162 71.056 218.438 70.9 218.63 70.696C218.834 70.492 218.936 70.258 218.936 69.994C218.936 69.61 218.768 69.322 218.432 69.13C218.108 68.926 217.64 68.824 217.028 68.824H215.174V67.312H216.848C217.232 67.312 217.556 67.27 217.82 67.186C218.096 67.102 218.306 66.976 218.45 66.808C218.594 66.64 218.666 66.442 218.666 66.214C218.666 65.986 218.576 65.788 218.396 65.62C218.228 65.44 217.982 65.308 217.658 65.224C217.334 65.128 216.944 65.08 216.488 65.08C216.008 65.08 215.51 65.14 214.994 65.26C214.49 65.38 213.974 65.554 213.446 65.782L212.87 64.126C213.482 63.85 214.076 63.64 214.652 63.496C215.24 63.34 215.822 63.256 216.398 63.244C217.274 63.208 218.054 63.298 218.738 63.514C219.422 63.73 219.962 64.042 220.358 64.45C220.754 64.858 220.952 65.338 220.952 65.89C220.952 66.346 220.808 66.76 220.52 67.132C220.244 67.492 219.86 67.774 219.368 67.978C218.888 68.182 218.336 68.284 217.712 68.284L217.784 67.798C218.852 67.798 219.692 68.014 220.304 68.446C220.916 68.866 221.222 69.442 221.222 70.174C221.222 70.762 221.024 71.284 220.628 71.74C220.232 72.184 219.686 72.532 218.99 72.784C218.306 73.036 217.52 73.162 216.632 73.162ZM229.371 73V71.056L229.245 70.642V67.24C229.245 66.58 229.047 66.07 228.651 65.71C228.255 65.338 227.655 65.152 226.851 65.152C226.311 65.152 225.777 65.236 225.249 65.404C224.733 65.572 224.295 65.806 223.935 66.106L223.053 64.468C223.569 64.072 224.181 63.778 224.889 63.586C225.609 63.382 226.353 63.28 227.121 63.28C228.513 63.28 229.587 63.616 230.343 64.288C231.111 64.948 231.495 65.974 231.495 67.366V73H229.371ZM226.347 73.126C225.627 73.126 224.997 73.006 224.457 72.766C223.917 72.514 223.497 72.172 223.197 71.74C222.909 71.296 222.765 70.798 222.765 70.246C222.765 69.706 222.891 69.22 223.143 68.788C223.407 68.356 223.833 68.014 224.421 67.762C225.009 67.51 225.789 67.384 226.761 67.384H229.551V68.878H226.923C226.155 68.878 225.639 69.004 225.375 69.256C225.111 69.496 224.979 69.796 224.979 70.156C224.979 70.564 225.141 70.888 225.465 71.128C225.789 71.368 226.239 71.488 226.815 71.488C227.367 71.488 227.859 71.362 228.291 71.11C228.735 70.858 229.053 70.486 229.245 69.994L229.623 71.344C229.407 71.908 229.017 72.346 228.453 72.658C227.901 72.97 227.199 73.126 226.347 73.126ZM239.254 73V63.388H241.504V71.092H246.094V63.388H248.344V73H239.254ZM247.696 75.142V72.946L248.218 73H246.094V71.092H249.802V75.142H247.696ZM251.805 73V63.388H254.055V73H251.805ZM252.939 61.804C252.519 61.804 252.171 61.672 251.895 61.408C251.631 61.144 251.499 60.826 251.499 60.454C251.499 60.07 251.631 59.752 251.895 59.5C252.171 59.236 252.519 59.104 252.939 59.104C253.359 59.104 253.701 59.23 253.965 59.482C254.241 59.722 254.379 60.028 254.379 60.4C254.379 60.796 254.247 61.132 253.983 61.408C253.719 61.672 253.371 61.804 252.939 61.804ZM262.874 67.438V69.058H257.654V67.438H262.874ZM261.56 73.144C260.54 73.144 259.628 72.934 258.824 72.514C258.032 72.094 257.408 71.512 256.952 70.768C256.496 70.012 256.268 69.154 256.268 68.194C256.268 67.222 256.496 66.37 256.952 65.638C257.408 64.894 258.032 64.306 258.824 63.874C259.628 63.442 260.54 63.226 261.56 63.226C262.436 63.226 263.228 63.37 263.936 63.658C264.656 63.946 265.256 64.36 265.736 64.9L264.44 66.16C264.068 65.776 263.648 65.494 263.18 65.314C262.712 65.122 262.202 65.026 261.65 65.026C261.014 65.026 260.444 65.164 259.94 65.44C259.448 65.704 259.058 66.076 258.77 66.556C258.494 67.024 258.356 67.57 258.356 68.194C258.356 68.818 258.494 69.37 258.77 69.85C259.058 70.318 259.448 70.69 259.94 70.966C260.444 71.23 261.014 71.362 261.65 71.362C262.202 71.362 262.712 71.266 263.18 71.074C263.648 70.882 264.068 70.594 264.44 70.21L265.736 71.47C265.256 72.01 264.656 72.424 263.936 72.712C263.228 73 262.436 73.144 261.56 73.144ZM267.608 73V63.388H269.858V67.114H272.72V69.148H269.858V73H267.608ZM276.392 73.126C275.432 73.126 274.574 72.916 273.818 72.496C273.074 72.064 272.486 71.476 272.054 70.732C271.622 69.988 271.406 69.142 271.406 68.194C271.406 67.234 271.622 66.382 272.054 65.638C272.486 64.894 273.074 64.318 273.818 63.91C274.574 63.49 275.432 63.28 276.392 63.28C277.364 63.28 278.222 63.49 278.966 63.91C279.722 64.318 280.316 64.894 280.748 65.638C281.18 66.382 281.396 67.234 281.396 68.194C281.396 69.142 281.18 69.994 280.748 70.75C280.316 71.494 279.722 72.076 278.966 72.496C278.222 72.916 277.364 73.126 276.392 73.126ZM276.392 71.218C276.932 71.218 277.406 71.092 277.814 70.84C278.234 70.588 278.564 70.24 278.804 69.796C279.044 69.352 279.164 68.818 279.164 68.194C279.164 67.57 279.044 67.036 278.804 66.592C278.564 66.136 278.234 65.788 277.814 65.548C277.406 65.308 276.938 65.188 276.41 65.188C275.882 65.188 275.408 65.308 274.988 65.548C274.568 65.788 274.238 66.136 273.998 66.592C273.758 67.036 273.638 67.57 273.638 68.194C273.638 68.818 273.758 69.352 273.998 69.796C274.238 70.24 274.568 70.588 274.988 70.84C275.408 71.092 275.876 71.218 276.392 71.218ZM288.578 73V63.388H290.828V71.092H295.418V63.388H297.668V73H288.578ZM297.02 75.142V72.946L297.542 73H295.418V71.092H299.126V75.142H297.02ZM301.129 73V63.388H303.379V73H301.129ZM302.263 61.804C301.843 61.804 301.495 61.672 301.219 61.408C300.955 61.144 300.823 60.826 300.823 60.454C300.823 60.07 300.955 59.752 301.219 59.5C301.495 59.236 301.843 59.104 302.263 59.104C302.683 59.104 303.025 59.23 303.289 59.482C303.565 59.722 303.703 60.028 303.703 60.4C303.703 60.796 303.571 61.132 303.307 61.408C303.043 61.672 302.695 61.804 302.263 61.804ZM306.42 73V63.388H308.67V67.294H313.512V63.388H315.762V73H313.512V69.202H308.67V73H306.42ZM323.062 73.126C322.078 73.126 321.202 72.916 320.434 72.496C319.666 72.064 319.06 71.476 318.616 70.732C318.172 69.988 317.95 69.142 317.95 68.194C317.95 67.234 318.172 66.388 318.616 65.656C319.06 64.912 319.666 64.33 320.434 63.91C321.202 63.49 322.078 63.28 323.062 63.28C324.058 63.28 324.94 63.49 325.708 63.91C326.488 64.33 327.094 64.906 327.526 65.638C327.97 66.37 328.192 67.222 328.192 68.194C328.192 69.142 327.97 69.988 327.526 70.732C327.094 71.476 326.488 72.064 325.708 72.496C324.94 72.916 324.058 73.126 323.062 73.126ZM323.062 71.2C323.614 71.2 324.106 71.08 324.538 70.84C324.97 70.6 325.306 70.252 325.546 69.796C325.798 69.34 325.924 68.806 325.924 68.194C325.924 67.57 325.798 67.036 325.546 66.592C325.306 66.136 324.97 65.788 324.538 65.548C324.106 65.308 323.62 65.188 323.08 65.188C322.528 65.188 322.036 65.308 321.604 65.548C321.184 65.788 320.848 66.136 320.596 66.592C320.344 67.036 320.218 67.57 320.218 68.194C320.218 68.806 320.344 69.34 320.596 69.796C320.848 70.252 321.184 70.6 321.604 70.84C322.036 71.08 322.522 71.2 323.062 71.2ZM330.414 73V63.388H332.664V67.114H335.526V69.148H332.664V73H330.414ZM339.198 73.126C338.238 73.126 337.38 72.916 336.624 72.496C335.88 72.064 335.292 71.476 334.86 70.732C334.428 69.988 334.212 69.142 334.212 68.194C334.212 67.234 334.428 66.382 334.86 65.638C335.292 64.894 335.88 64.318 336.624 63.91C337.38 63.49 338.238 63.28 339.198 63.28C340.17 63.28 341.028 63.49 341.772 63.91C342.528 64.318 343.122 64.894 343.554 65.638C343.986 66.382 344.202 67.234 344.202 68.194C344.202 69.142 343.986 69.994 343.554 70.75C343.122 71.494 342.528 72.076 341.772 72.496C341.028 72.916 340.17 73.126 339.198 73.126ZM339.198 71.218C339.738 71.218 340.212 71.092 340.62 70.84C341.04 70.588 341.37 70.24 341.61 69.796C341.85 69.352 341.97 68.818 341.97 68.194C341.97 67.57 341.85 67.036 341.61 66.592C341.37 66.136 341.04 65.788 340.62 65.548C340.212 65.308 339.744 65.188 339.216 65.188C338.688 65.188 338.214 65.308 337.794 65.548C337.374 65.788 337.044 66.136 336.804 66.592C336.564 67.036 336.444 67.57 336.444 68.194C336.444 68.818 336.564 69.352 336.804 69.796C337.044 70.24 337.374 70.588 337.794 70.84C338.214 71.092 338.682 71.218 339.198 71.218Z" fill="#214B33"/>
<path d="M175 30L902 30" stroke="#BC0051"/>
<path d="M1.764 21V8.4H6.948C8.064 8.4 9.018 8.58 9.81 8.94C10.614 9.3 11.232 9.816 11.664 10.488C12.096 11.16 12.312 11.958 12.312 12.882C12.312 13.806 12.096 14.604 11.664 15.276C11.232 15.948 10.614 16.464 9.81 16.824C9.018 17.184 8.064 17.364 6.948 17.364H3.06L4.104 16.266V21H1.764ZM4.104 16.518L3.06 15.384H6.84C7.872 15.384 8.646 15.168 9.162 14.736C9.69 14.292 9.954 13.674 9.954 12.882C9.954 12.078 9.69 11.46 9.162 11.028C8.646 10.596 7.872 10.38 6.84 10.38H3.06L4.104 9.228V16.518ZM18.5226 21.126C17.5386 21.126 16.6626 20.916 15.8946 20.496C15.1266 20.064 14.5206 19.476 14.0766 18.732C13.6326 17.988 13.4106 17.142 13.4106 16.194C13.4106 15.234 13.6326 14.388 14.0766 13.656C14.5206 12.912 15.1266 12.33 15.8946 11.91C16.6626 11.49 17.5386 11.28 18.5226 11.28C19.5186 11.28 20.4006 11.49 21.1686 11.91C21.9486 12.33 22.5546 12.906 22.9866 13.638C23.4306 14.37 23.6526 15.222 23.6526 16.194C23.6526 17.142 23.4306 17.988 22.9866 18.732C22.5546 19.476 21.9486 20.064 21.1686 20.496C20.4006 20.916 19.5186 21.126 18.5226 21.126ZM18.5226 19.2C19.0746 19.2 19.5666 19.08 19.9986 18.84C20.4306 18.6 20.7666 18.252 21.0066 17.796C21.2586 17.34 21.3846 16.806 21.3846 16.194C21.3846 15.57 21.2586 15.036 21.0066 14.592C20.7666 14.136 20.4306 13.788 19.9986 13.548C19.5666 13.308 19.0806 13.188 18.5406 13.188C17.9886 13.188 17.4966 13.308 17.0646 13.548C16.6446 13.788 16.3086 14.136 16.0566 14.592C15.8046 15.036 15.6786 15.57 15.6786 16.194C15.6786 16.806 15.8046 17.34 16.0566 17.796C16.3086 18.252 16.6446 18.6 17.0646 18.84C17.4966 19.08 17.9826 19.2 18.5226 19.2ZM28.7767 21.162C28.0447 21.162 27.3187 21.078 26.5987 20.91C25.8907 20.73 25.2487 20.478 24.6727 20.154L25.3027 18.48C25.7707 18.744 26.2987 18.948 26.8867 19.092C27.4747 19.236 28.0627 19.308 28.6507 19.308C29.1547 19.308 29.5867 19.26 29.9467 19.164C30.3067 19.056 30.5827 18.9 30.7747 18.696C30.9787 18.492 31.0807 18.258 31.0807 17.994C31.0807 17.61 30.9127 17.322 30.5767 17.13C30.2527 16.926 29.7847 16.824 29.1727 16.824H27.3187V15.312H28.9927C29.3767 15.312 29.7007 15.27 29.9647 15.186C30.2407 15.102 30.4507 14.976 30.5947 14.808C30.7387 14.64 30.8107 14.442 30.8107 14.214C30.8107 13.986 30.7207 13.788 30.5407 13.62C30.3727 13.44 30.1267 13.308 29.8027 13.224C29.4787 13.128 29.0887 13.08 28.6327 13.08C28.1527 13.08 27.6547 13.14 27.1387 13.26C26.6347 13.38 26.1187 13.554 25.5907 13.782L25.0147 12.126C25.6267 11.85 26.2207 11.64 26.7967 11.496C27.3847 11.34 27.9667 11.256 28.5427 11.244C29.4187 11.208 30.1987 11.298 30.8827 11.514C31.5667 11.73 32.1067 12.042 32.5027 12.45C32.8987 12.858 33.0967 13.338 33.0967 13.89C33.0967 14.346 32.9527 14.76 32.6647 15.132C32.3887 15.492 32.0047 15.774 31.5127 15.978C31.0327 16.182 30.4807 16.284 29.8567 16.284L29.9287 15.798C30.9967 15.798 31.8367 16.014 32.4487 16.446C33.0607 16.866 33.3667 17.442 33.3667 18.174C33.3667 18.762 33.1687 19.284 32.7727 19.74C32.3767 20.184 31.8307 20.532 31.1347 20.784C30.4507 21.036 29.6647 21.162 28.7767 21.162ZM42.2719 19.956V13.296H38.5819L38.5279 14.844C38.5039 15.396 38.4679 15.93 38.4199 16.446C38.3719 16.95 38.2939 17.418 38.1859 17.85C38.0779 18.27 37.9219 18.618 37.7179 18.894C37.5139 19.17 37.2439 19.35 36.9079 19.434L34.6759 19.092C35.0359 19.092 35.3239 18.978 35.5399 18.75C35.7679 18.51 35.9419 18.186 36.0619 17.778C36.1939 17.358 36.2899 16.884 36.3499 16.356C36.4099 15.816 36.4519 15.258 36.4759 14.682L36.6019 11.388H44.5219V19.956H42.2719ZM34.3339 23.142V19.092H45.9439V23.142H43.8379V21H36.4219V23.142H34.3339ZM53.2814 21.126C52.5014 21.126 51.7874 20.946 51.1394 20.586C50.5034 20.226 49.9934 19.686 49.6094 18.966C49.2374 18.234 49.0514 17.31 49.0514 16.194C49.0514 15.066 49.2314 14.142 49.5914 13.422C49.9634 12.702 50.4674 12.168 51.1034 11.82C51.7394 11.46 52.4654 11.28 53.2814 11.28C54.2294 11.28 55.0634 11.484 55.7834 11.892C56.5154 12.3 57.0914 12.87 57.5114 13.602C57.9434 14.334 58.1594 15.198 58.1594 16.194C58.1594 17.19 57.9434 18.06 57.5114 18.804C57.0914 19.536 56.5154 20.106 55.7834 20.514C55.0634 20.922 54.2294 21.126 53.2814 21.126ZM47.9534 24.492V11.388H50.0954V13.656L50.0234 16.212L50.2034 18.768V24.492H47.9534ZM53.0294 19.2C53.5694 19.2 54.0494 19.08 54.4694 18.84C54.9014 18.6 55.2434 18.252 55.4954 17.796C55.7474 17.34 55.8734 16.806 55.8734 16.194C55.8734 15.57 55.7474 15.036 55.4954 14.592C55.2434 14.136 54.9014 13.788 54.4694 13.548C54.0494 13.308 53.5694 13.188 53.0294 13.188C52.4894 13.188 52.0034 13.308 51.5714 13.548C51.1394 13.788 50.7974 14.136 50.5454 14.592C50.2934 15.036 50.1674 15.57 50.1674 16.194C50.1674 16.806 50.2934 17.34 50.5454 17.796C50.7974 18.252 51.1394 18.6 51.5714 18.84C52.0034 19.08 52.4894 19.2 53.0294 19.2ZM60.3987 21V11.388H62.6487V21H60.3987ZM61.5327 9.804C61.1127 9.804 60.7647 9.672 60.4887 9.408C60.2247 9.144 60.0927 8.826 60.0927 8.454C60.0927 8.07 60.2247 7.752 60.4887 7.5C60.7647 7.236 61.1127 7.104 61.5327 7.104C61.9527 7.104 62.2947 7.23 62.5587 7.482C62.8347 7.722 62.9727 8.028 62.9727 8.4C62.9727 8.796 62.8407 9.132 62.5767 9.408C62.3127 9.672 61.9647 9.804 61.5327 9.804ZM70.2797 21.18C69.4877 21.18 68.7797 21.06 68.1557 20.82C67.5317 20.58 66.9917 20.214 66.5357 19.722C66.0917 19.218 65.7497 18.582 65.5097 17.814C65.2697 17.046 65.1497 16.134 65.1497 15.078C65.1497 14.31 65.2157 13.608 65.3477 12.972C65.4797 12.336 65.6777 11.766 65.9417 11.262C66.2057 10.746 66.5357 10.29 66.9317 9.894C67.3397 9.498 67.8137 9.168 68.3537 8.904C68.8937 8.64 69.5057 8.436 70.1897 8.292L74.6537 7.338L74.9777 9.354L70.9277 10.182C70.6997 10.23 70.4237 10.302 70.0997 10.398C69.7877 10.482 69.4637 10.614 69.1277 10.794C68.8037 10.962 68.4977 11.208 68.2097 11.532C67.9337 11.844 67.7057 12.252 67.5257 12.756C67.3577 13.248 67.2737 13.866 67.2737 14.61C67.2737 14.838 67.2797 15.012 67.2917 15.132C67.3157 15.24 67.3337 15.36 67.3457 15.492C67.3697 15.612 67.3817 15.792 67.3817 16.032L66.5357 15.15C66.7757 14.538 67.1057 14.016 67.5257 13.584C67.9577 13.14 68.4557 12.804 69.0197 12.576C69.5957 12.336 70.2197 12.216 70.8917 12.216C71.7917 12.216 72.5897 12.402 73.2857 12.774C73.9817 13.146 74.5277 13.668 74.9237 14.34C75.3197 15.012 75.5177 15.774 75.5177 16.626C75.5177 17.514 75.3017 18.3 74.8697 18.984C74.4377 19.668 73.8257 20.208 73.0337 20.604C72.2537 20.988 71.3357 21.18 70.2797 21.18ZM70.4597 19.362C70.9997 19.362 71.4737 19.248 71.8817 19.02C72.3017 18.78 72.6257 18.456 72.8537 18.048C73.0937 17.64 73.2137 17.184 73.2137 16.68C73.2137 16.176 73.0937 15.738 72.8537 15.366C72.6257 14.982 72.3017 14.676 71.8817 14.448C71.4737 14.22 70.9877 14.106 70.4237 14.106C69.8837 14.106 69.3977 14.214 68.9657 14.43C68.5457 14.646 68.2157 14.946 67.9757 15.33C67.7477 15.702 67.6337 16.134 67.6337 16.626C67.6337 17.13 67.7537 17.592 67.9937 18.012C68.2337 18.432 68.5637 18.762 68.9837 19.002C69.4157 19.242 69.9077 19.362 70.4597 19.362ZM77.6956 21V11.388H79.9456V15.294H84.7876V11.388H87.0376V21H84.7876V17.202H79.9456V21H77.6956ZM95.885 21V19.056L95.759 18.642V15.24C95.759 14.58 95.561 14.07 95.165 13.71C94.769 13.338 94.169 13.152 93.365 13.152C92.825 13.152 92.291 13.236 91.763 13.404C91.247 13.572 90.809 13.806 90.449 14.106L89.567 12.468C90.083 12.072 90.695 11.778 91.403 11.586C92.123 11.382 92.867 11.28 93.635 11.28C95.027 11.28 96.101 11.616 96.857 12.288C97.625 12.948 98.009 13.974 98.009 15.366V21H95.885ZM92.861 21.126C92.141 21.126 91.511 21.006 90.971 20.766C90.431 20.514 90.011 20.172 89.711 19.74C89.423 19.296 89.279 18.798 89.279 18.246C89.279 17.706 89.405 17.22 89.657 16.788C89.921 16.356 90.347 16.014 90.935 15.762C91.523 15.51 92.303 15.384 93.275 15.384H96.065V16.878H93.437C92.669 16.878 92.153 17.004 91.889 17.256C91.625 17.496 91.493 17.796 91.493 18.156C91.493 18.564 91.655 18.888 91.979 19.128C92.303 19.368 92.753 19.488 93.329 19.488C93.881 19.488 94.373 19.362 94.805 19.11C95.249 18.858 95.567 18.486 95.759 17.994L96.137 19.344C95.921 19.908 95.531 20.346 94.967 20.658C94.415 20.97 93.713 21.126 92.861 21.126ZM105.768 21V11.388H108.018V19.092H112.608V11.388H114.858V21H105.768ZM114.21 23.142V20.946L114.732 21H112.608V19.092H116.316V23.142H114.21ZM118.319 21V11.388H120.569V21H118.319ZM119.453 9.804C119.033 9.804 118.685 9.672 118.409 9.408C118.145 9.144 118.013 8.826 118.013 8.454C118.013 8.07 118.145 7.752 118.409 7.5C118.685 7.236 119.033 7.104 119.453 7.104C119.873 7.104 120.215 7.23 120.479 7.482C120.755 7.722 120.893 8.028 120.893 8.4C120.893 8.796 120.761 9.132 120.497 9.408C120.233 9.672 119.885 9.804 119.453 9.804ZM123.61 21V11.388H125.86V15.294H130.702V11.388H132.952V21H130.702V17.202H125.86V21H123.61ZM141.799 21V19.056L141.673 18.642V15.24C141.673 14.58 141.475 14.07 141.079 13.71C140.683 13.338 140.083 13.152 139.279 13.152C138.739 13.152 138.205 13.236 137.677 13.404C137.161 13.572 136.723 13.806 136.363 14.106L135.481 12.468C135.997 12.072 136.609 11.778 137.317 11.586C138.037 11.382 138.781 11.28 139.549 11.28C140.941 11.28 142.015 11.616 142.771 12.288C143.539 12.948 143.923 13.974 143.923 15.366V21H141.799ZM138.775 21.126C138.055 21.126 137.425 21.006 136.885 20.766C136.345 20.514 135.925 20.172 135.625 19.74C135.337 19.296 135.193 18.798 135.193 18.246C135.193 17.706 135.319 17.22 135.571 16.788C135.835 16.356 136.261 16.014 136.849 15.762C137.437 15.51 138.217 15.384 139.189 15.384H141.979V16.878H139.351C138.583 16.878 138.067 17.004 137.803 17.256C137.539 17.496 137.407 17.796 137.407 18.156C137.407 18.564 137.569 18.888 137.893 19.128C138.217 19.368 138.667 19.488 139.243 19.488C139.795 19.488 140.287 19.362 140.719 19.11C141.163 18.858 141.481 18.486 141.673 17.994L142.051 19.344C141.835 19.908 141.445 20.346 140.881 20.658C140.329 20.97 139.627 21.126 138.775 21.126Z" fill="#BC0051"/>
<path d="M350 167L1 167" stroke="#A2C33D"/>
<path d="M4.168 159V136.6H14.184C16.7013 136.6 18.664 137.101 20.072 138.104C21.48 139.085 22.184 140.504 22.184 142.36C22.184 144.195 21.512 145.613 20.168 146.616C18.824 147.597 17.0533 148.088 14.856 148.088L15.432 146.936C17.928 146.936 19.8587 147.437 21.224 148.44C22.5893 149.443 23.272 150.893 23.272 152.792C23.272 154.733 22.5573 156.259 21.128 157.368C19.6987 158.456 17.5867 159 14.792 159H4.168ZM8.264 155.8H14.664C16.1147 155.8 17.2133 155.533 17.96 155C18.7067 154.445 19.08 153.603 19.08 152.472C19.08 151.341 18.7067 150.52 17.96 150.008C17.2133 149.475 16.1147 149.208 14.664 149.208H8.264V155.8ZM8.264 146.168H13.832C15.176 146.168 16.2 145.901 16.904 145.368C17.608 144.813 17.96 144.024 17.96 143C17.96 141.933 17.608 141.133 16.904 140.6C16.2 140.067 15.176 139.8 13.832 139.8H8.264V146.168ZM37.931 159V155.544L37.707 154.808V148.76C37.707 147.587 37.355 146.68 36.651 146.04C35.947 145.379 34.8803 145.048 33.451 145.048C32.491 145.048 31.5417 145.197 30.603 145.496C29.6857 145.795 28.907 146.211 28.267 146.744L26.699 143.832C27.6163 143.128 28.7043 142.605 29.963 142.264C31.243 141.901 32.5657 141.72 33.931 141.72C36.4057 141.72 38.315 142.317 39.659 143.512C41.0243 144.685 41.707 146.509 41.707 148.984V159H37.931ZM32.555 159.224C31.275 159.224 30.155 159.011 29.195 158.584C28.235 158.136 27.4883 157.528 26.955 156.76C26.443 155.971 26.187 155.085 26.187 154.104C26.187 153.144 26.411 152.28 26.859 151.512C27.3283 150.744 28.0857 150.136 29.131 149.688C30.1763 149.24 31.563 149.016 33.291 149.016H38.251V151.672H33.579C32.2137 151.672 31.2963 151.896 30.827 152.344C30.3577 152.771 30.123 153.304 30.123 153.944C30.123 154.669 30.411 155.245 30.987 155.672C31.563 156.099 32.363 156.312 33.387 156.312C34.3683 156.312 35.243 156.088 36.011 155.64C36.8003 155.192 37.3657 154.531 37.707 153.656L38.379 156.056C37.995 157.059 37.3017 157.837 36.299 158.392C35.3177 158.947 34.0697 159.224 32.555 159.224ZM58.1448 155.608L57.2808 156.568V141.912H61.2808V156.568L60.3208 155.608H68.7688L67.8408 156.568V141.912H71.8408V159H46.6568V141.912H50.6568V156.568L49.7288 155.608H58.1448ZM87.5873 159V155.544L87.3633 154.808V148.76C87.3633 147.587 87.0113 146.68 86.3073 146.04C85.6033 145.379 84.5366 145.048 83.1073 145.048C82.1473 145.048 81.1979 145.197 80.2593 145.496C79.3419 145.795 78.5633 146.211 77.9233 146.744L76.3553 143.832C77.2726 143.128 78.3606 142.605 79.6193 142.264C80.8993 141.901 82.2219 141.72 83.5873 141.72C86.0619 141.72 87.9713 142.317 89.3153 143.512C90.6806 144.685 91.3633 146.509 91.3633 148.984V159H87.5873ZM82.2113 159.224C80.9313 159.224 79.8113 159.011 78.8513 158.584C77.8913 158.136 77.1446 157.528 76.6113 156.76C76.0993 155.971 75.8433 155.085 75.8433 154.104C75.8433 153.144 76.0673 152.28 76.5153 151.512C76.9846 150.744 77.7419 150.136 78.7873 149.688C79.8326 149.24 81.2193 149.016 82.9473 149.016H87.9073V151.672H83.2353C81.8699 151.672 80.9526 151.896 80.4833 152.344C80.0139 152.771 79.7793 153.304 79.7793 153.944C79.7793 154.669 80.0673 155.245 80.6433 155.672C81.2193 156.099 82.0193 156.312 83.0433 156.312C84.0246 156.312 84.8993 156.088 85.6673 155.64C86.4566 155.192 87.0219 154.531 87.3633 153.656L88.0353 156.056C87.6513 157.059 86.9579 157.837 85.9553 158.392C84.9739 158.947 83.7259 159.224 82.2113 159.224ZM105.157 159V141.912H113.509C115.578 141.912 117.199 142.296 118.373 143.064C119.567 143.832 120.165 144.92 120.165 146.328C120.165 147.715 119.61 148.803 118.501 149.592C117.391 150.36 115.919 150.744 114.085 150.744L114.565 149.752C116.634 149.752 118.17 150.136 119.173 150.904C120.197 151.651 120.709 152.749 120.709 154.2C120.709 155.715 120.143 156.899 119.013 157.752C117.882 158.584 116.165 159 113.861 159H105.157ZM108.965 156.088H113.541C114.629 156.088 115.45 155.917 116.005 155.576C116.559 155.213 116.837 154.669 116.837 153.944C116.837 153.176 116.581 152.611 116.069 152.248C115.557 151.885 114.757 151.704 113.669 151.704H108.965V156.088ZM108.965 149.048H113.157C114.181 149.048 114.949 148.867 115.461 148.504C115.994 148.12 116.261 147.587 116.261 146.904C116.261 146.2 115.994 145.677 115.461 145.336C114.949 144.995 114.181 144.824 113.157 144.824H108.965V149.048ZM124.969 159V141.912H128.969V153.176L138.409 141.912H142.057V159H138.057V147.736L128.649 159H124.969ZM147.438 159V141.912H160.558V145.304H150.51L151.438 144.408V159H147.438ZM170.335 159.224C168.586 159.224 167.029 158.851 165.663 158.104C164.298 157.336 163.221 156.291 162.431 154.968C161.642 153.645 161.247 152.141 161.247 150.456C161.247 148.749 161.642 147.245 162.431 145.944C163.221 144.621 164.298 143.587 165.663 142.84C167.029 142.093 168.586 141.72 170.335 141.72C172.106 141.72 173.674 142.093 175.039 142.84C176.426 143.587 177.503 144.611 178.271 145.912C179.061 147.213 179.455 148.728 179.455 150.456C179.455 152.141 179.061 153.645 178.271 154.968C177.503 156.291 176.426 157.336 175.039 158.104C173.674 158.851 172.106 159.224 170.335 159.224ZM170.335 155.8C171.317 155.8 172.191 155.587 172.959 155.16C173.727 154.733 174.325 154.115 174.751 153.304C175.199 152.493 175.423 151.544 175.423 150.456C175.423 149.347 175.199 148.397 174.751 147.608C174.325 146.797 173.727 146.179 172.959 145.752C172.191 145.325 171.327 145.112 170.367 145.112C169.386 145.112 168.511 145.325 167.743 145.752C166.997 146.179 166.399 146.797 165.951 147.608C165.503 148.397 165.279 149.347 165.279 150.456C165.279 151.544 165.503 152.493 165.951 153.304C166.399 154.115 166.997 154.733 167.743 155.16C168.511 155.587 169.375 155.8 170.335 155.8ZM194.931 157.144V145.304H188.371L188.275 148.056C188.233 149.037 188.169 149.987 188.083 150.904C187.998 151.8 187.859 152.632 187.667 153.4C187.475 154.147 187.198 154.765 186.835 155.256C186.473 155.747 185.993 156.067 185.395 156.216L181.427 155.608C182.067 155.608 182.579 155.405 182.963 155C183.369 154.573 183.678 153.997 183.891 153.272C184.126 152.525 184.297 151.683 184.403 150.744C184.51 149.784 184.585 148.792 184.627 147.768L184.851 141.912H198.931V157.144H194.931ZM180.819 162.808V155.608H201.459V162.808H197.715V159H184.531V162.808H180.819ZM215.4 159V155.544L215.176 154.808V148.76C215.176 147.587 214.824 146.68 214.12 146.04C213.416 145.379 212.349 145.048 210.92 145.048C209.96 145.048 209.01 145.197 208.072 145.496C207.154 145.795 206.376 146.211 205.736 146.744L204.168 143.832C205.085 143.128 206.173 142.605 207.432 142.264C208.712 141.901 210.034 141.72 211.4 141.72C213.874 141.72 215.784 142.317 217.128 143.512C218.493 144.685 219.176 146.509 219.176 148.984V159H215.4ZM210.024 159.224C208.744 159.224 207.624 159.011 206.664 158.584C205.704 158.136 204.957 157.528 204.424 156.76C203.912 155.971 203.656 155.085 203.656 154.104C203.656 153.144 203.88 152.28 204.328 151.512C204.797 150.744 205.554 150.136 206.6 149.688C207.645 149.24 209.032 149.016 210.76 149.016H215.72V151.672H211.048C209.682 151.672 208.765 151.896 208.296 152.344C207.826 152.771 207.592 153.304 207.592 153.944C207.592 154.669 207.88 155.245 208.456 155.672C209.032 156.099 209.832 156.312 210.856 156.312C211.837 156.312 212.712 156.088 213.48 155.64C214.269 155.192 214.834 154.531 215.176 153.656L215.848 156.056C215.464 157.059 214.77 157.837 213.768 158.392C212.786 158.947 211.538 159.224 210.024 159.224Z" fill="#A2C33D"/>
<path d="M343.436 370V360.62L343.884 361.096H341.126V360.2H344.444V370H343.436ZM356.527 370L353.503 366.36L354.329 365.87L357.703 370H356.527ZM351.137 370V362.65H352.131V370H351.137ZM351.823 366.724V365.87H354.189V366.724H351.823ZM354.413 366.43L353.489 366.29L356.415 362.65H357.493L354.413 366.43ZM359.271 370V362.65H362.519C363.35 362.65 364.003 362.809 364.479 363.126C364.965 363.443 365.207 363.91 365.207 364.526C365.207 365.123 364.979 365.585 364.521 365.912C364.064 366.229 363.462 366.388 362.715 366.388L362.911 366.094C363.789 366.094 364.433 366.257 364.843 366.584C365.254 366.911 365.459 367.382 365.459 367.998C365.459 368.633 365.226 369.127 364.759 369.482C364.302 369.827 363.588 370 362.617 370H359.271ZM360.237 369.216H362.575C363.201 369.216 363.672 369.118 363.989 368.922C364.316 368.717 364.479 368.39 364.479 367.942C364.479 367.494 364.335 367.167 364.045 366.962C363.756 366.757 363.299 366.654 362.673 366.654H360.237V369.216ZM360.237 365.912H362.449C363.019 365.912 363.453 365.805 363.751 365.59C364.059 365.375 364.213 365.063 364.213 364.652C364.213 364.241 364.059 363.933 363.751 363.728C363.453 363.523 363.019 363.42 362.449 363.42H360.237V365.912ZM367.789 370V362.65H368.783V370H367.789ZM368.293 361.026C368.088 361.026 367.915 360.956 367.775 360.816C367.635 360.676 367.565 360.508 367.565 360.312C367.565 360.116 367.635 359.953 367.775 359.822C367.915 359.682 368.088 359.612 368.293 359.612C368.498 359.612 368.671 359.677 368.811 359.808C368.951 359.939 369.021 360.102 369.021 360.298C369.021 360.503 368.951 360.676 368.811 360.816C368.68 360.956 368.508 361.026 368.293 361.026ZM373.017 370V363.252L373.269 363.518H370.231V362.65H376.797V363.518H373.759L374.011 363.252V370H373.017ZM378.234 370V362.65H379.228V365.898H383.862V362.65H384.856V370H383.862V366.752H379.228V370H378.234ZM392.428 370V367.354L392.61 367.564H390.118C389.175 367.564 388.438 367.359 387.906 366.948C387.374 366.537 387.108 365.94 387.108 365.156C387.108 364.316 387.392 363.691 387.962 363.28C388.531 362.86 389.292 362.65 390.244 362.65H393.338V370H392.428ZM387.052 370L389.068 367.172H390.104L388.13 370H387.052ZM392.428 367.06V363.224L392.61 363.518H390.272C389.59 363.518 389.058 363.649 388.676 363.91C388.302 364.171 388.116 364.596 388.116 365.184C388.116 366.276 388.811 366.822 390.202 366.822H392.61L392.428 367.06Z" fill="#313131"/>
<path d="M851.654 370.084C850.945 370.084 850.273 369.972 849.638 369.748C849.013 369.515 848.509 369.207 848.126 368.824L848.616 368.026C848.933 368.353 849.358 368.623 849.89 368.838C850.431 369.053 851.019 369.16 851.654 369.16C852.466 369.16 853.087 368.983 853.516 368.628C853.955 368.273 854.174 367.797 854.174 367.2C854.174 366.603 853.959 366.127 853.53 365.772C853.11 365.417 852.443 365.24 851.528 365.24H850.828V364.498L853.852 360.704L853.992 361.096H848.532V360.2H854.832V360.914L851.808 364.708L851.318 364.386H851.696C852.872 364.386 853.749 364.647 854.328 365.17C854.916 365.693 855.21 366.365 855.21 367.186C855.21 367.737 855.079 368.231 854.818 368.67C854.557 369.109 854.16 369.454 853.628 369.706C853.105 369.958 852.447 370.084 851.654 370.084ZM860.536 370.084C859.78 370.084 859.108 369.888 858.52 369.496C857.932 369.095 857.47 368.525 857.134 367.788C856.798 367.041 856.63 366.145 856.63 365.1C856.63 364.055 856.798 363.163 857.134 362.426C857.47 361.679 857.932 361.11 858.52 360.718C859.108 360.317 859.78 360.116 860.536 360.116C861.292 360.116 861.964 360.317 862.552 360.718C863.14 361.11 863.602 361.679 863.938 362.426C864.284 363.163 864.456 364.055 864.456 365.1C864.456 366.145 864.284 367.041 863.938 367.788C863.602 368.525 863.14 369.095 862.552 369.496C861.964 369.888 861.292 370.084 860.536 370.084ZM860.536 369.16C861.115 369.16 861.619 369.006 862.048 368.698C862.478 368.381 862.814 367.923 863.056 367.326C863.299 366.719 863.42 365.977 863.42 365.1C863.42 364.223 863.299 363.485 863.056 362.888C862.814 362.281 862.478 361.824 862.048 361.516C861.619 361.199 861.115 361.04 860.536 361.04C859.976 361.04 859.477 361.199 859.038 361.516C858.6 361.824 858.259 362.281 858.016 362.888C857.774 363.485 857.652 364.223 857.652 365.1C857.652 365.977 857.774 366.719 858.016 367.326C858.259 367.923 858.6 368.381 859.038 368.698C859.477 369.006 859.976 369.16 860.536 369.16ZM875.64 370L872.616 366.36L873.442 365.87L876.816 370H875.64ZM870.25 370V362.65H871.244V370H870.25ZM870.936 366.724V365.87H873.302V366.724H870.936ZM873.526 366.43L872.602 366.29L875.528 362.65H876.606L873.526 366.43ZM878.385 370V362.65H881.633C882.463 362.65 883.117 362.809 883.593 363.126C884.078 363.443 884.321 363.91 884.321 364.526C884.321 365.123 884.092 365.585 883.635 365.912C883.177 366.229 882.575 366.388 881.829 366.388L882.025 366.094C882.902 366.094 883.546 366.257 883.957 366.584C884.367 366.911 884.573 367.382 884.573 367.998C884.573 368.633 884.339 369.127 883.873 369.482C883.415 369.827 882.701 370 881.731 370H878.385ZM879.351 369.216H881.689C882.314 369.216 882.785 369.118 883.103 368.922C883.429 368.717 883.593 368.39 883.593 367.942C883.593 367.494 883.448 367.167 883.159 366.962C882.869 366.757 882.412 366.654 881.787 366.654H879.351V369.216ZM879.351 365.912H881.563C882.132 365.912 882.566 365.805 882.865 365.59C883.173 365.375 883.327 365.063 883.327 364.652C883.327 364.241 883.173 363.933 882.865 363.728C882.566 363.523 882.132 363.42 881.563 363.42H879.351V365.912ZM886.902 370V362.65H887.896V370H886.902ZM887.406 361.026C887.201 361.026 887.028 360.956 886.888 360.816C886.748 360.676 886.678 360.508 886.678 360.312C886.678 360.116 886.748 359.953 886.888 359.822C887.028 359.682 887.201 359.612 887.406 359.612C887.612 359.612 887.784 359.677 887.924 359.808C888.064 359.939 888.134 360.102 888.134 360.298C888.134 360.503 888.064 360.676 887.924 360.816C887.794 360.956 887.621 361.026 887.406 361.026ZM892.13 370V363.252L892.382 363.518H889.344V362.65H895.91V363.518H892.872L893.124 363.252V370H892.13ZM897.348 370V362.65H898.342V365.898H902.976V362.65H903.97V370H902.976V366.752H898.342V370H897.348ZM911.541 370V367.354L911.723 367.564H909.231C908.288 367.564 907.551 367.359 907.019 366.948C906.487 366.537 906.221 365.94 906.221 365.156C906.221 364.316 906.506 363.691 907.075 363.28C907.644 362.86 908.405 362.65 909.357 362.65H912.451V370H911.541ZM906.165 370L908.181 367.172H909.217L907.243 370H906.165ZM911.541 367.06V363.224L911.723 363.518H909.385C908.704 363.518 908.172 363.649 907.789 363.91C907.416 364.171 907.229 364.596 907.229 365.184C907.229 366.276 907.924 366.822 909.315 366.822H911.723L911.541 367.06Z" fill="#313131"/>
<path d="M592.436 370V360.62L592.884 361.096H590.126V360.2H593.444V370H592.436ZM598.881 370.084C598.181 370.084 597.513 369.972 596.879 369.748C596.244 369.515 595.74 369.207 595.367 368.824L595.857 368.026C596.165 368.353 596.585 368.623 597.117 368.838C597.658 369.053 598.241 369.16 598.867 369.16C599.697 369.16 600.327 368.978 600.757 368.614C601.195 368.241 601.415 367.755 601.415 367.158C601.415 366.738 601.312 366.379 601.107 366.08C600.911 365.772 600.575 365.534 600.099 365.366C599.623 365.198 598.969 365.114 598.139 365.114H596.053L596.557 360.2H601.919V361.096H596.963L597.481 360.606L597.047 364.722L596.529 364.218H598.363C599.352 364.218 600.145 364.339 600.743 364.582C601.34 364.825 601.769 365.165 602.031 365.604C602.301 366.033 602.437 366.537 602.437 367.116C602.437 367.667 602.306 368.171 602.045 368.628C601.783 369.076 601.391 369.431 600.869 369.692C600.346 369.953 599.683 370.084 598.881 370.084ZM613.456 370L610.432 366.36L611.258 365.87L614.632 370H613.456ZM608.066 370V362.65H609.06V370H608.066ZM608.752 366.724V365.87H611.118V366.724H608.752ZM611.342 366.43L610.418 366.29L613.344 362.65H614.422L611.342 366.43ZM616.201 370V362.65H619.449C620.28 362.65 620.933 362.809 621.409 363.126C621.894 363.443 622.137 363.91 622.137 364.526C622.137 365.123 621.908 365.585 621.451 365.912C620.994 366.229 620.392 366.388 619.645 366.388L619.841 366.094C620.718 366.094 621.362 366.257 621.773 366.584C622.184 366.911 622.389 367.382 622.389 367.998C622.389 368.633 622.156 369.127 621.689 369.482C621.232 369.827 620.518 370 619.547 370H616.201ZM617.167 369.216H619.505C620.13 369.216 620.602 369.118 620.919 368.922C621.246 368.717 621.409 368.39 621.409 367.942C621.409 367.494 621.264 367.167 620.975 366.962C620.686 366.757 620.228 366.654 619.603 366.654H617.167V369.216ZM617.167 365.912H619.379C619.948 365.912 620.382 365.805 620.681 365.59C620.989 365.375 621.143 365.063 621.143 364.652C621.143 364.241 620.989 363.933 620.681 363.728C620.382 363.523 619.948 363.42 619.379 363.42H617.167V365.912ZM624.719 370V362.65H625.713V370H624.719ZM625.223 361.026C625.017 361.026 624.845 360.956 624.705 360.816C624.565 360.676 624.495 360.508 624.495 360.312C624.495 360.116 624.565 359.953 624.705 359.822C624.845 359.682 625.017 359.612 625.223 359.612C625.428 359.612 625.601 359.677 625.741 359.808C625.881 359.939 625.951 360.102 625.951 360.298C625.951 360.503 625.881 360.676 625.741 360.816C625.61 360.956 625.437 361.026 625.223 361.026ZM629.947 370V363.252L630.199 363.518H627.161V362.65H633.727V363.518H630.689L630.941 363.252V370H629.947ZM635.164 370V362.65H636.158V365.898H640.792V362.65H641.786V370H640.792V366.752H636.158V370H635.164ZM649.357 370V367.354L649.539 367.564H647.047C646.105 367.564 645.367 367.359 644.835 366.948C644.303 366.537 644.037 365.94 644.037 365.156C644.037 364.316 644.322 363.691 644.891 363.28C645.461 362.86 646.221 362.65 647.173 362.65H650.267V370H649.357ZM643.981 370L645.997 367.172H647.033L645.059 370H643.981ZM649.357 367.06V363.224L649.539 363.518H647.201C646.52 363.518 645.988 363.649 645.605 363.91C645.232 364.171 645.045 364.596 645.045 365.184C645.045 366.276 645.741 366.822 647.131 366.822H649.539L649.357 367.06Z" fill="#313131"/>
</svg>
