<svg width="689" height="375" viewBox="0 0 689 375" fill="none" xmlns="http://www.w3.org/2000/svg">
<rect x="687" y="349" width="20" height="320" transform="rotate(180 687 349)" fill="#BC0051"/>
<rect x="660" y="349" width="20" height="266" transform="rotate(180 660 349)" fill="#214B33"/>
<rect x="633" y="349" width="20" height="254" transform="rotate(180 633 349)" fill="#A2C33D" fill-opacity="0.4"/>
<rect x="606" y="349" width="20" height="248" transform="rotate(180 606 349)" fill="#A2C33D" fill-opacity="0.4"/>
<rect x="579" y="349" width="20" height="240" transform="rotate(180 579 349)" fill="#A2C33D" fill-opacity="0.4"/>
<rect x="552" y="349" width="20" height="226" transform="rotate(180 552 349)" fill="#A2C33D" fill-opacity="0.4"/>
<rect x="525" y="349" width="20" height="220" transform="rotate(180 525 349)" fill="#A2C33D" fill-opacity="0.4"/>
<rect x="498" y="349" width="20" height="200" transform="rotate(180 498 349)" fill="#A2C33D" fill-opacity="0.4"/>
<rect x="471" y="349" width="20" height="196" transform="rotate(180 471 349)" fill="#A2C33D" fill-opacity="0.4"/>
<rect x="444" y="349" width="20" height="184" transform="rotate(180 444 349)" fill="#A2C33D" fill-opacity="0.4"/>
<rect x="417" y="349" width="20" height="184" transform="rotate(180 417 349)" fill="#A2C33D" fill-opacity="0.4"/>
<rect x="390" y="349" width="20" height="176" transform="rotate(180 390 349)" fill="#A2C33D" fill-opacity="0.4"/>
<rect x="363" y="349" width="20" height="172" transform="rotate(180 363 349)" fill="#A2C33D" fill-opacity="0.4"/>
<rect x="336" y="349" width="20" height="172" transform="rotate(180 336 349)" fill="#A2C33D" fill-opacity="0.4"/>
<rect x="309" y="349" width="20" height="152" transform="rotate(180 309 349)" fill="#A2C33D" fill-opacity="0.4"/>
<rect x="282" y="349" width="20" height="144" transform="rotate(180 282 349)" fill="#A2C33D" fill-opacity="0.4"/>
<rect x="255" y="349" width="20" height="140" transform="rotate(180 255 349)" fill="#A2C33D" fill-opacity="0.4"/>
<rect x="228" y="349" width="20" height="126" transform="rotate(180 228 349)" fill="#A2C33D" fill-opacity="0.4"/>
<rect x="201" y="349" width="20" height="120" transform="rotate(180 201 349)" fill="#A2C33D" fill-opacity="0.4"/>
<rect x="174" y="349" width="20" height="100" transform="rotate(180 174 349)" fill="#A2C33D"/>
<path d="M164 84V248.5" stroke="#A2C33D" stroke-width="20" stroke-dasharray="10 10"/>
<path d="M8.512 222L1.072 205.2H2.992L9.952 221.016H8.896L15.904 205.2H17.704L10.264 222H8.512ZM23.9573 222.12C22.7413 222.12 21.6453 221.848 20.6693 221.304C19.7093 220.744 18.9493 219.984 18.3893 219.024C17.8293 218.048 17.5493 216.936 17.5493 215.688C17.5493 214.424 17.8293 213.312 18.3893 212.352C18.9493 211.392 19.7093 210.64 20.6693 210.096C21.6293 209.552 22.7253 209.28 23.9573 209.28C25.2053 209.28 26.3093 209.552 27.2693 210.096C28.2453 210.64 29.0053 211.392 29.5493 212.352C30.1093 213.312 30.3893 214.424 30.3893 215.688C30.3893 216.936 30.1093 218.048 29.5493 219.024C29.0053 219.984 28.2453 220.744 27.2693 221.304C26.2933 221.848 25.1893 222.12 23.9573 222.12ZM23.9573 220.608C24.8693 220.608 25.6773 220.408 26.3813 220.008C27.0853 219.592 27.6373 219.016 28.0373 218.28C28.4533 217.528 28.6613 216.664 28.6613 215.688C28.6613 214.696 28.4533 213.832 28.0373 213.096C27.6373 212.36 27.0853 211.792 26.3813 211.392C25.6773 210.976 24.8773 210.768 23.9813 210.768C23.0853 210.768 22.2853 210.976 21.5813 211.392C20.8773 211.792 20.3173 212.36 19.9013 213.096C19.4853 213.832 19.2773 214.696 19.2773 215.688C19.2773 216.664 19.4853 217.528 19.9013 218.28C20.3173 219.016 20.8773 219.592 21.5813 220.008C22.2853 220.408 23.0773 220.608 23.9573 220.608ZM39.0762 222.12C38.0042 222.12 37.0682 221.92 36.2682 221.52C35.4682 221.12 34.8442 220.52 34.3962 219.72C33.9642 218.92 33.7482 217.92 33.7482 216.72V209.4H35.4522V216.528C35.4522 217.872 35.7802 218.888 36.4362 219.576C37.1082 220.248 38.0442 220.584 39.2442 220.584C40.1242 220.584 40.8842 220.408 41.5242 220.056C42.1802 219.688 42.6762 219.16 43.0122 218.472C43.3642 217.784 43.5402 216.96 43.5402 216V209.4H45.2442V222H43.6122V218.544L43.8762 219.168C43.4762 220.096 42.8522 220.824 42.0042 221.352C41.1722 221.864 40.1962 222.12 39.0762 222.12ZM53.3772 222.12C52.3372 222.12 51.3532 221.976 50.4252 221.688C49.4972 221.384 48.7692 221.008 48.2412 220.56L49.0092 219.216C49.5212 219.6 50.1772 219.936 50.9772 220.224C51.7772 220.496 52.6172 220.632 53.4972 220.632C54.6972 220.632 55.5612 220.448 56.0892 220.08C56.6172 219.696 56.8812 219.192 56.8812 218.568C56.8812 218.104 56.7292 217.744 56.4252 217.488C56.1372 217.216 55.7532 217.016 55.2732 216.888C54.7932 216.744 54.2572 216.624 53.6652 216.528C53.0732 216.432 52.4812 216.32 51.8892 216.192C51.3132 216.064 50.7852 215.88 50.3052 215.64C49.8252 215.384 49.4332 215.04 49.1292 214.608C48.8412 214.176 48.6972 213.6 48.6972 212.88C48.6972 212.192 48.8892 211.576 49.2732 211.032C49.6572 210.488 50.2172 210.064 50.9532 209.76C51.7052 209.44 52.6172 209.28 53.6892 209.28C54.5052 209.28 55.3212 209.392 56.1372 209.616C56.9532 209.824 57.6252 210.104 58.1532 210.456L57.4092 211.824C56.8492 211.44 56.2492 211.168 55.6092 211.008C54.9692 210.832 54.3292 210.744 53.6892 210.744C52.5532 210.744 51.7132 210.944 51.1692 211.344C50.6412 211.728 50.3772 212.224 50.3772 212.832C50.3772 213.312 50.5212 213.688 50.8092 213.96C51.1132 214.232 51.5052 214.448 51.9852 214.608C52.4812 214.752 53.0172 214.872 53.5932 214.968C54.1852 215.064 54.7692 215.184 55.3452 215.328C55.9372 215.456 56.4732 215.64 56.9532 215.88C57.4492 216.104 57.8412 216.432 58.1292 216.864C58.4332 217.28 58.5852 217.832 58.5852 218.52C58.5852 219.256 58.3772 219.896 57.9612 220.44C57.5612 220.968 56.9692 221.384 56.1852 221.688C55.4172 221.976 54.4812 222.12 53.3772 222.12ZM11.272 254V251.216L11.2 250.76V246.104C11.2 245.032 10.896 244.208 10.288 243.632C9.696 243.056 8.808 242.768 7.624 242.768C6.808 242.768 6.032 242.904 5.296 243.176C4.56 243.448 3.936 243.808 3.424 244.256L2.656 242.984C3.296 242.44 4.064 242.024 4.96 241.736C5.856 241.432 6.8 241.28 7.792 241.28C9.424 241.28 10.68 241.688 11.56 242.504C12.456 243.304 12.904 244.528 12.904 246.176V254H11.272ZM6.928 254.12C5.984 254.12 5.16 253.968 4.456 253.664C3.768 253.344 3.24 252.912 2.872 252.368C2.504 251.808 2.32 251.168 2.32 250.448C2.32 249.792 2.472 249.2 2.776 248.672C3.096 248.128 3.608 247.696 4.312 247.376C5.032 247.04 5.992 246.872 7.192 246.872H11.536V248.144H7.24C6.024 248.144 5.176 248.36 4.696 248.792C4.232 249.224 4 249.76 4 250.4C4 251.12 4.28 251.696 4.84 252.128C5.4 252.56 6.184 252.776 7.192 252.776C8.152 252.776 8.976 252.56 9.664 252.128C10.368 251.68 10.88 251.04 11.2 250.208L11.584 251.384C11.264 252.216 10.704 252.88 9.904 253.376C9.12 253.872 8.128 254.12 6.928 254.12ZM22.7643 254.12C21.5163 254.12 20.3963 253.848 19.4043 253.304C18.4283 252.744 17.6603 251.984 17.1003 251.024C16.5403 250.048 16.2603 248.936 16.2603 247.688C16.2603 246.424 16.5403 245.312 17.1003 244.352C17.6603 243.392 18.4283 242.64 19.4043 242.096C20.3963 241.552 21.5163 241.28 22.7643 241.28C23.8363 241.28 24.8043 241.488 25.6683 241.904C26.5323 242.32 27.2123 242.944 27.7083 243.776L26.4363 244.64C26.0043 244 25.4683 243.528 24.8283 243.224C24.1883 242.92 23.4923 242.768 22.7403 242.768C21.8443 242.768 21.0363 242.976 20.3163 243.392C19.5963 243.792 19.0283 244.36 18.6123 245.096C18.1963 245.832 17.9883 246.696 17.9883 247.688C17.9883 248.68 18.1963 249.544 18.6123 250.28C19.0283 251.016 19.5963 251.592 20.3163 252.008C21.0363 252.408 21.8443 252.608 22.7403 252.608C23.4923 252.608 24.1883 252.456 24.8283 252.152C25.4683 251.848 26.0043 251.384 26.4363 250.76L27.7083 251.624C27.2123 252.44 26.5323 253.064 25.6683 253.496C24.8043 253.912 23.8363 254.12 22.7643 254.12ZM37.3002 241.28C38.3242 241.28 39.2202 241.48 39.9882 241.88C40.7722 242.264 41.3802 242.856 41.8122 243.656C42.2602 244.456 42.4842 245.464 42.4842 246.68V254H40.7802V246.848C40.7802 245.52 40.4442 244.52 39.7722 243.848C39.1162 243.16 38.1882 242.816 36.9882 242.816C36.0922 242.816 35.3082 243 34.6362 243.368C33.9802 243.72 33.4682 244.24 33.1002 244.928C32.7482 245.6 32.5722 246.416 32.5722 247.376V254H30.8682V236.192H32.5722V244.856L32.2362 244.208C32.6362 243.296 33.2762 242.584 34.1562 242.072C35.0362 241.544 36.0842 241.28 37.3002 241.28ZM52.4389 254.12C51.1269 254.12 49.9749 253.848 48.9829 253.304C47.9909 252.744 47.2149 251.984 46.6549 251.024C46.0949 250.048 45.8149 248.936 45.8149 247.688C45.8149 246.44 46.0789 245.336 46.6069 244.376C47.1509 243.416 47.8869 242.664 48.8149 242.12C49.7589 241.56 50.8149 241.28 51.9829 241.28C53.1669 241.28 54.2149 241.552 55.1269 242.096C56.0549 242.624 56.7829 243.376 57.3109 244.352C57.8389 245.312 58.1029 246.424 58.1029 247.688C58.1029 247.768 58.0949 247.856 58.0789 247.952C58.0789 248.032 58.0789 248.12 58.0789 248.216H47.1109V246.944H57.1669L56.4949 247.448C56.4949 246.536 56.2949 245.728 55.8949 245.024C55.5109 244.304 54.9829 243.744 54.3109 243.344C53.6389 242.944 52.8629 242.744 51.9829 242.744C51.1189 242.744 50.3429 242.944 49.6549 243.344C48.9669 243.744 48.4309 244.304 48.0469 245.024C47.6629 245.744 47.4709 246.568 47.4709 247.496V247.76C47.4709 248.72 47.6789 249.568 48.0949 250.304C48.5269 251.024 49.1189 251.592 49.8709 252.008C50.6389 252.408 51.5109 252.608 52.4869 252.608C53.2549 252.608 53.9669 252.472 54.6229 252.2C55.2949 251.928 55.8709 251.512 56.3509 250.952L57.3109 252.056C56.7509 252.728 56.0469 253.24 55.1989 253.592C54.3669 253.944 53.4469 254.12 52.4389 254.12ZM65.5553 254.12C64.3713 254.12 63.4593 253.8 62.8193 253.16C62.1793 252.52 61.8593 251.616 61.8593 250.448V238.616H63.5633V250.352C63.5633 251.088 63.7473 251.656 64.1153 252.056C64.4993 252.456 65.0433 252.656 65.7473 252.656C66.4993 252.656 67.1233 252.44 67.6193 252.008L68.2193 253.232C67.8833 253.536 67.4753 253.76 66.9953 253.904C66.5313 254.048 66.0513 254.12 65.5553 254.12ZM59.6033 242.816V241.4H67.4033V242.816H59.6033ZM76.228 254.12C74.916 254.12 73.764 253.848 72.772 253.304C71.78 252.744 71.004 251.984 70.444 251.024C69.884 250.048 69.604 248.936 69.604 247.688C69.604 246.44 69.868 245.336 70.396 244.376C70.94 243.416 71.676 242.664 72.604 242.12C73.548 241.56 74.604 241.28 75.772 241.28C76.956 241.28 78.004 241.552 78.916 242.096C79.844 242.624 80.572 243.376 81.1 244.352C81.628 245.312 81.892 246.424 81.892 247.688C81.892 247.768 81.884 247.856 81.868 247.952C81.868 248.032 81.868 248.12 81.868 248.216H70.9V246.944H80.956L80.284 247.448C80.284 246.536 80.084 245.728 79.684 245.024C79.3 244.304 78.772 243.744 78.1 243.344C77.428 242.944 76.652 242.744 75.772 242.744C74.908 242.744 74.132 242.944 73.444 243.344C72.756 243.744 72.22 244.304 71.836 245.024C71.452 245.744 71.26 246.568 71.26 247.496V247.76C71.26 248.72 71.468 249.568 71.884 250.304C72.316 251.024 72.908 251.592 73.66 252.008C74.428 252.408 75.3 252.608 76.276 252.608C77.044 252.608 77.756 252.472 78.412 252.2C79.084 251.928 79.66 251.512 80.14 250.952L81.1 252.056C80.54 252.728 79.836 253.24 78.988 253.592C78.156 253.944 77.236 254.12 76.228 254.12ZM83.8752 254V252.872L92.2752 242.24L92.6352 242.816H84.0192V241.4H93.9792V242.504L85.6032 253.16L85.1712 252.584H94.1472V254H83.8752ZM108.798 254.12C107.598 254.12 106.518 253.848 105.558 253.304C104.614 252.76 103.87 252.008 103.326 251.048C102.782 250.072 102.51 248.952 102.51 247.688C102.51 246.408 102.782 245.288 103.326 244.328C103.87 243.368 104.614 242.624 105.558 242.096C106.518 241.552 107.598 241.28 108.798 241.28C109.902 241.28 110.886 241.528 111.75 242.024C112.63 242.52 113.326 243.248 113.838 244.208C114.366 245.152 114.63 246.312 114.63 247.688C114.63 249.048 114.374 250.208 113.862 251.168C113.35 252.128 112.654 252.864 111.774 253.376C110.91 253.872 109.918 254.12 108.798 254.12ZM108.918 252.608C109.814 252.608 110.614 252.408 111.318 252.008C112.038 251.592 112.598 251.016 112.998 250.28C113.414 249.528 113.622 248.664 113.622 247.688C113.622 246.696 113.414 245.832 112.998 245.096C112.598 244.36 112.038 243.792 111.318 243.392C110.614 242.976 109.814 242.768 108.918 242.768C108.038 242.768 107.246 242.976 106.542 243.392C105.838 243.792 105.278 244.36 104.862 245.096C104.446 245.832 104.238 246.696 104.238 247.688C104.238 248.664 104.446 249.528 104.862 250.28C105.278 251.016 105.838 251.592 106.542 252.008C107.246 252.408 108.038 252.608 108.918 252.608ZM113.67 254V250.208L113.838 247.664L113.598 245.12V236.192H115.302V254H113.67ZM125.4 254.12C124.088 254.12 122.936 253.848 121.944 253.304C120.952 252.744 120.176 251.984 119.616 251.024C119.056 250.048 118.776 248.936 118.776 247.688C118.776 246.44 119.04 245.336 119.568 244.376C120.112 243.416 120.848 242.664 121.776 242.12C122.72 241.56 123.776 241.28 124.944 241.28C126.128 241.28 127.176 241.552 128.088 242.096C129.016 242.624 129.744 243.376 130.272 244.352C130.8 245.312 131.064 246.424 131.064 247.688C131.064 247.768 131.056 247.856 131.04 247.952C131.04 248.032 131.04 248.12 131.04 248.216H120.072V246.944H130.128L129.456 247.448C129.456 246.536 129.256 245.728 128.856 245.024C128.472 244.304 127.944 243.744 127.272 243.344C126.6 242.944 125.824 242.744 124.944 242.744C124.08 242.744 123.304 242.944 122.616 243.344C121.928 243.744 121.392 244.304 121.008 245.024C120.624 245.744 120.432 246.568 120.432 247.496V247.76C120.432 248.72 120.64 249.568 121.056 250.304C121.488 251.024 122.08 251.592 122.832 252.008C123.6 252.408 124.472 252.608 125.448 252.608C126.216 252.608 126.928 252.472 127.584 252.2C128.256 251.928 128.832 251.512 129.312 250.952L130.272 252.056C129.712 252.728 129.008 253.24 128.16 253.592C127.328 253.944 126.408 254.12 125.4 254.12ZM137.916 254.12C136.876 254.12 135.892 253.976 134.964 253.688C134.036 253.384 133.308 253.008 132.78 252.56L133.548 251.216C134.06 251.6 134.716 251.936 135.516 252.224C136.316 252.496 137.156 252.632 138.036 252.632C139.236 252.632 140.1 252.448 140.628 252.08C141.156 251.696 141.42 251.192 141.42 250.568C141.42 250.104 141.268 249.744 140.964 249.488C140.676 249.216 140.292 249.016 139.812 248.888C139.332 248.744 138.796 248.624 138.204 248.528C137.612 248.432 137.02 248.32 136.428 248.192C135.852 248.064 135.324 247.88 134.844 247.64C134.364 247.384 133.972 247.04 133.668 246.608C133.38 246.176 133.236 245.6 133.236 244.88C133.236 244.192 133.428 243.576 133.812 243.032C134.196 242.488 134.756 242.064 135.492 241.76C136.244 241.44 137.156 241.28 138.228 241.28C139.044 241.28 139.86 241.392 140.676 241.616C141.492 241.824 142.164 242.104 142.692 242.456L141.948 243.824C141.388 243.44 140.788 243.168 140.148 243.008C139.508 242.832 138.868 242.744 138.228 242.744C137.092 242.744 136.252 242.944 135.708 243.344C135.18 243.728 134.916 244.224 134.916 244.832C134.916 245.312 135.06 245.688 135.348 245.96C135.652 246.232 136.044 246.448 136.524 246.608C137.02 246.752 137.556 246.872 138.132 246.968C138.724 247.064 139.308 247.184 139.884 247.328C140.476 247.456 141.012 247.64 141.492 247.88C141.988 248.104 142.38 248.432 142.668 248.864C142.972 249.28 143.124 249.832 143.124 250.52C143.124 251.256 142.916 251.896 142.5 252.44C142.1 252.968 141.508 253.384 140.724 253.688C139.956 253.976 139.02 254.12 137.916 254.12ZM8.608 286.12C7.36 286.12 6.24 285.848 5.248 285.304C4.272 284.744 3.504 283.984 2.944 283.024C2.384 282.048 2.104 280.936 2.104 279.688C2.104 278.424 2.384 277.312 2.944 276.352C3.504 275.392 4.272 274.64 5.248 274.096C6.24 273.552 7.36 273.28 8.608 273.28C9.68 273.28 10.648 273.488 11.512 273.904C12.376 274.32 13.056 274.944 13.552 275.776L12.28 276.64C11.848 276 11.312 275.528 10.672 275.224C10.032 274.92 9.336 274.768 8.584 274.768C7.688 274.768 6.88 274.976 6.16 275.392C5.44 275.792 4.872 276.36 4.456 277.096C4.04 277.832 3.832 278.696 3.832 279.688C3.832 280.68 4.04 281.544 4.456 282.28C4.872 283.016 5.44 283.592 6.16 284.008C6.88 284.408 7.688 284.608 8.584 284.608C9.336 284.608 10.032 284.456 10.672 284.152C11.312 283.848 11.848 283.384 12.28 282.76L13.552 283.624C13.056 284.44 12.376 285.064 11.512 285.496C10.648 285.912 9.68 286.12 8.608 286.12ZM21.8245 286.12C20.6085 286.12 19.5125 285.848 18.5365 285.304C17.5765 284.744 16.8165 283.984 16.2565 283.024C15.6965 282.048 15.4165 280.936 15.4165 279.688C15.4165 278.424 15.6965 277.312 16.2565 276.352C16.8165 275.392 17.5765 274.64 18.5365 274.096C19.4965 273.552 20.5925 273.28 21.8245 273.28C23.0725 273.28 24.1765 273.552 25.1365 274.096C26.1125 274.64 26.8725 275.392 27.4165 276.352C27.9765 277.312 28.2565 278.424 28.2565 279.688C28.2565 280.936 27.9765 282.048 27.4165 283.024C26.8725 283.984 26.1125 284.744 25.1365 285.304C24.1605 285.848 23.0565 286.12 21.8245 286.12ZM21.8245 284.608C22.7365 284.608 23.5445 284.408 24.2485 284.008C24.9525 283.592 25.5045 283.016 25.9045 282.28C26.3205 281.528 26.5285 280.664 26.5285 279.688C26.5285 278.696 26.3205 277.832 25.9045 277.096C25.5045 276.36 24.9525 275.792 24.2485 275.392C23.5445 274.976 22.7445 274.768 21.8485 274.768C20.9525 274.768 20.1525 274.976 19.4485 275.392C18.7445 275.792 18.1845 276.36 17.7685 277.096C17.3525 277.832 17.1445 278.696 17.1445 279.688C17.1445 280.664 17.3525 281.528 17.7685 282.28C18.1845 283.016 18.7445 283.592 19.4485 284.008C20.1525 284.408 20.9445 284.608 21.8245 284.608ZM38.1674 273.28C39.1914 273.28 40.0874 273.48 40.8554 273.88C41.6394 274.264 42.2474 274.856 42.6794 275.656C43.1274 276.456 43.3514 277.464 43.3514 278.68V286H41.6474V278.848C41.6474 277.52 41.3114 276.52 40.6394 275.848C39.9834 275.16 39.0554 274.816 37.8554 274.816C36.9594 274.816 36.1754 275 35.5034 275.368C34.8474 275.72 34.3354 276.24 33.9674 276.928C33.6154 277.6 33.4394 278.416 33.4394 279.376V286H31.7354V273.4H33.3674V276.856L33.1034 276.208C33.5034 275.296 34.1434 274.584 35.0234 274.072C35.9034 273.544 36.9514 273.28 38.1674 273.28ZM51.9381 286.12C50.7541 286.12 49.8421 285.8 49.2021 285.16C48.5621 284.52 48.2421 283.616 48.2421 282.448V270.616H49.9461V282.352C49.9461 283.088 50.1301 283.656 50.4981 284.056C50.8821 284.456 51.4261 284.656 52.1301 284.656C52.8821 284.656 53.5061 284.44 54.0021 284.008L54.6021 285.232C54.2661 285.536 53.8581 285.76 53.3781 285.904C52.9141 286.048 52.4341 286.12 51.9381 286.12ZM45.9861 274.816V273.4H53.7861V274.816H45.9861ZM57.7041 286V273.4H59.3361V276.832L59.1681 276.232C59.5201 275.272 60.1121 274.544 60.9441 274.048C61.7761 273.536 62.8081 273.28 64.0401 273.28V274.936C63.9761 274.936 63.9121 274.936 63.8481 274.936C63.7841 274.92 63.7201 274.912 63.6561 274.912C62.3281 274.912 61.2881 275.32 60.5361 276.136C59.7841 276.936 59.4081 278.08 59.4081 279.568V286H57.7041ZM74.1079 286V283.216L74.0359 282.76V278.104C74.0359 277.032 73.7319 276.208 73.1239 275.632C72.5319 275.056 71.6439 274.768 70.4599 274.768C69.6439 274.768 68.8679 274.904 68.1319 275.176C67.3959 275.448 66.7719 275.808 66.2599 276.256L65.4919 274.984C66.1319 274.44 66.8999 274.024 67.7959 273.736C68.6919 273.432 69.6359 273.28 70.6279 273.28C72.2599 273.28 73.5159 273.688 74.3959 274.504C75.2919 275.304 75.7399 276.528 75.7399 278.176V286H74.1079ZM69.7639 286.12C68.8199 286.12 67.9959 285.968 67.2919 285.664C66.6039 285.344 66.0759 284.912 65.7079 284.368C65.3399 283.808 65.1559 283.168 65.1559 282.448C65.1559 281.792 65.3079 281.2 65.6119 280.672C65.9319 280.128 66.4439 279.696 67.1479 279.376C67.8679 279.04 68.8279 278.872 70.0279 278.872H74.3719V280.144H70.0759C68.8599 280.144 68.0119 280.36 67.5319 280.792C67.0679 281.224 66.8359 281.76 66.8359 282.4C66.8359 283.12 67.1159 283.696 67.6759 284.128C68.2359 284.56 69.0199 284.776 70.0279 284.776C70.9879 284.776 71.8119 284.56 72.4999 284.128C73.2039 283.68 73.7159 283.04 74.0359 282.208L74.4199 283.384C74.0999 284.216 73.5399 284.88 72.7399 285.376C71.9559 285.872 70.9639 286.12 69.7639 286.12ZM84.3522 286.12C83.1682 286.12 82.2562 285.8 81.6162 285.16C80.9762 284.52 80.6562 283.616 80.6562 282.448V270.616H82.3602V282.352C82.3602 283.088 82.5442 283.656 82.9122 284.056C83.2962 284.456 83.8402 284.656 84.5442 284.656C85.2962 284.656 85.9202 284.44 86.4162 284.008L87.0162 285.232C86.6802 285.536 86.2722 285.76 85.7922 285.904C85.3282 286.048 84.8482 286.12 84.3522 286.12ZM78.4002 274.816V273.4H86.2002V274.816H78.4002ZM93.5022 286.12C92.4622 286.12 91.4782 285.976 90.5502 285.688C89.6222 285.384 88.8942 285.008 88.3662 284.56L89.1342 283.216C89.6462 283.6 90.3022 283.936 91.1022 284.224C91.9022 284.496 92.7422 284.632 93.6222 284.632C94.8222 284.632 95.6862 284.448 96.2142 284.08C96.7422 283.696 97.0062 283.192 97.0062 282.568C97.0062 282.104 96.8542 281.744 96.5502 281.488C96.2622 281.216 95.8782 281.016 95.3982 280.888C94.9182 280.744 94.3822 280.624 93.7902 280.528C93.1982 280.432 92.6062 280.32 92.0142 280.192C91.4382 280.064 90.9102 279.88 90.4302 279.64C89.9502 279.384 89.5582 279.04 89.2542 278.608C88.9662 278.176 88.8222 277.6 88.8222 276.88C88.8222 276.192 89.0142 275.576 89.3982 275.032C89.7822 274.488 90.3422 274.064 91.0782 273.76C91.8302 273.44 92.7422 273.28 93.8142 273.28C94.6302 273.28 95.4462 273.392 96.2622 273.616C97.0782 273.824 97.7502 274.104 98.2782 274.456L97.5342 275.824C96.9742 275.44 96.3742 275.168 95.7342 275.008C95.0942 274.832 94.4542 274.744 93.8142 274.744C92.6782 274.744 91.8382 274.944 91.2942 275.344C90.7662 275.728 90.5022 276.224 90.5022 276.832C90.5022 277.312 90.6462 277.688 90.9342 277.96C91.2382 278.232 91.6302 278.448 92.1102 278.608C92.6062 278.752 93.1422 278.872 93.7182 278.968C94.3102 279.064 94.8942 279.184 95.4702 279.328C96.0622 279.456 96.5982 279.64 97.0782 279.88C97.5742 280.104 97.9662 280.432 98.2542 280.864C98.5582 281.28 98.7102 281.832 98.7102 282.52C98.7102 283.256 98.5022 283.896 98.0862 284.44C97.6862 284.968 97.0942 285.384 96.3102 285.688C95.5422 285.976 94.6062 286.12 93.5022 286.12ZM116.014 286V283.216L115.942 282.76V278.104C115.942 277.032 115.638 276.208 115.03 275.632C114.438 275.056 113.55 274.768 112.366 274.768C111.55 274.768 110.774 274.904 110.038 275.176C109.302 275.448 108.678 275.808 108.166 276.256L107.398 274.984C108.038 274.44 108.806 274.024 109.702 273.736C110.598 273.432 111.542 273.28 112.534 273.28C114.166 273.28 115.422 273.688 116.302 274.504C117.198 275.304 117.646 276.528 117.646 278.176V286H116.014ZM111.67 286.12C110.726 286.12 109.902 285.968 109.198 285.664C108.51 285.344 107.982 284.912 107.614 284.368C107.246 283.808 107.062 283.168 107.062 282.448C107.062 281.792 107.214 281.2 107.518 280.672C107.838 280.128 108.35 279.696 109.054 279.376C109.774 279.04 110.734 278.872 111.934 278.872H116.278V280.144H111.982C110.766 280.144 109.918 280.36 109.438 280.792C108.974 281.224 108.742 281.76 108.742 282.4C108.742 283.12 109.022 283.696 109.582 284.128C110.142 284.56 110.926 284.776 111.934 284.776C112.894 284.776 113.718 284.56 114.406 284.128C115.11 283.68 115.622 283.04 115.942 282.208L116.326 283.384C116.006 284.216 115.446 284.88 114.646 285.376C113.862 285.872 112.87 286.12 111.67 286.12ZM112.462 271.432L108.574 268.456H110.854L114.142 271.432H112.462ZM7.36 318.12C6.176 318.12 5.264 317.8 4.624 317.16C3.984 316.52 3.664 315.616 3.664 314.448V302.616H5.368V314.352C5.368 315.088 5.552 315.656 5.92 316.056C6.304 316.456 6.848 316.656 7.552 316.656C8.304 316.656 8.928 316.44 9.424 316.008L10.024 317.232C9.688 317.536 9.28 317.76 8.8 317.904C8.336 318.048 7.856 318.12 7.36 318.12ZM1.408 306.816V305.4H9.208V306.816H1.408ZM18.0327 318.12C16.7207 318.12 15.5687 317.848 14.5767 317.304C13.5847 316.744 12.8087 315.984 12.2487 315.024C11.6887 314.048 11.4087 312.936 11.4087 311.688C11.4087 310.44 11.6727 309.336 12.2007 308.376C12.7447 307.416 13.4807 306.664 14.4087 306.12C15.3527 305.56 16.4087 305.28 17.5767 305.28C18.7607 305.28 19.8087 305.552 20.7207 306.096C21.6487 306.624 22.3767 307.376 22.9047 308.352C23.4327 309.312 23.6967 310.424 23.6967 311.688C23.6967 311.768 23.6887 311.856 23.6727 311.952C23.6727 312.032 23.6727 312.12 23.6727 312.216H12.7047V310.944H22.7607L22.0887 311.448C22.0887 310.536 21.8887 309.728 21.4887 309.024C21.1047 308.304 20.5767 307.744 19.9047 307.344C19.2327 306.944 18.4567 306.744 17.5767 306.744C16.7127 306.744 15.9367 306.944 15.2487 307.344C14.5607 307.744 14.0247 308.304 13.6407 309.024C13.2567 309.744 13.0647 310.568 13.0647 311.496V311.76C13.0647 312.72 13.2727 313.568 13.6887 314.304C14.1207 315.024 14.7127 315.592 15.4647 316.008C16.2327 316.408 17.1047 316.608 18.0807 316.608C18.8487 316.608 19.5607 316.472 20.2167 316.2C20.8887 315.928 21.4647 315.512 21.9447 314.952L22.9047 316.056C22.3447 316.728 21.6407 317.24 20.7927 317.592C19.9607 317.944 19.0407 318.12 18.0327 318.12ZM27.1651 318V305.4H28.7971V308.832L28.6291 308.232C28.9811 307.272 29.5731 306.544 30.4051 306.048C31.2371 305.536 32.2691 305.28 33.5011 305.28V306.936C33.4371 306.936 33.3731 306.936 33.3091 306.936C33.2451 306.92 33.1811 306.912 33.1171 306.912C31.7891 306.912 30.7491 307.32 29.9971 308.136C29.2451 308.936 28.8691 310.08 28.8691 311.568V318H27.1651ZM52.3544 305.28C53.3784 305.28 54.2664 305.48 55.0184 305.88C55.7864 306.264 56.3784 306.856 56.7944 307.656C57.2264 308.456 57.4424 309.464 57.4424 310.68V318H55.7384V310.848C55.7384 309.52 55.4184 308.52 54.7784 307.848C54.1544 307.16 53.2664 306.816 52.1144 306.816C51.2504 306.816 50.4984 307 49.8584 307.368C49.2344 307.72 48.7464 308.24 48.3944 308.928C48.0584 309.6 47.8904 310.416 47.8904 311.376V318H46.1864V310.848C46.1864 309.52 45.8664 308.52 45.2264 307.848C44.5864 307.16 43.6904 306.816 42.5384 306.816C41.6904 306.816 40.9464 307 40.3064 307.368C39.6664 307.72 39.1704 308.24 38.8184 308.928C38.4824 309.6 38.3144 310.416 38.3144 311.376V318H36.6104V305.4H38.2424V308.808L37.9784 308.208C38.3624 307.296 38.9784 306.584 39.8264 306.072C40.6904 305.544 41.7064 305.28 42.8744 305.28C44.1064 305.28 45.1544 305.592 46.0184 306.216C46.8824 306.824 47.4424 307.744 47.6984 308.976L47.0264 308.712C47.3944 307.688 48.0424 306.864 48.9704 306.24C49.9144 305.6 51.0424 305.28 52.3544 305.28ZM67.4155 318.12C66.1035 318.12 64.9515 317.848 63.9595 317.304C62.9675 316.744 62.1915 315.984 61.6315 315.024C61.0715 314.048 60.7915 312.936 60.7915 311.688C60.7915 310.44 61.0555 309.336 61.5835 308.376C62.1275 307.416 62.8635 306.664 63.7915 306.12C64.7355 305.56 65.7915 305.28 66.9595 305.28C68.1435 305.28 69.1915 305.552 70.1035 306.096C71.0315 306.624 71.7595 307.376 72.2875 308.352C72.8155 309.312 73.0795 310.424 73.0795 311.688C73.0795 311.768 73.0715 311.856 73.0555 311.952C73.0555 312.032 73.0555 312.12 73.0555 312.216H62.0875V310.944H72.1435L71.4715 311.448C71.4715 310.536 71.2715 309.728 70.8715 309.024C70.4875 308.304 69.9595 307.744 69.2875 307.344C68.6155 306.944 67.8395 306.744 66.9595 306.744C66.0955 306.744 65.3195 306.944 64.6315 307.344C63.9435 307.744 63.4075 308.304 63.0235 309.024C62.6395 309.744 62.4475 310.568 62.4475 311.496V311.76C62.4475 312.72 62.6555 313.568 63.0715 314.304C63.5035 315.024 64.0955 315.592 64.8475 316.008C65.6155 316.408 66.4875 316.608 67.4635 316.608C68.2315 316.608 68.9435 316.472 69.5995 316.2C70.2715 315.928 70.8475 315.512 71.3275 314.952L72.2875 316.056C71.7275 316.728 71.0235 317.24 70.1755 317.592C69.3435 317.944 68.4235 318.12 67.4155 318.12ZM90.7251 318V315.216L90.6531 314.76V310.104C90.6531 309.032 90.3491 308.208 89.7411 307.632C89.1491 307.056 88.2611 306.768 87.0771 306.768C86.2611 306.768 85.4851 306.904 84.7491 307.176C84.0131 307.448 83.3891 307.808 82.8771 308.256L82.1091 306.984C82.7491 306.44 83.5171 306.024 84.4131 305.736C85.3091 305.432 86.2531 305.28 87.2451 305.28C88.8771 305.28 90.1331 305.688 91.0131 306.504C91.9091 307.304 92.3571 308.528 92.3571 310.176V318H90.7251ZM86.3811 318.12C85.4371 318.12 84.6131 317.968 83.9091 317.664C83.2211 317.344 82.6931 316.912 82.3251 316.368C81.9571 315.808 81.7731 315.168 81.7731 314.448C81.7731 313.792 81.9251 313.2 82.2291 312.672C82.5491 312.128 83.0611 311.696 83.7651 311.376C84.4851 311.04 85.4451 310.872 86.6451 310.872H90.9891V312.144H86.6931C85.4771 312.144 84.6291 312.36 84.1491 312.792C83.6851 313.224 83.4531 313.76 83.4531 314.4C83.4531 315.12 83.7331 315.696 84.2931 316.128C84.8531 316.56 85.6371 316.776 86.6451 316.776C87.6051 316.776 88.4291 316.56 89.1171 316.128C89.8211 315.68 90.3331 315.04 90.6531 314.208L91.0371 315.384C90.7171 316.216 90.1571 316.88 89.3571 317.376C88.5731 317.872 87.5811 318.12 86.3811 318.12ZM87.1731 303.432L83.2851 300.456H85.5651L88.8531 303.432H87.1731ZM108.499 318.12C107.251 318.12 106.131 317.848 105.139 317.304C104.163 316.744 103.395 315.984 102.835 315.024C102.275 314.048 101.995 312.936 101.995 311.688C101.995 310.424 102.275 309.312 102.835 308.352C103.395 307.392 104.163 306.64 105.139 306.096C106.131 305.552 107.251 305.28 108.499 305.28C109.571 305.28 110.539 305.488 111.403 305.904C112.267 306.32 112.947 306.944 113.443 307.776L112.171 308.64C111.739 308 111.203 307.528 110.563 307.224C109.923 306.92 109.227 306.768 108.475 306.768C107.579 306.768 106.771 306.976 106.051 307.392C105.331 307.792 104.763 308.36 104.347 309.096C103.931 309.832 103.723 310.696 103.723 311.688C103.723 312.68 103.931 313.544 104.347 314.28C104.763 315.016 105.331 315.592 106.051 316.008C106.771 316.408 107.579 316.608 108.475 316.608C109.227 316.608 109.923 316.456 110.563 316.152C111.203 315.848 111.739 315.384 112.171 314.76L113.443 315.624C112.947 316.44 112.267 317.064 111.403 317.496C110.539 317.912 109.571 318.12 108.499 318.12ZM121.931 318.12C120.619 318.12 119.467 317.848 118.475 317.304C117.483 316.744 116.707 315.984 116.147 315.024C115.587 314.048 115.307 312.936 115.307 311.688C115.307 310.44 115.571 309.336 116.099 308.376C116.643 307.416 117.379 306.664 118.307 306.12C119.251 305.56 120.307 305.28 121.475 305.28C122.659 305.28 123.707 305.552 124.619 306.096C125.547 306.624 126.275 307.376 126.803 308.352C127.331 309.312 127.595 310.424 127.595 311.688C127.595 311.768 127.587 311.856 127.571 311.952C127.571 312.032 127.571 312.12 127.571 312.216H116.603V310.944H126.659L125.987 311.448C125.987 310.536 125.787 309.728 125.387 309.024C125.003 308.304 124.475 307.744 123.803 307.344C123.131 306.944 122.355 306.744 121.475 306.744C120.611 306.744 119.835 306.944 119.147 307.344C118.459 307.744 117.923 308.304 117.539 309.024C117.155 309.744 116.963 310.568 116.963 311.496V311.76C116.963 312.72 117.171 313.568 117.587 314.304C118.019 315.024 118.611 315.592 119.363 316.008C120.131 316.408 121.003 316.608 121.979 316.608C122.747 316.608 123.459 316.472 124.115 316.2C124.787 315.928 125.363 315.512 125.843 314.952L126.803 316.056C126.243 316.728 125.539 317.24 124.691 317.592C123.859 317.944 122.939 318.12 121.931 318.12ZM9.88 350.12C8.792 350.12 7.808 349.872 6.928 349.376C6.048 348.864 5.344 348.136 4.816 347.192C4.304 346.232 4.048 345.064 4.048 343.688C4.048 342.312 4.304 341.152 4.816 340.208C5.328 339.248 6.024 338.52 6.904 338.024C7.784 337.528 8.776 337.28 9.88 337.28C11.08 337.28 12.152 337.552 13.096 338.096C14.056 338.624 14.808 339.376 15.352 340.352C15.896 341.312 16.168 342.424 16.168 343.688C16.168 344.968 15.896 346.088 15.352 347.048C14.808 348.008 14.056 348.76 13.096 349.304C12.152 349.848 11.08 350.12 9.88 350.12ZM3.376 354.656V337.4H5.008V341.192L4.84 343.712L5.08 346.256V354.656H3.376ZM9.76 348.608C10.656 348.608 11.456 348.408 12.16 348.008C12.864 347.592 13.424 347.016 13.84 346.28C14.256 345.528 14.464 344.664 14.464 343.688C14.464 342.712 14.256 341.856 13.84 341.12C13.424 340.384 12.864 339.808 12.16 339.392C11.456 338.976 10.656 338.768 9.76 338.768C8.864 338.768 8.056 338.976 7.336 339.392C6.632 339.808 6.072 340.384 5.656 341.12C5.256 341.856 5.056 342.712 5.056 343.688C5.056 344.664 5.256 345.528 5.656 346.28C6.072 347.016 6.632 347.592 7.336 348.008C8.056 348.408 8.864 348.608 9.76 348.608ZM19.6416 350V337.4H21.2736V340.832L21.1056 340.232C21.4576 339.272 22.0496 338.544 22.8816 338.048C23.7136 337.536 24.7456 337.28 25.9776 337.28V338.936C25.9136 338.936 25.8496 338.936 25.7856 338.936C25.7216 338.92 25.6576 338.912 25.5936 338.912C24.2656 338.912 23.2256 339.32 22.4736 340.136C21.7216 340.936 21.3456 342.08 21.3456 343.568V350H19.6416ZM29.0869 350V337.4H30.7909V350H29.0869ZM29.9509 334.616C29.5989 334.616 29.3029 334.496 29.0629 334.256C28.8229 334.016 28.7029 333.728 28.7029 333.392C28.7029 333.056 28.8229 332.776 29.0629 332.552C29.3029 332.312 29.5989 332.192 29.9509 332.192C30.3029 332.192 30.5989 332.304 30.8389 332.528C31.0789 332.752 31.1989 333.032 31.1989 333.368C31.1989 333.72 31.0789 334.016 30.8389 334.256C30.6149 334.496 30.3189 334.616 29.9509 334.616ZM33.6123 350L38.9403 343.088L38.9163 343.928L33.8523 337.4H35.7723L39.9243 342.8L39.2043 342.776L43.3563 337.4H45.2283L40.1163 344L40.1403 343.088L45.5163 350H43.5723L39.1803 344.24L39.8523 344.336L35.5323 350H33.6123Z" fill="#A2C33D"/>
<path d="M117 249H157" stroke="#A2C33D"/>
<path d="M331 83H661" stroke="#214B33"/>
<path d="M8.512 82L1.072 65.2H2.992L9.952 81.016H8.896L15.904 65.2H17.704L10.264 82H8.512ZM23.9573 82.12C22.7413 82.12 21.6453 81.848 20.6693 81.304C19.7093 80.744 18.9493 79.984 18.3893 79.024C17.8293 78.048 17.5493 76.936 17.5493 75.688C17.5493 74.424 17.8293 73.312 18.3893 72.352C18.9493 71.392 19.7093 70.64 20.6693 70.096C21.6293 69.552 22.7253 69.28 23.9573 69.28C25.2053 69.28 26.3093 69.552 27.2693 70.096C28.2453 70.64 29.0053 71.392 29.5493 72.352C30.1093 73.312 30.3893 74.424 30.3893 75.688C30.3893 76.936 30.1093 78.048 29.5493 79.024C29.0053 79.984 28.2453 80.744 27.2693 81.304C26.2933 81.848 25.1893 82.12 23.9573 82.12ZM23.9573 80.608C24.8693 80.608 25.6773 80.408 26.3813 80.008C27.0853 79.592 27.6373 79.016 28.0373 78.28C28.4533 77.528 28.6613 76.664 28.6613 75.688C28.6613 74.696 28.4533 73.832 28.0373 73.096C27.6373 72.36 27.0853 71.792 26.3813 71.392C25.6773 70.976 24.8773 70.768 23.9813 70.768C23.0853 70.768 22.2853 70.976 21.5813 71.392C20.8773 71.792 20.3173 72.36 19.9013 73.096C19.4853 73.832 19.2773 74.696 19.2773 75.688C19.2773 76.664 19.4853 77.528 19.9013 78.28C20.3173 79.016 20.8773 79.592 21.5813 80.008C22.2853 80.408 23.0773 80.608 23.9573 80.608ZM39.0762 82.12C38.0042 82.12 37.0682 81.92 36.2682 81.52C35.4682 81.12 34.8442 80.52 34.3962 79.72C33.9642 78.92 33.7482 77.92 33.7482 76.72V69.4H35.4522V76.528C35.4522 77.872 35.7802 78.888 36.4362 79.576C37.1082 80.248 38.0442 80.584 39.2442 80.584C40.1242 80.584 40.8842 80.408 41.5242 80.056C42.1802 79.688 42.6762 79.16 43.0122 78.472C43.3642 77.784 43.5402 76.96 43.5402 76V69.4H45.2442V82H43.6122V78.544L43.8762 79.168C43.4762 80.096 42.8522 80.824 42.0042 81.352C41.1722 81.864 40.1962 82.12 39.0762 82.12ZM53.3772 82.12C52.3372 82.12 51.3532 81.976 50.4252 81.688C49.4972 81.384 48.7692 81.008 48.2412 80.56L49.0092 79.216C49.5212 79.6 50.1772 79.936 50.9772 80.224C51.7772 80.496 52.6172 80.632 53.4972 80.632C54.6972 80.632 55.5612 80.448 56.0892 80.08C56.6172 79.696 56.8812 79.192 56.8812 78.568C56.8812 78.104 56.7292 77.744 56.4252 77.488C56.1372 77.216 55.7532 77.016 55.2732 76.888C54.7932 76.744 54.2572 76.624 53.6652 76.528C53.0732 76.432 52.4812 76.32 51.8892 76.192C51.3132 76.064 50.7852 75.88 50.3052 75.64C49.8252 75.384 49.4332 75.04 49.1292 74.608C48.8412 74.176 48.6972 73.6 48.6972 72.88C48.6972 72.192 48.8892 71.576 49.2732 71.032C49.6572 70.488 50.2172 70.064 50.9532 69.76C51.7052 69.44 52.6172 69.28 53.6892 69.28C54.5052 69.28 55.3212 69.392 56.1372 69.616C56.9532 69.824 57.6252 70.104 58.1532 70.456L57.4092 71.824C56.8492 71.44 56.2492 71.168 55.6092 71.008C54.9692 70.832 54.3292 70.744 53.6892 70.744C52.5532 70.744 51.7132 70.944 51.1692 71.344C50.6412 71.728 50.3772 72.224 50.3772 72.832C50.3772 73.312 50.5212 73.688 50.8092 73.96C51.1132 74.232 51.5052 74.448 51.9852 74.608C52.4812 74.752 53.0172 74.872 53.5932 74.968C54.1852 75.064 54.7692 75.184 55.3452 75.328C55.9372 75.456 56.4732 75.64 56.9532 75.88C57.4492 76.104 57.8412 76.432 58.1292 76.864C58.4332 77.28 58.5852 77.832 58.5852 78.52C58.5852 79.256 58.3772 79.896 57.9612 80.44C57.5612 80.968 56.9692 81.384 56.1852 81.688C55.4172 81.976 54.4812 82.12 53.3772 82.12ZM71.2332 82L65.6412 69.4H67.4172L72.5532 81.088H71.7132L76.9212 69.4H78.6012L72.9852 82H71.2332ZM86.0014 82.12C84.6894 82.12 83.5374 81.848 82.5454 81.304C81.5534 80.744 80.7774 79.984 80.2174 79.024C79.6574 78.048 79.3774 76.936 79.3774 75.688C79.3774 74.44 79.6414 73.336 80.1694 72.376C80.7134 71.416 81.4494 70.664 82.3774 70.12C83.3214 69.56 84.3774 69.28 85.5454 69.28C86.7294 69.28 87.7774 69.552 88.6894 70.096C89.6174 70.624 90.3454 71.376 90.8734 72.352C91.4014 73.312 91.6654 74.424 91.6654 75.688C91.6654 75.768 91.6574 75.856 91.6414 75.952C91.6414 76.032 91.6414 76.12 91.6414 76.216H80.6734V74.944H90.7294L90.0574 75.448C90.0574 74.536 89.8574 73.728 89.4574 73.024C89.0734 72.304 88.5454 71.744 87.8734 71.344C87.2014 70.944 86.4254 70.744 85.5454 70.744C84.6814 70.744 83.9054 70.944 83.2174 71.344C82.5294 71.744 81.9934 72.304 81.6094 73.024C81.2254 73.744 81.0334 74.568 81.0334 75.496V75.76C81.0334 76.72 81.2414 77.568 81.6574 78.304C82.0894 79.024 82.6814 79.592 83.4334 80.008C84.2014 80.408 85.0734 80.608 86.0494 80.608C86.8174 80.608 87.5294 80.472 88.1854 80.2C88.8574 79.928 89.4334 79.512 89.9134 78.952L90.8734 80.056C90.3134 80.728 89.6094 81.24 88.7614 81.592C87.9294 81.944 87.0094 82.12 86.0014 82.12ZM101.566 69.28C102.59 69.28 103.486 69.48 104.254 69.88C105.038 70.264 105.646 70.856 106.078 71.656C106.526 72.456 106.75 73.464 106.75 74.68V82H105.046V74.848C105.046 73.52 104.71 72.52 104.038 71.848C103.382 71.16 102.454 70.816 101.254 70.816C100.358 70.816 99.5738 71 98.9018 71.368C98.2458 71.72 97.7338 72.24 97.3658 72.928C97.0138 73.6 96.8378 74.416 96.8378 75.376V82H95.1338V69.4H96.7658V72.856L96.5018 72.208C96.9018 71.296 97.5418 70.584 98.4218 70.072C99.3018 69.544 100.35 69.28 101.566 69.28ZM116.369 82.12C115.169 82.12 114.089 81.848 113.129 81.304C112.185 80.76 111.441 80.008 110.897 79.048C110.353 78.072 110.081 76.952 110.081 75.688C110.081 74.408 110.353 73.288 110.897 72.328C111.441 71.368 112.185 70.624 113.129 70.096C114.089 69.552 115.169 69.28 116.369 69.28C117.473 69.28 118.457 69.528 119.321 70.024C120.201 70.52 120.897 71.248 121.409 72.208C121.937 73.152 122.201 74.312 122.201 75.688C122.201 77.048 121.945 78.208 121.433 79.168C120.921 80.128 120.225 80.864 119.345 81.376C118.481 81.872 117.489 82.12 116.369 82.12ZM116.489 80.608C117.385 80.608 118.185 80.408 118.889 80.008C119.609 79.592 120.169 79.016 120.569 78.28C120.985 77.528 121.193 76.664 121.193 75.688C121.193 74.696 120.985 73.832 120.569 73.096C120.169 72.36 119.609 71.792 118.889 71.392C118.185 70.976 117.385 70.768 116.489 70.768C115.609 70.768 114.817 70.976 114.113 71.392C113.409 71.792 112.849 72.36 112.433 73.096C112.017 73.832 111.809 74.696 111.809 75.688C111.809 76.664 112.017 77.528 112.433 78.28C112.849 79.016 113.409 79.592 114.113 80.008C114.817 80.408 115.609 80.608 116.489 80.608ZM121.241 82V78.208L121.409 75.664L121.169 73.12V64.192H122.873V82H121.241ZM132.97 82.12C131.658 82.12 130.506 81.848 129.514 81.304C128.522 80.744 127.746 79.984 127.186 79.024C126.626 78.048 126.346 76.936 126.346 75.688C126.346 74.44 126.61 73.336 127.138 72.376C127.682 71.416 128.418 70.664 129.346 70.12C130.29 69.56 131.346 69.28 132.514 69.28C133.698 69.28 134.746 69.552 135.658 70.096C136.586 70.624 137.314 71.376 137.842 72.352C138.37 73.312 138.634 74.424 138.634 75.688C138.634 75.768 138.626 75.856 138.61 75.952C138.61 76.032 138.61 76.12 138.61 76.216H127.642V74.944H137.698L137.026 75.448C137.026 74.536 136.826 73.728 136.426 73.024C136.042 72.304 135.514 71.744 134.842 71.344C134.17 70.944 133.394 70.744 132.514 70.744C131.65 70.744 130.874 70.944 130.186 71.344C129.498 71.744 128.962 72.304 128.578 73.024C128.194 73.744 128.002 74.568 128.002 75.496V75.76C128.002 76.72 128.21 77.568 128.626 78.304C129.058 79.024 129.65 79.592 130.402 80.008C131.17 80.408 132.042 80.608 133.018 80.608C133.786 80.608 134.498 80.472 135.154 80.2C135.826 79.928 136.402 79.512 136.882 78.952L137.842 80.056C137.282 80.728 136.578 81.24 135.73 81.592C134.898 81.944 133.978 82.12 132.97 82.12ZM140.617 82V80.872L149.017 70.24L149.377 70.816H140.761V69.4H150.721V70.504L142.345 81.16L141.913 80.584H150.889V82H140.617ZM165.54 82.12C164.34 82.12 163.26 81.848 162.3 81.304C161.356 80.76 160.612 80.008 160.068 79.048C159.524 78.072 159.252 76.952 159.252 75.688C159.252 74.408 159.524 73.288 160.068 72.328C160.612 71.368 161.356 70.624 162.3 70.096C163.26 69.552 164.34 69.28 165.54 69.28C166.644 69.28 167.628 69.528 168.492 70.024C169.372 70.52 170.068 71.248 170.58 72.208C171.108 73.152 171.372 74.312 171.372 75.688C171.372 77.048 171.116 78.208 170.604 79.168C170.092 80.128 169.396 80.864 168.516 81.376C167.652 81.872 166.66 82.12 165.54 82.12ZM165.66 80.608C166.556 80.608 167.356 80.408 168.06 80.008C168.78 79.592 169.34 79.016 169.74 78.28C170.156 77.528 170.364 76.664 170.364 75.688C170.364 74.696 170.156 73.832 169.74 73.096C169.34 72.36 168.78 71.792 168.06 71.392C167.356 70.976 166.556 70.768 165.66 70.768C164.78 70.768 163.988 70.976 163.284 71.392C162.58 71.792 162.02 72.36 161.604 73.096C161.188 73.832 160.98 74.696 160.98 75.688C160.98 76.664 161.188 77.528 161.604 78.28C162.02 79.016 162.58 79.592 163.284 80.008C163.988 80.408 164.78 80.608 165.66 80.608ZM170.412 82V78.208L170.58 75.664L170.34 73.12V64.192H172.044V82H170.412ZM182.142 82.12C180.83 82.12 179.678 81.848 178.686 81.304C177.694 80.744 176.918 79.984 176.358 79.024C175.798 78.048 175.518 76.936 175.518 75.688C175.518 74.44 175.782 73.336 176.31 72.376C176.854 71.416 177.59 70.664 178.518 70.12C179.462 69.56 180.518 69.28 181.686 69.28C182.87 69.28 183.918 69.552 184.83 70.096C185.758 70.624 186.486 71.376 187.014 72.352C187.542 73.312 187.806 74.424 187.806 75.688C187.806 75.768 187.798 75.856 187.782 75.952C187.782 76.032 187.782 76.12 187.782 76.216H176.814V74.944H186.87L186.198 75.448C186.198 74.536 185.998 73.728 185.598 73.024C185.214 72.304 184.686 71.744 184.014 71.344C183.342 70.944 182.566 70.744 181.686 70.744C180.822 70.744 180.046 70.944 179.358 71.344C178.67 71.744 178.134 72.304 177.75 73.024C177.366 73.744 177.174 74.568 177.174 75.496V75.76C177.174 76.72 177.382 77.568 177.798 78.304C178.23 79.024 178.822 79.592 179.574 80.008C180.342 80.408 181.214 80.608 182.19 80.608C182.958 80.608 183.67 80.472 184.326 80.2C184.998 79.928 185.574 79.512 186.054 78.952L187.014 80.056C186.454 80.728 185.75 81.24 184.902 81.592C184.07 81.944 183.15 82.12 182.142 82.12ZM194.658 82.12C193.618 82.12 192.634 81.976 191.706 81.688C190.778 81.384 190.05 81.008 189.522 80.56L190.29 79.216C190.802 79.6 191.458 79.936 192.258 80.224C193.058 80.496 193.898 80.632 194.778 80.632C195.978 80.632 196.842 80.448 197.37 80.08C197.898 79.696 198.162 79.192 198.162 78.568C198.162 78.104 198.01 77.744 197.706 77.488C197.418 77.216 197.034 77.016 196.554 76.888C196.074 76.744 195.538 76.624 194.946 76.528C194.354 76.432 193.762 76.32 193.17 76.192C192.594 76.064 192.066 75.88 191.586 75.64C191.106 75.384 190.714 75.04 190.41 74.608C190.122 74.176 189.978 73.6 189.978 72.88C189.978 72.192 190.17 71.576 190.554 71.032C190.938 70.488 191.498 70.064 192.234 69.76C192.986 69.44 193.898 69.28 194.97 69.28C195.786 69.28 196.602 69.392 197.418 69.616C198.234 69.824 198.906 70.104 199.434 70.456L198.69 71.824C198.13 71.44 197.53 71.168 196.89 71.008C196.25 70.832 195.61 70.744 194.97 70.744C193.834 70.744 192.994 70.944 192.45 71.344C191.922 71.728 191.658 72.224 191.658 72.832C191.658 73.312 191.802 73.688 192.09 73.96C192.394 74.232 192.786 74.448 193.266 74.608C193.762 74.752 194.298 74.872 194.874 74.968C195.466 75.064 196.05 75.184 196.626 75.328C197.218 75.456 197.754 75.64 198.234 75.88C198.73 76.104 199.122 76.432 199.41 76.864C199.714 77.28 199.866 77.832 199.866 78.52C199.866 79.256 199.658 79.896 199.242 80.44C198.842 80.968 198.25 81.384 197.466 81.688C196.698 81.976 195.762 82.12 194.658 82.12ZM214.506 82.12C213.258 82.12 212.138 81.848 211.146 81.304C210.17 80.744 209.402 79.984 208.842 79.024C208.282 78.048 208.002 76.936 208.002 75.688C208.002 74.424 208.282 73.312 208.842 72.352C209.402 71.392 210.17 70.64 211.146 70.096C212.138 69.552 213.258 69.28 214.506 69.28C215.578 69.28 216.546 69.488 217.41 69.904C218.274 70.32 218.954 70.944 219.45 71.776L218.178 72.64C217.746 72 217.21 71.528 216.57 71.224C215.93 70.92 215.234 70.768 214.482 70.768C213.586 70.768 212.778 70.976 212.058 71.392C211.338 71.792 210.77 72.36 210.354 73.096C209.938 73.832 209.73 74.696 209.73 75.688C209.73 76.68 209.938 77.544 210.354 78.28C210.77 79.016 211.338 79.592 212.058 80.008C212.778 80.408 213.586 80.608 214.482 80.608C215.234 80.608 215.93 80.456 216.57 80.152C217.21 79.848 217.746 79.384 218.178 78.76L219.45 79.624C218.954 80.44 218.274 81.064 217.41 81.496C216.546 81.912 215.578 82.12 214.506 82.12ZM227.723 82.12C226.507 82.12 225.411 81.848 224.435 81.304C223.475 80.744 222.715 79.984 222.155 79.024C221.595 78.048 221.315 76.936 221.315 75.688C221.315 74.424 221.595 73.312 222.155 72.352C222.715 71.392 223.475 70.64 224.435 70.096C225.395 69.552 226.491 69.28 227.723 69.28C228.971 69.28 230.075 69.552 231.035 70.096C232.011 70.64 232.771 71.392 233.315 72.352C233.875 73.312 234.155 74.424 234.155 75.688C234.155 76.936 233.875 78.048 233.315 79.024C232.771 79.984 232.011 80.744 231.035 81.304C230.059 81.848 228.955 82.12 227.723 82.12ZM227.723 80.608C228.635 80.608 229.443 80.408 230.147 80.008C230.851 79.592 231.403 79.016 231.803 78.28C232.219 77.528 232.427 76.664 232.427 75.688C232.427 74.696 232.219 73.832 231.803 73.096C231.403 72.36 230.851 71.792 230.147 71.392C229.443 70.976 228.643 70.768 227.747 70.768C226.851 70.768 226.051 70.976 225.347 71.392C224.643 71.792 224.083 72.36 223.667 73.096C223.251 73.832 223.043 74.696 223.043 75.688C223.043 76.664 223.251 77.528 223.667 78.28C224.083 79.016 224.643 79.592 225.347 80.008C226.051 80.408 226.843 80.608 227.723 80.608ZM244.066 69.28C245.09 69.28 245.986 69.48 246.754 69.88C247.538 70.264 248.146 70.856 248.578 71.656C249.026 72.456 249.25 73.464 249.25 74.68V82H247.546V74.848C247.546 73.52 247.21 72.52 246.538 71.848C245.882 71.16 244.954 70.816 243.754 70.816C242.858 70.816 242.074 71 241.402 71.368C240.746 71.72 240.234 72.24 239.866 72.928C239.514 73.6 239.338 74.416 239.338 75.376V82H237.634V69.4H239.266V72.856L239.002 72.208C239.402 71.296 240.042 70.584 240.922 70.072C241.802 69.544 242.85 69.28 244.066 69.28ZM257.837 82.12C256.653 82.12 255.741 81.8 255.101 81.16C254.461 80.52 254.141 79.616 254.141 78.448V66.616H255.845V78.352C255.845 79.088 256.029 79.656 256.397 80.056C256.781 80.456 257.325 80.656 258.029 80.656C258.781 80.656 259.405 80.44 259.901 80.008L260.501 81.232C260.165 81.536 259.757 81.76 259.277 81.904C258.813 82.048 258.333 82.12 257.837 82.12ZM251.885 70.816V69.4H259.685V70.816H251.885ZM263.603 82V69.4H265.235V72.832L265.067 72.232C265.419 71.272 266.011 70.544 266.843 70.048C267.675 69.536 268.707 69.28 269.939 69.28V70.936C269.875 70.936 269.811 70.936 269.747 70.936C269.683 70.92 269.619 70.912 269.555 70.912C268.227 70.912 267.187 71.32 266.435 72.136C265.683 72.936 265.307 74.08 265.307 75.568V82H263.603ZM280.006 82V79.216L279.934 78.76V74.104C279.934 73.032 279.63 72.208 279.022 71.632C278.43 71.056 277.542 70.768 276.358 70.768C275.542 70.768 274.766 70.904 274.03 71.176C273.294 71.448 272.67 71.808 272.158 72.256L271.39 70.984C272.03 70.44 272.798 70.024 273.694 69.736C274.59 69.432 275.534 69.28 276.526 69.28C278.158 69.28 279.414 69.688 280.294 70.504C281.19 71.304 281.638 72.528 281.638 74.176V82H280.006ZM275.662 82.12C274.718 82.12 273.894 81.968 273.19 81.664C272.502 81.344 271.974 80.912 271.606 80.368C271.238 79.808 271.054 79.168 271.054 78.448C271.054 77.792 271.206 77.2 271.51 76.672C271.83 76.128 272.342 75.696 273.046 75.376C273.766 75.04 274.726 74.872 275.926 74.872H280.27V76.144H275.974C274.758 76.144 273.91 76.36 273.43 76.792C272.966 77.224 272.734 77.76 272.734 78.4C272.734 79.12 273.014 79.696 273.574 80.128C274.134 80.56 274.918 80.776 275.926 80.776C276.886 80.776 277.71 80.56 278.398 80.128C279.102 79.68 279.614 79.04 279.934 78.208L280.318 79.384C279.998 80.216 279.438 80.88 278.638 81.376C277.854 81.872 276.862 82.12 275.662 82.12ZM290.251 82.12C289.067 82.12 288.155 81.8 287.515 81.16C286.875 80.52 286.555 79.616 286.555 78.448V66.616H288.259V78.352C288.259 79.088 288.443 79.656 288.811 80.056C289.195 80.456 289.739 80.656 290.443 80.656C291.195 80.656 291.819 80.44 292.315 80.008L292.915 81.232C292.579 81.536 292.171 81.76 291.691 81.904C291.227 82.048 290.747 82.12 290.251 82.12ZM284.299 70.816V69.4H292.099V70.816H284.299ZM299.401 82.12C298.361 82.12 297.377 81.976 296.449 81.688C295.521 81.384 294.793 81.008 294.265 80.56L295.033 79.216C295.545 79.6 296.201 79.936 297.001 80.224C297.801 80.496 298.641 80.632 299.521 80.632C300.721 80.632 301.585 80.448 302.113 80.08C302.641 79.696 302.905 79.192 302.905 78.568C302.905 78.104 302.753 77.744 302.449 77.488C302.161 77.216 301.777 77.016 301.297 76.888C300.817 76.744 300.281 76.624 299.689 76.528C299.097 76.432 298.505 76.32 297.913 76.192C297.337 76.064 296.809 75.88 296.329 75.64C295.849 75.384 295.457 75.04 295.153 74.608C294.865 74.176 294.721 73.6 294.721 72.88C294.721 72.192 294.913 71.576 295.297 71.032C295.681 70.488 296.241 70.064 296.977 69.76C297.729 69.44 298.641 69.28 299.713 69.28C300.529 69.28 301.345 69.392 302.161 69.616C302.977 69.824 303.649 70.104 304.177 70.456L303.433 71.824C302.873 71.44 302.273 71.168 301.633 71.008C300.993 70.832 300.353 70.744 299.713 70.744C298.577 70.744 297.737 70.944 297.193 71.344C296.665 71.728 296.401 72.224 296.401 72.832C296.401 73.312 296.545 73.688 296.833 73.96C297.137 74.232 297.529 74.448 298.009 74.608C298.505 74.752 299.041 74.872 299.617 74.968C300.209 75.064 300.793 75.184 301.369 75.328C301.961 75.456 302.497 75.64 302.977 75.88C303.473 76.104 303.865 76.432 304.153 76.864C304.457 77.28 304.609 77.832 304.609 78.52C304.609 79.256 304.401 79.896 303.985 80.44C303.585 80.968 302.993 81.384 302.209 81.688C301.441 81.976 300.505 82.12 299.401 82.12ZM321.913 82V79.216L321.841 78.76V74.104C321.841 73.032 321.537 72.208 320.929 71.632C320.337 71.056 319.449 70.768 318.265 70.768C317.449 70.768 316.673 70.904 315.937 71.176C315.201 71.448 314.577 71.808 314.065 72.256L313.297 70.984C313.937 70.44 314.705 70.024 315.601 69.736C316.497 69.432 317.441 69.28 318.433 69.28C320.065 69.28 321.321 69.688 322.201 70.504C323.097 71.304 323.545 72.528 323.545 74.176V82H321.913ZM317.569 82.12C316.625 82.12 315.801 81.968 315.097 81.664C314.409 81.344 313.881 80.912 313.513 80.368C313.145 79.808 312.961 79.168 312.961 78.448C312.961 77.792 313.113 77.2 313.417 76.672C313.737 76.128 314.249 75.696 314.953 75.376C315.673 75.04 316.633 74.872 317.833 74.872H322.177V76.144H317.881C316.665 76.144 315.817 76.36 315.337 76.792C314.873 77.224 314.641 77.76 314.641 78.4C314.641 79.12 314.921 79.696 315.481 80.128C316.041 80.56 316.825 80.776 317.833 80.776C318.793 80.776 319.617 80.56 320.305 80.128C321.009 79.68 321.521 79.04 321.841 78.208L322.225 79.384C321.905 80.216 321.345 80.88 320.545 81.376C319.761 81.872 318.769 82.12 317.569 82.12ZM318.361 67.432L314.473 64.456H316.753L320.041 67.432H318.361ZM338.438 82.12C337.254 82.12 336.342 81.8 335.702 81.16C335.062 80.52 334.742 79.616 334.742 78.448V66.616H336.446V78.352C336.446 79.088 336.63 79.656 336.998 80.056C337.382 80.456 337.926 80.656 338.63 80.656C339.382 80.656 340.006 80.44 340.502 80.008L341.102 81.232C340.766 81.536 340.358 81.76 339.878 81.904C339.414 82.048 338.934 82.12 338.438 82.12ZM332.486 70.816V69.4H340.286V70.816H332.486ZM349.111 82.12C347.799 82.12 346.647 81.848 345.655 81.304C344.663 80.744 343.887 79.984 343.327 79.024C342.767 78.048 342.487 76.936 342.487 75.688C342.487 74.44 342.751 73.336 343.279 72.376C343.823 71.416 344.559 70.664 345.487 70.12C346.431 69.56 347.487 69.28 348.655 69.28C349.839 69.28 350.887 69.552 351.799 70.096C352.727 70.624 353.455 71.376 353.983 72.352C354.511 73.312 354.775 74.424 354.775 75.688C354.775 75.768 354.767 75.856 354.751 75.952C354.751 76.032 354.751 76.12 354.751 76.216H343.783V74.944H353.839L353.167 75.448C353.167 74.536 352.967 73.728 352.567 73.024C352.183 72.304 351.655 71.744 350.983 71.344C350.311 70.944 349.535 70.744 348.655 70.744C347.791 70.744 347.015 70.944 346.327 71.344C345.639 71.744 345.103 72.304 344.719 73.024C344.335 73.744 344.143 74.568 344.143 75.496V75.76C344.143 76.72 344.351 77.568 344.767 78.304C345.199 79.024 345.791 79.592 346.543 80.008C347.311 80.408 348.183 80.608 349.159 80.608C349.927 80.608 350.639 80.472 351.295 80.2C351.967 79.928 352.543 79.512 353.023 78.952L353.983 80.056C353.423 80.728 352.719 81.24 351.871 81.592C351.039 81.944 350.119 82.12 349.111 82.12ZM358.243 82V69.4H359.875V72.832L359.707 72.232C360.059 71.272 360.651 70.544 361.483 70.048C362.315 69.536 363.347 69.28 364.579 69.28V70.936C364.515 70.936 364.451 70.936 364.387 70.936C364.323 70.92 364.259 70.912 364.195 70.912C362.867 70.912 361.827 71.32 361.075 72.136C360.323 72.936 359.947 74.08 359.947 75.568V82H358.243ZM383.433 69.28C384.457 69.28 385.345 69.48 386.097 69.88C386.865 70.264 387.457 70.856 387.873 71.656C388.305 72.456 388.521 73.464 388.521 74.68V82H386.817V74.848C386.817 73.52 386.497 72.52 385.857 71.848C385.233 71.16 384.345 70.816 383.193 70.816C382.329 70.816 381.577 71 380.937 71.368C380.313 71.72 379.825 72.24 379.473 72.928C379.137 73.6 378.969 74.416 378.969 75.376V82H377.265V74.848C377.265 73.52 376.945 72.52 376.305 71.848C375.665 71.16 374.769 70.816 373.617 70.816C372.769 70.816 372.025 71 371.385 71.368C370.745 71.72 370.249 72.24 369.897 72.928C369.561 73.6 369.393 74.416 369.393 75.376V82H367.689V69.4H369.321V72.808L369.057 72.208C369.441 71.296 370.057 70.584 370.905 70.072C371.769 69.544 372.785 69.28 373.953 69.28C375.185 69.28 376.233 69.592 377.097 70.216C377.961 70.824 378.521 71.744 378.777 72.976L378.105 72.712C378.473 71.688 379.121 70.864 380.049 70.24C380.993 69.6 382.121 69.28 383.433 69.28ZM398.494 82.12C397.182 82.12 396.03 81.848 395.038 81.304C394.046 80.744 393.27 79.984 392.71 79.024C392.15 78.048 391.87 76.936 391.87 75.688C391.87 74.44 392.134 73.336 392.662 72.376C393.206 71.416 393.942 70.664 394.87 70.12C395.814 69.56 396.87 69.28 398.038 69.28C399.222 69.28 400.27 69.552 401.182 70.096C402.11 70.624 402.838 71.376 403.366 72.352C403.894 73.312 404.158 74.424 404.158 75.688C404.158 75.768 404.15 75.856 404.134 75.952C404.134 76.032 404.134 76.12 404.134 76.216H393.166V74.944H403.222L402.55 75.448C402.55 74.536 402.35 73.728 401.95 73.024C401.566 72.304 401.038 71.744 400.366 71.344C399.694 70.944 398.918 70.744 398.038 70.744C397.174 70.744 396.398 70.944 395.71 71.344C395.022 71.744 394.486 72.304 394.102 73.024C393.718 73.744 393.526 74.568 393.526 75.496V75.76C393.526 76.72 393.734 77.568 394.15 78.304C394.582 79.024 395.174 79.592 395.926 80.008C396.694 80.408 397.566 80.608 398.542 80.608C399.31 80.608 400.022 80.472 400.678 80.2C401.35 79.928 401.926 79.512 402.406 78.952L403.366 80.056C402.806 80.728 402.102 81.24 401.254 81.592C400.422 81.944 399.502 82.12 398.494 82.12ZM421.803 82V79.216L421.731 78.76V74.104C421.731 73.032 421.427 72.208 420.819 71.632C420.227 71.056 419.339 70.768 418.155 70.768C417.339 70.768 416.563 70.904 415.827 71.176C415.091 71.448 414.467 71.808 413.955 72.256L413.187 70.984C413.827 70.44 414.595 70.024 415.491 69.736C416.387 69.432 417.331 69.28 418.323 69.28C419.955 69.28 421.211 69.688 422.091 70.504C422.987 71.304 423.435 72.528 423.435 74.176V82H421.803ZM417.459 82.12C416.515 82.12 415.691 81.968 414.987 81.664C414.299 81.344 413.771 80.912 413.403 80.368C413.035 79.808 412.851 79.168 412.851 78.448C412.851 77.792 413.003 77.2 413.307 76.672C413.627 76.128 414.139 75.696 414.843 75.376C415.563 75.04 416.523 74.872 417.723 74.872H422.067V76.144H417.771C416.555 76.144 415.707 76.36 415.227 76.792C414.763 77.224 414.531 77.76 414.531 78.4C414.531 79.12 414.811 79.696 415.371 80.128C415.931 80.56 416.715 80.776 417.723 80.776C418.683 80.776 419.507 80.56 420.195 80.128C420.899 79.68 421.411 79.04 421.731 78.208L422.115 79.384C421.795 80.216 421.235 80.88 420.435 81.376C419.651 81.872 418.659 82.12 417.459 82.12ZM418.251 67.432L414.363 64.456H416.643L419.931 67.432H418.251ZM439.577 82.12C438.329 82.12 437.209 81.848 436.217 81.304C435.241 80.744 434.473 79.984 433.913 79.024C433.353 78.048 433.073 76.936 433.073 75.688C433.073 74.424 433.353 73.312 433.913 72.352C434.473 71.392 435.241 70.64 436.217 70.096C437.209 69.552 438.329 69.28 439.577 69.28C440.649 69.28 441.617 69.488 442.481 69.904C443.345 70.32 444.025 70.944 444.521 71.776L443.249 72.64C442.817 72 442.281 71.528 441.641 71.224C441.001 70.92 440.305 70.768 439.553 70.768C438.657 70.768 437.849 70.976 437.129 71.392C436.409 71.792 435.841 72.36 435.425 73.096C435.009 73.832 434.801 74.696 434.801 75.688C434.801 76.68 435.009 77.544 435.425 78.28C435.841 79.016 436.409 79.592 437.129 80.008C437.849 80.408 438.657 80.608 439.553 80.608C440.305 80.608 441.001 80.456 441.641 80.152C442.281 79.848 442.817 79.384 443.249 78.76L444.521 79.624C444.025 80.44 443.345 81.064 442.481 81.496C441.617 81.912 440.649 82.12 439.577 82.12ZM453.009 82.12C451.697 82.12 450.545 81.848 449.553 81.304C448.561 80.744 447.785 79.984 447.225 79.024C446.665 78.048 446.385 76.936 446.385 75.688C446.385 74.44 446.649 73.336 447.177 72.376C447.721 71.416 448.457 70.664 449.385 70.12C450.329 69.56 451.385 69.28 452.553 69.28C453.737 69.28 454.785 69.552 455.697 70.096C456.625 70.624 457.353 71.376 457.881 72.352C458.409 73.312 458.673 74.424 458.673 75.688C458.673 75.768 458.665 75.856 458.649 75.952C458.649 76.032 458.649 76.12 458.649 76.216H447.681V74.944H457.737L457.065 75.448C457.065 74.536 456.865 73.728 456.465 73.024C456.081 72.304 455.553 71.744 454.881 71.344C454.209 70.944 453.433 70.744 452.553 70.744C451.689 70.744 450.913 70.944 450.225 71.344C449.537 71.744 449.001 72.304 448.617 73.024C448.233 73.744 448.041 74.568 448.041 75.496V75.76C448.041 76.72 448.249 77.568 448.665 78.304C449.097 79.024 449.689 79.592 450.441 80.008C451.209 80.408 452.081 80.608 453.057 80.608C453.825 80.608 454.537 80.472 455.193 80.2C455.865 79.928 456.441 79.512 456.921 78.952L457.881 80.056C457.321 80.728 456.617 81.24 455.769 81.592C454.937 81.944 454.017 82.12 453.009 82.12ZM474.927 82.12C473.839 82.12 472.855 81.872 471.975 81.376C471.095 80.864 470.391 80.136 469.863 79.192C469.351 78.232 469.095 77.064 469.095 75.688C469.095 74.312 469.351 73.152 469.863 72.208C470.375 71.248 471.071 70.52 471.951 70.024C472.831 69.528 473.823 69.28 474.927 69.28C476.127 69.28 477.199 69.552 478.143 70.096C479.103 70.624 479.855 71.376 480.399 72.352C480.943 73.312 481.215 74.424 481.215 75.688C481.215 76.968 480.943 78.088 480.399 79.048C479.855 80.008 479.103 80.76 478.143 81.304C477.199 81.848 476.127 82.12 474.927 82.12ZM468.423 86.656V69.4H470.055V73.192L469.887 75.712L470.127 78.256V86.656H468.423ZM474.807 80.608C475.703 80.608 476.503 80.408 477.207 80.008C477.911 79.592 478.471 79.016 478.887 78.28C479.303 77.528 479.511 76.664 479.511 75.688C479.511 74.712 479.303 73.856 478.887 73.12C478.471 72.384 477.911 71.808 477.207 71.392C476.503 70.976 475.703 70.768 474.807 70.768C473.911 70.768 473.103 70.976 472.383 71.392C471.679 71.808 471.119 72.384 470.703 73.12C470.303 73.856 470.103 74.712 470.103 75.688C470.103 76.664 470.303 77.528 470.703 78.28C471.119 79.016 471.679 79.592 472.383 80.008C473.103 80.408 473.911 80.608 474.807 80.608ZM484.689 82V69.4H486.321V72.832L486.153 72.232C486.505 71.272 487.097 70.544 487.929 70.048C488.761 69.536 489.793 69.28 491.025 69.28V70.936C490.961 70.936 490.897 70.936 490.833 70.936C490.769 70.92 490.705 70.912 490.641 70.912C489.312 70.912 488.273 71.32 487.521 72.136C486.769 72.936 486.393 74.08 486.393 75.568V82H484.689ZM494.134 82V69.4H495.838V82H494.134ZM494.998 66.616C494.646 66.616 494.35 66.496 494.11 66.256C493.87 66.016 493.75 65.728 493.75 65.392C493.75 65.056 493.87 64.776 494.11 64.552C494.35 64.312 494.646 64.192 494.998 64.192C495.35 64.192 495.646 64.304 495.886 64.528C496.126 64.752 496.246 65.032 496.246 65.368C496.246 65.72 496.126 66.016 495.886 66.256C495.662 66.496 495.366 66.616 494.998 66.616ZM498.659 82L503.987 75.088L503.963 75.928L498.899 69.4H500.819L504.971 74.8L504.251 74.776L508.403 69.4H510.275L505.163 76L505.187 75.088L510.563 82H508.619L504.227 76.24L504.899 76.336L500.579 82H498.659Z" fill="#214B33"/>
<path d="M139 29L689 29" stroke="#BC0051"/>
<path d="M3.736 29V12.2H10.024C11.448 12.2 12.672 12.432 13.696 12.896C14.72 13.344 15.504 14 16.048 14.864C16.608 15.712 16.888 16.744 16.888 17.96C16.888 19.144 16.608 20.168 16.048 21.032C15.504 21.88 14.72 22.536 13.696 23C12.672 23.464 11.448 23.696 10.024 23.696H4.72L5.512 22.856V29H3.736ZM5.512 23L4.72 22.136H9.976C11.656 22.136 12.928 21.776 13.792 21.056C14.672 20.32 15.112 19.288 15.112 17.96C15.112 16.616 14.672 15.576 13.792 14.84C12.928 14.104 11.656 13.736 9.976 13.736H4.72L5.512 12.896V23ZM20.0635 29V16.4H21.6955V19.832L21.5275 19.232C21.8795 18.272 22.4715 17.544 23.3035 17.048C24.1355 16.536 25.1675 16.28 26.3995 16.28V17.936C26.3355 17.936 26.2715 17.936 26.2075 17.936C26.1435 17.92 26.0795 17.912 26.0155 17.912C24.6875 17.912 23.6475 18.32 22.8955 19.136C22.1435 19.936 21.7675 21.08 21.7675 22.568V29H20.0635ZM29.5088 29V16.4H31.2128V29H29.5088ZM30.3728 13.616C30.0208 13.616 29.7248 13.496 29.4848 13.256C29.2448 13.016 29.1248 12.728 29.1248 12.392C29.1248 12.056 29.2448 11.776 29.4848 11.552C29.7248 11.312 30.0208 11.192 30.3728 11.192C30.7248 11.192 31.0208 11.304 31.2608 11.528C31.5008 11.752 31.6208 12.032 31.6208 12.368C31.6208 12.72 31.5008 13.016 31.2608 13.256C31.0368 13.496 30.7408 13.616 30.3728 13.616ZM34.0341 29L39.3621 22.088L39.3381 22.928L34.2741 16.4H36.1941L40.3461 21.8L39.6261 21.776L43.7781 16.4H45.6501L40.5381 23L40.5621 22.088L45.9381 29H43.9941L39.6021 23.24L40.2741 23.336L35.9541 29H34.0341ZM60.0717 29.12C58.8717 29.12 57.7917 28.848 56.8317 28.304C55.8877 27.76 55.1437 27.008 54.5997 26.048C54.0557 25.072 53.7837 23.952 53.7837 22.688C53.7837 21.408 54.0557 20.288 54.5997 19.328C55.1437 18.368 55.8877 17.624 56.8317 17.096C57.7917 16.552 58.8717 16.28 60.0717 16.28C61.1757 16.28 62.1597 16.528 63.0237 17.024C63.9037 17.52 64.5997 18.248 65.1117 19.208C65.6397 20.152 65.9037 21.312 65.9037 22.688C65.9037 24.048 65.6477 25.208 65.1357 26.168C64.6237 27.128 63.9277 27.864 63.0477 28.376C62.1837 28.872 61.1917 29.12 60.0717 29.12ZM60.1917 27.608C61.0877 27.608 61.8877 27.408 62.5917 27.008C63.3117 26.592 63.8717 26.016 64.2717 25.28C64.6877 24.528 64.8957 23.664 64.8957 22.688C64.8957 21.696 64.6877 20.832 64.2717 20.096C63.8717 19.36 63.3117 18.792 62.5917 18.392C61.8877 17.976 61.0877 17.768 60.1917 17.768C59.3117 17.768 58.5197 17.976 57.8157 18.392C57.1117 18.792 56.5517 19.36 56.1357 20.096C55.7197 20.832 55.5117 21.696 55.5117 22.688C55.5117 23.664 55.7197 24.528 56.1357 25.28C56.5517 26.016 57.1117 26.592 57.8157 27.008C58.5197 27.408 59.3117 27.608 60.1917 27.608ZM64.9437 29V25.208L65.1117 22.664L64.8717 20.12V11.192H66.5757V29H64.9437ZM76.6733 29.12C75.3613 29.12 74.2093 28.848 73.2173 28.304C72.2253 27.744 71.4493 26.984 70.8893 26.024C70.3293 25.048 70.0493 23.936 70.0493 22.688C70.0493 21.44 70.3133 20.336 70.8413 19.376C71.3853 18.416 72.1213 17.664 73.0493 17.12C73.9933 16.56 75.0493 16.28 76.2173 16.28C77.4013 16.28 78.4493 16.552 79.3613 17.096C80.2893 17.624 81.0173 18.376 81.5453 19.352C82.0733 20.312 82.3373 21.424 82.3373 22.688C82.3373 22.768 82.3293 22.856 82.3133 22.952C82.3133 23.032 82.3133 23.12 82.3133 23.216H71.3453V21.944H81.4013L80.7293 22.448C80.7293 21.536 80.5293 20.728 80.1293 20.024C79.7453 19.304 79.2173 18.744 78.5453 18.344C77.8733 17.944 77.0973 17.744 76.2173 17.744C75.3533 17.744 74.5773 17.944 73.8893 18.344C73.2013 18.744 72.6653 19.304 72.2813 20.024C71.8973 20.744 71.7053 21.568 71.7053 22.496V22.76C71.7053 23.72 71.9133 24.568 72.3293 25.304C72.7613 26.024 73.3533 26.592 74.1053 27.008C74.8733 27.408 75.7453 27.608 76.7213 27.608C77.4893 27.608 78.2013 27.472 78.8573 27.2C79.5293 26.928 80.1053 26.512 80.5853 25.952L81.5453 27.056C80.9853 27.728 80.2813 28.24 79.4333 28.592C78.6013 28.944 77.6813 29.12 76.6733 29.12ZM95.3269 29L89.7349 16.4H91.5109L96.6469 28.088H95.8069L101.015 16.4H102.695L97.0789 29H95.3269ZM110.095 29.12C108.783 29.12 107.631 28.848 106.639 28.304C105.647 27.744 104.871 26.984 104.311 26.024C103.751 25.048 103.471 23.936 103.471 22.688C103.471 21.44 103.735 20.336 104.263 19.376C104.807 18.416 105.543 17.664 106.471 17.12C107.415 16.56 108.471 16.28 109.639 16.28C110.823 16.28 111.871 16.552 112.783 17.096C113.711 17.624 114.439 18.376 114.967 19.352C115.495 20.312 115.759 21.424 115.759 22.688C115.759 22.768 115.751 22.856 115.735 22.952C115.735 23.032 115.735 23.12 115.735 23.216H104.767V21.944H114.823L114.151 22.448C114.151 21.536 113.951 20.728 113.551 20.024C113.167 19.304 112.639 18.744 111.967 18.344C111.295 17.944 110.519 17.744 109.639 17.744C108.775 17.744 107.999 17.944 107.311 18.344C106.623 18.744 106.087 19.304 105.703 20.024C105.319 20.744 105.127 21.568 105.127 22.496V22.76C105.127 23.72 105.335 24.568 105.751 25.304C106.183 26.024 106.775 26.592 107.527 27.008C108.295 27.408 109.167 27.608 110.143 27.608C110.911 27.608 111.623 27.472 112.279 27.2C112.951 26.928 113.527 26.512 114.007 25.952L114.967 27.056C114.407 27.728 113.703 28.24 112.855 28.592C112.023 28.944 111.103 29.12 110.095 29.12ZM125.66 16.28C126.684 16.28 127.58 16.48 128.348 16.88C129.132 17.264 129.74 17.856 130.172 18.656C130.62 19.456 130.844 20.464 130.844 21.68V29H129.14V21.848C129.14 20.52 128.804 19.52 128.132 18.848C127.476 18.16 126.548 17.816 125.348 17.816C124.452 17.816 123.668 18 122.996 18.368C122.34 18.72 121.828 19.24 121.46 19.928C121.108 20.6 120.932 21.416 120.932 22.376V29H119.228V16.4H120.86V19.856L120.596 19.208C120.996 18.296 121.636 17.584 122.516 17.072C123.396 16.544 124.444 16.28 125.66 16.28ZM139.43 29.12C138.246 29.12 137.334 28.8 136.694 28.16C136.054 27.52 135.734 26.616 135.734 25.448V13.616H137.438V25.352C137.438 26.088 137.622 26.656 137.99 27.056C138.374 27.456 138.918 27.656 139.622 27.656C140.374 27.656 140.998 27.44 141.494 27.008L142.094 28.232C141.758 28.536 141.35 28.76 140.87 28.904C140.406 29.048 139.926 29.12 139.43 29.12ZM133.478 17.816V16.4H141.278V17.816H133.478ZM150.103 29.12C148.791 29.12 147.639 28.848 146.647 28.304C145.655 27.744 144.879 26.984 144.319 26.024C143.759 25.048 143.479 23.936 143.479 22.688C143.479 21.44 143.743 20.336 144.271 19.376C144.815 18.416 145.551 17.664 146.479 17.12C147.423 16.56 148.479 16.28 149.647 16.28C150.831 16.28 151.879 16.552 152.791 17.096C153.719 17.624 154.447 18.376 154.975 19.352C155.503 20.312 155.767 21.424 155.767 22.688C155.767 22.768 155.759 22.856 155.743 22.952C155.743 23.032 155.743 23.12 155.743 23.216H144.775V21.944H154.831L154.159 22.448C154.159 21.536 153.959 20.728 153.559 20.024C153.175 19.304 152.647 18.744 151.975 18.344C151.303 17.944 150.527 17.744 149.647 17.744C148.783 17.744 148.007 17.944 147.319 18.344C146.631 18.744 146.095 19.304 145.711 20.024C145.327 20.744 145.135 21.568 145.135 22.496V22.76C145.135 23.72 145.343 24.568 145.759 25.304C146.191 26.024 146.783 26.592 147.535 27.008C148.303 27.408 149.175 27.608 150.151 27.608C150.919 27.608 151.631 27.472 152.287 27.2C152.959 26.928 153.535 26.512 154.015 25.952L154.975 27.056C154.415 27.728 153.711 28.24 152.863 28.592C152.031 28.944 151.111 29.12 150.103 29.12ZM173.413 29V26.216L173.341 25.76V21.104C173.341 20.032 173.037 19.208 172.429 18.632C171.837 18.056 170.949 17.768 169.765 17.768C168.949 17.768 168.173 17.904 167.437 18.176C166.701 18.448 166.077 18.808 165.565 19.256L164.797 17.984C165.437 17.44 166.205 17.024 167.101 16.736C167.997 16.432 168.941 16.28 169.933 16.28C171.565 16.28 172.821 16.688 173.701 17.504C174.597 18.304 175.045 19.528 175.045 21.176V29H173.413ZM169.069 29.12C168.125 29.12 167.301 28.968 166.597 28.664C165.909 28.344 165.381 27.912 165.013 27.368C164.645 26.808 164.461 26.168 164.461 25.448C164.461 24.792 164.613 24.2 164.917 23.672C165.237 23.128 165.749 22.696 166.453 22.376C167.173 22.04 168.133 21.872 169.333 21.872H173.677V23.144H169.381C168.165 23.144 167.317 23.36 166.837 23.792C166.373 24.224 166.141 24.76 166.141 25.4C166.141 26.12 166.421 26.696 166.981 27.128C167.541 27.56 168.325 27.776 169.333 27.776C170.293 27.776 171.117 27.56 171.805 27.128C172.509 26.68 173.021 26.04 173.341 25.208L173.725 26.384C173.405 27.216 172.845 27.88 172.045 28.376C171.261 28.872 170.269 29.12 169.069 29.12ZM184.881 29.12C183.809 29.12 182.873 28.92 182.073 28.52C181.273 28.12 180.649 27.52 180.201 26.72C179.769 25.92 179.553 24.92 179.553 23.72V16.4H181.257V23.528C181.257 24.872 181.585 25.888 182.241 26.576C182.913 27.248 183.849 27.584 185.049 27.584C185.929 27.584 186.689 27.408 187.329 27.056C187.985 26.688 188.481 26.16 188.817 25.472C189.169 24.784 189.345 23.96 189.345 23V16.4H191.049V29H189.417V25.544L189.681 26.168C189.281 27.096 188.657 27.824 187.809 28.352C186.977 28.864 186.001 29.12 184.881 29.12ZM207.095 29.12C205.895 29.12 204.815 28.848 203.855 28.304C202.911 27.76 202.167 27.008 201.623 26.048C201.079 25.072 200.807 23.952 200.807 22.688C200.807 21.408 201.079 20.288 201.623 19.328C202.167 18.368 202.911 17.624 203.855 17.096C204.815 16.552 205.895 16.28 207.095 16.28C208.199 16.28 209.183 16.528 210.047 17.024C210.927 17.52 211.623 18.248 212.135 19.208C212.663 20.152 212.927 21.312 212.927 22.688C212.927 24.048 212.671 25.208 212.159 26.168C211.647 27.128 210.951 27.864 210.071 28.376C209.207 28.872 208.215 29.12 207.095 29.12ZM207.215 27.608C208.111 27.608 208.911 27.408 209.615 27.008C210.335 26.592 210.895 26.016 211.295 25.28C211.711 24.528 211.919 23.664 211.919 22.688C211.919 21.696 211.711 20.832 211.295 20.096C210.895 19.36 210.335 18.792 209.615 18.392C208.911 17.976 208.111 17.768 207.215 17.768C206.335 17.768 205.543 17.976 204.839 18.392C204.135 18.792 203.575 19.36 203.159 20.096C202.743 20.832 202.535 21.696 202.535 22.688C202.535 23.664 202.743 24.528 203.159 25.28C203.575 26.016 204.135 26.592 204.839 27.008C205.543 27.408 206.335 27.608 207.215 27.608ZM211.967 29V25.208L212.135 22.664L211.895 20.12V11.192H213.599V29H211.967ZM223.697 29.12C222.385 29.12 221.233 28.848 220.241 28.304C219.249 27.744 218.473 26.984 217.913 26.024C217.353 25.048 217.073 23.936 217.073 22.688C217.073 21.44 217.337 20.336 217.865 19.376C218.409 18.416 219.145 17.664 220.073 17.12C221.017 16.56 222.073 16.28 223.241 16.28C224.425 16.28 225.473 16.552 226.385 17.096C227.313 17.624 228.041 18.376 228.569 19.352C229.097 20.312 229.361 21.424 229.361 22.688C229.361 22.768 229.353 22.856 229.337 22.952C229.337 23.032 229.337 23.12 229.337 23.216H218.369V21.944H228.425L227.753 22.448C227.753 21.536 227.553 20.728 227.153 20.024C226.769 19.304 226.241 18.744 225.569 18.344C224.897 17.944 224.121 17.744 223.241 17.744C222.377 17.744 221.601 17.944 220.913 18.344C220.225 18.744 219.689 19.304 219.305 20.024C218.921 20.744 218.729 21.568 218.729 22.496V22.76C218.729 23.72 218.937 24.568 219.353 25.304C219.785 26.024 220.377 26.592 221.129 27.008C221.897 27.408 222.769 27.608 223.745 27.608C224.513 27.608 225.225 27.472 225.881 27.2C226.553 26.928 227.129 26.512 227.609 25.952L228.569 27.056C228.009 27.728 227.305 28.24 226.457 28.592C225.625 28.944 224.705 29.12 223.697 29.12ZM221.657 14.432L224.945 11.456H227.225L223.337 14.432H221.657ZM236.813 29.12C235.629 29.12 234.717 28.8 234.077 28.16C233.437 27.52 233.117 26.616 233.117 25.448V13.616H234.821V25.352C234.821 26.088 235.005 26.656 235.373 27.056C235.757 27.456 236.301 27.656 237.005 27.656C237.757 27.656 238.381 27.44 238.877 27.008L239.477 28.232C239.141 28.536 238.733 28.76 238.253 28.904C237.789 29.048 237.309 29.12 236.813 29.12ZM230.861 17.816V16.4H238.661V17.816H230.861ZM250.475 29V26.216L250.403 25.76V21.104C250.403 20.032 250.099 19.208 249.491 18.632C248.899 18.056 248.011 17.768 246.827 17.768C246.011 17.768 245.235 17.904 244.499 18.176C243.763 18.448 243.139 18.808 242.627 19.256L241.859 17.984C242.499 17.44 243.267 17.024 244.163 16.736C245.059 16.432 246.003 16.28 246.995 16.28C248.627 16.28 249.883 16.688 250.763 17.504C251.659 18.304 252.107 19.528 252.107 21.176V29H250.475ZM246.131 29.12C245.187 29.12 244.363 28.968 243.659 28.664C242.971 28.344 242.443 27.912 242.075 27.368C241.707 26.808 241.523 26.168 241.523 25.448C241.523 24.792 241.675 24.2 241.979 23.672C242.299 23.128 242.811 22.696 243.515 22.376C244.235 22.04 245.195 21.872 246.395 21.872H250.739V23.144H246.443C245.227 23.144 244.379 23.36 243.899 23.792C243.435 24.224 243.203 24.76 243.203 25.4C243.203 26.12 243.483 26.696 244.043 27.128C244.603 27.56 245.387 27.776 246.395 27.776C247.355 27.776 248.179 27.56 248.867 27.128C249.571 26.68 250.083 26.04 250.403 25.208L250.787 26.384C250.467 27.216 249.907 27.88 249.107 28.376C248.323 28.872 247.331 29.12 246.131 29.12ZM256.735 29V16.4H258.439V29H256.735ZM257.599 13.616C257.247 13.616 256.951 13.496 256.711 13.256C256.471 13.016 256.351 12.728 256.351 12.392C256.351 12.056 256.471 11.776 256.711 11.552C256.951 11.312 257.247 11.192 257.599 11.192C257.951 11.192 258.247 11.304 258.487 11.528C258.727 11.752 258.847 12.032 258.847 12.368C258.847 12.72 258.727 13.016 258.487 13.256C258.263 13.496 257.967 13.616 257.599 13.616ZM263.181 29V11.192H264.885V29H263.181Z" fill="#BC0051"/>
<path d="M154 166H1" stroke="#A2C33D"/>
<path d="M6.418 152L0.91 139.4H3.448L8.362 150.794H6.904L11.872 139.4H14.212L8.722 152H6.418ZM18.9249 152.126C17.9409 152.126 17.0649 151.916 16.2969 151.496C15.5289 151.064 14.9229 150.476 14.4789 149.732C14.0349 148.988 13.8129 148.142 13.8129 147.194C13.8129 146.234 14.0349 145.388 14.4789 144.656C14.9229 143.912 15.5289 143.33 16.2969 142.91C17.0649 142.49 17.9409 142.28 18.9249 142.28C19.9209 142.28 20.8029 142.49 21.5709 142.91C22.3509 143.33 22.9569 143.906 23.3889 144.638C23.8329 145.37 24.0549 146.222 24.0549 147.194C24.0549 148.142 23.8329 148.988 23.3889 149.732C22.9569 150.476 22.3509 151.064 21.5709 151.496C20.8029 151.916 19.9209 152.126 18.9249 152.126ZM18.9249 150.2C19.4769 150.2 19.9689 150.08 20.4009 149.84C20.8329 149.6 21.1689 149.252 21.4089 148.796C21.6609 148.34 21.7869 147.806 21.7869 147.194C21.7869 146.57 21.6609 146.036 21.4089 145.592C21.1689 145.136 20.8329 144.788 20.4009 144.548C19.9689 144.308 19.4829 144.188 18.9429 144.188C18.3909 144.188 17.8989 144.308 17.4669 144.548C17.0469 144.788 16.7109 145.136 16.4589 145.592C16.2069 146.036 16.0809 146.57 16.0809 147.194C16.0809 147.806 16.2069 148.34 16.4589 148.796C16.7109 149.252 17.0469 149.6 17.4669 149.84C17.8989 150.08 18.3849 150.2 18.9249 150.2ZM29.8245 152.126C28.7685 152.126 27.9525 151.856 27.3765 151.316C26.8005 150.764 26.5125 149.954 26.5125 148.886V140.264H28.7625V148.832C28.7625 149.288 28.8765 149.642 29.1045 149.894C29.3445 150.146 29.6745 150.272 30.0945 150.272C30.5985 150.272 31.0185 150.14 31.3545 149.876L31.9845 151.478C31.7205 151.694 31.3965 151.856 31.0125 151.964C30.6285 152.072 30.2325 152.126 29.8245 152.126ZM24.9285 144.26V142.46H31.3365V144.26H24.9285ZM33.8354 152V142.388H35.9774V145.034L35.7254 144.26C36.0134 143.612 36.4634 143.12 37.0754 142.784C37.6994 142.448 38.4734 142.28 39.3974 142.28V144.422C39.3014 144.398 39.2114 144.386 39.1274 144.386C39.0434 144.374 38.9594 144.368 38.8754 144.368C38.0234 144.368 37.3454 144.62 36.8414 145.124C36.3374 145.616 36.0854 146.354 36.0854 147.338V152H33.8354ZM45.7362 152.126C44.6682 152.126 43.7322 151.916 42.9282 151.496C42.1362 151.064 41.5182 150.476 41.0742 149.732C40.6422 148.988 40.4262 148.142 40.4262 147.194C40.4262 146.234 40.6362 145.388 41.0562 144.656C41.4882 143.912 42.0762 143.33 42.8202 142.91C43.5762 142.49 44.4342 142.28 45.3942 142.28C46.3302 142.28 47.1642 142.484 47.8962 142.892C48.6282 143.3 49.2042 143.876 49.6242 144.62C50.0442 145.364 50.2542 146.24 50.2542 147.248C50.2542 147.344 50.2482 147.452 50.2362 147.572C50.2362 147.692 50.2302 147.806 50.2182 147.914H42.2082V146.42H49.0302L48.1482 146.888C48.1602 146.336 48.0462 145.85 47.8062 145.43C47.5662 145.01 47.2362 144.68 46.8162 144.44C46.4082 144.2 45.9342 144.08 45.3942 144.08C44.8422 144.08 44.3562 144.2 43.9362 144.44C43.5282 144.68 43.2042 145.016 42.9642 145.448C42.7362 145.868 42.6222 146.366 42.6222 146.942V147.302C42.6222 147.878 42.7542 148.388 43.0182 148.832C43.2822 149.276 43.6542 149.618 44.1342 149.858C44.6142 150.098 45.1662 150.218 45.7902 150.218C46.3302 150.218 46.8162 150.134 47.2482 149.966C47.6802 149.798 48.0642 149.534 48.4002 149.174L49.6062 150.56C49.1742 151.064 48.6282 151.454 47.9682 151.73C47.3202 151.994 46.5762 152.126 45.7362 152.126ZM63.3121 152V150.056L63.1861 149.642V146.24C63.1861 145.58 62.9881 145.07 62.5921 144.71C62.1961 144.338 61.5961 144.152 60.7921 144.152C60.2521 144.152 59.7181 144.236 59.1901 144.404C58.6741 144.572 58.2361 144.806 57.8761 145.106L56.9941 143.468C57.5101 143.072 58.1221 142.778 58.8301 142.586C59.5501 142.382 60.2941 142.28 61.0621 142.28C62.4541 142.28 63.5281 142.616 64.2841 143.288C65.0521 143.948 65.4361 144.974 65.4361 146.366V152H63.3121ZM60.2881 152.126C59.5681 152.126 58.9381 152.006 58.3981 151.766C57.8581 151.514 57.4381 151.172 57.1381 150.74C56.8501 150.296 56.7061 149.798 56.7061 149.246C56.7061 148.706 56.8321 148.22 57.0841 147.788C57.3481 147.356 57.7741 147.014 58.3621 146.762C58.9501 146.51 59.7301 146.384 60.7021 146.384H63.4921V147.878H60.8641C60.0961 147.878 59.5801 148.004 59.3161 148.256C59.0521 148.496 58.9201 148.796 58.9201 149.156C58.9201 149.564 59.0821 149.888 59.4061 150.128C59.7301 150.368 60.1801 150.488 60.7561 150.488C61.3081 150.488 61.8001 150.362 62.2321 150.11C62.6761 149.858 62.9941 149.486 63.1861 148.994L63.5641 150.344C63.3481 150.908 62.9581 151.346 62.3941 151.658C61.8421 151.97 61.1401 152.126 60.2881 152.126ZM70.7039 152L66.5819 142.388H68.9219L72.4679 150.866H71.3159L74.9879 142.388H77.1479L73.0259 152H70.7039ZM84.1773 152V150.056L84.0513 149.642V146.24C84.0513 145.58 83.8533 145.07 83.4573 144.71C83.0613 144.338 82.4613 144.152 81.6573 144.152C81.1173 144.152 80.5833 144.236 80.0553 144.404C79.5393 144.572 79.1013 144.806 78.7413 145.106L77.8593 143.468C78.3753 143.072 78.9873 142.778 79.6953 142.586C80.4153 142.382 81.1593 142.28 81.9273 142.28C83.3193 142.28 84.3933 142.616 85.1493 143.288C85.9173 143.948 86.3013 144.974 86.3013 146.366V152H84.1773ZM81.1533 152.126C80.4333 152.126 79.8033 152.006 79.2633 151.766C78.7233 151.514 78.3033 151.172 78.0033 150.74C77.7153 150.296 77.5713 149.798 77.5713 149.246C77.5713 148.706 77.6973 148.22 77.9493 147.788C78.2133 147.356 78.6393 147.014 79.2273 146.762C79.8153 146.51 80.5953 146.384 81.5673 146.384H84.3573V147.878H81.7293C80.9613 147.878 80.4453 148.004 80.1813 148.256C79.9173 148.496 79.7853 148.796 79.7853 149.156C79.7853 149.564 79.9473 149.888 80.2713 150.128C80.5953 150.368 81.0453 150.488 81.6213 150.488C82.1733 150.488 82.6653 150.362 83.0973 150.11C83.5413 149.858 83.8593 149.486 84.0513 148.994L84.4293 150.344C84.2133 150.908 83.8233 151.346 83.2593 151.658C82.7073 151.97 82.0053 152.126 81.1533 152.126ZM94.6429 142.28C95.4109 142.28 96.0949 142.43 96.6949 142.73C97.3069 143.03 97.7869 143.492 98.1349 144.116C98.4829 144.728 98.6569 145.52 98.6569 146.492V152H96.4069V146.78C96.4069 145.928 96.2029 145.292 95.7949 144.872C95.3989 144.452 94.8409 144.242 94.1209 144.242C93.5929 144.242 93.1249 144.35 92.7169 144.566C92.3089 144.782 91.9909 145.106 91.7629 145.538C91.5469 145.958 91.4389 146.492 91.4389 147.14V152H89.1889V142.388H91.3309V144.98L90.9529 144.188C91.2889 143.576 91.7749 143.108 92.4109 142.784C93.0589 142.448 93.8029 142.28 94.6429 142.28ZM105.129 152.126C104.073 152.126 103.257 151.856 102.681 151.316C102.105 150.764 101.817 149.954 101.817 148.886V140.264H104.067V148.832C104.067 149.288 104.181 149.642 104.409 149.894C104.649 150.146 104.979 150.272 105.399 150.272C105.903 150.272 106.323 150.14 106.659 149.876L107.289 151.478C107.025 151.694 106.701 151.856 106.317 151.964C105.933 152.072 105.537 152.126 105.129 152.126ZM100.233 144.26V142.46H106.641V144.26H100.233ZM115.062 152V150.056L114.936 149.642V146.24C114.936 145.58 114.738 145.07 114.342 144.71C113.946 144.338 113.346 144.152 112.542 144.152C112.002 144.152 111.468 144.236 110.94 144.404C110.424 144.572 109.986 144.806 109.626 145.106L108.744 143.468C109.26 143.072 109.872 142.778 110.58 142.586C111.3 142.382 112.044 142.28 112.812 142.28C114.204 142.28 115.278 142.616 116.034 143.288C116.802 143.948 117.186 144.974 117.186 146.366V152H115.062ZM112.038 152.126C111.318 152.126 110.688 152.006 110.148 151.766C109.608 151.514 109.188 151.172 108.888 150.74C108.6 150.296 108.456 149.798 108.456 149.246C108.456 148.706 108.582 148.22 108.834 147.788C109.098 147.356 109.524 147.014 110.112 146.762C110.7 146.51 111.48 146.384 112.452 146.384H115.242V147.878H112.614C111.846 147.878 111.33 148.004 111.066 148.256C110.802 148.496 110.67 148.796 110.67 149.156C110.67 149.564 110.832 149.888 111.156 150.128C111.48 150.368 111.93 150.488 112.506 150.488C113.058 150.488 113.55 150.362 113.982 150.11C114.426 149.858 114.744 149.486 114.936 148.994L115.314 150.344C115.098 150.908 114.708 151.346 114.144 151.658C113.592 151.97 112.89 152.126 112.038 152.126ZM124.447 155.618C123.559 155.618 122.689 155.498 121.837 155.258C120.997 155.03 120.307 154.694 119.767 154.25L120.775 152.558C121.195 152.906 121.723 153.182 122.359 153.386C123.007 153.602 123.661 153.71 124.321 153.71C125.377 153.71 126.151 153.464 126.643 152.972C127.135 152.492 127.381 151.766 127.381 150.794V149.084L127.561 146.906L127.489 144.728V142.388H129.631V150.542C129.631 152.282 129.187 153.56 128.299 154.376C127.411 155.204 126.127 155.618 124.447 155.618ZM124.159 151.568C123.247 151.568 122.419 151.376 121.675 150.992C120.943 150.596 120.361 150.05 119.929 149.354C119.509 148.658 119.299 147.842 119.299 146.906C119.299 145.982 119.509 145.172 119.929 144.476C120.361 143.78 120.943 143.24 121.675 142.856C122.419 142.472 123.247 142.28 124.159 142.28C124.975 142.28 125.707 142.442 126.355 142.766C127.003 143.09 127.519 143.594 127.903 144.278C128.299 144.962 128.497 145.838 128.497 146.906C128.497 147.974 128.299 148.856 127.903 149.552C127.519 150.236 127.003 150.746 126.355 151.082C125.707 151.406 124.975 151.568 124.159 151.568ZM124.501 149.66C125.065 149.66 125.569 149.546 126.013 149.318C126.457 149.078 126.799 148.754 127.039 148.346C127.291 147.926 127.417 147.446 127.417 146.906C127.417 146.366 127.291 145.892 127.039 145.484C126.799 145.064 126.457 144.746 126.013 144.53C125.569 144.302 125.065 144.188 124.501 144.188C123.937 144.188 123.427 144.302 122.971 144.53C122.527 144.746 122.179 145.064 121.927 145.484C121.687 145.892 121.567 146.366 121.567 146.906C121.567 147.446 121.687 147.926 121.927 148.346C122.179 148.754 122.527 149.078 122.971 149.318C123.427 149.546 123.937 149.66 124.501 149.66ZM137.107 152.126C136.039 152.126 135.103 151.916 134.299 151.496C133.507 151.064 132.889 150.476 132.445 149.732C132.013 148.988 131.797 148.142 131.797 147.194C131.797 146.234 132.007 145.388 132.427 144.656C132.859 143.912 133.447 143.33 134.191 142.91C134.947 142.49 135.805 142.28 136.765 142.28C137.701 142.28 138.535 142.484 139.267 142.892C139.999 143.3 140.575 143.876 140.995 144.62C141.415 145.364 141.625 146.24 141.625 147.248C141.625 147.344 141.619 147.452 141.607 147.572C141.607 147.692 141.601 147.806 141.589 147.914H133.579V146.42H140.401L139.519 146.888C139.531 146.336 139.417 145.85 139.177 145.43C138.937 145.01 138.607 144.68 138.187 144.44C137.779 144.2 137.305 144.08 136.765 144.08C136.213 144.08 135.727 144.2 135.307 144.44C134.899 144.68 134.575 145.016 134.335 145.448C134.107 145.868 133.993 146.366 133.993 146.942V147.302C133.993 147.878 134.125 148.388 134.389 148.832C134.653 149.276 135.025 149.618 135.505 149.858C135.985 150.098 136.537 150.218 137.161 150.218C137.701 150.218 138.187 150.134 138.619 149.966C139.051 149.798 139.435 149.534 139.771 149.174L140.977 150.56C140.545 151.064 139.999 151.454 139.339 151.73C138.691 151.994 137.947 152.126 137.107 152.126Z" fill="#A2C33D"/>
<path d="M139.436 369V359.62L139.884 360.096H137.126V359.2H140.444V369H139.436ZM146.567 369.07C145.801 369.07 145.129 368.911 144.551 368.594C143.972 368.267 143.519 367.824 143.193 367.264C142.866 366.695 142.703 366.046 142.703 365.318C142.703 364.59 142.857 363.946 143.165 363.386C143.482 362.826 143.911 362.387 144.453 362.07C145.003 361.743 145.619 361.58 146.301 361.58C146.991 361.58 147.603 361.739 148.135 362.056C148.676 362.364 149.101 362.803 149.409 363.372C149.717 363.932 149.871 364.581 149.871 365.318C149.871 365.365 149.866 365.416 149.857 365.472C149.857 365.519 149.857 365.57 149.857 365.626H143.459V364.884H149.325L148.933 365.178C148.933 364.646 148.816 364.175 148.583 363.764C148.359 363.344 148.051 363.017 147.659 362.784C147.267 362.551 146.814 362.434 146.301 362.434C145.797 362.434 145.344 362.551 144.943 362.784C144.541 363.017 144.229 363.344 144.005 363.764C143.781 364.184 143.669 364.665 143.669 365.206V365.36C143.669 365.92 143.79 366.415 144.033 366.844C144.285 367.264 144.63 367.595 145.069 367.838C145.517 368.071 146.025 368.188 146.595 368.188C147.043 368.188 147.458 368.109 147.841 367.95C148.233 367.791 148.569 367.549 148.849 367.222L149.409 367.866C149.082 368.258 148.671 368.557 148.177 368.762C147.691 368.967 147.155 369.07 146.567 369.07ZM151.894 369V361.65H152.846V363.652L152.748 363.302C152.953 362.742 153.298 362.317 153.784 362.028C154.269 361.729 154.871 361.58 155.59 361.58V362.546C155.552 362.546 155.515 362.546 155.478 362.546C155.44 362.537 155.403 362.532 155.366 362.532C154.591 362.532 153.984 362.77 153.546 363.246C153.107 363.713 152.888 364.38 152.888 365.248V369H151.894ZM165.783 369V367.376L165.741 367.11V364.394C165.741 363.769 165.564 363.288 165.209 362.952C164.864 362.616 164.346 362.448 163.655 362.448C163.179 362.448 162.726 362.527 162.297 362.686C161.868 362.845 161.504 363.055 161.205 363.316L160.757 362.574C161.13 362.257 161.578 362.014 162.101 361.846C162.624 361.669 163.174 361.58 163.753 361.58C164.705 361.58 165.438 361.818 165.951 362.294C166.474 362.761 166.735 363.475 166.735 364.436V369H165.783ZM163.249 369.07C162.698 369.07 162.218 368.981 161.807 368.804C161.406 368.617 161.098 368.365 160.883 368.048C160.668 367.721 160.561 367.348 160.561 366.928C160.561 366.545 160.65 366.2 160.827 365.892C161.014 365.575 161.312 365.323 161.723 365.136C162.143 364.94 162.703 364.842 163.403 364.842H165.937V365.584H163.431C162.722 365.584 162.227 365.71 161.947 365.962C161.676 366.214 161.541 366.527 161.541 366.9C161.541 367.32 161.704 367.656 162.031 367.908C162.358 368.16 162.815 368.286 163.403 368.286C163.963 368.286 164.444 368.16 164.845 367.908C165.256 367.647 165.554 367.273 165.741 366.788L165.965 367.474C165.778 367.959 165.452 368.347 164.985 368.636C164.528 368.925 163.949 369.07 163.249 369.07ZM171.188 369L167.926 361.65H168.962L171.958 368.468H171.468L174.506 361.65H175.486L172.21 369H171.188ZM176.886 369V361.65H177.838V363.652L177.74 363.302C177.945 362.742 178.291 362.317 178.776 362.028C179.261 361.729 179.863 361.58 180.582 361.58V362.546C180.545 362.546 180.507 362.546 180.47 362.546C180.433 362.537 180.395 362.532 180.358 362.532C179.583 362.532 178.977 362.77 178.538 363.246C178.099 363.713 177.88 364.38 177.88 365.248V369H176.886ZM182.396 369V361.65H183.39V369H182.396ZM182.9 360.026C182.694 360.026 182.522 359.956 182.382 359.816C182.242 359.676 182.172 359.508 182.172 359.312C182.172 359.116 182.242 358.953 182.382 358.822C182.522 358.682 182.694 358.612 182.9 358.612C183.105 358.612 183.278 358.677 183.418 358.808C183.558 358.939 183.628 359.102 183.628 359.298C183.628 359.503 183.558 359.676 183.418 359.816C183.287 359.956 183.114 360.026 182.9 360.026ZM186.156 369V358.612H187.15V369H186.156Z" fill="#313131"/>
<path d="M640.654 369.084C639.945 369.084 639.273 368.972 638.638 368.748C638.013 368.515 637.509 368.207 637.126 367.824L637.616 367.026C637.933 367.353 638.358 367.623 638.89 367.838C639.431 368.053 640.019 368.16 640.654 368.16C641.466 368.16 642.087 367.983 642.516 367.628C642.955 367.273 643.174 366.797 643.174 366.2C643.174 365.603 642.959 365.127 642.53 364.772C642.11 364.417 641.443 364.24 640.528 364.24H639.828V363.498L642.852 359.704L642.992 360.096H637.532V359.2H643.832V359.914L640.808 363.708L640.318 363.386H640.696C641.872 363.386 642.749 363.647 643.328 364.17C643.916 364.693 644.21 365.365 644.21 366.186C644.21 366.737 644.079 367.231 643.818 367.67C643.557 368.109 643.16 368.454 642.628 368.706C642.105 368.958 641.447 369.084 640.654 369.084ZM649.536 369.084C648.78 369.084 648.108 368.888 647.52 368.496C646.932 368.095 646.47 367.525 646.134 366.788C645.798 366.041 645.63 365.145 645.63 364.1C645.63 363.055 645.798 362.163 646.134 361.426C646.47 360.679 646.932 360.11 647.52 359.718C648.108 359.317 648.78 359.116 649.536 359.116C650.292 359.116 650.964 359.317 651.552 359.718C652.14 360.11 652.602 360.679 652.938 361.426C653.284 362.163 653.456 363.055 653.456 364.1C653.456 365.145 653.284 366.041 652.938 366.788C652.602 367.525 652.14 368.095 651.552 368.496C650.964 368.888 650.292 369.084 649.536 369.084ZM649.536 368.16C650.115 368.16 650.619 368.006 651.048 367.698C651.478 367.381 651.814 366.923 652.056 366.326C652.299 365.719 652.42 364.977 652.42 364.1C652.42 363.223 652.299 362.485 652.056 361.888C651.814 361.281 651.478 360.824 651.048 360.516C650.619 360.199 650.115 360.04 649.536 360.04C648.976 360.04 648.477 360.199 648.038 360.516C647.6 360.824 647.259 361.281 647.016 361.888C646.774 362.485 646.652 363.223 646.652 364.1C646.652 364.977 646.774 365.719 647.016 366.326C647.259 366.923 647.6 367.381 648.038 367.698C648.477 368.006 648.976 368.16 649.536 368.16ZM663.828 369V367.376L663.786 367.11V364.394C663.786 363.769 663.609 363.288 663.254 362.952C662.909 362.616 662.391 362.448 661.7 362.448C661.224 362.448 660.771 362.527 660.342 362.686C659.913 362.845 659.549 363.055 659.25 363.316L658.802 362.574C659.175 362.257 659.623 362.014 660.146 361.846C660.669 361.669 661.219 361.58 661.798 361.58C662.75 361.58 663.483 361.818 663.996 362.294C664.519 362.761 664.78 363.475 664.78 364.436V369H663.828ZM661.294 369.07C660.743 369.07 660.263 368.981 659.852 368.804C659.451 368.617 659.143 368.365 658.928 368.048C658.713 367.721 658.606 367.348 658.606 366.928C658.606 366.545 658.695 366.2 658.872 365.892C659.059 365.575 659.357 365.323 659.768 365.136C660.188 364.94 660.748 364.842 661.448 364.842H663.982V365.584H661.476C660.767 365.584 660.272 365.71 659.992 365.962C659.721 366.214 659.586 366.527 659.586 366.9C659.586 367.32 659.749 367.656 660.076 367.908C660.403 368.16 660.86 368.286 661.448 368.286C662.008 368.286 662.489 368.16 662.89 367.908C663.301 367.647 663.599 367.273 663.786 366.788L664.01 367.474C663.823 367.959 663.497 368.347 663.03 368.636C662.573 368.925 661.994 369.07 661.294 369.07ZM669.233 369L665.971 361.65H667.007L670.003 368.468H669.513L672.551 361.65H673.531L670.255 369H669.233ZM674.931 369V361.65H675.883V363.652L675.785 363.302C675.99 362.742 676.336 362.317 676.821 362.028C677.306 361.729 677.908 361.58 678.627 361.58V362.546C678.59 362.546 678.552 362.546 678.515 362.546C678.478 362.537 678.44 362.532 678.403 362.532C677.628 362.532 677.022 362.77 676.583 363.246C676.144 363.713 675.925 364.38 675.925 365.248V369H674.931ZM680.441 369V361.65H681.435V369H680.441ZM680.945 360.026C680.739 360.026 680.567 359.956 680.427 359.816C680.287 359.676 680.217 359.508 680.217 359.312C680.217 359.116 680.287 358.953 680.427 358.822C680.567 358.682 680.739 358.612 680.945 358.612C681.15 358.612 681.323 358.677 681.463 358.808C681.603 358.939 681.673 359.102 681.673 359.298C681.673 359.503 681.603 359.676 681.463 359.816C681.332 359.956 681.159 360.026 680.945 360.026ZM684.2 369V358.612H685.194V369H684.2Z" fill="#313131"/>
<path d="M379.436 369V359.62L379.884 360.096H377.126V359.2H380.444V369H379.436ZM385.881 369.084C385.181 369.084 384.513 368.972 383.879 368.748C383.244 368.515 382.74 368.207 382.367 367.824L382.857 367.026C383.165 367.353 383.585 367.623 384.117 367.838C384.658 368.053 385.241 368.16 385.867 368.16C386.697 368.16 387.327 367.978 387.757 367.614C388.195 367.241 388.415 366.755 388.415 366.158C388.415 365.738 388.312 365.379 388.107 365.08C387.911 364.772 387.575 364.534 387.099 364.366C386.623 364.198 385.969 364.114 385.139 364.114H383.053L383.557 359.2H388.919V360.096H383.963L384.481 359.606L384.047 363.722L383.529 363.218H385.363C386.352 363.218 387.145 363.339 387.743 363.582C388.34 363.825 388.769 364.165 389.031 364.604C389.301 365.033 389.437 365.537 389.437 366.116C389.437 366.667 389.306 367.171 389.045 367.628C388.783 368.076 388.391 368.431 387.869 368.692C387.346 368.953 386.683 369.084 385.881 369.084ZM399.644 369V367.376L399.602 367.11V364.394C399.602 363.769 399.425 363.288 399.07 362.952C398.725 362.616 398.207 362.448 397.516 362.448C397.04 362.448 396.588 362.527 396.158 362.686C395.729 362.845 395.365 363.055 395.066 363.316L394.618 362.574C394.992 362.257 395.44 362.014 395.962 361.846C396.485 361.669 397.036 361.58 397.614 361.58C398.566 361.58 399.299 361.818 399.812 362.294C400.335 362.761 400.596 363.475 400.596 364.436V369H399.644ZM397.11 369.07C396.56 369.07 396.079 368.981 395.668 368.804C395.267 368.617 394.959 368.365 394.744 368.048C394.53 367.721 394.422 367.348 394.422 366.928C394.422 366.545 394.511 366.2 394.688 365.892C394.875 365.575 395.174 365.323 395.584 365.136C396.004 364.94 396.564 364.842 397.264 364.842H399.798V365.584H397.292C396.583 365.584 396.088 365.71 395.808 365.962C395.538 366.214 395.402 366.527 395.402 366.9C395.402 367.32 395.566 367.656 395.892 367.908C396.219 368.16 396.676 368.286 397.264 368.286C397.824 368.286 398.305 368.16 398.706 367.908C399.117 367.647 399.416 367.273 399.602 366.788L399.826 367.474C399.64 367.959 399.313 368.347 398.846 368.636C398.389 368.925 397.81 369.07 397.11 369.07ZM405.049 369L401.787 361.65H402.823L405.819 368.468H405.329L408.367 361.65H409.347L406.071 369H405.049ZM410.747 369V361.65H411.699V363.652L411.601 363.302C411.807 362.742 412.152 362.317 412.637 362.028C413.123 361.729 413.725 361.58 414.443 361.58V362.546C414.406 362.546 414.369 362.546 414.331 362.546C414.294 362.537 414.257 362.532 414.219 362.532C413.445 362.532 412.838 362.77 412.399 363.246C411.961 363.713 411.741 364.38 411.741 365.248V369H410.747ZM416.257 369V361.65H417.251V369H416.257ZM416.761 360.026C416.556 360.026 416.383 359.956 416.243 359.816C416.103 359.676 416.033 359.508 416.033 359.312C416.033 359.116 416.103 358.953 416.243 358.822C416.383 358.682 416.556 358.612 416.761 358.612C416.966 358.612 417.139 358.677 417.279 358.808C417.419 358.939 417.489 359.102 417.489 359.298C417.489 359.503 417.419 359.676 417.279 359.816C417.148 359.956 416.976 360.026 416.761 360.026ZM420.017 369V358.612H421.011V369H420.017Z" fill="#313131"/>
</svg>
