<svg width="918" height="367" viewBox="0 0 918 367" fill="none" xmlns="http://www.w3.org/2000/svg">
<rect x="902" y="341" width="20" height="320" transform="rotate(180 902 341)" fill="#BC0051"/>
<rect x="874" y="341" width="20" height="266" transform="rotate(180 874 341)" fill="#214B33"/>
<rect x="846" y="341" width="20" height="254" transform="rotate(180 846 341)" fill="#A2C33D" fill-opacity="0.4"/>
<rect x="818" y="341" width="20" height="248" transform="rotate(180 818 341)" fill="#A2C33D" fill-opacity="0.4"/>
<rect x="790" y="341" width="20" height="240" transform="rotate(180 790 341)" fill="#A2C33D" fill-opacity="0.4"/>
<rect x="762" y="341" width="20" height="226" transform="rotate(180 762 341)" fill="#A2C33D" fill-opacity="0.4"/>
<rect x="734" y="341" width="20" height="220" transform="rotate(180 734 341)" fill="#A2C33D" fill-opacity="0.4"/>
<rect x="706" y="341" width="20" height="200" transform="rotate(180 706 341)" fill="#A2C33D" fill-opacity="0.4"/>
<rect x="678" y="341" width="20" height="196" transform="rotate(180 678 341)" fill="#A2C33D" fill-opacity="0.4"/>
<rect x="650" y="341" width="20" height="184" transform="rotate(180 650 341)" fill="#A2C33D" fill-opacity="0.4"/>
<rect x="622" y="341" width="20" height="184" transform="rotate(180 622 341)" fill="#A2C33D" fill-opacity="0.4"/>
<rect x="594" y="341" width="20" height="176" transform="rotate(180 594 341)" fill="#A2C33D" fill-opacity="0.4"/>
<rect x="566" y="341" width="20" height="172" transform="rotate(180 566 341)" fill="#A2C33D" fill-opacity="0.4"/>
<rect x="538" y="341" width="20" height="172" transform="rotate(180 538 341)" fill="#A2C33D" fill-opacity="0.4"/>
<rect x="510" y="341" width="20" height="152" transform="rotate(180 510 341)" fill="#A2C33D" fill-opacity="0.4"/>
<rect x="482" y="341" width="20" height="144" transform="rotate(180 482 341)" fill="#A2C33D" fill-opacity="0.4"/>
<rect x="454" y="341" width="20" height="140" transform="rotate(180 454 341)" fill="#A2C33D" fill-opacity="0.4"/>
<rect x="426" y="341" width="20" height="126" transform="rotate(180 426 341)" fill="#A2C33D" fill-opacity="0.4"/>
<rect x="398" y="341" width="20" height="120" transform="rotate(180 398 341)" fill="#A2C33D" fill-opacity="0.4"/>
<rect x="370" y="341" width="20" height="100" transform="rotate(180 370 341)" fill="#A2C33D"/>
<path d="M360 76V240.5" stroke="#A2C33D" stroke-width="20" stroke-dasharray="10 10"/>
<path d="M6.382 242L2.042 232.2H3.162L7.222 241.426H6.606L10.694 232.2H11.744L7.404 242H6.382ZM15.3918 242.07C14.6824 242.07 14.0431 241.911 13.4738 241.594C12.9138 241.267 12.4704 240.824 12.1438 240.264C11.8171 239.695 11.6538 239.046 11.6538 238.318C11.6538 237.581 11.8171 236.932 12.1438 236.372C12.4704 235.812 12.9138 235.373 13.4738 235.056C14.0338 234.739 14.6731 234.58 15.3918 234.58C16.1198 234.58 16.7638 234.739 17.3238 235.056C17.8931 235.373 18.3364 235.812 18.6538 236.372C18.9804 236.932 19.1438 237.581 19.1438 238.318C19.1438 239.046 18.9804 239.695 18.6538 240.264C18.3364 240.824 17.8931 241.267 17.3238 241.594C16.7544 241.911 16.1104 242.07 15.3918 242.07ZM15.3918 241.188C15.9238 241.188 16.3951 241.071 16.8058 240.838C17.2164 240.595 17.5384 240.259 17.7718 239.83C18.0144 239.391 18.1358 238.887 18.1358 238.318C18.1358 237.739 18.0144 237.235 17.7718 236.806C17.5384 236.377 17.2164 236.045 16.8058 235.812C16.3951 235.569 15.9284 235.448 15.4058 235.448C14.8831 235.448 14.4164 235.569 14.0058 235.812C13.5951 236.045 13.2684 236.377 13.0258 236.806C12.7831 237.235 12.6618 237.739 12.6618 238.318C12.6618 238.887 12.7831 239.391 13.0258 239.83C13.2684 240.259 13.5951 240.595 14.0058 240.838C14.4164 241.071 14.8784 241.188 15.3918 241.188ZM24.2111 242.07C23.5858 242.07 23.0398 241.953 22.5731 241.72C22.1064 241.487 21.7424 241.137 21.4811 240.67C21.2291 240.203 21.1031 239.62 21.1031 238.92V234.65H22.0971V238.808C22.0971 239.592 22.2884 240.185 22.6711 240.586C23.0631 240.978 23.6091 241.174 24.3091 241.174C24.8224 241.174 25.2658 241.071 25.6391 240.866C26.0218 240.651 26.3111 240.343 26.5071 239.942C26.7124 239.541 26.8151 239.06 26.8151 238.5V234.65H27.8091V242H26.8571V239.984L27.0111 240.348C26.7778 240.889 26.4138 241.314 25.9191 241.622C25.4338 241.921 24.8644 242.07 24.2111 242.07ZM32.5534 242.07C31.9467 242.07 31.3727 241.986 30.8314 241.818C30.29 241.641 29.8654 241.421 29.5574 241.16L30.0054 240.376C30.304 240.6 30.6867 240.796 31.1534 240.964C31.62 241.123 32.11 241.202 32.6234 241.202C33.3234 241.202 33.8274 241.095 34.1354 240.88C34.4434 240.656 34.5974 240.362 34.5974 239.998C34.5974 239.727 34.5087 239.517 34.3314 239.368C34.1634 239.209 33.9394 239.093 33.6594 239.018C33.3794 238.934 33.0667 238.864 32.7214 238.808C32.376 238.752 32.0307 238.687 31.6854 238.612C31.3494 238.537 31.0414 238.43 30.7614 238.29C30.4814 238.141 30.2527 237.94 30.0754 237.688C29.9074 237.436 29.8234 237.1 29.8234 236.68C29.8234 236.279 29.9354 235.919 30.1594 235.602C30.3834 235.285 30.71 235.037 31.1394 234.86C31.578 234.673 32.11 234.58 32.7354 234.58C33.2114 234.58 33.6874 234.645 34.1634 234.776C34.6394 234.897 35.0314 235.061 35.3394 235.266L34.9054 236.064C34.5787 235.84 34.2287 235.681 33.8554 235.588C33.482 235.485 33.1087 235.434 32.7354 235.434C32.0727 235.434 31.5827 235.551 31.2654 235.784C30.9574 236.008 30.8034 236.297 30.8034 236.652C30.8034 236.932 30.8874 237.151 31.0554 237.31C31.2327 237.469 31.4614 237.595 31.7414 237.688C32.0307 237.772 32.3434 237.842 32.6794 237.898C33.0247 237.954 33.3654 238.024 33.7014 238.108C34.0467 238.183 34.3594 238.29 34.6394 238.43C34.9287 238.561 35.1574 238.752 35.3254 239.004C35.5027 239.247 35.5914 239.569 35.5914 239.97C35.5914 240.399 35.47 240.773 35.2274 241.09C34.994 241.398 34.6487 241.641 34.1914 241.818C33.7434 241.986 33.1974 242.07 32.5534 242.07ZM45.6854 242V240.376L45.6434 240.11V237.394C45.6434 236.769 45.466 236.288 45.1114 235.952C44.766 235.616 44.248 235.448 43.5574 235.448C43.0814 235.448 42.6287 235.527 42.1994 235.686C41.77 235.845 41.406 236.055 41.1074 236.316L40.6594 235.574C41.0327 235.257 41.4807 235.014 42.0034 234.846C42.526 234.669 43.0767 234.58 43.6554 234.58C44.6074 234.58 45.34 234.818 45.8534 235.294C46.376 235.761 46.6374 236.475 46.6374 237.436V242H45.6854ZM43.1514 242.07C42.6007 242.07 42.12 241.981 41.7094 241.804C41.308 241.617 41 241.365 40.7854 241.048C40.5707 240.721 40.4634 240.348 40.4634 239.928C40.4634 239.545 40.552 239.2 40.7294 238.892C40.916 238.575 41.2147 238.323 41.6254 238.136C42.0454 237.94 42.6054 237.842 43.3054 237.842H45.8394V238.584H43.3334C42.624 238.584 42.1294 238.71 41.8494 238.962C41.5787 239.214 41.4434 239.527 41.4434 239.9C41.4434 240.32 41.6067 240.656 41.9334 240.908C42.26 241.16 42.7174 241.286 43.3054 241.286C43.8654 241.286 44.346 241.16 44.7474 240.908C45.158 240.647 45.4567 240.273 45.6434 239.788L45.8674 240.474C45.6807 240.959 45.354 241.347 44.8874 241.636C44.43 241.925 43.8514 242.07 43.1514 242.07ZM52.3892 242.07C51.6612 242.07 51.0078 241.911 50.4292 241.594C49.8598 241.267 49.4118 240.824 49.0852 240.264C48.7585 239.695 48.5952 239.046 48.5952 238.318C48.5952 237.581 48.7585 236.932 49.0852 236.372C49.4118 235.812 49.8598 235.373 50.4292 235.056C51.0078 234.739 51.6612 234.58 52.3892 234.58C53.0145 234.58 53.5792 234.701 54.0832 234.944C54.5872 235.187 54.9838 235.551 55.2732 236.036L54.5312 236.54C54.2792 236.167 53.9665 235.891 53.5932 235.714C53.2198 235.537 52.8138 235.448 52.3752 235.448C51.8525 235.448 51.3812 235.569 50.9612 235.812C50.5412 236.045 50.2098 236.377 49.9672 236.806C49.7245 237.235 49.6032 237.739 49.6032 238.318C49.6032 238.897 49.7245 239.401 49.9672 239.83C50.2098 240.259 50.5412 240.595 50.9612 240.838C51.3812 241.071 51.8525 241.188 52.3752 241.188C52.8138 241.188 53.2198 241.099 53.5932 240.922C53.9665 240.745 54.2792 240.474 54.5312 240.11L55.2732 240.614C54.9838 241.09 54.5872 241.454 54.0832 241.706C53.5792 241.949 53.0145 242.07 52.3892 242.07ZM60.8685 234.58C61.4658 234.58 61.9885 234.697 62.4365 234.93C62.8938 235.154 63.2485 235.499 63.5005 235.966C63.7618 236.433 63.8925 237.021 63.8925 237.73V242H62.8985V237.828C62.8985 237.053 62.7025 236.47 62.3105 236.078C61.9278 235.677 61.3865 235.476 60.6865 235.476C60.1638 235.476 59.7065 235.583 59.3145 235.798C58.9318 236.003 58.6331 236.307 58.4185 236.708C58.2131 237.1 58.1105 237.576 58.1105 238.136V242H57.1165V231.612H58.1105V236.666L57.9145 236.288C58.1478 235.756 58.5211 235.341 59.0345 235.042C59.5478 234.734 60.1591 234.58 60.8685 234.58ZM69.6994 242.07C68.9341 242.07 68.2621 241.911 67.6834 241.594C67.1047 241.267 66.6521 240.824 66.3254 240.264C65.9987 239.695 65.8354 239.046 65.8354 238.318C65.8354 237.59 65.9894 236.946 66.2974 236.386C66.6147 235.826 67.0441 235.387 67.5854 235.07C68.1361 234.743 68.7521 234.58 69.4334 234.58C70.1241 234.58 70.7354 234.739 71.2674 235.056C71.8087 235.364 72.2334 235.803 72.5414 236.372C72.8494 236.932 73.0034 237.581 73.0034 238.318C73.0034 238.365 72.9987 238.416 72.9894 238.472C72.9894 238.519 72.9894 238.57 72.9894 238.626H66.5914V237.884H72.4574L72.0654 238.178C72.0654 237.646 71.9487 237.175 71.7154 236.764C71.4914 236.344 71.1834 236.017 70.7914 235.784C70.3994 235.551 69.9467 235.434 69.4334 235.434C68.9294 235.434 68.4767 235.551 68.0754 235.784C67.6741 236.017 67.3614 236.344 67.1374 236.764C66.9134 237.184 66.8014 237.665 66.8014 238.206V238.36C66.8014 238.92 66.9227 239.415 67.1654 239.844C67.4174 240.264 67.7627 240.595 68.2014 240.838C68.6494 241.071 69.1581 241.188 69.7274 241.188C70.1754 241.188 70.5907 241.109 70.9734 240.95C71.3654 240.791 71.7014 240.549 71.9814 240.222L72.5414 240.866C72.2147 241.258 71.8041 241.557 71.3094 241.762C70.8241 241.967 70.2874 242.07 69.6994 242.07ZM77.3506 242.07C76.66 242.07 76.128 241.883 75.7546 241.51C75.3813 241.137 75.1946 240.609 75.1946 239.928V233.026H76.1886V239.872C76.1886 240.301 76.296 240.633 76.5106 240.866C76.7346 241.099 77.052 241.216 77.4626 241.216C77.9013 241.216 78.2653 241.09 78.5546 240.838L78.9046 241.552C78.7086 241.729 78.4706 241.86 78.1906 241.944C77.92 242.028 77.64 242.07 77.3506 242.07ZM73.8786 235.476V234.65H78.4286V235.476H73.8786ZM83.5764 242.07C82.811 242.07 82.139 241.911 81.5604 241.594C80.9817 241.267 80.529 240.824 80.2024 240.264C79.8757 239.695 79.7124 239.046 79.7124 238.318C79.7124 237.59 79.8664 236.946 80.1744 236.386C80.4917 235.826 80.921 235.387 81.4624 235.07C82.013 234.743 82.629 234.58 83.3104 234.58C84.001 234.58 84.6124 234.739 85.1444 235.056C85.6857 235.364 86.1104 235.803 86.4184 236.372C86.7264 236.932 86.8804 237.581 86.8804 238.318C86.8804 238.365 86.8757 238.416 86.8664 238.472C86.8664 238.519 86.8664 238.57 86.8664 238.626H80.4684V237.884H86.3344L85.9424 238.178C85.9424 237.646 85.8257 237.175 85.5924 236.764C85.3684 236.344 85.0604 236.017 84.6684 235.784C84.2764 235.551 83.8237 235.434 83.3104 235.434C82.8064 235.434 82.3537 235.551 81.9524 235.784C81.551 236.017 81.2384 236.344 81.0144 236.764C80.7904 237.184 80.6784 237.665 80.6784 238.206V238.36C80.6784 238.92 80.7997 239.415 81.0424 239.844C81.2944 240.264 81.6397 240.595 82.0784 240.838C82.5264 241.071 83.035 241.188 83.6044 241.188C84.0524 241.188 84.4677 241.109 84.8504 240.95C85.2424 240.791 85.5784 240.549 85.8584 240.222L86.4184 240.866C86.0917 241.258 85.681 241.557 85.1864 241.762C84.701 241.967 84.1644 242.07 83.5764 242.07ZM88.0372 242V241.342L92.9372 235.14L93.1472 235.476H88.1212V234.65H93.9312V235.294L89.0452 241.51L88.7932 241.174H94.0292V242H88.0372ZM102.576 242.07C101.876 242.07 101.246 241.911 100.686 241.594C100.135 241.277 99.701 240.838 99.3837 240.278C99.0663 239.709 98.9077 239.055 98.9077 238.318C98.9077 237.571 99.0663 236.918 99.3837 236.358C99.701 235.798 100.135 235.364 100.686 235.056C101.246 234.739 101.876 234.58 102.576 234.58C103.22 234.58 103.794 234.725 104.298 235.014C104.811 235.303 105.217 235.728 105.516 236.288C105.824 236.839 105.978 237.515 105.978 238.318C105.978 239.111 105.828 239.788 105.53 240.348C105.231 240.908 104.825 241.337 104.312 241.636C103.808 241.925 103.229 242.07 102.576 242.07ZM102.646 241.188C103.168 241.188 103.635 241.071 104.046 240.838C104.466 240.595 104.792 240.259 105.026 239.83C105.268 239.391 105.39 238.887 105.39 238.318C105.39 237.739 105.268 237.235 105.026 236.806C104.792 236.377 104.466 236.045 104.046 235.812C103.635 235.569 103.168 235.448 102.646 235.448C102.132 235.448 101.67 235.569 101.26 235.812C100.849 236.045 100.522 236.377 100.28 236.806C100.037 237.235 99.9157 237.739 99.9157 238.318C99.9157 238.887 100.037 239.391 100.28 239.83C100.522 240.259 100.849 240.595 101.26 240.838C101.67 241.071 102.132 241.188 102.646 241.188ZM105.418 242V239.788L105.516 238.304L105.376 236.82V231.612H106.37V242H105.418ZM112.26 242.07C111.495 242.07 110.823 241.911 110.244 241.594C109.665 241.267 109.213 240.824 108.886 240.264C108.559 239.695 108.396 239.046 108.396 238.318C108.396 237.59 108.55 236.946 108.858 236.386C109.175 235.826 109.605 235.387 110.146 235.07C110.697 234.743 111.313 234.58 111.994 234.58C112.685 234.58 113.296 234.739 113.828 235.056C114.369 235.364 114.794 235.803 115.102 236.372C115.41 236.932 115.564 237.581 115.564 238.318C115.564 238.365 115.559 238.416 115.55 238.472C115.55 238.519 115.55 238.57 115.55 238.626H109.152V237.884H115.018L114.626 238.178C114.626 237.646 114.509 237.175 114.276 236.764C114.052 236.344 113.744 236.017 113.352 235.784C112.96 235.551 112.507 235.434 111.994 235.434C111.49 235.434 111.037 235.551 110.636 235.784C110.235 236.017 109.922 236.344 109.698 236.764C109.474 237.184 109.362 237.665 109.362 238.206V238.36C109.362 238.92 109.483 239.415 109.726 239.844C109.978 240.264 110.323 240.595 110.762 240.838C111.21 241.071 111.719 241.188 112.288 241.188C112.736 241.188 113.151 241.109 113.534 240.95C113.926 240.791 114.262 240.549 114.542 240.222L115.102 240.866C114.775 241.258 114.365 241.557 113.87 241.762C113.385 241.967 112.848 242.07 112.26 242.07ZM119.561 242.07C118.955 242.07 118.381 241.986 117.839 241.818C117.298 241.641 116.873 241.421 116.565 241.16L117.013 240.376C117.312 240.6 117.695 240.796 118.161 240.964C118.628 241.123 119.118 241.202 119.631 241.202C120.331 241.202 120.835 241.095 121.143 240.88C121.451 240.656 121.605 240.362 121.605 239.998C121.605 239.727 121.517 239.517 121.339 239.368C121.171 239.209 120.947 239.093 120.667 239.018C120.387 238.934 120.075 238.864 119.729 238.808C119.384 238.752 119.039 238.687 118.693 238.612C118.357 238.537 118.049 238.43 117.769 238.29C117.489 238.141 117.261 237.94 117.083 237.688C116.915 237.436 116.831 237.1 116.831 236.68C116.831 236.279 116.943 235.919 117.167 235.602C117.391 235.285 117.718 235.037 118.147 234.86C118.586 234.673 119.118 234.58 119.743 234.58C120.219 234.58 120.695 234.645 121.171 234.776C121.647 234.897 122.039 235.061 122.347 235.266L121.913 236.064C121.587 235.84 121.237 235.681 120.863 235.588C120.49 235.485 120.117 235.434 119.743 235.434C119.081 235.434 118.591 235.551 118.273 235.784C117.965 236.008 117.811 236.297 117.811 236.652C117.811 236.932 117.895 237.151 118.063 237.31C118.241 237.469 118.469 237.595 118.749 237.688C119.039 237.772 119.351 237.842 119.687 237.898C120.033 237.954 120.373 238.024 120.709 238.108C121.055 238.183 121.367 238.29 121.647 238.43C121.937 238.561 122.165 238.752 122.333 239.004C122.511 239.247 122.599 239.569 122.599 239.97C122.599 240.399 122.478 240.773 122.235 241.09C122.002 241.398 121.657 241.641 121.199 241.818C120.751 241.986 120.205 242.07 119.561 242.07ZM131.139 242.07C130.411 242.07 129.758 241.911 129.179 241.594C128.61 241.267 128.162 240.824 127.835 240.264C127.509 239.695 127.345 239.046 127.345 238.318C127.345 237.581 127.509 236.932 127.835 236.372C128.162 235.812 128.61 235.373 129.179 235.056C129.758 234.739 130.411 234.58 131.139 234.58C131.765 234.58 132.329 234.701 132.833 234.944C133.337 235.187 133.734 235.551 134.023 236.036L133.281 236.54C133.029 236.167 132.717 235.891 132.343 235.714C131.97 235.537 131.564 235.448 131.125 235.448C130.603 235.448 130.131 235.569 129.711 235.812C129.291 236.045 128.96 236.377 128.717 236.806C128.475 237.235 128.353 237.739 128.353 238.318C128.353 238.897 128.475 239.401 128.717 239.83C128.96 240.259 129.291 240.595 129.711 240.838C130.131 241.071 130.603 241.188 131.125 241.188C131.564 241.188 131.97 241.099 132.343 240.922C132.717 240.745 133.029 240.474 133.281 240.11L134.023 240.614C133.734 241.09 133.337 241.454 132.833 241.706C132.329 241.949 131.765 242.07 131.139 242.07ZM138.849 242.07C138.139 242.07 137.5 241.911 136.931 241.594C136.371 241.267 135.927 240.824 135.601 240.264C135.274 239.695 135.111 239.046 135.111 238.318C135.111 237.581 135.274 236.932 135.601 236.372C135.927 235.812 136.371 235.373 136.931 235.056C137.491 234.739 138.13 234.58 138.849 234.58C139.577 234.58 140.221 234.739 140.781 235.056C141.35 235.373 141.793 235.812 142.111 236.372C142.437 236.932 142.601 237.581 142.601 238.318C142.601 239.046 142.437 239.695 142.111 240.264C141.793 240.824 141.35 241.267 140.781 241.594C140.211 241.911 139.567 242.07 138.849 242.07ZM138.849 241.188C139.381 241.188 139.852 241.071 140.263 240.838C140.673 240.595 140.995 240.259 141.229 239.83C141.471 239.391 141.593 238.887 141.593 238.318C141.593 237.739 141.471 237.235 141.229 236.806C140.995 236.377 140.673 236.045 140.263 235.812C139.852 235.569 139.385 235.448 138.863 235.448C138.34 235.448 137.873 235.569 137.463 235.812C137.052 236.045 136.725 236.377 136.483 236.806C136.24 237.235 136.119 237.739 136.119 238.318C136.119 238.887 136.24 239.391 136.483 239.83C136.725 240.259 137.052 240.595 137.463 240.838C137.873 241.071 138.335 241.188 138.849 241.188ZM148.382 234.58C148.979 234.58 149.502 234.697 149.95 234.93C150.407 235.154 150.762 235.499 151.014 235.966C151.275 236.433 151.406 237.021 151.406 237.73V242H150.412V237.828C150.412 237.053 150.216 236.47 149.824 236.078C149.441 235.677 148.9 235.476 148.2 235.476C147.677 235.476 147.22 235.583 146.828 235.798C146.445 236.003 146.147 236.307 145.932 236.708C145.727 237.1 145.624 237.576 145.624 238.136V242H144.63V234.65H145.582V236.666L145.428 236.288C145.661 235.756 146.035 235.341 146.548 235.042C147.061 234.734 147.673 234.58 148.382 234.58ZM156.415 242.07C155.724 242.07 155.192 241.883 154.819 241.51C154.446 241.137 154.259 240.609 154.259 239.928V233.026H155.253V239.872C155.253 240.301 155.36 240.633 155.575 240.866C155.799 241.099 156.116 241.216 156.527 241.216C156.966 241.216 157.33 241.09 157.619 240.838L157.969 241.552C157.773 241.729 157.535 241.86 157.255 241.944C156.984 242.028 156.704 242.07 156.415 242.07ZM152.943 235.476V234.65H157.493V235.476H152.943ZM159.779 242V234.65H160.731V236.652L160.633 236.302C160.838 235.742 161.183 235.317 161.669 235.028C162.154 234.729 162.756 234.58 163.475 234.58V235.546C163.437 235.546 163.4 235.546 163.363 235.546C163.325 235.537 163.288 235.532 163.251 235.532C162.476 235.532 161.869 235.77 161.431 236.246C160.992 236.713 160.773 237.38 160.773 238.248V242H159.779ZM169.347 242V240.376L169.305 240.11V237.394C169.305 236.769 169.128 236.288 168.773 235.952C168.428 235.616 167.91 235.448 167.219 235.448C166.743 235.448 166.291 235.527 165.861 235.686C165.432 235.845 165.068 236.055 164.769 236.316L164.321 235.574C164.695 235.257 165.143 235.014 165.665 234.846C166.188 234.669 166.739 234.58 167.317 234.58C168.269 234.58 169.002 234.818 169.515 235.294C170.038 235.761 170.299 236.475 170.299 237.436V242H169.347ZM166.813 242.07C166.263 242.07 165.782 241.981 165.371 241.804C164.97 241.617 164.662 241.365 164.447 241.048C164.233 240.721 164.125 240.348 164.125 239.928C164.125 239.545 164.214 239.2 164.391 238.892C164.578 238.575 164.877 238.323 165.287 238.136C165.707 237.94 166.267 237.842 166.967 237.842H169.501V238.584H166.995C166.286 238.584 165.791 238.71 165.511 238.962C165.241 239.214 165.105 239.527 165.105 239.9C165.105 240.32 165.269 240.656 165.595 240.908C165.922 241.16 166.379 241.286 166.967 241.286C167.527 241.286 168.008 241.16 168.409 240.908C168.82 240.647 169.119 240.273 169.305 239.788L169.529 240.474C169.343 240.959 169.016 241.347 168.549 241.636C168.092 241.925 167.513 242.07 166.813 242.07ZM175.323 242.07C174.633 242.07 174.101 241.883 173.727 241.51C173.354 241.137 173.167 240.609 173.167 239.928V233.026H174.161V239.872C174.161 240.301 174.269 240.633 174.483 240.866C174.707 241.099 175.025 241.216 175.435 241.216C175.874 241.216 176.238 241.09 176.527 240.838L176.877 241.552C176.681 241.729 176.443 241.86 176.163 241.944C175.893 242.028 175.613 242.07 175.323 242.07ZM171.851 235.476V234.65H176.401V235.476H171.851ZM180.661 242.07C180.054 242.07 179.48 241.986 178.939 241.818C178.397 241.641 177.973 241.421 177.665 241.16L178.113 240.376C178.411 240.6 178.794 240.796 179.261 240.964C179.727 241.123 180.217 241.202 180.731 241.202C181.431 241.202 181.935 241.095 182.243 240.88C182.551 240.656 182.705 240.362 182.705 239.998C182.705 239.727 182.616 239.517 182.439 239.368C182.271 239.209 182.047 239.093 181.767 239.018C181.487 238.934 181.174 238.864 180.829 238.808C180.483 238.752 180.138 238.687 179.793 238.612C179.457 238.537 179.149 238.43 178.869 238.29C178.589 238.141 178.36 237.94 178.183 237.688C178.015 237.436 177.931 237.1 177.931 236.68C177.931 236.279 178.043 235.919 178.267 235.602C178.491 235.285 178.817 235.037 179.247 234.86C179.685 234.673 180.217 234.58 180.843 234.58C181.319 234.58 181.795 234.645 182.271 234.776C182.747 234.897 183.139 235.061 183.447 235.266L183.013 236.064C182.686 235.84 182.336 235.681 181.963 235.588C181.589 235.485 181.216 235.434 180.843 235.434C180.18 235.434 179.69 235.551 179.373 235.784C179.065 236.008 178.911 236.297 178.911 236.652C178.911 236.932 178.995 237.151 179.163 237.31C179.34 237.469 179.569 237.595 179.849 237.688C180.138 237.772 180.451 237.842 180.787 237.898C181.132 237.954 181.473 238.024 181.809 238.108C182.154 238.183 182.467 238.29 182.747 238.43C183.036 238.561 183.265 238.752 183.433 239.004C183.61 239.247 183.699 239.569 183.699 239.97C183.699 240.399 183.577 240.773 183.335 241.09C183.101 241.398 182.756 241.641 182.299 241.818C181.851 241.986 181.305 242.07 180.661 242.07ZM193.793 242V240.376L193.751 240.11V237.394C193.751 236.769 193.573 236.288 193.219 235.952C192.873 235.616 192.355 235.448 191.665 235.448C191.189 235.448 190.736 235.527 190.307 235.686C189.877 235.845 189.513 236.055 189.215 236.316L188.767 235.574C189.14 235.257 189.588 235.014 190.111 234.846C190.633 234.669 191.184 234.58 191.763 234.58C192.715 234.58 193.447 234.818 193.961 235.294C194.483 235.761 194.745 236.475 194.745 237.436V242H193.793ZM191.259 242.07C190.708 242.07 190.227 241.981 189.817 241.804C189.415 241.617 189.107 241.365 188.893 241.048C188.678 240.721 188.571 240.348 188.571 239.928C188.571 239.545 188.659 239.2 188.837 238.892C189.023 238.575 189.322 238.323 189.733 238.136C190.153 237.94 190.713 237.842 191.413 237.842H193.947V238.584H191.441C190.731 238.584 190.237 238.71 189.957 238.962C189.686 239.214 189.551 239.527 189.551 239.9C189.551 240.32 189.714 240.656 190.041 240.908C190.367 241.16 190.825 241.286 191.413 241.286C191.973 241.286 192.453 241.16 192.855 240.908C193.265 240.647 193.564 240.273 193.751 239.788L193.975 240.474C193.788 240.959 193.461 241.347 192.995 241.636C192.537 241.925 191.959 242.07 191.259 242.07ZM191.721 233.502L189.453 231.766H190.783L192.701 233.502H191.721ZM203.433 242.07C202.742 242.07 202.21 241.883 201.837 241.51C201.463 241.137 201.277 240.609 201.277 239.928V233.026H202.271V239.872C202.271 240.301 202.378 240.633 202.593 240.866C202.817 241.099 203.134 241.216 203.545 241.216C203.983 241.216 204.347 241.09 204.637 240.838L204.987 241.552C204.791 241.729 204.553 241.86 204.273 241.944C204.002 242.028 203.722 242.07 203.433 242.07ZM199.961 235.476V234.65H204.511V235.476H199.961ZM209.658 242.07C208.893 242.07 208.221 241.911 207.642 241.594C207.064 241.267 206.611 240.824 206.284 240.264C205.958 239.695 205.794 239.046 205.794 238.318C205.794 237.59 205.948 236.946 206.256 236.386C206.574 235.826 207.003 235.387 207.544 235.07C208.095 234.743 208.711 234.58 209.392 234.58C210.083 234.58 210.694 234.739 211.226 235.056C211.768 235.364 212.192 235.803 212.5 236.372C212.808 236.932 212.962 237.581 212.962 238.318C212.962 238.365 212.958 238.416 212.948 238.472C212.948 238.519 212.948 238.57 212.948 238.626H206.55V237.884H212.416L212.024 238.178C212.024 237.646 211.908 237.175 211.674 236.764C211.45 236.344 211.142 236.017 210.75 235.784C210.358 235.551 209.906 235.434 209.392 235.434C208.888 235.434 208.436 235.551 208.034 235.784C207.633 236.017 207.32 236.344 207.096 236.764C206.872 237.184 206.76 237.665 206.76 238.206V238.36C206.76 238.92 206.882 239.415 207.124 239.844C207.376 240.264 207.722 240.595 208.16 240.838C208.608 241.071 209.117 241.188 209.686 241.188C210.134 241.188 210.55 241.109 210.932 240.95C211.324 240.791 211.66 240.549 211.94 240.222L212.5 240.866C212.174 241.258 211.763 241.557 211.268 241.762C210.783 241.967 210.246 242.07 209.658 242.07ZM214.986 242V234.65H215.938V236.652L215.84 236.302C216.045 235.742 216.39 235.317 216.876 235.028C217.361 234.729 217.963 234.58 218.682 234.58V235.546C218.644 235.546 218.607 235.546 218.57 235.546C218.532 235.537 218.495 235.532 218.458 235.532C217.683 235.532 217.076 235.77 216.638 236.246C216.199 236.713 215.98 237.38 215.98 238.248V242H214.986ZM229.679 234.58C230.277 234.58 230.795 234.697 231.233 234.93C231.681 235.154 232.027 235.499 232.269 235.966C232.521 236.433 232.647 237.021 232.647 237.73V242H231.653V237.828C231.653 237.053 231.467 236.47 231.093 236.078C230.729 235.677 230.211 235.476 229.539 235.476C229.035 235.476 228.597 235.583 228.223 235.798C227.859 236.003 227.575 236.307 227.369 236.708C227.173 237.1 227.075 237.576 227.075 238.136V242H226.081V237.828C226.081 237.053 225.895 236.47 225.521 236.078C225.148 235.677 224.625 235.476 223.953 235.476C223.459 235.476 223.025 235.583 222.651 235.798C222.278 236.003 221.989 236.307 221.783 236.708C221.587 237.1 221.489 237.576 221.489 238.136V242H220.495V234.65H221.447V236.638L221.293 236.288C221.517 235.756 221.877 235.341 222.371 235.042C222.875 234.734 223.468 234.58 224.149 234.58C224.868 234.58 225.479 234.762 225.983 235.126C226.487 235.481 226.814 236.017 226.963 236.736L226.571 236.582C226.786 235.985 227.164 235.504 227.705 235.14C228.256 234.767 228.914 234.58 229.679 234.58ZM238.465 242.07C237.7 242.07 237.028 241.911 236.449 241.594C235.87 241.267 235.418 240.824 235.091 240.264C234.764 239.695 234.601 239.046 234.601 238.318C234.601 237.59 234.755 236.946 235.063 236.386C235.38 235.826 235.81 235.387 236.351 235.07C236.902 234.743 237.518 234.58 238.199 234.58C238.89 234.58 239.501 234.739 240.033 235.056C240.574 235.364 240.999 235.803 241.307 236.372C241.615 236.932 241.769 237.581 241.769 238.318C241.769 238.365 241.764 238.416 241.755 238.472C241.755 238.519 241.755 238.57 241.755 238.626H235.357V237.884H241.223L240.831 238.178C240.831 237.646 240.714 237.175 240.481 236.764C240.257 236.344 239.949 236.017 239.557 235.784C239.165 235.551 238.712 235.434 238.199 235.434C237.695 235.434 237.242 235.551 236.841 235.784C236.44 236.017 236.127 236.344 235.903 236.764C235.679 237.184 235.567 237.665 235.567 238.206V238.36C235.567 238.92 235.688 239.415 235.931 239.844C236.183 240.264 236.528 240.595 236.967 240.838C237.415 241.071 237.924 241.188 238.493 241.188C238.941 241.188 239.356 241.109 239.739 240.95C240.131 240.791 240.467 240.549 240.747 240.222L241.307 240.866C240.98 241.258 240.57 241.557 240.075 241.762C239.59 241.967 239.053 242.07 238.465 242.07ZM252.062 242V240.376L252.02 240.11V237.394C252.02 236.769 251.843 236.288 251.488 235.952C251.143 235.616 250.625 235.448 249.934 235.448C249.458 235.448 249.006 235.527 248.576 235.686C248.147 235.845 247.783 236.055 247.484 236.316L247.036 235.574C247.41 235.257 247.858 235.014 248.38 234.846C248.903 234.669 249.454 234.58 250.032 234.58C250.984 234.58 251.717 234.818 252.23 235.294C252.753 235.761 253.014 236.475 253.014 237.436V242H252.062ZM249.528 242.07C248.978 242.07 248.497 241.981 248.086 241.804C247.685 241.617 247.377 241.365 247.162 241.048C246.948 240.721 246.84 240.348 246.84 239.928C246.84 239.545 246.929 239.2 247.106 238.892C247.293 238.575 247.592 238.323 248.002 238.136C248.422 237.94 248.982 237.842 249.682 237.842H252.216V238.584H249.71C249.001 238.584 248.506 238.71 248.226 238.962C247.956 239.214 247.82 239.527 247.82 239.9C247.82 240.32 247.984 240.656 248.31 240.908C248.637 241.16 249.094 241.286 249.682 241.286C250.242 241.286 250.723 241.16 251.124 240.908C251.535 240.647 251.834 240.273 252.02 239.788L252.244 240.474C252.058 240.959 251.731 241.347 251.264 241.636C250.807 241.925 250.228 242.07 249.528 242.07ZM249.99 233.502L247.722 231.766H249.052L250.97 233.502H249.99ZM262.43 242.07C261.702 242.07 261.049 241.911 260.47 241.594C259.901 241.267 259.453 240.824 259.126 240.264C258.8 239.695 258.636 239.046 258.636 238.318C258.636 237.581 258.8 236.932 259.126 236.372C259.453 235.812 259.901 235.373 260.47 235.056C261.049 234.739 261.702 234.58 262.43 234.58C263.056 234.58 263.62 234.701 264.124 234.944C264.628 235.187 265.025 235.551 265.314 236.036L264.572 236.54C264.32 236.167 264.008 235.891 263.634 235.714C263.261 235.537 262.855 235.448 262.416 235.448C261.894 235.448 261.422 235.569 261.002 235.812C260.582 236.045 260.251 236.377 260.008 236.806C259.766 237.235 259.644 237.739 259.644 238.318C259.644 238.897 259.766 239.401 260.008 239.83C260.251 240.259 260.582 240.595 261.002 240.838C261.422 241.071 261.894 241.188 262.416 241.188C262.855 241.188 263.261 241.099 263.634 240.922C264.008 240.745 264.32 240.474 264.572 240.11L265.314 240.614C265.025 241.09 264.628 241.454 264.124 241.706C263.62 241.949 263.056 242.07 262.43 242.07ZM270.266 242.07C269.5 242.07 268.828 241.911 268.25 241.594C267.671 241.267 267.218 240.824 266.892 240.264C266.565 239.695 266.402 239.046 266.402 238.318C266.402 237.59 266.556 236.946 266.864 236.386C267.181 235.826 267.61 235.387 268.152 235.07C268.702 234.743 269.318 234.58 270 234.58C270.69 234.58 271.302 234.739 271.834 235.056C272.375 235.364 272.8 235.803 273.108 236.372C273.416 236.932 273.57 237.581 273.57 238.318C273.57 238.365 273.565 238.416 273.556 238.472C273.556 238.519 273.556 238.57 273.556 238.626H267.158V237.884H273.024L272.632 238.178C272.632 237.646 272.515 237.175 272.282 236.764C272.058 236.344 271.75 236.017 271.358 235.784C270.966 235.551 270.513 235.434 270 235.434C269.496 235.434 269.043 235.551 268.642 235.784C268.24 236.017 267.928 236.344 267.704 236.764C267.48 237.184 267.368 237.665 267.368 238.206V238.36C267.368 238.92 267.489 239.415 267.732 239.844C267.984 240.264 268.329 240.595 268.768 240.838C269.216 241.071 269.724 241.188 270.294 241.188C270.742 241.188 271.157 241.109 271.54 240.95C271.932 240.791 272.268 240.549 272.548 240.222L273.108 240.866C272.781 241.258 272.37 241.557 271.876 241.762C271.39 241.967 270.854 242.07 270.266 242.07ZM283.051 242.07C282.416 242.07 281.842 241.925 281.329 241.636C280.816 241.337 280.405 240.913 280.097 240.362C279.798 239.802 279.649 239.121 279.649 238.318C279.649 237.515 279.798 236.839 280.097 236.288C280.396 235.728 280.802 235.303 281.315 235.014C281.828 234.725 282.407 234.58 283.051 234.58C283.751 234.58 284.376 234.739 284.927 235.056C285.487 235.364 285.926 235.803 286.243 236.372C286.56 236.932 286.719 237.581 286.719 238.318C286.719 239.065 286.56 239.718 286.243 240.278C285.926 240.838 285.487 241.277 284.927 241.594C284.376 241.911 283.751 242.07 283.051 242.07ZM279.257 244.716V234.65H280.209V236.862L280.111 238.332L280.251 239.816V244.716H279.257ZM282.981 241.188C283.504 241.188 283.97 241.071 284.381 240.838C284.792 240.595 285.118 240.259 285.361 239.83C285.604 239.391 285.725 238.887 285.725 238.318C285.725 237.749 285.604 237.249 285.361 236.82C285.118 236.391 284.792 236.055 284.381 235.812C283.97 235.569 283.504 235.448 282.981 235.448C282.458 235.448 281.987 235.569 281.567 235.812C281.156 236.055 280.83 236.391 280.587 236.82C280.354 237.249 280.237 237.749 280.237 238.318C280.237 238.887 280.354 239.391 280.587 239.83C280.83 240.259 281.156 240.595 281.567 240.838C281.987 241.071 282.458 241.188 282.981 241.188ZM288.745 242V234.65H289.697V236.652L289.599 236.302C289.805 235.742 290.15 235.317 290.635 235.028C291.121 234.729 291.723 234.58 292.441 234.58V235.546C292.404 235.546 292.367 235.546 292.329 235.546C292.292 235.537 292.255 235.532 292.217 235.532C291.443 235.532 290.836 235.77 290.397 236.246C289.959 236.713 289.739 237.38 289.739 238.248V242H288.745ZM294.255 242V234.65H295.249V242H294.255ZM294.759 233.026C294.554 233.026 294.381 232.956 294.241 232.816C294.101 232.676 294.031 232.508 294.031 232.312C294.031 232.116 294.101 231.953 294.241 231.822C294.381 231.682 294.554 231.612 294.759 231.612C294.964 231.612 295.137 231.677 295.277 231.808C295.417 231.939 295.487 232.102 295.487 232.298C295.487 232.503 295.417 232.676 295.277 232.816C295.146 232.956 294.974 233.026 294.759 233.026ZM296.895 242L300.003 237.968L299.989 238.458L297.035 234.65H298.155L300.577 237.8L300.157 237.786L302.579 234.65H303.671L300.689 238.5L300.703 237.968L303.839 242H302.705L300.143 238.64L300.535 238.696L298.015 242H296.895Z" fill="#A2C33D"/>
<path d="M330 241H370" stroke="#A2C33D"/>
<path d="M327 73.0001L873.5 75.5102" stroke="#214B33"/>
<path d="M6.418 73L0.91 60.4H3.448L8.362 71.794H6.904L11.872 60.4H14.212L8.722 73H6.418ZM18.9249 73.126C17.9409 73.126 17.0649 72.916 16.2969 72.496C15.5289 72.064 14.9229 71.476 14.4789 70.732C14.0349 69.988 13.8129 69.142 13.8129 68.194C13.8129 67.234 14.0349 66.388 14.4789 65.656C14.9229 64.912 15.5289 64.33 16.2969 63.91C17.0649 63.49 17.9409 63.28 18.9249 63.28C19.9209 63.28 20.8029 63.49 21.5709 63.91C22.3509 64.33 22.9569 64.906 23.3889 65.638C23.8329 66.37 24.0549 67.222 24.0549 68.194C24.0549 69.142 23.8329 69.988 23.3889 70.732C22.9569 71.476 22.3509 72.064 21.5709 72.496C20.8029 72.916 19.9209 73.126 18.9249 73.126ZM18.9249 71.2C19.4769 71.2 19.9689 71.08 20.4009 70.84C20.8329 70.6 21.1689 70.252 21.4089 69.796C21.6609 69.34 21.7869 68.806 21.7869 68.194C21.7869 67.57 21.6609 67.036 21.4089 66.592C21.1689 66.136 20.8329 65.788 20.4009 65.548C19.9689 65.308 19.4829 65.188 18.9429 65.188C18.3909 65.188 17.8989 65.308 17.4669 65.548C17.0469 65.788 16.7109 66.136 16.4589 66.592C16.2069 67.036 16.0809 67.57 16.0809 68.194C16.0809 68.806 16.2069 69.34 16.4589 69.796C16.7109 70.252 17.0469 70.6 17.4669 70.84C17.8989 71.08 18.3849 71.2 18.9249 71.2ZM30.2745 73.126C29.4585 73.126 28.7385 72.976 28.1145 72.676C27.4905 72.364 27.0045 71.896 26.6565 71.272C26.3085 70.636 26.1345 69.838 26.1345 68.878V63.388H28.3845V68.572C28.3845 69.436 28.5765 70.084 28.9605 70.516C29.3565 70.936 29.9145 71.146 30.6345 71.146C31.1625 71.146 31.6185 71.038 32.0025 70.822C32.3985 70.606 32.7045 70.282 32.9205 69.85C33.1485 69.418 33.2625 68.884 33.2625 68.248V63.388H35.5125V73H33.3705V70.408L33.7485 71.2C33.4245 71.824 32.9505 72.304 32.3265 72.64C31.7025 72.964 31.0185 73.126 30.2745 73.126ZM41.4284 73.126C40.6244 73.126 39.8504 73.024 39.1064 72.82C38.3744 72.604 37.7924 72.346 37.3604 72.046L38.2244 70.336C38.6564 70.612 39.1724 70.84 39.7724 71.02C40.3724 71.2 40.9724 71.29 41.5724 71.29C42.2804 71.29 42.7904 71.194 43.1024 71.002C43.4264 70.81 43.5884 70.552 43.5884 70.228C43.5884 69.964 43.4804 69.766 43.2644 69.634C43.0484 69.49 42.7664 69.382 42.4184 69.31C42.0704 69.238 41.6804 69.172 41.2484 69.112C40.8284 69.052 40.4024 68.974 39.9704 68.878C39.5504 68.77 39.1664 68.62 38.8184 68.428C38.4704 68.224 38.1884 67.954 37.9724 67.618C37.7564 67.282 37.6484 66.838 37.6484 66.286C37.6484 65.674 37.8224 65.146 38.1704 64.702C38.5184 64.246 39.0044 63.898 39.6284 63.658C40.2644 63.406 41.0144 63.28 41.8784 63.28C42.5264 63.28 43.1804 63.352 43.8404 63.496C44.5004 63.64 45.0464 63.844 45.4784 64.108L44.6144 65.818C44.1584 65.542 43.6964 65.356 43.2284 65.26C42.7724 65.152 42.3164 65.098 41.8604 65.098C41.1764 65.098 40.6664 65.2 40.3304 65.404C40.0064 65.608 39.8444 65.866 39.8444 66.178C39.8444 66.466 39.9524 66.682 40.1684 66.826C40.3844 66.97 40.6664 67.084 41.0144 67.168C41.3624 67.252 41.7464 67.324 42.1664 67.384C42.5984 67.432 43.0244 67.51 43.4444 67.618C43.8644 67.726 44.2484 67.876 44.5964 68.068C44.9564 68.248 45.2444 68.506 45.4604 68.842C45.6764 69.178 45.7844 69.616 45.7844 70.156C45.7844 70.756 45.6044 71.278 45.2444 71.722C44.8964 72.166 44.3984 72.514 43.7504 72.766C43.1024 73.006 42.3284 73.126 41.4284 73.126ZM55.2527 73L51.1307 63.388H53.4707L57.0167 71.866H55.8647L59.5367 63.388H61.6967L57.5747 73H55.2527ZM67.3573 73.126C66.2893 73.126 65.3533 72.916 64.5493 72.496C63.7573 72.064 63.1393 71.476 62.6953 70.732C62.2633 69.988 62.0473 69.142 62.0473 68.194C62.0473 67.234 62.2573 66.388 62.6773 65.656C63.1093 64.912 63.6973 64.33 64.4413 63.91C65.1973 63.49 66.0553 63.28 67.0153 63.28C67.9513 63.28 68.7853 63.484 69.5173 63.892C70.2493 64.3 70.8253 64.876 71.2453 65.62C71.6653 66.364 71.8753 67.24 71.8753 68.248C71.8753 68.344 71.8693 68.452 71.8573 68.572C71.8573 68.692 71.8513 68.806 71.8393 68.914H63.8293V67.42H70.6513L69.7693 67.888C69.7813 67.336 69.6673 66.85 69.4273 66.43C69.1873 66.01 68.8573 65.68 68.4373 65.44C68.0293 65.2 67.5553 65.08 67.0153 65.08C66.4633 65.08 65.9773 65.2 65.5573 65.44C65.1493 65.68 64.8253 66.016 64.5853 66.448C64.3573 66.868 64.2433 67.366 64.2433 67.942V68.302C64.2433 68.878 64.3753 69.388 64.6393 69.832C64.9033 70.276 65.2753 70.618 65.7553 70.858C66.2353 71.098 66.7873 71.218 67.4113 71.218C67.9513 71.218 68.4373 71.134 68.8693 70.966C69.3013 70.798 69.6853 70.534 70.0213 70.174L71.2273 71.56C70.7953 72.064 70.2493 72.454 69.5893 72.73C68.9413 72.994 68.1973 73.126 67.3573 73.126ZM79.4905 63.28C80.2585 63.28 80.9425 63.43 81.5425 63.73C82.1545 64.03 82.6345 64.492 82.9825 65.116C83.3305 65.728 83.5045 66.52 83.5045 67.492V73H81.2545V67.78C81.2545 66.928 81.0505 66.292 80.6425 65.872C80.2465 65.452 79.6885 65.242 78.9685 65.242C78.4405 65.242 77.9725 65.35 77.5645 65.566C77.1565 65.782 76.8385 66.106 76.6105 66.538C76.3945 66.958 76.2865 67.492 76.2865 68.14V73H74.0365V63.388H76.1785V65.98L75.8005 65.188C76.1365 64.576 76.6225 64.108 77.2585 63.784C77.9065 63.448 78.6505 63.28 79.4905 63.28ZM90.4444 73.126C89.5204 73.126 88.6864 72.922 87.9424 72.514C87.2104 72.094 86.6344 71.518 86.2144 70.786C85.7944 70.054 85.5844 69.19 85.5844 68.194C85.5844 67.198 85.7944 66.334 86.2144 65.602C86.6344 64.87 87.2104 64.3 87.9424 63.892C88.6864 63.484 89.5204 63.28 90.4444 63.28C91.2484 63.28 91.9684 63.46 92.6044 63.82C93.2404 64.168 93.7444 64.702 94.1164 65.422C94.4884 66.142 94.6744 67.066 94.6744 68.194C94.6744 69.31 94.4944 70.234 94.1344 70.966C93.7744 71.686 93.2764 72.226 92.6404 72.586C92.0044 72.946 91.2724 73.126 90.4444 73.126ZM90.7144 71.2C91.2544 71.2 91.7344 71.08 92.1544 70.84C92.5864 70.6 92.9284 70.252 93.1804 69.796C93.4444 69.34 93.5764 68.806 93.5764 68.194C93.5764 67.57 93.4444 67.036 93.1804 66.592C92.9284 66.136 92.5864 65.788 92.1544 65.548C91.7344 65.308 91.2544 65.188 90.7144 65.188C90.1744 65.188 89.6884 65.308 89.2564 65.548C88.8364 65.788 88.4944 66.136 88.2304 66.592C87.9784 67.036 87.8524 67.57 87.8524 68.194C87.8524 68.806 87.9784 69.34 88.2304 69.796C88.4944 70.252 88.8364 70.6 89.2564 70.84C89.6884 71.08 90.1744 71.2 90.7144 71.2ZM93.6304 73V70.732L93.7204 68.176L93.5404 65.62V59.644H95.7724V73H93.6304ZM103.252 73.126C102.184 73.126 101.248 72.916 100.444 72.496C99.6518 72.064 99.0338 71.476 98.5898 70.732C98.1578 69.988 97.9418 69.142 97.9418 68.194C97.9418 67.234 98.1518 66.388 98.5718 65.656C99.0038 64.912 99.5918 64.33 100.336 63.91C101.092 63.49 101.95 63.28 102.91 63.28C103.846 63.28 104.68 63.484 105.412 63.892C106.144 64.3 106.72 64.876 107.14 65.62C107.56 66.364 107.77 67.24 107.77 68.248C107.77 68.344 107.764 68.452 107.752 68.572C107.752 68.692 107.746 68.806 107.734 68.914H99.7238V67.42H106.546L105.664 67.888C105.676 67.336 105.562 66.85 105.322 66.43C105.082 66.01 104.752 65.68 104.332 65.44C103.924 65.2 103.45 65.08 102.91 65.08C102.358 65.08 101.872 65.2 101.452 65.44C101.044 65.68 100.72 66.016 100.48 66.448C100.252 66.868 100.138 67.366 100.138 67.942V68.302C100.138 68.878 100.27 69.388 100.534 69.832C100.798 70.276 101.17 70.618 101.65 70.858C102.13 71.098 102.682 71.218 103.306 71.218C103.846 71.218 104.332 71.134 104.764 70.966C105.196 70.798 105.58 70.534 105.916 70.174L107.122 71.56C106.69 72.064 106.144 72.454 105.484 72.73C104.836 72.994 104.092 73.126 103.252 73.126ZM109.051 73V71.578L114.973 64.414L115.387 65.188H109.159V63.388H117.187V64.81L111.265 71.974L110.815 71.2H117.349V73H109.051ZM128.466 73.126C127.542 73.126 126.708 72.922 125.964 72.514C125.232 72.094 124.656 71.518 124.236 70.786C123.816 70.054 123.606 69.19 123.606 68.194C123.606 67.198 123.816 66.334 124.236 65.602C124.656 64.87 125.232 64.3 125.964 63.892C126.708 63.484 127.542 63.28 128.466 63.28C129.27 63.28 129.99 63.46 130.626 63.82C131.262 64.168 131.766 64.702 132.138 65.422C132.51 66.142 132.696 67.066 132.696 68.194C132.696 69.31 132.516 70.234 132.156 70.966C131.796 71.686 131.298 72.226 130.662 72.586C130.026 72.946 129.294 73.126 128.466 73.126ZM128.736 71.2C129.276 71.2 129.756 71.08 130.176 70.84C130.608 70.6 130.95 70.252 131.202 69.796C131.466 69.34 131.598 68.806 131.598 68.194C131.598 67.57 131.466 67.036 131.202 66.592C130.95 66.136 130.608 65.788 130.176 65.548C129.756 65.308 129.276 65.188 128.736 65.188C128.196 65.188 127.71 65.308 127.278 65.548C126.858 65.788 126.516 66.136 126.252 66.592C126 67.036 125.874 67.57 125.874 68.194C125.874 68.806 126 69.34 126.252 69.796C126.516 70.252 126.858 70.6 127.278 70.84C127.71 71.08 128.196 71.2 128.736 71.2ZM131.652 73V70.732L131.742 68.176L131.562 65.62V59.644H133.794V73H131.652ZM141.273 73.126C140.205 73.126 139.269 72.916 138.465 72.496C137.673 72.064 137.055 71.476 136.611 70.732C136.179 69.988 135.963 69.142 135.963 68.194C135.963 67.234 136.173 66.388 136.593 65.656C137.025 64.912 137.613 64.33 138.357 63.91C139.113 63.49 139.971 63.28 140.931 63.28C141.867 63.28 142.701 63.484 143.433 63.892C144.165 64.3 144.741 64.876 145.161 65.62C145.581 66.364 145.791 67.24 145.791 68.248C145.791 68.344 145.785 68.452 145.773 68.572C145.773 68.692 145.767 68.806 145.755 68.914H137.745V67.42H144.567L143.685 67.888C143.697 67.336 143.583 66.85 143.343 66.43C143.103 66.01 142.773 65.68 142.353 65.44C141.945 65.2 141.471 65.08 140.931 65.08C140.379 65.08 139.893 65.2 139.473 65.44C139.065 65.68 138.741 66.016 138.501 66.448C138.273 66.868 138.159 67.366 138.159 67.942V68.302C138.159 68.878 138.291 69.388 138.555 69.832C138.819 70.276 139.191 70.618 139.671 70.858C140.151 71.098 140.703 71.218 141.327 71.218C141.867 71.218 142.353 71.134 142.785 70.966C143.217 70.798 143.601 70.534 143.937 70.174L145.143 71.56C144.711 72.064 144.165 72.454 143.505 72.73C142.857 72.994 142.113 73.126 141.273 73.126ZM150.923 73.126C150.119 73.126 149.345 73.024 148.601 72.82C147.869 72.604 147.287 72.346 146.855 72.046L147.719 70.336C148.151 70.612 148.667 70.84 149.267 71.02C149.867 71.2 150.467 71.29 151.067 71.29C151.775 71.29 152.285 71.194 152.597 71.002C152.921 70.81 153.083 70.552 153.083 70.228C153.083 69.964 152.975 69.766 152.759 69.634C152.543 69.49 152.261 69.382 151.913 69.31C151.565 69.238 151.175 69.172 150.743 69.112C150.323 69.052 149.897 68.974 149.465 68.878C149.045 68.77 148.661 68.62 148.313 68.428C147.965 68.224 147.683 67.954 147.467 67.618C147.251 67.282 147.143 66.838 147.143 66.286C147.143 65.674 147.317 65.146 147.665 64.702C148.013 64.246 148.499 63.898 149.123 63.658C149.759 63.406 150.509 63.28 151.373 63.28C152.021 63.28 152.675 63.352 153.335 63.496C153.995 63.64 154.541 63.844 154.973 64.108L154.109 65.818C153.653 65.542 153.191 65.356 152.723 65.26C152.267 65.152 151.811 65.098 151.355 65.098C150.671 65.098 150.161 65.2 149.825 65.404C149.501 65.608 149.339 65.866 149.339 66.178C149.339 66.466 149.447 66.682 149.663 66.826C149.879 66.97 150.161 67.084 150.509 67.168C150.857 67.252 151.241 67.324 151.661 67.384C152.093 67.432 152.519 67.51 152.939 67.618C153.359 67.726 153.743 67.876 154.091 68.068C154.451 68.248 154.739 68.506 154.955 68.842C155.171 69.178 155.279 69.616 155.279 70.156C155.279 70.756 155.099 71.278 154.739 71.722C154.391 72.166 153.893 72.514 153.245 72.766C152.597 73.006 151.823 73.126 150.923 73.126ZM166.601 73.126C165.593 73.126 164.693 72.916 163.901 72.496C163.121 72.064 162.509 71.476 162.065 70.732C161.621 69.988 161.399 69.142 161.399 68.194C161.399 67.234 161.621 66.388 162.065 65.656C162.509 64.912 163.121 64.33 163.901 63.91C164.693 63.49 165.593 63.28 166.601 63.28C167.537 63.28 168.359 63.472 169.067 63.856C169.787 64.228 170.333 64.78 170.705 65.512L168.977 66.52C168.689 66.064 168.335 65.728 167.915 65.512C167.507 65.296 167.063 65.188 166.583 65.188C166.031 65.188 165.533 65.308 165.089 65.548C164.645 65.788 164.297 66.136 164.045 66.592C163.793 67.036 163.667 67.57 163.667 68.194C163.667 68.818 163.793 69.358 164.045 69.814C164.297 70.258 164.645 70.6 165.089 70.84C165.533 71.08 166.031 71.2 166.583 71.2C167.063 71.2 167.507 71.092 167.915 70.876C168.335 70.66 168.689 70.324 168.977 69.868L170.705 70.876C170.333 71.596 169.787 72.154 169.067 72.55C168.359 72.934 167.537 73.126 166.601 73.126ZM176.829 73.126C175.845 73.126 174.969 72.916 174.201 72.496C173.433 72.064 172.827 71.476 172.383 70.732C171.939 69.988 171.717 69.142 171.717 68.194C171.717 67.234 171.939 66.388 172.383 65.656C172.827 64.912 173.433 64.33 174.201 63.91C174.969 63.49 175.845 63.28 176.829 63.28C177.825 63.28 178.707 63.49 179.475 63.91C180.255 64.33 180.861 64.906 181.293 65.638C181.737 66.37 181.959 67.222 181.959 68.194C181.959 69.142 181.737 69.988 181.293 70.732C180.861 71.476 180.255 72.064 179.475 72.496C178.707 72.916 177.825 73.126 176.829 73.126ZM176.829 71.2C177.381 71.2 177.873 71.08 178.305 70.84C178.737 70.6 179.073 70.252 179.313 69.796C179.565 69.34 179.691 68.806 179.691 68.194C179.691 67.57 179.565 67.036 179.313 66.592C179.073 66.136 178.737 65.788 178.305 65.548C177.873 65.308 177.387 65.188 176.847 65.188C176.295 65.188 175.803 65.308 175.371 65.548C174.951 65.788 174.615 66.136 174.363 66.592C174.111 67.036 173.985 67.57 173.985 68.194C173.985 68.806 174.111 69.34 174.363 69.796C174.615 70.252 174.951 70.6 175.371 70.84C175.803 71.08 176.289 71.2 176.829 71.2ZM189.565 63.28C190.333 63.28 191.017 63.43 191.617 63.73C192.229 64.03 192.709 64.492 193.057 65.116C193.405 65.728 193.579 66.52 193.579 67.492V73H191.329V67.78C191.329 66.928 191.125 66.292 190.717 65.872C190.321 65.452 189.763 65.242 189.043 65.242C188.515 65.242 188.047 65.35 187.639 65.566C187.231 65.782 186.913 66.106 186.685 66.538C186.469 66.958 186.361 67.492 186.361 68.14V73H184.111V63.388H186.253V65.98L185.875 65.188C186.211 64.576 186.697 64.108 187.333 63.784C187.981 63.448 188.725 63.28 189.565 63.28ZM200.051 73.126C198.995 73.126 198.179 72.856 197.603 72.316C197.027 71.764 196.739 70.954 196.739 69.886V61.264H198.989V69.832C198.989 70.288 199.103 70.642 199.331 70.894C199.571 71.146 199.901 71.272 200.321 71.272C200.825 71.272 201.245 71.14 201.581 70.876L202.211 72.478C201.947 72.694 201.623 72.856 201.239 72.964C200.855 73.072 200.459 73.126 200.051 73.126ZM195.155 65.26V63.46H201.563V65.26H195.155ZM204.062 73V63.388H206.204V66.034L205.952 65.26C206.24 64.612 206.69 64.12 207.302 63.784C207.926 63.448 208.7 63.28 209.624 63.28V65.422C209.528 65.398 209.438 65.386 209.354 65.386C209.27 65.374 209.186 65.368 209.102 65.368C208.25 65.368 207.572 65.62 207.068 66.124C206.564 66.616 206.312 67.354 206.312 68.338V73H204.062ZM216.769 73V71.056L216.643 70.642V67.24C216.643 66.58 216.445 66.07 216.049 65.71C215.653 65.338 215.053 65.152 214.249 65.152C213.709 65.152 213.175 65.236 212.647 65.404C212.131 65.572 211.693 65.806 211.333 66.106L210.451 64.468C210.967 64.072 211.579 63.778 212.287 63.586C213.007 63.382 213.751 63.28 214.519 63.28C215.911 63.28 216.985 63.616 217.741 64.288C218.509 64.948 218.893 65.974 218.893 67.366V73H216.769ZM213.745 73.126C213.025 73.126 212.395 73.006 211.855 72.766C211.315 72.514 210.895 72.172 210.595 71.74C210.307 71.296 210.163 70.798 210.163 70.246C210.163 69.706 210.289 69.22 210.541 68.788C210.805 68.356 211.231 68.014 211.819 67.762C212.407 67.51 213.187 67.384 214.159 67.384H216.949V68.878H214.321C213.553 68.878 213.037 69.004 212.773 69.256C212.509 69.496 212.377 69.796 212.377 70.156C212.377 70.564 212.539 70.888 212.863 71.128C213.187 71.368 213.637 71.488 214.213 71.488C214.765 71.488 215.257 71.362 215.689 71.11C216.133 70.858 216.451 70.486 216.643 69.994L217.021 71.344C216.805 71.908 216.415 72.346 215.851 72.658C215.299 72.97 214.597 73.126 213.745 73.126ZM225.399 73.126C224.343 73.126 223.527 72.856 222.951 72.316C222.375 71.764 222.087 70.954 222.087 69.886V61.264H224.337V69.832C224.337 70.288 224.451 70.642 224.679 70.894C224.919 71.146 225.249 71.272 225.669 71.272C226.173 71.272 226.593 71.14 226.929 70.876L227.559 72.478C227.295 72.694 226.971 72.856 226.587 72.964C226.203 73.072 225.807 73.126 225.399 73.126ZM220.503 65.26V63.46H226.911V65.26H220.503ZM232.38 73.126C231.576 73.126 230.802 73.024 230.058 72.82C229.326 72.604 228.744 72.346 228.312 72.046L229.176 70.336C229.608 70.612 230.124 70.84 230.724 71.02C231.324 71.2 231.924 71.29 232.524 71.29C233.232 71.29 233.742 71.194 234.054 71.002C234.378 70.81 234.54 70.552 234.54 70.228C234.54 69.964 234.432 69.766 234.216 69.634C234 69.49 233.718 69.382 233.37 69.31C233.022 69.238 232.632 69.172 232.2 69.112C231.78 69.052 231.354 68.974 230.922 68.878C230.502 68.77 230.118 68.62 229.77 68.428C229.422 68.224 229.14 67.954 228.924 67.618C228.708 67.282 228.6 66.838 228.6 66.286C228.6 65.674 228.774 65.146 229.122 64.702C229.47 64.246 229.956 63.898 230.58 63.658C231.216 63.406 231.966 63.28 232.83 63.28C233.478 63.28 234.132 63.352 234.792 63.496C235.452 63.64 235.998 63.844 236.43 64.108L235.566 65.818C235.11 65.542 234.648 65.356 234.18 65.26C233.724 65.152 233.268 65.098 232.812 65.098C232.128 65.098 231.618 65.2 231.282 65.404C230.958 65.608 230.796 65.866 230.796 66.178C230.796 66.466 230.904 66.682 231.12 66.826C231.336 66.97 231.618 67.084 231.966 67.168C232.314 67.252 232.698 67.324 233.118 67.384C233.55 67.432 233.976 67.51 234.396 67.618C234.816 67.726 235.2 67.876 235.548 68.068C235.908 68.248 236.196 68.506 236.412 68.842C236.628 69.178 236.736 69.616 236.736 70.156C236.736 70.756 236.556 71.278 236.196 71.722C235.848 72.166 235.35 72.514 234.702 72.766C234.054 73.006 233.28 73.126 232.38 73.126ZM249.57 73V71.056L249.444 70.642V67.24C249.444 66.58 249.246 66.07 248.85 65.71C248.454 65.338 247.854 65.152 247.05 65.152C246.51 65.152 245.976 65.236 245.448 65.404C244.932 65.572 244.494 65.806 244.134 66.106L243.252 64.468C243.768 64.072 244.38 63.778 245.088 63.586C245.808 63.382 246.552 63.28 247.32 63.28C248.712 63.28 249.786 63.616 250.542 64.288C251.31 64.948 251.694 65.974 251.694 67.366V73H249.57ZM246.546 73.126C245.826 73.126 245.196 73.006 244.656 72.766C244.116 72.514 243.696 72.172 243.396 71.74C243.108 71.296 242.964 70.798 242.964 70.246C242.964 69.706 243.09 69.22 243.342 68.788C243.606 68.356 244.032 68.014 244.62 67.762C245.208 67.51 245.988 67.384 246.96 67.384H249.75V68.878H247.122C246.354 68.878 245.838 69.004 245.574 69.256C245.31 69.496 245.178 69.796 245.178 70.156C245.178 70.564 245.34 70.888 245.664 71.128C245.988 71.368 246.438 71.488 247.014 71.488C247.566 71.488 248.058 71.362 248.49 71.11C248.934 70.858 249.252 70.486 249.444 69.994L249.822 71.344C249.606 71.908 249.216 72.346 248.652 72.658C248.1 72.97 247.398 73.126 246.546 73.126ZM247.086 62.074L243.954 59.608H246.6L249.03 62.074H247.086ZM263.174 73.126C262.118 73.126 261.302 72.856 260.726 72.316C260.15 71.764 259.862 70.954 259.862 69.886V61.264H262.112V69.832C262.112 70.288 262.226 70.642 262.454 70.894C262.694 71.146 263.024 71.272 263.444 71.272C263.948 71.272 264.368 71.14 264.704 70.876L265.334 72.478C265.07 72.694 264.746 72.856 264.362 72.964C263.978 73.072 263.582 73.126 263.174 73.126ZM258.278 65.26V63.46H264.686V65.26H258.278ZM271.387 73.126C270.319 73.126 269.383 72.916 268.579 72.496C267.787 72.064 267.169 71.476 266.725 70.732C266.293 69.988 266.077 69.142 266.077 68.194C266.077 67.234 266.287 66.388 266.707 65.656C267.139 64.912 267.727 64.33 268.471 63.91C269.227 63.49 270.085 63.28 271.045 63.28C271.981 63.28 272.815 63.484 273.547 63.892C274.279 64.3 274.855 64.876 275.275 65.62C275.695 66.364 275.905 67.24 275.905 68.248C275.905 68.344 275.899 68.452 275.887 68.572C275.887 68.692 275.881 68.806 275.869 68.914H267.859V67.42H274.681L273.799 67.888C273.811 67.336 273.697 66.85 273.457 66.43C273.217 66.01 272.887 65.68 272.467 65.44C272.059 65.2 271.585 65.08 271.045 65.08C270.493 65.08 270.007 65.2 269.587 65.44C269.179 65.68 268.855 66.016 268.615 66.448C268.387 66.868 268.273 67.366 268.273 67.942V68.302C268.273 68.878 268.405 69.388 268.669 69.832C268.933 70.276 269.305 70.618 269.785 70.858C270.265 71.098 270.817 71.218 271.441 71.218C271.981 71.218 272.467 71.134 272.899 70.966C273.331 70.798 273.715 70.534 274.051 70.174L275.257 71.56C274.825 72.064 274.279 72.454 273.619 72.73C272.971 72.994 272.227 73.126 271.387 73.126ZM278.066 73V63.388H280.208V66.034L279.956 65.26C280.244 64.612 280.694 64.12 281.306 63.784C281.93 63.448 282.704 63.28 283.628 63.28V65.422C283.532 65.398 283.442 65.386 283.358 65.386C283.274 65.374 283.19 65.368 283.106 65.368C282.254 65.368 281.576 65.62 281.072 66.124C280.568 66.616 280.316 67.354 280.316 68.338V73H278.066ZM297.669 63.28C298.437 63.28 299.115 63.43 299.703 63.73C300.303 64.03 300.771 64.492 301.107 65.116C301.443 65.728 301.611 66.52 301.611 67.492V73H299.361V67.78C299.361 66.928 299.175 66.292 298.803 65.872C298.431 65.452 297.897 65.242 297.201 65.242C296.709 65.242 296.271 65.35 295.887 65.566C295.515 65.782 295.221 66.1 295.005 66.52C294.801 66.94 294.699 67.474 294.699 68.122V73H292.449V67.78C292.449 66.928 292.263 66.292 291.891 65.872C291.519 65.452 290.985 65.242 290.289 65.242C289.797 65.242 289.359 65.35 288.975 65.566C288.603 65.782 288.309 66.1 288.093 66.52C287.889 66.94 287.787 67.474 287.787 68.122V73H285.537V63.388H287.679V65.944L287.301 65.188C287.625 64.564 288.093 64.09 288.705 63.766C289.329 63.442 290.037 63.28 290.829 63.28C291.729 63.28 292.509 63.502 293.169 63.946C293.841 64.39 294.285 65.062 294.501 65.962L293.619 65.656C293.931 64.936 294.447 64.36 295.167 63.928C295.887 63.496 296.721 63.28 297.669 63.28ZM309.021 73.126C307.953 73.126 307.017 72.916 306.213 72.496C305.421 72.064 304.803 71.476 304.359 70.732C303.927 69.988 303.711 69.142 303.711 68.194C303.711 67.234 303.921 66.388 304.341 65.656C304.773 64.912 305.361 64.33 306.105 63.91C306.861 63.49 307.719 63.28 308.679 63.28C309.615 63.28 310.449 63.484 311.181 63.892C311.913 64.3 312.489 64.876 312.909 65.62C313.329 66.364 313.539 67.24 313.539 68.248C313.539 68.344 313.533 68.452 313.521 68.572C313.521 68.692 313.515 68.806 313.503 68.914H305.493V67.42H312.315L311.433 67.888C311.445 67.336 311.331 66.85 311.091 66.43C310.851 66.01 310.521 65.68 310.101 65.44C309.693 65.2 309.219 65.08 308.679 65.08C308.127 65.08 307.641 65.2 307.221 65.44C306.813 65.68 306.489 66.016 306.249 66.448C306.021 66.868 305.907 67.366 305.907 67.942V68.302C305.907 68.878 306.039 69.388 306.303 69.832C306.567 70.276 306.939 70.618 307.419 70.858C307.899 71.098 308.451 71.218 309.075 71.218C309.615 71.218 310.101 71.134 310.533 70.966C310.965 70.798 311.349 70.534 311.685 70.174L312.891 71.56C312.459 72.064 311.913 72.454 311.253 72.73C310.605 72.994 309.861 73.126 309.021 73.126ZM326.597 73V71.056L326.471 70.642V67.24C326.471 66.58 326.273 66.07 325.877 65.71C325.481 65.338 324.881 65.152 324.077 65.152C323.537 65.152 323.003 65.236 322.475 65.404C321.959 65.572 321.521 65.806 321.161 66.106L320.279 64.468C320.795 64.072 321.407 63.778 322.115 63.586C322.835 63.382 323.579 63.28 324.347 63.28C325.739 63.28 326.813 63.616 327.569 64.288C328.337 64.948 328.721 65.974 328.721 67.366V73H326.597ZM323.573 73.126C322.853 73.126 322.223 73.006 321.683 72.766C321.143 72.514 320.723 72.172 320.423 71.74C320.135 71.296 319.991 70.798 319.991 70.246C319.991 69.706 320.117 69.22 320.369 68.788C320.633 68.356 321.059 68.014 321.647 67.762C322.235 67.51 323.015 67.384 323.987 67.384H326.777V68.878H324.149C323.381 68.878 322.865 69.004 322.601 69.256C322.337 69.496 322.205 69.796 322.205 70.156C322.205 70.564 322.367 70.888 322.691 71.128C323.015 71.368 323.465 71.488 324.041 71.488C324.593 71.488 325.085 71.362 325.517 71.11C325.961 70.858 326.279 70.486 326.471 69.994L326.849 71.344C326.633 71.908 326.243 72.346 325.679 72.658C325.127 72.97 324.425 73.126 323.573 73.126ZM324.113 62.074L320.981 59.608H323.627L326.057 62.074H324.113ZM340.993 73.126C339.985 73.126 339.085 72.916 338.293 72.496C337.513 72.064 336.901 71.476 336.457 70.732C336.013 69.988 335.791 69.142 335.791 68.194C335.791 67.234 336.013 66.388 336.457 65.656C336.901 64.912 337.513 64.33 338.293 63.91C339.085 63.49 339.985 63.28 340.993 63.28C341.929 63.28 342.751 63.472 343.459 63.856C344.179 64.228 344.725 64.78 345.097 65.512L343.369 66.52C343.081 66.064 342.727 65.728 342.307 65.512C341.899 65.296 341.455 65.188 340.975 65.188C340.423 65.188 339.925 65.308 339.481 65.548C339.037 65.788 338.689 66.136 338.437 66.592C338.185 67.036 338.059 67.57 338.059 68.194C338.059 68.818 338.185 69.358 338.437 69.814C338.689 70.258 339.037 70.6 339.481 70.84C339.925 71.08 340.423 71.2 340.975 71.2C341.455 71.2 341.899 71.092 342.307 70.876C342.727 70.66 343.081 70.324 343.369 69.868L345.097 70.876C344.725 71.596 344.179 72.154 343.459 72.55C342.751 72.934 341.929 73.126 340.993 73.126ZM351.42 73.126C350.352 73.126 349.416 72.916 348.612 72.496C347.82 72.064 347.202 71.476 346.758 70.732C346.326 69.988 346.11 69.142 346.11 68.194C346.11 67.234 346.32 66.388 346.74 65.656C347.172 64.912 347.76 64.33 348.504 63.91C349.26 63.49 350.118 63.28 351.078 63.28C352.014 63.28 352.848 63.484 353.58 63.892C354.312 64.3 354.888 64.876 355.308 65.62C355.728 66.364 355.938 67.24 355.938 68.248C355.938 68.344 355.932 68.452 355.92 68.572C355.92 68.692 355.914 68.806 355.902 68.914H347.892V67.42H354.714L353.832 67.888C353.844 67.336 353.73 66.85 353.49 66.43C353.25 66.01 352.92 65.68 352.5 65.44C352.092 65.2 351.618 65.08 351.078 65.08C350.526 65.08 350.04 65.2 349.62 65.44C349.212 65.68 348.888 66.016 348.648 66.448C348.42 66.868 348.306 67.366 348.306 67.942V68.302C348.306 68.878 348.438 69.388 348.702 69.832C348.966 70.276 349.338 70.618 349.818 70.858C350.298 71.098 350.85 71.218 351.474 71.218C352.014 71.218 352.5 71.134 352.932 70.966C353.364 70.798 353.748 70.534 354.084 70.174L355.29 71.56C354.858 72.064 354.312 72.454 353.652 72.73C353.004 72.994 352.26 73.126 351.42 73.126ZM368.402 73.126C367.622 73.126 366.908 72.946 366.26 72.586C365.624 72.226 365.114 71.686 364.73 70.966C364.358 70.234 364.172 69.31 364.172 68.194C364.172 67.066 364.352 66.142 364.712 65.422C365.084 64.702 365.588 64.168 366.224 63.82C366.86 63.46 367.586 63.28 368.402 63.28C369.35 63.28 370.184 63.484 370.904 63.892C371.636 64.3 372.212 64.87 372.632 65.602C373.064 66.334 373.28 67.198 373.28 68.194C373.28 69.19 373.064 70.06 372.632 70.804C372.212 71.536 371.636 72.106 370.904 72.514C370.184 72.922 369.35 73.126 368.402 73.126ZM363.074 76.492V63.388H365.216V65.656L365.144 68.212L365.324 70.768V76.492H363.074ZM368.15 71.2C368.69 71.2 369.17 71.08 369.59 70.84C370.022 70.6 370.364 70.252 370.616 69.796C370.868 69.34 370.994 68.806 370.994 68.194C370.994 67.57 370.868 67.036 370.616 66.592C370.364 66.136 370.022 65.788 369.59 65.548C369.17 65.308 368.69 65.188 368.15 65.188C367.61 65.188 367.124 65.308 366.692 65.548C366.26 65.788 365.918 66.136 365.666 66.592C365.414 67.036 365.288 67.57 365.288 68.194C365.288 68.806 365.414 69.34 365.666 69.796C365.918 70.252 366.26 70.6 366.692 70.84C367.124 71.08 367.61 71.2 368.15 71.2ZM375.414 73V63.388H377.556V66.034L377.304 65.26C377.592 64.612 378.042 64.12 378.654 63.784C379.278 63.448 380.052 63.28 380.976 63.28V65.422C380.88 65.398 380.79 65.386 380.706 65.386C380.622 65.374 380.538 65.368 380.454 65.368C379.602 65.368 378.924 65.62 378.42 66.124C377.916 66.616 377.664 67.354 377.664 68.338V73H375.414ZM382.884 73V63.388H385.134V73H382.884ZM384.018 61.804C383.598 61.804 383.25 61.672 382.974 61.408C382.71 61.144 382.578 60.826 382.578 60.454C382.578 60.07 382.71 59.752 382.974 59.5C383.25 59.236 383.598 59.104 384.018 59.104C384.438 59.104 384.78 59.23 385.044 59.482C385.32 59.722 385.458 60.028 385.458 60.4C385.458 60.796 385.326 61.132 385.062 61.408C384.798 61.672 384.45 61.804 384.018 61.804ZM386.773 73L391.003 67.492L390.967 68.698L386.935 63.388H389.437L392.263 67.168H391.309L394.153 63.388H396.583L392.515 68.698L392.533 67.492L396.745 73H394.207L391.237 68.986L392.173 69.112L389.257 73H386.773Z" fill="#214B33"/>
<path d="M175 21L902 21" stroke="#BC0051"/>
<path d="M1.692 21V8.4H6.876C7.992 8.4 8.946 8.58 9.738 8.94C10.542 9.3 11.16 9.816 11.592 10.488C12.024 11.16 12.24 11.958 12.24 12.882C12.24 13.806 12.024 14.604 11.592 15.276C11.16 15.948 10.542 16.464 9.738 16.824C8.946 17.184 7.992 17.364 6.876 17.364H2.988L4.032 16.266V21H1.692ZM4.032 16.518L2.988 15.384H6.768C7.8 15.384 8.574 15.168 9.09 14.736C9.618 14.292 9.882 13.674 9.882 12.882C9.882 12.078 9.618 11.46 9.09 11.028C8.574 10.596 7.8 10.38 6.768 10.38H2.988L4.032 9.228V16.518ZM14.2729 21V11.388H16.4149V14.034L16.1629 13.26C16.4509 12.612 16.9009 12.12 17.5129 11.784C18.1369 11.448 18.9109 11.28 19.8349 11.28V13.422C19.7389 13.398 19.6489 13.386 19.5649 13.386C19.4809 13.374 19.3969 13.368 19.3129 13.368C18.4609 13.368 17.7829 13.62 17.2789 14.124C16.7749 14.616 16.5229 15.354 16.5229 16.338V21H14.2729ZM21.7436 21V11.388H23.9936V21H21.7436ZM22.8776 9.804C22.4576 9.804 22.1096 9.672 21.8336 9.408C21.5696 9.144 21.4376 8.826 21.4376 8.454C21.4376 8.07 21.5696 7.752 21.8336 7.5C22.1096 7.236 22.4576 7.104 22.8776 7.104C23.2976 7.104 23.6396 7.23 23.9036 7.482C24.1796 7.722 24.3176 8.028 24.3176 8.4C24.3176 8.796 24.1856 9.132 23.9216 9.408C23.6576 9.672 23.3096 9.804 22.8776 9.804ZM25.6327 21L29.8627 15.492L29.8267 16.698L25.7947 11.388H28.2967L31.1227 15.168H30.1687L33.0127 11.388H35.4427L31.3747 16.698L31.3927 15.492L35.6047 21H33.0667L30.0967 16.986L31.0327 17.112L28.1167 21H25.6327ZM46.3077 21.126C45.3837 21.126 44.5497 20.922 43.8057 20.514C43.0737 20.094 42.4977 19.518 42.0777 18.786C41.6577 18.054 41.4477 17.19 41.4477 16.194C41.4477 15.198 41.6577 14.334 42.0777 13.602C42.4977 12.87 43.0737 12.3 43.8057 11.892C44.5497 11.484 45.3837 11.28 46.3077 11.28C47.1117 11.28 47.8317 11.46 48.4677 11.82C49.1037 12.168 49.6077 12.702 49.9797 13.422C50.3517 14.142 50.5377 15.066 50.5377 16.194C50.5377 17.31 50.3577 18.234 49.9977 18.966C49.6377 19.686 49.1397 20.226 48.5037 20.586C47.8677 20.946 47.1357 21.126 46.3077 21.126ZM46.5777 19.2C47.1177 19.2 47.5977 19.08 48.0177 18.84C48.4497 18.6 48.7917 18.252 49.0437 17.796C49.3077 17.34 49.4397 16.806 49.4397 16.194C49.4397 15.57 49.3077 15.036 49.0437 14.592C48.7917 14.136 48.4497 13.788 48.0177 13.548C47.5977 13.308 47.1177 13.188 46.5777 13.188C46.0377 13.188 45.5517 13.308 45.1197 13.548C44.6997 13.788 44.3577 14.136 44.0937 14.592C43.8417 15.036 43.7157 15.57 43.7157 16.194C43.7157 16.806 43.8417 17.34 44.0937 17.796C44.3577 18.252 44.6997 18.6 45.1197 18.84C45.5517 19.08 46.0377 19.2 46.5777 19.2ZM49.4937 21V18.732L49.5837 16.176L49.4037 13.62V7.644H51.6357V21H49.4937ZM59.1151 21.126C58.0471 21.126 57.1111 20.916 56.3071 20.496C55.5151 20.064 54.8971 19.476 54.4531 18.732C54.0211 17.988 53.8051 17.142 53.8051 16.194C53.8051 15.234 54.0151 14.388 54.4351 13.656C54.8671 12.912 55.4551 12.33 56.1991 11.91C56.9551 11.49 57.8131 11.28 58.7731 11.28C59.7091 11.28 60.5431 11.484 61.2751 11.892C62.0071 12.3 62.5831 12.876 63.0031 13.62C63.4231 14.364 63.6331 15.24 63.6331 16.248C63.6331 16.344 63.6271 16.452 63.6151 16.572C63.6151 16.692 63.6091 16.806 63.5971 16.914H55.5871V15.42H62.4091L61.5271 15.888C61.5391 15.336 61.4251 14.85 61.1851 14.43C60.9451 14.01 60.6151 13.68 60.1951 13.44C59.7871 13.2 59.3131 13.08 58.7731 13.08C58.2211 13.08 57.7351 13.2 57.3151 13.44C56.9071 13.68 56.5831 14.016 56.3431 14.448C56.1151 14.868 56.0011 15.366 56.0011 15.942V16.302C56.0011 16.878 56.1331 17.388 56.3971 17.832C56.6611 18.276 57.0331 18.618 57.5131 18.858C57.9931 19.098 58.5451 19.218 59.1691 19.218C59.7091 19.218 60.1951 19.134 60.6271 18.966C61.0591 18.798 61.4431 18.534 61.7791 18.174L62.9851 19.56C62.5531 20.064 62.0071 20.454 61.3471 20.73C60.6991 20.994 59.9551 21.126 59.1151 21.126ZM73.325 21L69.203 11.388H71.543L75.089 19.866H73.937L77.609 11.388H79.769L75.647 21H73.325ZM85.4295 21.126C84.3615 21.126 83.4255 20.916 82.6215 20.496C81.8295 20.064 81.2115 19.476 80.7675 18.732C80.3355 17.988 80.1195 17.142 80.1195 16.194C80.1195 15.234 80.3295 14.388 80.7495 13.656C81.1815 12.912 81.7695 12.33 82.5135 11.91C83.2695 11.49 84.1275 11.28 85.0875 11.28C86.0235 11.28 86.8575 11.484 87.5895 11.892C88.3215 12.3 88.8975 12.876 89.3175 13.62C89.7375 14.364 89.9475 15.24 89.9475 16.248C89.9475 16.344 89.9415 16.452 89.9295 16.572C89.9295 16.692 89.9235 16.806 89.9115 16.914H81.9015V15.42H88.7235L87.8415 15.888C87.8535 15.336 87.7395 14.85 87.4995 14.43C87.2595 14.01 86.9295 13.68 86.5095 13.44C86.1015 13.2 85.6275 13.08 85.0875 13.08C84.5355 13.08 84.0495 13.2 83.6295 13.44C83.2215 13.68 82.8975 14.016 82.6575 14.448C82.4295 14.868 82.3155 15.366 82.3155 15.942V16.302C82.3155 16.878 82.4475 17.388 82.7115 17.832C82.9755 18.276 83.3475 18.618 83.8275 18.858C84.3075 19.098 84.8595 19.218 85.4835 19.218C86.0235 19.218 86.5095 19.134 86.9415 18.966C87.3735 18.798 87.7575 18.534 88.0935 18.174L89.2995 19.56C88.8675 20.064 88.3215 20.454 87.6615 20.73C87.0135 20.994 86.2695 21.126 85.4295 21.126ZM97.5628 11.28C98.3308 11.28 99.0148 11.43 99.6148 11.73C100.227 12.03 100.707 12.492 101.055 13.116C101.403 13.728 101.577 14.52 101.577 15.492V21H99.3268V15.78C99.3268 14.928 99.1228 14.292 98.7148 13.872C98.3188 13.452 97.7608 13.242 97.0408 13.242C96.5128 13.242 96.0448 13.35 95.6368 13.566C95.2288 13.782 94.9108 14.106 94.6828 14.538C94.4668 14.958 94.3588 15.492 94.3588 16.14V21H92.1088V11.388H94.2508V13.98L93.8728 13.188C94.2088 12.576 94.6948 12.108 95.3308 11.784C95.9788 11.448 96.7228 11.28 97.5628 11.28ZM108.049 21.126C106.993 21.126 106.177 20.856 105.601 20.316C105.025 19.764 104.737 18.954 104.737 17.886V9.264H106.987V17.832C106.987 18.288 107.101 18.642 107.329 18.894C107.569 19.146 107.899 19.272 108.319 19.272C108.823 19.272 109.243 19.14 109.579 18.876L110.209 20.478C109.945 20.694 109.621 20.856 109.237 20.964C108.853 21.072 108.457 21.126 108.049 21.126ZM103.153 13.26V11.46H109.561V13.26H103.153ZM116.262 21.126C115.194 21.126 114.258 20.916 113.454 20.496C112.662 20.064 112.044 19.476 111.6 18.732C111.168 17.988 110.952 17.142 110.952 16.194C110.952 15.234 111.162 14.388 111.582 13.656C112.014 12.912 112.602 12.33 113.346 11.91C114.102 11.49 114.96 11.28 115.92 11.28C116.856 11.28 117.69 11.484 118.422 11.892C119.154 12.3 119.73 12.876 120.15 13.62C120.57 14.364 120.78 15.24 120.78 16.248C120.78 16.344 120.774 16.452 120.762 16.572C120.762 16.692 120.756 16.806 120.744 16.914H112.734V15.42H119.556L118.674 15.888C118.686 15.336 118.572 14.85 118.332 14.43C118.092 14.01 117.762 13.68 117.342 13.44C116.934 13.2 116.46 13.08 115.92 13.08C115.368 13.08 114.882 13.2 114.462 13.44C114.054 13.68 113.73 14.016 113.49 14.448C113.262 14.868 113.148 15.366 113.148 15.942V16.302C113.148 16.878 113.28 17.388 113.544 17.832C113.808 18.276 114.18 18.618 114.66 18.858C115.14 19.098 115.692 19.218 116.316 19.218C116.856 19.218 117.342 19.134 117.774 18.966C118.206 18.798 118.59 18.534 118.926 18.174L120.132 19.56C119.7 20.064 119.154 20.454 118.494 20.73C117.846 20.994 117.102 21.126 116.262 21.126ZM133.837 21V19.056L133.711 18.642V15.24C133.711 14.58 133.513 14.07 133.117 13.71C132.721 13.338 132.121 13.152 131.317 13.152C130.777 13.152 130.243 13.236 129.715 13.404C129.199 13.572 128.761 13.806 128.401 14.106L127.519 12.468C128.035 12.072 128.647 11.778 129.355 11.586C130.075 11.382 130.819 11.28 131.587 11.28C132.979 11.28 134.053 11.616 134.809 12.288C135.577 12.948 135.961 13.974 135.961 15.366V21H133.837ZM130.813 21.126C130.093 21.126 129.463 21.006 128.923 20.766C128.383 20.514 127.963 20.172 127.663 19.74C127.375 19.296 127.231 18.798 127.231 18.246C127.231 17.706 127.357 17.22 127.609 16.788C127.873 16.356 128.299 16.014 128.887 15.762C129.475 15.51 130.255 15.384 131.227 15.384H134.017V16.878H131.389C130.621 16.878 130.105 17.004 129.841 17.256C129.577 17.496 129.445 17.796 129.445 18.156C129.445 18.564 129.607 18.888 129.931 19.128C130.255 19.368 130.705 19.488 131.281 19.488C131.833 19.488 132.325 19.362 132.757 19.11C133.201 18.858 133.519 18.486 133.711 17.994L134.089 19.344C133.873 19.908 133.483 20.346 132.919 20.658C132.367 20.97 131.665 21.126 130.813 21.126ZM142.917 21.126C142.101 21.126 141.381 20.976 140.757 20.676C140.133 20.364 139.647 19.896 139.299 19.272C138.951 18.636 138.777 17.838 138.777 16.878V11.388H141.027V16.572C141.027 17.436 141.219 18.084 141.603 18.516C141.999 18.936 142.557 19.146 143.277 19.146C143.805 19.146 144.261 19.038 144.645 18.822C145.041 18.606 145.347 18.282 145.563 17.85C145.791 17.418 145.905 16.884 145.905 16.248V11.388H148.155V21H146.013V18.408L146.391 19.2C146.067 19.824 145.593 20.304 144.969 20.64C144.345 20.964 143.661 21.126 142.917 21.126ZM160.144 21.126C159.22 21.126 158.386 20.922 157.642 20.514C156.91 20.094 156.334 19.518 155.914 18.786C155.494 18.054 155.284 17.19 155.284 16.194C155.284 15.198 155.494 14.334 155.914 13.602C156.334 12.87 156.91 12.3 157.642 11.892C158.386 11.484 159.22 11.28 160.144 11.28C160.948 11.28 161.668 11.46 162.304 11.82C162.94 12.168 163.444 12.702 163.816 13.422C164.188 14.142 164.374 15.066 164.374 16.194C164.374 17.31 164.194 18.234 163.834 18.966C163.474 19.686 162.976 20.226 162.34 20.586C161.704 20.946 160.972 21.126 160.144 21.126ZM160.414 19.2C160.954 19.2 161.434 19.08 161.854 18.84C162.286 18.6 162.628 18.252 162.88 17.796C163.144 17.34 163.276 16.806 163.276 16.194C163.276 15.57 163.144 15.036 162.88 14.592C162.628 14.136 162.286 13.788 161.854 13.548C161.434 13.308 160.954 13.188 160.414 13.188C159.874 13.188 159.388 13.308 158.956 13.548C158.536 13.788 158.194 14.136 157.93 14.592C157.678 15.036 157.552 15.57 157.552 16.194C157.552 16.806 157.678 17.34 157.93 17.796C158.194 18.252 158.536 18.6 158.956 18.84C159.388 19.08 159.874 19.2 160.414 19.2ZM163.33 21V18.732L163.42 16.176L163.24 13.62V7.644H165.472V21H163.33ZM172.951 21.126C171.883 21.126 170.947 20.916 170.143 20.496C169.351 20.064 168.733 19.476 168.289 18.732C167.857 17.988 167.641 17.142 167.641 16.194C167.641 15.234 167.851 14.388 168.271 13.656C168.703 12.912 169.291 12.33 170.035 11.91C170.791 11.49 171.649 11.28 172.609 11.28C173.545 11.28 174.379 11.484 175.111 11.892C175.843 12.3 176.419 12.876 176.839 13.62C177.259 14.364 177.469 15.24 177.469 16.248C177.469 16.344 177.463 16.452 177.451 16.572C177.451 16.692 177.445 16.806 177.433 16.914H169.423V15.42H176.245L175.363 15.888C175.375 15.336 175.261 14.85 175.021 14.43C174.781 14.01 174.451 13.68 174.031 13.44C173.623 13.2 173.149 13.08 172.609 13.08C172.057 13.08 171.571 13.2 171.151 13.44C170.743 13.68 170.419 14.016 170.179 14.448C169.951 14.868 169.837 15.366 169.837 15.942V16.302C169.837 16.878 169.969 17.388 170.233 17.832C170.497 18.276 170.869 18.618 171.349 18.858C171.829 19.098 172.381 19.218 173.005 19.218C173.545 19.218 174.031 19.134 174.463 18.966C174.895 18.798 175.279 18.534 175.615 18.174L176.821 19.56C176.389 20.064 175.843 20.454 175.183 20.73C174.535 20.994 173.791 21.126 172.951 21.126ZM171.043 10.074L173.473 7.608H176.119L172.987 10.074H171.043ZM183.248 21.126C182.192 21.126 181.376 20.856 180.8 20.316C180.224 19.764 179.936 18.954 179.936 17.886V9.264H182.186V17.832C182.186 18.288 182.3 18.642 182.528 18.894C182.768 19.146 183.098 19.272 183.518 19.272C184.022 19.272 184.442 19.14 184.778 18.876L185.408 20.478C185.144 20.694 184.82 20.856 184.436 20.964C184.052 21.072 183.656 21.126 183.248 21.126ZM178.352 13.26V11.46H184.76V13.26H178.352ZM193.181 21V19.056L193.055 18.642V15.24C193.055 14.58 192.857 14.07 192.461 13.71C192.065 13.338 191.465 13.152 190.661 13.152C190.121 13.152 189.587 13.236 189.059 13.404C188.543 13.572 188.105 13.806 187.745 14.106L186.863 12.468C187.379 12.072 187.991 11.778 188.699 11.586C189.419 11.382 190.163 11.28 190.931 11.28C192.323 11.28 193.397 11.616 194.153 12.288C194.921 12.948 195.305 13.974 195.305 15.366V21H193.181ZM190.157 21.126C189.437 21.126 188.807 21.006 188.267 20.766C187.727 20.514 187.307 20.172 187.007 19.74C186.719 19.296 186.575 18.798 186.575 18.246C186.575 17.706 186.701 17.22 186.953 16.788C187.217 16.356 187.643 16.014 188.231 15.762C188.819 15.51 189.599 15.384 190.571 15.384H193.361V16.878H190.733C189.965 16.878 189.449 17.004 189.185 17.256C188.921 17.496 188.789 17.796 188.789 18.156C188.789 18.564 188.951 18.888 189.275 19.128C189.599 19.368 190.049 19.488 190.625 19.488C191.177 19.488 191.669 19.362 192.101 19.11C192.545 18.858 192.863 18.486 193.055 17.994L193.433 19.344C193.217 19.908 192.827 20.346 192.263 20.658C191.711 20.97 191.009 21.126 190.157 21.126ZM198.193 21V11.388H200.443V21H198.193ZM199.327 9.804C198.907 9.804 198.559 9.672 198.283 9.408C198.019 9.144 197.887 8.826 197.887 8.454C197.887 8.07 198.019 7.752 198.283 7.5C198.559 7.236 198.907 7.104 199.327 7.104C199.747 7.104 200.089 7.23 200.353 7.482C200.629 7.722 200.767 8.028 200.767 8.4C200.767 8.796 200.635 9.132 200.371 9.408C200.107 9.672 199.759 9.804 199.327 9.804ZM203.396 21V7.644H205.646V21H203.396Z" fill="#BC0051"/>
<path d="M350 158L1 158" stroke="#A2C33D"/>
<path d="M10.632 150L0.84 127.6H5.352L14.088 147.856H11.496L20.328 127.6H24.488L14.728 150H10.632ZM32.8665 150.224C31.1172 150.224 29.5598 149.851 28.1945 149.104C26.8292 148.336 25.7518 147.291 24.9625 145.968C24.1732 144.645 23.7785 143.141 23.7785 141.456C23.7785 139.749 24.1732 138.245 24.9625 136.944C25.7518 135.621 26.8292 134.587 28.1945 133.84C29.5598 133.093 31.1172 132.72 32.8665 132.72C34.6372 132.72 36.2052 133.093 37.5705 133.84C38.9572 134.587 40.0345 135.611 40.8025 136.912C41.5918 138.213 41.9865 139.728 41.9865 141.456C41.9865 143.141 41.5918 144.645 40.8025 145.968C40.0345 147.291 38.9572 148.336 37.5705 149.104C36.2052 149.851 34.6372 150.224 32.8665 150.224ZM32.8665 146.8C33.8478 146.8 34.7225 146.587 35.4905 146.16C36.2585 145.733 36.8558 145.115 37.2825 144.304C37.7305 143.493 37.9545 142.544 37.9545 141.456C37.9545 140.347 37.7305 139.397 37.2825 138.608C36.8558 137.797 36.2585 137.179 35.4905 136.752C34.7225 136.325 33.8585 136.112 32.8985 136.112C31.9172 136.112 31.0425 136.325 30.2745 136.752C29.5278 137.179 28.9305 137.797 28.4825 138.608C28.0345 139.397 27.8105 140.347 27.8105 141.456C27.8105 142.544 28.0345 143.493 28.4825 144.304C28.9305 145.115 29.5278 145.733 30.2745 146.16C31.0425 146.587 31.9065 146.8 32.8665 146.8ZM52.2435 150.224C50.3662 150.224 48.9155 149.744 47.8915 148.784C46.8675 147.803 46.3555 146.363 46.3555 144.464V129.136H50.3555V144.368C50.3555 145.179 50.5582 145.808 50.9635 146.256C51.3902 146.704 51.9768 146.928 52.7235 146.928C53.6195 146.928 54.3662 146.693 54.9635 146.224L56.0835 149.072C55.6142 149.456 55.0382 149.744 54.3555 149.936C53.6728 150.128 52.9688 150.224 52.2435 150.224ZM43.5395 136.24V133.04H54.9315V136.24H43.5395ZM59.374 150V132.912H63.182V137.616L62.734 136.24C63.246 135.088 64.046 134.213 65.134 133.616C66.2433 133.019 67.6193 132.72 69.262 132.72V136.528C69.0913 136.485 68.9313 136.464 68.782 136.464C68.6327 136.443 68.4833 136.432 68.334 136.432C66.8193 136.432 65.614 136.88 64.718 137.776C63.822 138.651 63.374 139.963 63.374 141.712V150H59.374ZM80.531 150.224C78.6323 150.224 76.9683 149.851 75.539 149.104C74.131 148.336 73.0323 147.291 72.243 145.968C71.475 144.645 71.091 143.141 71.091 141.456C71.091 139.749 71.4643 138.245 72.211 136.944C72.979 135.621 74.0243 134.587 75.347 133.84C76.691 133.093 78.2163 132.72 79.923 132.72C81.587 132.72 83.0697 133.083 84.371 133.808C85.6723 134.533 86.6963 135.557 87.443 136.88C88.1897 138.203 88.563 139.76 88.563 141.552C88.563 141.723 88.5523 141.915 88.531 142.128C88.531 142.341 88.5203 142.544 88.499 142.736H74.259V140.08H86.387L84.819 140.912C84.8403 139.931 84.6377 139.067 84.211 138.32C83.7843 137.573 83.1977 136.987 82.451 136.56C81.7257 136.133 80.883 135.92 79.923 135.92C78.9417 135.92 78.0777 136.133 77.331 136.56C76.6057 136.987 76.0297 137.584 75.603 138.352C75.1977 139.099 74.995 139.984 74.995 141.008V141.648C74.995 142.672 75.2297 143.579 75.699 144.368C76.1683 145.157 76.8297 145.765 77.683 146.192C78.5363 146.619 79.5177 146.832 80.627 146.832C81.587 146.832 82.451 146.683 83.219 146.384C83.987 146.085 84.6697 145.616 85.267 144.976L87.411 147.44C86.643 148.336 85.6723 149.029 84.499 149.52C83.347 149.989 82.0243 150.224 80.531 150.224ZM111.777 150V146.544L111.553 145.808V139.76C111.553 138.587 111.201 137.68 110.497 137.04C109.793 136.379 108.726 136.048 107.297 136.048C106.337 136.048 105.388 136.197 104.449 136.496C103.532 136.795 102.753 137.211 102.113 137.744L100.545 134.832C101.462 134.128 102.55 133.605 103.809 133.264C105.089 132.901 106.412 132.72 107.777 132.72C110.252 132.72 112.161 133.317 113.505 134.512C114.87 135.685 115.553 137.509 115.553 139.984V150H111.777ZM106.401 150.224C105.121 150.224 104.001 150.011 103.041 149.584C102.081 149.136 101.334 148.528 100.801 147.76C100.289 146.971 100.033 146.085 100.033 145.104C100.033 144.144 100.257 143.28 100.705 142.512C101.174 141.744 101.932 141.136 102.977 140.688C104.022 140.24 105.409 140.016 107.137 140.016H112.097V142.672H107.425C106.06 142.672 105.142 142.896 104.673 143.344C104.204 143.771 103.969 144.304 103.969 144.944C103.969 145.669 104.257 146.245 104.833 146.672C105.409 147.099 106.209 147.312 107.233 147.312C108.214 147.312 109.089 147.088 109.857 146.64C110.646 146.192 111.212 145.531 111.553 144.656L112.225 147.056C111.841 148.059 111.148 148.837 110.145 149.392C109.164 149.947 107.916 150.224 106.401 150.224ZM124.918 150L117.59 132.912H121.75L128.054 147.984H126.006L132.534 132.912H136.374L129.046 150H124.918ZM148.871 150V146.544L148.647 145.808V139.76C148.647 138.587 148.295 137.68 147.591 137.04C146.887 136.379 145.82 136.048 144.391 136.048C143.431 136.048 142.481 136.197 141.543 136.496C140.625 136.795 139.847 137.211 139.207 137.744L137.639 134.832C138.556 134.128 139.644 133.605 140.903 133.264C142.183 132.901 143.505 132.72 144.871 132.72C147.345 132.72 149.255 133.317 150.599 134.512C151.964 135.685 152.647 137.509 152.647 139.984V150H148.871ZM143.495 150.224C142.215 150.224 141.095 150.011 140.135 149.584C139.175 149.136 138.428 148.528 137.895 147.76C137.383 146.971 137.127 146.085 137.127 145.104C137.127 144.144 137.351 143.28 137.799 142.512C138.268 141.744 139.025 141.136 140.071 140.688C141.116 140.24 142.503 140.016 144.231 140.016H149.191V142.672H144.519C143.153 142.672 142.236 142.896 141.767 143.344C141.297 143.771 141.063 144.304 141.063 144.944C141.063 145.669 141.351 146.245 141.927 146.672C142.503 147.099 143.303 147.312 144.327 147.312C145.308 147.312 146.183 147.088 146.951 146.64C147.74 146.192 148.305 145.531 148.647 144.656L149.319 147.056C148.935 148.059 148.241 148.837 147.239 149.392C146.257 149.947 145.009 150.224 143.495 150.224ZM167.476 132.72C168.842 132.72 170.058 132.987 171.124 133.52C172.212 134.053 173.066 134.875 173.684 135.984C174.303 137.072 174.612 138.48 174.612 140.208V150H170.612V140.72C170.612 139.205 170.25 138.075 169.524 137.328C168.82 136.581 167.828 136.208 166.548 136.208C165.61 136.208 164.778 136.4 164.052 136.784C163.327 137.168 162.762 137.744 162.356 138.512C161.972 139.259 161.78 140.208 161.78 141.36V150H157.78V132.912H161.588V137.52L160.916 136.112C161.514 135.024 162.378 134.192 163.508 133.616C164.66 133.019 165.983 132.72 167.476 132.72ZM186.119 150.224C184.241 150.224 182.791 149.744 181.766 148.784C180.743 147.803 180.231 146.363 180.231 144.464V129.136H184.231V144.368C184.231 145.179 184.433 145.808 184.839 146.256C185.265 146.704 185.852 146.928 186.599 146.928C187.495 146.928 188.241 146.693 188.839 146.224L189.959 149.072C189.489 149.456 188.913 149.744 188.231 149.936C187.548 150.128 186.844 150.224 186.119 150.224ZM177.415 136.24V133.04H188.807V136.24H177.415ZM203.777 150V146.544L203.553 145.808V139.76C203.553 138.587 203.201 137.68 202.497 137.04C201.793 136.379 200.726 136.048 199.297 136.048C198.337 136.048 197.388 136.197 196.449 136.496C195.532 136.795 194.753 137.211 194.113 137.744L192.545 134.832C193.462 134.128 194.55 133.605 195.809 133.264C197.089 132.901 198.412 132.72 199.777 132.72C202.252 132.72 204.161 133.317 205.505 134.512C206.87 135.685 207.553 137.509 207.553 139.984V150H203.777ZM198.401 150.224C197.121 150.224 196.001 150.011 195.041 149.584C194.081 149.136 193.334 148.528 192.801 147.76C192.289 146.971 192.033 146.085 192.033 145.104C192.033 144.144 192.257 143.28 192.705 142.512C193.174 141.744 193.932 141.136 194.977 140.688C196.022 140.24 197.409 140.016 199.137 140.016H204.097V142.672H199.425C198.06 142.672 197.142 142.896 196.673 143.344C196.204 143.771 195.969 144.304 195.969 144.944C195.969 145.669 196.257 146.245 196.833 146.672C197.409 147.099 198.209 147.312 199.233 147.312C200.214 147.312 201.089 147.088 201.857 146.64C202.646 146.192 203.212 145.531 203.553 144.656L204.225 147.056C203.841 148.059 203.148 148.837 202.145 149.392C201.164 149.947 199.916 150.224 198.401 150.224ZM220.462 156.432C218.883 156.432 217.336 156.219 215.822 155.792C214.328 155.387 213.102 154.789 212.142 154L213.934 150.992C214.68 151.611 215.619 152.101 216.75 152.464C217.902 152.848 219.064 153.04 220.238 153.04C222.115 153.04 223.491 152.603 224.366 151.728C225.24 150.875 225.678 149.584 225.678 147.856V144.816L225.998 140.944L225.87 137.072V132.912H229.678V147.408C229.678 150.501 228.888 152.773 227.31 154.224C225.731 155.696 223.448 156.432 220.462 156.432ZM219.95 149.232C218.328 149.232 216.856 148.891 215.534 148.208C214.232 147.504 213.198 146.533 212.43 145.296C211.683 144.059 211.31 142.608 211.31 140.944C211.31 139.301 211.683 137.861 212.43 136.624C213.198 135.387 214.232 134.427 215.534 133.744C216.856 133.061 218.328 132.72 219.95 132.72C221.4 132.72 222.702 133.008 223.854 133.584C225.006 134.16 225.923 135.056 226.606 136.272C227.31 137.488 227.662 139.045 227.662 140.944C227.662 142.843 227.31 144.411 226.606 145.648C225.923 146.864 225.006 147.771 223.854 148.368C222.702 148.944 221.4 149.232 219.95 149.232ZM220.558 145.84C221.56 145.84 222.456 145.637 223.246 145.232C224.035 144.805 224.643 144.229 225.07 143.504C225.518 142.757 225.742 141.904 225.742 140.944C225.742 139.984 225.518 139.141 225.07 138.416C224.643 137.669 224.035 137.104 223.246 136.72C222.456 136.315 221.56 136.112 220.558 136.112C219.555 136.112 218.648 136.315 217.838 136.72C217.048 137.104 216.43 137.669 215.982 138.416C215.555 139.141 215.342 139.984 215.342 140.944C215.342 141.904 215.555 142.757 215.982 143.504C216.43 144.229 217.048 144.805 217.838 145.232C218.648 145.637 219.555 145.84 220.558 145.84ZM242.969 150.224C241.07 150.224 239.406 149.851 237.977 149.104C236.569 148.336 235.47 147.291 234.681 145.968C233.913 144.645 233.529 143.141 233.529 141.456C233.529 139.749 233.902 138.245 234.649 136.944C235.417 135.621 236.462 134.587 237.785 133.84C239.129 133.093 240.654 132.72 242.361 132.72C244.025 132.72 245.507 133.083 246.809 133.808C248.11 134.533 249.134 135.557 249.881 136.88C250.627 138.203 251.001 139.76 251.001 141.552C251.001 141.723 250.99 141.915 250.969 142.128C250.969 142.341 250.958 142.544 250.937 142.736H236.697V140.08H248.825L247.257 140.912C247.278 139.931 247.075 139.067 246.649 138.32C246.222 137.573 245.635 136.987 244.889 136.56C244.163 136.133 243.321 135.92 242.361 135.92C241.379 135.92 240.515 136.133 239.769 136.56C239.043 136.987 238.467 137.584 238.041 138.352C237.635 139.099 237.433 139.984 237.433 141.008V141.648C237.433 142.672 237.667 143.579 238.137 144.368C238.606 145.157 239.267 145.765 240.121 146.192C240.974 146.619 241.955 146.832 243.065 146.832C244.025 146.832 244.889 146.683 245.657 146.384C246.425 146.085 247.107 145.616 247.705 144.976L249.849 147.44C249.081 148.336 248.11 149.029 246.937 149.52C245.785 149.989 244.462 150.224 242.969 150.224Z" fill="#A2C33D"/>
<path d="M343.436 361V351.62L343.884 352.096H341.126V351.2H344.444V361H343.436ZM350.567 361.07C349.801 361.07 349.129 360.911 348.551 360.594C347.972 360.267 347.519 359.824 347.193 359.264C346.866 358.695 346.703 358.046 346.703 357.318C346.703 356.59 346.857 355.946 347.165 355.386C347.482 354.826 347.911 354.387 348.453 354.07C349.003 353.743 349.619 353.58 350.301 353.58C350.991 353.58 351.603 353.739 352.135 354.056C352.676 354.364 353.101 354.803 353.409 355.372C353.717 355.932 353.871 356.581 353.871 357.318C353.871 357.365 353.866 357.416 353.857 357.472C353.857 357.519 353.857 357.57 353.857 357.626H347.459V356.884H353.325L352.933 357.178C352.933 356.646 352.816 356.175 352.583 355.764C352.359 355.344 352.051 355.017 351.659 354.784C351.267 354.551 350.814 354.434 350.301 354.434C349.797 354.434 349.344 354.551 348.943 354.784C348.541 355.017 348.229 355.344 348.005 355.764C347.781 356.184 347.669 356.665 347.669 357.206V357.36C347.669 357.92 347.79 358.415 348.033 358.844C348.285 359.264 348.63 359.595 349.069 359.838C349.517 360.071 350.025 360.188 350.595 360.188C351.043 360.188 351.458 360.109 351.841 359.95C352.233 359.791 352.569 359.549 352.849 359.222L353.409 359.866C353.082 360.258 352.671 360.557 352.177 360.762C351.691 360.967 351.155 361.07 350.567 361.07ZM355.894 361V353.65H356.846V355.652L356.748 355.302C356.953 354.742 357.298 354.317 357.784 354.028C358.269 353.729 358.871 353.58 359.59 353.58V354.546C359.552 354.546 359.515 354.546 359.478 354.546C359.44 354.537 359.403 354.532 359.366 354.532C358.591 354.532 357.984 354.77 357.546 355.246C357.107 355.713 356.888 356.38 356.888 357.248V361H355.894ZM369.783 361V359.376L369.741 359.11V356.394C369.741 355.769 369.564 355.288 369.209 354.952C368.864 354.616 368.346 354.448 367.655 354.448C367.179 354.448 366.726 354.527 366.297 354.686C365.868 354.845 365.504 355.055 365.205 355.316L364.757 354.574C365.13 354.257 365.578 354.014 366.101 353.846C366.624 353.669 367.174 353.58 367.753 353.58C368.705 353.58 369.438 353.818 369.951 354.294C370.474 354.761 370.735 355.475 370.735 356.436V361H369.783ZM367.249 361.07C366.698 361.07 366.218 360.981 365.807 360.804C365.406 360.617 365.098 360.365 364.883 360.048C364.668 359.721 364.561 359.348 364.561 358.928C364.561 358.545 364.65 358.2 364.827 357.892C365.014 357.575 365.312 357.323 365.723 357.136C366.143 356.94 366.703 356.842 367.403 356.842H369.937V357.584H367.431C366.722 357.584 366.227 357.71 365.947 357.962C365.676 358.214 365.541 358.527 365.541 358.9C365.541 359.32 365.704 359.656 366.031 359.908C366.358 360.16 366.815 360.286 367.403 360.286C367.963 360.286 368.444 360.16 368.845 359.908C369.256 359.647 369.554 359.273 369.741 358.788L369.965 359.474C369.778 359.959 369.452 360.347 368.985 360.636C368.528 360.925 367.949 361.07 367.249 361.07ZM375.188 361L371.926 353.65H372.962L375.958 360.468H375.468L378.506 353.65H379.486L376.21 361H375.188ZM380.886 361V353.65H381.838V355.652L381.74 355.302C381.945 354.742 382.291 354.317 382.776 354.028C383.261 353.729 383.863 353.58 384.582 353.58V354.546C384.545 354.546 384.507 354.546 384.47 354.546C384.433 354.537 384.395 354.532 384.358 354.532C383.583 354.532 382.977 354.77 382.538 355.246C382.099 355.713 381.88 356.38 381.88 357.248V361H380.886ZM386.396 361V353.65H387.39V361H386.396ZM386.9 352.026C386.694 352.026 386.522 351.956 386.382 351.816C386.242 351.676 386.172 351.508 386.172 351.312C386.172 351.116 386.242 350.953 386.382 350.822C386.522 350.682 386.694 350.612 386.9 350.612C387.105 350.612 387.278 350.677 387.418 350.808C387.558 350.939 387.628 351.102 387.628 351.298C387.628 351.503 387.558 351.676 387.418 351.816C387.287 351.956 387.114 352.026 386.9 352.026ZM390.156 361V350.612H391.15V361H390.156Z" fill="#313131"/>
<path d="M871.654 361.084C870.945 361.084 870.273 360.972 869.638 360.748C869.013 360.515 868.509 360.207 868.126 359.824L868.616 359.026C868.933 359.353 869.358 359.623 869.89 359.838C870.431 360.053 871.019 360.16 871.654 360.16C872.466 360.16 873.087 359.983 873.516 359.628C873.955 359.273 874.174 358.797 874.174 358.2C874.174 357.603 873.959 357.127 873.53 356.772C873.11 356.417 872.443 356.24 871.528 356.24H870.828V355.498L873.852 351.704L873.992 352.096H868.532V351.2H874.832V351.914L871.808 355.708L871.318 355.386H871.696C872.872 355.386 873.749 355.647 874.328 356.17C874.916 356.693 875.21 357.365 875.21 358.186C875.21 358.737 875.079 359.231 874.818 359.67C874.557 360.109 874.16 360.454 873.628 360.706C873.105 360.958 872.447 361.084 871.654 361.084ZM880.536 361.084C879.78 361.084 879.108 360.888 878.52 360.496C877.932 360.095 877.47 359.525 877.134 358.788C876.798 358.041 876.63 357.145 876.63 356.1C876.63 355.055 876.798 354.163 877.134 353.426C877.47 352.679 877.932 352.11 878.52 351.718C879.108 351.317 879.78 351.116 880.536 351.116C881.292 351.116 881.964 351.317 882.552 351.718C883.14 352.11 883.602 352.679 883.938 353.426C884.284 354.163 884.456 355.055 884.456 356.1C884.456 357.145 884.284 358.041 883.938 358.788C883.602 359.525 883.14 360.095 882.552 360.496C881.964 360.888 881.292 361.084 880.536 361.084ZM880.536 360.16C881.115 360.16 881.619 360.006 882.048 359.698C882.478 359.381 882.814 358.923 883.056 358.326C883.299 357.719 883.42 356.977 883.42 356.1C883.42 355.223 883.299 354.485 883.056 353.888C882.814 353.281 882.478 352.824 882.048 352.516C881.619 352.199 881.115 352.04 880.536 352.04C879.976 352.04 879.477 352.199 879.038 352.516C878.6 352.824 878.259 353.281 878.016 353.888C877.774 354.485 877.652 355.223 877.652 356.1C877.652 356.977 877.774 357.719 878.016 358.326C878.259 358.923 878.6 359.381 879.038 359.698C879.477 360.006 879.976 360.16 880.536 360.16ZM894.828 361V359.376L894.786 359.11V356.394C894.786 355.769 894.609 355.288 894.254 354.952C893.909 354.616 893.391 354.448 892.7 354.448C892.224 354.448 891.771 354.527 891.342 354.686C890.913 354.845 890.549 355.055 890.25 355.316L889.802 354.574C890.175 354.257 890.623 354.014 891.146 353.846C891.669 353.669 892.219 353.58 892.798 353.58C893.75 353.58 894.483 353.818 894.996 354.294C895.519 354.761 895.78 355.475 895.78 356.436V361H894.828ZM892.294 361.07C891.743 361.07 891.263 360.981 890.852 360.804C890.451 360.617 890.143 360.365 889.928 360.048C889.713 359.721 889.606 359.348 889.606 358.928C889.606 358.545 889.695 358.2 889.872 357.892C890.059 357.575 890.357 357.323 890.768 357.136C891.188 356.94 891.748 356.842 892.448 356.842H894.982V357.584H892.476C891.767 357.584 891.272 357.71 890.992 357.962C890.721 358.214 890.586 358.527 890.586 358.9C890.586 359.32 890.749 359.656 891.076 359.908C891.403 360.16 891.86 360.286 892.448 360.286C893.008 360.286 893.489 360.16 893.89 359.908C894.301 359.647 894.599 359.273 894.786 358.788L895.01 359.474C894.823 359.959 894.497 360.347 894.03 360.636C893.573 360.925 892.994 361.07 892.294 361.07ZM900.233 361L896.971 353.65H898.007L901.003 360.468H900.513L903.551 353.65H904.531L901.255 361H900.233ZM905.931 361V353.65H906.883V355.652L906.785 355.302C906.99 354.742 907.336 354.317 907.821 354.028C908.306 353.729 908.908 353.58 909.627 353.58V354.546C909.59 354.546 909.552 354.546 909.515 354.546C909.478 354.537 909.44 354.532 909.403 354.532C908.628 354.532 908.022 354.77 907.583 355.246C907.144 355.713 906.925 356.38 906.925 357.248V361H905.931ZM911.441 361V353.65H912.435V361H911.441ZM911.945 352.026C911.739 352.026 911.567 351.956 911.427 351.816C911.287 351.676 911.217 351.508 911.217 351.312C911.217 351.116 911.287 350.953 911.427 350.822C911.567 350.682 911.739 350.612 911.945 350.612C912.15 350.612 912.323 350.677 912.463 350.808C912.603 350.939 912.673 351.102 912.673 351.298C912.673 351.503 912.603 351.676 912.463 351.816C912.332 351.956 912.159 352.026 911.945 352.026ZM915.2 361V350.612H916.194V361H915.2Z" fill="#313131"/>
<path d="M592.436 361V351.62L592.884 352.096H590.126V351.2H593.444V361H592.436ZM598.881 361.084C598.181 361.084 597.513 360.972 596.879 360.748C596.244 360.515 595.74 360.207 595.367 359.824L595.857 359.026C596.165 359.353 596.585 359.623 597.117 359.838C597.658 360.053 598.241 360.16 598.867 360.16C599.697 360.16 600.327 359.978 600.757 359.614C601.195 359.241 601.415 358.755 601.415 358.158C601.415 357.738 601.312 357.379 601.107 357.08C600.911 356.772 600.575 356.534 600.099 356.366C599.623 356.198 598.969 356.114 598.139 356.114H596.053L596.557 351.2H601.919V352.096H596.963L597.481 351.606L597.047 355.722L596.529 355.218H598.363C599.352 355.218 600.145 355.339 600.743 355.582C601.34 355.825 601.769 356.165 602.031 356.604C602.301 357.033 602.437 357.537 602.437 358.116C602.437 358.667 602.306 359.171 602.045 359.628C601.783 360.076 601.391 360.431 600.869 360.692C600.346 360.953 599.683 361.084 598.881 361.084ZM612.644 361V359.376L612.602 359.11V356.394C612.602 355.769 612.425 355.288 612.07 354.952C611.725 354.616 611.207 354.448 610.516 354.448C610.04 354.448 609.588 354.527 609.158 354.686C608.729 354.845 608.365 355.055 608.066 355.316L607.618 354.574C607.992 354.257 608.44 354.014 608.962 353.846C609.485 353.669 610.036 353.58 610.614 353.58C611.566 353.58 612.299 353.818 612.812 354.294C613.335 354.761 613.596 355.475 613.596 356.436V361H612.644ZM610.11 361.07C609.56 361.07 609.079 360.981 608.668 360.804C608.267 360.617 607.959 360.365 607.744 360.048C607.53 359.721 607.422 359.348 607.422 358.928C607.422 358.545 607.511 358.2 607.688 357.892C607.875 357.575 608.174 357.323 608.584 357.136C609.004 356.94 609.564 356.842 610.264 356.842H612.798V357.584H610.292C609.583 357.584 609.088 357.71 608.808 357.962C608.538 358.214 608.402 358.527 608.402 358.9C608.402 359.32 608.566 359.656 608.892 359.908C609.219 360.16 609.676 360.286 610.264 360.286C610.824 360.286 611.305 360.16 611.706 359.908C612.117 359.647 612.416 359.273 612.602 358.788L612.826 359.474C612.64 359.959 612.313 360.347 611.846 360.636C611.389 360.925 610.81 361.07 610.11 361.07ZM618.049 361L614.787 353.65H615.823L618.819 360.468H618.329L621.367 353.65H622.347L619.071 361H618.049ZM623.747 361V353.65H624.699V355.652L624.601 355.302C624.807 354.742 625.152 354.317 625.637 354.028C626.123 353.729 626.725 353.58 627.443 353.58V354.546C627.406 354.546 627.369 354.546 627.331 354.546C627.294 354.537 627.257 354.532 627.219 354.532C626.445 354.532 625.838 354.77 625.399 355.246C624.961 355.713 624.741 356.38 624.741 357.248V361H623.747ZM629.257 361V353.65H630.251V361H629.257ZM629.761 352.026C629.556 352.026 629.383 351.956 629.243 351.816C629.103 351.676 629.033 351.508 629.033 351.312C629.033 351.116 629.103 350.953 629.243 350.822C629.383 350.682 629.556 350.612 629.761 350.612C629.966 350.612 630.139 350.677 630.279 350.808C630.419 350.939 630.489 351.102 630.489 351.298C630.489 351.503 630.419 351.676 630.279 351.816C630.148 351.956 629.976 352.026 629.761 352.026ZM633.017 361V350.612H634.011V361H633.017Z" fill="#313131"/>
</svg>
