<svg width="302" height="227" viewBox="0 0 302 227" fill="none" xmlns="http://www.w3.org/2000/svg">
<path d="M231.654 221.084C230.945 221.084 230.273 220.972 229.638 220.748C229.013 220.515 228.509 220.207 228.126 219.824L228.616 219.026C228.933 219.353 229.358 219.623 229.89 219.838C230.431 220.053 231.019 220.16 231.654 220.16C232.466 220.16 233.087 219.983 233.516 219.628C233.955 219.273 234.174 218.797 234.174 218.2C234.174 217.603 233.959 217.127 233.53 216.772C233.11 216.417 232.443 216.24 231.528 216.24H230.828V215.498L233.852 211.704L233.992 212.096H228.532V211.2H234.832V211.914L231.808 215.708L231.318 215.386H231.696C232.872 215.386 233.749 215.647 234.328 216.17C234.916 216.693 235.21 217.365 235.21 218.186C235.21 218.737 235.079 219.231 234.818 219.67C234.557 220.109 234.16 220.454 233.628 220.706C233.105 220.958 232.447 221.084 231.654 221.084ZM240.536 221.084C239.78 221.084 239.108 220.888 238.52 220.496C237.932 220.095 237.47 219.525 237.134 218.788C236.798 218.041 236.63 217.145 236.63 216.1C236.63 215.055 236.798 214.163 237.134 213.426C237.47 212.679 237.932 212.11 238.52 211.718C239.108 211.317 239.78 211.116 240.536 211.116C241.292 211.116 241.964 211.317 242.552 211.718C243.14 212.11 243.602 212.679 243.938 213.426C244.284 214.163 244.456 215.055 244.456 216.1C244.456 217.145 244.284 218.041 243.938 218.788C243.602 219.525 243.14 220.095 242.552 220.496C241.964 220.888 241.292 221.084 240.536 221.084ZM240.536 220.16C241.115 220.16 241.619 220.006 242.048 219.698C242.478 219.381 242.814 218.923 243.056 218.326C243.299 217.719 243.42 216.977 243.42 216.1C243.42 215.223 243.299 214.485 243.056 213.888C242.814 213.281 242.478 212.824 242.048 212.516C241.619 212.199 241.115 212.04 240.536 212.04C239.976 212.04 239.477 212.199 239.038 212.516C238.6 212.824 238.259 213.281 238.016 213.888C237.774 214.485 237.652 215.223 237.652 216.1C237.652 216.977 237.774 217.719 238.016 218.326C238.259 218.923 238.6 219.381 239.038 219.698C239.477 220.006 239.976 220.16 240.536 220.16ZM253.148 221.07C252.448 221.07 251.818 220.911 251.258 220.594C250.707 220.277 250.273 219.838 249.956 219.278C249.639 218.709 249.48 218.055 249.48 217.318C249.48 216.571 249.639 215.918 249.956 215.358C250.273 214.798 250.707 214.364 251.258 214.056C251.818 213.739 252.448 213.58 253.148 213.58C253.792 213.58 254.366 213.725 254.87 214.014C255.383 214.303 255.789 214.728 256.088 215.288C256.396 215.839 256.55 216.515 256.55 217.318C256.55 218.111 256.401 218.788 256.102 219.348C255.803 219.908 255.397 220.337 254.884 220.636C254.38 220.925 253.801 221.07 253.148 221.07ZM253.218 220.188C253.741 220.188 254.207 220.071 254.618 219.838C255.038 219.595 255.365 219.259 255.598 218.83C255.841 218.391 255.962 217.887 255.962 217.318C255.962 216.739 255.841 216.235 255.598 215.806C255.365 215.377 255.038 215.045 254.618 214.812C254.207 214.569 253.741 214.448 253.218 214.448C252.705 214.448 252.243 214.569 251.832 214.812C251.421 215.045 251.095 215.377 250.852 215.806C250.609 216.235 250.488 216.739 250.488 217.318C250.488 217.887 250.609 218.391 250.852 218.83C251.095 219.259 251.421 219.595 251.832 219.838C252.243 220.071 252.705 220.188 253.218 220.188ZM255.99 221V218.788L256.088 217.304L255.948 215.82V210.612H256.942V221H255.99ZM262.832 221.07C262.067 221.07 261.395 220.911 260.816 220.594C260.238 220.267 259.785 219.824 259.458 219.264C259.132 218.695 258.968 218.046 258.968 217.318C258.968 216.59 259.122 215.946 259.43 215.386C259.748 214.826 260.177 214.387 260.718 214.07C261.269 213.743 261.885 213.58 262.566 213.58C263.257 213.58 263.868 213.739 264.4 214.056C264.942 214.364 265.366 214.803 265.674 215.372C265.982 215.932 266.136 216.581 266.136 217.318C266.136 217.365 266.132 217.416 266.122 217.472C266.122 217.519 266.122 217.57 266.122 217.626H259.724V216.884H265.59L265.198 217.178C265.198 216.646 265.082 216.175 264.848 215.764C264.624 215.344 264.316 215.017 263.924 214.784C263.532 214.551 263.08 214.434 262.566 214.434C262.062 214.434 261.61 214.551 261.208 214.784C260.807 215.017 260.494 215.344 260.27 215.764C260.046 216.184 259.934 216.665 259.934 217.206V217.36C259.934 217.92 260.056 218.415 260.298 218.844C260.55 219.264 260.896 219.595 261.334 219.838C261.782 220.071 262.291 220.188 262.86 220.188C263.308 220.188 263.724 220.109 264.106 219.95C264.498 219.791 264.834 219.549 265.114 219.222L265.674 219.866C265.348 220.258 264.937 220.557 264.442 220.762C263.957 220.967 263.42 221.07 262.832 221.07ZM276.43 221V219.376L276.388 219.11V216.394C276.388 215.769 276.21 215.288 275.856 214.952C275.51 214.616 274.992 214.448 274.302 214.448C273.826 214.448 273.373 214.527 272.944 214.686C272.514 214.845 272.15 215.055 271.852 215.316L271.404 214.574C271.777 214.257 272.225 214.014 272.748 213.846C273.27 213.669 273.821 213.58 274.4 213.58C275.352 213.58 276.084 213.818 276.598 214.294C277.12 214.761 277.382 215.475 277.382 216.436V221H276.43ZM273.896 221.07C273.345 221.07 272.864 220.981 272.454 220.804C272.052 220.617 271.744 220.365 271.53 220.048C271.315 219.721 271.208 219.348 271.208 218.928C271.208 218.545 271.296 218.2 271.474 217.892C271.66 217.575 271.959 217.323 272.37 217.136C272.79 216.94 273.35 216.842 274.05 216.842H276.584V217.584H274.078C273.368 217.584 272.874 217.71 272.594 217.962C272.323 218.214 272.188 218.527 272.188 218.9C272.188 219.32 272.351 219.656 272.678 219.908C273.004 220.16 273.462 220.286 274.05 220.286C274.61 220.286 275.09 220.16 275.492 219.908C275.902 219.647 276.201 219.273 276.388 218.788L276.612 219.474C276.425 219.959 276.098 220.347 275.632 220.636C275.174 220.925 274.596 221.07 273.896 221.07ZM283.875 221.07C283.231 221.07 282.653 220.925 282.139 220.636C281.626 220.337 281.22 219.908 280.921 219.348C280.623 218.788 280.473 218.111 280.473 217.318C280.473 216.515 280.623 215.839 280.921 215.288C281.229 214.728 281.64 214.303 282.153 214.014C282.667 213.725 283.241 213.58 283.875 213.58C284.575 213.58 285.201 213.739 285.751 214.056C286.311 214.364 286.75 214.798 287.067 215.358C287.385 215.918 287.543 216.571 287.543 217.318C287.543 218.055 287.385 218.709 287.067 219.278C286.75 219.838 286.311 220.277 285.751 220.594C285.201 220.911 284.575 221.07 283.875 221.07ZM280.081 221V210.612H281.075V215.82L280.935 217.304L281.033 218.788V221H280.081ZM283.805 220.188C284.328 220.188 284.795 220.071 285.205 219.838C285.616 219.595 285.943 219.259 286.185 218.83C286.428 218.391 286.549 217.887 286.549 217.318C286.549 216.739 286.428 216.235 286.185 215.806C285.943 215.377 285.616 215.045 285.205 214.812C284.795 214.569 284.328 214.448 283.805 214.448C283.283 214.448 282.811 214.569 282.391 214.812C281.981 215.045 281.654 215.377 281.411 215.806C281.178 216.235 281.061 216.739 281.061 217.318C281.061 217.887 281.178 218.391 281.411 218.83C281.654 219.259 281.981 219.595 282.391 219.838C282.811 220.071 283.283 220.188 283.805 220.188ZM289.57 221V213.65H290.522V215.652L290.424 215.302C290.629 214.742 290.974 214.317 291.46 214.028C291.945 213.729 292.547 213.58 293.266 213.58V214.546C293.228 214.546 293.191 214.546 293.154 214.546C293.116 214.537 293.079 214.532 293.042 214.532C292.267 214.532 291.66 214.77 291.222 215.246C290.783 215.713 290.564 216.38 290.564 217.248V221H289.57ZM295.079 221V213.65H296.073V221H295.079ZM295.583 212.026C295.378 212.026 295.205 211.956 295.065 211.816C294.925 211.676 294.855 211.508 294.855 211.312C294.855 211.116 294.925 210.953 295.065 210.822C295.205 210.682 295.378 210.612 295.583 210.612C295.789 210.612 295.961 210.677 296.101 210.808C296.241 210.939 296.311 211.102 296.311 211.298C296.311 211.503 296.241 211.676 296.101 211.816C295.971 211.956 295.798 212.026 295.583 212.026ZM298.839 221V210.612H299.833V221H298.839Z" fill="#313131"/>
<path d="M121.436 221V211.62L121.884 212.096H119.126V211.2H122.444V221H121.436ZM127.881 221.084C127.181 221.084 126.513 220.972 125.879 220.748C125.244 220.515 124.74 220.207 124.367 219.824L124.857 219.026C125.165 219.353 125.585 219.623 126.117 219.838C126.658 220.053 127.241 220.16 127.867 220.16C128.697 220.16 129.327 219.978 129.757 219.614C130.195 219.241 130.415 218.755 130.415 218.158C130.415 217.738 130.312 217.379 130.107 217.08C129.911 216.772 129.575 216.534 129.099 216.366C128.623 216.198 127.969 216.114 127.139 216.114H125.053L125.557 211.2H130.919V212.096H125.963L126.481 211.606L126.047 215.722L125.529 215.218H127.363C128.352 215.218 129.145 215.339 129.743 215.582C130.34 215.825 130.769 216.165 131.031 216.604C131.301 217.033 131.437 217.537 131.437 218.116C131.437 218.667 131.306 219.171 131.045 219.628C130.783 220.076 130.391 220.431 129.869 220.692C129.346 220.953 128.683 221.084 127.881 221.084ZM139.964 221.07C139.264 221.07 138.634 220.911 138.074 220.594C137.524 220.277 137.09 219.838 136.772 219.278C136.455 218.709 136.296 218.055 136.296 217.318C136.296 216.571 136.455 215.918 136.772 215.358C137.09 214.798 137.524 214.364 138.074 214.056C138.634 213.739 139.264 213.58 139.964 213.58C140.608 213.58 141.182 213.725 141.686 214.014C142.2 214.303 142.606 214.728 142.904 215.288C143.212 215.839 143.366 216.515 143.366 217.318C143.366 218.111 143.217 218.788 142.918 219.348C142.62 219.908 142.214 220.337 141.7 220.636C141.196 220.925 140.618 221.07 139.964 221.07ZM140.034 220.188C140.557 220.188 141.024 220.071 141.434 219.838C141.854 219.595 142.181 219.259 142.414 218.83C142.657 218.391 142.778 217.887 142.778 217.318C142.778 216.739 142.657 216.235 142.414 215.806C142.181 215.377 141.854 215.045 141.434 214.812C141.024 214.569 140.557 214.448 140.034 214.448C139.521 214.448 139.059 214.569 138.648 214.812C138.238 215.045 137.911 215.377 137.668 215.806C137.426 216.235 137.304 216.739 137.304 217.318C137.304 217.887 137.426 218.391 137.668 218.83C137.911 219.259 138.238 219.595 138.648 219.838C139.059 220.071 139.521 220.188 140.034 220.188ZM142.806 221V218.788L142.904 217.304L142.764 215.82V210.612H143.758V221H142.806ZM149.649 221.07C148.883 221.07 148.211 220.911 147.633 220.594C147.054 220.267 146.601 219.824 146.275 219.264C145.948 218.695 145.785 218.046 145.785 217.318C145.785 216.59 145.939 215.946 146.247 215.386C146.564 214.826 146.993 214.387 147.535 214.07C148.085 213.743 148.701 213.58 149.383 213.58C150.073 213.58 150.685 213.739 151.217 214.056C151.758 214.364 152.183 214.803 152.491 215.372C152.799 215.932 152.953 216.581 152.953 217.318C152.953 217.365 152.948 217.416 152.939 217.472C152.939 217.519 152.939 217.57 152.939 217.626H146.541V216.884H152.407L152.015 217.178C152.015 216.646 151.898 216.175 151.665 215.764C151.441 215.344 151.133 215.017 150.741 214.784C150.349 214.551 149.896 214.434 149.383 214.434C148.879 214.434 148.426 214.551 148.025 214.784C147.623 215.017 147.311 215.344 147.087 215.764C146.863 216.184 146.751 216.665 146.751 217.206V217.36C146.751 217.92 146.872 218.415 147.115 218.844C147.367 219.264 147.712 219.595 148.151 219.838C148.599 220.071 149.107 220.188 149.677 220.188C150.125 220.188 150.54 220.109 150.923 219.95C151.315 219.791 151.651 219.549 151.931 219.222L152.491 219.866C152.164 220.258 151.753 220.557 151.259 220.762C150.773 220.967 150.237 221.07 149.649 221.07ZM163.246 221V219.376L163.204 219.11V216.394C163.204 215.769 163.027 215.288 162.672 214.952C162.327 214.616 161.809 214.448 161.118 214.448C160.642 214.448 160.189 214.527 159.76 214.686C159.331 214.845 158.967 215.055 158.668 215.316L158.22 214.574C158.593 214.257 159.041 214.014 159.564 213.846C160.087 213.669 160.637 213.58 161.216 213.58C162.168 213.58 162.901 213.818 163.414 214.294C163.937 214.761 164.198 215.475 164.198 216.436V221H163.246ZM160.712 221.07C160.161 221.07 159.681 220.981 159.27 220.804C158.869 220.617 158.561 220.365 158.346 220.048C158.131 219.721 158.024 219.348 158.024 218.928C158.024 218.545 158.113 218.2 158.29 217.892C158.477 217.575 158.775 217.323 159.186 217.136C159.606 216.94 160.166 216.842 160.866 216.842H163.4V217.584H160.894C160.185 217.584 159.69 217.71 159.41 217.962C159.139 218.214 159.004 218.527 159.004 218.9C159.004 219.32 159.167 219.656 159.494 219.908C159.821 220.16 160.278 220.286 160.866 220.286C161.426 220.286 161.907 220.16 162.308 219.908C162.719 219.647 163.017 219.273 163.204 218.788L163.428 219.474C163.241 219.959 162.915 220.347 162.448 220.636C161.991 220.925 161.412 221.07 160.712 221.07ZM170.692 221.07C170.048 221.07 169.469 220.925 168.956 220.636C168.442 220.337 168.036 219.908 167.738 219.348C167.439 218.788 167.29 218.111 167.29 217.318C167.29 216.515 167.439 215.839 167.738 215.288C168.046 214.728 168.456 214.303 168.97 214.014C169.483 213.725 170.057 213.58 170.692 213.58C171.392 213.58 172.017 213.739 172.568 214.056C173.128 214.364 173.566 214.798 173.884 215.358C174.201 215.918 174.36 216.571 174.36 217.318C174.36 218.055 174.201 218.709 173.884 219.278C173.566 219.838 173.128 220.277 172.568 220.594C172.017 220.911 171.392 221.07 170.692 221.07ZM166.898 221V210.612H167.892V215.82L167.752 217.304L167.85 218.788V221H166.898ZM170.622 220.188C171.144 220.188 171.611 220.071 172.022 219.838C172.432 219.595 172.759 219.259 173.002 218.83C173.244 218.391 173.366 217.887 173.366 217.318C173.366 216.739 173.244 216.235 173.002 215.806C172.759 215.377 172.432 215.045 172.022 214.812C171.611 214.569 171.144 214.448 170.622 214.448C170.099 214.448 169.628 214.569 169.208 214.812C168.797 215.045 168.47 215.377 168.228 215.806C167.994 216.235 167.878 216.739 167.878 217.318C167.878 217.887 167.994 218.391 168.228 218.83C168.47 219.259 168.797 219.595 169.208 219.838C169.628 220.071 170.099 220.188 170.622 220.188ZM176.386 221V213.65H177.338V215.652L177.24 215.302C177.445 214.742 177.791 214.317 178.276 214.028C178.761 213.729 179.363 213.58 180.082 213.58V214.546C180.045 214.546 180.007 214.546 179.97 214.546C179.933 214.537 179.895 214.532 179.858 214.532C179.083 214.532 178.477 214.77 178.038 215.246C177.599 215.713 177.38 216.38 177.38 217.248V221H176.386ZM181.896 221V213.65H182.89V221H181.896ZM182.4 212.026C182.194 212.026 182.022 211.956 181.882 211.816C181.742 211.676 181.672 211.508 181.672 211.312C181.672 211.116 181.742 210.953 181.882 210.822C182.022 210.682 182.194 210.612 182.4 210.612C182.605 210.612 182.778 210.677 182.918 210.808C183.058 210.939 183.128 211.102 183.128 211.298C183.128 211.503 183.058 211.676 182.918 211.816C182.787 211.956 182.614 212.026 182.4 212.026ZM185.656 221V210.612H186.65V221H185.656Z" fill="#313131"/>
<path d="M2.436 221V211.62L2.884 212.096H0.126V211.2H3.444V221H2.436ZM13.0347 221.07C12.3347 221.07 11.7047 220.911 11.1447 220.594C10.594 220.277 10.16 219.838 9.84266 219.278C9.52532 218.709 9.36666 218.055 9.36666 217.318C9.36666 216.571 9.52532 215.918 9.84266 215.358C10.16 214.798 10.594 214.364 11.1447 214.056C11.7047 213.739 12.3347 213.58 13.0347 213.58C13.6787 213.58 14.2527 213.725 14.7567 214.014C15.27 214.303 15.676 214.728 15.9747 215.288C16.2827 215.839 16.4367 216.515 16.4367 217.318C16.4367 218.111 16.2873 218.788 15.9887 219.348C15.69 219.908 15.284 220.337 14.7707 220.636C14.2667 220.925 13.688 221.07 13.0347 221.07ZM13.1047 220.188C13.6273 220.188 14.094 220.071 14.5047 219.838C14.9247 219.595 15.2513 219.259 15.4847 218.83C15.7273 218.391 15.8487 217.887 15.8487 217.318C15.8487 216.739 15.7273 216.235 15.4847 215.806C15.2513 215.377 14.9247 215.045 14.5047 214.812C14.094 214.569 13.6273 214.448 13.1047 214.448C12.5913 214.448 12.1293 214.569 11.7187 214.812C11.308 215.045 10.9813 215.377 10.7387 215.806C10.496 216.235 10.3747 216.739 10.3747 217.318C10.3747 217.887 10.496 218.391 10.7387 218.83C10.9813 219.259 11.308 219.595 11.7187 219.838C12.1293 220.071 12.5913 220.188 13.1047 220.188ZM15.8767 221V218.788L15.9747 217.304L15.8347 215.82V210.612H16.8287V221H15.8767ZM22.7189 221.07C21.9536 221.07 21.2816 220.911 20.7029 220.594C20.1243 220.267 19.6716 219.824 19.3449 219.264C19.0183 218.695 18.8549 218.046 18.8549 217.318C18.8549 216.59 19.0089 215.946 19.3169 215.386C19.6343 214.826 20.0636 214.387 20.6049 214.07C21.1556 213.743 21.7716 213.58 22.4529 213.58C23.1436 213.58 23.7549 213.739 24.2869 214.056C24.8283 214.364 25.2529 214.803 25.5609 215.372C25.8689 215.932 26.0229 216.581 26.0229 217.318C26.0229 217.365 26.0183 217.416 26.0089 217.472C26.0089 217.519 26.0089 217.57 26.0089 217.626H19.6109V216.884H25.4769L25.0849 217.178C25.0849 216.646 24.9683 216.175 24.7349 215.764C24.5109 215.344 24.2029 215.017 23.8109 214.784C23.4189 214.551 22.9663 214.434 22.4529 214.434C21.9489 214.434 21.4963 214.551 21.0949 214.784C20.6936 215.017 20.3809 215.344 20.1569 215.764C19.9329 216.184 19.8209 216.665 19.8209 217.206V217.36C19.8209 217.92 19.9423 218.415 20.1849 218.844C20.4369 219.264 20.7823 219.595 21.2209 219.838C21.6689 220.071 22.1776 220.188 22.7469 220.188C23.1949 220.188 23.6103 220.109 23.9929 219.95C24.3849 219.791 24.7209 219.549 25.0009 219.222L25.5609 219.866C25.2343 220.258 24.8236 220.557 24.3289 220.762C23.8436 220.967 23.3069 221.07 22.7189 221.07ZM36.3162 221V219.376L36.2742 219.11V216.394C36.2742 215.769 36.0969 215.288 35.7422 214.952C35.3969 214.616 34.8789 214.448 34.1882 214.448C33.7122 214.448 33.2596 214.527 32.8302 214.686C32.4009 214.845 32.0369 215.055 31.7382 215.316L31.2902 214.574C31.6636 214.257 32.1116 214.014 32.6342 213.846C33.1569 213.669 33.7076 213.58 34.2862 213.58C35.2382 213.58 35.9709 213.818 36.4842 214.294C37.0069 214.761 37.2682 215.475 37.2682 216.436V221H36.3162ZM33.7822 221.07C33.2316 221.07 32.7509 220.981 32.3402 220.804C31.9389 220.617 31.6309 220.365 31.4162 220.048C31.2016 219.721 31.0942 219.348 31.0942 218.928C31.0942 218.545 31.1829 218.2 31.3602 217.892C31.5469 217.575 31.8456 217.323 32.2562 217.136C32.6762 216.94 33.2362 216.842 33.9362 216.842H36.4702V217.584H33.9642C33.2549 217.584 32.7602 217.71 32.4802 217.962C32.2096 218.214 32.0742 218.527 32.0742 218.9C32.0742 219.32 32.2376 219.656 32.5642 219.908C32.8909 220.16 33.3482 220.286 33.9362 220.286C34.4962 220.286 34.9769 220.16 35.3782 219.908C35.7889 219.647 36.0876 219.273 36.2742 218.788L36.4982 219.474C36.3116 219.959 35.9849 220.347 35.5182 220.636C35.0609 220.925 34.4822 221.07 33.7822 221.07ZM43.762 221.07C43.118 221.07 42.5394 220.925 42.026 220.636C41.5127 220.337 41.1067 219.908 40.808 219.348C40.5094 218.788 40.36 218.111 40.36 217.318C40.36 216.515 40.5094 215.839 40.808 215.288C41.116 214.728 41.5267 214.303 42.04 214.014C42.5534 213.725 43.1274 213.58 43.762 213.58C44.462 213.58 45.0874 213.739 45.638 214.056C46.198 214.364 46.6367 214.798 46.954 215.358C47.2714 215.918 47.43 216.571 47.43 217.318C47.43 218.055 47.2714 218.709 46.954 219.278C46.6367 219.838 46.198 220.277 45.638 220.594C45.0874 220.911 44.462 221.07 43.762 221.07ZM39.968 221V210.612H40.962V215.82L40.822 217.304L40.92 218.788V221H39.968ZM43.692 220.188C44.2147 220.188 44.6814 220.071 45.092 219.838C45.5027 219.595 45.8294 219.259 46.072 218.83C46.3147 218.391 46.436 217.887 46.436 217.318C46.436 216.739 46.3147 216.235 46.072 215.806C45.8294 215.377 45.5027 215.045 45.092 214.812C44.6814 214.569 44.2147 214.448 43.692 214.448C43.1694 214.448 42.698 214.569 42.278 214.812C41.8674 215.045 41.5407 215.377 41.298 215.806C41.0647 216.235 40.948 216.739 40.948 217.318C40.948 217.887 41.0647 218.391 41.298 218.83C41.5407 219.259 41.8674 219.595 42.278 219.838C42.698 220.071 43.1694 220.188 43.692 220.188ZM49.4563 221V213.65H50.4083V215.652L50.3103 215.302C50.5156 214.742 50.861 214.317 51.3463 214.028C51.8316 213.729 52.4336 213.58 53.1523 213.58V214.546C53.115 214.546 53.0776 214.546 53.0403 214.546C53.003 214.537 52.9656 214.532 52.9283 214.532C52.1536 214.532 51.547 214.77 51.1083 215.246C50.6696 215.713 50.4503 216.38 50.4503 217.248V221H49.4563ZM54.9661 221V213.65H55.9601V221H54.9661ZM55.4701 212.026C55.2647 212.026 55.0921 211.956 54.9521 211.816C54.8121 211.676 54.7421 211.508 54.7421 211.312C54.7421 211.116 54.8121 210.953 54.9521 210.822C55.0921 210.682 55.2647 210.612 55.4701 210.612C55.6754 210.612 55.8481 210.677 55.9881 210.808C56.1281 210.939 56.1981 211.102 56.1981 211.298C56.1981 211.503 56.1281 211.676 55.9881 211.816C55.8574 211.956 55.6847 212.026 55.4701 212.026ZM58.7258 221V210.612H59.7198V221H58.7258Z" fill="#313131"/>
<rect x="301.998" y="204" width="11" height="181" transform="rotate(180 301.998 204)" fill="#BC0051"/>
<rect x="286.998" y="204" width="11" height="151" transform="rotate(180 286.998 204)" fill="#214B33"/>
<rect x="270.998" y="204" width="11" height="144" transform="rotate(180 270.998 204)" fill="#A2C33D" fill-opacity="0.4"/>
<rect x="255.998" y="204" width="11" height="141" transform="rotate(180 255.998 204)" fill="#A2C33D" fill-opacity="0.4"/>
<rect x="240.998" y="204" width="11" height="136" transform="rotate(180 240.998 204)" fill="#A2C33D" fill-opacity="0.4"/>
<rect x="225.998" y="204" width="11" height="128" transform="rotate(180 225.998 204)" fill="#A2C33D" fill-opacity="0.4"/>
<rect x="209.998" y="204" width="11" height="125" transform="rotate(180 209.998 204)" fill="#A2C33D" fill-opacity="0.4"/>
<rect x="194.998" y="204" width="11" height="113" transform="rotate(180 194.998 204)" fill="#A2C33D" fill-opacity="0.4"/>
<rect x="179.998" y="204" width="11" height="111" transform="rotate(180 179.998 204)" fill="#A2C33D" fill-opacity="0.4"/>
<rect x="163.998" y="204" width="11" height="104" transform="rotate(180 163.998 204)" fill="#A2C33D" fill-opacity="0.4"/>
<rect x="148.998" y="204" width="11" height="104" transform="rotate(180 148.998 204)" fill="#A2C33D" fill-opacity="0.4"/>
<rect x="133.998" y="204" width="11" height="100" transform="rotate(180 133.998 204)" fill="#A2C33D" fill-opacity="0.4"/>
<rect x="117.998" y="204" width="11" height="97" transform="rotate(180 117.998 204)" fill="#A2C33D" fill-opacity="0.4"/>
<rect x="102.998" y="204" width="11" height="97" transform="rotate(180 102.998 204)" fill="#A2C33D" fill-opacity="0.4"/>
<rect x="87.998" y="204" width="11" height="86" transform="rotate(180 87.998 204)" fill="#A2C33D" fill-opacity="0.4"/>
<rect x="72.998" y="204" width="11" height="82" transform="rotate(180 72.998 204)" fill="#A2C33D" fill-opacity="0.4"/>
<rect x="56.998" y="204" width="11" height="79" transform="rotate(180 56.998 204)" fill="#A2C33D" fill-opacity="0.4"/>
<rect x="41.998" y="204" width="11" height="71" transform="rotate(180 41.998 204)" fill="#A2C33D" fill-opacity="0.4"/>
<rect x="26.998" y="204" width="11" height="68" transform="rotate(180 26.998 204)" fill="#A2C33D" fill-opacity="0.4"/>
<rect x="11" y="204" width="11" height="57" transform="rotate(180 11 204)" fill="#A2C33D"/>
<path d="M6 54V147" stroke="#A2C33D" stroke-width="11.3313" stroke-dasharray="5.67 5.67"/>
<path d="M20.852 150.084C20.1147 150.084 19.4333 149.963 18.808 149.72C18.1827 149.468 17.6413 149.118 17.184 148.67C16.7267 148.222 16.3673 147.695 16.106 147.088C15.854 146.481 15.728 145.819 15.728 145.1C15.728 144.381 15.854 143.719 16.106 143.112C16.3673 142.505 16.7267 141.978 17.184 141.53C17.6507 141.082 18.1967 140.737 18.822 140.494C19.4473 140.242 20.1287 140.116 20.866 140.116C21.5753 140.116 22.2427 140.237 22.868 140.48C23.4933 140.713 24.0207 141.068 24.45 141.544L23.792 142.202C23.3907 141.791 22.9473 141.497 22.462 141.32C21.9767 141.133 21.454 141.04 20.894 141.04C20.306 141.04 19.76 141.143 19.256 141.348C18.752 141.544 18.3133 141.829 17.94 142.202C17.5667 142.566 17.2727 142.995 17.058 143.49C16.8527 143.975 16.75 144.512 16.75 145.1C16.75 145.688 16.8527 146.229 17.058 146.724C17.2727 147.209 17.5667 147.639 17.94 148.012C18.3133 148.376 18.752 148.661 19.256 148.866C19.76 149.062 20.306 149.16 20.894 149.16C21.454 149.16 21.9767 149.067 22.462 148.88C22.9473 148.693 23.3907 148.395 23.792 147.984L24.45 148.642C24.0207 149.118 23.4933 149.477 22.868 149.72C22.2427 149.963 21.5707 150.084 20.852 150.084ZM29.1164 150.07C28.407 150.07 27.7677 149.911 27.1984 149.594C26.6384 149.267 26.195 148.824 25.8684 148.264C25.5417 147.695 25.3784 147.046 25.3784 146.318C25.3784 145.581 25.5417 144.932 25.8684 144.372C26.195 143.812 26.6384 143.373 27.1984 143.056C27.7584 142.739 28.3977 142.58 29.1164 142.58C29.8444 142.58 30.4884 142.739 31.0484 143.056C31.6177 143.373 32.061 143.812 32.3784 144.372C32.705 144.932 32.8684 145.581 32.8684 146.318C32.8684 147.046 32.705 147.695 32.3784 148.264C32.061 148.824 31.6177 149.267 31.0484 149.594C30.479 149.911 29.835 150.07 29.1164 150.07ZM29.1164 149.188C29.6484 149.188 30.1197 149.071 30.5304 148.838C30.941 148.595 31.263 148.259 31.4964 147.83C31.739 147.391 31.8604 146.887 31.8604 146.318C31.8604 145.739 31.739 145.235 31.4964 144.806C31.263 144.377 30.941 144.045 30.5304 143.812C30.1197 143.569 29.653 143.448 29.1304 143.448C28.6077 143.448 28.141 143.569 27.7304 143.812C27.3197 144.045 26.993 144.377 26.7504 144.806C26.5077 145.235 26.3864 145.739 26.3864 146.318C26.3864 146.887 26.5077 147.391 26.7504 147.83C26.993 148.259 27.3197 148.595 27.7304 148.838C28.141 149.071 28.603 149.188 29.1164 149.188ZM44.0817 142.58C44.6791 142.58 45.1971 142.697 45.6357 142.93C46.0837 143.154 46.4291 143.499 46.6717 143.966C46.9237 144.433 47.0497 145.021 47.0497 145.73V150H46.0557V145.828C46.0557 145.053 45.8691 144.47 45.4957 144.078C45.1317 143.677 44.6137 143.476 43.9417 143.476C43.4377 143.476 42.9991 143.583 42.6257 143.798C42.2617 144.003 41.9771 144.307 41.7717 144.708C41.5757 145.1 41.4777 145.576 41.4777 146.136V150H40.4837V145.828C40.4837 145.053 40.2971 144.47 39.9237 144.078C39.5504 143.677 39.0277 143.476 38.3557 143.476C37.8611 143.476 37.4271 143.583 37.0537 143.798C36.6804 144.003 36.3911 144.307 36.1857 144.708C35.9897 145.1 35.8917 145.576 35.8917 146.136V150H34.8977V142.65H35.8497V144.638L35.6957 144.288C35.9197 143.756 36.2791 143.341 36.7737 143.042C37.2777 142.734 37.8704 142.58 38.5517 142.58C39.2704 142.58 39.8817 142.762 40.3857 143.126C40.8897 143.481 41.2164 144.017 41.3657 144.736L40.9737 144.582C41.1884 143.985 41.5664 143.504 42.1077 143.14C42.6584 142.767 43.3164 142.58 44.0817 142.58ZM53.5394 150.07C52.9047 150.07 52.3307 149.925 51.8174 149.636C51.304 149.337 50.8934 148.913 50.5854 148.362C50.2867 147.802 50.1374 147.121 50.1374 146.318C50.1374 145.515 50.2867 144.839 50.5854 144.288C50.884 143.728 51.29 143.303 51.8034 143.014C52.3167 142.725 52.8954 142.58 53.5394 142.58C54.2394 142.58 54.8647 142.739 55.4154 143.056C55.9754 143.364 56.414 143.803 56.7314 144.372C57.0487 144.932 57.2074 145.581 57.2074 146.318C57.2074 147.065 57.0487 147.718 56.7314 148.278C56.414 148.838 55.9754 149.277 55.4154 149.594C54.8647 149.911 54.2394 150.07 53.5394 150.07ZM49.7454 152.716V142.65H50.6974V144.862L50.5994 146.332L50.7394 147.816V152.716H49.7454ZM53.4694 149.188C53.992 149.188 54.4587 149.071 54.8694 148.838C55.28 148.595 55.6067 148.259 55.8494 147.83C56.092 147.391 56.2134 146.887 56.2134 146.318C56.2134 145.749 56.092 145.249 55.8494 144.82C55.6067 144.391 55.28 144.055 54.8694 143.812C54.4587 143.569 53.992 143.448 53.4694 143.448C52.9467 143.448 52.4754 143.569 52.0554 143.812C51.6447 144.055 51.318 144.391 51.0754 144.82C50.842 145.249 50.7254 145.749 50.7254 146.318C50.7254 146.887 50.842 147.391 51.0754 147.83C51.318 148.259 51.6447 148.595 52.0554 148.838C52.4754 149.071 52.9467 149.188 53.4694 149.188ZM59.2337 150V142.65H60.1857V144.652L60.0877 144.302C60.293 143.742 60.6383 143.317 61.1237 143.028C61.609 142.729 62.211 142.58 62.9297 142.58V143.546C62.8923 143.546 62.855 143.546 62.8177 143.546C62.7803 143.537 62.743 143.532 62.7057 143.532C61.931 143.532 61.3243 143.77 60.8857 144.246C60.447 144.713 60.2277 145.38 60.2277 146.248V150H59.2337ZM68.8025 150V148.376L68.7605 148.11V145.394C68.7605 144.769 68.5832 144.288 68.2285 143.952C67.8832 143.616 67.3652 143.448 66.6745 143.448C66.1985 143.448 65.7459 143.527 65.3165 143.686C64.8872 143.845 64.5232 144.055 64.2245 144.316L63.7765 143.574C64.1499 143.257 64.5979 143.014 65.1205 142.846C65.6432 142.669 66.1939 142.58 66.7725 142.58C67.7245 142.58 68.4572 142.818 68.9705 143.294C69.4932 143.761 69.7545 144.475 69.7545 145.436V150H68.8025ZM66.2685 150.07C65.7179 150.07 65.2372 149.981 64.8265 149.804C64.4252 149.617 64.1172 149.365 63.9025 149.048C63.6879 148.721 63.5805 148.348 63.5805 147.928C63.5805 147.545 63.6692 147.2 63.8465 146.892C64.0332 146.575 64.3319 146.323 64.7425 146.136C65.1625 145.94 65.7225 145.842 66.4225 145.842H68.9565V146.584H66.4505C65.7412 146.584 65.2465 146.71 64.9665 146.962C64.6959 147.214 64.5605 147.527 64.5605 147.9C64.5605 148.32 64.7239 148.656 65.0505 148.908C65.3772 149.16 65.8345 149.286 66.4225 149.286C66.9825 149.286 67.4632 149.16 67.8645 148.908C68.2752 148.647 68.5739 148.273 68.7605 147.788L68.9845 148.474C68.7979 148.959 68.4712 149.347 68.0045 149.636C67.5472 149.925 66.9685 150.07 66.2685 150.07ZM74.4284 150.07C73.8217 150.07 73.2477 149.986 72.7064 149.818C72.165 149.641 71.7404 149.421 71.4324 149.16L71.8804 148.376C72.179 148.6 72.5617 148.796 73.0284 148.964C73.495 149.123 73.985 149.202 74.4984 149.202C75.1984 149.202 75.7024 149.095 76.0104 148.88C76.3184 148.656 76.4724 148.362 76.4724 147.998C76.4724 147.727 76.3837 147.517 76.2064 147.368C76.0384 147.209 75.8144 147.093 75.5344 147.018C75.2544 146.934 74.9417 146.864 74.5964 146.808C74.251 146.752 73.9057 146.687 73.5604 146.612C73.2244 146.537 72.9164 146.43 72.6364 146.29C72.3564 146.141 72.1277 145.94 71.9504 145.688C71.7824 145.436 71.6984 145.1 71.6984 144.68C71.6984 144.279 71.8104 143.919 72.0344 143.602C72.2584 143.285 72.585 143.037 73.0144 142.86C73.453 142.673 73.985 142.58 74.6104 142.58C75.0864 142.58 75.5624 142.645 76.0384 142.776C76.5144 142.897 76.9064 143.061 77.2144 143.266L76.7804 144.064C76.4537 143.84 76.1037 143.681 75.7304 143.588C75.357 143.485 74.9837 143.434 74.6104 143.434C73.9477 143.434 73.4577 143.551 73.1404 143.784C72.8324 144.008 72.6784 144.297 72.6784 144.652C72.6784 144.932 72.7624 145.151 72.9304 145.31C73.1077 145.469 73.3364 145.595 73.6164 145.688C73.9057 145.772 74.2184 145.842 74.5544 145.898C74.8997 145.954 75.2404 146.024 75.5764 146.108C75.9217 146.183 76.2344 146.29 76.5144 146.43C76.8037 146.561 77.0324 146.752 77.2004 147.004C77.3777 147.247 77.4664 147.569 77.4664 147.97C77.4664 148.399 77.345 148.773 77.1024 149.09C76.869 149.398 76.5237 149.641 76.0664 149.818C75.6184 149.986 75.0724 150.07 74.4284 150.07ZM83.1224 150V141.726C83.1224 141.073 83.3137 140.545 83.6964 140.144C84.079 139.743 84.6297 139.542 85.3484 139.542C85.6284 139.542 85.899 139.579 86.1604 139.654C86.4217 139.729 86.641 139.845 86.8184 140.004L86.4824 140.746C86.3424 140.625 86.179 140.536 85.9924 140.48C85.8057 140.415 85.605 140.382 85.3904 140.382C84.9704 140.382 84.6484 140.499 84.4244 140.732C84.2004 140.965 84.0884 141.311 84.0884 141.768V142.888L84.1164 143.35V150H83.1224ZM81.8064 143.476V142.65H86.3564V143.476H81.8064ZM90.7365 150.07C90.1112 150.07 89.5652 149.953 89.0985 149.72C88.6318 149.487 88.2678 149.137 88.0065 148.67C87.7545 148.203 87.6285 147.62 87.6285 146.92V142.65H88.6225V146.808C88.6225 147.592 88.8138 148.185 89.1965 148.586C89.5885 148.978 90.1345 149.174 90.8345 149.174C91.3478 149.174 91.7912 149.071 92.1645 148.866C92.5472 148.651 92.8365 148.343 93.0325 147.942C93.2378 147.541 93.3405 147.06 93.3405 146.5V142.65H94.3345V150H93.3825V147.984L93.5365 148.348C93.3032 148.889 92.9392 149.314 92.4445 149.622C91.9592 149.921 91.3898 150.07 90.7365 150.07ZM99.4288 150.07C98.7381 150.07 98.2061 149.883 97.8328 149.51C97.4594 149.137 97.2728 148.609 97.2728 147.928V141.026H98.2668V147.872C98.2668 148.301 98.3741 148.633 98.5888 148.866C98.8128 149.099 99.1301 149.216 99.5408 149.216C99.9794 149.216 100.343 149.09 100.633 148.838L100.983 149.552C100.787 149.729 100.549 149.86 100.269 149.944C99.9981 150.028 99.7181 150.07 99.4288 150.07ZM95.9568 143.476V142.65H100.507V143.476H95.9568ZM105.83 150.07C105.205 150.07 104.659 149.953 104.192 149.72C103.726 149.487 103.362 149.137 103.1 148.67C102.848 148.203 102.722 147.62 102.722 146.92V142.65H103.716V146.808C103.716 147.592 103.908 148.185 104.29 148.586C104.682 148.978 105.228 149.174 105.928 149.174C106.442 149.174 106.885 149.071 107.258 148.866C107.641 148.651 107.93 148.343 108.126 147.942C108.332 147.541 108.434 147.06 108.434 146.5V142.65H109.428V150H108.476V147.984L108.63 148.348C108.397 148.889 108.033 149.314 107.538 149.622C107.053 149.921 106.484 150.07 105.83 150.07ZM112.199 150V142.65H113.151V144.652L113.053 144.302C113.258 143.742 113.603 143.317 114.089 143.028C114.574 142.729 115.176 142.58 115.895 142.58V143.546C115.857 143.546 115.82 143.546 115.783 143.546C115.745 143.537 115.708 143.532 115.671 143.532C114.896 143.532 114.289 143.77 113.851 144.246C113.412 144.713 113.193 145.38 113.193 146.248V150H112.199ZM120.636 150.07C119.927 150.07 119.287 149.911 118.718 149.594C118.158 149.267 117.715 148.824 117.388 148.264C117.061 147.695 116.898 147.046 116.898 146.318C116.898 145.581 117.061 144.932 117.388 144.372C117.715 143.812 118.158 143.373 118.718 143.056C119.278 142.739 119.917 142.58 120.636 142.58C121.364 142.58 122.008 142.739 122.568 143.056C123.137 143.373 123.581 143.812 123.898 144.372C124.225 144.932 124.388 145.581 124.388 146.318C124.388 147.046 124.225 147.695 123.898 148.264C123.581 148.824 123.137 149.267 122.568 149.594C121.999 149.911 121.355 150.07 120.636 150.07ZM120.636 149.188C121.168 149.188 121.639 149.071 122.05 148.838C122.461 148.595 122.783 148.259 123.016 147.83C123.259 147.391 123.38 146.887 123.38 146.318C123.38 145.739 123.259 145.235 123.016 144.806C122.783 144.377 122.461 144.045 122.05 143.812C121.639 143.569 121.173 143.448 120.65 143.448C120.127 143.448 119.661 143.569 119.25 143.812C118.839 144.045 118.513 144.377 118.27 144.806C118.027 145.235 117.906 145.739 117.906 146.318C117.906 146.887 118.027 147.391 118.27 147.83C118.513 148.259 118.839 148.595 119.25 148.838C119.661 149.071 120.123 149.188 120.636 149.188ZM128.391 150.07C127.785 150.07 127.211 149.986 126.669 149.818C126.128 149.641 125.703 149.421 125.395 149.16L125.843 148.376C126.142 148.6 126.525 148.796 126.991 148.964C127.458 149.123 127.948 149.202 128.461 149.202C129.161 149.202 129.665 149.095 129.973 148.88C130.281 148.656 130.435 148.362 130.435 147.998C130.435 147.727 130.347 147.517 130.169 147.368C130.001 147.209 129.777 147.093 129.497 147.018C129.217 146.934 128.905 146.864 128.559 146.808C128.214 146.752 127.869 146.687 127.523 146.612C127.187 146.537 126.879 146.43 126.599 146.29C126.319 146.141 126.091 145.94 125.913 145.688C125.745 145.436 125.661 145.1 125.661 144.68C125.661 144.279 125.773 143.919 125.997 143.602C126.221 143.285 126.548 143.037 126.977 142.86C127.416 142.673 127.948 142.58 128.573 142.58C129.049 142.58 129.525 142.645 130.001 142.776C130.477 142.897 130.869 143.061 131.177 143.266L130.743 144.064C130.417 143.84 130.067 143.681 129.693 143.588C129.32 143.485 128.947 143.434 128.573 143.434C127.911 143.434 127.421 143.551 127.103 143.784C126.795 144.008 126.641 144.297 126.641 144.652C126.641 144.932 126.725 145.151 126.893 145.31C127.071 145.469 127.299 145.595 127.579 145.688C127.869 145.772 128.181 145.842 128.517 145.898C128.863 145.954 129.203 146.024 129.539 146.108C129.885 146.183 130.197 146.29 130.477 146.43C130.767 146.561 130.995 146.752 131.163 147.004C131.341 147.247 131.429 147.569 131.429 147.97C131.429 148.399 131.308 148.773 131.065 149.09C130.832 149.398 130.487 149.641 130.029 149.818C129.581 149.986 129.035 150.07 128.391 150.07ZM141.523 150V148.376L141.481 148.11V145.394C141.481 144.769 141.304 144.288 140.949 143.952C140.604 143.616 140.086 143.448 139.395 143.448C138.919 143.448 138.467 143.527 138.037 143.686C137.608 143.845 137.244 144.055 136.945 144.316L136.497 143.574C136.871 143.257 137.319 143.014 137.841 142.846C138.364 142.669 138.915 142.58 139.493 142.58C140.445 142.58 141.178 142.818 141.691 143.294C142.214 143.761 142.475 144.475 142.475 145.436V150H141.523ZM138.989 150.07C138.439 150.07 137.958 149.981 137.547 149.804C137.146 149.617 136.838 149.365 136.623 149.048C136.409 148.721 136.301 148.348 136.301 147.928C136.301 147.545 136.39 147.2 136.567 146.892C136.754 146.575 137.053 146.323 137.463 146.136C137.883 145.94 138.443 145.842 139.143 145.842H141.677V146.584H139.171C138.462 146.584 137.967 146.71 137.687 146.962C137.417 147.214 137.281 147.527 137.281 147.9C137.281 148.32 137.445 148.656 137.771 148.908C138.098 149.16 138.555 149.286 139.143 149.286C139.703 149.286 140.184 149.16 140.585 148.908C140.996 148.647 141.295 148.273 141.481 147.788L141.705 148.474C141.519 148.959 141.192 149.347 140.725 149.636C140.268 149.925 139.689 150.07 138.989 150.07ZM151.961 150.07C151.196 150.07 150.524 149.911 149.945 149.594C149.366 149.267 148.914 148.824 148.587 148.264C148.26 147.695 148.097 147.046 148.097 146.318C148.097 145.59 148.251 144.946 148.559 144.386C148.876 143.826 149.306 143.387 149.847 143.07C150.398 142.743 151.014 142.58 151.695 142.58C152.386 142.58 152.997 142.739 153.529 143.056C154.07 143.364 154.495 143.803 154.803 144.372C155.111 144.932 155.265 145.581 155.265 146.318C155.265 146.365 155.26 146.416 155.251 146.472C155.251 146.519 155.251 146.57 155.251 146.626H148.853V145.884H154.719L154.327 146.178C154.327 145.646 154.21 145.175 153.977 144.764C153.753 144.344 153.445 144.017 153.053 143.784C152.661 143.551 152.208 143.434 151.695 143.434C151.191 143.434 150.738 143.551 150.337 143.784C149.936 144.017 149.623 144.344 149.399 144.764C149.175 145.184 149.063 145.665 149.063 146.206V146.36C149.063 146.92 149.184 147.415 149.427 147.844C149.679 148.264 150.024 148.595 150.463 148.838C150.911 149.071 151.42 149.188 151.989 149.188C152.437 149.188 152.852 149.109 153.235 148.95C153.627 148.791 153.963 148.549 154.243 148.222L154.803 148.866C154.476 149.258 154.066 149.557 153.571 149.762C153.086 149.967 152.549 150.07 151.961 150.07ZM159.262 150.07C158.656 150.07 158.082 149.986 157.54 149.818C156.999 149.641 156.574 149.421 156.266 149.16L156.714 148.376C157.013 148.6 157.396 148.796 157.862 148.964C158.329 149.123 158.819 149.202 159.332 149.202C160.032 149.202 160.536 149.095 160.844 148.88C161.152 148.656 161.306 148.362 161.306 147.998C161.306 147.727 161.218 147.517 161.04 147.368C160.872 147.209 160.648 147.093 160.368 147.018C160.088 146.934 159.776 146.864 159.43 146.808C159.085 146.752 158.74 146.687 158.394 146.612C158.058 146.537 157.75 146.43 157.47 146.29C157.19 146.141 156.962 145.94 156.784 145.688C156.616 145.436 156.532 145.1 156.532 144.68C156.532 144.279 156.644 143.919 156.868 143.602C157.092 143.285 157.419 143.037 157.848 142.86C158.287 142.673 158.819 142.58 159.444 142.58C159.92 142.58 160.396 142.645 160.872 142.776C161.348 142.897 161.74 143.061 162.048 143.266L161.614 144.064C161.288 143.84 160.938 143.681 160.564 143.588C160.191 143.485 159.818 143.434 159.444 143.434C158.782 143.434 158.292 143.551 157.974 143.784C157.666 144.008 157.512 144.297 157.512 144.652C157.512 144.932 157.596 145.151 157.764 145.31C157.942 145.469 158.17 145.595 158.45 145.688C158.74 145.772 159.052 145.842 159.388 145.898C159.734 145.954 160.074 146.024 160.41 146.108C160.756 146.183 161.068 146.29 161.348 146.43C161.638 146.561 161.866 146.752 162.034 147.004C162.212 147.247 162.3 147.569 162.3 147.97C162.3 148.399 162.179 148.773 161.936 149.09C161.703 149.398 161.358 149.641 160.9 149.818C160.452 149.986 159.906 150.07 159.262 150.07ZM166.448 150.07C165.758 150.07 165.226 149.883 164.852 149.51C164.479 149.137 164.292 148.609 164.292 147.928V141.026H165.286V147.872C165.286 148.301 165.394 148.633 165.608 148.866C165.832 149.099 166.15 149.216 166.56 149.216C166.999 149.216 167.363 149.09 167.652 148.838L168.002 149.552C167.806 149.729 167.568 149.86 167.288 149.944C167.018 150.028 166.738 150.07 166.448 150.07ZM162.976 143.476V142.65H167.526V143.476H162.976ZM172.674 150.07C171.909 150.07 171.237 149.911 170.658 149.594C170.079 149.267 169.627 148.824 169.3 148.264C168.973 147.695 168.81 147.046 168.81 146.318C168.81 145.59 168.964 144.946 169.272 144.386C169.589 143.826 170.019 143.387 170.56 143.07C171.111 142.743 171.727 142.58 172.408 142.58C173.099 142.58 173.71 142.739 174.242 143.056C174.783 143.364 175.208 143.803 175.516 144.372C175.824 144.932 175.978 145.581 175.978 146.318C175.978 146.365 175.973 146.416 175.964 146.472C175.964 146.519 175.964 146.57 175.964 146.626H169.566V145.884H175.432L175.04 146.178C175.04 145.646 174.923 145.175 174.69 144.764C174.466 144.344 174.158 144.017 173.766 143.784C173.374 143.551 172.921 143.434 172.408 143.434C171.904 143.434 171.451 143.551 171.05 143.784C170.649 144.017 170.336 144.344 170.112 144.764C169.888 145.184 169.776 145.665 169.776 146.206V146.36C169.776 146.92 169.897 147.415 170.14 147.844C170.392 148.264 170.737 148.595 171.176 148.838C171.624 149.071 172.133 149.188 172.702 149.188C173.15 149.188 173.565 149.109 173.948 148.95C174.34 148.791 174.676 148.549 174.956 148.222L175.516 148.866C175.189 149.258 174.779 149.557 174.284 149.762C173.799 149.967 173.262 150.07 172.674 150.07ZM185.459 150.07C184.825 150.07 184.251 149.925 183.737 149.636C183.224 149.337 182.813 148.913 182.505 148.362C182.207 147.802 182.057 147.121 182.057 146.318C182.057 145.515 182.207 144.839 182.505 144.288C182.804 143.728 183.21 143.303 183.723 143.014C184.237 142.725 184.815 142.58 185.459 142.58C186.159 142.58 186.785 142.739 187.335 143.056C187.895 143.364 188.334 143.803 188.651 144.372C188.969 144.932 189.127 145.581 189.127 146.318C189.127 147.065 188.969 147.718 188.651 148.278C188.334 148.838 187.895 149.277 187.335 149.594C186.785 149.911 186.159 150.07 185.459 150.07ZM181.665 152.716V142.65H182.617V144.862L182.519 146.332L182.659 147.816V152.716H181.665ZM185.389 149.188C185.912 149.188 186.379 149.071 186.789 148.838C187.2 148.595 187.527 148.259 187.769 147.83C188.012 147.391 188.133 146.887 188.133 146.318C188.133 145.749 188.012 145.249 187.769 144.82C187.527 144.391 187.2 144.055 186.789 143.812C186.379 143.569 185.912 143.448 185.389 143.448C184.867 143.448 184.395 143.569 183.975 143.812C183.565 144.055 183.238 144.391 182.995 144.82C182.762 145.249 182.645 145.749 182.645 146.318C182.645 146.887 182.762 147.391 182.995 147.83C183.238 148.259 183.565 148.595 183.975 148.838C184.395 149.071 184.867 149.188 185.389 149.188ZM191.154 150V142.65H192.106V144.652L192.008 144.302C192.213 143.742 192.558 143.317 193.044 143.028C193.529 142.729 194.131 142.58 194.85 142.58V143.546C194.812 143.546 194.775 143.546 194.738 143.546C194.7 143.537 194.663 143.532 194.626 143.532C193.851 143.532 193.244 143.77 192.806 144.246C192.367 144.713 192.148 145.38 192.148 146.248V150H191.154ZM199.717 150.07C198.952 150.07 198.28 149.911 197.701 149.594C197.122 149.267 196.67 148.824 196.343 148.264C196.016 147.695 195.853 147.046 195.853 146.318C195.853 145.59 196.007 144.946 196.315 144.386C196.632 143.826 197.062 143.387 197.603 143.07C198.154 142.743 198.77 142.58 199.451 142.58C200.142 142.58 200.753 142.739 201.285 143.056C201.826 143.364 202.251 143.803 202.559 144.372C202.867 144.932 203.021 145.581 203.021 146.318C203.021 146.365 203.016 146.416 203.007 146.472C203.007 146.519 203.007 146.57 203.007 146.626H196.609V145.884H202.475L202.083 146.178C202.083 145.646 201.966 145.175 201.733 144.764C201.509 144.344 201.201 144.017 200.809 143.784C200.417 143.551 199.964 143.434 199.451 143.434C198.947 143.434 198.494 143.551 198.093 143.784C197.692 144.017 197.379 144.344 197.155 144.764C196.931 145.184 196.819 145.665 196.819 146.206V146.36C196.819 146.92 196.94 147.415 197.183 147.844C197.435 148.264 197.78 148.595 198.219 148.838C198.667 149.071 199.176 149.188 199.745 149.188C200.193 149.188 200.608 149.109 200.991 148.95C201.383 148.791 201.719 148.549 201.999 148.222L202.559 148.866C202.232 149.258 201.822 149.557 201.327 149.762C200.842 149.967 200.305 150.07 199.717 150.07ZM208.096 150.07C207.368 150.07 206.715 149.911 206.136 149.594C205.567 149.267 205.119 148.824 204.792 148.264C204.466 147.695 204.302 147.046 204.302 146.318C204.302 145.581 204.466 144.932 204.792 144.372C205.119 143.812 205.567 143.373 206.136 143.056C206.715 142.739 207.368 142.58 208.096 142.58C208.722 142.58 209.286 142.701 209.79 142.944C210.294 143.187 210.691 143.551 210.98 144.036L210.238 144.54C209.986 144.167 209.674 143.891 209.3 143.714C208.927 143.537 208.521 143.448 208.082 143.448C207.56 143.448 207.088 143.569 206.668 143.812C206.248 144.045 205.917 144.377 205.674 144.806C205.432 145.235 205.31 145.739 205.31 146.318C205.31 146.897 205.432 147.401 205.674 147.83C205.917 148.259 206.248 148.595 206.668 148.838C207.088 149.071 207.56 149.188 208.082 149.188C208.521 149.188 208.927 149.099 209.3 148.922C209.674 148.745 209.986 148.474 210.238 148.11L210.98 148.614C210.691 149.09 210.294 149.454 209.79 149.706C209.286 149.949 208.722 150.07 208.096 150.07ZM212.824 150V142.65H213.818V150H212.824ZM213.328 141.026C213.122 141.026 212.95 140.956 212.81 140.816C212.67 140.676 212.6 140.508 212.6 140.312C212.6 140.116 212.67 139.953 212.81 139.822C212.95 139.682 213.122 139.612 213.328 139.612C213.533 139.612 213.706 139.677 213.846 139.808C213.986 139.939 214.056 140.102 214.056 140.298C214.056 140.503 213.986 140.676 213.846 140.816C213.715 140.956 213.542 141.026 213.328 141.026ZM219.579 150.07C218.87 150.07 218.231 149.911 217.661 149.594C217.101 149.267 216.658 148.824 216.331 148.264C216.005 147.695 215.841 147.046 215.841 146.318C215.841 145.581 216.005 144.932 216.331 144.372C216.658 143.812 217.101 143.373 217.661 143.056C218.221 142.739 218.861 142.58 219.579 142.58C220.307 142.58 220.951 142.739 221.511 143.056C222.081 143.373 222.524 143.812 222.841 144.372C223.168 144.932 223.331 145.581 223.331 146.318C223.331 147.046 223.168 147.695 222.841 148.264C222.524 148.824 222.081 149.267 221.511 149.594C220.942 149.911 220.298 150.07 219.579 150.07ZM219.579 149.188C220.111 149.188 220.583 149.071 220.993 148.838C221.404 148.595 221.726 148.259 221.959 147.83C222.202 147.391 222.323 146.887 222.323 146.318C222.323 145.739 222.202 145.235 221.959 144.806C221.726 144.377 221.404 144.045 220.993 143.812C220.583 143.569 220.116 143.448 219.593 143.448C219.071 143.448 218.604 143.569 218.193 143.812C217.783 144.045 217.456 144.377 217.213 144.806C216.971 145.235 216.849 145.739 216.849 146.318C216.849 146.887 216.971 147.391 217.213 147.83C217.456 148.259 217.783 148.595 218.193 148.838C218.604 149.071 219.066 149.188 219.579 149.188Z" fill="#214B33"/>
<path d="M11 154L217 154" stroke="#214B33"/>
<path d="M24.298 96.084C23.57 96.084 22.87 95.9673 22.198 95.734C21.5353 95.4913 21.022 95.1833 20.658 94.81L21.064 94.012C21.4093 94.348 21.8713 94.6327 22.45 94.866C23.038 95.09 23.654 95.202 24.298 95.202C24.914 95.202 25.4133 95.1273 25.796 94.978C26.188 94.8193 26.4727 94.6093 26.65 94.348C26.8367 94.0867 26.93 93.7973 26.93 93.48C26.93 93.0973 26.818 92.7893 26.594 92.556C26.3793 92.3227 26.0947 92.1407 25.74 92.01C25.3853 91.87 24.9933 91.7487 24.564 91.646C24.1347 91.5433 23.7053 91.436 23.276 91.324C22.8467 91.2027 22.45 91.044 22.086 90.848C21.7313 90.652 21.442 90.3953 21.218 90.078C21.0033 89.7513 20.896 89.3267 20.896 88.804C20.896 88.3187 21.022 87.8753 21.274 87.474C21.5353 87.0633 21.932 86.7367 22.464 86.494C22.996 86.242 23.6773 86.116 24.508 86.116C25.0587 86.116 25.6047 86.1953 26.146 86.354C26.6873 86.5033 27.154 86.7133 27.546 86.984L27.196 87.81C26.776 87.53 26.328 87.3247 25.852 87.194C25.3853 87.0633 24.9327 86.998 24.494 86.998C23.906 86.998 23.4207 87.0773 23.038 87.236C22.6553 87.3947 22.3707 87.6093 22.184 87.88C22.0067 88.1413 21.918 88.44 21.918 88.776C21.918 89.1587 22.0253 89.4667 22.24 89.7C22.464 89.9333 22.7533 90.1153 23.108 90.246C23.472 90.3767 23.8687 90.4933 24.298 90.596C24.7273 90.6987 25.152 90.8107 25.572 90.932C26.0013 91.0533 26.3933 91.212 26.748 91.408C27.112 91.5947 27.4013 91.8467 27.616 92.164C27.84 92.4813 27.952 92.8967 27.952 93.41C27.952 93.886 27.8213 94.3293 27.56 94.74C27.2987 95.1413 26.8973 95.468 26.356 95.72C25.824 95.9627 25.138 96.084 24.298 96.084ZM33.0373 96.07C32.4119 96.07 31.8659 95.9533 31.3993 95.72C30.9326 95.4867 30.5686 95.1367 30.3073 94.67C30.0553 94.2033 29.9293 93.62 29.9293 92.92V88.65H30.9233V92.808C30.9233 93.592 31.1146 94.1847 31.4973 94.586C31.8893 94.978 32.4353 95.174 33.1353 95.174C33.6486 95.174 34.0919 95.0713 34.4653 94.866C34.8479 94.6513 35.1373 94.3433 35.3333 93.942C35.5386 93.5407 35.6413 93.06 35.6413 92.5V88.65H36.6353V96H35.6833V93.984L35.8373 94.348C35.6039 94.8893 35.2399 95.314 34.7453 95.622C34.2599 95.9207 33.6906 96.07 33.0373 96.07ZM44.9596 96L41.6976 88.65H42.7336L45.7296 95.468H45.2396L48.2776 88.65H49.2576L45.9816 96H44.9596ZM53.5744 96.07C52.8091 96.07 52.1371 95.9113 51.5584 95.594C50.9797 95.2673 50.5271 94.824 50.2004 94.264C49.8737 93.6947 49.7104 93.046 49.7104 92.318C49.7104 91.59 49.8644 90.946 50.1724 90.386C50.4897 89.826 50.9191 89.3873 51.4604 89.07C52.0111 88.7433 52.6271 88.58 53.3084 88.58C53.9991 88.58 54.6104 88.7387 55.1424 89.056C55.6837 89.364 56.1084 89.8027 56.4164 90.372C56.7244 90.932 56.8784 91.5807 56.8784 92.318C56.8784 92.3647 56.8737 92.416 56.8644 92.472C56.8644 92.5187 56.8644 92.57 56.8644 92.626H50.4664V91.884H56.3324L55.9404 92.178C55.9404 91.646 55.8237 91.1747 55.5904 90.764C55.3664 90.344 55.0584 90.0173 54.6664 89.784C54.2744 89.5507 53.8217 89.434 53.3084 89.434C52.8044 89.434 52.3517 89.5507 51.9504 89.784C51.5491 90.0173 51.2364 90.344 51.0124 90.764C50.7884 91.184 50.6764 91.6647 50.6764 92.206V92.36C50.6764 92.92 50.7977 93.4147 51.0404 93.844C51.2924 94.264 51.6377 94.5953 52.0764 94.838C52.5244 95.0713 53.0331 95.188 53.6024 95.188C54.0504 95.188 54.4657 95.1087 54.8484 94.95C55.2404 94.7913 55.5764 94.5487 55.8564 94.222L56.4164 94.866C56.0897 95.258 55.6791 95.5567 55.1844 95.762C54.6991 95.9673 54.1624 96.07 53.5744 96.07ZM62.6536 88.58C63.251 88.58 63.7736 88.6967 64.2216 88.93C64.679 89.154 65.0336 89.4993 65.2856 89.966C65.547 90.4327 65.6776 91.0207 65.6776 91.73V96H64.6836V91.828C64.6836 91.0533 64.4876 90.47 64.0956 90.078C63.713 89.6767 63.1716 89.476 62.4716 89.476C61.949 89.476 61.4916 89.5833 61.0996 89.798C60.717 90.0033 60.4183 90.3067 60.2036 90.708C59.9983 91.1 59.8956 91.576 59.8956 92.136V96H58.9016V88.65H59.8536V90.666L59.6996 90.288C59.933 89.756 60.3063 89.3407 60.8196 89.042C61.333 88.734 61.9443 88.58 62.6536 88.58ZM70.6866 96.07C69.9959 96.07 69.4639 95.8833 69.0906 95.51C68.7172 95.1367 68.5306 94.6093 68.5306 93.928V87.026H69.5246V93.872C69.5246 94.3013 69.6319 94.6327 69.8466 94.866C70.0706 95.0993 70.3879 95.216 70.7986 95.216C71.2372 95.216 71.6012 95.09 71.8906 94.838L72.2406 95.552C72.0446 95.7293 71.8066 95.86 71.5266 95.944C71.2559 96.028 70.9759 96.07 70.6866 96.07ZM67.2146 89.476V88.65H71.7646V89.476H67.2146ZM78.6561 96V94.376L78.6141 94.11V91.394C78.6141 90.7687 78.4367 90.288 78.0821 89.952C77.7367 89.616 77.2187 89.448 76.5281 89.448C76.0521 89.448 75.5994 89.5273 75.1701 89.686C74.7407 89.8447 74.3767 90.0547 74.0781 90.316L73.6301 89.574C74.0034 89.2567 74.4514 89.014 74.9741 88.846C75.4967 88.6687 76.0474 88.58 76.6261 88.58C77.5781 88.58 78.3107 88.818 78.8241 89.294C79.3467 89.7607 79.6081 90.4747 79.6081 91.436V96H78.6561ZM76.1221 96.07C75.5714 96.07 75.0907 95.9813 74.6801 95.804C74.2787 95.6173 73.9707 95.3653 73.7561 95.048C73.5414 94.7213 73.4341 94.348 73.4341 93.928C73.4341 93.5453 73.5227 93.2 73.7001 92.892C73.8867 92.5747 74.1854 92.3227 74.5961 92.136C75.0161 91.94 75.5761 91.842 76.2761 91.842H78.8101V92.584H76.3041C75.5947 92.584 75.1001 92.71 74.8201 92.962C74.5494 93.214 74.4141 93.5267 74.4141 93.9C74.4141 94.32 74.5774 94.656 74.9041 94.908C75.2307 95.16 75.6881 95.286 76.2761 95.286C76.8361 95.286 77.3167 95.16 77.7181 94.908C78.1287 94.6467 78.4274 94.2733 78.6141 93.788L78.8381 94.474C78.6514 94.9593 78.3247 95.3467 77.8581 95.636C77.4007 95.9253 76.8221 96.07 76.1221 96.07ZM81.2159 98.786C80.9172 98.786 80.6325 98.744 80.3619 98.66C80.0819 98.5853 79.8485 98.4687 79.6619 98.31L80.0119 97.554C80.3105 97.806 80.6932 97.932 81.1599 97.932C81.5519 97.932 81.8505 97.8153 82.0559 97.582C82.2705 97.3487 82.3779 97.0033 82.3779 96.546V88.65H83.3719V96.546C83.3719 97.2273 83.1852 97.7687 82.8119 98.17C82.4479 98.5807 81.9159 98.786 81.2159 98.786ZM82.8819 87.026C82.6765 87.026 82.5039 86.956 82.3639 86.816C82.2239 86.676 82.1539 86.508 82.1539 86.312C82.1539 86.116 82.2239 85.9527 82.3639 85.822C82.5039 85.682 82.6765 85.612 82.8819 85.612C83.0872 85.612 83.2599 85.6773 83.3999 85.808C83.5399 85.9387 83.6099 86.102 83.6099 86.298C83.6099 86.5033 83.5399 86.676 83.3999 86.816C83.2692 86.956 83.0965 87.026 82.8819 87.026ZM90.7557 96V94.376L90.7137 94.11V91.394C90.7137 90.7687 90.5363 90.288 90.1817 89.952C89.8363 89.616 89.3183 89.448 88.6277 89.448C88.1517 89.448 87.699 89.5273 87.2697 89.686C86.8403 89.8447 86.4763 90.0547 86.1777 90.316L85.7297 89.574C86.103 89.2567 86.551 89.014 87.0737 88.846C87.5963 88.6687 88.147 88.58 88.7257 88.58C89.6777 88.58 90.4103 88.818 90.9237 89.294C91.4463 89.7607 91.7077 90.4747 91.7077 91.436V96H90.7557ZM88.2217 96.07C87.671 96.07 87.1903 95.9813 86.7797 95.804C86.3783 95.6173 86.0703 95.3653 85.8557 95.048C85.641 94.7213 85.5337 94.348 85.5337 93.928C85.5337 93.5453 85.6223 93.2 85.7997 92.892C85.9863 92.5747 86.285 92.3227 86.6957 92.136C87.1157 91.94 87.6757 91.842 88.3757 91.842H90.9097V92.584H88.4037C87.6943 92.584 87.1997 92.71 86.9197 92.962C86.649 93.214 86.5137 93.5267 86.5137 93.9C86.5137 94.32 86.677 94.656 87.0037 94.908C87.3303 95.16 87.7877 95.286 88.3757 95.286C88.9357 95.286 89.4163 95.16 89.8177 94.908C90.2283 94.6467 90.527 94.2733 90.7137 93.788L90.9377 94.474C90.751 94.9593 90.4243 95.3467 89.9577 95.636C89.5003 95.9253 88.9217 96.07 88.2217 96.07Z" fill="#A2C33D"/>
<path d="M106 102L1 102" stroke="#A2C33D"/>
<path d="M119.382 45L115.042 35.2H116.162L120.222 44.426H119.606L123.694 35.2H124.744L120.404 45H119.382ZM128.518 45.07C127.752 45.07 127.08 44.9113 126.502 44.594C125.923 44.2673 125.47 43.824 125.144 43.264C124.817 42.6947 124.654 42.046 124.654 41.318C124.654 40.59 124.808 39.946 125.116 39.386C125.433 38.826 125.862 38.3873 126.404 38.07C126.954 37.7433 127.57 37.58 128.252 37.58C128.942 37.58 129.554 37.7387 130.086 38.056C130.627 38.364 131.052 38.8027 131.36 39.372C131.668 39.932 131.822 40.5807 131.822 41.318C131.822 41.3647 131.817 41.416 131.808 41.472C131.808 41.5187 131.808 41.57 131.808 41.626H125.41V40.884H131.276L130.884 41.178C130.884 40.646 130.767 40.1747 130.534 39.764C130.31 39.344 130.002 39.0173 129.61 38.784C129.218 38.5507 128.765 38.434 128.252 38.434C127.748 38.434 127.295 38.5507 126.894 38.784C126.492 39.0173 126.18 39.344 125.956 39.764C125.732 40.184 125.62 40.6647 125.62 41.206V41.36C125.62 41.92 125.741 42.4147 125.984 42.844C126.236 43.264 126.581 43.5953 127.02 43.838C127.468 44.0713 127.976 44.188 128.546 44.188C128.994 44.188 129.409 44.1087 129.792 43.95C130.184 43.7913 130.52 43.5487 130.8 43.222L131.36 43.866C131.033 44.258 130.622 44.5567 130.128 44.762C129.642 44.9673 129.106 45.07 128.518 45.07ZM137.597 37.58C138.194 37.58 138.717 37.6967 139.165 37.93C139.622 38.154 139.977 38.4993 140.229 38.966C140.49 39.4327 140.621 40.0207 140.621 40.73V45H139.627V40.828C139.627 40.0533 139.431 39.47 139.039 39.078C138.656 38.6767 138.115 38.476 137.415 38.476C136.892 38.476 136.435 38.5833 136.043 38.798C135.66 39.0033 135.362 39.3067 135.147 39.708C134.942 40.1 134.839 40.576 134.839 41.136V45H133.845V37.65H134.797V39.666L134.643 39.288C134.876 38.756 135.25 38.3407 135.763 38.042C136.276 37.734 136.888 37.58 137.597 37.58ZM146.232 45.07C145.532 45.07 144.902 44.9113 144.342 44.594C143.791 44.2767 143.357 43.838 143.04 43.278C142.723 42.7087 142.564 42.0553 142.564 41.318C142.564 40.5713 142.723 39.918 143.04 39.358C143.357 38.798 143.791 38.364 144.342 38.056C144.902 37.7387 145.532 37.58 146.232 37.58C146.876 37.58 147.45 37.7247 147.954 38.014C148.467 38.3033 148.873 38.728 149.172 39.288C149.48 39.8387 149.634 40.5153 149.634 41.318C149.634 42.1113 149.485 42.788 149.186 43.348C148.887 43.908 148.481 44.3373 147.968 44.636C147.464 44.9253 146.885 45.07 146.232 45.07ZM146.302 44.188C146.825 44.188 147.291 44.0713 147.702 43.838C148.122 43.5953 148.449 43.2593 148.682 42.83C148.925 42.3913 149.046 41.8873 149.046 41.318C149.046 40.7393 148.925 40.2353 148.682 39.806C148.449 39.3767 148.122 39.0453 147.702 38.812C147.291 38.5693 146.825 38.448 146.302 38.448C145.789 38.448 145.327 38.5693 144.916 38.812C144.505 39.0453 144.179 39.3767 143.936 39.806C143.693 40.2353 143.572 40.7393 143.572 41.318C143.572 41.8873 143.693 42.3913 143.936 42.83C144.179 43.2593 144.505 43.5953 144.916 43.838C145.327 44.0713 145.789 44.188 146.302 44.188ZM149.074 45V42.788L149.172 41.304L149.032 39.82V34.612H150.026V45H149.074ZM155.916 45.07C155.151 45.07 154.479 44.9113 153.9 44.594C153.322 44.2673 152.869 43.824 152.542 43.264C152.216 42.6947 152.052 42.046 152.052 41.318C152.052 40.59 152.206 39.946 152.514 39.386C152.832 38.826 153.261 38.3873 153.802 38.07C154.353 37.7433 154.969 37.58 155.65 37.58C156.341 37.58 156.952 37.7387 157.484 38.056C158.026 38.364 158.45 38.8027 158.758 39.372C159.066 39.932 159.22 40.5807 159.22 41.318C159.22 41.3647 159.216 41.416 159.206 41.472C159.206 41.5187 159.206 41.57 159.206 41.626H152.808V40.884H158.674L158.282 41.178C158.282 40.646 158.166 40.1747 157.932 39.764C157.708 39.344 157.4 39.0173 157.008 38.784C156.616 38.5507 156.164 38.434 155.65 38.434C155.146 38.434 154.694 38.5507 154.292 38.784C153.891 39.0173 153.578 39.344 153.354 39.764C153.13 40.184 153.018 40.6647 153.018 41.206V41.36C153.018 41.92 153.14 42.4147 153.382 42.844C153.634 43.264 153.98 43.5953 154.418 43.838C154.866 44.0713 155.375 44.188 155.944 44.188C156.392 44.188 156.808 44.1087 157.19 43.95C157.582 43.7913 157.918 43.5487 158.198 43.222L158.758 43.866C158.432 44.258 158.021 44.5567 157.526 44.762C157.041 44.9673 156.504 45.07 155.916 45.07ZM163.217 45.07C162.611 45.07 162.037 44.986 161.495 44.818C160.954 44.6407 160.529 44.4213 160.221 44.16L160.669 43.376C160.968 43.6 161.351 43.796 161.817 43.964C162.284 44.1227 162.774 44.202 163.287 44.202C163.987 44.202 164.491 44.0947 164.799 43.88C165.107 43.656 165.261 43.362 165.261 42.998C165.261 42.7273 165.173 42.5173 164.995 42.368C164.827 42.2093 164.603 42.0927 164.323 42.018C164.043 41.934 163.731 41.864 163.385 41.808C163.04 41.752 162.695 41.6867 162.349 41.612C162.013 41.5373 161.705 41.43 161.425 41.29C161.145 41.1407 160.917 40.94 160.739 40.688C160.571 40.436 160.487 40.1 160.487 39.68C160.487 39.2787 160.599 38.9193 160.823 38.602C161.047 38.2847 161.374 38.0373 161.803 37.86C162.242 37.6733 162.774 37.58 163.399 37.58C163.875 37.58 164.351 37.6453 164.827 37.776C165.303 37.8973 165.695 38.0607 166.003 38.266L165.569 39.064C165.243 38.84 164.893 38.6813 164.519 38.588C164.146 38.4853 163.773 38.434 163.399 38.434C162.737 38.434 162.247 38.5507 161.929 38.784C161.621 39.008 161.467 39.2973 161.467 39.652C161.467 39.932 161.551 40.1513 161.719 40.31C161.897 40.4687 162.125 40.5947 162.405 40.688C162.695 40.772 163.007 40.842 163.343 40.898C163.689 40.954 164.029 41.024 164.365 41.108C164.711 41.1827 165.023 41.29 165.303 41.43C165.593 41.5607 165.821 41.752 165.989 42.004C166.167 42.2467 166.255 42.5687 166.255 42.97C166.255 43.3993 166.134 43.7727 165.891 44.09C165.658 44.398 165.313 44.6407 164.855 44.818C164.407 44.986 163.861 45.07 163.217 45.07ZM171.911 45V36.726C171.911 36.0727 172.103 35.5453 172.485 35.144C172.868 34.7427 173.419 34.542 174.137 34.542C174.417 34.542 174.688 34.5793 174.949 34.654C175.211 34.7287 175.43 34.8453 175.607 35.004L175.271 35.746C175.131 35.6247 174.968 35.536 174.781 35.48C174.595 35.4147 174.394 35.382 174.179 35.382C173.759 35.382 173.437 35.4987 173.213 35.732C172.989 35.9653 172.877 36.3107 172.877 36.768V37.888L172.905 38.35V45H171.911ZM170.595 38.476V37.65H175.145V38.476H170.595ZM179.526 45.07C178.9 45.07 178.354 44.9533 177.888 44.72C177.421 44.4867 177.057 44.1367 176.796 43.67C176.544 43.2033 176.418 42.62 176.418 41.92V37.65H177.412V41.808C177.412 42.592 177.603 43.1847 177.986 43.586C178.378 43.978 178.924 44.174 179.624 44.174C180.137 44.174 180.58 44.0713 180.954 43.866C181.336 43.6513 181.626 43.3433 181.822 42.942C182.027 42.5407 182.13 42.06 182.13 41.5V37.65H183.124V45H182.172V42.984L182.326 43.348C182.092 43.8893 181.728 44.314 181.234 44.622C180.748 44.9207 180.179 45.07 179.526 45.07ZM188.218 45.07C187.527 45.07 186.995 44.8833 186.622 44.51C186.248 44.1367 186.062 43.6093 186.062 42.928V36.026H187.056V42.872C187.056 43.3013 187.163 43.6327 187.378 43.866C187.602 44.0993 187.919 44.216 188.33 44.216C188.768 44.216 189.132 44.09 189.422 43.838L189.772 44.552C189.576 44.7293 189.338 44.86 189.058 44.944C188.787 45.028 188.507 45.07 188.218 45.07ZM184.746 38.476V37.65H189.296V38.476H184.746ZM194.619 45.07C193.994 45.07 193.448 44.9533 192.981 44.72C192.515 44.4867 192.151 44.1367 191.889 43.67C191.637 43.2033 191.511 42.62 191.511 41.92V37.65H192.505V41.808C192.505 42.592 192.697 43.1847 193.079 43.586C193.471 43.978 194.017 44.174 194.717 44.174C195.231 44.174 195.674 44.0713 196.047 43.866C196.43 43.6513 196.719 43.3433 196.915 42.942C197.121 42.5407 197.223 42.06 197.223 41.5V37.65H198.217V45H197.265V42.984L197.419 43.348C197.186 43.8893 196.822 44.314 196.327 44.622C195.842 44.9207 195.273 45.07 194.619 45.07ZM200.988 45V37.65H201.94V39.652L201.842 39.302C202.047 38.742 202.392 38.3173 202.878 38.028C203.363 37.7293 203.965 37.58 204.684 37.58V38.546C204.646 38.546 204.609 38.546 204.572 38.546C204.534 38.5367 204.497 38.532 204.46 38.532C203.685 38.532 203.078 38.77 202.64 39.246C202.201 39.7127 201.982 40.38 201.982 41.248V45H200.988ZM209.425 45.07C208.716 45.07 208.076 44.9113 207.507 44.594C206.947 44.2673 206.504 43.824 206.177 43.264C205.85 42.6947 205.687 42.046 205.687 41.318C205.687 40.5807 205.85 39.932 206.177 39.372C206.504 38.812 206.947 38.3733 207.507 38.056C208.067 37.7387 208.706 37.58 209.425 37.58C210.153 37.58 210.797 37.7387 211.357 38.056C211.926 38.3733 212.37 38.812 212.687 39.372C213.014 39.932 213.177 40.5807 213.177 41.318C213.177 42.046 213.014 42.6947 212.687 43.264C212.37 43.824 211.926 44.2673 211.357 44.594C210.788 44.9113 210.144 45.07 209.425 45.07ZM209.425 44.188C209.957 44.188 210.428 44.0713 210.839 43.838C211.25 43.5953 211.572 43.2593 211.805 42.83C212.048 42.3913 212.169 41.8873 212.169 41.318C212.169 40.7393 212.048 40.2353 211.805 39.806C211.572 39.3767 211.25 39.0453 210.839 38.812C210.428 38.5693 209.962 38.448 209.439 38.448C208.916 38.448 208.45 38.5693 208.039 38.812C207.628 39.0453 207.302 39.3767 207.059 39.806C206.816 40.2353 206.695 40.7393 206.695 41.318C206.695 41.8873 206.816 42.3913 207.059 42.83C207.302 43.2593 207.628 43.5953 208.039 43.838C208.45 44.0713 208.912 44.188 209.425 44.188ZM217.18 45.07C216.574 45.07 216 44.986 215.458 44.818C214.917 44.6407 214.492 44.4213 214.184 44.16L214.632 43.376C214.931 43.6 215.314 43.796 215.78 43.964C216.247 44.1227 216.737 44.202 217.25 44.202C217.95 44.202 218.454 44.0947 218.762 43.88C219.07 43.656 219.224 43.362 219.224 42.998C219.224 42.7273 219.136 42.5173 218.958 42.368C218.79 42.2093 218.566 42.0927 218.286 42.018C218.006 41.934 217.694 41.864 217.348 41.808C217.003 41.752 216.658 41.6867 216.312 41.612C215.976 41.5373 215.668 41.43 215.388 41.29C215.108 41.1407 214.88 40.94 214.702 40.688C214.534 40.436 214.45 40.1 214.45 39.68C214.45 39.2787 214.562 38.9193 214.786 38.602C215.01 38.2847 215.337 38.0373 215.766 37.86C216.205 37.6733 216.737 37.58 217.362 37.58C217.838 37.58 218.314 37.6453 218.79 37.776C219.266 37.8973 219.658 38.0607 219.966 38.266L219.532 39.064C219.206 38.84 218.856 38.6813 218.482 38.588C218.109 38.4853 217.736 38.434 217.362 38.434C216.7 38.434 216.21 38.5507 215.892 38.784C215.584 39.008 215.43 39.2973 215.43 39.652C215.43 39.932 215.514 40.1513 215.682 40.31C215.86 40.4687 216.088 40.5947 216.368 40.688C216.658 40.772 216.97 40.842 217.306 40.898C217.652 40.954 217.992 41.024 218.328 41.108C218.674 41.1827 218.986 41.29 219.266 41.43C219.556 41.5607 219.784 41.752 219.952 42.004C220.13 42.2467 220.218 42.5687 220.218 42.97C220.218 43.3993 220.097 43.7727 219.854 44.09C219.621 44.398 219.276 44.6407 218.818 44.818C218.37 44.986 217.824 45.07 217.18 45.07ZM230.312 45V43.376L230.27 43.11V40.394C230.27 39.7687 230.093 39.288 229.738 38.952C229.393 38.616 228.875 38.448 228.184 38.448C227.708 38.448 227.256 38.5273 226.826 38.686C226.397 38.8447 226.033 39.0547 225.734 39.316L225.286 38.574C225.66 38.2567 226.108 38.014 226.63 37.846C227.153 37.6687 227.704 37.58 228.282 37.58C229.234 37.58 229.967 37.818 230.48 38.294C231.003 38.7607 231.264 39.4747 231.264 40.436V45H230.312ZM227.778 45.07C227.228 45.07 226.747 44.9813 226.336 44.804C225.935 44.6173 225.627 44.3653 225.412 44.048C225.198 43.7213 225.09 43.348 225.09 42.928C225.09 42.5453 225.179 42.2 225.356 41.892C225.543 41.5747 225.842 41.3227 226.252 41.136C226.672 40.94 227.232 40.842 227.932 40.842H230.466V41.584H227.96C227.251 41.584 226.756 41.71 226.476 41.962C226.206 42.214 226.07 42.5267 226.07 42.9C226.07 43.32 226.234 43.656 226.56 43.908C226.887 44.16 227.344 44.286 227.932 44.286C228.492 44.286 228.973 44.16 229.374 43.908C229.785 43.6467 230.084 43.2733 230.27 42.788L230.494 43.474C230.308 43.9593 229.981 44.3467 229.514 44.636C229.057 44.9253 228.478 45.07 227.778 45.07ZM240.75 45.07C239.985 45.07 239.313 44.9113 238.734 44.594C238.156 44.2673 237.703 43.824 237.376 43.264C237.05 42.6947 236.886 42.046 236.886 41.318C236.886 40.59 237.04 39.946 237.348 39.386C237.666 38.826 238.095 38.3873 238.636 38.07C239.187 37.7433 239.803 37.58 240.484 37.58C241.175 37.58 241.786 37.7387 242.318 38.056C242.86 38.364 243.284 38.8027 243.592 39.372C243.9 39.932 244.054 40.5807 244.054 41.318C244.054 41.3647 244.05 41.416 244.04 41.472C244.04 41.5187 244.04 41.57 244.04 41.626H237.642V40.884H243.508L243.116 41.178C243.116 40.646 243 40.1747 242.766 39.764C242.542 39.344 242.234 39.0173 241.842 38.784C241.45 38.5507 240.998 38.434 240.484 38.434C239.98 38.434 239.528 38.5507 239.126 38.784C238.725 39.0173 238.412 39.344 238.188 39.764C237.964 40.184 237.852 40.6647 237.852 41.206V41.36C237.852 41.92 237.974 42.4147 238.216 42.844C238.468 43.264 238.814 43.5953 239.252 43.838C239.7 44.0713 240.209 44.188 240.778 44.188C241.226 44.188 241.642 44.1087 242.024 43.95C242.416 43.7913 242.752 43.5487 243.032 43.222L243.592 43.866C243.266 44.258 242.855 44.5567 242.36 44.762C241.875 44.9673 241.338 45.07 240.75 45.07ZM248.051 45.07C247.445 45.07 246.871 44.986 246.329 44.818C245.788 44.6407 245.363 44.4213 245.055 44.16L245.503 43.376C245.802 43.6 246.185 43.796 246.651 43.964C247.118 44.1227 247.608 44.202 248.121 44.202C248.821 44.202 249.325 44.0947 249.633 43.88C249.941 43.656 250.095 43.362 250.095 42.998C250.095 42.7273 250.007 42.5173 249.829 42.368C249.661 42.2093 249.437 42.0927 249.157 42.018C248.877 41.934 248.565 41.864 248.219 41.808C247.874 41.752 247.529 41.6867 247.183 41.612C246.847 41.5373 246.539 41.43 246.259 41.29C245.979 41.1407 245.751 40.94 245.573 40.688C245.405 40.436 245.321 40.1 245.321 39.68C245.321 39.2787 245.433 38.9193 245.657 38.602C245.881 38.2847 246.208 38.0373 246.637 37.86C247.076 37.6733 247.608 37.58 248.233 37.58C248.709 37.58 249.185 37.6453 249.661 37.776C250.137 37.8973 250.529 38.0607 250.837 38.266L250.403 39.064C250.077 38.84 249.727 38.6813 249.353 38.588C248.98 38.4853 248.607 38.434 248.233 38.434C247.571 38.434 247.081 38.5507 246.763 38.784C246.455 39.008 246.301 39.2973 246.301 39.652C246.301 39.932 246.385 40.1513 246.553 40.31C246.731 40.4687 246.959 40.5947 247.239 40.688C247.529 40.772 247.841 40.842 248.177 40.898C248.523 40.954 248.863 41.024 249.199 41.108C249.545 41.1827 249.857 41.29 250.137 41.43C250.427 41.5607 250.655 41.752 250.823 42.004C251.001 42.2467 251.089 42.5687 251.089 42.97C251.089 43.3993 250.968 43.7727 250.725 44.09C250.492 44.398 250.147 44.6407 249.689 44.818C249.241 44.986 248.695 45.07 248.051 45.07ZM255.237 45.07C254.547 45.07 254.015 44.8833 253.641 44.51C253.268 44.1367 253.081 43.6093 253.081 42.928V36.026H254.075V42.872C254.075 43.3013 254.183 43.6327 254.397 43.866C254.621 44.0993 254.939 44.216 255.349 44.216C255.788 44.216 256.152 44.09 256.441 43.838L256.791 44.552C256.595 44.7293 256.357 44.86 256.077 44.944C255.807 45.028 255.527 45.07 255.237 45.07ZM251.765 38.476V37.65H256.315V38.476H251.765ZM261.463 45.07C260.698 45.07 260.026 44.9113 259.447 44.594C258.868 44.2673 258.416 43.824 258.089 43.264C257.762 42.6947 257.599 42.046 257.599 41.318C257.599 40.59 257.753 39.946 258.061 39.386C258.378 38.826 258.808 38.3873 259.349 38.07C259.9 37.7433 260.516 37.58 261.197 37.58C261.888 37.58 262.499 37.7387 263.031 38.056C263.572 38.364 263.997 38.8027 264.305 39.372C264.613 39.932 264.767 40.5807 264.767 41.318C264.767 41.3647 264.762 41.416 264.753 41.472C264.753 41.5187 264.753 41.57 264.753 41.626H258.355V40.884H264.221L263.829 41.178C263.829 40.646 263.712 40.1747 263.479 39.764C263.255 39.344 262.947 39.0173 262.555 38.784C262.163 38.5507 261.71 38.434 261.197 38.434C260.693 38.434 260.24 38.5507 259.839 38.784C259.438 39.0173 259.125 39.344 258.901 39.764C258.677 40.184 258.565 40.6647 258.565 41.206V41.36C258.565 41.92 258.686 42.4147 258.929 42.844C259.181 43.264 259.526 43.5953 259.965 43.838C260.413 44.0713 260.922 44.188 261.491 44.188C261.939 44.188 262.354 44.1087 262.737 43.95C263.129 43.7913 263.465 43.5487 263.745 43.222L264.305 43.866C263.978 44.258 263.568 44.5567 263.073 44.762C262.588 44.9673 262.051 45.07 261.463 45.07ZM120.18 68.07C119.545 68.07 118.971 67.9253 118.458 67.636C117.945 67.3373 117.534 66.9127 117.226 66.362C116.927 65.802 116.778 65.1207 116.778 64.318C116.778 63.5153 116.927 62.8387 117.226 62.288C117.525 61.728 117.931 61.3033 118.444 61.014C118.957 60.7247 119.536 60.58 120.18 60.58C120.88 60.58 121.505 60.7387 122.056 61.056C122.616 61.364 123.055 61.8027 123.372 62.372C123.689 62.932 123.848 63.5807 123.848 64.318C123.848 65.0647 123.689 65.718 123.372 66.278C123.055 66.838 122.616 67.2767 122.056 67.594C121.505 67.9113 120.88 68.07 120.18 68.07ZM116.386 70.716V60.65H117.338V62.862L117.24 64.332L117.38 65.816V70.716H116.386ZM120.11 67.188C120.633 67.188 121.099 67.0713 121.51 66.838C121.921 66.5953 122.247 66.2593 122.49 65.83C122.733 65.3913 122.854 64.8873 122.854 64.318C122.854 63.7487 122.733 63.2493 122.49 62.82C122.247 62.3907 121.921 62.0547 121.51 61.812C121.099 61.5693 120.633 61.448 120.11 61.448C119.587 61.448 119.116 61.5693 118.696 61.812C118.285 62.0547 117.959 62.3907 117.716 62.82C117.483 63.2493 117.366 63.7487 117.366 64.318C117.366 64.8873 117.483 65.3913 117.716 65.83C117.959 66.2593 118.285 66.5953 118.696 66.838C119.116 67.0713 119.587 67.188 120.11 67.188ZM125.874 68V60.65H126.826V62.652L126.728 62.302C126.934 61.742 127.279 61.3173 127.764 61.028C128.25 60.7293 128.852 60.58 129.57 60.58V61.546C129.533 61.546 129.496 61.546 129.458 61.546C129.421 61.5367 129.384 61.532 129.346 61.532C128.572 61.532 127.965 61.77 127.526 62.246C127.088 62.7127 126.868 63.38 126.868 64.248V68H125.874ZM134.438 68.07C133.672 68.07 133 67.9113 132.422 67.594C131.843 67.2673 131.39 66.824 131.064 66.264C130.737 65.6947 130.574 65.046 130.574 64.318C130.574 63.59 130.728 62.946 131.036 62.386C131.353 61.826 131.782 61.3873 132.324 61.07C132.874 60.7433 133.49 60.58 134.172 60.58C134.862 60.58 135.474 60.7387 136.006 61.056C136.547 61.364 136.972 61.8027 137.28 62.372C137.588 62.932 137.742 63.5807 137.742 64.318C137.742 64.3647 137.737 64.416 137.728 64.472C137.728 64.5187 137.728 64.57 137.728 64.626H131.33V63.884H137.196L136.804 64.178C136.804 63.646 136.687 63.1747 136.454 62.764C136.23 62.344 135.922 62.0173 135.53 61.784C135.138 61.5507 134.685 61.434 134.172 61.434C133.668 61.434 133.215 61.5507 132.814 61.784C132.412 62.0173 132.1 62.344 131.876 62.764C131.652 63.184 131.54 63.6647 131.54 64.206V64.36C131.54 64.92 131.661 65.4147 131.904 65.844C132.156 66.264 132.501 66.5953 132.94 66.838C133.388 67.0713 133.896 67.188 134.466 67.188C134.914 67.188 135.329 67.1087 135.712 66.95C136.104 66.7913 136.44 66.5487 136.72 66.222L137.28 66.866C136.953 67.258 136.542 67.5567 136.048 67.762C135.562 67.9673 135.026 68.07 134.438 68.07ZM142.817 68.07C142.089 68.07 141.436 67.9113 140.857 67.594C140.288 67.2673 139.84 66.824 139.513 66.264C139.186 65.6947 139.023 65.046 139.023 64.318C139.023 63.5807 139.186 62.932 139.513 62.372C139.84 61.812 140.288 61.3733 140.857 61.056C141.436 60.7387 142.089 60.58 142.817 60.58C143.442 60.58 144.007 60.7013 144.511 60.944C145.015 61.1867 145.412 61.5507 145.701 62.036L144.959 62.54C144.707 62.1667 144.394 61.8913 144.021 61.714C143.648 61.5367 143.242 61.448 142.803 61.448C142.28 61.448 141.809 61.5693 141.389 61.812C140.969 62.0453 140.638 62.3767 140.395 62.806C140.152 63.2353 140.031 63.7393 140.031 64.318C140.031 64.8967 140.152 65.4007 140.395 65.83C140.638 66.2593 140.969 66.5953 141.389 66.838C141.809 67.0713 142.28 67.188 142.803 67.188C143.242 67.188 143.648 67.0993 144.021 66.922C144.394 66.7447 144.707 66.474 144.959 66.11L145.701 66.614C145.412 67.09 145.015 67.454 144.511 67.706C144.007 67.9487 143.442 68.07 142.817 68.07ZM147.544 68V60.65H148.538V68H147.544ZM148.048 59.026C147.843 59.026 147.67 58.956 147.53 58.816C147.39 58.676 147.32 58.508 147.32 58.312C147.32 58.116 147.39 57.9527 147.53 57.822C147.67 57.682 147.843 57.612 148.048 57.612C148.254 57.612 148.426 57.6773 148.566 57.808C148.706 57.9387 148.776 58.102 148.776 58.298C148.776 58.5033 148.706 58.676 148.566 58.816C148.436 58.956 148.263 59.026 148.048 59.026ZM154.3 68.07C153.591 68.07 152.951 67.9113 152.382 67.594C151.822 67.2673 151.379 66.824 151.052 66.264C150.725 65.6947 150.562 65.046 150.562 64.318C150.562 63.5807 150.725 62.932 151.052 62.372C151.379 61.812 151.822 61.3733 152.382 61.056C152.942 60.7387 153.581 60.58 154.3 60.58C155.028 60.58 155.672 60.7387 156.232 61.056C156.801 61.3733 157.245 61.812 157.562 62.372C157.889 62.932 158.052 63.5807 158.052 64.318C158.052 65.046 157.889 65.6947 157.562 66.264C157.245 66.824 156.801 67.2673 156.232 67.594C155.663 67.9113 155.019 68.07 154.3 68.07ZM154.3 67.188C154.832 67.188 155.303 67.0713 155.714 66.838C156.125 66.5953 156.447 66.2593 156.68 65.83C156.923 65.3913 157.044 64.8873 157.044 64.318C157.044 63.7393 156.923 63.2353 156.68 62.806C156.447 62.3767 156.125 62.0453 155.714 61.812C155.303 61.5693 154.837 61.448 154.314 61.448C153.791 61.448 153.325 61.5693 152.914 61.812C152.503 62.0453 152.177 62.3767 151.934 62.806C151.691 63.2353 151.57 63.7393 151.57 64.318C151.57 64.8873 151.691 65.3913 151.934 65.83C152.177 66.2593 152.503 66.5953 152.914 66.838C153.325 67.0713 153.787 67.188 154.3 67.188Z" fill="#214B33"/>
<path d="M156 71L287 71" stroke="#214B33"/>
<path d="M144 23L290 23" stroke="#BC0051"/>
<path d="M100.596 17V7.2H104.264C105.095 7.2 105.809 7.33533 106.406 7.606C107.003 7.86733 107.461 8.25 107.778 8.754C108.105 9.24867 108.268 9.85067 108.268 10.56C108.268 11.2507 108.105 11.848 107.778 12.352C107.461 12.8467 107.003 13.2293 106.406 13.5C105.809 13.7707 105.095 13.906 104.264 13.906H101.17L101.632 13.416V17H100.596ZM101.632 13.5L101.17 12.996H104.236C105.216 12.996 105.958 12.786 106.462 12.366C106.975 11.9367 107.232 11.3347 107.232 10.56C107.232 9.776 106.975 9.16933 106.462 8.74C105.958 8.31067 105.216 8.096 104.236 8.096H101.17L101.632 7.606V13.5ZM110.12 17V9.65H111.072V11.652L110.974 11.302C111.18 10.742 111.525 10.3173 112.01 10.028C112.496 9.72933 113.098 9.58 113.816 9.58V10.546C113.779 10.546 113.742 10.546 113.704 10.546C113.667 10.5367 113.63 10.532 113.592 10.532C112.818 10.532 112.211 10.77 111.772 11.246C111.334 11.7127 111.114 12.38 111.114 13.248V17H110.12ZM118.684 17.07C117.918 17.07 117.246 16.9113 116.668 16.594C116.089 16.2673 115.636 15.824 115.31 15.264C114.983 14.6947 114.82 14.046 114.82 13.318C114.82 12.59 114.974 11.946 115.282 11.386C115.599 10.826 116.028 10.3873 116.57 10.07C117.12 9.74333 117.736 9.58 118.418 9.58C119.108 9.58 119.72 9.73867 120.252 10.056C120.793 10.364 121.218 10.8027 121.526 11.372C121.834 11.932 121.988 12.5807 121.988 13.318C121.988 13.3647 121.983 13.416 121.974 13.472C121.974 13.5187 121.974 13.57 121.974 13.626H115.576V12.884H121.442L121.05 13.178C121.05 12.646 120.933 12.1747 120.7 11.764C120.476 11.344 120.168 11.0173 119.776 10.784C119.384 10.5507 118.931 10.434 118.418 10.434C117.914 10.434 117.461 10.5507 117.06 10.784C116.658 11.0173 116.346 11.344 116.122 11.764C115.898 12.184 115.786 12.6647 115.786 13.206V13.36C115.786 13.92 115.907 14.4147 116.15 14.844C116.402 15.264 116.747 15.5953 117.186 15.838C117.634 16.0713 118.142 16.188 118.712 16.188C119.16 16.188 119.575 16.1087 119.958 15.95C120.35 15.7913 120.686 15.5487 120.966 15.222L121.526 15.866C121.199 16.258 120.788 16.5567 120.294 16.762C119.808 16.9673 119.272 17.07 118.684 17.07ZM127.063 17.07C126.335 17.07 125.682 16.9113 125.103 16.594C124.534 16.2673 124.086 15.824 123.759 15.264C123.432 14.6947 123.269 14.046 123.269 13.318C123.269 12.5807 123.432 11.932 123.759 11.372C124.086 10.812 124.534 10.3733 125.103 10.056C125.682 9.73867 126.335 9.58 127.063 9.58C127.688 9.58 128.253 9.70133 128.757 9.944C129.261 10.1867 129.658 10.5507 129.947 11.036L129.205 11.54C128.953 11.1667 128.64 10.8913 128.267 10.714C127.894 10.5367 127.488 10.448 127.049 10.448C126.526 10.448 126.055 10.5693 125.635 10.812C125.215 11.0453 124.884 11.3767 124.641 11.806C124.398 12.2353 124.277 12.7393 124.277 13.318C124.277 13.8967 124.398 14.4007 124.641 14.83C124.884 15.2593 125.215 15.5953 125.635 15.838C126.055 16.0713 126.526 16.188 127.049 16.188C127.488 16.188 127.894 16.0993 128.267 15.922C128.64 15.7447 128.953 15.474 129.205 15.11L129.947 15.614C129.658 16.09 129.261 16.454 128.757 16.706C128.253 16.9487 127.688 17.07 127.063 17.07ZM131.79 17V9.65H132.784V17H131.79ZM132.294 8.026C132.089 8.026 131.916 7.956 131.776 7.816C131.636 7.676 131.566 7.508 131.566 7.312C131.566 7.116 131.636 6.95267 131.776 6.822C131.916 6.682 132.089 6.612 132.294 6.612C132.5 6.612 132.672 6.67733 132.812 6.808C132.952 6.93867 133.022 7.102 133.022 7.298C133.022 7.50333 132.952 7.676 132.812 7.816C132.682 7.956 132.509 8.026 132.294 8.026ZM138.546 17.07C137.837 17.07 137.197 16.9113 136.628 16.594C136.068 16.2673 135.625 15.824 135.298 15.264C134.971 14.6947 134.808 14.046 134.808 13.318C134.808 12.5807 134.971 11.932 135.298 11.372C135.625 10.812 136.068 10.3733 136.628 10.056C137.188 9.73867 137.827 9.58 138.546 9.58C139.274 9.58 139.918 9.73867 140.478 10.056C141.047 10.3733 141.491 10.812 141.808 11.372C142.135 11.932 142.298 12.5807 142.298 13.318C142.298 14.046 142.135 14.6947 141.808 15.264C141.491 15.824 141.047 16.2673 140.478 16.594C139.909 16.9113 139.265 17.07 138.546 17.07ZM138.546 16.188C139.078 16.188 139.549 16.0713 139.96 15.838C140.371 15.5953 140.693 15.2593 140.926 14.83C141.169 14.3913 141.29 13.8873 141.29 13.318C141.29 12.7393 141.169 12.2353 140.926 11.806C140.693 11.3767 140.371 11.0453 139.96 10.812C139.549 10.5693 139.083 10.448 138.56 10.448C138.037 10.448 137.571 10.5693 137.16 10.812C136.749 11.0453 136.423 11.3767 136.18 11.806C135.937 12.2353 135.816 12.7393 135.816 13.318C135.816 13.8873 135.937 14.3913 136.18 14.83C136.423 15.2593 136.749 15.5953 137.16 15.838C137.571 16.0713 138.033 16.188 138.546 16.188ZM150.917 17.07C150.217 17.07 149.587 16.9113 149.027 16.594C148.477 16.2767 148.043 15.838 147.725 15.278C147.408 14.7087 147.249 14.0553 147.249 13.318C147.249 12.5713 147.408 11.918 147.725 11.358C148.043 10.798 148.477 10.364 149.027 10.056C149.587 9.73867 150.217 9.58 150.917 9.58C151.561 9.58 152.135 9.72467 152.639 10.014C153.153 10.3033 153.559 10.728 153.857 11.288C154.165 11.8387 154.319 12.5153 154.319 13.318C154.319 14.1113 154.17 14.788 153.871 15.348C153.573 15.908 153.167 16.3373 152.653 16.636C152.149 16.9253 151.571 17.07 150.917 17.07ZM150.987 16.188C151.51 16.188 151.977 16.0713 152.387 15.838C152.807 15.5953 153.134 15.2593 153.367 14.83C153.61 14.3913 153.731 13.8873 153.731 13.318C153.731 12.7393 153.61 12.2353 153.367 11.806C153.134 11.3767 152.807 11.0453 152.387 10.812C151.977 10.5693 151.51 10.448 150.987 10.448C150.474 10.448 150.012 10.5693 149.601 10.812C149.191 11.0453 148.864 11.3767 148.621 11.806C148.379 12.2353 148.257 12.7393 148.257 13.318C148.257 13.8873 148.379 14.3913 148.621 14.83C148.864 15.2593 149.191 15.5953 149.601 15.838C150.012 16.0713 150.474 16.188 150.987 16.188ZM153.759 17V14.788L153.857 13.304L153.717 11.82V6.612H154.711V17H153.759ZM160.602 17.07C159.836 17.07 159.164 16.9113 158.586 16.594C158.007 16.2673 157.554 15.824 157.228 15.264C156.901 14.6947 156.738 14.046 156.738 13.318C156.738 12.59 156.892 11.946 157.2 11.386C157.517 10.826 157.946 10.3873 158.488 10.07C159.038 9.74333 159.654 9.58 160.336 9.58C161.026 9.58 161.638 9.73867 162.17 10.056C162.711 10.364 163.136 10.8027 163.444 11.372C163.752 11.932 163.906 12.5807 163.906 13.318C163.906 13.3647 163.901 13.416 163.892 13.472C163.892 13.5187 163.892 13.57 163.892 13.626H157.494V12.884H163.36L162.968 13.178C162.968 12.646 162.851 12.1747 162.618 11.764C162.394 11.344 162.086 11.0173 161.694 10.784C161.302 10.5507 160.849 10.434 160.336 10.434C159.832 10.434 159.379 10.5507 158.978 10.784C158.576 11.0173 158.264 11.344 158.04 11.764C157.816 12.184 157.704 12.6647 157.704 13.206V13.36C157.704 13.92 157.825 14.4147 158.068 14.844C158.32 15.264 158.665 15.5953 159.104 15.838C159.552 16.0713 160.06 16.188 160.63 16.188C161.078 16.188 161.493 16.1087 161.876 15.95C162.268 15.7913 162.604 15.5487 162.884 15.222L163.444 15.866C163.117 16.258 162.706 16.5567 162.212 16.762C161.726 16.9673 161.19 17.07 160.602 17.07ZM171.483 17L168.221 9.65H169.257L172.253 16.468H171.763L174.801 9.65H175.781L172.505 17H171.483ZM180.098 17.07C179.333 17.07 178.661 16.9113 178.082 16.594C177.503 16.2673 177.051 15.824 176.724 15.264C176.397 14.6947 176.234 14.046 176.234 13.318C176.234 12.59 176.388 11.946 176.696 11.386C177.013 10.826 177.443 10.3873 177.984 10.07C178.535 9.74333 179.151 9.58 179.832 9.58C180.523 9.58 181.134 9.73867 181.666 10.056C182.207 10.364 182.632 10.8027 182.94 11.372C183.248 11.932 183.402 12.5807 183.402 13.318C183.402 13.3647 183.397 13.416 183.388 13.472C183.388 13.5187 183.388 13.57 183.388 13.626H176.99V12.884H182.856L182.464 13.178C182.464 12.646 182.347 12.1747 182.114 11.764C181.89 11.344 181.582 11.0173 181.19 10.784C180.798 10.5507 180.345 10.434 179.832 10.434C179.328 10.434 178.875 10.5507 178.474 10.784C178.073 11.0173 177.76 11.344 177.536 11.764C177.312 12.184 177.2 12.6647 177.2 13.206V13.36C177.2 13.92 177.321 14.4147 177.564 14.844C177.816 15.264 178.161 15.5953 178.6 15.838C179.048 16.0713 179.557 16.188 180.126 16.188C180.574 16.188 180.989 16.1087 181.372 15.95C181.764 15.7913 182.1 15.5487 182.38 15.222L182.94 15.866C182.613 16.258 182.203 16.5567 181.708 16.762C181.223 16.9673 180.686 17.07 180.098 17.07ZM189.177 9.58C189.774 9.58 190.297 9.69667 190.745 9.93C191.202 10.154 191.557 10.4993 191.809 10.966C192.07 11.4327 192.201 12.0207 192.201 12.73V17H191.207V12.828C191.207 12.0533 191.011 11.47 190.619 11.078C190.236 10.6767 189.695 10.476 188.995 10.476C188.472 10.476 188.015 10.5833 187.623 10.798C187.24 11.0033 186.942 11.3067 186.727 11.708C186.522 12.1 186.419 12.576 186.419 13.136V17H185.425V9.65H186.377V11.666L186.223 11.288C186.456 10.756 186.83 10.3407 187.343 10.042C187.856 9.734 188.468 9.58 189.177 9.58ZM197.21 17.07C196.519 17.07 195.987 16.8833 195.614 16.51C195.241 16.1367 195.054 15.6093 195.054 14.928V8.026H196.048V14.872C196.048 15.3013 196.155 15.6327 196.37 15.866C196.594 16.0993 196.911 16.216 197.322 16.216C197.761 16.216 198.125 16.09 198.414 15.838L198.764 16.552C198.568 16.7293 198.33 16.86 198.05 16.944C197.779 17.028 197.499 17.07 197.21 17.07ZM193.738 10.476V9.65H198.288V10.476H193.738ZM205.18 17V15.376L205.138 15.11V12.394C205.138 11.7687 204.96 11.288 204.606 10.952C204.26 10.616 203.742 10.448 203.052 10.448C202.576 10.448 202.123 10.5273 201.694 10.686C201.264 10.8447 200.9 11.0547 200.602 11.316L200.154 10.574C200.527 10.2567 200.975 10.014 201.498 9.846C202.02 9.66867 202.571 9.58 203.15 9.58C204.102 9.58 204.834 9.818 205.348 10.294C205.87 10.7607 206.132 11.4747 206.132 12.436V17H205.18ZM202.646 17.07C202.095 17.07 201.614 16.9813 201.204 16.804C200.802 16.6173 200.494 16.3653 200.28 16.048C200.065 15.7213 199.958 15.348 199.958 14.928C199.958 14.5453 200.046 14.2 200.224 13.892C200.41 13.5747 200.709 13.3227 201.12 13.136C201.54 12.94 202.1 12.842 202.8 12.842H205.334V13.584H202.828C202.118 13.584 201.624 13.71 201.344 13.962C201.073 14.214 200.938 14.5267 200.938 14.9C200.938 15.32 201.101 15.656 201.428 15.908C201.754 16.16 202.212 16.286 202.8 16.286C203.36 16.286 203.84 16.16 204.242 15.908C204.652 15.6467 204.951 15.2733 205.138 14.788L205.362 15.474C205.175 15.9593 204.848 16.3467 204.382 16.636C203.924 16.9253 203.346 17.07 202.646 17.07ZM217.101 17V15.376L217.059 15.11V12.394C217.059 11.7687 216.882 11.288 216.527 10.952C216.182 10.616 215.664 10.448 214.973 10.448C214.497 10.448 214.045 10.5273 213.615 10.686C213.186 10.8447 212.822 11.0547 212.523 11.316L212.075 10.574C212.449 10.2567 212.897 10.014 213.419 9.846C213.942 9.66867 214.493 9.58 215.071 9.58C216.023 9.58 216.756 9.818 217.269 10.294C217.792 10.7607 218.053 11.4747 218.053 12.436V17H217.101ZM214.567 17.07C214.017 17.07 213.536 16.9813 213.125 16.804C212.724 16.6173 212.416 16.3653 212.201 16.048C211.987 15.7213 211.879 15.348 211.879 14.928C211.879 14.5453 211.968 14.2 212.145 13.892C212.332 13.5747 212.631 13.3227 213.041 13.136C213.461 12.94 214.021 12.842 214.721 12.842H217.255V13.584H214.749C214.04 13.584 213.545 13.71 213.265 13.962C212.995 14.214 212.859 14.5267 212.859 14.9C212.859 15.32 213.023 15.656 213.349 15.908C213.676 16.16 214.133 16.286 214.721 16.286C215.281 16.286 215.762 16.16 216.163 15.908C216.574 15.6467 216.873 15.2733 217.059 14.788L217.283 15.474C217.097 15.9593 216.77 16.3467 216.303 16.636C215.846 16.9253 215.267 17.07 214.567 17.07ZM220.753 17V6.612H221.747V17H220.753ZM231.971 17.07C231.336 17.07 230.762 16.9253 230.249 16.636C229.736 16.3373 229.325 15.9127 229.017 15.362C228.718 14.802 228.569 14.1207 228.569 13.318C228.569 12.5153 228.718 11.8387 229.017 11.288C229.316 10.728 229.722 10.3033 230.235 10.014C230.748 9.72467 231.327 9.58 231.971 9.58C232.671 9.58 233.296 9.73867 233.847 10.056C234.407 10.364 234.846 10.8027 235.163 11.372C235.48 11.932 235.639 12.5807 235.639 13.318C235.639 14.0647 235.48 14.718 235.163 15.278C234.846 15.838 234.407 16.2767 233.847 16.594C233.296 16.9113 232.671 17.07 231.971 17.07ZM228.177 19.716V9.65H229.129V11.862L229.031 13.332L229.171 14.816V19.716H228.177ZM231.901 16.188C232.424 16.188 232.89 16.0713 233.301 15.838C233.712 15.5953 234.038 15.2593 234.281 14.83C234.524 14.3913 234.645 13.8873 234.645 13.318C234.645 12.7487 234.524 12.2493 234.281 11.82C234.038 11.3907 233.712 11.0547 233.301 10.812C232.89 10.5693 232.424 10.448 231.901 10.448C231.378 10.448 230.907 10.5693 230.487 10.812C230.076 11.0547 229.75 11.3907 229.507 11.82C229.274 12.2493 229.157 12.7487 229.157 13.318C229.157 13.8873 229.274 14.3913 229.507 14.83C229.75 15.2593 230.076 15.5953 230.487 15.838C230.907 16.0713 231.378 16.188 231.901 16.188ZM240.661 17.07C239.952 17.07 239.313 16.9113 238.743 16.594C238.183 16.2673 237.74 15.824 237.413 15.264C237.087 14.6947 236.923 14.046 236.923 13.318C236.923 12.5807 237.087 11.932 237.413 11.372C237.74 10.812 238.183 10.3733 238.743 10.056C239.303 9.73867 239.943 9.58 240.661 9.58C241.389 9.58 242.033 9.73867 242.593 10.056C243.163 10.3733 243.606 10.812 243.923 11.372C244.25 11.932 244.413 12.5807 244.413 13.318C244.413 14.046 244.25 14.6947 243.923 15.264C243.606 15.824 243.163 16.2673 242.593 16.594C242.024 16.9113 241.38 17.07 240.661 17.07ZM240.661 16.188C241.193 16.188 241.665 16.0713 242.075 15.838C242.486 15.5953 242.808 15.2593 243.041 14.83C243.284 14.3913 243.405 13.8873 243.405 13.318C243.405 12.7393 243.284 12.2353 243.041 11.806C242.808 11.3767 242.486 11.0453 242.075 10.812C241.665 10.5693 241.198 10.448 240.675 10.448C240.153 10.448 239.686 10.5693 239.275 10.812C238.865 11.0453 238.538 11.3767 238.295 11.806C238.053 12.2353 237.931 12.7393 237.931 13.318C237.931 13.8873 238.053 14.3913 238.295 14.83C238.538 15.2593 238.865 15.5953 239.275 15.838C239.686 16.0713 240.148 16.188 240.661 16.188ZM246.443 17V9.65H247.395V11.652L247.297 11.302C247.502 10.742 247.847 10.3173 248.333 10.028C248.818 9.72933 249.42 9.58 250.139 9.58V10.546C250.101 10.546 250.064 10.546 250.027 10.546C249.989 10.5367 249.952 10.532 249.915 10.532C249.14 10.532 248.533 10.77 248.095 11.246C247.656 11.7127 247.437 12.38 247.437 13.248V17H246.443ZM264.91 9.58C265.507 9.58 266.025 9.69667 266.464 9.93C266.912 10.154 267.257 10.4993 267.5 10.966C267.752 11.4327 267.878 12.0207 267.878 12.73V17H266.884V12.828C266.884 12.0533 266.697 11.47 266.324 11.078C265.96 10.6767 265.442 10.476 264.77 10.476C264.266 10.476 263.827 10.5833 263.454 10.798C263.09 11.0033 262.805 11.3067 262.6 11.708C262.404 12.1 262.306 12.576 262.306 13.136V17H261.312V12.828C261.312 12.0533 261.125 11.47 260.752 11.078C260.379 10.6767 259.856 10.476 259.184 10.476C258.689 10.476 258.255 10.5833 257.882 10.798C257.509 11.0033 257.219 11.3067 257.014 11.708C256.818 12.1 256.72 12.576 256.72 13.136V17H255.726V9.65H256.678V11.638L256.524 11.288C256.748 10.756 257.107 10.3407 257.602 10.042C258.106 9.734 258.699 9.58 259.38 9.58C260.099 9.58 260.71 9.762 261.214 10.126C261.718 10.4807 262.045 11.0173 262.194 11.736L261.802 11.582C262.017 10.9847 262.395 10.504 262.936 10.14C263.487 9.76667 264.145 9.58 264.91 9.58ZM273.696 17.07C272.93 17.07 272.258 16.9113 271.68 16.594C271.101 16.2673 270.648 15.824 270.322 15.264C269.995 14.6947 269.832 14.046 269.832 13.318C269.832 12.59 269.986 11.946 270.294 11.386C270.611 10.826 271.04 10.3873 271.582 10.07C272.132 9.74333 272.748 9.58 273.43 9.58C274.12 9.58 274.732 9.73867 275.264 10.056C275.805 10.364 276.23 10.8027 276.538 11.372C276.846 11.932 277 12.5807 277 13.318C277 13.3647 276.995 13.416 276.986 13.472C276.986 13.5187 276.986 13.57 276.986 13.626H270.588V12.884H276.454L276.062 13.178C276.062 12.646 275.945 12.1747 275.712 11.764C275.488 11.344 275.18 11.0173 274.788 10.784C274.396 10.5507 273.943 10.434 273.43 10.434C272.926 10.434 272.473 10.5507 272.072 10.784C271.67 11.0173 271.358 11.344 271.134 11.764C270.91 12.184 270.798 12.6647 270.798 13.206V13.36C270.798 13.92 270.919 14.4147 271.162 14.844C271.414 15.264 271.759 15.5953 272.198 15.838C272.646 16.0713 273.154 16.188 273.724 16.188C274.172 16.188 274.587 16.1087 274.97 15.95C275.362 15.7913 275.698 15.5487 275.978 15.222L276.538 15.866C276.211 16.258 275.8 16.5567 275.306 16.762C274.82 16.9673 274.284 17.07 273.696 17.07ZM282.775 9.58C283.372 9.58 283.895 9.69667 284.343 9.93C284.8 10.154 285.155 10.4993 285.407 10.966C285.668 11.4327 285.799 12.0207 285.799 12.73V17H284.805V12.828C284.805 12.0533 284.609 11.47 284.217 11.078C283.834 10.6767 283.293 10.476 282.593 10.476C282.07 10.476 281.613 10.5833 281.221 10.798C280.838 11.0033 280.539 11.3067 280.325 11.708C280.119 12.1 280.017 12.576 280.017 13.136V17H279.023V9.65H279.975V11.666L279.821 11.288C280.054 10.756 280.427 10.3407 280.941 10.042C281.454 9.734 282.065 9.58 282.775 9.58ZM291.48 17.07C290.77 17.07 290.131 16.9113 289.562 16.594C289.002 16.2673 288.558 15.824 288.232 15.264C287.905 14.6947 287.742 14.046 287.742 13.318C287.742 12.5807 287.905 11.932 288.232 11.372C288.558 10.812 289.002 10.3733 289.562 10.056C290.122 9.73867 290.761 9.58 291.48 9.58C292.208 9.58 292.852 9.73867 293.412 10.056C293.981 10.3733 294.424 10.812 294.742 11.372C295.068 11.932 295.232 12.5807 295.232 13.318C295.232 14.046 295.068 14.6947 294.742 15.264C294.424 15.824 293.981 16.2673 293.412 16.594C292.842 16.9113 292.198 17.07 291.48 17.07ZM291.48 16.188C292.012 16.188 292.483 16.0713 292.894 15.838C293.304 15.5953 293.626 15.2593 293.86 14.83C294.102 14.3913 294.224 13.8873 294.224 13.318C294.224 12.7393 294.102 12.2353 293.86 11.806C293.626 11.3767 293.304 11.0453 292.894 10.812C292.483 10.5693 292.016 10.448 291.494 10.448C290.971 10.448 290.504 10.5693 290.094 10.812C289.683 11.0453 289.356 11.3767 289.114 11.806C288.871 12.2353 288.75 12.7393 288.75 13.318C288.75 13.8873 288.871 14.3913 289.114 14.83C289.356 15.2593 289.683 15.5953 290.094 15.838C290.504 16.0713 290.966 16.188 291.48 16.188ZM297.261 17V9.65H298.213V11.652L298.115 11.302C298.32 10.742 298.666 10.3173 299.151 10.028C299.636 9.72933 300.238 9.58 300.957 9.58V10.546C300.92 10.546 300.882 10.546 300.845 10.546C300.808 10.5367 300.77 10.532 300.733 10.532C299.958 10.532 299.352 10.77 298.913 11.246C298.474 11.7127 298.255 12.38 298.255 13.248V17H297.261Z" fill="#BC0051"/>
</svg>
