<svg width="688" height="375" viewBox="0 0 688 375" fill="none" xmlns="http://www.w3.org/2000/svg">
<rect x="686" y="349" width="20" height="320" transform="rotate(180 686 349)" fill="#BC0051"/>
<rect x="659" y="349" width="20" height="266" transform="rotate(180 659 349)" fill="#214B33"/>
<rect x="632" y="349" width="20" height="254" transform="rotate(180 632 349)" fill="#A2C33D" fill-opacity="0.4"/>
<rect x="605" y="349" width="20" height="248" transform="rotate(180 605 349)" fill="#A2C33D" fill-opacity="0.4"/>
<rect x="578" y="349" width="20" height="240" transform="rotate(180 578 349)" fill="#A2C33D" fill-opacity="0.4"/>
<rect x="551" y="349" width="20" height="226" transform="rotate(180 551 349)" fill="#A2C33D" fill-opacity="0.4"/>
<rect x="524" y="349" width="20" height="220" transform="rotate(180 524 349)" fill="#A2C33D" fill-opacity="0.4"/>
<rect x="497" y="349" width="20" height="200" transform="rotate(180 497 349)" fill="#A2C33D" fill-opacity="0.4"/>
<rect x="470" y="349" width="20" height="196" transform="rotate(180 470 349)" fill="#A2C33D" fill-opacity="0.4"/>
<rect x="443" y="349" width="20" height="184" transform="rotate(180 443 349)" fill="#A2C33D" fill-opacity="0.4"/>
<rect x="416" y="349" width="20" height="184" transform="rotate(180 416 349)" fill="#A2C33D" fill-opacity="0.4"/>
<rect x="389" y="349" width="20" height="176" transform="rotate(180 389 349)" fill="#A2C33D" fill-opacity="0.4"/>
<rect x="362" y="349" width="20" height="172" transform="rotate(180 362 349)" fill="#A2C33D" fill-opacity="0.4"/>
<rect x="335" y="349" width="20" height="172" transform="rotate(180 335 349)" fill="#A2C33D" fill-opacity="0.4"/>
<rect x="308" y="349" width="20" height="152" transform="rotate(180 308 349)" fill="#A2C33D" fill-opacity="0.4"/>
<rect x="281" y="349" width="20" height="144" transform="rotate(180 281 349)" fill="#A2C33D" fill-opacity="0.4"/>
<rect x="254" y="349" width="20" height="140" transform="rotate(180 254 349)" fill="#A2C33D" fill-opacity="0.4"/>
<rect x="227" y="349" width="20" height="126" transform="rotate(180 227 349)" fill="#A2C33D" fill-opacity="0.4"/>
<rect x="200" y="349" width="20" height="120" transform="rotate(180 200 349)" fill="#A2C33D" fill-opacity="0.4"/>
<rect x="173" y="349" width="20" height="100" transform="rotate(180 173 349)" fill="#A2C33D"/>
<path d="M163 84V248.5" stroke="#A2C33D" stroke-width="20" stroke-dasharray="10 10"/>
<path d="M2.832 238V221.2H16.968V238H15.216V222.256L15.672 222.736H4.128L4.584 222.256V238H2.832ZM27.4127 238.12C26.1967 238.12 25.1007 237.848 24.1247 237.304C23.1647 236.744 22.4047 235.984 21.8447 235.024C21.2847 234.048 21.0047 232.936 21.0047 231.688C21.0047 230.424 21.2847 229.312 21.8447 228.352C22.4047 227.392 23.1647 226.64 24.1247 226.096C25.0847 225.552 26.1807 225.28 27.4127 225.28C28.6607 225.28 29.7647 225.552 30.7247 226.096C31.7007 226.64 32.4607 227.392 33.0047 228.352C33.5647 229.312 33.8447 230.424 33.8447 231.688C33.8447 232.936 33.5647 234.048 33.0047 235.024C32.4607 235.984 31.7007 236.744 30.7247 237.304C29.7487 237.848 28.6447 238.12 27.4127 238.12ZM27.4127 236.608C28.3247 236.608 29.1327 236.408 29.8367 236.008C30.5407 235.592 31.0927 235.016 31.4927 234.28C31.9087 233.528 32.1167 232.664 32.1167 231.688C32.1167 230.696 31.9087 229.832 31.4927 229.096C31.0927 228.36 30.5407 227.792 29.8367 227.392C29.1327 226.976 28.3327 226.768 27.4367 226.768C26.5407 226.768 25.7407 226.976 25.0367 227.392C24.3327 227.792 23.7727 228.36 23.3567 229.096C22.9407 229.832 22.7327 230.696 22.7327 231.688C22.7327 232.664 22.9407 233.528 23.3567 234.28C23.7727 235.016 24.3327 235.592 25.0367 236.008C25.7407 236.408 26.5327 236.608 27.4127 236.608ZM46.7265 238L41.5425 231.76L42.9585 230.92L48.7425 238H46.7265ZM37.4865 238V225.4H39.1905V238H37.4865ZM38.6625 232.384V230.92H42.7185V232.384H38.6625ZM43.1025 231.88L41.5185 231.64L46.5345 225.4H48.3825L43.1025 231.88ZM50.9213 242.776C50.3293 242.776 49.7613 242.68 49.2173 242.488C48.6893 242.296 48.2332 242.008 47.8492 241.624L48.6413 240.352C48.9613 240.656 49.3053 240.888 49.6733 241.048C50.0573 241.224 50.4813 241.312 50.9453 241.312C51.5053 241.312 51.9853 241.152 52.3853 240.832C52.8013 240.528 53.1933 239.984 53.5613 239.2L54.3773 237.352L54.5693 237.088L59.7533 225.4H61.4333L55.1213 239.512C54.7693 240.328 54.3773 240.976 53.9453 241.456C53.5293 241.936 53.0733 242.272 52.5773 242.464C52.0813 242.672 51.5293 242.776 50.9213 242.776ZM54.2812 238.36L48.4733 225.4H50.2493L55.3853 236.968L54.2812 238.36ZM64.0881 238V225.4H75.4161V238H73.7121V226.432L74.1441 226.888H65.3601L65.7921 226.432V238H64.0881ZM88.0839 238V235.216L88.0119 234.76V230.104C88.0119 229.032 87.7079 228.208 87.0999 227.632C86.5079 227.056 85.6199 226.768 84.4359 226.768C83.6199 226.768 82.8439 226.904 82.1079 227.176C81.3719 227.448 80.7479 227.808 80.2359 228.256L79.4679 226.984C80.1079 226.44 80.8759 226.024 81.7719 225.736C82.6679 225.432 83.6119 225.28 84.6039 225.28C86.2359 225.28 87.4919 225.688 88.3719 226.504C89.2679 227.304 89.7159 228.528 89.7159 230.176V238H88.0839ZM83.7399 238.12C82.7959 238.12 81.9719 237.968 81.2679 237.664C80.5799 237.344 80.0519 236.912 79.6839 236.368C79.3159 235.808 79.1319 235.168 79.1319 234.448C79.1319 233.792 79.2839 233.2 79.5879 232.672C79.9079 232.128 80.4199 231.696 81.1239 231.376C81.8439 231.04 82.8039 230.872 84.0039 230.872H88.3479V232.144H84.0519C82.8359 232.144 81.9879 232.36 81.5079 232.792C81.0439 233.224 80.8119 233.76 80.8119 234.4C80.8119 235.12 81.0919 235.696 81.6519 236.128C82.2119 236.56 82.9959 236.776 84.0039 236.776C84.9639 236.776 85.7879 236.56 86.4759 236.128C87.1799 235.68 87.6919 235.04 88.0119 234.208L88.3959 235.384C88.0759 236.216 87.5159 236.88 86.7159 237.376C85.9319 237.872 84.9399 238.12 83.7399 238.12ZM99.6521 238.12C98.3401 238.12 97.1881 237.848 96.1961 237.304C95.2041 236.744 94.4281 235.984 93.8681 235.024C93.3081 234.048 93.0281 232.936 93.0281 231.688C93.0281 230.44 93.2921 229.336 93.8201 228.376C94.3641 227.416 95.1001 226.664 96.0281 226.12C96.9721 225.56 98.0281 225.28 99.1961 225.28C100.38 225.28 101.428 225.552 102.34 226.096C103.268 226.624 103.996 227.376 104.524 228.352C105.052 229.312 105.316 230.424 105.316 231.688C105.316 231.768 105.308 231.856 105.292 231.952C105.292 232.032 105.292 232.12 105.292 232.216H94.3241V230.944H104.38L103.708 231.448C103.708 230.536 103.508 229.728 103.108 229.024C102.724 228.304 102.196 227.744 101.524 227.344C100.852 226.944 100.076 226.744 99.1961 226.744C98.3321 226.744 97.5561 226.944 96.8681 227.344C96.1801 227.744 95.6441 228.304 95.2601 229.024C94.8761 229.744 94.6841 230.568 94.6841 231.496V231.76C94.6841 232.72 94.8921 233.568 95.3081 234.304C95.7401 235.024 96.3321 235.592 97.0841 236.008C97.8521 236.408 98.7241 236.608 99.7001 236.608C100.468 236.608 101.18 236.472 101.836 236.2C102.508 235.928 103.084 235.512 103.564 234.952L104.524 236.056C103.964 236.728 103.26 237.24 102.412 237.592C101.58 237.944 100.66 238.12 99.6521 238.12ZM110.926 238V226.432L111.358 226.888H106.15V225.4H117.406V226.888H112.198L112.63 226.432V238H110.926ZM124.683 238.12C123.371 238.12 122.219 237.848 121.227 237.304C120.235 236.744 119.459 235.984 118.899 235.024C118.339 234.048 118.059 232.936 118.059 231.688C118.059 230.44 118.323 229.336 118.851 228.376C119.395 227.416 120.131 226.664 121.059 226.12C122.003 225.56 123.059 225.28 124.227 225.28C125.411 225.28 126.459 225.552 127.371 226.096C128.299 226.624 129.027 227.376 129.555 228.352C130.083 229.312 130.347 230.424 130.347 231.688C130.347 231.768 130.339 231.856 130.323 231.952C130.323 232.032 130.323 232.12 130.323 232.216H119.355V230.944H129.411L128.739 231.448C128.739 230.536 128.539 229.728 128.139 229.024C127.755 228.304 127.227 227.744 126.555 227.344C125.883 226.944 125.107 226.744 124.227 226.744C123.363 226.744 122.587 226.944 121.899 227.344C121.211 227.744 120.675 228.304 120.291 229.024C119.907 229.744 119.715 230.568 119.715 231.496V231.76C119.715 232.72 119.923 233.568 120.339 234.304C120.771 235.024 121.363 235.592 122.115 236.008C122.883 236.408 123.755 236.608 124.731 236.608C125.499 236.608 126.211 236.472 126.867 236.2C127.539 235.928 128.115 235.512 128.595 234.952L129.555 236.056C128.995 236.728 128.291 237.24 127.443 237.592C126.611 237.944 125.691 238.12 124.683 238.12ZM9.504 270.144C9.504 270.144 9.472 270.144 9.408 270.144C9.344 270.144 9.28 270.144 9.216 270.144C9.168 270.144 9.128 270.144 9.096 270.144C6.6 270.128 4.656 269.56 3.264 268.44C1.872 267.32 1.176 265.728 1.176 263.664C1.176 261.632 1.872 260.064 3.264 258.96C4.672 257.84 6.648 257.272 9.192 257.256C9.208 257.256 9.24 257.256 9.288 257.256C9.352 257.256 9.408 257.256 9.456 257.256C9.504 257.256 9.536 257.256 9.552 257.256C12.112 257.272 14.104 257.84 15.528 258.96C16.952 260.064 17.664 261.632 17.664 263.664C17.664 265.744 16.944 267.344 15.504 268.464C14.08 269.584 12.08 270.144 9.504 270.144ZM9.48 268.656C10.904 268.656 12.096 268.464 13.056 268.08C14.016 267.68 14.744 267.112 15.24 266.376C15.736 265.64 15.984 264.736 15.984 263.664C15.984 262.624 15.736 261.744 15.24 261.024C14.744 260.288 14.016 259.728 13.056 259.344C12.096 258.96 10.904 258.768 9.48 258.768C9.464 258.768 9.416 258.768 9.336 258.768C9.272 258.768 9.232 258.768 9.216 258.768C7.824 258.768 6.656 258.968 5.712 259.368C4.768 259.752 4.056 260.304 3.576 261.024C3.096 261.744 2.856 262.624 2.856 263.664C2.856 264.72 3.096 265.616 3.576 266.352C4.072 267.088 4.792 267.656 5.736 268.056C6.68 268.44 7.84 268.64 9.216 268.656C9.248 268.656 9.296 268.656 9.36 268.656C9.424 268.656 9.464 268.656 9.48 268.656ZM8.568 274.656V252.192H10.224V274.656H8.568ZM26.6918 261.84C28.2758 261.856 29.4758 262.208 30.2918 262.896C31.1238 263.584 31.5398 264.576 31.5398 265.872C31.5398 267.216 31.0918 268.248 30.1958 268.968C29.3158 269.688 28.0358 270.04 26.3558 270.024L21.2678 270V257.4H22.9718V261.792L26.6918 261.84ZM26.2598 268.728C27.4278 268.744 28.3078 268.512 28.8998 268.032C29.5078 267.536 29.8118 266.816 29.8118 265.872C29.8118 264.928 29.5158 264.24 28.9238 263.808C28.3318 263.36 27.4438 263.128 26.2598 263.112L22.9718 263.064V268.68L26.2598 268.728ZM34.7912 270V257.4H36.4952V262.824H40.3352V264.384H36.4952V270H34.7912ZM45.6392 270.12C44.4392 270.12 43.3592 269.848 42.3992 269.304C41.4552 268.744 40.7112 267.984 40.1672 267.024C39.6232 266.048 39.3512 264.936 39.3512 263.688C39.3512 262.424 39.6232 261.312 40.1672 260.352C40.7112 259.392 41.4552 258.64 42.3992 258.096C43.3592 257.552 44.4392 257.28 45.6392 257.28C46.8392 257.28 47.9112 257.552 48.8552 258.096C49.7992 258.64 50.5432 259.392 51.0872 260.352C51.6312 261.312 51.9032 262.424 51.9032 263.688C51.9032 264.936 51.6312 266.048 51.0872 267.024C50.5432 267.984 49.7992 268.744 48.8552 269.304C47.9112 269.848 46.8392 270.12 45.6392 270.12ZM45.6392 268.632C46.5192 268.632 47.3032 268.424 47.9912 268.008C48.6792 267.592 49.2232 267.016 49.6232 266.28C50.0232 265.528 50.2232 264.664 50.2232 263.688C50.2232 262.696 50.0232 261.832 49.6232 261.096C49.2232 260.36 48.6792 259.792 47.9912 259.392C47.3032 258.976 46.5192 258.768 45.6392 258.768C44.7752 258.768 43.9912 258.976 43.2872 259.392C42.5992 259.792 42.0552 260.36 41.6552 261.096C41.2552 261.832 41.0552 262.696 41.0552 263.688C41.0552 264.664 41.2552 265.528 41.6552 266.28C42.0552 267.016 42.5992 267.592 43.2872 268.008C43.9912 268.424 44.7752 268.632 45.6392 268.632ZM63.5248 264.672C62.7888 264.992 62.0448 265.248 61.2928 265.44C60.5568 265.616 59.8208 265.704 59.0848 265.704C57.5968 265.704 56.4208 265.368 55.5568 264.696C54.6928 264.008 54.2608 262.952 54.2608 261.528V257.4H55.9408V261.432C55.9408 262.392 56.2528 263.112 56.8768 263.592C57.5008 264.072 58.3408 264.312 59.3968 264.312C60.0368 264.312 60.7088 264.232 61.4128 264.072C62.1168 263.896 62.8288 263.648 63.5488 263.328L63.5248 264.672ZM63.3808 270V257.4H65.0848V270H63.3808ZM75.324 270.12C74.012 270.12 72.86 269.848 71.868 269.304C70.876 268.744 70.1 267.984 69.54 267.024C68.98 266.048 68.7 264.936 68.7 263.688C68.7 262.44 68.964 261.336 69.492 260.376C70.036 259.416 70.772 258.664 71.7 258.12C72.644 257.56 73.7 257.28 74.868 257.28C76.052 257.28 77.1 257.552 78.012 258.096C78.94 258.624 79.668 259.376 80.196 260.352C80.724 261.312 80.988 262.424 80.988 263.688C80.988 263.768 80.98 263.856 80.964 263.952C80.964 264.032 80.964 264.12 80.964 264.216H69.996V262.944H80.052L79.38 263.448C79.38 262.536 79.18 261.728 78.78 261.024C78.396 260.304 77.868 259.744 77.196 259.344C76.524 258.944 75.748 258.744 74.868 258.744C74.004 258.744 73.228 258.944 72.54 259.344C71.852 259.744 71.316 260.304 70.932 261.024C70.548 261.744 70.356 262.568 70.356 263.496V263.76C70.356 264.72 70.564 265.568 70.98 266.304C71.412 267.024 72.004 267.592 72.756 268.008C73.524 268.408 74.396 268.608 75.372 268.608C76.14 268.608 76.852 268.472 77.508 268.2C78.18 267.928 78.756 267.512 79.236 266.952L80.196 268.056C79.636 268.728 78.932 269.24 78.084 269.592C77.252 269.944 76.332 270.12 75.324 270.12ZM91.2639 270.12C90.1759 270.12 89.1919 269.872 88.3119 269.376C87.4319 268.864 86.7279 268.136 86.1999 267.192C85.6879 266.232 85.4319 265.064 85.4319 263.688C85.4319 262.312 85.6879 261.152 86.1999 260.208C86.7119 259.248 87.4079 258.52 88.2879 258.024C89.1679 257.528 90.1599 257.28 91.2639 257.28C92.4639 257.28 93.5359 257.552 94.4799 258.096C95.4399 258.624 96.1919 259.376 96.7359 260.352C97.2799 261.312 97.5519 262.424 97.5519 263.688C97.5519 264.968 97.2799 266.088 96.7359 267.048C96.1919 268.008 95.4399 268.76 94.4799 269.304C93.5359 269.848 92.4639 270.12 91.2639 270.12ZM84.7599 274.656V257.4H86.3919V261.192L86.2239 263.712L86.4639 266.256V274.656H84.7599ZM91.1439 268.608C92.0399 268.608 92.8399 268.408 93.5439 268.008C94.2479 267.592 94.8079 267.016 95.2239 266.28C95.6399 265.528 95.8479 264.664 95.8479 263.688C95.8479 262.712 95.6399 261.856 95.2239 261.12C94.8079 260.384 94.2479 259.808 93.5439 259.392C92.8399 258.976 92.0399 258.768 91.1439 258.768C90.2479 258.768 89.4399 258.976 88.7199 259.392C88.0159 259.808 87.4559 260.384 87.0399 261.12C86.6399 261.856 86.4399 262.712 86.4399 263.688C86.4399 264.664 86.6399 265.528 87.0399 266.28C87.4559 267.016 88.0159 267.592 88.7199 268.008C89.4399 268.408 90.2479 268.608 91.1439 268.608ZM106.493 270.12C105.245 270.12 104.125 269.848 103.133 269.304C102.157 268.744 101.389 267.984 100.829 267.024C100.269 266.048 99.9891 264.936 99.9891 263.688C99.9891 262.424 100.269 261.312 100.829 260.352C101.389 259.392 102.157 258.64 103.133 258.096C104.125 257.552 105.245 257.28 106.493 257.28C107.565 257.28 108.533 257.488 109.397 257.904C110.261 258.32 110.941 258.944 111.437 259.776L110.165 260.64C109.733 260 109.197 259.528 108.557 259.224C107.917 258.92 107.221 258.768 106.469 258.768C105.573 258.768 104.765 258.976 104.045 259.392C103.325 259.792 102.757 260.36 102.341 261.096C101.925 261.832 101.717 262.696 101.717 263.688C101.717 264.68 101.925 265.544 102.341 266.28C102.757 267.016 103.325 267.592 104.045 268.008C104.765 268.408 105.573 268.608 106.469 268.608C107.221 268.608 107.917 268.456 108.557 268.152C109.197 267.848 109.733 267.384 110.165 266.76L111.437 267.624C110.941 268.44 110.261 269.064 109.397 269.496C108.533 269.912 107.565 270.12 106.493 270.12ZM2.424 302V289.4H13.752V302H12.048V290.432L12.48 290.888H3.696L4.128 290.432V302H2.424ZM23.7799 302.12C22.5639 302.12 21.4679 301.848 20.4919 301.304C19.5319 300.744 18.7719 299.984 18.2119 299.024C17.6519 298.048 17.3719 296.936 17.3719 295.688C17.3719 294.424 17.6519 293.312 18.2119 292.352C18.7719 291.392 19.5319 290.64 20.4919 290.096C21.4519 289.552 22.5479 289.28 23.7799 289.28C25.0279 289.28 26.1319 289.552 27.0919 290.096C28.0679 290.64 28.8279 291.392 29.3719 292.352C29.9319 293.312 30.2119 294.424 30.2119 295.688C30.2119 296.936 29.9319 298.048 29.3719 299.024C28.8279 299.984 28.0679 300.744 27.0919 301.304C26.1159 301.848 25.0119 302.12 23.7799 302.12ZM23.7799 300.608C24.6919 300.608 25.4999 300.408 26.2039 300.008C26.9079 299.592 27.4599 299.016 27.8599 298.28C28.2759 297.528 28.4839 296.664 28.4839 295.688C28.4839 294.696 28.2759 293.832 27.8599 293.096C27.4599 292.36 26.9079 291.792 26.2039 291.392C25.4999 290.976 24.6999 290.768 23.8039 290.768C22.9079 290.768 22.1079 290.976 21.4039 291.392C20.6999 291.792 20.1399 292.36 19.7239 293.096C19.3079 293.832 19.0999 294.696 19.0999 295.688C19.0999 296.664 19.3079 297.528 19.7239 298.28C20.1399 299.016 20.6999 299.592 21.4039 300.008C22.1079 300.408 22.8999 300.608 23.7799 300.608ZM41.8869 296.24V294.944H49.2069V296.24H41.8869ZM43.5669 289.28C44.8469 289.28 45.9909 289.56 46.9989 290.12C48.0069 290.664 48.7989 291.424 49.3749 292.4C49.9669 293.36 50.2629 294.456 50.2629 295.688C50.2629 296.92 49.9669 298.024 49.3749 299C48.7989 299.976 48.0069 300.744 46.9989 301.304C45.9909 301.864 44.8469 302.144 43.5669 302.144C42.5269 302.144 41.5589 301.984 40.6629 301.664C39.7829 301.328 39.0389 300.848 38.4309 300.224L39.4389 299.216C39.9829 299.728 40.5989 300.112 41.2869 300.368C41.9749 300.608 42.7109 300.728 43.4949 300.728C44.4869 300.728 45.3669 300.512 46.1349 300.08C46.9189 299.632 47.5349 299.032 47.9829 298.28C48.4309 297.512 48.6549 296.648 48.6549 295.688C48.6549 294.728 48.4309 293.872 47.9829 293.12C47.5349 292.352 46.9189 291.752 46.1349 291.32C45.3669 290.888 44.4869 290.672 43.4949 290.672C42.7109 290.672 41.9749 290.8 41.2869 291.056C40.5989 291.296 39.9829 291.672 39.4389 292.184L38.4309 291.2C39.0389 290.56 39.7829 290.08 40.6629 289.76C41.5589 289.44 42.5269 289.28 43.5669 289.28ZM55.7771 302V290.432L56.2091 290.888H51.0011V289.4H62.2571V290.888H57.0491L57.4811 290.432V302H55.7771ZM69.3189 302.12C68.1029 302.12 67.0069 301.848 66.0309 301.304C65.0709 300.744 64.3109 299.984 63.7509 299.024C63.1909 298.048 62.9109 296.936 62.9109 295.688C62.9109 294.424 63.1909 293.312 63.7509 292.352C64.3109 291.392 65.0709 290.64 66.0309 290.096C66.9909 289.552 68.0869 289.28 69.3189 289.28C70.5669 289.28 71.6709 289.552 72.6309 290.096C73.6069 290.64 74.3669 291.392 74.9109 292.352C75.4709 293.312 75.7509 294.424 75.7509 295.688C75.7509 296.936 75.4709 298.048 74.9109 299.024C74.3669 299.984 73.6069 300.744 72.6309 301.304C71.6549 301.848 70.5509 302.12 69.3189 302.12ZM69.3189 300.608C70.2309 300.608 71.0389 300.408 71.7429 300.008C72.4469 299.592 72.9989 299.016 73.3989 298.28C73.8149 297.528 74.0229 296.664 74.0229 295.688C74.0229 294.696 73.8149 293.832 73.3989 293.096C72.9989 292.36 72.4469 291.792 71.7429 291.392C71.0389 290.976 70.2389 290.768 69.3429 290.768C68.4469 290.768 67.6469 290.976 66.9429 291.392C66.2389 291.792 65.6789 292.36 65.2629 293.096C64.8469 293.832 64.6389 294.696 64.6389 295.688C64.6389 296.664 64.8469 297.528 65.2629 298.28C65.6789 299.016 66.2389 299.592 66.9429 300.008C67.6469 300.408 68.4389 300.608 69.3189 300.608ZM79.3928 302V289.4H81.0968V299.408L89.5208 289.4H91.0328V302H89.3288V291.968L80.9288 302H79.3928ZM85.1048 287.576C84.0488 287.576 83.1928 287.312 82.5368 286.784C81.8968 286.24 81.5608 285.464 81.5288 284.456H82.7528C82.7688 285.096 82.9928 285.6 83.4248 285.968C83.8568 286.336 84.4168 286.52 85.1048 286.52C85.7928 286.52 86.3528 286.336 86.7848 285.968C87.2328 285.6 87.4648 285.096 87.4808 284.456H88.7048C88.6888 285.464 88.3528 286.24 87.6968 286.784C87.0408 287.312 86.1768 287.576 85.1048 287.576ZM2.424 334V321.4H4.128V332.512H11.832V321.4H13.536V334H2.424ZM13.968 337.048V333.856L14.4 334H11.832V332.512H15.576V337.048H13.968ZM24.2303 334.12C22.9183 334.12 21.7663 333.848 20.7743 333.304C19.7823 332.744 19.0063 331.984 18.4463 331.024C17.8863 330.048 17.6063 328.936 17.6063 327.688C17.6063 326.44 17.8703 325.336 18.3983 324.376C18.9423 323.416 19.6783 322.664 20.6063 322.12C21.5503 321.56 22.6063 321.28 23.7743 321.28C24.9583 321.28 26.0063 321.552 26.9183 322.096C27.8463 322.624 28.5743 323.376 29.1023 324.352C29.6303 325.312 29.8943 326.424 29.8943 327.688C29.8943 327.768 29.8863 327.856 29.8703 327.952C29.8703 328.032 29.8703 328.12 29.8703 328.216H18.9023V326.944H28.9583L28.2863 327.448C28.2863 326.536 28.0863 325.728 27.6863 325.024C27.3023 324.304 26.7743 323.744 26.1023 323.344C25.4303 322.944 24.6543 322.744 23.7743 322.744C22.9103 322.744 22.1343 322.944 21.4463 323.344C20.7583 323.744 20.2223 324.304 19.8383 325.024C19.4543 325.744 19.2623 326.568 19.2623 327.496V327.76C19.2623 328.72 19.4703 329.568 19.8863 330.304C20.3183 331.024 20.9103 331.592 21.6623 332.008C22.4303 332.408 23.3023 332.608 24.2783 332.608C25.0463 332.608 25.7583 332.472 26.4143 332.2C27.0863 331.928 27.6623 331.512 28.1423 330.952L29.1023 332.056C28.5423 332.728 27.8383 333.24 26.9903 333.592C26.1583 333.944 25.2383 334.12 24.2303 334.12ZM33.6662 334V321.4H35.3702V326.968H43.3142V321.4H45.0182V334H43.3142V328.432H35.3702V334H33.6662ZM55.2615 334.12C53.9495 334.12 52.7975 333.848 51.8055 333.304C50.8135 332.744 50.0375 331.984 49.4775 331.024C48.9175 330.048 48.6375 328.936 48.6375 327.688C48.6375 326.44 48.9015 325.336 49.4295 324.376C49.9735 323.416 50.7095 322.664 51.6375 322.12C52.5815 321.56 53.6375 321.28 54.8055 321.28C55.9895 321.28 57.0375 321.552 57.9495 322.096C58.8775 322.624 59.6055 323.376 60.1335 324.352C60.6615 325.312 60.9255 326.424 60.9255 327.688C60.9255 327.768 60.9175 327.856 60.9015 327.952C60.9015 328.032 60.9015 328.12 60.9015 328.216H49.9335V326.944H59.9895L59.3175 327.448C59.3175 326.536 59.1175 325.728 58.7175 325.024C58.3335 324.304 57.8055 323.744 57.1335 323.344C56.4615 322.944 55.6855 322.744 54.8055 322.744C53.9415 322.744 53.1655 322.944 52.4775 323.344C51.7895 323.744 51.2535 324.304 50.8695 325.024C50.4855 325.744 50.2935 326.568 50.2935 327.496V327.76C50.2935 328.72 50.5015 329.568 50.9175 330.304C51.3495 331.024 51.9415 331.592 52.6935 332.008C53.4615 332.408 54.3335 332.608 55.3095 332.608C56.0775 332.608 56.7895 332.472 57.4455 332.2C58.1175 331.928 58.6935 331.512 59.1735 330.952L60.1335 332.056C59.5735 332.728 58.8695 333.24 58.0215 333.592C57.1895 333.944 56.2695 334.12 55.2615 334.12Z" fill="#A2C33D"/>
<path d="M116 249H156" stroke="#A2C33D"/>
<path d="M330 83H660" stroke="#214B33"/>
<path d="M2.832 82V65.2H9.816C11.592 65.2 12.984 65.568 13.992 66.304C15.016 67.024 15.528 68.088 15.528 69.496C15.528 70.888 15.04 71.944 14.064 72.664C13.088 73.368 11.808 73.72 10.224 73.72L10.632 73.12C12.504 73.12 13.928 73.488 14.904 74.224C15.88 74.96 16.368 76.04 16.368 77.464C16.368 78.904 15.856 80.024 14.832 80.824C13.824 81.608 12.304 82 10.272 82H2.832ZM4.584 80.584H10.272C11.696 80.584 12.776 80.32 13.512 79.792C14.248 79.264 14.616 78.448 14.616 77.344C14.616 76.256 14.248 75.456 13.512 74.944C12.776 74.432 11.696 74.176 10.272 74.176H4.584V80.584ZM4.584 72.808H9.72C11.016 72.808 12.008 72.552 12.696 72.04C13.4 71.512 13.752 70.736 13.752 69.712C13.752 68.688 13.4 67.92 12.696 67.408C12.008 66.88 11.016 66.616 9.72 66.616H4.584V72.808ZM32.6886 82V69.4H34.3926V82H32.6886ZM25.7046 73.84C27.2886 73.856 28.4966 74.208 29.3286 74.896C30.1606 75.584 30.5766 76.576 30.5766 77.872C30.5766 79.216 30.1286 80.248 29.2326 80.968C28.3366 81.688 27.0566 82.04 25.3926 82.024L20.4006 82V69.4H22.1046V73.792L25.7046 73.84ZM25.2726 80.728C26.4566 80.744 27.3446 80.512 27.9366 80.032C28.5446 79.536 28.8486 78.816 28.8486 77.872C28.8486 76.928 28.5526 76.24 27.9606 75.808C27.3686 75.36 26.4726 75.128 25.2726 75.112L22.1046 75.064V80.68L25.2726 80.728ZM45.5256 82V69.4H56.8536V82H55.1496V70.432L55.5816 70.888H46.7976L47.2296 70.432V82H45.5256ZM68.2014 82.12C67.1134 82.12 66.1294 81.872 65.2494 81.376C64.3694 80.864 63.6654 80.136 63.1374 79.192C62.6254 78.232 62.3694 77.064 62.3694 75.688C62.3694 74.312 62.6254 73.152 63.1374 72.208C63.6494 71.248 64.3454 70.52 65.2254 70.024C66.1054 69.528 67.0974 69.28 68.2014 69.28C69.4014 69.28 70.4734 69.552 71.4174 70.096C72.3774 70.624 73.1294 71.376 73.6734 72.352C74.2174 73.312 74.4894 74.424 74.4894 75.688C74.4894 76.968 74.2174 78.088 73.6734 79.048C73.1294 80.008 72.3774 80.76 71.4174 81.304C70.4734 81.848 69.4014 82.12 68.2014 82.12ZM61.6974 86.656V69.4H63.3294V73.192L63.1614 75.712L63.4014 78.256V86.656H61.6974ZM68.0814 80.608C68.9774 80.608 69.7774 80.408 70.4814 80.008C71.1854 79.592 71.7454 79.016 72.1614 78.28C72.5774 77.528 72.7854 76.664 72.7854 75.688C72.7854 74.712 72.5774 73.856 72.1614 73.12C71.7454 72.384 71.1854 71.808 70.4814 71.392C69.7774 70.976 68.9774 70.768 68.0814 70.768C67.1854 70.768 66.3774 70.976 65.6574 71.392C64.9534 71.808 64.3934 72.384 63.9774 73.12C63.5774 73.856 63.3774 74.712 63.3774 75.688C63.3774 76.664 63.5774 77.528 63.9774 78.28C64.3934 79.016 64.9534 79.592 65.6574 80.008C66.3774 80.408 67.1854 80.608 68.0814 80.608ZM83.3346 82.12C82.1186 82.12 81.0226 81.848 80.0466 81.304C79.0866 80.744 78.3266 79.984 77.7666 79.024C77.2066 78.048 76.9266 76.936 76.9266 75.688C76.9266 74.424 77.2066 73.312 77.7666 72.352C78.3266 71.392 79.0866 70.64 80.0466 70.096C81.0066 69.552 82.1026 69.28 83.3346 69.28C84.5826 69.28 85.6866 69.552 86.6466 70.096C87.6226 70.64 88.3826 71.392 88.9266 72.352C89.4866 73.312 89.7666 74.424 89.7666 75.688C89.7666 76.936 89.4866 78.048 88.9266 79.024C88.3826 79.984 87.6226 80.744 86.6466 81.304C85.6706 81.848 84.5666 82.12 83.3346 82.12ZM83.3346 80.608C84.2466 80.608 85.0546 80.408 85.7586 80.008C86.4626 79.592 87.0146 79.016 87.4146 78.28C87.8306 77.528 88.0386 76.664 88.0386 75.688C88.0386 74.696 87.8306 73.832 87.4146 73.096C87.0146 72.36 86.4626 71.792 85.7586 71.392C85.0546 70.976 84.2546 70.768 83.3586 70.768C82.4626 70.768 81.6626 70.976 80.9586 71.392C80.2546 71.792 79.6946 72.36 79.2786 73.096C78.8626 73.832 78.6546 74.696 78.6546 75.688C78.6546 76.664 78.8626 77.528 79.2786 78.28C79.6946 79.016 80.2546 79.592 80.9586 80.008C81.6626 80.408 82.4546 80.608 83.3346 80.608ZM101.978 81.184V70.888H95.9061L95.7621 73.696C95.7301 74.544 95.6741 75.376 95.5941 76.192C95.5301 77.008 95.4101 77.76 95.2341 78.448C95.0741 79.12 94.8421 79.672 94.5381 80.104C94.2341 80.52 93.8421 80.76 93.3621 80.824L91.6581 80.512C92.1541 80.528 92.5621 80.352 92.8821 79.984C93.2021 79.6 93.4501 79.08 93.6261 78.424C93.8021 77.768 93.9301 77.024 94.0101 76.192C94.0901 75.344 94.1541 74.48 94.2021 73.6L94.3701 69.4H103.682V81.184H101.978ZM91.1301 85.048V80.512H105.65V85.048H104.042V82H92.7381V85.048H91.1301ZM116.795 82V79.216L116.723 78.76V74.104C116.723 73.032 116.419 72.208 115.811 71.632C115.219 71.056 114.331 70.768 113.147 70.768C112.331 70.768 111.555 70.904 110.819 71.176C110.083 71.448 109.459 71.808 108.947 72.256L108.179 70.984C108.819 70.44 109.587 70.024 110.483 69.736C111.379 69.432 112.323 69.28 113.315 69.28C114.947 69.28 116.203 69.688 117.083 70.504C117.979 71.304 118.427 72.528 118.427 74.176V82H116.795ZM112.451 82.12C111.507 82.12 110.683 81.968 109.979 81.664C109.291 81.344 108.763 80.912 108.395 80.368C108.027 79.808 107.843 79.168 107.843 78.448C107.843 77.792 107.995 77.2 108.299 76.672C108.619 76.128 109.131 75.696 109.835 75.376C110.555 75.04 111.515 74.872 112.715 74.872H117.059V76.144H112.763C111.547 76.144 110.699 76.36 110.219 76.792C109.755 77.224 109.523 77.76 109.523 78.4C109.523 79.12 109.803 79.696 110.363 80.128C110.923 80.56 111.707 80.776 112.715 80.776C113.675 80.776 114.499 80.56 115.187 80.128C115.891 79.68 116.403 79.04 116.723 78.208L117.107 79.384C116.787 80.216 116.227 80.88 115.427 81.376C114.643 81.872 113.651 82.12 112.451 82.12ZM128.363 82.12C127.051 82.12 125.899 81.848 124.907 81.304C123.915 80.744 123.139 79.984 122.579 79.024C122.019 78.048 121.739 76.936 121.739 75.688C121.739 74.44 122.003 73.336 122.531 72.376C123.075 71.416 123.811 70.664 124.739 70.12C125.683 69.56 126.739 69.28 127.907 69.28C129.091 69.28 130.139 69.552 131.051 70.096C131.979 70.624 132.707 71.376 133.235 72.352C133.763 73.312 134.027 74.424 134.027 75.688C134.027 75.768 134.019 75.856 134.003 75.952C134.003 76.032 134.003 76.12 134.003 76.216H123.035V74.944H133.091L132.419 75.448C132.419 74.536 132.219 73.728 131.819 73.024C131.435 72.304 130.907 71.744 130.235 71.344C129.563 70.944 128.787 70.744 127.907 70.744C127.043 70.744 126.267 70.944 125.579 71.344C124.891 71.744 124.355 72.304 123.971 73.024C123.587 73.744 123.395 74.568 123.395 75.496V75.76C123.395 76.72 123.603 77.568 124.019 78.304C124.451 79.024 125.043 79.592 125.795 80.008C126.563 80.408 127.435 80.608 128.411 80.608C129.179 80.608 129.891 80.472 130.547 80.2C131.219 79.928 131.795 79.512 132.275 78.952L133.235 80.056C132.675 80.728 131.971 81.24 131.123 81.592C130.291 81.944 129.371 82.12 128.363 82.12ZM139.637 82V70.432L140.069 70.888H134.861V69.4H146.117V70.888H140.909L141.341 70.432V82H139.637ZM153.394 82.12C152.082 82.12 150.93 81.848 149.938 81.304C148.946 80.744 148.17 79.984 147.61 79.024C147.05 78.048 146.77 76.936 146.77 75.688C146.77 74.44 147.034 73.336 147.562 72.376C148.106 71.416 148.842 70.664 149.77 70.12C150.714 69.56 151.77 69.28 152.938 69.28C154.122 69.28 155.17 69.552 156.082 70.096C157.01 70.624 157.738 71.376 158.266 72.352C158.794 73.312 159.058 74.424 159.058 75.688C159.058 75.768 159.05 75.856 159.034 75.952C159.034 76.032 159.034 76.12 159.034 76.216H148.066V74.944H158.122L157.45 75.448C157.45 74.536 157.25 73.728 156.85 73.024C156.466 72.304 155.938 71.744 155.266 71.344C154.594 70.944 153.818 70.744 152.938 70.744C152.074 70.744 151.298 70.944 150.61 71.344C149.922 71.744 149.386 72.304 149.002 73.024C148.618 73.744 148.426 74.568 148.426 75.496V75.76C148.426 76.72 148.634 77.568 149.05 78.304C149.482 79.024 150.074 79.592 150.826 80.008C151.594 80.408 152.466 80.608 153.442 80.608C154.21 80.608 154.922 80.472 155.578 80.2C156.25 79.928 156.826 79.512 157.306 78.952L158.266 80.056C157.706 80.728 157.002 81.24 156.154 81.592C155.322 81.944 154.402 82.12 153.394 82.12ZM176.192 82.144C176.192 82.144 176.16 82.144 176.096 82.144C176.032 82.144 175.968 82.144 175.904 82.144C175.856 82.144 175.816 82.144 175.784 82.144C173.288 82.128 171.344 81.56 169.952 80.44C168.56 79.32 167.864 77.728 167.864 75.664C167.864 73.632 168.56 72.064 169.952 70.96C171.36 69.84 173.336 69.272 175.88 69.256C175.896 69.256 175.928 69.256 175.976 69.256C176.04 69.256 176.096 69.256 176.144 69.256C176.192 69.256 176.224 69.256 176.24 69.256C178.8 69.272 180.792 69.84 182.216 70.96C183.64 72.064 184.352 73.632 184.352 75.664C184.352 77.744 183.632 79.344 182.192 80.464C180.768 81.584 178.768 82.144 176.192 82.144ZM176.168 80.656C177.592 80.656 178.784 80.464 179.744 80.08C180.704 79.68 181.432 79.112 181.928 78.376C182.424 77.64 182.672 76.736 182.672 75.664C182.672 74.624 182.424 73.744 181.928 73.024C181.432 72.288 180.704 71.728 179.744 71.344C178.784 70.96 177.592 70.768 176.168 70.768C176.152 70.768 176.104 70.768 176.024 70.768C175.96 70.768 175.92 70.768 175.904 70.768C174.512 70.768 173.344 70.968 172.4 71.368C171.456 71.752 170.744 72.304 170.264 73.024C169.784 73.744 169.544 74.624 169.544 75.664C169.544 76.72 169.784 77.616 170.264 78.352C170.76 79.088 171.48 79.656 172.424 80.056C173.368 80.44 174.528 80.64 175.904 80.656C175.936 80.656 175.984 80.656 176.048 80.656C176.112 80.656 176.152 80.656 176.168 80.656ZM175.256 86.656V64.192H176.912V86.656H175.256ZM193.379 73.84C194.963 73.856 196.163 74.208 196.979 74.896C197.811 75.584 198.227 76.576 198.227 77.872C198.227 79.216 197.779 80.248 196.883 80.968C196.003 81.688 194.723 82.04 193.043 82.024L187.955 82V69.4H189.659V73.792L193.379 73.84ZM192.947 80.728C194.115 80.744 194.995 80.512 195.587 80.032C196.195 79.536 196.499 78.816 196.499 77.872C196.499 76.928 196.203 76.24 195.611 75.808C195.019 75.36 194.131 75.128 192.947 75.112L189.659 75.064V80.68L192.947 80.728ZM201.479 82V69.4H203.183V74.824H207.023V76.384H203.183V82H201.479ZM212.327 82.12C211.127 82.12 210.047 81.848 209.087 81.304C208.143 80.744 207.399 79.984 206.855 79.024C206.311 78.048 206.039 76.936 206.039 75.688C206.039 74.424 206.311 73.312 206.855 72.352C207.399 71.392 208.143 70.64 209.087 70.096C210.047 69.552 211.127 69.28 212.327 69.28C213.527 69.28 214.599 69.552 215.543 70.096C216.487 70.64 217.231 71.392 217.775 72.352C218.319 73.312 218.591 74.424 218.591 75.688C218.591 76.936 218.319 78.048 217.775 79.024C217.231 79.984 216.487 80.744 215.543 81.304C214.599 81.848 213.527 82.12 212.327 82.12ZM212.327 80.632C213.207 80.632 213.991 80.424 214.679 80.008C215.367 79.592 215.911 79.016 216.311 78.28C216.711 77.528 216.911 76.664 216.911 75.688C216.911 74.696 216.711 73.832 216.311 73.096C215.911 72.36 215.367 71.792 214.679 71.392C213.991 70.976 213.207 70.768 212.327 70.768C211.463 70.768 210.679 70.976 209.975 71.392C209.287 71.792 208.743 72.36 208.343 73.096C207.943 73.832 207.743 74.696 207.743 75.688C207.743 76.664 207.943 77.528 208.343 78.28C208.743 79.016 209.287 79.592 209.975 80.008C210.679 80.424 211.463 80.632 212.327 80.632ZM230.212 76.672C229.476 76.992 228.732 77.248 227.98 77.44C227.244 77.616 226.508 77.704 225.772 77.704C224.284 77.704 223.108 77.368 222.244 76.696C221.38 76.008 220.948 74.952 220.948 73.528V69.4H222.628V73.432C222.628 74.392 222.94 75.112 223.564 75.592C224.188 76.072 225.028 76.312 226.084 76.312C226.724 76.312 227.396 76.232 228.1 76.072C228.804 75.896 229.516 75.648 230.236 75.328L230.212 76.672ZM230.068 82V69.4H231.772V82H230.068ZM242.012 82.12C240.7 82.12 239.548 81.848 238.556 81.304C237.564 80.744 236.788 79.984 236.228 79.024C235.668 78.048 235.388 76.936 235.388 75.688C235.388 74.44 235.652 73.336 236.18 72.376C236.724 71.416 237.46 70.664 238.388 70.12C239.332 69.56 240.388 69.28 241.556 69.28C242.74 69.28 243.788 69.552 244.7 70.096C245.628 70.624 246.356 71.376 246.884 72.352C247.412 73.312 247.676 74.424 247.676 75.688C247.676 75.768 247.668 75.856 247.652 75.952C247.652 76.032 247.652 76.12 247.652 76.216H236.684V74.944H246.74L246.068 75.448C246.068 74.536 245.868 73.728 245.468 73.024C245.084 72.304 244.556 71.744 243.884 71.344C243.212 70.944 242.436 70.744 241.556 70.744C240.692 70.744 239.916 70.944 239.228 71.344C238.54 71.744 238.004 72.304 237.62 73.024C237.236 73.744 237.044 74.568 237.044 75.496V75.76C237.044 76.72 237.252 77.568 237.668 78.304C238.1 79.024 238.692 79.592 239.444 80.008C240.212 80.408 241.084 80.608 242.06 80.608C242.828 80.608 243.54 80.472 244.196 80.2C244.868 79.928 245.444 79.512 245.924 78.952L246.884 80.056C246.324 80.728 245.62 81.24 244.772 81.592C243.94 81.944 243.02 82.12 242.012 82.12ZM257.951 82.12C256.863 82.12 255.879 81.872 254.999 81.376C254.119 80.864 253.415 80.136 252.887 79.192C252.375 78.232 252.119 77.064 252.119 75.688C252.119 74.312 252.375 73.152 252.887 72.208C253.399 71.248 254.095 70.52 254.975 70.024C255.855 69.528 256.847 69.28 257.951 69.28C259.151 69.28 260.223 69.552 261.167 70.096C262.127 70.624 262.879 71.376 263.423 72.352C263.967 73.312 264.239 74.424 264.239 75.688C264.239 76.968 263.967 78.088 263.423 79.048C262.879 80.008 262.127 80.76 261.167 81.304C260.223 81.848 259.151 82.12 257.951 82.12ZM251.447 86.656V69.4H253.079V73.192L252.911 75.712L253.151 78.256V86.656H251.447ZM257.831 80.608C258.727 80.608 259.527 80.408 260.231 80.008C260.935 79.592 261.495 79.016 261.911 78.28C262.327 77.528 262.535 76.664 262.535 75.688C262.535 74.712 262.327 73.856 261.911 73.12C261.495 72.384 260.935 71.808 260.231 71.392C259.527 70.976 258.727 70.768 257.831 70.768C256.935 70.768 256.127 70.976 255.407 71.392C254.703 71.808 254.143 72.384 253.727 73.12C253.327 73.856 253.127 74.712 253.127 75.688C253.127 76.664 253.327 77.528 253.727 78.28C254.143 79.016 254.703 79.592 255.407 80.008C256.127 80.408 256.935 80.608 257.831 80.608ZM273.181 82.12C271.933 82.12 270.813 81.848 269.821 81.304C268.845 80.744 268.077 79.984 267.517 79.024C266.957 78.048 266.677 76.936 266.677 75.688C266.677 74.424 266.957 73.312 267.517 72.352C268.077 71.392 268.845 70.64 269.821 70.096C270.813 69.552 271.933 69.28 273.181 69.28C274.253 69.28 275.221 69.488 276.085 69.904C276.949 70.32 277.629 70.944 278.125 71.776L276.853 72.64C276.421 72 275.885 71.528 275.245 71.224C274.605 70.92 273.909 70.768 273.157 70.768C272.261 70.768 271.453 70.976 270.733 71.392C270.013 71.792 269.445 72.36 269.029 73.096C268.613 73.832 268.405 74.696 268.405 75.688C268.405 76.68 268.613 77.544 269.029 78.28C269.445 79.016 270.013 79.592 270.733 80.008C271.453 80.408 272.261 80.608 273.157 80.608C273.909 80.608 274.605 80.456 275.245 80.152C275.885 79.848 276.421 79.384 276.853 78.76L278.125 79.624C277.629 80.44 276.949 81.064 276.085 81.496C275.221 81.912 274.253 82.12 273.181 82.12ZM287.705 82V69.4H299.033V82H297.329V70.432L297.761 70.888H288.977L289.409 70.432V82H287.705ZM309.061 82.12C307.845 82.12 306.749 81.848 305.773 81.304C304.813 80.744 304.053 79.984 303.493 79.024C302.933 78.048 302.653 76.936 302.653 75.688C302.653 74.424 302.933 73.312 303.493 72.352C304.053 71.392 304.813 70.64 305.773 70.096C306.733 69.552 307.829 69.28 309.061 69.28C310.309 69.28 311.413 69.552 312.373 70.096C313.349 70.64 314.109 71.392 314.653 72.352C315.213 73.312 315.493 74.424 315.493 75.688C315.493 76.936 315.213 78.048 314.653 79.024C314.109 79.984 313.349 80.744 312.373 81.304C311.397 81.848 310.293 82.12 309.061 82.12ZM309.061 80.608C309.973 80.608 310.781 80.408 311.485 80.008C312.189 79.592 312.741 79.016 313.141 78.28C313.557 77.528 313.765 76.664 313.765 75.688C313.765 74.696 313.557 73.832 313.141 73.096C312.741 72.36 312.189 71.792 311.485 71.392C310.781 70.976 309.981 70.768 309.085 70.768C308.189 70.768 307.389 70.976 306.685 71.392C305.981 71.792 305.421 72.36 305.005 73.096C304.589 73.832 304.381 74.696 304.381 75.688C304.381 76.664 304.589 77.528 305.005 78.28C305.421 79.016 305.981 79.592 306.685 80.008C307.389 80.408 308.181 80.608 309.061 80.608ZM327.168 76.24V74.944H334.488V76.24H327.168ZM328.848 69.28C330.128 69.28 331.272 69.56 332.28 70.12C333.288 70.664 334.08 71.424 334.656 72.4C335.248 73.36 335.544 74.456 335.544 75.688C335.544 76.92 335.248 78.024 334.656 79C334.08 79.976 333.288 80.744 332.28 81.304C331.272 81.864 330.128 82.144 328.848 82.144C327.808 82.144 326.84 81.984 325.944 81.664C325.064 81.328 324.32 80.848 323.712 80.224L324.72 79.216C325.264 79.728 325.88 80.112 326.568 80.368C327.256 80.608 327.992 80.728 328.776 80.728C329.768 80.728 330.648 80.512 331.416 80.08C332.2 79.632 332.816 79.032 333.264 78.28C333.712 77.512 333.936 76.648 333.936 75.688C333.936 74.728 333.712 73.872 333.264 73.12C332.816 72.352 332.2 71.752 331.416 71.32C330.648 70.888 329.768 70.672 328.776 70.672C327.992 70.672 327.256 70.8 326.568 71.056C325.88 71.296 325.264 71.672 324.72 72.184L323.712 71.2C324.32 70.56 325.064 70.08 325.944 69.76C326.84 69.44 327.808 69.28 328.848 69.28ZM341.058 82V70.432L341.49 70.888H336.282V69.4H347.538V70.888H342.33L342.762 70.432V82H341.058ZM354.6 82.12C353.384 82.12 352.288 81.848 351.312 81.304C350.352 80.744 349.592 79.984 349.032 79.024C348.472 78.048 348.192 76.936 348.192 75.688C348.192 74.424 348.472 73.312 349.032 72.352C349.592 71.392 350.352 70.64 351.312 70.096C352.272 69.552 353.368 69.28 354.6 69.28C355.848 69.28 356.952 69.552 357.912 70.096C358.888 70.64 359.648 71.392 360.192 72.352C360.752 73.312 361.032 74.424 361.032 75.688C361.032 76.936 360.752 78.048 360.192 79.024C359.648 79.984 358.888 80.744 357.912 81.304C356.936 81.848 355.832 82.12 354.6 82.12ZM354.6 80.608C355.512 80.608 356.32 80.408 357.024 80.008C357.728 79.592 358.28 79.016 358.68 78.28C359.096 77.528 359.304 76.664 359.304 75.688C359.304 74.696 359.096 73.832 358.68 73.096C358.28 72.36 357.728 71.792 357.024 71.392C356.32 70.976 355.52 70.768 354.624 70.768C353.728 70.768 352.928 70.976 352.224 71.392C351.52 71.792 350.96 72.36 350.544 73.096C350.128 73.832 349.92 74.696 349.92 75.688C349.92 76.664 350.128 77.528 350.544 78.28C350.96 79.016 351.52 79.592 352.224 80.008C352.928 80.408 353.72 80.608 354.6 80.608ZM364.674 82V69.4H366.378V79.408L374.802 69.4H376.314V82H374.61V71.968L366.21 82H364.674ZM370.386 67.576C369.33 67.576 368.474 67.312 367.818 66.784C367.178 66.24 366.842 65.464 366.81 64.456H368.034C368.05 65.096 368.274 65.6 368.706 65.968C369.138 66.336 369.698 66.52 370.386 66.52C371.074 66.52 371.634 66.336 372.066 65.968C372.514 65.6 372.746 65.096 372.762 64.456H373.986C373.97 65.464 373.634 66.24 372.978 66.784C372.322 67.312 371.458 67.576 370.386 67.576ZM387.479 82V69.4H389.183V80.512H396.887V69.4H398.591V82H387.479ZM399.023 85.048V81.856L399.455 82H396.887V80.512H400.631V85.048H399.023ZM409.285 82.12C407.973 82.12 406.821 81.848 405.829 81.304C404.837 80.744 404.061 79.984 403.501 79.024C402.941 78.048 402.661 76.936 402.661 75.688C402.661 74.44 402.925 73.336 403.453 72.376C403.997 71.416 404.733 70.664 405.661 70.12C406.605 69.56 407.661 69.28 408.829 69.28C410.013 69.28 411.061 69.552 411.973 70.096C412.901 70.624 413.629 71.376 414.157 72.352C414.685 73.312 414.949 74.424 414.949 75.688C414.949 75.768 414.941 75.856 414.925 75.952C414.925 76.032 414.925 76.12 414.925 76.216H403.957V74.944H414.013L413.341 75.448C413.341 74.536 413.141 73.728 412.741 73.024C412.357 72.304 411.829 71.744 411.157 71.344C410.485 70.944 409.709 70.744 408.829 70.744C407.965 70.744 407.189 70.944 406.501 71.344C405.813 71.744 405.277 72.304 404.893 73.024C404.509 73.744 404.317 74.568 404.317 75.496V75.76C404.317 76.72 404.525 77.568 404.941 78.304C405.373 79.024 405.965 79.592 406.717 80.008C407.485 80.408 408.357 80.608 409.333 80.608C410.101 80.608 410.813 80.472 411.469 80.2C412.141 79.928 412.717 79.512 413.197 78.952L414.157 80.056C413.597 80.728 412.893 81.24 412.045 81.592C411.213 81.944 410.293 82.12 409.285 82.12ZM418.721 82V69.4H420.425V74.968H428.369V69.4H430.073V82H428.369V76.432H420.425V82H418.721ZM440.316 82.12C439.004 82.12 437.852 81.848 436.86 81.304C435.868 80.744 435.092 79.984 434.532 79.024C433.972 78.048 433.692 76.936 433.692 75.688C433.692 74.44 433.956 73.336 434.484 72.376C435.028 71.416 435.764 70.664 436.692 70.12C437.636 69.56 438.692 69.28 439.86 69.28C441.044 69.28 442.092 69.552 443.004 70.096C443.932 70.624 444.66 71.376 445.188 72.352C445.716 73.312 445.98 74.424 445.98 75.688C445.98 75.768 445.972 75.856 445.956 75.952C445.956 76.032 445.956 76.12 445.956 76.216H434.988V74.944H445.044L444.372 75.448C444.372 74.536 444.172 73.728 443.772 73.024C443.388 72.304 442.86 71.744 442.188 71.344C441.516 70.944 440.74 70.744 439.86 70.744C438.996 70.744 438.22 70.944 437.532 71.344C436.844 71.744 436.308 72.304 435.924 73.024C435.54 73.744 435.348 74.568 435.348 75.496V75.76C435.348 76.72 435.556 77.568 435.972 78.304C436.404 79.024 436.996 79.592 437.748 80.008C438.516 80.408 439.388 80.608 440.364 80.608C441.132 80.608 441.844 80.472 442.5 80.2C443.172 79.928 443.748 79.512 444.228 78.952L445.188 80.056C444.628 80.728 443.924 81.24 443.076 81.592C442.244 81.944 441.324 82.12 440.316 82.12Z" fill="#214B33"/>
<path d="M138 29L688 29" stroke="#BC0051"/>
<path d="M2.832 29V12.2H9.12C10.544 12.2 11.768 12.432 12.792 12.896C13.816 13.344 14.6 14 15.144 14.864C15.704 15.712 15.984 16.744 15.984 17.96C15.984 19.144 15.704 20.168 15.144 21.032C14.6 21.88 13.816 22.536 12.792 23C11.768 23.464 10.544 23.696 9.12 23.696H3.816L4.608 22.856V29H2.832ZM4.608 23L3.816 22.136H9.072C10.752 22.136 12.024 21.776 12.888 21.056C13.768 20.32 14.208 19.288 14.208 17.96C14.208 16.616 13.768 15.576 12.888 14.84C12.024 14.104 10.752 13.736 9.072 13.736H3.816L4.608 12.896V23ZM24.3189 29.12C23.1029 29.12 22.0069 28.848 21.0309 28.304C20.0709 27.744 19.3109 26.984 18.7509 26.024C18.1909 25.048 17.9109 23.936 17.9109 22.688C17.9109 21.424 18.1909 20.312 18.7509 19.352C19.3109 18.392 20.0709 17.64 21.0309 17.096C21.9909 16.552 23.0869 16.28 24.3189 16.28C25.5669 16.28 26.6709 16.552 27.6309 17.096C28.6069 17.64 29.3669 18.392 29.9109 19.352C30.4709 20.312 30.7509 21.424 30.7509 22.688C30.7509 23.936 30.4709 25.048 29.9109 26.024C29.3669 26.984 28.6069 27.744 27.6309 28.304C26.6549 28.848 25.5509 29.12 24.3189 29.12ZM24.3189 27.608C25.2309 27.608 26.0389 27.408 26.7429 27.008C27.4469 26.592 27.9989 26.016 28.3989 25.28C28.8149 24.528 29.0229 23.664 29.0229 22.688C29.0229 21.696 28.8149 20.832 28.3989 20.096C27.9989 19.36 27.4469 18.792 26.7429 18.392C26.0389 17.976 25.2389 17.768 24.3429 17.768C23.4469 17.768 22.6469 17.976 21.9429 18.392C21.2389 18.792 20.6789 19.36 20.2629 20.096C19.8469 20.832 19.6389 21.696 19.6389 22.688C19.6389 23.664 19.8469 24.528 20.2629 25.28C20.6789 26.016 21.2389 26.592 21.9429 27.008C22.6469 27.408 23.4389 27.608 24.3189 27.608ZM37.683 29.144C36.771 29.144 35.867 29.016 34.971 28.76C34.075 28.504 33.283 28.112 32.595 27.584L33.147 26.312C33.755 26.76 34.459 27.104 35.259 27.344C36.059 27.568 36.851 27.68 37.635 27.68C38.419 27.664 39.099 27.552 39.675 27.344C40.251 27.136 40.699 26.848 41.019 26.48C41.339 26.112 41.499 25.696 41.499 25.232C41.499 24.56 41.195 24.04 40.587 23.672C39.979 23.288 39.147 23.096 38.091 23.096H35.931V21.848H37.971C38.595 21.848 39.147 21.768 39.627 21.608C40.107 21.448 40.475 21.216 40.731 20.912C41.003 20.608 41.139 20.248 41.139 19.832C41.139 19.384 40.979 19 40.659 18.68C40.355 18.36 39.931 18.12 39.387 17.96C38.843 17.8 38.227 17.72 37.539 17.72C36.915 17.736 36.267 17.832 35.595 18.008C34.923 18.168 34.259 18.416 33.603 18.752L33.123 17.432C33.859 17.048 34.587 16.76 35.307 16.568C36.043 16.36 36.779 16.256 37.515 16.256C38.523 16.224 39.427 16.344 40.227 16.616C41.043 16.888 41.691 17.28 42.171 17.792C42.651 18.288 42.891 18.888 42.891 19.592C42.891 20.216 42.699 20.76 42.315 21.224C41.931 21.688 41.419 22.048 40.779 22.304C40.139 22.56 39.411 22.688 38.595 22.688L38.667 22.232C40.107 22.232 41.227 22.512 42.027 23.072C42.843 23.632 43.251 24.392 43.251 25.352C43.251 26.104 43.003 26.768 42.507 27.344C42.011 27.904 41.339 28.344 40.491 28.664C39.659 28.984 38.723 29.144 37.683 29.144ZM47.1193 29V16.4H48.8233V21.968H56.7673V16.4H58.4713V29H56.7673V23.432H48.8233V29H47.1193ZM63.3146 29V16.4H65.0186V26.408L73.4426 16.4H74.9546V29H73.2506V18.968L64.8506 29H63.3146ZM87.8061 23.672C87.0701 23.992 86.3261 24.248 85.5741 24.44C84.8381 24.616 84.1021 24.704 83.3661 24.704C81.8781 24.704 80.7021 24.368 79.8381 23.696C78.9741 23.008 78.5421 21.952 78.5421 20.528V16.4H80.2221V20.432C80.2221 21.392 80.5341 22.112 81.1581 22.592C81.7821 23.072 82.6221 23.312 83.6781 23.312C84.3181 23.312 84.9901 23.232 85.6941 23.072C86.3981 22.896 87.1101 22.648 87.8301 22.328L87.8061 23.672ZM87.6621 29V16.4H89.3661V29H87.6621ZM94.2053 29V16.4H95.9093V21.968H103.853V16.4H105.557V29H103.853V23.432H95.9093V29H94.2053ZM118.225 29V26.216L118.153 25.76V21.104C118.153 20.032 117.849 19.208 117.241 18.632C116.649 18.056 115.761 17.768 114.577 17.768C113.761 17.768 112.985 17.904 112.249 18.176C111.513 18.448 110.889 18.808 110.377 19.256L109.609 17.984C110.249 17.44 111.017 17.024 111.913 16.736C112.809 16.432 113.753 16.28 114.745 16.28C116.377 16.28 117.633 16.688 118.513 17.504C119.409 18.304 119.857 19.528 119.857 21.176V29H118.225ZM113.881 29.12C112.937 29.12 112.113 28.968 111.409 28.664C110.721 28.344 110.193 27.912 109.825 27.368C109.457 26.808 109.273 26.168 109.273 25.448C109.273 24.792 109.425 24.2 109.729 23.672C110.049 23.128 110.561 22.696 111.265 22.376C111.985 22.04 112.945 21.872 114.145 21.872H118.489V23.144H114.193C112.977 23.144 112.129 23.36 111.649 23.792C111.185 24.224 110.953 24.76 110.953 25.4C110.953 26.12 111.233 26.696 111.793 27.128C112.353 27.56 113.137 27.776 114.145 27.776C115.105 27.776 115.929 27.56 116.617 27.128C117.321 26.68 117.833 26.04 118.153 25.208L118.537 26.384C118.217 27.216 117.657 27.88 116.857 28.376C116.073 28.872 115.081 29.12 113.881 29.12ZM132.529 29V24.464L132.841 24.824H128.569C126.953 24.824 125.689 24.472 124.777 23.768C123.865 23.064 123.409 22.04 123.409 20.696C123.409 19.256 123.897 18.184 124.873 17.48C125.849 16.76 127.153 16.4 128.785 16.4H134.089V29H132.529ZM123.313 29L126.769 24.152H128.545L125.161 29H123.313ZM132.529 23.96V17.384L132.841 17.888H128.833C127.665 17.888 126.753 18.112 126.097 18.56C125.457 19.008 125.137 19.736 125.137 20.744C125.137 22.616 126.329 23.552 128.713 23.552H132.841L132.529 23.96ZM145.229 29V16.4H146.933V27.512H154.637V16.4H156.341V29H145.229ZM156.773 32.048V28.856L157.205 29H154.637V27.512H158.381V32.048H156.773ZM167.035 29.12C165.723 29.12 164.571 28.848 163.579 28.304C162.587 27.744 161.811 26.984 161.251 26.024C160.691 25.048 160.411 23.936 160.411 22.688C160.411 21.44 160.675 20.336 161.203 19.376C161.747 18.416 162.483 17.664 163.411 17.12C164.355 16.56 165.411 16.28 166.579 16.28C167.763 16.28 168.811 16.552 169.723 17.096C170.651 17.624 171.379 18.376 171.907 19.352C172.435 20.312 172.699 21.424 172.699 22.688C172.699 22.768 172.691 22.856 172.675 22.952C172.675 23.032 172.675 23.12 172.675 23.216H161.707V21.944H171.763L171.091 22.448C171.091 21.536 170.891 20.728 170.491 20.024C170.107 19.304 169.579 18.744 168.907 18.344C168.235 17.944 167.459 17.744 166.579 17.744C165.715 17.744 164.939 17.944 164.251 18.344C163.563 18.744 163.027 19.304 162.643 20.024C162.259 20.744 162.067 21.568 162.067 22.496V22.76C162.067 23.72 162.275 24.568 162.691 25.304C163.123 26.024 163.715 26.592 164.467 27.008C165.235 27.408 166.107 27.608 167.083 27.608C167.851 27.608 168.563 27.472 169.219 27.2C169.891 26.928 170.467 26.512 170.947 25.952L171.907 27.056C171.347 27.728 170.643 28.24 169.795 28.592C168.963 28.944 168.043 29.12 167.035 29.12ZM176.471 29V16.4H178.175V21.968H186.119V16.4H187.823V29H186.119V23.432H178.175V29H176.471ZM200.49 29V26.216L200.418 25.76V21.104C200.418 20.032 200.114 19.208 199.506 18.632C198.914 18.056 198.026 17.768 196.842 17.768C196.026 17.768 195.25 17.904 194.514 18.176C193.778 18.448 193.154 18.808 192.642 19.256L191.874 17.984C192.514 17.44 193.282 17.024 194.178 16.736C195.074 16.432 196.018 16.28 197.01 16.28C198.642 16.28 199.898 16.688 200.778 17.504C201.674 18.304 202.122 19.528 202.122 21.176V29H200.49ZM196.146 29.12C195.202 29.12 194.378 28.968 193.674 28.664C192.986 28.344 192.458 27.912 192.09 27.368C191.722 26.808 191.538 26.168 191.538 25.448C191.538 24.792 191.69 24.2 191.994 23.672C192.314 23.128 192.826 22.696 193.53 22.376C194.25 22.04 195.21 21.872 196.41 21.872H200.754V23.144H196.458C195.242 23.144 194.394 23.36 193.914 23.792C193.45 24.224 193.218 24.76 193.218 25.4C193.218 26.12 193.498 26.696 194.058 27.128C194.618 27.56 195.402 27.776 196.41 27.776C197.37 27.776 198.194 27.56 198.882 27.128C199.586 26.68 200.098 26.04 200.418 25.208L200.802 26.384C200.482 27.216 199.922 27.88 199.122 28.376C198.338 28.872 197.346 29.12 196.146 29.12Z" fill="#BC0051"/>
<path d="M153 166H0" stroke="#A2C33D"/>
<path d="M2.376 155V138.2H9.888C11.776 138.2 13.248 138.576 14.304 139.328C15.36 140.064 15.888 141.128 15.888 142.52C15.888 143.896 15.384 144.96 14.376 145.712C13.368 146.448 12.04 146.816 10.392 146.816L10.824 145.952C12.696 145.952 14.144 146.328 15.168 147.08C16.192 147.832 16.704 148.92 16.704 150.344C16.704 151.8 16.168 152.944 15.096 153.776C14.024 154.592 12.44 155 10.344 155H2.376ZM5.448 152.6H10.248C11.336 152.6 12.16 152.4 12.72 152C13.28 151.584 13.56 150.952 13.56 150.104C13.56 149.256 13.28 148.64 12.72 148.256C12.16 147.856 11.336 147.656 10.248 147.656H5.448V152.6ZM5.448 145.376H9.624C10.632 145.376 11.4 145.176 11.928 144.776C12.456 144.36 12.72 143.768 12.72 143C12.72 142.2 12.456 141.6 11.928 141.2C11.4 140.8 10.632 140.6 9.624 140.6H5.448V145.376ZM32.8583 155V142.184H35.8583V155H32.8583ZM26.1623 146.408C27.8103 146.408 29.0583 146.776 29.9062 147.512C30.7703 148.248 31.2023 149.288 31.2023 150.632C31.2023 152.024 30.7223 153.112 29.7623 153.896C28.8183 154.664 27.4743 155.04 25.7303 155.024L19.9223 155V142.184H22.9223V146.384L26.1623 146.408ZM25.4663 152.816C26.3463 152.832 27.0183 152.648 27.4823 152.264C27.9463 151.88 28.1783 151.32 28.1783 150.584C28.1783 149.848 27.9463 149.32 27.4823 149C27.0343 148.664 26.3623 148.488 25.4663 148.472L22.9223 148.448V152.792L25.4663 152.816ZM39.891 155V142.184H49.731V144.728H42.195L42.891 144.056V155H39.891ZM57.0639 155.168C55.7519 155.168 54.5839 154.888 53.5599 154.328C52.5359 153.752 51.7279 152.968 51.1359 151.976C50.5439 150.984 50.2479 149.856 50.2479 148.592C50.2479 147.312 50.5439 146.184 51.1359 145.208C51.7279 144.216 52.5359 143.44 53.5599 142.88C54.5839 142.32 55.7519 142.04 57.0639 142.04C58.3919 142.04 59.5679 142.32 60.5919 142.88C61.6319 143.44 62.4399 144.208 63.0159 145.184C63.6079 146.16 63.9039 147.296 63.9039 148.592C63.9039 149.856 63.6079 150.984 63.0159 151.976C62.4399 152.968 61.6319 153.752 60.5919 154.328C59.5679 154.888 58.3919 155.168 57.0639 155.168ZM57.0639 152.6C57.7999 152.6 58.4559 152.44 59.0319 152.12C59.6079 151.8 60.0559 151.336 60.3759 150.728C60.7119 150.12 60.8799 149.408 60.8799 148.592C60.8799 147.76 60.7119 147.048 60.3759 146.456C60.0559 145.848 59.6079 145.384 59.0319 145.064C58.4559 144.744 57.8079 144.584 57.0879 144.584C56.3519 144.584 55.6959 144.744 55.1199 145.064C54.5599 145.384 54.1119 145.848 53.7759 146.456C53.4399 147.048 53.2719 147.76 53.2719 148.592C53.2719 149.408 53.4399 150.12 53.7759 150.728C54.1119 151.336 54.5599 151.8 55.1199 152.12C55.6959 152.44 56.3439 152.6 57.0639 152.6ZM75.5109 153.608V144.728H70.5909L70.5189 146.792C70.4869 147.528 70.4389 148.24 70.3749 148.928C70.3109 149.6 70.2069 150.224 70.0629 150.8C69.9189 151.36 69.7109 151.824 69.4389 152.192C69.1669 152.56 68.8069 152.8 68.3589 152.912L65.3829 152.456C65.8629 152.456 66.2469 152.304 66.5349 152C66.8389 151.68 67.0709 151.248 67.2309 150.704C67.4069 150.144 67.5349 149.512 67.6149 148.808C67.6949 148.088 67.7509 147.344 67.7829 146.576L67.9509 142.184H78.5109V153.608H75.5109ZM64.9269 157.856V152.456H80.4069V157.856H77.5989V155H67.7109V157.856H64.9269ZM90.8623 155V152.408L90.6943 151.856V147.32C90.6943 146.44 90.4303 145.76 89.9023 145.28C89.3743 144.784 88.5743 144.536 87.5023 144.536C86.7823 144.536 86.0703 144.648 85.3663 144.872C84.6783 145.096 84.0943 145.408 83.6143 145.808L82.4383 143.624C83.1263 143.096 83.9423 142.704 84.8863 142.448C85.8463 142.176 86.8383 142.04 87.8623 142.04C89.7183 142.04 91.1503 142.488 92.1583 143.384C93.1823 144.264 93.6943 145.632 93.6943 147.488V155H90.8623ZM86.8303 155.168C85.8703 155.168 85.0303 155.008 84.3103 154.688C83.5903 154.352 83.0303 153.896 82.6303 153.32C82.2463 152.728 82.0543 152.064 82.0543 151.328C82.0543 150.608 82.2223 149.96 82.5583 149.384C82.9103 148.808 83.4783 148.352 84.2623 148.016C85.0463 147.68 86.0863 147.512 87.3823 147.512H91.1023V149.504H87.5983C86.5743 149.504 85.8863 149.672 85.5343 150.008C85.1823 150.328 85.0063 150.728 85.0063 151.208C85.0063 151.752 85.2223 152.184 85.6543 152.504C86.0863 152.824 86.6863 152.984 87.4543 152.984C88.1903 152.984 88.8463 152.816 89.4223 152.48C90.0143 152.144 90.4383 151.648 90.6943 150.992L91.1983 152.792C90.9103 153.544 90.3903 154.128 89.6383 154.544C88.9023 154.96 87.9663 155.168 86.8303 155.168Z" fill="#A2C33D"/>
<path d="M138.436 369V359.62L138.884 360.096H136.126V359.2H139.444V369H138.436ZM150.701 369V367.376L150.659 367.11V364.394C150.659 363.769 150.481 363.288 150.127 362.952C149.781 362.616 149.263 362.448 148.573 362.448C148.097 362.448 147.644 362.527 147.215 362.686C146.785 362.845 146.421 363.055 146.123 363.316L145.675 362.574C146.048 362.257 146.496 362.014 147.019 361.846C147.541 361.669 148.092 361.58 148.671 361.58C149.623 361.58 150.355 361.818 150.869 362.294C151.391 362.761 151.653 363.475 151.653 364.436V369H150.701ZM148.167 369.07C147.616 369.07 147.135 368.981 146.725 368.804C146.323 368.617 146.015 368.365 145.801 368.048C145.586 367.721 145.479 367.348 145.479 366.928C145.479 366.545 145.567 366.2 145.745 365.892C145.931 365.575 146.23 365.323 146.641 365.136C147.061 364.94 147.621 364.842 148.321 364.842H150.855V365.584H148.349C147.639 365.584 147.145 365.71 146.865 365.962C146.594 366.214 146.459 366.527 146.459 366.9C146.459 367.32 146.622 367.656 146.949 367.908C147.275 368.16 147.733 368.286 148.321 368.286C148.881 368.286 149.361 368.16 149.763 367.908C150.173 367.647 150.472 367.273 150.659 366.788L150.883 367.474C150.696 367.959 150.369 368.347 149.903 368.636C149.445 368.925 148.867 369.07 148.167 369.07ZM154.299 369V361.65H160.907V369H159.913V362.252L160.165 362.518H155.041L155.293 362.252V369H154.299ZM167.526 369.07C166.892 369.07 166.318 368.925 165.804 368.636C165.291 368.337 164.88 367.913 164.572 367.362C164.274 366.802 164.124 366.121 164.124 365.318C164.124 364.515 164.274 363.839 164.572 363.288C164.871 362.728 165.277 362.303 165.79 362.014C166.304 361.725 166.882 361.58 167.526 361.58C168.226 361.58 168.852 361.739 169.402 362.056C169.962 362.364 170.401 362.803 170.718 363.372C171.036 363.932 171.194 364.581 171.194 365.318C171.194 366.065 171.036 366.718 170.718 367.278C170.401 367.838 169.962 368.277 169.402 368.594C168.852 368.911 168.226 369.07 167.526 369.07ZM163.732 371.716V361.65H164.684V363.862L164.586 365.332L164.726 366.816V371.716H163.732ZM167.456 368.188C167.979 368.188 168.446 368.071 168.856 367.838C169.267 367.595 169.594 367.259 169.836 366.83C170.079 366.391 170.2 365.887 170.2 365.318C170.2 364.749 170.079 364.249 169.836 363.82C169.594 363.391 169.267 363.055 168.856 362.812C168.446 362.569 167.979 362.448 167.456 362.448C166.934 362.448 166.462 362.569 166.042 362.812C165.632 363.055 165.305 363.391 165.062 363.82C164.829 364.249 164.712 364.749 164.712 365.318C164.712 365.887 164.829 366.391 165.062 366.83C165.305 367.259 165.632 367.595 166.042 367.838C166.462 368.071 166.934 368.188 167.456 368.188ZM176.48 369.07C175.715 369.07 175.043 368.911 174.464 368.594C173.885 368.267 173.433 367.824 173.106 367.264C172.779 366.695 172.616 366.046 172.616 365.318C172.616 364.59 172.77 363.946 173.078 363.386C173.395 362.826 173.825 362.387 174.366 362.07C174.917 361.743 175.533 361.58 176.214 361.58C176.905 361.58 177.516 361.739 178.048 362.056C178.589 362.364 179.014 362.803 179.322 363.372C179.63 363.932 179.784 364.581 179.784 365.318C179.784 365.365 179.779 365.416 179.77 365.472C179.77 365.519 179.77 365.57 179.77 365.626H173.372V364.884H179.238L178.846 365.178C178.846 364.646 178.729 364.175 178.496 363.764C178.272 363.344 177.964 363.017 177.572 362.784C177.18 362.551 176.727 362.434 176.214 362.434C175.71 362.434 175.257 362.551 174.856 362.784C174.455 363.017 174.142 363.344 173.918 363.764C173.694 364.184 173.582 364.665 173.582 365.206V365.36C173.582 365.92 173.703 366.415 173.946 366.844C174.198 367.264 174.543 367.595 174.982 367.838C175.43 368.071 175.939 368.188 176.508 368.188C176.956 368.188 177.371 368.109 177.754 367.95C178.146 367.791 178.482 367.549 178.762 367.222L179.322 367.866C178.995 368.258 178.585 368.557 178.09 368.762C177.605 368.967 177.068 369.07 176.48 369.07ZM180.49 368.986L180.56 368.132C180.625 368.141 180.686 368.155 180.742 368.174C180.807 368.183 180.863 368.188 180.91 368.188C181.209 368.188 181.447 368.076 181.624 367.852C181.811 367.628 181.951 367.329 182.044 366.956C182.137 366.583 182.203 366.163 182.24 365.696C182.277 365.22 182.31 364.744 182.338 364.268L182.464 361.65H187.854V369H186.86V362.224L187.112 362.518H183.108L183.346 362.21L183.234 364.338C183.206 364.973 183.155 365.579 183.08 366.158C183.015 366.737 182.907 367.245 182.758 367.684C182.618 368.123 182.422 368.468 182.17 368.72C181.918 368.963 181.596 369.084 181.204 369.084C181.092 369.084 180.975 369.075 180.854 369.056C180.742 369.037 180.621 369.014 180.49 368.986ZM195.426 369V366.354L195.608 366.564H193.116C192.173 366.564 191.436 366.359 190.904 365.948C190.372 365.537 190.106 364.94 190.106 364.156C190.106 363.316 190.39 362.691 190.96 362.28C191.529 361.86 192.29 361.65 193.242 361.65H196.336V369H195.426ZM190.05 369L192.066 366.172H193.102L191.128 369H190.05ZM195.426 366.06V362.224L195.608 362.518H193.27C192.588 362.518 192.056 362.649 191.674 362.91C191.3 363.171 191.114 363.596 191.114 364.184C191.114 365.276 191.809 365.822 193.2 365.822H195.608L195.426 366.06Z" fill="#313131"/>
<path d="M615.654 369.084C614.945 369.084 614.273 368.972 613.638 368.748C613.013 368.515 612.509 368.207 612.126 367.824L612.616 367.026C612.933 367.353 613.358 367.623 613.89 367.838C614.431 368.053 615.019 368.16 615.654 368.16C616.466 368.16 617.087 367.983 617.516 367.628C617.955 367.273 618.174 366.797 618.174 366.2C618.174 365.603 617.959 365.127 617.53 364.772C617.11 364.417 616.443 364.24 615.528 364.24H614.828V363.498L617.852 359.704L617.992 360.096H612.532V359.2H618.832V359.914L615.808 363.708L615.318 363.386H615.696C616.872 363.386 617.749 363.647 618.328 364.17C618.916 364.693 619.21 365.365 619.21 366.186C619.21 366.737 619.079 367.231 618.818 367.67C618.557 368.109 618.16 368.454 617.628 368.706C617.105 368.958 616.447 369.084 615.654 369.084ZM624.536 369.084C623.78 369.084 623.108 368.888 622.52 368.496C621.932 368.095 621.47 367.525 621.134 366.788C620.798 366.041 620.63 365.145 620.63 364.1C620.63 363.055 620.798 362.163 621.134 361.426C621.47 360.679 621.932 360.11 622.52 359.718C623.108 359.317 623.78 359.116 624.536 359.116C625.292 359.116 625.964 359.317 626.552 359.718C627.14 360.11 627.602 360.679 627.938 361.426C628.284 362.163 628.456 363.055 628.456 364.1C628.456 365.145 628.284 366.041 627.938 366.788C627.602 367.525 627.14 368.095 626.552 368.496C625.964 368.888 625.292 369.084 624.536 369.084ZM624.536 368.16C625.115 368.16 625.619 368.006 626.048 367.698C626.478 367.381 626.814 366.923 627.056 366.326C627.299 365.719 627.42 364.977 627.42 364.1C627.42 363.223 627.299 362.485 627.056 361.888C626.814 361.281 626.478 360.824 626.048 360.516C625.619 360.199 625.115 360.04 624.536 360.04C623.976 360.04 623.477 360.199 623.038 360.516C622.6 360.824 622.259 361.281 622.016 361.888C621.774 362.485 621.652 363.223 621.652 364.1C621.652 364.977 621.774 365.719 622.016 366.326C622.259 366.923 622.6 367.381 623.038 367.698C623.477 368.006 623.976 368.16 624.536 368.16ZM638.996 369V366.354L639.178 366.564H636.686C635.743 366.564 635.006 366.359 634.474 365.948C633.942 365.537 633.676 364.94 633.676 364.156C633.676 363.316 633.961 362.691 634.53 362.28C635.099 361.86 635.86 361.65 636.812 361.65H639.906V369H638.996ZM633.62 369L635.636 366.172H636.672L634.698 369H633.62ZM638.996 366.06V362.224L639.178 362.518H636.84C636.159 362.518 635.627 362.649 635.244 362.91C634.871 363.171 634.684 363.596 634.684 364.184C634.684 365.276 635.379 365.822 636.77 365.822H639.178L638.996 366.06ZM642.74 369V361.65H649.348V369H648.354V362.252L648.606 362.518H643.482L643.734 362.252V369H642.74ZM655.968 369.07C655.333 369.07 654.759 368.925 654.246 368.636C653.732 368.337 653.322 367.913 653.014 367.362C652.715 366.802 652.566 366.121 652.566 365.318C652.566 364.515 652.715 363.839 653.014 363.288C653.312 362.728 653.718 362.303 654.232 362.014C654.745 361.725 655.324 361.58 655.968 361.58C656.668 361.58 657.293 361.739 657.844 362.056C658.404 362.364 658.842 362.803 659.16 363.372C659.477 363.932 659.636 364.581 659.636 365.318C659.636 366.065 659.477 366.718 659.16 367.278C658.842 367.838 658.404 368.277 657.844 368.594C657.293 368.911 656.668 369.07 655.968 369.07ZM652.174 371.716V361.65H653.126V363.862L653.028 365.332L653.168 366.816V371.716H652.174ZM655.898 368.188C656.42 368.188 656.887 368.071 657.298 367.838C657.708 367.595 658.035 367.259 658.278 366.83C658.52 366.391 658.642 365.887 658.642 365.318C658.642 364.749 658.52 364.249 658.278 363.82C658.035 363.391 657.708 363.055 657.298 362.812C656.887 362.569 656.42 362.448 655.898 362.448C655.375 362.448 654.904 362.569 654.484 362.812C654.073 363.055 653.746 363.391 653.504 363.82C653.27 364.249 653.154 364.749 653.154 365.318C653.154 365.887 653.27 366.391 653.504 366.83C653.746 367.259 654.073 367.595 654.484 367.838C654.904 368.071 655.375 368.188 655.898 368.188ZM664.921 369.07C664.156 369.07 663.484 368.911 662.905 368.594C662.327 368.267 661.874 367.824 661.547 367.264C661.221 366.695 661.057 366.046 661.057 365.318C661.057 364.59 661.211 363.946 661.519 363.386C661.837 362.826 662.266 362.387 662.807 362.07C663.358 361.743 663.974 361.58 664.655 361.58C665.346 361.58 665.957 361.739 666.489 362.056C667.031 362.364 667.455 362.803 667.763 363.372C668.071 363.932 668.225 364.581 668.225 365.318C668.225 365.365 668.221 365.416 668.211 365.472C668.211 365.519 668.211 365.57 668.211 365.626H661.813V364.884H667.679L667.287 365.178C667.287 364.646 667.171 364.175 666.937 363.764C666.713 363.344 666.405 363.017 666.013 362.784C665.621 362.551 665.169 362.434 664.655 362.434C664.151 362.434 663.699 362.551 663.297 362.784C662.896 363.017 662.583 363.344 662.359 363.764C662.135 364.184 662.023 364.665 662.023 365.206V365.36C662.023 365.92 662.145 366.415 662.387 366.844C662.639 367.264 662.985 367.595 663.423 367.838C663.871 368.071 664.38 368.188 664.949 368.188C665.397 368.188 665.813 368.109 666.195 367.95C666.587 367.791 666.923 367.549 667.203 367.222L667.763 367.866C667.437 368.258 667.026 368.557 666.531 368.762C666.046 368.967 665.509 369.07 664.921 369.07ZM668.931 368.986L669.001 368.132C669.067 368.141 669.127 368.155 669.183 368.174C669.249 368.183 669.305 368.188 669.351 368.188C669.65 368.188 669.888 368.076 670.065 367.852C670.252 367.628 670.392 367.329 670.485 366.956C670.579 366.583 670.644 366.163 670.681 365.696C670.719 365.22 670.751 364.744 670.779 364.268L670.905 361.65H676.295V369H675.301V362.224L675.553 362.518H671.549L671.787 362.21L671.675 364.338C671.647 364.973 671.596 365.579 671.521 366.158C671.456 366.737 671.349 367.245 671.199 367.684C671.059 368.123 670.863 368.468 670.611 368.72C670.359 368.963 670.037 369.084 669.645 369.084C669.533 369.084 669.417 369.075 669.295 369.056C669.183 369.037 669.062 369.014 668.931 368.986ZM683.867 369V366.354L684.049 366.564H681.557C680.614 366.564 679.877 366.359 679.345 365.948C678.813 365.537 678.547 364.94 678.547 364.156C678.547 363.316 678.832 362.691 679.401 362.28C679.97 361.86 680.731 361.65 681.683 361.65H684.777V369H683.867ZM678.491 369L680.507 366.172H681.543L679.569 369H678.491ZM683.867 366.06V362.224L684.049 362.518H681.711C681.03 362.518 680.498 362.649 680.115 362.91C679.742 363.171 679.555 363.596 679.555 364.184C679.555 365.276 680.25 365.822 681.641 365.822H684.049L683.867 366.06Z" fill="#313131"/>
<path d="M378.436 369V359.62L378.884 360.096H376.126V359.2H379.444V369H378.436ZM384.881 369.084C384.181 369.084 383.513 368.972 382.879 368.748C382.244 368.515 381.74 368.207 381.367 367.824L381.857 367.026C382.165 367.353 382.585 367.623 383.117 367.838C383.658 368.053 384.241 368.16 384.867 368.16C385.697 368.16 386.327 367.978 386.757 367.614C387.195 367.241 387.415 366.755 387.415 366.158C387.415 365.738 387.312 365.379 387.107 365.08C386.911 364.772 386.575 364.534 386.099 364.366C385.623 364.198 384.969 364.114 384.139 364.114H382.053L382.557 359.2H387.919V360.096H382.963L383.481 359.606L383.047 363.722L382.529 363.218H384.363C385.352 363.218 386.145 363.339 386.743 363.582C387.34 363.825 387.769 364.165 388.031 364.604C388.301 365.033 388.437 365.537 388.437 366.116C388.437 366.667 388.306 367.171 388.045 367.628C387.783 368.076 387.391 368.431 386.869 368.692C386.346 368.953 385.683 369.084 384.881 369.084ZM398.63 369V367.376L398.588 367.11V364.394C398.588 363.769 398.411 363.288 398.056 362.952C397.711 362.616 397.193 362.448 396.502 362.448C396.026 362.448 395.574 362.527 395.144 362.686C394.715 362.845 394.351 363.055 394.052 363.316L393.604 362.574C393.978 362.257 394.426 362.014 394.948 361.846C395.471 361.669 396.022 361.58 396.6 361.58C397.552 361.58 398.285 361.818 398.798 362.294C399.321 362.761 399.582 363.475 399.582 364.436V369H398.63ZM396.096 369.07C395.546 369.07 395.065 368.981 394.654 368.804C394.253 368.617 393.945 368.365 393.73 368.048C393.516 367.721 393.408 367.348 393.408 366.928C393.408 366.545 393.497 366.2 393.674 365.892C393.861 365.575 394.16 365.323 394.57 365.136C394.99 364.94 395.55 364.842 396.25 364.842H398.784V365.584H396.278C395.569 365.584 395.074 365.71 394.794 365.962C394.524 366.214 394.388 366.527 394.388 366.9C394.388 367.32 394.552 367.656 394.878 367.908C395.205 368.16 395.662 368.286 396.25 368.286C396.81 368.286 397.291 368.16 397.692 367.908C398.103 367.647 398.402 367.273 398.588 366.788L398.812 367.474C398.626 367.959 398.299 368.347 397.832 368.636C397.375 368.925 396.796 369.07 396.096 369.07ZM402.228 369V361.65H408.836V369H407.842V362.252L408.094 362.518H402.97L403.222 362.252V369H402.228ZM415.456 369.07C414.821 369.07 414.247 368.925 413.734 368.636C413.221 368.337 412.81 367.913 412.502 367.362C412.203 366.802 412.054 366.121 412.054 365.318C412.054 364.515 412.203 363.839 412.502 363.288C412.801 362.728 413.207 362.303 413.72 362.014C414.233 361.725 414.812 361.58 415.456 361.58C416.156 361.58 416.781 361.739 417.332 362.056C417.892 362.364 418.331 362.803 418.648 363.372C418.965 363.932 419.124 364.581 419.124 365.318C419.124 366.065 418.965 366.718 418.648 367.278C418.331 367.838 417.892 368.277 417.332 368.594C416.781 368.911 416.156 369.07 415.456 369.07ZM411.662 371.716V361.65H412.614V363.862L412.516 365.332L412.656 366.816V371.716H411.662ZM415.386 368.188C415.909 368.188 416.375 368.071 416.786 367.838C417.197 367.595 417.523 367.259 417.766 366.83C418.009 366.391 418.13 365.887 418.13 365.318C418.13 364.749 418.009 364.249 417.766 363.82C417.523 363.391 417.197 363.055 416.786 362.812C416.375 362.569 415.909 362.448 415.386 362.448C414.863 362.448 414.392 362.569 413.972 362.812C413.561 363.055 413.235 363.391 412.992 363.82C412.759 364.249 412.642 364.749 412.642 365.318C412.642 365.887 412.759 366.391 412.992 366.83C413.235 367.259 413.561 367.595 413.972 367.838C414.392 368.071 414.863 368.188 415.386 368.188ZM424.41 369.07C423.644 369.07 422.972 368.911 422.394 368.594C421.815 368.267 421.362 367.824 421.036 367.264C420.709 366.695 420.546 366.046 420.546 365.318C420.546 364.59 420.7 363.946 421.008 363.386C421.325 362.826 421.754 362.387 422.296 362.07C422.846 361.743 423.462 361.58 424.144 361.58C424.834 361.58 425.446 361.739 425.978 362.056C426.519 362.364 426.944 362.803 427.252 363.372C427.56 363.932 427.714 364.581 427.714 365.318C427.714 365.365 427.709 365.416 427.7 365.472C427.7 365.519 427.7 365.57 427.7 365.626H421.302V364.884H427.168L426.776 365.178C426.776 364.646 426.659 364.175 426.426 363.764C426.202 363.344 425.894 363.017 425.502 362.784C425.11 362.551 424.657 362.434 424.144 362.434C423.64 362.434 423.187 362.551 422.786 362.784C422.384 363.017 422.072 363.344 421.848 363.764C421.624 364.184 421.512 364.665 421.512 365.206V365.36C421.512 365.92 421.633 366.415 421.876 366.844C422.128 367.264 422.473 367.595 422.912 367.838C423.36 368.071 423.868 368.188 424.438 368.188C424.886 368.188 425.301 368.109 425.684 367.95C426.076 367.791 426.412 367.549 426.692 367.222L427.252 367.866C426.925 368.258 426.514 368.557 426.02 368.762C425.534 368.967 424.998 369.07 424.41 369.07ZM428.42 368.986L428.49 368.132C428.555 368.141 428.616 368.155 428.672 368.174C428.737 368.183 428.793 368.188 428.84 368.188C429.138 368.188 429.376 368.076 429.554 367.852C429.74 367.628 429.88 367.329 429.974 366.956C430.067 366.583 430.132 366.163 430.17 365.696C430.207 365.22 430.24 364.744 430.268 364.268L430.394 361.65H435.784V369H434.79V362.224L435.042 362.518H431.038L431.276 362.21L431.164 364.338C431.136 364.973 431.084 365.579 431.01 366.158C430.944 366.737 430.837 367.245 430.688 367.684C430.548 368.123 430.352 368.468 430.1 368.72C429.848 368.963 429.526 369.084 429.134 369.084C429.022 369.084 428.905 369.075 428.784 369.056C428.672 369.037 428.55 369.014 428.42 368.986ZM443.355 369V366.354L443.537 366.564H441.045C440.103 366.564 439.365 366.359 438.833 365.948C438.301 365.537 438.035 364.94 438.035 364.156C438.035 363.316 438.32 362.691 438.889 362.28C439.459 361.86 440.219 361.65 441.171 361.65H444.265V369H443.355ZM437.979 369L439.995 366.172H441.031L439.057 369H437.979ZM443.355 366.06V362.224L443.537 362.518H441.199C440.518 362.518 439.986 362.649 439.603 362.91C439.23 363.171 439.043 363.596 439.043 364.184C439.043 365.276 439.739 365.822 441.129 365.822H443.537L443.355 366.06Z" fill="#313131"/>
</svg>
