<svg width="302" height="226" viewBox="0 0 302 226" fill="none" xmlns="http://www.w3.org/2000/svg">
<path d="M231.654 220.084C230.945 220.084 230.273 219.972 229.638 219.748C229.013 219.515 228.509 219.207 228.126 218.824L228.616 218.026C228.933 218.353 229.358 218.623 229.89 218.838C230.431 219.053 231.019 219.16 231.654 219.16C232.466 219.16 233.087 218.983 233.516 218.628C233.955 218.273 234.174 217.797 234.174 217.2C234.174 216.603 233.959 216.127 233.53 215.772C233.11 215.417 232.443 215.24 231.528 215.24H230.828V214.498L233.852 210.704L233.992 211.096H228.532V210.2H234.832V210.914L231.808 214.708L231.318 214.386H231.696C232.872 214.386 233.749 214.647 234.328 215.17C234.916 215.693 235.21 216.365 235.21 217.186C235.21 217.737 235.079 218.231 234.818 218.67C234.557 219.109 234.16 219.454 233.628 219.706C233.105 219.958 232.447 220.084 231.654 220.084ZM240.536 220.084C239.78 220.084 239.108 219.888 238.52 219.496C237.932 219.095 237.47 218.525 237.134 217.788C236.798 217.041 236.63 216.145 236.63 215.1C236.63 214.055 236.798 213.163 237.134 212.426C237.47 211.679 237.932 211.11 238.52 210.718C239.108 210.317 239.78 210.116 240.536 210.116C241.292 210.116 241.964 210.317 242.552 210.718C243.14 211.11 243.602 211.679 243.938 212.426C244.284 213.163 244.456 214.055 244.456 215.1C244.456 216.145 244.284 217.041 243.938 217.788C243.602 218.525 243.14 219.095 242.552 219.496C241.964 219.888 241.292 220.084 240.536 220.084ZM240.536 219.16C241.115 219.16 241.619 219.006 242.048 218.698C242.478 218.381 242.814 217.923 243.056 217.326C243.299 216.719 243.42 215.977 243.42 215.1C243.42 214.223 243.299 213.485 243.056 212.888C242.814 212.281 242.478 211.824 242.048 211.516C241.619 211.199 241.115 211.04 240.536 211.04C239.976 211.04 239.477 211.199 239.038 211.516C238.6 211.824 238.259 212.281 238.016 212.888C237.774 213.485 237.652 214.223 237.652 215.1C237.652 215.977 237.774 216.719 238.016 217.326C238.259 217.923 238.6 218.381 239.038 218.698C239.477 219.006 239.976 219.16 240.536 219.16ZM255.64 220L252.616 216.36L253.442 215.87L256.816 220H255.64ZM250.25 220V212.65H251.244V220H250.25ZM250.936 216.724V215.87H253.302V216.724H250.936ZM253.526 216.43L252.602 216.29L255.528 212.65H256.606L253.526 216.43ZM258.385 220V212.65H261.633C262.463 212.65 263.117 212.809 263.593 213.126C264.078 213.443 264.321 213.91 264.321 214.526C264.321 215.123 264.092 215.585 263.635 215.912C263.177 216.229 262.575 216.388 261.829 216.388L262.025 216.094C262.902 216.094 263.546 216.257 263.957 216.584C264.367 216.911 264.573 217.382 264.573 217.998C264.573 218.633 264.339 219.127 263.873 219.482C263.415 219.827 262.701 220 261.731 220H258.385ZM259.351 219.216H261.689C262.314 219.216 262.785 219.118 263.103 218.922C263.429 218.717 263.593 218.39 263.593 217.942C263.593 217.494 263.448 217.167 263.159 216.962C262.869 216.757 262.412 216.654 261.787 216.654H259.351V219.216ZM259.351 215.912H261.563C262.132 215.912 262.566 215.805 262.865 215.59C263.173 215.375 263.327 215.063 263.327 214.652C263.327 214.241 263.173 213.933 262.865 213.728C262.566 213.523 262.132 213.42 261.563 213.42H259.351V215.912ZM266.902 220V212.65H267.896V220H266.902ZM267.406 211.026C267.201 211.026 267.028 210.956 266.888 210.816C266.748 210.676 266.678 210.508 266.678 210.312C266.678 210.116 266.748 209.953 266.888 209.822C267.028 209.682 267.201 209.612 267.406 209.612C267.612 209.612 267.784 209.677 267.924 209.808C268.064 209.939 268.134 210.102 268.134 210.298C268.134 210.503 268.064 210.676 267.924 210.816C267.794 210.956 267.621 211.026 267.406 211.026ZM272.13 220V213.252L272.382 213.518H269.344V212.65H275.91V213.518H272.872L273.124 213.252V220H272.13ZM277.348 220V212.65H278.342V215.898H282.976V212.65H283.97V220H282.976V216.752H278.342V220H277.348ZM291.541 220V217.354L291.723 217.564H289.231C288.288 217.564 287.551 217.359 287.019 216.948C286.487 216.537 286.221 215.94 286.221 215.156C286.221 214.316 286.506 213.691 287.075 213.28C287.644 212.86 288.405 212.65 289.357 212.65H292.451V220H291.541ZM286.165 220L288.181 217.172H289.217L287.243 220H286.165ZM291.541 217.06V213.224L291.723 213.518H289.385C288.704 213.518 288.172 213.649 287.789 213.91C287.416 214.171 287.229 214.596 287.229 215.184C287.229 216.276 287.924 216.822 289.315 216.822H291.723L291.541 217.06Z" fill="#313131"/>
<path d="M118.436 220V210.62L118.884 211.096H116.126V210.2H119.444V220H118.436ZM124.881 220.084C124.181 220.084 123.513 219.972 122.879 219.748C122.244 219.515 121.74 219.207 121.367 218.824L121.857 218.026C122.165 218.353 122.585 218.623 123.117 218.838C123.658 219.053 124.241 219.16 124.867 219.16C125.697 219.16 126.327 218.978 126.757 218.614C127.195 218.241 127.415 217.755 127.415 217.158C127.415 216.738 127.312 216.379 127.107 216.08C126.911 215.772 126.575 215.534 126.099 215.366C125.623 215.198 124.969 215.114 124.139 215.114H122.053L122.557 210.2H127.919V211.096H122.963L123.481 210.606L123.047 214.722L122.529 214.218H124.363C125.352 214.218 126.145 214.339 126.743 214.582C127.34 214.825 127.769 215.165 128.031 215.604C128.301 216.033 128.437 216.537 128.437 217.116C128.437 217.667 128.306 218.171 128.045 218.628C127.783 219.076 127.391 219.431 126.869 219.692C126.346 219.953 125.683 220.084 124.881 220.084ZM139.456 220L136.432 216.36L137.258 215.87L140.632 220H139.456ZM134.066 220V212.65H135.06V220H134.066ZM134.752 216.724V215.87H137.118V216.724H134.752ZM137.342 216.43L136.418 216.29L139.344 212.65H140.422L137.342 216.43ZM142.201 220V212.65H145.449C146.28 212.65 146.933 212.809 147.409 213.126C147.894 213.443 148.137 213.91 148.137 214.526C148.137 215.123 147.908 215.585 147.451 215.912C146.994 216.229 146.392 216.388 145.645 216.388L145.841 216.094C146.718 216.094 147.362 216.257 147.773 216.584C148.184 216.911 148.389 217.382 148.389 217.998C148.389 218.633 148.156 219.127 147.689 219.482C147.232 219.827 146.518 220 145.547 220H142.201ZM143.167 219.216H145.505C146.13 219.216 146.602 219.118 146.919 218.922C147.246 218.717 147.409 218.39 147.409 217.942C147.409 217.494 147.264 217.167 146.975 216.962C146.686 216.757 146.228 216.654 145.603 216.654H143.167V219.216ZM143.167 215.912H145.379C145.948 215.912 146.382 215.805 146.681 215.59C146.989 215.375 147.143 215.063 147.143 214.652C147.143 214.241 146.989 213.933 146.681 213.728C146.382 213.523 145.948 213.42 145.379 213.42H143.167V215.912ZM150.719 220V212.65H151.713V220H150.719ZM151.223 211.026C151.017 211.026 150.845 210.956 150.705 210.816C150.565 210.676 150.495 210.508 150.495 210.312C150.495 210.116 150.565 209.953 150.705 209.822C150.845 209.682 151.017 209.612 151.223 209.612C151.428 209.612 151.601 209.677 151.741 209.808C151.881 209.939 151.951 210.102 151.951 210.298C151.951 210.503 151.881 210.676 151.741 210.816C151.61 210.956 151.437 211.026 151.223 211.026ZM155.947 220V213.252L156.199 213.518H153.161V212.65H159.727V213.518H156.689L156.941 213.252V220H155.947ZM161.164 220V212.65H162.158V215.898H166.792V212.65H167.786V220H166.792V216.752H162.158V220H161.164ZM175.357 220V217.354L175.539 217.564H173.047C172.105 217.564 171.367 217.359 170.835 216.948C170.303 216.537 170.037 215.94 170.037 215.156C170.037 214.316 170.322 213.691 170.891 213.28C171.461 212.86 172.221 212.65 173.173 212.65H176.267V220H175.357ZM169.981 220L171.997 217.172H173.033L171.059 220H169.981ZM175.357 217.06V213.224L175.539 213.518H173.201C172.52 213.518 171.988 213.649 171.605 213.91C171.232 214.171 171.045 214.596 171.045 215.184C171.045 216.276 171.741 216.822 173.131 216.822H175.539L175.357 217.06Z" fill="#313131"/>
<path d="M2.436 220V210.62L2.884 211.096H0.126V210.2H3.444V220H2.436ZM15.5267 220L12.5027 216.36L13.3287 215.87L16.7027 220H15.5267ZM10.1367 220V212.65H11.1307V220H10.1367ZM10.8227 216.724V215.87H13.1887V216.724H10.8227ZM13.4127 216.43L12.4887 216.29L15.4147 212.65H16.4927L13.4127 216.43ZM18.2714 220V212.65H21.5194C22.3501 212.65 23.0034 212.809 23.4794 213.126C23.9648 213.443 24.2074 213.91 24.2074 214.526C24.2074 215.123 23.9788 215.585 23.5214 215.912C23.0641 216.229 22.4621 216.388 21.7154 216.388L21.9114 216.094C22.7888 216.094 23.4328 216.257 23.8434 216.584C24.2541 216.911 24.4594 217.382 24.4594 217.998C24.4594 218.633 24.2261 219.127 23.7594 219.482C23.3021 219.827 22.5881 220 21.6174 220H18.2714ZM19.2374 219.216H21.5754C22.2008 219.216 22.6721 219.118 22.9894 218.922C23.3161 218.717 23.4794 218.39 23.4794 217.942C23.4794 217.494 23.3348 217.167 23.0454 216.962C22.7561 216.757 22.2988 216.654 21.6734 216.654H19.2374V219.216ZM19.2374 215.912H21.4494C22.0188 215.912 22.4528 215.805 22.7514 215.59C23.0594 215.375 23.2134 215.063 23.2134 214.652C23.2134 214.241 23.0594 213.933 22.7514 213.728C22.4528 213.523 22.0188 213.42 21.4494 213.42H19.2374V215.912ZM26.789 220V212.65H27.783V220H26.789ZM27.293 211.026C27.0877 211.026 26.915 210.956 26.775 210.816C26.635 210.676 26.565 210.508 26.565 210.312C26.565 210.116 26.635 209.953 26.775 209.822C26.915 209.682 27.0877 209.612 27.293 209.612C27.4983 209.612 27.671 209.677 27.811 209.808C27.951 209.939 28.021 210.102 28.021 210.298C28.021 210.503 27.951 210.676 27.811 210.816C27.6803 210.956 27.5077 211.026 27.293 211.026ZM32.0171 220V213.252L32.2691 213.518H29.2311V212.65H35.7971V213.518H32.7591L33.0111 213.252V220H32.0171ZM37.2343 220V212.65H38.2283V215.898H42.8623V212.65H43.8563V220H42.8623V216.752H38.2283V220H37.2343ZM51.4276 220V217.354L51.6096 217.564H49.1176C48.1749 217.564 47.4376 217.359 46.9056 216.948C46.3736 216.537 46.1076 215.94 46.1076 215.156C46.1076 214.316 46.3922 213.691 46.9616 213.28C47.5309 212.86 48.2916 212.65 49.2436 212.65H52.3376V220H51.4276ZM46.0516 220L48.0676 217.172H49.1036L47.1296 220H46.0516ZM51.4276 217.06V213.224L51.6096 213.518H49.2716C48.5902 213.518 48.0582 213.649 47.6756 213.91C47.3022 214.171 47.1156 214.596 47.1156 215.184C47.1156 216.276 47.8109 216.822 49.2016 216.822H51.6096L51.4276 217.06Z" fill="#313131"/>
<rect x="301.998" y="203" width="11" height="181" transform="rotate(180 301.998 203)" fill="#BC0051"/>
<rect x="286.998" y="203" width="11" height="151" transform="rotate(180 286.998 203)" fill="#214B33"/>
<rect x="270.998" y="203" width="11" height="144" transform="rotate(180 270.998 203)" fill="#A2C33D" fill-opacity="0.4"/>
<rect x="255.998" y="203" width="11" height="141" transform="rotate(180 255.998 203)" fill="#A2C33D" fill-opacity="0.4"/>
<rect x="240.998" y="203" width="11" height="136" transform="rotate(180 240.998 203)" fill="#A2C33D" fill-opacity="0.4"/>
<rect x="225.998" y="203" width="11" height="128" transform="rotate(180 225.998 203)" fill="#A2C33D" fill-opacity="0.4"/>
<rect x="209.998" y="203" width="11" height="125" transform="rotate(180 209.998 203)" fill="#A2C33D" fill-opacity="0.4"/>
<rect x="194.998" y="203" width="11" height="113" transform="rotate(180 194.998 203)" fill="#A2C33D" fill-opacity="0.4"/>
<rect x="179.998" y="203" width="11" height="111" transform="rotate(180 179.998 203)" fill="#A2C33D" fill-opacity="0.4"/>
<rect x="163.998" y="203" width="11" height="104" transform="rotate(180 163.998 203)" fill="#A2C33D" fill-opacity="0.4"/>
<rect x="148.998" y="203" width="11" height="104" transform="rotate(180 148.998 203)" fill="#A2C33D" fill-opacity="0.4"/>
<rect x="133.998" y="203" width="11" height="100" transform="rotate(180 133.998 203)" fill="#A2C33D" fill-opacity="0.4"/>
<rect x="117.998" y="203" width="11" height="97" transform="rotate(180 117.998 203)" fill="#A2C33D" fill-opacity="0.4"/>
<rect x="102.998" y="203" width="11" height="97" transform="rotate(180 102.998 203)" fill="#A2C33D" fill-opacity="0.4"/>
<rect x="87.998" y="203" width="11" height="86" transform="rotate(180 87.998 203)" fill="#A2C33D" fill-opacity="0.4"/>
<rect x="72.998" y="203" width="11" height="82" transform="rotate(180 72.998 203)" fill="#A2C33D" fill-opacity="0.4"/>
<rect x="56.998" y="203" width="11" height="79" transform="rotate(180 56.998 203)" fill="#A2C33D" fill-opacity="0.4"/>
<rect x="41.998" y="203" width="11" height="71" transform="rotate(180 41.998 203)" fill="#A2C33D" fill-opacity="0.4"/>
<rect x="26.998" y="203" width="11" height="68" transform="rotate(180 26.998 203)" fill="#A2C33D" fill-opacity="0.4"/>
<rect x="11" y="203" width="11" height="57" transform="rotate(180 11 203)" fill="#A2C33D"/>
<path d="M6 53V146" stroke="#A2C33D" stroke-width="11.3313" stroke-dasharray="5.67 5.67"/>
<path d="M28.358 146L24.592 141.114L25.432 140.61L29.548 146H28.358ZM21.652 146V136.2H22.66V146H21.652ZM22.352 141.506V140.596H25.418V141.506H22.352ZM25.516 141.212L24.564 141.044L28.218 136.2H29.338L25.516 141.212ZM31.0283 148.786C30.6829 148.786 30.3516 148.73 30.0343 148.618C29.7263 148.506 29.4603 148.338 29.2363 148.114L29.6983 147.372C29.8849 147.549 30.0856 147.685 30.3003 147.778C30.5243 147.881 30.7716 147.932 31.0423 147.932C31.3689 147.932 31.6489 147.839 31.8823 147.652C32.1249 147.475 32.3536 147.157 32.5683 146.7L33.0443 145.622L33.1563 145.468L36.1803 138.65H37.1603L33.4783 146.882C33.2729 147.358 33.0443 147.736 32.7923 148.016C32.5496 148.296 32.2836 148.492 31.9943 148.604C31.7049 148.725 31.3829 148.786 31.0283 148.786ZM32.9883 146.21L29.6003 138.65H30.6363L33.6323 145.398L32.9883 146.21ZM38.7089 146V138.65H45.3169V146H44.3229V139.252L44.5749 139.518H39.4509L39.7029 139.252V146H38.7089ZM48.2685 148.786C47.9232 148.786 47.5918 148.73 47.2745 148.618C46.9665 148.506 46.7005 148.338 46.4765 148.114L46.9385 147.372C47.1252 147.549 47.3258 147.685 47.5405 147.778C47.7645 147.881 48.0118 147.932 48.2825 147.932C48.6092 147.932 48.8892 147.839 49.1225 147.652C49.3652 147.475 49.5938 147.157 49.8085 146.7L50.2845 145.622L50.3965 145.468L53.4205 138.65H54.4005L50.7185 146.882C50.5132 147.358 50.2845 147.736 50.0325 148.016C49.7898 148.296 49.5238 148.492 49.2345 148.604C48.9452 148.725 48.6232 148.786 48.2685 148.786ZM50.2285 146.21L46.8405 138.65H47.8765L50.8725 145.398L50.2285 146.21ZM59.9021 142.01V142.752H55.6321V142.01H59.9021ZM58.9221 146.07C58.1754 146.07 57.5081 145.911 56.9201 145.594C56.3321 145.267 55.8654 144.819 55.5201 144.25C55.1841 143.681 55.0161 143.037 55.0161 142.318C55.0161 141.59 55.1841 140.946 55.5201 140.386C55.8654 139.817 56.3321 139.373 56.9201 139.056C57.5081 138.729 58.1754 138.566 58.9221 138.566C59.5287 138.566 60.0887 138.659 60.6021 138.846C61.1154 139.033 61.5494 139.313 61.9041 139.686L61.3301 140.26C61.0034 139.961 60.6394 139.742 60.2381 139.602C59.8461 139.462 59.4167 139.392 58.9501 139.392C58.3807 139.392 57.8674 139.518 57.4101 139.77C56.9621 140.022 56.6027 140.372 56.3321 140.82C56.0707 141.259 55.9401 141.758 55.9401 142.318C55.9401 142.887 56.0707 143.391 56.3321 143.83C56.6027 144.269 56.9621 144.619 57.4101 144.88C57.8674 145.132 58.3807 145.258 58.9501 145.258C59.4167 145.258 59.8461 145.188 60.2381 145.048C60.6394 144.899 61.0034 144.67 61.3301 144.362L61.9041 144.936C61.5494 145.309 61.1154 145.594 60.6021 145.79C60.0887 145.977 59.5287 146.07 58.9221 146.07ZM65.0191 146V139.252L65.2711 139.518H62.2331V138.65H68.7991V139.518H65.7611L66.0131 139.252V146H65.0191ZM73.0445 146.07C72.2791 146.07 71.6071 145.911 71.0285 145.594C70.4498 145.267 69.9971 144.824 69.6705 144.264C69.3438 143.695 69.1805 143.046 69.1805 142.318C69.1805 141.59 69.3345 140.946 69.6425 140.386C69.9598 139.826 70.3891 139.387 70.9305 139.07C71.4811 138.743 72.0971 138.58 72.7785 138.58C73.4691 138.58 74.0805 138.739 74.6125 139.056C75.1538 139.364 75.5785 139.803 75.8865 140.372C76.1945 140.932 76.3485 141.581 76.3485 142.318C76.3485 142.365 76.3438 142.416 76.3345 142.472C76.3345 142.519 76.3345 142.57 76.3345 142.626H69.9365V141.884H75.8025L75.4105 142.178C75.4105 141.646 75.2938 141.175 75.0605 140.764C74.8365 140.344 74.5285 140.017 74.1365 139.784C73.7445 139.551 73.2918 139.434 72.7785 139.434C72.2745 139.434 71.8218 139.551 71.4205 139.784C71.0191 140.017 70.7065 140.344 70.4825 140.764C70.2585 141.184 70.1465 141.665 70.1465 142.206V142.36C70.1465 142.92 70.2678 143.415 70.5105 143.844C70.7625 144.264 71.1078 144.595 71.5465 144.838C71.9945 145.071 72.5031 145.188 73.0725 145.188C73.5205 145.188 73.9358 145.109 74.3185 144.95C74.7105 144.791 75.0465 144.549 75.3265 144.222L75.8865 144.866C75.5598 145.258 75.1491 145.557 74.6545 145.762C74.1691 145.967 73.6325 146.07 73.0445 146.07ZM86.3428 146.084C86.3428 146.084 86.3242 146.084 86.2868 146.084C86.2495 146.084 86.2122 146.084 86.1748 146.084C86.1468 146.084 86.1235 146.084 86.1048 146.084C84.6488 146.075 83.5148 145.743 82.7028 145.09C81.8908 144.437 81.4848 143.508 81.4848 142.304C81.4848 141.119 81.8908 140.204 82.7028 139.56C83.5242 138.907 84.6768 138.575 86.1608 138.566C86.1702 138.566 86.1888 138.566 86.2168 138.566C86.2542 138.566 86.2868 138.566 86.3148 138.566C86.3428 138.566 86.3615 138.566 86.3708 138.566C87.8642 138.575 89.0262 138.907 89.8568 139.56C90.6875 140.204 91.1028 141.119 91.1028 142.304C91.1028 143.517 90.6828 144.451 89.8428 145.104C89.0122 145.757 87.8455 146.084 86.3428 146.084ZM86.3288 145.216C87.1595 145.216 87.8548 145.104 88.4148 144.88C88.9748 144.647 89.3995 144.315 89.6888 143.886C89.9782 143.457 90.1228 142.929 90.1228 142.304C90.1228 141.697 89.9782 141.184 89.6888 140.764C89.3995 140.335 88.9748 140.008 88.4148 139.784C87.8548 139.56 87.1595 139.448 86.3288 139.448C86.3195 139.448 86.2915 139.448 86.2448 139.448C86.2075 139.448 86.1842 139.448 86.1748 139.448C85.3628 139.448 84.6815 139.565 84.1308 139.798C83.5802 140.022 83.1648 140.344 82.8848 140.764C82.6048 141.184 82.4648 141.697 82.4648 142.304C82.4648 142.92 82.6048 143.443 82.8848 143.872C83.1742 144.301 83.5942 144.633 84.1448 144.866C84.6955 145.09 85.3722 145.207 86.1748 145.216C86.1935 145.216 86.2215 145.216 86.2588 145.216C86.2962 145.216 86.3195 145.216 86.3288 145.216ZM85.7968 148.716V135.612H86.7628V148.716H85.7968ZM92.6219 139.896L92.5519 136.2H93.4339L93.3639 139.896H92.6219ZM95.83 146V138.65H96.824V141.814H99.064V142.724H96.824V146H95.83ZM102.158 146.07C101.458 146.07 100.828 145.911 100.268 145.594C99.7173 145.267 99.2833 144.824 98.966 144.264C98.6487 143.695 98.49 143.046 98.49 142.318C98.49 141.581 98.6487 140.932 98.966 140.372C99.2833 139.812 99.7173 139.373 100.268 139.056C100.828 138.739 101.458 138.58 102.158 138.58C102.858 138.58 103.483 138.739 104.034 139.056C104.585 139.373 105.019 139.812 105.336 140.372C105.653 140.932 105.812 141.581 105.812 142.318C105.812 143.046 105.653 143.695 105.336 144.264C105.019 144.824 104.585 145.267 104.034 145.594C103.483 145.911 102.858 146.07 102.158 146.07ZM102.158 145.202C102.671 145.202 103.129 145.081 103.53 144.838C103.931 144.595 104.249 144.259 104.482 143.83C104.715 143.391 104.832 142.887 104.832 142.318C104.832 141.739 104.715 141.235 104.482 140.806C104.249 140.377 103.931 140.045 103.53 139.812C103.129 139.569 102.671 139.448 102.158 139.448C101.654 139.448 101.197 139.569 100.786 139.812C100.385 140.045 100.067 140.377 99.834 140.806C99.6007 141.235 99.484 141.739 99.484 142.318C99.484 142.887 99.6007 143.391 99.834 143.83C100.067 144.259 100.385 144.595 100.786 144.838C101.197 145.081 101.654 145.202 102.158 145.202ZM112.591 142.892C112.162 143.079 111.728 143.228 111.289 143.34C110.86 143.443 110.431 143.494 110.001 143.494C109.133 143.494 108.447 143.298 107.943 142.906C107.439 142.505 107.187 141.889 107.187 141.058V138.65H108.167V141.002C108.167 141.562 108.349 141.982 108.713 142.262C109.077 142.542 109.567 142.682 110.183 142.682C110.557 142.682 110.949 142.635 111.359 142.542C111.77 142.439 112.185 142.295 112.605 142.108L112.591 142.892ZM112.507 146V138.65H113.501V146H112.507ZM119.474 146.07C118.709 146.07 118.037 145.911 117.458 145.594C116.879 145.267 116.427 144.824 116.1 144.264C115.773 143.695 115.61 143.046 115.61 142.318C115.61 141.59 115.764 140.946 116.072 140.386C116.389 139.826 116.819 139.387 117.36 139.07C117.911 138.743 118.527 138.58 119.208 138.58C119.899 138.58 120.51 138.739 121.042 139.056C121.583 139.364 122.008 139.803 122.316 140.372C122.624 140.932 122.778 141.581 122.778 142.318C122.778 142.365 122.773 142.416 122.764 142.472C122.764 142.519 122.764 142.57 122.764 142.626H116.366V141.884H122.232L121.84 142.178C121.84 141.646 121.723 141.175 121.49 140.764C121.266 140.344 120.958 140.017 120.566 139.784C120.174 139.551 119.721 139.434 119.208 139.434C118.704 139.434 118.251 139.551 117.85 139.784C117.449 140.017 117.136 140.344 116.912 140.764C116.688 141.184 116.576 141.665 116.576 142.206V142.36C116.576 142.92 116.697 143.415 116.94 143.844C117.192 144.264 117.537 144.595 117.976 144.838C118.424 145.071 118.933 145.188 119.502 145.188C119.95 145.188 120.365 145.109 120.748 144.95C121.14 144.791 121.476 144.549 121.756 144.222L122.316 144.866C121.989 145.258 121.579 145.557 121.084 145.762C120.599 145.967 120.062 146.07 119.474 146.07ZM128.772 146.07C128.138 146.07 127.564 145.925 127.05 145.636C126.537 145.337 126.126 144.913 125.818 144.362C125.52 143.802 125.37 143.121 125.37 142.318C125.37 141.515 125.52 140.839 125.818 140.288C126.117 139.728 126.523 139.303 127.036 139.014C127.55 138.725 128.128 138.58 128.772 138.58C129.472 138.58 130.098 138.739 130.648 139.056C131.208 139.364 131.647 139.803 131.964 140.372C132.282 140.932 132.44 141.581 132.44 142.318C132.44 143.065 132.282 143.718 131.964 144.278C131.647 144.838 131.208 145.277 130.648 145.594C130.098 145.911 129.472 146.07 128.772 146.07ZM124.978 148.716V138.65H125.93V140.862L125.832 142.332L125.972 143.816V148.716H124.978ZM128.702 145.188C129.225 145.188 129.692 145.071 130.102 144.838C130.513 144.595 130.84 144.259 131.082 143.83C131.325 143.391 131.446 142.887 131.446 142.318C131.446 141.749 131.325 141.249 131.082 140.82C130.84 140.391 130.513 140.055 130.102 139.812C129.692 139.569 129.225 139.448 128.702 139.448C128.18 139.448 127.708 139.569 127.288 139.812C126.878 140.055 126.551 140.391 126.308 140.82C126.075 141.249 125.958 141.749 125.958 142.318C125.958 142.887 126.075 143.391 126.308 143.83C126.551 144.259 126.878 144.595 127.288 144.838C127.708 145.071 128.18 145.188 128.702 145.188ZM137.656 146.07C136.928 146.07 136.275 145.911 135.696 145.594C135.127 145.267 134.679 144.824 134.352 144.264C134.025 143.695 133.862 143.046 133.862 142.318C133.862 141.581 134.025 140.932 134.352 140.372C134.679 139.812 135.127 139.373 135.696 139.056C136.275 138.739 136.928 138.58 137.656 138.58C138.281 138.58 138.846 138.701 139.35 138.944C139.854 139.187 140.251 139.551 140.54 140.036L139.798 140.54C139.546 140.167 139.233 139.891 138.86 139.714C138.487 139.537 138.081 139.448 137.642 139.448C137.119 139.448 136.648 139.569 136.228 139.812C135.808 140.045 135.477 140.377 135.234 140.806C134.991 141.235 134.87 141.739 134.87 142.318C134.87 142.897 134.991 143.401 135.234 143.83C135.477 144.259 135.808 144.595 136.228 144.838C136.648 145.071 137.119 145.188 137.642 145.188C138.081 145.188 138.487 145.099 138.86 144.922C139.233 144.745 139.546 144.474 139.798 144.11L140.54 144.614C140.251 145.09 139.854 145.454 139.35 145.706C138.846 145.949 138.281 146.07 137.656 146.07ZM148.103 146.084C147.571 146.084 147.044 146.009 146.521 145.86C145.998 145.711 145.536 145.482 145.135 145.174L145.457 144.432C145.812 144.693 146.222 144.894 146.689 145.034C147.156 145.165 147.618 145.23 148.075 145.23C148.532 145.221 148.929 145.155 149.265 145.034C149.601 144.913 149.862 144.745 150.049 144.53C150.236 144.315 150.329 144.073 150.329 143.802C150.329 143.41 150.152 143.107 149.797 142.892C149.442 142.668 148.957 142.556 148.341 142.556H147.081V141.828H148.271C148.635 141.828 148.957 141.781 149.237 141.688C149.517 141.595 149.732 141.459 149.881 141.282C150.04 141.105 150.119 140.895 150.119 140.652C150.119 140.391 150.026 140.167 149.839 139.98C149.662 139.793 149.414 139.653 149.097 139.56C148.78 139.467 148.42 139.42 148.019 139.42C147.655 139.429 147.277 139.485 146.885 139.588C146.493 139.681 146.106 139.826 145.723 140.022L145.443 139.252C145.872 139.028 146.297 138.86 146.717 138.748C147.146 138.627 147.576 138.566 148.005 138.566C148.593 138.547 149.12 138.617 149.587 138.776C150.063 138.935 150.441 139.163 150.721 139.462C151.001 139.751 151.141 140.101 151.141 140.512C151.141 140.876 151.029 141.193 150.805 141.464C150.581 141.735 150.282 141.945 149.909 142.094C149.536 142.243 149.111 142.318 148.635 142.318L148.677 142.052C149.517 142.052 150.17 142.215 150.637 142.542C151.113 142.869 151.351 143.312 151.351 143.872C151.351 144.311 151.206 144.698 150.917 145.034C150.628 145.361 150.236 145.617 149.741 145.804C149.256 145.991 148.71 146.084 148.103 146.084ZM158.171 146V144.376L158.129 144.11V141.394C158.129 140.769 157.952 140.288 157.597 139.952C157.252 139.616 156.734 139.448 156.043 139.448C155.567 139.448 155.115 139.527 154.685 139.686C154.256 139.845 153.892 140.055 153.593 140.316L153.145 139.574C153.519 139.257 153.967 139.014 154.489 138.846C155.012 138.669 155.563 138.58 156.141 138.58C157.093 138.58 157.826 138.818 158.339 139.294C158.862 139.761 159.123 140.475 159.123 141.436V146H158.171ZM155.637 146.07C155.087 146.07 154.606 145.981 154.195 145.804C153.794 145.617 153.486 145.365 153.271 145.048C153.057 144.721 152.949 144.348 152.949 143.928C152.949 143.545 153.038 143.2 153.215 142.892C153.402 142.575 153.701 142.323 154.111 142.136C154.531 141.94 155.091 141.842 155.791 141.842H158.325V142.584H155.819C155.11 142.584 154.615 142.71 154.335 142.962C154.065 143.214 153.929 143.527 153.929 143.9C153.929 144.32 154.093 144.656 154.419 144.908C154.746 145.16 155.203 145.286 155.791 145.286C156.351 145.286 156.832 145.16 157.233 144.908C157.644 144.647 157.943 144.273 158.129 143.788L158.353 144.474C158.167 144.959 157.84 145.347 157.373 145.636C156.916 145.925 156.337 146.07 155.637 146.07ZM165.434 146V138.65H166.428V145.132H170.922V138.65H171.916V146H165.434ZM172.168 147.778V145.916L172.42 146H170.922V145.132H173.106V147.778H172.168ZM175.004 146V138.65H175.998V146H175.004ZM175.508 137.026C175.303 137.026 175.13 136.956 174.99 136.816C174.85 136.676 174.78 136.508 174.78 136.312C174.78 136.116 174.85 135.953 174.99 135.822C175.13 135.682 175.303 135.612 175.508 135.612C175.713 135.612 175.886 135.677 176.026 135.808C176.166 135.939 176.236 136.102 176.236 136.298C176.236 136.503 176.166 136.676 176.026 136.816C175.895 136.956 175.723 137.026 175.508 137.026ZM182.99 142.01V142.752H178.72V142.01H182.99ZM182.01 146.07C181.263 146.07 180.596 145.911 180.008 145.594C179.42 145.267 178.953 144.819 178.608 144.25C178.272 143.681 178.104 143.037 178.104 142.318C178.104 141.59 178.272 140.946 178.608 140.386C178.953 139.817 179.42 139.373 180.008 139.056C180.596 138.729 181.263 138.566 182.01 138.566C182.617 138.566 183.177 138.659 183.69 138.846C184.203 139.033 184.637 139.313 184.992 139.686L184.418 140.26C184.091 139.961 183.727 139.742 183.326 139.602C182.934 139.462 182.505 139.392 182.038 139.392C181.469 139.392 180.955 139.518 180.498 139.77C180.05 140.022 179.691 140.372 179.42 140.82C179.159 141.259 179.028 141.758 179.028 142.318C179.028 142.887 179.159 143.391 179.42 143.83C179.691 144.269 180.05 144.619 180.498 144.88C180.955 145.132 181.469 145.258 182.038 145.258C182.505 145.258 182.934 145.188 183.326 145.048C183.727 144.899 184.091 144.67 184.418 144.362L184.992 144.936C184.637 145.309 184.203 145.594 183.69 145.79C183.177 145.977 182.617 146.07 182.01 146.07ZM186.844 146V138.65H187.838V141.814H190.078V142.724H187.838V146H186.844ZM193.172 146.07C192.472 146.07 191.842 145.911 191.282 145.594C190.731 145.267 190.297 144.824 189.98 144.264C189.662 143.695 189.504 143.046 189.504 142.318C189.504 141.581 189.662 140.932 189.98 140.372C190.297 139.812 190.731 139.373 191.282 139.056C191.842 138.739 192.472 138.58 193.172 138.58C193.872 138.58 194.497 138.739 195.048 139.056C195.598 139.373 196.032 139.812 196.35 140.372C196.667 140.932 196.826 141.581 196.826 142.318C196.826 143.046 196.667 143.695 196.35 144.264C196.032 144.824 195.598 145.267 195.048 145.594C194.497 145.911 193.872 146.07 193.172 146.07ZM193.172 145.202C193.685 145.202 194.142 145.081 194.544 144.838C194.945 144.595 195.262 144.259 195.496 143.83C195.729 143.391 195.846 142.887 195.846 142.318C195.846 141.739 195.729 141.235 195.496 140.806C195.262 140.377 194.945 140.045 194.544 139.812C194.142 139.569 193.685 139.448 193.172 139.448C192.668 139.448 192.21 139.569 191.8 139.812C191.398 140.045 191.081 140.377 190.848 140.806C190.614 141.235 190.498 141.739 190.498 142.318C190.498 142.887 190.614 143.391 190.848 143.83C191.081 144.259 191.398 144.595 191.8 144.838C192.21 145.081 192.668 145.202 193.172 145.202ZM202.621 146V138.65H203.615V145.132H208.109V138.65H209.103V146H202.621ZM209.355 147.778V145.916L209.607 146H208.109V145.132H210.293V147.778H209.355ZM212.191 146V138.65H213.185V146H212.191ZM212.695 137.026C212.49 137.026 212.317 136.956 212.177 136.816C212.037 136.676 211.967 136.508 211.967 136.312C211.967 136.116 212.037 135.953 212.177 135.822C212.317 135.682 212.49 135.612 212.695 135.612C212.901 135.612 213.073 135.677 213.213 135.808C213.353 135.939 213.423 136.102 213.423 136.298C213.423 136.503 213.353 136.676 213.213 136.816C213.083 136.956 212.91 137.026 212.695 137.026ZM216.019 146V138.65H217.013V141.898H221.647V138.65H222.641V146H221.647V142.752H217.013V146H216.019ZM228.491 146.07C227.781 146.07 227.142 145.911 226.573 145.594C226.013 145.267 225.569 144.824 225.243 144.264C224.916 143.695 224.753 143.046 224.753 142.318C224.753 141.581 224.916 140.932 225.243 140.372C225.569 139.812 226.013 139.373 226.573 139.056C227.133 138.739 227.772 138.58 228.491 138.58C229.219 138.58 229.863 138.739 230.423 139.056C230.992 139.373 231.435 139.812 231.753 140.372C232.079 140.932 232.243 141.581 232.243 142.318C232.243 143.046 232.079 143.695 231.753 144.264C231.435 144.824 230.992 145.267 230.423 145.594C229.853 145.911 229.209 146.07 228.491 146.07ZM228.491 145.188C229.023 145.188 229.494 145.071 229.905 144.838C230.315 144.595 230.637 144.259 230.871 143.83C231.113 143.391 231.235 142.887 231.235 142.318C231.235 141.739 231.113 141.235 230.871 140.806C230.637 140.377 230.315 140.045 229.905 139.812C229.494 139.569 229.027 139.448 228.505 139.448C227.982 139.448 227.515 139.569 227.105 139.812C226.694 140.045 226.367 140.377 226.125 140.806C225.882 141.235 225.761 141.739 225.761 142.318C225.761 142.887 225.882 143.391 226.125 143.83C226.367 144.259 226.694 144.595 227.105 144.838C227.515 145.071 227.977 145.188 228.491 145.188ZM234.367 146V138.65H235.361V141.814H237.601V142.724H235.361V146H234.367ZM240.695 146.07C239.995 146.07 239.365 145.911 238.805 145.594C238.254 145.267 237.82 144.824 237.503 144.264C237.186 143.695 237.027 143.046 237.027 142.318C237.027 141.581 237.186 140.932 237.503 140.372C237.82 139.812 238.254 139.373 238.805 139.056C239.365 138.739 239.995 138.58 240.695 138.58C241.395 138.58 242.02 138.739 242.571 139.056C243.122 139.373 243.556 139.812 243.873 140.372C244.19 140.932 244.349 141.581 244.349 142.318C244.349 143.046 244.19 143.695 243.873 144.264C243.556 144.824 243.122 145.267 242.571 145.594C242.02 145.911 241.395 146.07 240.695 146.07ZM240.695 145.202C241.208 145.202 241.666 145.081 242.067 144.838C242.468 144.595 242.786 144.259 243.019 143.83C243.252 143.391 243.369 142.887 243.369 142.318C243.369 141.739 243.252 141.235 243.019 140.806C242.786 140.377 242.468 140.045 242.067 139.812C241.666 139.569 241.208 139.448 240.695 139.448C240.191 139.448 239.734 139.569 239.323 139.812C238.922 140.045 238.604 140.377 238.371 140.806C238.138 141.235 238.021 141.739 238.021 142.318C238.021 142.887 238.138 143.391 238.371 143.83C238.604 144.259 238.922 144.595 239.323 144.838C239.734 145.081 240.191 145.202 240.695 145.202Z" fill="#214B33"/>
<path d="M11 153L217 153" stroke="#214B33"/>
<path d="M21.652 95V85.2H25.726C26.762 85.2 27.574 85.4147 28.162 85.844C28.7593 86.264 29.058 86.8847 29.058 87.706C29.058 88.518 28.7733 89.134 28.204 89.554C27.6347 89.9647 26.888 90.17 25.964 90.17L26.202 89.82C27.294 89.82 28.1247 90.0347 28.694 90.464C29.2633 90.8933 29.548 91.5233 29.548 92.354C29.548 93.194 29.2493 93.8473 28.652 94.314C28.064 94.7713 27.1773 95 25.992 95H21.652ZM22.674 94.174H25.992C26.8227 94.174 27.4527 94.02 27.882 93.712C28.3113 93.404 28.526 92.928 28.526 92.284C28.526 91.6493 28.3113 91.1827 27.882 90.884C27.4527 90.5853 26.8227 90.436 25.992 90.436H22.674V94.174ZM22.674 89.638H25.67C26.426 89.638 27.0047 89.4887 27.406 89.19C27.8167 88.882 28.022 88.4293 28.022 87.832C28.022 87.2347 27.8167 86.7867 27.406 86.488C27.0047 86.18 26.426 86.026 25.67 86.026H22.674V89.638ZM31.9003 95V87.65H32.8943V93.488L37.8083 87.65H38.6903V95H37.6963V89.148L32.7963 95H31.9003ZM41.539 95V87.65H46.747V88.518H42.281L42.533 88.266V95H41.539ZM50.8657 95.07C50.1564 95.07 49.5171 94.9113 48.9477 94.594C48.3877 94.2673 47.9444 93.824 47.6177 93.264C47.2911 92.6947 47.1277 92.046 47.1277 91.318C47.1277 90.5807 47.2911 89.932 47.6177 89.372C47.9444 88.812 48.3877 88.3733 48.9477 88.056C49.5077 87.7387 50.1471 87.58 50.8657 87.58C51.5937 87.58 52.2377 87.7387 52.7977 88.056C53.3671 88.3733 53.8104 88.812 54.1277 89.372C54.4544 89.932 54.6177 90.5807 54.6177 91.318C54.6177 92.046 54.4544 92.6947 54.1277 93.264C53.8104 93.824 53.3671 94.2673 52.7977 94.594C52.2284 94.9113 51.5844 95.07 50.8657 95.07ZM50.8657 94.188C51.3977 94.188 51.8691 94.0713 52.2797 93.838C52.6904 93.5953 53.0124 93.2593 53.2457 92.83C53.4884 92.3913 53.6097 91.8873 53.6097 91.318C53.6097 90.7393 53.4884 90.2353 53.2457 89.806C53.0124 89.3767 52.6904 89.0453 52.2797 88.812C51.8691 88.5693 51.4024 88.448 50.8797 88.448C50.3571 88.448 49.8904 88.5693 49.4797 88.812C49.0691 89.0453 48.7424 89.3767 48.4997 89.806C48.2571 90.2353 48.1357 90.7393 48.1357 91.318C48.1357 91.8873 48.2571 92.3913 48.4997 92.83C48.7424 93.2593 49.0691 93.5953 49.4797 93.838C49.8904 94.0713 50.3524 94.188 50.8657 94.188ZM61.7411 94.524V88.518H58.1991L58.1151 90.156C58.0964 90.6507 58.0638 91.136 58.0171 91.612C57.9798 92.088 57.9098 92.5267 57.8071 92.928C57.7138 93.32 57.5784 93.642 57.4011 93.894C57.2238 94.1367 56.9951 94.2767 56.7151 94.314L55.7211 94.132C56.0104 94.1413 56.2484 94.0387 56.4351 93.824C56.6218 93.6 56.7664 93.2967 56.8691 92.914C56.9718 92.5313 57.0464 92.0973 57.0931 91.612C57.1398 91.1173 57.1771 90.6133 57.2051 90.1L57.3031 87.65H62.7351V94.524H61.7411ZM55.4131 96.778V94.132H63.8831V96.778H62.9451V95H56.3511V96.778H55.4131ZM70.3843 95V93.376L70.3423 93.11V90.394C70.3423 89.7687 70.1649 89.288 69.8103 88.952C69.4649 88.616 68.9469 88.448 68.2563 88.448C67.7803 88.448 67.3276 88.5273 66.8983 88.686C66.4689 88.8447 66.1049 89.0547 65.8063 89.316L65.3583 88.574C65.7316 88.2567 66.1796 88.014 66.7023 87.846C67.2249 87.6687 67.7756 87.58 68.3543 87.58C69.3063 87.58 70.0389 87.818 70.5523 88.294C71.0749 88.7607 71.3363 89.4747 71.3363 90.436V95H70.3843ZM67.8503 95.07C67.2996 95.07 66.8189 94.9813 66.4083 94.804C66.0069 94.6173 65.6989 94.3653 65.4843 94.048C65.2696 93.7213 65.1623 93.348 65.1623 92.928C65.1623 92.5453 65.2509 92.2 65.4283 91.892C65.6149 91.5747 65.9136 91.3227 66.3243 91.136C66.7443 90.94 67.3043 90.842 68.0042 90.842H70.5383V91.584H68.0323C67.3229 91.584 66.8283 91.71 66.5483 91.962C66.2776 92.214 66.1423 92.5267 66.1423 92.9C66.1423 93.32 66.3056 93.656 66.6323 93.908C66.9589 94.16 67.4163 94.286 68.0042 94.286C68.5643 94.286 69.0449 94.16 69.4463 93.908C69.8569 93.6467 70.1556 93.2733 70.3423 92.788L70.5663 93.474C70.3796 93.9593 70.0529 94.3467 69.5863 94.636C69.1289 94.9253 68.5503 95.07 67.8503 95.07Z" fill="#A2C33D"/>
<path d="M106 101L1 101" stroke="#A2C33D"/>
<path d="M109.652 44V34.2H113.726C114.762 34.2 115.574 34.4147 116.162 34.844C116.759 35.264 117.058 35.8847 117.058 36.706C117.058 37.518 116.773 38.134 116.204 38.554C115.635 38.9647 114.888 39.17 113.964 39.17L114.202 38.82C115.294 38.82 116.125 39.0347 116.694 39.464C117.263 39.8933 117.548 40.5233 117.548 41.354C117.548 42.194 117.249 42.8473 116.652 43.314C116.064 43.7713 115.177 44 113.992 44H109.652ZM110.674 43.174H113.992C114.823 43.174 115.453 43.02 115.882 42.712C116.311 42.404 116.526 41.928 116.526 41.284C116.526 40.6493 116.311 40.1827 115.882 39.884C115.453 39.5853 114.823 39.436 113.992 39.436H110.674V43.174ZM110.674 38.638H113.67C114.426 38.638 115.005 38.4887 115.406 38.19C115.817 37.882 116.022 37.4293 116.022 36.832C116.022 36.2347 115.817 35.7867 115.406 35.488C115.005 35.18 114.426 35.026 113.67 35.026H110.674V38.638ZM119.9 44V36.65H120.894V42.488L125.808 36.65H126.69V44H125.696V38.148L120.796 44H119.9ZM133.203 44V36.65H139.811V44H138.817V37.252L139.069 37.518H133.945L134.197 37.252V44H133.203ZM146.431 44.07C145.796 44.07 145.222 43.9253 144.709 43.636C144.195 43.3373 143.785 42.9127 143.477 42.362C143.178 41.802 143.029 41.1207 143.029 40.318C143.029 39.5153 143.178 38.8387 143.477 38.288C143.775 37.728 144.181 37.3033 144.695 37.014C145.208 36.7247 145.787 36.58 146.431 36.58C147.131 36.58 147.756 36.7387 148.307 37.056C148.867 37.364 149.305 37.8027 149.623 38.372C149.94 38.932 150.099 39.5807 150.099 40.318C150.099 41.0647 149.94 41.718 149.623 42.278C149.305 42.838 148.867 43.2767 148.307 43.594C147.756 43.9113 147.131 44.07 146.431 44.07ZM142.637 46.716V36.65H143.589V38.862L143.491 40.332L143.631 41.816V46.716H142.637ZM146.361 43.188C146.883 43.188 147.35 43.0713 147.761 42.838C148.171 42.5953 148.498 42.2593 148.741 41.83C148.983 41.3913 149.105 40.8873 149.105 40.318C149.105 39.7487 148.983 39.2493 148.741 38.82C148.498 38.3907 148.171 38.0547 147.761 37.812C147.35 37.5693 146.883 37.448 146.361 37.448C145.838 37.448 145.367 37.5693 144.947 37.812C144.536 38.0547 144.209 38.3907 143.967 38.82C143.733 39.2493 143.617 39.7487 143.617 40.318C143.617 40.8873 143.733 41.3913 143.967 41.83C144.209 42.2593 144.536 42.5953 144.947 42.838C145.367 43.0713 145.838 43.188 146.361 43.188ZM155.258 44.07C154.549 44.07 153.91 43.9113 153.34 43.594C152.78 43.2673 152.337 42.824 152.01 42.264C151.684 41.6947 151.52 41.046 151.52 40.318C151.52 39.5807 151.684 38.932 152.01 38.372C152.337 37.812 152.78 37.3733 153.34 37.056C153.9 36.7387 154.54 36.58 155.258 36.58C155.986 36.58 156.63 36.7387 157.19 37.056C157.76 37.3733 158.203 37.812 158.52 38.372C158.847 38.932 159.01 39.5807 159.01 40.318C159.01 41.046 158.847 41.6947 158.52 42.264C158.203 42.824 157.76 43.2673 157.19 43.594C156.621 43.9113 155.977 44.07 155.258 44.07ZM155.258 43.188C155.79 43.188 156.262 43.0713 156.672 42.838C157.083 42.5953 157.405 42.2593 157.638 41.83C157.881 41.3913 158.002 40.8873 158.002 40.318C158.002 39.7393 157.881 39.2353 157.638 38.806C157.405 38.3767 157.083 38.0453 156.672 37.812C156.262 37.5693 155.795 37.448 155.272 37.448C154.75 37.448 154.283 37.5693 153.872 37.812C153.462 38.0453 153.135 38.3767 152.892 38.806C152.65 39.2353 152.528 39.7393 152.528 40.318C152.528 40.8873 152.65 41.3913 152.892 41.83C153.135 42.2593 153.462 42.5953 153.872 42.838C154.283 43.0713 154.745 43.188 155.258 43.188ZM166.134 43.524V37.518H162.592L162.508 39.156C162.489 39.6507 162.456 40.136 162.41 40.612C162.372 41.088 162.302 41.5267 162.2 41.928C162.106 42.32 161.971 42.642 161.794 42.894C161.616 43.1367 161.388 43.2767 161.108 43.314L160.114 43.132C160.403 43.1413 160.641 43.0387 160.828 42.824C161.014 42.6 161.159 42.2967 161.262 41.914C161.364 41.5313 161.439 41.0973 161.486 40.612C161.532 40.1173 161.57 39.6133 161.598 39.1L161.696 36.65H167.128V43.524H166.134ZM159.806 45.778V43.132H168.276V45.778H167.338V44H160.744V45.778H159.806ZM174.777 44V42.376L174.735 42.11V39.394C174.735 38.7687 174.557 38.288 174.203 37.952C173.857 37.616 173.339 37.448 172.649 37.448C172.173 37.448 171.72 37.5273 171.291 37.686C170.861 37.8447 170.497 38.0547 170.199 38.316L169.751 37.574C170.124 37.2567 170.572 37.014 171.095 36.846C171.617 36.6687 172.168 36.58 172.747 36.58C173.699 36.58 174.431 36.818 174.945 37.294C175.467 37.7607 175.729 38.4747 175.729 39.436V44H174.777ZM172.243 44.07C171.692 44.07 171.211 43.9813 170.801 43.804C170.399 43.6173 170.091 43.3653 169.877 43.048C169.662 42.7213 169.555 42.348 169.555 41.928C169.555 41.5453 169.643 41.2 169.821 40.892C170.007 40.5747 170.306 40.3227 170.717 40.136C171.137 39.94 171.697 39.842 172.397 39.842H174.931V40.584H172.425C171.715 40.584 171.221 40.71 170.941 40.962C170.67 41.214 170.535 41.5267 170.535 41.9C170.535 42.32 170.698 42.656 171.025 42.908C171.351 43.16 171.809 43.286 172.397 43.286C172.957 43.286 173.437 43.16 173.839 42.908C174.249 42.6467 174.548 42.2733 174.735 41.788L174.959 42.474C174.772 42.9593 174.445 43.3467 173.979 43.636C173.521 43.9253 172.943 44.07 172.243 44.07ZM182.533 40.01V40.752H178.263V40.01H182.533ZM181.553 44.07C180.806 44.07 180.139 43.9113 179.551 43.594C178.963 43.2673 178.496 42.8193 178.151 42.25C177.815 41.6807 177.647 41.0367 177.647 40.318C177.647 39.59 177.815 38.946 178.151 38.386C178.496 37.8167 178.963 37.3733 179.551 37.056C180.139 36.7293 180.806 36.566 181.553 36.566C182.16 36.566 182.72 36.6593 183.233 36.846C183.746 37.0327 184.18 37.3127 184.535 37.686L183.961 38.26C183.634 37.9613 183.27 37.742 182.869 37.602C182.477 37.462 182.048 37.392 181.581 37.392C181.012 37.392 180.498 37.518 180.041 37.77C179.593 38.022 179.234 38.372 178.963 38.82C178.702 39.2587 178.571 39.758 178.571 40.318C178.571 40.8873 178.702 41.3913 178.963 41.83C179.234 42.2687 179.593 42.6187 180.041 42.88C180.498 43.132 181.012 43.258 181.581 43.258C182.048 43.258 182.477 43.188 182.869 43.048C183.27 42.8987 183.634 42.67 183.961 42.362L184.535 42.936C184.18 43.3093 183.746 43.594 183.233 43.79C182.72 43.9767 182.16 44.07 181.553 44.07ZM187.65 44V37.252L187.902 37.518H184.864V36.65H191.43V37.518H188.392L188.644 37.252V44H187.65ZM195.675 44.07C194.91 44.07 194.238 43.9113 193.659 43.594C193.081 43.2673 192.628 42.824 192.301 42.264C191.975 41.6947 191.811 41.046 191.811 40.318C191.811 39.59 191.965 38.946 192.273 38.386C192.591 37.826 193.02 37.3873 193.561 37.07C194.112 36.7433 194.728 36.58 195.409 36.58C196.1 36.58 196.711 36.7387 197.243 37.056C197.785 37.364 198.209 37.8027 198.517 38.372C198.825 38.932 198.979 39.5807 198.979 40.318C198.979 40.3647 198.975 40.416 198.965 40.472C198.965 40.5187 198.965 40.57 198.965 40.626H192.567V39.884H198.433L198.041 40.178C198.041 39.646 197.925 39.1747 197.691 38.764C197.467 38.344 197.159 38.0173 196.767 37.784C196.375 37.5507 195.923 37.434 195.409 37.434C194.905 37.434 194.453 37.5507 194.051 37.784C193.65 38.0173 193.337 38.344 193.113 38.764C192.889 39.184 192.777 39.6647 192.777 40.206V40.36C192.777 40.92 192.899 41.4147 193.141 41.844C193.393 42.264 193.739 42.5953 194.177 42.838C194.625 43.0713 195.134 43.188 195.703 43.188C196.151 43.188 196.567 43.1087 196.949 42.95C197.341 42.7913 197.677 42.5487 197.957 42.222L198.517 42.866C198.191 43.258 197.78 43.5567 197.285 43.762C196.8 43.9673 196.263 44.07 195.675 44.07ZM208.974 44.084C208.974 44.084 208.955 44.084 208.918 44.084C208.88 44.084 208.843 44.084 208.806 44.084C208.778 44.084 208.754 44.084 208.736 44.084C207.28 44.0747 206.146 43.7433 205.334 43.09C204.522 42.4367 204.116 41.508 204.116 40.304C204.116 39.1187 204.522 38.204 205.334 37.56C206.155 36.9067 207.308 36.5753 208.792 36.566C208.801 36.566 208.82 36.566 208.848 36.566C208.885 36.566 208.918 36.566 208.946 36.566C208.974 36.566 208.992 36.566 209.002 36.566C210.495 36.5753 211.657 36.9067 212.488 37.56C213.318 38.204 213.734 39.1187 213.734 40.304C213.734 41.5173 213.314 42.4507 212.474 43.104C211.643 43.7573 210.476 44.084 208.974 44.084ZM208.96 43.216C209.79 43.216 210.486 43.104 211.046 42.88C211.606 42.6467 212.03 42.3153 212.32 41.886C212.609 41.4567 212.754 40.9293 212.754 40.304C212.754 39.6973 212.609 39.184 212.32 38.764C212.03 38.3347 211.606 38.008 211.046 37.784C210.486 37.56 209.79 37.448 208.96 37.448C208.95 37.448 208.922 37.448 208.876 37.448C208.838 37.448 208.815 37.448 208.806 37.448C207.994 37.448 207.312 37.5647 206.762 37.798C206.211 38.022 205.796 38.344 205.516 38.764C205.236 39.184 205.096 39.6973 205.096 40.304C205.096 40.92 205.236 41.4427 205.516 41.872C205.805 42.3013 206.225 42.6327 206.776 42.866C207.326 43.09 208.003 43.2067 208.806 43.216C208.824 43.216 208.852 43.216 208.89 43.216C208.927 43.216 208.95 43.216 208.96 43.216ZM208.428 46.716V33.612H209.394V46.716H208.428ZM215.253 37.896L215.183 34.2H216.065L215.995 37.896H215.253ZM218.461 44V36.65H219.455V39.814H221.695V40.724H219.455V44H218.461ZM224.789 44.07C224.089 44.07 223.459 43.9113 222.899 43.594C222.348 43.2673 221.914 42.824 221.597 42.264C221.28 41.6947 221.121 41.046 221.121 40.318C221.121 39.5807 221.28 38.932 221.597 38.372C221.914 37.812 222.348 37.3733 222.899 37.056C223.459 36.7387 224.089 36.58 224.789 36.58C225.489 36.58 226.114 36.7387 226.665 37.056C227.216 37.3733 227.65 37.812 227.967 38.372C228.284 38.932 228.443 39.5807 228.443 40.318C228.443 41.046 228.284 41.6947 227.967 42.264C227.65 42.824 227.216 43.2673 226.665 43.594C226.114 43.9113 225.489 44.07 224.789 44.07ZM224.789 43.202C225.302 43.202 225.76 43.0807 226.161 42.838C226.562 42.5953 226.88 42.2593 227.113 41.83C227.346 41.3913 227.463 40.8873 227.463 40.318C227.463 39.7393 227.346 39.2353 227.113 38.806C226.88 38.3767 226.562 38.0453 226.161 37.812C225.76 37.5693 225.302 37.448 224.789 37.448C224.285 37.448 223.828 37.5693 223.417 37.812C223.016 38.0453 222.698 38.3767 222.465 38.806C222.232 39.2353 222.115 39.7393 222.115 40.318C222.115 40.8873 222.232 41.3913 222.465 41.83C222.698 42.2593 223.016 42.5953 223.417 42.838C223.828 43.0807 224.285 43.202 224.789 43.202ZM235.222 40.892C234.793 41.0787 234.359 41.228 233.92 41.34C233.491 41.4427 233.061 41.494 232.632 41.494C231.764 41.494 231.078 41.298 230.574 40.906C230.07 40.5047 229.818 39.8887 229.818 39.058V36.65H230.798V39.002C230.798 39.562 230.98 39.982 231.344 40.262C231.708 40.542 232.198 40.682 232.814 40.682C233.187 40.682 233.579 40.6353 233.99 40.542C234.401 40.4393 234.816 40.2947 235.236 40.108L235.222 40.892ZM235.138 44V36.65H236.132V44H235.138ZM242.105 44.07C241.34 44.07 240.668 43.9113 240.089 43.594C239.51 43.2673 239.058 42.824 238.731 42.264C238.404 41.6947 238.241 41.046 238.241 40.318C238.241 39.59 238.395 38.946 238.703 38.386C239.02 37.826 239.45 37.3873 239.991 37.07C240.542 36.7433 241.158 36.58 241.839 36.58C242.53 36.58 243.141 36.7387 243.673 37.056C244.214 37.364 244.639 37.8027 244.947 38.372C245.255 38.932 245.409 39.5807 245.409 40.318C245.409 40.3647 245.404 40.416 245.395 40.472C245.395 40.5187 245.395 40.57 245.395 40.626H238.997V39.884H244.863L244.471 40.178C244.471 39.646 244.354 39.1747 244.121 38.764C243.897 38.344 243.589 38.0173 243.197 37.784C242.805 37.5507 242.352 37.434 241.839 37.434C241.335 37.434 240.882 37.5507 240.481 37.784C240.08 38.0173 239.767 38.344 239.543 38.764C239.319 39.184 239.207 39.6647 239.207 40.206V40.36C239.207 40.92 239.328 41.4147 239.571 41.844C239.823 42.264 240.168 42.5953 240.607 42.838C241.055 43.0713 241.564 43.188 242.133 43.188C242.581 43.188 242.996 43.1087 243.379 42.95C243.771 42.7913 244.107 42.5487 244.387 42.222L244.947 42.866C244.62 43.258 244.21 43.5567 243.715 43.762C243.23 43.9673 242.693 44.07 242.105 44.07ZM251.403 44.07C250.769 44.07 250.195 43.9253 249.681 43.636C249.168 43.3373 248.757 42.9127 248.449 42.362C248.151 41.802 248.001 41.1207 248.001 40.318C248.001 39.5153 248.151 38.8387 248.449 38.288C248.748 37.728 249.154 37.3033 249.667 37.014C250.181 36.7247 250.759 36.58 251.403 36.58C252.103 36.58 252.729 36.7387 253.279 37.056C253.839 37.364 254.278 37.8027 254.595 38.372C254.913 38.932 255.071 39.5807 255.071 40.318C255.071 41.0647 254.913 41.718 254.595 42.278C254.278 42.838 253.839 43.2767 253.279 43.594C252.729 43.9113 252.103 44.07 251.403 44.07ZM247.609 46.716V36.65H248.561V38.862L248.463 40.332L248.603 41.816V46.716H247.609ZM251.333 43.188C251.856 43.188 252.323 43.0713 252.733 42.838C253.144 42.5953 253.471 42.2593 253.713 41.83C253.956 41.3913 254.077 40.8873 254.077 40.318C254.077 39.7487 253.956 39.2493 253.713 38.82C253.471 38.3907 253.144 38.0547 252.733 37.812C252.323 37.5693 251.856 37.448 251.333 37.448C250.811 37.448 250.339 37.5693 249.919 37.812C249.509 38.0547 249.182 38.3907 248.939 38.82C248.706 39.2493 248.589 39.7487 248.589 40.318C248.589 40.8873 248.706 41.3913 248.939 41.83C249.182 42.2593 249.509 42.5953 249.919 42.838C250.339 43.0713 250.811 43.188 251.333 43.188ZM260.287 44.07C259.559 44.07 258.906 43.9113 258.327 43.594C257.758 43.2673 257.31 42.824 256.983 42.264C256.656 41.6947 256.493 41.046 256.493 40.318C256.493 39.5807 256.656 38.932 256.983 38.372C257.31 37.812 257.758 37.3733 258.327 37.056C258.906 36.7387 259.559 36.58 260.287 36.58C260.912 36.58 261.477 36.7013 261.981 36.944C262.485 37.1867 262.882 37.5507 263.171 38.036L262.429 38.54C262.177 38.1667 261.864 37.8913 261.491 37.714C261.118 37.5367 260.712 37.448 260.273 37.448C259.75 37.448 259.279 37.5693 258.859 37.812C258.439 38.0453 258.108 38.3767 257.865 38.806C257.622 39.2353 257.501 39.7393 257.501 40.318C257.501 40.8967 257.622 41.4007 257.865 41.83C258.108 42.2593 258.439 42.5953 258.859 42.838C259.279 43.0713 259.75 43.188 260.273 43.188C260.712 43.188 261.118 43.0993 261.491 42.922C261.864 42.7447 262.177 42.474 262.429 42.11L263.171 42.614C262.882 43.09 262.485 43.454 261.981 43.706C261.477 43.9487 260.912 44.07 260.287 44.07ZM270.734 44.084C270.202 44.084 269.674 44.0093 269.152 43.86C268.629 43.7107 268.167 43.482 267.766 43.174L268.088 42.432C268.442 42.6933 268.853 42.894 269.32 43.034C269.786 43.1647 270.248 43.23 270.706 43.23C271.163 43.2207 271.56 43.1553 271.896 43.034C272.232 42.9127 272.493 42.7447 272.68 42.53C272.866 42.3153 272.96 42.0727 272.96 41.802C272.96 41.41 272.782 41.1067 272.428 40.892C272.073 40.668 271.588 40.556 270.972 40.556H269.712V39.828H270.902C271.266 39.828 271.588 39.7813 271.868 39.688C272.148 39.5947 272.362 39.4593 272.512 39.282C272.67 39.1047 272.75 38.8947 272.75 38.652C272.75 38.3907 272.656 38.1667 272.47 37.98C272.292 37.7933 272.045 37.6533 271.728 37.56C271.41 37.4667 271.051 37.42 270.65 37.42C270.286 37.4293 269.908 37.4853 269.516 37.588C269.124 37.6813 268.736 37.826 268.354 38.022L268.074 37.252C268.503 37.028 268.928 36.86 269.348 36.748C269.777 36.6267 270.206 36.566 270.636 36.566C271.224 36.5473 271.751 36.6173 272.218 36.776C272.694 36.9347 273.072 37.1633 273.352 37.462C273.632 37.7513 273.772 38.1013 273.772 38.512C273.772 38.876 273.66 39.1933 273.436 39.464C273.212 39.7347 272.913 39.9447 272.54 40.094C272.166 40.2433 271.742 40.318 271.266 40.318L271.308 40.052C272.148 40.052 272.801 40.2153 273.268 40.542C273.744 40.8687 273.982 41.312 273.982 41.872C273.982 42.3107 273.837 42.698 273.548 43.034C273.258 43.3607 272.866 43.6173 272.372 43.804C271.886 43.9907 271.34 44.084 270.734 44.084ZM280.802 44V42.376L280.76 42.11V39.394C280.76 38.7687 280.583 38.288 280.228 37.952C279.883 37.616 279.365 37.448 278.674 37.448C278.198 37.448 277.746 37.5273 277.316 37.686C276.887 37.8447 276.523 38.0547 276.224 38.316L275.776 37.574C276.15 37.2567 276.598 37.014 277.12 36.846C277.643 36.6687 278.194 36.58 278.772 36.58C279.724 36.58 280.457 36.818 280.97 37.294C281.493 37.7607 281.754 38.4747 281.754 39.436V44H280.802ZM278.268 44.07C277.718 44.07 277.237 43.9813 276.826 43.804C276.425 43.6173 276.117 43.3653 275.902 43.048C275.688 42.7213 275.58 42.348 275.58 41.928C275.58 41.5453 275.669 41.2 275.846 40.892C276.033 40.5747 276.332 40.3227 276.742 40.136C277.162 39.94 277.722 39.842 278.422 39.842H280.956V40.584H278.45C277.741 40.584 277.246 40.71 276.966 40.962C276.696 41.214 276.56 41.5267 276.56 41.9C276.56 42.32 276.724 42.656 277.05 42.908C277.377 43.16 277.834 43.286 278.422 43.286C278.982 43.286 279.463 43.16 279.864 42.908C280.275 42.6467 280.574 42.2733 280.76 41.788L280.984 42.474C280.798 42.9593 280.471 43.3467 280.004 43.636C279.547 43.9253 278.968 44.07 278.268 44.07ZM109.414 67V59.65H110.408V66.132H114.902V59.65H115.896V67H109.414ZM116.148 68.778V66.916L116.4 67H114.902V66.132H117.086V68.778H116.148ZM118.984 67V59.65H119.978V67H118.984ZM119.488 58.026C119.283 58.026 119.11 57.956 118.97 57.816C118.83 57.676 118.76 57.508 118.76 57.312C118.76 57.116 118.83 56.9527 118.97 56.822C119.11 56.682 119.283 56.612 119.488 56.612C119.694 56.612 119.866 56.6773 120.006 56.808C120.146 56.9387 120.216 57.102 120.216 57.298C120.216 57.5033 120.146 57.676 120.006 57.816C119.876 57.956 119.703 58.026 119.488 58.026ZM126.97 63.01V63.752H122.7V63.01H126.97ZM125.99 67.07C125.244 67.07 124.576 66.9113 123.988 66.594C123.4 66.2673 122.934 65.8193 122.588 65.25C122.252 64.6807 122.084 64.0367 122.084 63.318C122.084 62.59 122.252 61.946 122.588 61.386C122.934 60.8167 123.4 60.3733 123.988 60.056C124.576 59.7293 125.244 59.566 125.99 59.566C126.597 59.566 127.157 59.6593 127.67 59.846C128.184 60.0327 128.618 60.3127 128.972 60.686L128.398 61.26C128.072 60.9613 127.708 60.742 127.306 60.602C126.914 60.462 126.485 60.392 126.018 60.392C125.449 60.392 124.936 60.518 124.478 60.77C124.03 61.022 123.671 61.372 123.4 61.82C123.139 62.2587 123.008 62.758 123.008 63.318C123.008 63.8873 123.139 64.3913 123.4 64.83C123.671 65.2687 124.03 65.6187 124.478 65.88C124.936 66.132 125.449 66.258 126.018 66.258C126.485 66.258 126.914 66.188 127.306 66.048C127.708 65.8987 128.072 65.67 128.398 65.362L128.972 65.936C128.618 66.3093 128.184 66.594 127.67 66.79C127.157 66.9767 126.597 67.07 125.99 67.07ZM130.824 67V59.65H131.818V62.814H134.058V63.724H131.818V67H130.824ZM137.152 67.07C136.452 67.07 135.822 66.9113 135.262 66.594C134.711 66.2673 134.277 65.824 133.96 65.264C133.643 64.6947 133.484 64.046 133.484 63.318C133.484 62.5807 133.643 61.932 133.96 61.372C134.277 60.812 134.711 60.3733 135.262 60.056C135.822 59.7387 136.452 59.58 137.152 59.58C137.852 59.58 138.477 59.7387 139.028 60.056C139.579 60.3733 140.013 60.812 140.33 61.372C140.647 61.932 140.806 62.5807 140.806 63.318C140.806 64.046 140.647 64.6947 140.33 65.264C140.013 65.824 139.579 66.2673 139.028 66.594C138.477 66.9113 137.852 67.07 137.152 67.07ZM137.152 66.202C137.665 66.202 138.123 66.0807 138.524 65.838C138.925 65.5953 139.243 65.2593 139.476 64.83C139.709 64.3913 139.826 63.8873 139.826 63.318C139.826 62.7393 139.709 62.2353 139.476 61.806C139.243 61.3767 138.925 61.0453 138.524 60.812C138.123 60.5693 137.665 60.448 137.152 60.448C136.648 60.448 136.191 60.5693 135.78 60.812C135.379 61.0453 135.061 61.3767 134.828 61.806C134.595 62.2353 134.478 62.7393 134.478 63.318C134.478 63.8873 134.595 64.3913 134.828 64.83C135.061 65.2593 135.379 65.5953 135.78 65.838C136.191 66.0807 136.648 66.202 137.152 66.202ZM146.602 67V59.65H147.596V66.132H152.09V59.65H153.084V67H146.602ZM153.336 68.778V66.916L153.588 67H152.09V66.132H154.274V68.778H153.336ZM156.172 67V59.65H157.166V67H156.172ZM156.676 58.026C156.47 58.026 156.298 57.956 156.158 57.816C156.018 57.676 155.948 57.508 155.948 57.312C155.948 57.116 156.018 56.9527 156.158 56.822C156.298 56.682 156.47 56.612 156.676 56.612C156.881 56.612 157.054 56.6773 157.194 56.808C157.334 56.9387 157.404 57.102 157.404 57.298C157.404 57.5033 157.334 57.676 157.194 57.816C157.063 57.956 156.89 58.026 156.676 58.026ZM160 67V59.65H160.994V62.898H165.628V59.65H166.622V67H165.628V63.752H160.994V67H160ZM172.471 67.07C171.762 67.07 171.123 66.9113 170.553 66.594C169.993 66.2673 169.55 65.824 169.223 65.264C168.897 64.6947 168.733 64.046 168.733 63.318C168.733 62.5807 168.897 61.932 169.223 61.372C169.55 60.812 169.993 60.3733 170.553 60.056C171.113 59.7387 171.753 59.58 172.471 59.58C173.199 59.58 173.843 59.7387 174.403 60.056C174.973 60.3733 175.416 60.812 175.733 61.372C176.06 61.932 176.223 62.5807 176.223 63.318C176.223 64.046 176.06 64.6947 175.733 65.264C175.416 65.824 174.973 66.2673 174.403 66.594C173.834 66.9113 173.19 67.07 172.471 67.07ZM172.471 66.188C173.003 66.188 173.475 66.0713 173.885 65.838C174.296 65.5953 174.618 65.2593 174.851 64.83C175.094 64.3913 175.215 63.8873 175.215 63.318C175.215 62.7393 175.094 62.2353 174.851 61.806C174.618 61.3767 174.296 61.0453 173.885 60.812C173.475 60.5693 173.008 60.448 172.485 60.448C171.963 60.448 171.496 60.5693 171.085 60.812C170.675 61.0453 170.348 61.3767 170.105 61.806C169.863 62.2353 169.741 62.7393 169.741 63.318C169.741 63.8873 169.863 64.3913 170.105 64.83C170.348 65.2593 170.675 65.5953 171.085 65.838C171.496 66.0713 171.958 66.188 172.471 66.188ZM178.348 67V59.65H179.342V62.814H181.582V63.724H179.342V67H178.348ZM184.676 67.07C183.976 67.07 183.346 66.9113 182.786 66.594C182.235 66.2673 181.801 65.824 181.484 65.264C181.166 64.6947 181.008 64.046 181.008 63.318C181.008 62.5807 181.166 61.932 181.484 61.372C181.801 60.812 182.235 60.3733 182.786 60.056C183.346 59.7387 183.976 59.58 184.676 59.58C185.376 59.58 186.001 59.7387 186.552 60.056C187.102 60.3733 187.536 60.812 187.854 61.372C188.171 61.932 188.33 62.5807 188.33 63.318C188.33 64.046 188.171 64.6947 187.854 65.264C187.536 65.824 187.102 66.2673 186.552 66.594C186.001 66.9113 185.376 67.07 184.676 67.07ZM184.676 66.202C185.189 66.202 185.646 66.0807 186.048 65.838C186.449 65.5953 186.766 65.2593 187 64.83C187.233 64.3913 187.35 63.8873 187.35 63.318C187.35 62.7393 187.233 62.2353 187 61.806C186.766 61.3767 186.449 61.0453 186.048 60.812C185.646 60.5693 185.189 60.448 184.676 60.448C184.172 60.448 183.714 60.5693 183.304 60.812C182.902 61.0453 182.585 61.3767 182.352 61.806C182.118 62.2353 182.002 62.7393 182.002 63.318C182.002 63.8873 182.118 64.3913 182.352 64.83C182.585 65.2593 182.902 65.5953 183.304 65.838C183.714 66.0807 184.172 66.202 184.676 66.202Z" fill="#214B33"/>
<path d="M156 70L287 70" stroke="#214B33"/>
<path d="M156 23L302 23" stroke="#BC0051"/>
<path d="M157.652 17V7.2H161.32C162.151 7.2 162.865 7.33533 163.462 7.606C164.059 7.86733 164.517 8.25 164.834 8.754C165.161 9.24867 165.324 9.85067 165.324 10.56C165.324 11.2507 165.161 11.848 164.834 12.352C164.517 12.8467 164.059 13.2293 163.462 13.5C162.865 13.7707 162.151 13.906 161.32 13.906H158.226L158.688 13.416V17H157.652ZM158.688 13.5L158.226 12.996H161.292C162.272 12.996 163.014 12.786 163.518 12.366C164.031 11.9367 164.288 11.3347 164.288 10.56C164.288 9.776 164.031 9.16933 163.518 8.74C163.014 8.31067 162.272 8.096 161.292 8.096H158.226L158.688 7.606V13.5ZM170.186 17.07C169.477 17.07 168.837 16.9113 168.268 16.594C167.708 16.2673 167.265 15.824 166.938 15.264C166.611 14.6947 166.448 14.046 166.448 13.318C166.448 12.5807 166.611 11.932 166.938 11.372C167.265 10.812 167.708 10.3733 168.268 10.056C168.828 9.73867 169.467 9.58 170.186 9.58C170.914 9.58 171.558 9.73867 172.118 10.056C172.687 10.3733 173.131 10.812 173.448 11.372C173.775 11.932 173.938 12.5807 173.938 13.318C173.938 14.046 173.775 14.6947 173.448 15.264C173.131 15.824 172.687 16.2673 172.118 16.594C171.549 16.9113 170.905 17.07 170.186 17.07ZM170.186 16.188C170.718 16.188 171.189 16.0713 171.6 15.838C172.011 15.5953 172.333 15.2593 172.566 14.83C172.809 14.3913 172.93 13.8873 172.93 13.318C172.93 12.7393 172.809 12.2353 172.566 11.806C172.333 11.3767 172.011 11.0453 171.6 10.812C171.189 10.5693 170.723 10.448 170.2 10.448C169.677 10.448 169.211 10.5693 168.8 10.812C168.389 11.0453 168.063 11.3767 167.82 11.806C167.577 12.2353 167.456 12.7393 167.456 13.318C167.456 13.8873 167.577 14.3913 167.82 14.83C168.063 15.2593 168.389 15.5953 168.8 15.838C169.211 16.0713 169.673 16.188 170.186 16.188ZM177.982 17.084C177.45 17.084 176.922 17.0093 176.4 16.86C175.877 16.7107 175.415 16.482 175.014 16.174L175.336 15.432C175.69 15.6933 176.101 15.894 176.568 16.034C177.034 16.1647 177.496 16.23 177.954 16.23C178.411 16.2207 178.808 16.1553 179.144 16.034C179.48 15.9127 179.741 15.7447 179.928 15.53C180.114 15.3153 180.208 15.0727 180.208 14.802C180.208 14.41 180.03 14.1067 179.676 13.892C179.321 13.668 178.836 13.556 178.22 13.556H176.96V12.828H178.15C178.514 12.828 178.836 12.7813 179.116 12.688C179.396 12.5947 179.61 12.4593 179.76 12.282C179.918 12.1047 179.998 11.8947 179.998 11.652C179.998 11.3907 179.904 11.1667 179.718 10.98C179.54 10.7933 179.293 10.6533 178.976 10.56C178.658 10.4667 178.299 10.42 177.898 10.42C177.534 10.4293 177.156 10.4853 176.764 10.588C176.372 10.6813 175.984 10.826 175.602 11.022L175.322 10.252C175.751 10.028 176.176 9.86 176.596 9.748C177.025 9.62667 177.454 9.566 177.884 9.566C178.472 9.54733 178.999 9.61733 179.466 9.776C179.942 9.93467 180.32 10.1633 180.6 10.462C180.88 10.7513 181.02 11.1013 181.02 11.512C181.02 11.876 180.908 12.1933 180.684 12.464C180.46 12.7347 180.161 12.9447 179.788 13.094C179.414 13.2433 178.99 13.318 178.514 13.318L178.556 13.052C179.396 13.052 180.049 13.2153 180.516 13.542C180.992 13.8687 181.23 14.312 181.23 14.872C181.23 15.3107 181.085 15.698 180.796 16.034C180.506 16.3607 180.114 16.6173 179.62 16.804C179.134 16.9907 178.588 17.084 177.982 17.084ZM188.526 16.524V10.518H184.984L184.9 12.156C184.882 12.6507 184.849 13.136 184.802 13.612C184.765 14.088 184.695 14.5267 184.592 14.928C184.499 15.32 184.364 15.642 184.186 15.894C184.009 16.1367 183.78 16.2767 183.5 16.314L182.506 16.132C182.796 16.1413 183.034 16.0387 183.22 15.824C183.407 15.6 183.552 15.2967 183.654 14.914C183.757 14.5313 183.832 14.0973 183.878 13.612C183.925 13.1173 183.962 12.6133 183.99 12.1L184.088 9.65H189.52V16.524H188.526ZM182.198 18.778V16.132H190.668V18.778H189.73V17H183.136V18.778H182.198ZM196.399 17.07C195.765 17.07 195.191 16.9253 194.677 16.636C194.164 16.3373 193.753 15.9127 193.445 15.362C193.147 14.802 192.997 14.1207 192.997 13.318C192.997 12.5153 193.147 11.8387 193.445 11.288C193.744 10.728 194.15 10.3033 194.663 10.014C195.177 9.72467 195.755 9.58 196.399 9.58C197.099 9.58 197.725 9.73867 198.275 10.056C198.835 10.364 199.274 10.8027 199.591 11.372C199.909 11.932 200.067 12.5807 200.067 13.318C200.067 14.0647 199.909 14.718 199.591 15.278C199.274 15.838 198.835 16.2767 198.275 16.594C197.725 16.9113 197.099 17.07 196.399 17.07ZM192.605 19.716V9.65H193.557V11.862L193.459 13.332L193.599 14.816V19.716H192.605ZM196.329 16.188C196.852 16.188 197.319 16.0713 197.729 15.838C198.14 15.5953 198.467 15.2593 198.709 14.83C198.952 14.3913 199.073 13.8873 199.073 13.318C199.073 12.7487 198.952 12.2493 198.709 11.82C198.467 11.3907 198.14 11.0547 197.729 10.812C197.319 10.5693 196.852 10.448 196.329 10.448C195.807 10.448 195.335 10.5693 194.915 10.812C194.505 11.0547 194.178 11.3907 193.935 11.82C193.702 12.2493 193.585 12.7487 193.585 13.318C193.585 13.8873 193.702 14.3913 193.935 14.83C194.178 15.2593 194.505 15.5953 194.915 15.838C195.335 16.0713 195.807 16.188 196.329 16.188ZM202.203 17V9.65H203.197V17H202.203ZM202.707 8.026C202.502 8.026 202.329 7.956 202.189 7.816C202.049 7.676 201.979 7.508 201.979 7.312C201.979 7.116 202.049 6.95267 202.189 6.822C202.329 6.682 202.502 6.612 202.707 6.612C202.912 6.612 203.085 6.67733 203.225 6.808C203.365 6.93867 203.435 7.102 203.435 7.298C203.435 7.50333 203.365 7.676 203.225 7.816C203.094 7.956 202.922 8.026 202.707 8.026ZM209.335 17.084C208.738 17.084 208.206 16.986 207.739 16.79C207.282 16.594 206.89 16.2953 206.563 15.894C206.237 15.4927 205.989 14.998 205.821 14.41C205.653 13.8127 205.569 13.122 205.569 12.338C205.569 11.638 205.635 11.0267 205.765 10.504C205.896 9.972 206.078 9.51467 206.311 9.132C206.545 8.74933 206.815 8.42733 207.123 8.166C207.441 7.89533 207.781 7.68067 208.145 7.522C208.519 7.354 208.901 7.228 209.293 7.144L212.597 6.374L212.765 7.298L209.657 7.998C209.461 8.04467 209.223 8.11 208.943 8.194C208.673 8.278 208.393 8.404 208.103 8.572C207.823 8.74 207.562 8.97333 207.319 9.272C207.077 9.57067 206.881 9.958 206.731 10.434C206.591 10.9007 206.521 11.484 206.521 12.184C206.521 12.3333 206.526 12.4547 206.535 12.548C206.545 12.632 206.554 12.7253 206.563 12.828C206.582 12.9213 206.596 13.0613 206.605 13.248L206.171 12.884C206.274 12.3147 206.484 11.82 206.801 11.4C207.119 10.9707 207.515 10.6393 207.991 10.406C208.477 10.1633 209.013 10.042 209.601 10.042C210.283 10.042 210.889 10.1913 211.421 10.49C211.953 10.7793 212.369 11.1853 212.667 11.708C212.975 12.2307 213.129 12.8373 213.129 13.528C213.129 14.2093 212.971 14.8207 212.653 15.362C212.345 15.9033 211.907 16.328 211.337 16.636C210.768 16.9347 210.101 17.084 209.335 17.084ZM209.447 16.258C209.97 16.258 210.432 16.1413 210.833 15.908C211.235 15.6653 211.547 15.3387 211.771 14.928C212.005 14.5173 212.121 14.0553 212.121 13.542C212.121 13.038 212.005 12.59 211.771 12.198C211.547 11.806 211.235 11.498 210.833 11.274C210.432 11.0407 209.965 10.924 209.433 10.924C208.911 10.924 208.449 11.036 208.047 11.26C207.646 11.4747 207.329 11.778 207.095 12.17C206.871 12.562 206.759 13.0147 206.759 13.528C206.759 14.0413 206.871 14.5033 207.095 14.914C207.329 15.3247 207.646 15.6513 208.047 15.894C208.458 16.1367 208.925 16.258 209.447 16.258ZM215.26 17V9.65H216.254V12.898H220.888V9.65H221.882V17H220.888V13.752H216.254V17H215.26ZM229.271 17V15.376L229.229 15.11V12.394C229.229 11.7687 229.052 11.288 228.697 10.952C228.352 10.616 227.834 10.448 227.143 10.448C226.667 10.448 226.214 10.5273 225.785 10.686C225.356 10.8447 224.992 11.0547 224.693 11.316L224.245 10.574C224.618 10.2567 225.066 10.014 225.589 9.846C226.112 9.66867 226.662 9.58 227.241 9.58C228.193 9.58 228.926 9.818 229.439 10.294C229.962 10.7607 230.223 11.4747 230.223 12.436V17H229.271ZM226.737 17.07C226.186 17.07 225.706 16.9813 225.295 16.804C224.894 16.6173 224.586 16.3653 224.371 16.048C224.156 15.7213 224.049 15.348 224.049 14.928C224.049 14.5453 224.138 14.2 224.315 13.892C224.502 13.5747 224.8 13.3227 225.211 13.136C225.631 12.94 226.191 12.842 226.891 12.842H229.425V13.584H226.919C226.21 13.584 225.715 13.71 225.435 13.962C225.164 14.214 225.029 14.5267 225.029 14.9C225.029 15.32 225.192 15.656 225.519 15.908C225.846 16.16 226.303 16.286 226.891 16.286C227.451 16.286 227.932 16.16 228.333 15.908C228.744 15.6467 229.042 15.2733 229.229 14.788L229.453 15.474C229.266 15.9593 228.94 16.3467 228.473 16.636C228.016 16.9253 227.437 17.07 226.737 17.07ZM236.533 17V9.65H237.527V16.132H242.021V9.65H243.015V17H236.533ZM243.267 18.778V16.916L243.519 17H242.021V16.132H244.205V18.778H243.267ZM246.103 17V9.65H247.097V17H246.103ZM246.607 8.026C246.402 8.026 246.229 7.956 246.089 7.816C245.949 7.676 245.879 7.508 245.879 7.312C245.879 7.116 245.949 6.95267 246.089 6.822C246.229 6.682 246.402 6.612 246.607 6.612C246.813 6.612 246.985 6.67733 247.125 6.808C247.265 6.93867 247.335 7.102 247.335 7.298C247.335 7.50333 247.265 7.676 247.125 7.816C246.995 7.956 246.822 8.026 246.607 8.026ZM249.932 17V9.65H250.926V12.898H255.56V9.65H256.554V17H255.56V13.752H250.926V17H249.932ZM263.943 17V15.376L263.901 15.11V12.394C263.901 11.7687 263.724 11.288 263.369 10.952C263.024 10.616 262.506 10.448 261.815 10.448C261.339 10.448 260.886 10.5273 260.457 10.686C260.028 10.8447 259.664 11.0547 259.365 11.316L258.917 10.574C259.29 10.2567 259.738 10.014 260.261 9.846C260.784 9.66867 261.334 9.58 261.913 9.58C262.865 9.58 263.598 9.818 264.111 10.294C264.634 10.7607 264.895 11.4747 264.895 12.436V17H263.943ZM261.409 17.07C260.858 17.07 260.378 16.9813 259.967 16.804C259.566 16.6173 259.258 16.3653 259.043 16.048C258.828 15.7213 258.721 15.348 258.721 14.928C258.721 14.5453 258.81 14.2 258.987 13.892C259.174 13.5747 259.472 13.3227 259.883 13.136C260.303 12.94 260.863 12.842 261.563 12.842H264.097V13.584H261.591C260.882 13.584 260.387 13.71 260.107 13.962C259.836 14.214 259.701 14.5267 259.701 14.9C259.701 15.32 259.864 15.656 260.191 15.908C260.518 16.16 260.975 16.286 261.563 16.286C262.123 16.286 262.604 16.16 263.005 15.908C263.416 15.6467 263.714 15.2733 263.901 14.788L264.125 15.474C263.938 15.9593 263.612 16.3467 263.145 16.636C262.688 16.9253 262.109 17.07 261.409 17.07Z" fill="#BC0051"/>
</svg>
