<svg width="302" height="226" viewBox="0 0 302 226" fill="none" xmlns="http://www.w3.org/2000/svg">
<path d="M253.654 220.084C252.945 220.084 252.273 219.972 251.638 219.748C251.013 219.515 250.509 219.207 250.126 218.824L250.616 218.026C250.933 218.353 251.358 218.623 251.89 218.838C252.431 219.053 253.019 219.16 253.654 219.16C254.466 219.16 255.087 218.983 255.516 218.628C255.955 218.273 256.174 217.797 256.174 217.2C256.174 216.603 255.959 216.127 255.53 215.772C255.11 215.417 254.443 215.24 253.528 215.24H252.828V214.498L255.852 210.704L255.992 211.096H250.532V210.2H256.832V210.914L253.808 214.708L253.318 214.386H253.696C254.872 214.386 255.749 214.647 256.328 215.17C256.916 215.693 257.21 216.365 257.21 217.186C257.21 217.737 257.079 218.231 256.818 218.67C256.557 219.109 256.16 219.454 255.628 219.706C255.105 219.958 254.447 220.084 253.654 220.084ZM262.536 220.084C261.78 220.084 261.108 219.888 260.52 219.496C259.932 219.095 259.47 218.525 259.134 217.788C258.798 217.041 258.63 216.145 258.63 215.1C258.63 214.055 258.798 213.163 259.134 212.426C259.47 211.679 259.932 211.11 260.52 210.718C261.108 210.317 261.78 210.116 262.536 210.116C263.292 210.116 263.964 210.317 264.552 210.718C265.14 211.11 265.602 211.679 265.938 212.426C266.284 213.163 266.456 214.055 266.456 215.1C266.456 216.145 266.284 217.041 265.938 217.788C265.602 218.525 265.14 219.095 264.552 219.496C263.964 219.888 263.292 220.084 262.536 220.084ZM262.536 219.16C263.115 219.16 263.619 219.006 264.048 218.698C264.478 218.381 264.814 217.923 265.056 217.326C265.299 216.719 265.42 215.977 265.42 215.1C265.42 214.223 265.299 213.485 265.056 212.888C264.814 212.281 264.478 211.824 264.048 211.516C263.619 211.199 263.115 211.04 262.536 211.04C261.976 211.04 261.477 211.199 261.038 211.516C260.6 211.824 260.259 212.281 260.016 212.888C259.774 213.485 259.652 214.223 259.652 215.1C259.652 215.977 259.774 216.719 260.016 217.326C260.259 217.923 260.6 218.381 261.038 218.698C261.477 219.006 261.976 219.16 262.536 219.16ZM276.828 220V218.376L276.786 218.11V215.394C276.786 214.769 276.609 214.288 276.254 213.952C275.909 213.616 275.391 213.448 274.7 213.448C274.224 213.448 273.771 213.527 273.342 213.686C272.913 213.845 272.549 214.055 272.25 214.316L271.802 213.574C272.175 213.257 272.623 213.014 273.146 212.846C273.669 212.669 274.219 212.58 274.798 212.58C275.75 212.58 276.483 212.818 276.996 213.294C277.519 213.761 277.78 214.475 277.78 215.436V220H276.828ZM274.294 220.07C273.743 220.07 273.263 219.981 272.852 219.804C272.451 219.617 272.143 219.365 271.928 219.048C271.713 218.721 271.606 218.348 271.606 217.928C271.606 217.545 271.695 217.2 271.872 216.892C272.059 216.575 272.357 216.323 272.768 216.136C273.188 215.94 273.748 215.842 274.448 215.842H276.982V216.584H274.476C273.767 216.584 273.272 216.71 272.992 216.962C272.721 217.214 272.586 217.527 272.586 217.9C272.586 218.32 272.749 218.656 273.076 218.908C273.403 219.16 273.86 219.286 274.448 219.286C275.008 219.286 275.489 219.16 275.89 218.908C276.301 218.647 276.599 218.273 276.786 217.788L277.01 218.474C276.823 218.959 276.497 219.347 276.03 219.636C275.573 219.925 274.994 220.07 274.294 220.07ZM284.274 220.07C283.639 220.07 283.065 219.925 282.552 219.636C282.038 219.337 281.628 218.913 281.32 218.362C281.021 217.802 280.872 217.121 280.872 216.318C280.872 215.515 281.021 214.839 281.32 214.288C281.618 213.728 282.024 213.303 282.538 213.014C283.051 212.725 283.63 212.58 284.274 212.58C284.974 212.58 285.599 212.739 286.15 213.056C286.71 213.364 287.148 213.803 287.466 214.372C287.783 214.932 287.942 215.581 287.942 216.318C287.942 217.065 287.783 217.718 287.466 218.278C287.148 218.838 286.71 219.277 286.15 219.594C285.599 219.911 284.974 220.07 284.274 220.07ZM280.48 222.716V212.65H281.432V214.862L281.334 216.332L281.474 217.816V222.716H280.48ZM284.204 219.188C284.726 219.188 285.193 219.071 285.604 218.838C286.014 218.595 286.341 218.259 286.584 217.83C286.826 217.391 286.948 216.887 286.948 216.318C286.948 215.749 286.826 215.249 286.584 214.82C286.341 214.391 286.014 214.055 285.604 213.812C285.193 213.569 284.726 213.448 284.204 213.448C283.681 213.448 283.21 213.569 282.79 213.812C282.379 214.055 282.052 214.391 281.81 214.82C281.576 215.249 281.46 215.749 281.46 216.318C281.46 216.887 281.576 217.391 281.81 217.83C282.052 218.259 282.379 218.595 282.79 218.838C283.21 219.071 283.681 219.188 284.204 219.188ZM289.968 220V212.65H290.92V214.652L290.822 214.302C291.027 213.742 291.373 213.317 291.858 213.028C292.343 212.729 292.945 212.58 293.664 212.58V213.546C293.627 213.546 293.589 213.546 293.552 213.546C293.515 213.537 293.477 213.532 293.44 213.532C292.665 213.532 292.059 213.77 291.62 214.246C291.181 214.713 290.962 215.38 290.962 216.248V220H289.968ZM295.478 220V212.65H296.472V220H295.478ZM295.982 211.026C295.776 211.026 295.604 210.956 295.464 210.816C295.324 210.676 295.254 210.508 295.254 210.312C295.254 210.116 295.324 209.953 295.464 209.822C295.604 209.682 295.776 209.612 295.982 209.612C296.187 209.612 296.36 209.677 296.5 209.808C296.64 209.939 296.71 210.102 296.71 210.298C296.71 210.503 296.64 210.676 296.5 210.816C296.369 210.956 296.196 211.026 295.982 211.026ZM299.238 220V209.612H300.232V220H299.238Z" fill="#313131"/>
<path d="M129.436 220V210.62L129.884 211.096H127.126V210.2H130.444V220H129.436ZM135.881 220.084C135.181 220.084 134.513 219.972 133.879 219.748C133.244 219.515 132.74 219.207 132.367 218.824L132.857 218.026C133.165 218.353 133.585 218.623 134.117 218.838C134.658 219.053 135.241 219.16 135.867 219.16C136.697 219.16 137.327 218.978 137.757 218.614C138.195 218.241 138.415 217.755 138.415 217.158C138.415 216.738 138.312 216.379 138.107 216.08C137.911 215.772 137.575 215.534 137.099 215.366C136.623 215.198 135.969 215.114 135.139 215.114H133.053L133.557 210.2H138.919V211.096H133.963L134.481 210.606L134.047 214.722L133.529 214.218H135.363C136.352 214.218 137.145 214.339 137.743 214.582C138.34 214.825 138.769 215.165 139.031 215.604C139.301 216.033 139.437 216.537 139.437 217.116C139.437 217.667 139.306 218.171 139.045 218.628C138.783 219.076 138.391 219.431 137.869 219.692C137.346 219.953 136.683 220.084 135.881 220.084ZM149.644 220V218.376L149.602 218.11V215.394C149.602 214.769 149.425 214.288 149.07 213.952C148.725 213.616 148.207 213.448 147.516 213.448C147.04 213.448 146.588 213.527 146.158 213.686C145.729 213.845 145.365 214.055 145.066 214.316L144.618 213.574C144.992 213.257 145.44 213.014 145.962 212.846C146.485 212.669 147.036 212.58 147.614 212.58C148.566 212.58 149.299 212.818 149.812 213.294C150.335 213.761 150.596 214.475 150.596 215.436V220H149.644ZM147.11 220.07C146.56 220.07 146.079 219.981 145.668 219.804C145.267 219.617 144.959 219.365 144.744 219.048C144.53 218.721 144.422 218.348 144.422 217.928C144.422 217.545 144.511 217.2 144.688 216.892C144.875 216.575 145.174 216.323 145.584 216.136C146.004 215.94 146.564 215.842 147.264 215.842H149.798V216.584H147.292C146.583 216.584 146.088 216.71 145.808 216.962C145.538 217.214 145.402 217.527 145.402 217.9C145.402 218.32 145.566 218.656 145.892 218.908C146.219 219.16 146.676 219.286 147.264 219.286C147.824 219.286 148.305 219.16 148.706 218.908C149.117 218.647 149.416 218.273 149.602 217.788L149.826 218.474C149.64 218.959 149.313 219.347 148.846 219.636C148.389 219.925 147.81 220.07 147.11 220.07ZM157.09 220.07C156.455 220.07 155.881 219.925 155.368 219.636C154.855 219.337 154.444 218.913 154.136 218.362C153.837 217.802 153.688 217.121 153.688 216.318C153.688 215.515 153.837 214.839 154.136 214.288C154.435 213.728 154.841 213.303 155.354 213.014C155.867 212.725 156.446 212.58 157.09 212.58C157.79 212.58 158.415 212.739 158.966 213.056C159.526 213.364 159.965 213.803 160.282 214.372C160.599 214.932 160.758 215.581 160.758 216.318C160.758 217.065 160.599 217.718 160.282 218.278C159.965 218.838 159.526 219.277 158.966 219.594C158.415 219.911 157.79 220.07 157.09 220.07ZM153.296 222.716V212.65H154.248V214.862L154.15 216.332L154.29 217.816V222.716H153.296ZM157.02 219.188C157.543 219.188 158.009 219.071 158.42 218.838C158.831 218.595 159.157 218.259 159.4 217.83C159.643 217.391 159.764 216.887 159.764 216.318C159.764 215.749 159.643 215.249 159.4 214.82C159.157 214.391 158.831 214.055 158.42 213.812C158.009 213.569 157.543 213.448 157.02 213.448C156.497 213.448 156.026 213.569 155.606 213.812C155.195 214.055 154.869 214.391 154.626 214.82C154.393 215.249 154.276 215.749 154.276 216.318C154.276 216.887 154.393 217.391 154.626 217.83C154.869 218.259 155.195 218.595 155.606 218.838C156.026 219.071 156.497 219.188 157.02 219.188ZM162.784 220V212.65H163.736V214.652L163.638 214.302C163.844 213.742 164.189 213.317 164.674 213.028C165.16 212.729 165.762 212.58 166.48 212.58V213.546C166.443 213.546 166.406 213.546 166.368 213.546C166.331 213.537 166.294 213.532 166.256 213.532C165.482 213.532 164.875 213.77 164.436 214.246C163.998 214.713 163.778 215.38 163.778 216.248V220H162.784ZM168.294 220V212.65H169.288V220H168.294ZM168.798 211.026C168.593 211.026 168.42 210.956 168.28 210.816C168.14 210.676 168.07 210.508 168.07 210.312C168.07 210.116 168.14 209.953 168.28 209.822C168.42 209.682 168.593 209.612 168.798 209.612C169.004 209.612 169.176 209.677 169.316 209.808C169.456 209.939 169.526 210.102 169.526 210.298C169.526 210.503 169.456 210.676 169.316 210.816C169.186 210.956 169.013 211.026 168.798 211.026ZM172.054 220V209.612H173.048V220H172.054Z" fill="#313131"/>
<path d="M2.436 220V210.62L2.884 211.096H0.126V210.2H3.444V220H2.436ZM14.7147 220V218.376L14.6727 218.11V215.394C14.6727 214.769 14.4953 214.288 14.1407 213.952C13.7953 213.616 13.2773 213.448 12.5867 213.448C12.1107 213.448 11.658 213.527 11.2287 213.686C10.7993 213.845 10.4353 214.055 10.1367 214.316L9.68866 213.574C10.062 213.257 10.51 213.014 11.0327 212.846C11.5553 212.669 12.106 212.58 12.6847 212.58C13.6367 212.58 14.3693 212.818 14.8827 213.294C15.4053 213.761 15.6667 214.475 15.6667 215.436V220H14.7147ZM12.1807 220.07C11.63 220.07 11.1493 219.981 10.7387 219.804C10.3373 219.617 10.0293 219.365 9.81466 219.048C9.59999 218.721 9.49266 218.348 9.49266 217.928C9.49266 217.545 9.58132 217.2 9.75866 216.892C9.94532 216.575 10.244 216.323 10.6547 216.136C11.0747 215.94 11.6347 215.842 12.3347 215.842H14.8687V216.584H12.3627C11.6533 216.584 11.1587 216.71 10.8787 216.962C10.608 217.214 10.4727 217.527 10.4727 217.9C10.4727 218.32 10.636 218.656 10.9627 218.908C11.2893 219.16 11.7467 219.286 12.3347 219.286C12.8947 219.286 13.3753 219.16 13.7767 218.908C14.1873 218.647 14.486 218.273 14.6727 217.788L14.8967 218.474C14.71 218.959 14.3833 219.347 13.9167 219.636C13.4593 219.925 12.8807 220.07 12.1807 220.07ZM22.1605 220.07C21.5258 220.07 20.9518 219.925 20.4385 219.636C19.9251 219.337 19.5145 218.913 19.2065 218.362C18.9078 217.802 18.7585 217.121 18.7585 216.318C18.7585 215.515 18.9078 214.839 19.2065 214.288C19.5051 213.728 19.9111 213.303 20.4245 213.014C20.9378 212.725 21.5165 212.58 22.1605 212.58C22.8605 212.58 23.4858 212.739 24.0365 213.056C24.5965 213.364 25.0351 213.803 25.3525 214.372C25.6698 214.932 25.8285 215.581 25.8285 216.318C25.8285 217.065 25.6698 217.718 25.3525 218.278C25.0351 218.838 24.5965 219.277 24.0365 219.594C23.4858 219.911 22.8605 220.07 22.1605 220.07ZM18.3665 222.716V212.65H19.3185V214.862L19.2205 216.332L19.3605 217.816V222.716H18.3665ZM22.0905 219.188C22.6131 219.188 23.0798 219.071 23.4905 218.838C23.9011 218.595 24.2278 218.259 24.4705 217.83C24.7131 217.391 24.8345 216.887 24.8345 216.318C24.8345 215.749 24.7131 215.249 24.4705 214.82C24.2278 214.391 23.9011 214.055 23.4905 213.812C23.0798 213.569 22.6131 213.448 22.0905 213.448C21.5678 213.448 21.0965 213.569 20.6765 213.812C20.2658 214.055 19.9391 214.391 19.6965 214.82C19.4631 215.249 19.3465 215.749 19.3465 216.318C19.3465 216.887 19.4631 217.391 19.6965 217.83C19.9391 218.259 20.2658 218.595 20.6765 218.838C21.0965 219.071 21.5678 219.188 22.0905 219.188ZM27.8548 220V212.65H28.8068V214.652L28.7088 214.302C28.9141 213.742 29.2594 213.317 29.7448 213.028C30.2301 212.729 30.8321 212.58 31.5508 212.58V213.546C31.5134 213.546 31.4761 213.546 31.4388 213.546C31.4014 213.537 31.3641 213.532 31.3268 213.532C30.5521 213.532 29.9454 213.77 29.5068 214.246C29.0681 214.713 28.8488 215.38 28.8488 216.248V220H27.8548ZM33.3645 220V212.65H34.3585V220H33.3645ZM33.8685 211.026C33.6632 211.026 33.4905 210.956 33.3505 210.816C33.2105 210.676 33.1405 210.508 33.1405 210.312C33.1405 210.116 33.2105 209.953 33.3505 209.822C33.4905 209.682 33.6632 209.612 33.8685 209.612C34.0738 209.612 34.2465 209.677 34.3865 209.808C34.5265 209.939 34.5965 210.102 34.5965 210.298C34.5965 210.503 34.5265 210.676 34.3865 210.816C34.2558 210.956 34.0832 211.026 33.8685 211.026ZM37.1243 220V209.612H38.1183V220H37.1243Z" fill="#313131"/>
<rect x="301.998" y="203" width="11" height="181" transform="rotate(180 301.998 203)" fill="#BC0051"/>
<rect x="286.998" y="203" width="11" height="151" transform="rotate(180 286.998 203)" fill="#214B33"/>
<rect x="270.998" y="203" width="11" height="144" transform="rotate(180 270.998 203)" fill="#A2C33D" fill-opacity="0.4"/>
<rect x="255.998" y="203" width="11" height="141" transform="rotate(180 255.998 203)" fill="#A2C33D" fill-opacity="0.4"/>
<rect x="240.998" y="203" width="11" height="136" transform="rotate(180 240.998 203)" fill="#A2C33D" fill-opacity="0.4"/>
<rect x="225.998" y="203" width="11" height="128" transform="rotate(180 225.998 203)" fill="#A2C33D" fill-opacity="0.4"/>
<rect x="209.998" y="203" width="11" height="125" transform="rotate(180 209.998 203)" fill="#A2C33D" fill-opacity="0.4"/>
<rect x="194.998" y="203" width="11" height="113" transform="rotate(180 194.998 203)" fill="#A2C33D" fill-opacity="0.4"/>
<rect x="179.998" y="203" width="11" height="111" transform="rotate(180 179.998 203)" fill="#A2C33D" fill-opacity="0.4"/>
<rect x="163.998" y="203" width="11" height="104" transform="rotate(180 163.998 203)" fill="#A2C33D" fill-opacity="0.4"/>
<rect x="148.998" y="203" width="11" height="104" transform="rotate(180 148.998 203)" fill="#A2C33D" fill-opacity="0.4"/>
<rect x="133.998" y="203" width="11" height="100" transform="rotate(180 133.998 203)" fill="#A2C33D" fill-opacity="0.4"/>
<rect x="117.998" y="203" width="11" height="97" transform="rotate(180 117.998 203)" fill="#A2C33D" fill-opacity="0.4"/>
<rect x="102.998" y="203" width="11" height="97" transform="rotate(180 102.998 203)" fill="#A2C33D" fill-opacity="0.4"/>
<rect x="87.998" y="203" width="11" height="86" transform="rotate(180 87.998 203)" fill="#A2C33D" fill-opacity="0.4"/>
<rect x="72.998" y="203" width="11" height="82" transform="rotate(180 72.998 203)" fill="#A2C33D" fill-opacity="0.4"/>
<rect x="56.998" y="203" width="11" height="79" transform="rotate(180 56.998 203)" fill="#A2C33D" fill-opacity="0.4"/>
<rect x="41.998" y="203" width="11" height="71" transform="rotate(180 41.998 203)" fill="#A2C33D" fill-opacity="0.4"/>
<rect x="26.998" y="203" width="11" height="68" transform="rotate(180 26.998 203)" fill="#A2C33D" fill-opacity="0.4"/>
<rect x="11" y="203" width="11" height="57" transform="rotate(180 11 203)" fill="#A2C33D"/>
<path d="M6 53V146" stroke="#A2C33D" stroke-width="11.3313" stroke-dasharray="5.67 5.67"/>
<path d="M23.934 150V146.36L24.172 147.004L20.014 140.2H21.12L24.774 146.178H24.186L27.84 140.2H28.876L24.718 147.004L24.956 146.36V150H23.934ZM32.4347 150.07C31.7254 150.07 31.0861 149.911 30.5167 149.594C29.9567 149.267 29.5134 148.824 29.1867 148.264C28.8601 147.695 28.6967 147.046 28.6967 146.318C28.6967 145.581 28.8601 144.932 29.1867 144.372C29.5134 143.812 29.9567 143.373 30.5167 143.056C31.0767 142.739 31.7161 142.58 32.4347 142.58C33.1627 142.58 33.8067 142.739 34.3667 143.056C34.9361 143.373 35.3794 143.812 35.6967 144.372C36.0234 144.932 36.1867 145.581 36.1867 146.318C36.1867 147.046 36.0234 147.695 35.6967 148.264C35.3794 148.824 34.9361 149.267 34.3667 149.594C33.7974 149.911 33.1534 150.07 32.4347 150.07ZM32.4347 149.188C32.9667 149.188 33.4381 149.071 33.8487 148.838C34.2594 148.595 34.5814 148.259 34.8147 147.83C35.0574 147.391 35.1787 146.887 35.1787 146.318C35.1787 145.739 35.0574 145.235 34.8147 144.806C34.5814 144.377 34.2594 144.045 33.8487 143.812C33.4381 143.569 32.9714 143.448 32.4487 143.448C31.9261 143.448 31.4594 143.569 31.0487 143.812C30.6381 144.045 30.3114 144.377 30.0687 144.806C29.8261 145.235 29.7047 145.739 29.7047 146.318C29.7047 146.887 29.8261 147.391 30.0687 147.83C30.3114 148.259 30.6381 148.595 31.0487 148.838C31.4594 149.071 31.9214 149.188 32.4347 149.188ZM41.2541 150.07C40.6287 150.07 40.0827 149.953 39.6161 149.72C39.1494 149.487 38.7854 149.137 38.5241 148.67C38.2721 148.203 38.1461 147.62 38.1461 146.92V142.65H39.1401V146.808C39.1401 147.592 39.3314 148.185 39.7141 148.586C40.1061 148.978 40.6521 149.174 41.3521 149.174C41.8654 149.174 42.3087 149.071 42.6821 148.866C43.0647 148.651 43.3541 148.343 43.5501 147.942C43.7554 147.541 43.8581 147.06 43.8581 146.5V142.65H44.8521V150H43.9001V147.984L44.0541 148.348C43.8207 148.889 43.4567 149.314 42.9621 149.622C42.4767 149.921 41.9074 150.07 41.2541 150.07ZM55.0804 150.07C54.4364 150.07 53.8577 149.925 53.3444 149.636C52.8311 149.337 52.4251 148.908 52.1264 148.348C51.8277 147.788 51.6784 147.111 51.6784 146.318C51.6784 145.515 51.8277 144.839 52.1264 144.288C52.4344 143.728 52.8451 143.303 53.3584 143.014C53.8717 142.725 54.4457 142.58 55.0804 142.58C55.7804 142.58 56.4057 142.739 56.9564 143.056C57.5164 143.364 57.9551 143.798 58.2724 144.358C58.5897 144.918 58.7484 145.571 58.7484 146.318C58.7484 147.055 58.5897 147.709 58.2724 148.278C57.9551 148.838 57.5164 149.277 56.9564 149.594C56.4057 149.911 55.7804 150.07 55.0804 150.07ZM51.2864 150V139.612H52.2804V144.82L52.1404 146.304L52.2384 147.788V150H51.2864ZM55.0104 149.188C55.5331 149.188 55.9997 149.071 56.4104 148.838C56.8211 148.595 57.1477 148.259 57.3904 147.83C57.6331 147.391 57.7544 146.887 57.7544 146.318C57.7544 145.739 57.6331 145.235 57.3904 144.806C57.1477 144.377 56.8211 144.045 56.4104 143.812C55.9997 143.569 55.5331 143.448 55.0104 143.448C54.4877 143.448 54.0164 143.569 53.5964 143.812C53.1857 144.045 52.8591 144.377 52.6164 144.806C52.3831 145.235 52.2664 145.739 52.2664 146.318C52.2664 146.887 52.3831 147.391 52.6164 147.83C52.8591 148.259 53.1857 148.595 53.5964 148.838C54.0164 149.071 54.4877 149.188 55.0104 149.188ZM63.8127 150.07C63.1873 150.07 62.6413 149.953 62.1747 149.72C61.708 149.487 61.344 149.137 61.0827 148.67C60.8307 148.203 60.7047 147.62 60.7047 146.92V142.65H61.6987V146.808C61.6987 147.592 61.89 148.185 62.2727 148.586C62.6647 148.978 63.2107 149.174 63.9107 149.174C64.424 149.174 64.8673 149.071 65.2407 148.866C65.6233 148.651 65.9127 148.343 66.1087 147.942C66.314 147.541 66.4167 147.06 66.4167 146.5V142.65H67.4107V150H66.4587V147.984L66.6127 148.348C66.3793 148.889 66.0153 149.314 65.5207 149.622C65.0353 149.921 64.466 150.07 63.8127 150.07ZM70.2369 152.786C69.8916 152.786 69.5603 152.73 69.2429 152.618C68.9349 152.506 68.6689 152.338 68.4449 152.114L68.9069 151.372C69.0936 151.549 69.2943 151.685 69.5089 151.778C69.7329 151.881 69.9803 151.932 70.2509 151.932C70.5776 151.932 70.8576 151.839 71.0909 151.652C71.3336 151.475 71.5623 151.157 71.7769 150.7L72.2529 149.622L72.3649 149.468L75.3889 142.65H76.3689L72.6869 150.882C72.4816 151.358 72.2529 151.736 72.0009 152.016C71.7583 152.296 71.4923 152.492 71.2029 152.604C70.9136 152.725 70.5916 152.786 70.2369 152.786ZM72.1969 150.21L68.8089 142.65H69.8449L72.8409 149.398L72.1969 150.21ZM81.6009 150V141.726C81.6009 141.073 81.7922 140.545 82.1749 140.144C82.5575 139.743 83.1082 139.542 83.8269 139.542C84.1069 139.542 84.3775 139.579 84.6389 139.654C84.9002 139.729 85.1195 139.845 85.2969 140.004L84.9609 140.746C84.8209 140.625 84.6575 140.536 84.4709 140.48C84.2842 140.415 84.0835 140.382 83.8689 140.382C83.4489 140.382 83.1269 140.499 82.9029 140.732C82.6789 140.965 82.5669 141.311 82.5669 141.768V142.888L82.5949 143.35V150H81.6009ZM80.2849 143.476V142.65H84.8349V143.476H80.2849ZM89.215 150.07C88.5897 150.07 88.0437 149.953 87.577 149.72C87.1103 149.487 86.7463 149.137 86.485 148.67C86.233 148.203 86.107 147.62 86.107 146.92V142.65H87.101V146.808C87.101 147.592 87.2923 148.185 87.675 148.586C88.067 148.978 88.613 149.174 89.313 149.174C89.8263 149.174 90.2697 149.071 90.643 148.866C91.0257 148.651 91.315 148.343 91.511 147.942C91.7163 147.541 91.819 147.06 91.819 146.5V142.65H92.813V150H91.861V147.984L92.015 148.348C91.7817 148.889 91.4177 149.314 90.923 149.622C90.4377 149.921 89.8683 150.07 89.215 150.07ZM97.9073 150.07C97.2166 150.07 96.6846 149.883 96.3113 149.51C95.9379 149.137 95.7513 148.609 95.7513 147.928V141.026H96.7453V147.872C96.7453 148.301 96.8526 148.633 97.0673 148.866C97.2913 149.099 97.6086 149.216 98.0193 149.216C98.4579 149.216 98.8219 149.09 99.1113 148.838L99.4613 149.552C99.2653 149.729 99.0273 149.86 98.7473 149.944C98.4766 150.028 98.1966 150.07 97.9073 150.07ZM94.4353 143.476V142.65H98.9853V143.476H94.4353ZM104.309 150.07C103.683 150.07 103.137 149.953 102.671 149.72C102.204 149.487 101.84 149.137 101.579 148.67C101.327 148.203 101.201 147.62 101.201 146.92V142.65H102.195V146.808C102.195 147.592 102.386 148.185 102.769 148.586C103.161 148.978 103.707 149.174 104.407 149.174C104.92 149.174 105.363 149.071 105.737 148.866C106.119 148.651 106.409 148.343 106.605 147.942C106.81 147.541 106.913 147.06 106.913 146.5V142.65H107.907V150H106.955V147.984L107.109 148.348C106.875 148.889 106.511 149.314 106.017 149.622C105.531 149.921 104.962 150.07 104.309 150.07ZM110.677 150V142.65H111.629V144.652L111.531 144.302C111.736 143.742 112.082 143.317 112.567 143.028C113.052 142.729 113.654 142.58 114.373 142.58V143.546C114.336 143.546 114.298 143.546 114.261 143.546C114.224 143.537 114.186 143.532 114.149 143.532C113.374 143.532 112.768 143.77 112.329 144.246C111.89 144.713 111.671 145.38 111.671 146.248V150H110.677ZM119.24 150.07C118.475 150.07 117.803 149.911 117.224 149.594C116.646 149.267 116.193 148.824 115.866 148.264C115.54 147.695 115.376 147.046 115.376 146.318C115.376 145.59 115.53 144.946 115.838 144.386C116.156 143.826 116.585 143.387 117.126 143.07C117.677 142.743 118.293 142.58 118.974 142.58C119.665 142.58 120.276 142.739 120.808 143.056C121.35 143.364 121.774 143.803 122.082 144.372C122.39 144.932 122.544 145.581 122.544 146.318C122.544 146.365 122.54 146.416 122.53 146.472C122.53 146.519 122.53 146.57 122.53 146.626H116.132V145.884H121.998L121.606 146.178C121.606 145.646 121.49 145.175 121.256 144.764C121.032 144.344 120.724 144.017 120.332 143.784C119.94 143.551 119.488 143.434 118.974 143.434C118.47 143.434 118.018 143.551 117.616 143.784C117.215 144.017 116.902 144.344 116.678 144.764C116.454 145.184 116.342 145.665 116.342 146.206V146.36C116.342 146.92 116.464 147.415 116.706 147.844C116.958 148.264 117.304 148.595 117.742 148.838C118.19 149.071 118.699 149.188 119.268 149.188C119.716 149.188 120.132 149.109 120.514 148.95C120.906 148.791 121.242 148.549 121.522 148.222L122.082 148.866C121.756 149.258 121.345 149.557 120.85 149.762C120.365 149.967 119.828 150.07 119.24 150.07ZM126.542 150.07C125.935 150.07 125.361 149.986 124.82 149.818C124.278 149.641 123.854 149.421 123.546 149.16L123.994 148.376C124.292 148.6 124.675 148.796 125.142 148.964C125.608 149.123 126.098 149.202 126.612 149.202C127.312 149.202 127.816 149.095 128.124 148.88C128.432 148.656 128.586 148.362 128.586 147.998C128.586 147.727 128.497 147.517 128.32 147.368C128.152 147.209 127.928 147.093 127.648 147.018C127.368 146.934 127.055 146.864 126.71 146.808C126.364 146.752 126.019 146.687 125.674 146.612C125.338 146.537 125.03 146.43 124.75 146.29C124.47 146.141 124.241 145.94 124.064 145.688C123.896 145.436 123.812 145.1 123.812 144.68C123.812 144.279 123.924 143.919 124.148 143.602C124.372 143.285 124.698 143.037 125.128 142.86C125.566 142.673 126.098 142.58 126.724 142.58C127.2 142.58 127.676 142.645 128.152 142.776C128.628 142.897 129.02 143.061 129.328 143.266L128.894 144.064C128.567 143.84 128.217 143.681 127.844 143.588C127.47 143.485 127.097 143.434 126.724 143.434C126.061 143.434 125.571 143.551 125.254 143.784C124.946 144.008 124.792 144.297 124.792 144.652C124.792 144.932 124.876 145.151 125.044 145.31C125.221 145.469 125.45 145.595 125.73 145.688C126.019 145.772 126.332 145.842 126.668 145.898C127.013 145.954 127.354 146.024 127.69 146.108C128.035 146.183 128.348 146.29 128.628 146.43C128.917 146.561 129.146 146.752 129.314 147.004C129.491 147.247 129.58 147.569 129.58 147.97C129.58 148.399 129.458 148.773 129.216 149.09C128.982 149.398 128.637 149.641 128.18 149.818C127.732 149.986 127.186 150.07 126.542 150.07ZM139.674 150V148.376L139.632 148.11V145.394C139.632 144.769 139.454 144.288 139.1 143.952C138.754 143.616 138.236 143.448 137.546 143.448C137.07 143.448 136.617 143.527 136.188 143.686C135.758 143.845 135.394 144.055 135.096 144.316L134.648 143.574C135.021 143.257 135.469 143.014 135.992 142.846C136.514 142.669 137.065 142.58 137.644 142.58C138.596 142.58 139.328 142.818 139.842 143.294C140.364 143.761 140.626 144.475 140.626 145.436V150H139.674ZM137.14 150.07C136.589 150.07 136.108 149.981 135.698 149.804C135.296 149.617 134.988 149.365 134.774 149.048C134.559 148.721 134.452 148.348 134.452 147.928C134.452 147.545 134.54 147.2 134.718 146.892C134.904 146.575 135.203 146.323 135.614 146.136C136.034 145.94 136.594 145.842 137.294 145.842H139.828V146.584H137.322C136.612 146.584 136.118 146.71 135.838 146.962C135.567 147.214 135.432 147.527 135.432 147.9C135.432 148.32 135.595 148.656 135.922 148.908C136.248 149.16 136.706 149.286 137.294 149.286C137.854 149.286 138.334 149.16 138.736 148.908C139.146 148.647 139.445 148.273 139.632 147.788L139.856 148.474C139.669 148.959 139.342 149.347 138.876 149.636C138.418 149.925 137.84 150.07 137.14 150.07ZM145.649 150.07C144.959 150.07 144.427 149.883 144.053 149.51C143.68 149.137 143.493 148.609 143.493 147.928V141.026H144.487V147.872C144.487 148.301 144.595 148.633 144.809 148.866C145.033 149.099 145.351 149.216 145.761 149.216C146.2 149.216 146.564 149.09 146.853 148.838L147.203 149.552C147.007 149.729 146.769 149.86 146.489 149.944C146.219 150.028 145.939 150.07 145.649 150.07ZM142.177 143.476V142.65H146.727V143.476H142.177ZM155.001 150.07C154.31 150.07 153.778 149.883 153.405 149.51C153.032 149.137 152.845 148.609 152.845 147.928V141.026H153.839V147.872C153.839 148.301 153.946 148.633 154.161 148.866C154.385 149.099 154.702 149.216 155.113 149.216C155.552 149.216 155.916 149.09 156.205 148.838L156.555 149.552C156.359 149.729 156.121 149.86 155.841 149.944C155.57 150.028 155.29 150.07 155.001 150.07ZM151.529 143.476V142.65H156.079V143.476H151.529ZM162.117 142.58C162.714 142.58 163.237 142.697 163.685 142.93C164.142 143.154 164.497 143.499 164.749 143.966C165.01 144.433 165.141 145.021 165.141 145.73V150H164.147V145.828C164.147 145.053 163.951 144.47 163.559 144.078C163.176 143.677 162.635 143.476 161.935 143.476C161.412 143.476 160.955 143.583 160.563 143.798C160.18 144.003 159.881 144.307 159.667 144.708C159.461 145.1 159.359 145.576 159.359 146.136V150H158.365V139.612H159.359V144.666L159.163 144.288C159.396 143.756 159.769 143.341 160.283 143.042C160.796 142.734 161.407 142.58 162.117 142.58ZM167.825 150V142.65H168.819V150H167.825ZM168.329 141.026C168.124 141.026 167.951 140.956 167.811 140.816C167.671 140.676 167.601 140.508 167.601 140.312C167.601 140.116 167.671 139.953 167.811 139.822C167.951 139.682 168.124 139.612 168.329 139.612C168.535 139.612 168.707 139.677 168.847 139.808C168.987 139.939 169.057 140.102 169.057 140.298C169.057 140.503 168.987 140.676 168.847 140.816C168.717 140.956 168.544 141.026 168.329 141.026ZM173.559 150.07C172.953 150.07 172.379 149.986 171.837 149.818C171.296 149.641 170.871 149.421 170.563 149.16L171.011 148.376C171.31 148.6 171.693 148.796 172.159 148.964C172.626 149.123 173.116 149.202 173.629 149.202C174.329 149.202 174.833 149.095 175.141 148.88C175.449 148.656 175.603 148.362 175.603 147.998C175.603 147.727 175.515 147.517 175.337 147.368C175.169 147.209 174.945 147.093 174.665 147.018C174.385 146.934 174.073 146.864 173.727 146.808C173.382 146.752 173.037 146.687 172.691 146.612C172.355 146.537 172.047 146.43 171.767 146.29C171.487 146.141 171.259 145.94 171.081 145.688C170.913 145.436 170.829 145.1 170.829 144.68C170.829 144.279 170.941 143.919 171.165 143.602C171.389 143.285 171.716 143.037 172.145 142.86C172.584 142.673 173.116 142.58 173.741 142.58C174.217 142.58 174.693 142.645 175.169 142.776C175.645 142.897 176.037 143.061 176.345 143.266L175.911 144.064C175.585 143.84 175.235 143.681 174.861 143.588C174.488 143.485 174.115 143.434 173.741 143.434C173.079 143.434 172.589 143.551 172.271 143.784C171.963 144.008 171.809 144.297 171.809 144.652C171.809 144.932 171.893 145.151 172.061 145.31C172.239 145.469 172.467 145.595 172.747 145.688C173.037 145.772 173.349 145.842 173.685 145.898C174.031 145.954 174.371 146.024 174.707 146.108C175.053 146.183 175.365 146.29 175.645 146.43C175.935 146.561 176.163 146.752 176.331 147.004C176.509 147.247 176.597 147.569 176.597 147.97C176.597 148.399 176.476 148.773 176.233 149.09C176 149.398 175.655 149.641 175.197 149.818C174.749 149.986 174.203 150.07 173.559 150.07ZM185.879 150.07C185.245 150.07 184.671 149.925 184.157 149.636C183.644 149.337 183.233 148.913 182.925 148.362C182.627 147.802 182.477 147.121 182.477 146.318C182.477 145.515 182.627 144.839 182.925 144.288C183.224 143.728 183.63 143.303 184.143 143.014C184.657 142.725 185.235 142.58 185.879 142.58C186.579 142.58 187.205 142.739 187.755 143.056C188.315 143.364 188.754 143.803 189.071 144.372C189.389 144.932 189.547 145.581 189.547 146.318C189.547 147.065 189.389 147.718 189.071 148.278C188.754 148.838 188.315 149.277 187.755 149.594C187.205 149.911 186.579 150.07 185.879 150.07ZM182.085 152.716V142.65H183.037V144.862L182.939 146.332L183.079 147.816V152.716H182.085ZM185.809 149.188C186.332 149.188 186.799 149.071 187.209 148.838C187.62 148.595 187.947 148.259 188.189 147.83C188.432 147.391 188.553 146.887 188.553 146.318C188.553 145.749 188.432 145.249 188.189 144.82C187.947 144.391 187.62 144.055 187.209 143.812C186.799 143.569 186.332 143.448 185.809 143.448C185.287 143.448 184.815 143.569 184.395 143.812C183.985 144.055 183.658 144.391 183.415 144.82C183.182 145.249 183.065 145.749 183.065 146.318C183.065 146.887 183.182 147.391 183.415 147.83C183.658 148.259 183.985 148.595 184.395 148.838C184.815 149.071 185.287 149.188 185.809 149.188ZM191.574 150V142.65H192.526V144.652L192.428 144.302C192.633 143.742 192.978 143.317 193.464 143.028C193.949 142.729 194.551 142.58 195.27 142.58V143.546C195.232 143.546 195.195 143.546 195.158 143.546C195.12 143.537 195.083 143.532 195.046 143.532C194.271 143.532 193.664 143.77 193.226 144.246C192.787 144.713 192.568 145.38 192.568 146.248V150H191.574ZM197.083 150V142.65H198.077V150H197.083ZM197.587 141.026C197.382 141.026 197.209 140.956 197.069 140.816C196.929 140.676 196.859 140.508 196.859 140.312C196.859 140.116 196.929 139.953 197.069 139.822C197.209 139.682 197.382 139.612 197.587 139.612C197.793 139.612 197.965 139.677 198.105 139.808C198.245 139.939 198.315 140.102 198.315 140.298C198.315 140.503 198.245 140.676 198.105 140.816C197.975 140.956 197.802 141.026 197.587 141.026ZM203.895 150.07C203.167 150.07 202.514 149.911 201.935 149.594C201.366 149.267 200.918 148.824 200.591 148.264C200.264 147.695 200.101 147.046 200.101 146.318C200.101 145.581 200.264 144.932 200.591 144.372C200.918 143.812 201.366 143.373 201.935 143.056C202.514 142.739 203.167 142.58 203.895 142.58C204.52 142.58 205.085 142.701 205.589 142.944C206.093 143.187 206.49 143.551 206.779 144.036L206.037 144.54C205.785 144.167 205.472 143.891 205.099 143.714C204.726 143.537 204.32 143.448 203.881 143.448C203.358 143.448 202.887 143.569 202.467 143.812C202.047 144.045 201.716 144.377 201.473 144.806C201.23 145.235 201.109 145.739 201.109 146.318C201.109 146.897 201.23 147.401 201.473 147.83C201.716 148.259 202.047 148.595 202.467 148.838C202.887 149.071 203.358 149.188 203.881 149.188C204.32 149.188 204.726 149.099 205.099 148.922C205.472 148.745 205.785 148.474 206.037 148.11L206.779 148.614C206.49 149.09 206.093 149.454 205.589 149.706C205.085 149.949 204.52 150.07 203.895 150.07ZM211.731 150.07C210.965 150.07 210.293 149.911 209.715 149.594C209.136 149.267 208.683 148.824 208.357 148.264C208.03 147.695 207.867 147.046 207.867 146.318C207.867 145.59 208.021 144.946 208.329 144.386C208.646 143.826 209.075 143.387 209.617 143.07C210.167 142.743 210.783 142.58 211.465 142.58C212.155 142.58 212.767 142.739 213.299 143.056C213.84 143.364 214.265 143.803 214.573 144.372C214.881 144.932 215.035 145.581 215.035 146.318C215.035 146.365 215.03 146.416 215.021 146.472C215.021 146.519 215.021 146.57 215.021 146.626H208.623V145.884H214.489L214.097 146.178C214.097 145.646 213.98 145.175 213.747 144.764C213.523 144.344 213.215 144.017 212.823 143.784C212.431 143.551 211.978 143.434 211.465 143.434C210.961 143.434 210.508 143.551 210.107 143.784C209.705 144.017 209.393 144.344 209.169 144.764C208.945 145.184 208.833 145.665 208.833 146.206V146.36C208.833 146.92 208.954 147.415 209.197 147.844C209.449 148.264 209.794 148.595 210.233 148.838C210.681 149.071 211.189 149.188 211.759 149.188C212.207 149.188 212.622 149.109 213.005 148.95C213.397 148.791 213.733 148.549 214.013 148.222L214.573 148.866C214.246 149.258 213.835 149.557 213.341 149.762C212.855 149.967 212.319 150.07 211.731 150.07Z" fill="#214B33"/>
<path d="M11 153L217 153" stroke="#214B33"/>
<path d="M23.934 95V91.36L24.172 92.004L20.014 85.2H21.12L24.774 91.178H24.186L27.84 85.2H28.876L24.718 92.004L24.956 91.36V95H23.934ZM32.4347 95.07C31.7254 95.07 31.0861 94.9113 30.5167 94.594C29.9567 94.2673 29.5134 93.824 29.1867 93.264C28.8601 92.6947 28.6967 92.046 28.6967 91.318C28.6967 90.5807 28.8601 89.932 29.1867 89.372C29.5134 88.812 29.9567 88.3733 30.5167 88.056C31.0767 87.7387 31.7161 87.58 32.4347 87.58C33.1627 87.58 33.8067 87.7387 34.3667 88.056C34.9361 88.3733 35.3794 88.812 35.6967 89.372C36.0234 89.932 36.1867 90.5807 36.1867 91.318C36.1867 92.046 36.0234 92.6947 35.6967 93.264C35.3794 93.824 34.9361 94.2673 34.3667 94.594C33.7974 94.9113 33.1534 95.07 32.4347 95.07ZM32.4347 94.188C32.9667 94.188 33.4381 94.0713 33.8487 93.838C34.2594 93.5953 34.5814 93.2593 34.8147 92.83C35.0574 92.3913 35.1787 91.8873 35.1787 91.318C35.1787 90.7393 35.0574 90.2353 34.8147 89.806C34.5814 89.3767 34.2594 89.0453 33.8487 88.812C33.4381 88.5693 32.9714 88.448 32.4487 88.448C31.9261 88.448 31.4594 88.5693 31.0487 88.812C30.6381 89.0453 30.3114 89.3767 30.0687 89.806C29.8261 90.2353 29.7047 90.7393 29.7047 91.318C29.7047 91.8873 29.8261 92.3913 30.0687 92.83C30.3114 93.2593 30.6381 93.5953 31.0487 93.838C31.4594 94.0713 31.9214 94.188 32.4347 94.188ZM41.2541 95.07C40.6287 95.07 40.0827 94.9533 39.6161 94.72C39.1494 94.4867 38.7854 94.1367 38.5241 93.67C38.2721 93.2033 38.1461 92.62 38.1461 91.92V87.65H39.1401V91.808C39.1401 92.592 39.3314 93.1847 39.7141 93.586C40.1061 93.978 40.6521 94.174 41.3521 94.174C41.8654 94.174 42.3087 94.0713 42.6821 93.866C43.0647 93.6513 43.3541 93.3433 43.5501 92.942C43.7554 92.5407 43.8581 92.06 43.8581 91.5V87.65H44.8521V95H43.9001V92.984L44.0541 93.348C43.8207 93.8893 43.4567 94.314 42.9621 94.622C42.4767 94.9207 41.9074 95.07 41.2541 95.07ZM47.6223 95V87.65H48.5743V89.652L48.4763 89.302C48.6817 88.742 49.027 88.3173 49.5123 88.028C49.9977 87.7293 50.5997 87.58 51.3183 87.58V88.546C51.281 88.546 51.2437 88.546 51.2063 88.546C51.169 88.5367 51.1317 88.532 51.0943 88.532C50.3197 88.532 49.713 88.77 49.2743 89.246C48.8357 89.7127 48.6163 90.38 48.6163 91.248V95H47.6223ZM60.6995 95.07C60.0555 95.07 59.4769 94.9253 58.9635 94.636C58.4502 94.3373 58.0442 93.908 57.7455 93.348C57.4469 92.788 57.2975 92.1113 57.2975 91.318C57.2975 90.5153 57.4469 89.8387 57.7455 89.288C58.0535 88.728 58.4642 88.3033 58.9775 88.014C59.4909 87.7247 60.0649 87.58 60.6995 87.58C61.3995 87.58 62.0249 87.7387 62.5755 88.056C63.1355 88.364 63.5742 88.798 63.8915 89.358C64.2089 89.918 64.3675 90.5713 64.3675 91.318C64.3675 92.0553 64.2089 92.7087 63.8915 93.278C63.5742 93.838 63.1355 94.2767 62.5755 94.594C62.0249 94.9113 61.3995 95.07 60.6995 95.07ZM56.9055 95V84.612H57.8995V89.82L57.7595 91.304L57.8575 92.788V95H56.9055ZM60.6295 94.188C61.1522 94.188 61.6189 94.0713 62.0295 93.838C62.4402 93.5953 62.7669 93.2593 63.0095 92.83C63.2522 92.3913 63.3735 91.8873 63.3735 91.318C63.3735 90.7393 63.2522 90.2353 63.0095 89.806C62.7669 89.3767 62.4402 89.0453 62.0295 88.812C61.6189 88.5693 61.1522 88.448 60.6295 88.448C60.1069 88.448 59.6355 88.5693 59.2155 88.812C58.8049 89.0453 58.4782 89.3767 58.2355 89.806C58.0022 90.2353 57.8855 90.7393 57.8855 91.318C57.8855 91.8873 58.0022 92.3913 58.2355 92.83C58.4782 93.2593 58.8049 93.5953 59.2155 93.838C59.6355 94.0713 60.1069 94.188 60.6295 94.188ZM69.5158 95.07C68.7505 95.07 68.0785 94.9113 67.4998 94.594C66.9211 94.2673 66.4685 93.824 66.1418 93.264C65.8151 92.6947 65.6518 92.046 65.6518 91.318C65.6518 90.59 65.8058 89.946 66.1138 89.386C66.4311 88.826 66.8605 88.3873 67.4018 88.07C67.9525 87.7433 68.5685 87.58 69.2498 87.58C69.9405 87.58 70.5518 87.7387 71.0838 88.056C71.6251 88.364 72.0498 88.8027 72.3578 89.372C72.6658 89.932 72.8198 90.5807 72.8198 91.318C72.8198 91.3647 72.8151 91.416 72.8058 91.472C72.8058 91.5187 72.8058 91.57 72.8058 91.626H66.4078V90.884H72.2738L71.8818 91.178C71.8818 90.646 71.7651 90.1747 71.5318 89.764C71.3078 89.344 70.9998 89.0173 70.6078 88.784C70.2158 88.5507 69.7631 88.434 69.2498 88.434C68.7458 88.434 68.2931 88.5507 67.8918 88.784C67.4905 89.0173 67.1778 89.344 66.9538 89.764C66.7298 90.184 66.6178 90.6647 66.6178 91.206V91.36C66.6178 91.92 66.7391 92.4147 66.9818 92.844C67.2338 93.264 67.5791 93.5953 68.0178 93.838C68.4658 94.0713 68.9745 94.188 69.5438 94.188C69.9918 94.188 70.4071 94.1087 70.7898 93.95C71.1818 93.7913 71.5178 93.5487 71.7978 93.222L72.3578 93.866C72.0311 94.258 71.6205 94.5567 71.1258 94.762C70.6405 94.9673 70.1038 95.07 69.5158 95.07ZM78.595 87.58C79.1924 87.58 79.715 87.6967 80.163 87.93C80.6204 88.154 80.975 88.4993 81.227 88.966C81.4884 89.4327 81.619 90.0207 81.619 90.73V95H80.625V90.828C80.625 90.0533 80.429 89.47 80.037 89.078C79.6544 88.6767 79.113 88.476 78.413 88.476C77.8904 88.476 77.433 88.5833 77.041 88.798C76.6584 89.0033 76.3597 89.3067 76.145 89.708C75.9397 90.1 75.837 90.576 75.837 91.136V95H74.843V87.65H75.795V89.666L75.641 89.288C75.8744 88.756 76.2477 88.3407 76.761 88.042C77.2744 87.734 77.8857 87.58 78.595 87.58ZM87.426 95.07C86.6606 95.07 85.9886 94.9113 85.41 94.594C84.8313 94.2673 84.3786 93.824 84.052 93.264C83.7253 92.6947 83.562 92.046 83.562 91.318C83.562 90.59 83.716 89.946 84.024 89.386C84.3413 88.826 84.7706 88.3873 85.312 88.07C85.8626 87.7433 86.4786 87.58 87.16 87.58C87.8506 87.58 88.462 87.7387 88.994 88.056C89.5353 88.364 89.96 88.8027 90.268 89.372C90.576 89.932 90.73 90.5807 90.73 91.318C90.73 91.3647 90.7253 91.416 90.716 91.472C90.716 91.5187 90.716 91.57 90.716 91.626H84.318V90.884H90.184L89.792 91.178C89.792 90.646 89.6753 90.1747 89.442 89.764C89.218 89.344 88.91 89.0173 88.518 88.784C88.126 88.5507 87.6733 88.434 87.16 88.434C86.656 88.434 86.2033 88.5507 85.802 88.784C85.4006 89.0173 85.088 89.344 84.864 89.764C84.64 90.184 84.528 90.6647 84.528 91.206V91.36C84.528 91.92 84.6493 92.4147 84.892 92.844C85.144 93.264 85.4893 93.5953 85.928 93.838C86.376 94.0713 86.8846 94.188 87.454 94.188C87.902 94.188 88.3173 94.1087 88.7 93.95C89.092 93.7913 89.428 93.5487 89.708 93.222L90.268 93.866C89.9413 94.258 89.5306 94.5567 89.036 94.762C88.5506 94.9673 88.014 95.07 87.426 95.07ZM92.9212 95V86.726C92.9212 86.0727 93.1125 85.5453 93.4952 85.144C93.8779 84.7427 94.4285 84.542 95.1472 84.542C95.4272 84.542 95.6979 84.5793 95.9592 84.654C96.2205 84.7287 96.4399 84.8453 96.6172 85.004L96.2812 85.746C96.1412 85.6247 95.9779 85.536 95.7912 85.48C95.6045 85.4147 95.4039 85.382 95.1892 85.382C94.7692 85.382 94.4472 85.4987 94.2232 85.732C93.9992 85.9653 93.8872 86.3107 93.8872 86.768V87.888L93.9152 88.35V95H92.9212ZM91.6052 88.476V87.65H96.1552V88.476H91.6052ZM97.4992 95V87.65H98.4932V95H97.4992ZM98.0032 86.026C97.7979 86.026 97.6252 85.956 97.4852 85.816C97.3452 85.676 97.2752 85.508 97.2752 85.312C97.2752 85.116 97.3452 84.9527 97.4852 84.822C97.6252 84.682 97.7979 84.612 98.0032 84.612C98.2085 84.612 98.3812 84.6773 98.5212 84.808C98.6612 84.9387 98.7312 85.102 98.7312 85.298C98.7312 85.5033 98.6612 85.676 98.5212 85.816C98.3905 85.956 98.2179 86.026 98.0032 86.026ZM103.608 95.07C102.918 95.07 102.386 94.8833 102.012 94.51C101.639 94.1367 101.452 93.6093 101.452 92.928V86.026H102.446V92.872C102.446 93.3013 102.554 93.6327 102.768 93.866C102.992 94.0993 103.31 94.216 103.72 94.216C104.159 94.216 104.523 94.09 104.812 93.838L105.162 94.552C104.966 94.7293 104.728 94.86 104.448 94.944C104.178 95.028 103.898 95.07 103.608 95.07ZM100.136 88.476V87.65H104.686V88.476H100.136Z" fill="#A2C33D"/>
<path d="M106 101L1 101" stroke="#A2C33D"/>
<path d="M159.934 41V37.36L160.172 38.004L156.014 31.2H157.12L160.774 37.178H160.186L163.84 31.2H164.876L160.718 38.004L160.956 37.36V41H159.934ZM168.435 41.07C167.725 41.07 167.086 40.9113 166.517 40.594C165.957 40.2673 165.513 39.824 165.187 39.264C164.86 38.6947 164.697 38.046 164.697 37.318C164.697 36.5807 164.86 35.932 165.187 35.372C165.513 34.812 165.957 34.3733 166.517 34.056C167.077 33.7387 167.716 33.58 168.435 33.58C169.163 33.58 169.807 33.7387 170.367 34.056C170.936 34.3733 171.379 34.812 171.697 35.372C172.023 35.932 172.187 36.5807 172.187 37.318C172.187 38.046 172.023 38.6947 171.697 39.264C171.379 39.824 170.936 40.2673 170.367 40.594C169.797 40.9113 169.153 41.07 168.435 41.07ZM168.435 40.188C168.967 40.188 169.438 40.0713 169.849 39.838C170.259 39.5953 170.581 39.2593 170.815 38.83C171.057 38.3913 171.179 37.8873 171.179 37.318C171.179 36.7393 171.057 36.2353 170.815 35.806C170.581 35.3767 170.259 35.0453 169.849 34.812C169.438 34.5693 168.971 34.448 168.449 34.448C167.926 34.448 167.459 34.5693 167.049 34.812C166.638 35.0453 166.311 35.3767 166.069 35.806C165.826 36.2353 165.705 36.7393 165.705 37.318C165.705 37.8873 165.826 38.3913 166.069 38.83C166.311 39.2593 166.638 39.5953 167.049 39.838C167.459 40.0713 167.921 40.188 168.435 40.188ZM177.254 41.07C176.629 41.07 176.083 40.9533 175.616 40.72C175.149 40.4867 174.785 40.1367 174.524 39.67C174.272 39.2033 174.146 38.62 174.146 37.92V33.65H175.14V37.808C175.14 38.592 175.331 39.1847 175.714 39.586C176.106 39.978 176.652 40.174 177.352 40.174C177.865 40.174 178.309 40.0713 178.682 39.866C179.065 39.6513 179.354 39.3433 179.55 38.942C179.755 38.5407 179.858 38.06 179.858 37.5V33.65H180.852V41H179.9V38.984L180.054 39.348C179.821 39.8893 179.457 40.314 178.962 40.622C178.477 40.9207 177.907 41.07 177.254 41.07ZM189.26 41.07C188.654 41.07 188.08 40.986 187.538 40.818C186.997 40.6407 186.572 40.4213 186.264 40.16L186.712 39.376C187.011 39.6 187.394 39.796 187.86 39.964C188.327 40.1227 188.817 40.202 189.33 40.202C190.03 40.202 190.534 40.0947 190.842 39.88C191.15 39.656 191.304 39.362 191.304 38.998C191.304 38.7273 191.216 38.5173 191.038 38.368C190.87 38.2093 190.646 38.0927 190.366 38.018C190.086 37.934 189.774 37.864 189.428 37.808C189.083 37.752 188.738 37.6867 188.392 37.612C188.056 37.5373 187.748 37.43 187.468 37.29C187.188 37.1407 186.96 36.94 186.782 36.688C186.614 36.436 186.53 36.1 186.53 35.68C186.53 35.2787 186.642 34.9193 186.866 34.602C187.09 34.2847 187.417 34.0373 187.846 33.86C188.285 33.6733 188.817 33.58 189.442 33.58C189.918 33.58 190.394 33.6453 190.87 33.776C191.346 33.8973 191.738 34.0607 192.046 34.266L191.612 35.064C191.286 34.84 190.936 34.6813 190.562 34.588C190.189 34.4853 189.816 34.434 189.442 34.434C188.78 34.434 188.29 34.5507 187.972 34.784C187.664 35.008 187.51 35.2973 187.51 35.652C187.51 35.932 187.594 36.1513 187.762 36.31C187.94 36.4687 188.168 36.5947 188.448 36.688C188.738 36.772 189.05 36.842 189.386 36.898C189.732 36.954 190.072 37.024 190.408 37.108C190.754 37.1827 191.066 37.29 191.346 37.43C191.636 37.5607 191.864 37.752 192.032 38.004C192.21 38.2467 192.298 38.5687 192.298 38.97C192.298 39.3993 192.177 39.7727 191.934 40.09C191.701 40.398 191.356 40.6407 190.898 40.818C190.45 40.986 189.904 41.07 189.26 41.07ZM197.244 41.07C196.479 41.07 195.807 40.9113 195.228 40.594C194.65 40.2673 194.197 39.824 193.87 39.264C193.544 38.6947 193.38 38.046 193.38 37.318C193.38 36.59 193.534 35.946 193.842 35.386C194.16 34.826 194.589 34.3873 195.13 34.07C195.681 33.7433 196.297 33.58 196.978 33.58C197.669 33.58 198.28 33.7387 198.812 34.056C199.354 34.364 199.778 34.8027 200.086 35.372C200.394 35.932 200.548 36.5807 200.548 37.318C200.548 37.3647 200.544 37.416 200.534 37.472C200.534 37.5187 200.534 37.57 200.534 37.626H194.136V36.884H200.002L199.61 37.178C199.61 36.646 199.494 36.1747 199.26 35.764C199.036 35.344 198.728 35.0173 198.336 34.784C197.944 34.5507 197.492 34.434 196.978 34.434C196.474 34.434 196.022 34.5507 195.62 34.784C195.219 35.0173 194.906 35.344 194.682 35.764C194.458 36.184 194.346 36.6647 194.346 37.206V37.36C194.346 37.92 194.468 38.4147 194.71 38.844C194.962 39.264 195.308 39.5953 195.746 39.838C196.194 40.0713 196.703 40.188 197.272 40.188C197.72 40.188 198.136 40.1087 198.518 39.95C198.91 39.7913 199.246 39.5487 199.526 39.222L200.086 39.866C199.76 40.258 199.349 40.5567 198.854 40.762C198.369 40.9673 197.832 41.07 197.244 41.07ZM202.572 41V30.612H203.566V41H202.572ZM206.331 41V30.612H207.325V41H206.331ZM213.923 41V32.726C213.923 32.0727 214.114 31.5453 214.497 31.144C214.88 30.7427 215.43 30.542 216.149 30.542C216.429 30.542 216.7 30.5793 216.961 30.654C217.222 30.7287 217.442 30.8453 217.619 31.004L217.283 31.746C217.143 31.6247 216.98 31.536 216.793 31.48C216.606 31.4147 216.406 31.382 216.191 31.382C215.771 31.382 215.449 31.4987 215.225 31.732C215.001 31.9653 214.889 32.3107 214.889 32.768V33.888L214.917 34.35V41H213.923ZM212.607 34.476V33.65H217.157V34.476H212.607ZM221.537 41.07C220.912 41.07 220.366 40.9533 219.899 40.72C219.433 40.4867 219.069 40.1367 218.807 39.67C218.555 39.2033 218.429 38.62 218.429 37.92V33.65H219.423V37.808C219.423 38.592 219.615 39.1847 219.997 39.586C220.389 39.978 220.935 40.174 221.635 40.174C222.149 40.174 222.592 40.0713 222.965 39.866C223.348 39.6513 223.637 39.3433 223.833 38.942C224.039 38.5407 224.141 38.06 224.141 37.5V33.65H225.135V41H224.183V38.984L224.337 39.348C224.104 39.8893 223.74 40.314 223.245 40.622C222.76 40.9207 222.191 41.07 221.537 41.07ZM230.23 41.07C229.539 41.07 229.007 40.8833 228.634 40.51C228.26 40.1367 228.074 39.6093 228.074 38.928V32.026H229.068V38.872C229.068 39.3013 229.175 39.6327 229.39 39.866C229.614 40.0993 229.931 40.216 230.342 40.216C230.78 40.216 231.144 40.09 231.434 39.838L231.784 40.552C231.588 40.7293 231.35 40.86 231.07 40.944C230.799 41.028 230.519 41.07 230.23 41.07ZM226.758 34.476V33.65H231.308V34.476H226.758ZM236.631 41.07C236.006 41.07 235.46 40.9533 234.993 40.72C234.526 40.4867 234.162 40.1367 233.901 39.67C233.649 39.2033 233.523 38.62 233.523 37.92V33.65H234.517V37.808C234.517 38.592 234.708 39.1847 235.091 39.586C235.483 39.978 236.029 40.174 236.729 40.174C237.242 40.174 237.686 40.0713 238.059 39.866C238.442 39.6513 238.731 39.3433 238.927 38.942C239.132 38.5407 239.235 38.06 239.235 37.5V33.65H240.229V41H239.277V38.984L239.431 39.348C239.198 39.8893 238.834 40.314 238.339 40.622C237.854 40.9207 237.284 41.07 236.631 41.07ZM242.999 41V33.65H243.951V35.652L243.853 35.302C244.059 34.742 244.404 34.3173 244.889 34.028C245.375 33.7293 245.977 33.58 246.695 33.58V34.546C246.658 34.546 246.621 34.546 246.583 34.546C246.546 34.5367 246.509 34.532 246.471 34.532C245.697 34.532 245.09 34.77 244.651 35.246C244.213 35.7127 243.993 36.38 243.993 37.248V41H242.999ZM251.563 41.07C250.797 41.07 250.125 40.9113 249.547 40.594C248.968 40.2673 248.515 39.824 248.189 39.264C247.862 38.6947 247.699 38.046 247.699 37.318C247.699 36.59 247.853 35.946 248.161 35.386C248.478 34.826 248.907 34.3873 249.449 34.07C249.999 33.7433 250.615 33.58 251.297 33.58C251.987 33.58 252.599 33.7387 253.131 34.056C253.672 34.364 254.097 34.8027 254.405 35.372C254.713 35.932 254.867 36.5807 254.867 37.318C254.867 37.3647 254.862 37.416 254.853 37.472C254.853 37.5187 254.853 37.57 254.853 37.626H248.455V36.884H254.321L253.929 37.178C253.929 36.646 253.812 36.1747 253.579 35.764C253.355 35.344 253.047 35.0173 252.655 34.784C252.263 34.5507 251.81 34.434 251.297 34.434C250.793 34.434 250.34 34.5507 249.939 34.784C249.537 35.0173 249.225 35.344 249.001 35.764C248.777 36.184 248.665 36.6647 248.665 37.206V37.36C248.665 37.92 248.786 38.4147 249.029 38.844C249.281 39.264 249.626 39.5953 250.065 39.838C250.513 40.0713 251.021 40.188 251.591 40.188C252.039 40.188 252.454 40.1087 252.837 39.95C253.229 39.7913 253.565 39.5487 253.845 39.222L254.405 39.866C254.078 40.258 253.667 40.5567 253.173 40.762C252.687 40.9673 252.151 41.07 251.563 41.07ZM258.864 41.07C258.257 41.07 257.683 40.986 257.142 40.818C256.601 40.6407 256.176 40.4213 255.868 40.16L256.316 39.376C256.615 39.6 256.997 39.796 257.464 39.964C257.931 40.1227 258.421 40.202 258.934 40.202C259.634 40.202 260.138 40.0947 260.446 39.88C260.754 39.656 260.908 39.362 260.908 38.998C260.908 38.7273 260.819 38.5173 260.642 38.368C260.474 38.2093 260.25 38.0927 259.97 38.018C259.69 37.934 259.377 37.864 259.032 37.808C258.687 37.752 258.341 37.6867 257.996 37.612C257.66 37.5373 257.352 37.43 257.072 37.29C256.792 37.1407 256.563 36.94 256.386 36.688C256.218 36.436 256.134 36.1 256.134 35.68C256.134 35.2787 256.246 34.9193 256.47 34.602C256.694 34.2847 257.021 34.0373 257.45 33.86C257.889 33.6733 258.421 33.58 259.046 33.58C259.522 33.58 259.998 33.6453 260.474 33.776C260.95 33.8973 261.342 34.0607 261.65 34.266L261.216 35.064C260.889 34.84 260.539 34.6813 260.166 34.588C259.793 34.4853 259.419 34.434 259.046 34.434C258.383 34.434 257.893 34.5507 257.576 34.784C257.268 35.008 257.114 35.2973 257.114 35.652C257.114 35.932 257.198 36.1513 257.366 36.31C257.543 36.4687 257.772 36.5947 258.052 36.688C258.341 36.772 258.654 36.842 258.99 36.898C259.335 36.954 259.676 37.024 260.012 37.108C260.357 37.1827 260.67 37.29 260.95 37.43C261.239 37.5607 261.468 37.752 261.636 38.004C261.813 38.2467 261.902 38.5687 261.902 38.97C261.902 39.3993 261.781 39.7727 261.538 40.09C261.305 40.398 260.959 40.6407 260.502 40.818C260.054 40.986 259.508 41.07 258.864 41.07ZM161.992 64V62.376L161.95 62.11V59.394C161.95 58.7687 161.773 58.288 161.418 57.952C161.073 57.616 160.555 57.448 159.864 57.448C159.388 57.448 158.935 57.5273 158.506 57.686C158.077 57.8447 157.713 58.0547 157.414 58.316L156.966 57.574C157.339 57.2567 157.787 57.014 158.31 56.846C158.833 56.6687 159.383 56.58 159.962 56.58C160.914 56.58 161.647 56.818 162.16 57.294C162.683 57.7607 162.944 58.4747 162.944 59.436V64H161.992ZM159.458 64.07C158.907 64.07 158.427 63.9813 158.016 63.804C157.615 63.6173 157.307 63.3653 157.092 63.048C156.877 62.7213 156.77 62.348 156.77 61.928C156.77 61.5453 156.859 61.2 157.036 60.892C157.223 60.5747 157.521 60.3227 157.932 60.136C158.352 59.94 158.912 59.842 159.612 59.842H162.146V60.584H159.64C158.931 60.584 158.436 60.71 158.156 60.962C157.885 61.214 157.75 61.5267 157.75 61.9C157.75 62.32 157.913 62.656 158.24 62.908C158.567 63.16 159.024 63.286 159.612 63.286C160.172 63.286 160.653 63.16 161.054 62.908C161.465 62.6467 161.763 62.2733 161.95 61.788L162.174 62.474C161.987 62.9593 161.661 63.3467 161.194 63.636C160.737 63.9253 160.158 64.07 159.458 64.07ZM167.968 64.07C167.277 64.07 166.745 63.8833 166.372 63.51C165.998 63.1367 165.812 62.6093 165.812 61.928V55.026H166.806V61.872C166.806 62.3013 166.913 62.6327 167.128 62.866C167.352 63.0993 167.669 63.216 168.08 63.216C168.518 63.216 168.882 63.09 169.172 62.838L169.522 63.552C169.326 63.7293 169.088 63.86 168.808 63.944C168.537 64.028 168.257 64.07 167.968 64.07ZM164.496 57.476V56.65H169.046V57.476H164.496ZM177.319 64.07C176.629 64.07 176.097 63.8833 175.723 63.51C175.35 63.1367 175.163 62.6093 175.163 61.928V55.026H176.157V61.872C176.157 62.3013 176.265 62.6327 176.479 62.866C176.703 63.0993 177.021 63.216 177.431 63.216C177.87 63.216 178.234 63.09 178.523 62.838L178.873 63.552C178.677 63.7293 178.439 63.86 178.159 63.944C177.889 64.028 177.609 64.07 177.319 64.07ZM173.847 57.476V56.65H178.397V57.476H173.847ZM184.435 56.58C185.032 56.58 185.555 56.6967 186.003 56.93C186.46 57.154 186.815 57.4993 187.067 57.966C187.328 58.4327 187.459 59.0207 187.459 59.73V64H186.465V59.828C186.465 59.0533 186.269 58.47 185.877 58.078C185.494 57.6767 184.953 57.476 184.253 57.476C183.73 57.476 183.273 57.5833 182.881 57.798C182.498 58.0033 182.2 58.3067 181.985 58.708C181.78 59.1 181.677 59.576 181.677 60.136V64H180.683V53.612H181.677V58.666L181.481 58.288C181.714 57.756 182.088 57.3407 182.601 57.042C183.114 56.734 183.726 56.58 184.435 56.58ZM190.144 64V56.65H191.138V64H190.144ZM190.648 55.026C190.442 55.026 190.27 54.956 190.13 54.816C189.99 54.676 189.92 54.508 189.92 54.312C189.92 54.116 189.99 53.9527 190.13 53.822C190.27 53.682 190.442 53.612 190.648 53.612C190.853 53.612 191.026 53.6773 191.166 53.808C191.306 53.9387 191.376 54.102 191.376 54.298C191.376 54.5033 191.306 54.676 191.166 54.816C191.035 54.956 190.862 55.026 190.648 55.026ZM195.878 64.07C195.271 64.07 194.697 63.986 194.156 63.818C193.614 63.6407 193.19 63.4213 192.882 63.16L193.33 62.376C193.628 62.6 194.011 62.796 194.478 62.964C194.944 63.1227 195.434 63.202 195.948 63.202C196.648 63.202 197.152 63.0947 197.46 62.88C197.768 62.656 197.922 62.362 197.922 61.998C197.922 61.7273 197.833 61.5173 197.656 61.368C197.488 61.2093 197.264 61.0927 196.984 61.018C196.704 60.934 196.391 60.864 196.046 60.808C195.7 60.752 195.355 60.6867 195.01 60.612C194.674 60.5373 194.366 60.43 194.086 60.29C193.806 60.1407 193.577 59.94 193.4 59.688C193.232 59.436 193.148 59.1 193.148 58.68C193.148 58.2787 193.26 57.9193 193.484 57.602C193.708 57.2847 194.034 57.0373 194.464 56.86C194.902 56.6733 195.434 56.58 196.06 56.58C196.536 56.58 197.012 56.6453 197.488 56.776C197.964 56.8973 198.356 57.0607 198.664 57.266L198.23 58.064C197.903 57.84 197.553 57.6813 197.18 57.588C196.806 57.4853 196.433 57.434 196.06 57.434C195.397 57.434 194.907 57.5507 194.59 57.784C194.282 58.008 194.128 58.2973 194.128 58.652C194.128 58.932 194.212 59.1513 194.38 59.31C194.557 59.4687 194.786 59.5947 195.066 59.688C195.355 59.772 195.668 59.842 196.004 59.898C196.349 59.954 196.69 60.024 197.026 60.108C197.371 60.1827 197.684 60.29 197.964 60.43C198.253 60.5607 198.482 60.752 198.65 61.004C198.827 61.2467 198.916 61.5687 198.916 61.97C198.916 62.3993 198.794 62.7727 198.552 63.09C198.318 63.398 197.973 63.6407 197.516 63.818C197.068 63.986 196.522 64.07 195.878 64.07ZM208.198 64.07C207.563 64.07 206.989 63.9253 206.476 63.636C205.962 63.3373 205.552 62.9127 205.244 62.362C204.945 61.802 204.796 61.1207 204.796 60.318C204.796 59.5153 204.945 58.8387 205.244 58.288C205.542 57.728 205.948 57.3033 206.462 57.014C206.975 56.7247 207.554 56.58 208.198 56.58C208.898 56.58 209.523 56.7387 210.074 57.056C210.634 57.364 211.072 57.8027 211.39 58.372C211.707 58.932 211.866 59.5807 211.866 60.318C211.866 61.0647 211.707 61.718 211.39 62.278C211.072 62.838 210.634 63.2767 210.074 63.594C209.523 63.9113 208.898 64.07 208.198 64.07ZM204.404 66.716V56.65H205.356V58.862L205.258 60.332L205.398 61.816V66.716H204.404ZM208.128 63.188C208.65 63.188 209.117 63.0713 209.528 62.838C209.938 62.5953 210.265 62.2593 210.508 61.83C210.75 61.3913 210.872 60.8873 210.872 60.318C210.872 59.7487 210.75 59.2493 210.508 58.82C210.265 58.3907 209.938 58.0547 209.528 57.812C209.117 57.5693 208.65 57.448 208.128 57.448C207.605 57.448 207.134 57.5693 206.714 57.812C206.303 58.0547 205.976 58.3907 205.734 58.82C205.5 59.2493 205.384 59.7487 205.384 60.318C205.384 60.8873 205.5 61.3913 205.734 61.83C205.976 62.2593 206.303 62.5953 206.714 62.838C207.134 63.0713 207.605 63.188 208.128 63.188ZM213.892 64V56.65H214.844V58.652L214.746 58.302C214.951 57.742 215.297 57.3173 215.782 57.028C216.267 56.7293 216.869 56.58 217.588 56.58V57.546C217.551 57.546 217.513 57.546 217.476 57.546C217.439 57.5367 217.401 57.532 217.364 57.532C216.589 57.532 215.983 57.77 215.544 58.246C215.105 58.7127 214.886 59.38 214.886 60.248V64H213.892ZM219.402 64V56.65H220.396V64H219.402ZM219.906 55.026C219.7 55.026 219.528 54.956 219.388 54.816C219.248 54.676 219.178 54.508 219.178 54.312C219.178 54.116 219.248 53.9527 219.388 53.822C219.528 53.682 219.7 53.612 219.906 53.612C220.111 53.612 220.284 53.6773 220.424 53.808C220.564 53.9387 220.634 54.102 220.634 54.298C220.634 54.5033 220.564 54.676 220.424 54.816C220.293 54.956 220.12 55.026 219.906 55.026ZM226.213 64.07C225.485 64.07 224.832 63.9113 224.253 63.594C223.684 63.2673 223.236 62.824 222.909 62.264C222.583 61.6947 222.419 61.046 222.419 60.318C222.419 59.5807 222.583 58.932 222.909 58.372C223.236 57.812 223.684 57.3733 224.253 57.056C224.832 56.7387 225.485 56.58 226.213 56.58C226.839 56.58 227.403 56.7013 227.907 56.944C228.411 57.1867 228.808 57.5507 229.097 58.036L228.355 58.54C228.103 58.1667 227.791 57.8913 227.417 57.714C227.044 57.5367 226.638 57.448 226.199 57.448C225.677 57.448 225.205 57.5693 224.785 57.812C224.365 58.0453 224.034 58.3767 223.791 58.806C223.549 59.2353 223.427 59.7393 223.427 60.318C223.427 60.8967 223.549 61.4007 223.791 61.83C224.034 62.2593 224.365 62.5953 224.785 62.838C225.205 63.0713 225.677 63.188 226.199 63.188C226.638 63.188 227.044 63.0993 227.417 62.922C227.791 62.7447 228.103 62.474 228.355 62.11L229.097 62.614C228.808 63.09 228.411 63.454 227.907 63.706C227.403 63.9487 226.839 64.07 226.213 64.07ZM234.049 64.07C233.284 64.07 232.612 63.9113 232.033 63.594C231.454 63.2673 231.002 62.824 230.675 62.264C230.348 61.6947 230.185 61.046 230.185 60.318C230.185 59.59 230.339 58.946 230.647 58.386C230.964 57.826 231.394 57.3873 231.935 57.07C232.486 56.7433 233.102 56.58 233.783 56.58C234.474 56.58 235.085 56.7387 235.617 57.056C236.158 57.364 236.583 57.8027 236.891 58.372C237.199 58.932 237.353 59.5807 237.353 60.318C237.353 60.3647 237.348 60.416 237.339 60.472C237.339 60.5187 237.339 60.57 237.339 60.626H230.941V59.884H236.807L236.415 60.178C236.415 59.646 236.298 59.1747 236.065 58.764C235.841 58.344 235.533 58.0173 235.141 57.784C234.749 57.5507 234.296 57.434 233.783 57.434C233.279 57.434 232.826 57.5507 232.425 57.784C232.024 58.0173 231.711 58.344 231.487 58.764C231.263 59.184 231.151 59.6647 231.151 60.206V60.36C231.151 60.92 231.272 61.4147 231.515 61.844C231.767 62.264 232.112 62.5953 232.551 62.838C232.999 63.0713 233.508 63.188 234.077 63.188C234.525 63.188 234.94 63.1087 235.323 62.95C235.715 62.7913 236.051 62.5487 236.331 62.222L236.891 62.866C236.564 63.258 236.154 63.5567 235.659 63.762C235.174 63.9673 234.637 64.07 234.049 64.07Z" fill="#214B33"/>
<path d="M156 70L287 70" stroke="#214B33"/>
<path d="M156 23L302 23" stroke="#BC0051"/>
<path d="M157.596 17V7.2H161.264C162.095 7.2 162.809 7.33533 163.406 7.606C164.003 7.86733 164.461 8.25 164.778 8.754C165.105 9.24867 165.268 9.85067 165.268 10.56C165.268 11.2507 165.105 11.848 164.778 12.352C164.461 12.8467 164.003 13.2293 163.406 13.5C162.809 13.7613 162.095 13.892 161.264 13.892H158.17L158.632 13.416V17H157.596ZM164.288 17L161.768 13.444H162.888L165.422 17H164.288ZM158.632 13.5L158.17 13.01H161.236C162.216 13.01 162.958 12.7953 163.462 12.366C163.975 11.9367 164.232 11.3347 164.232 10.56C164.232 9.776 163.975 9.16933 163.462 8.74C162.958 8.31067 162.216 8.096 161.236 8.096H158.17L158.632 7.606V13.5ZM170.625 17.07C169.86 17.07 169.188 16.9113 168.609 16.594C168.031 16.2673 167.578 15.824 167.251 15.264C166.925 14.6947 166.761 14.046 166.761 13.318C166.761 12.59 166.915 11.946 167.223 11.386C167.541 10.826 167.97 10.3873 168.511 10.07C169.062 9.74333 169.678 9.58 170.359 9.58C171.05 9.58 171.661 9.73867 172.193 10.056C172.735 10.364 173.159 10.8027 173.467 11.372C173.775 11.932 173.929 12.5807 173.929 13.318C173.929 13.3647 173.925 13.416 173.915 13.472C173.915 13.5187 173.915 13.57 173.915 13.626H167.517V12.884H173.383L172.991 13.178C172.991 12.646 172.875 12.1747 172.641 11.764C172.417 11.344 172.109 11.0173 171.717 10.784C171.325 10.5507 170.873 10.434 170.359 10.434C169.855 10.434 169.403 10.5507 169.001 10.784C168.6 11.0173 168.287 11.344 168.063 11.764C167.839 12.184 167.727 12.6647 167.727 13.206V13.36C167.727 13.92 167.849 14.4147 168.091 14.844C168.343 15.264 168.689 15.5953 169.127 15.838C169.575 16.0713 170.084 16.188 170.653 16.188C171.101 16.188 171.517 16.1087 171.899 15.95C172.291 15.7913 172.627 15.5487 172.907 15.222L173.467 15.866C173.141 16.258 172.73 16.5567 172.235 16.762C171.75 16.9673 171.213 17.07 170.625 17.07ZM178.276 17.07C177.586 17.07 177.054 16.8833 176.68 16.51C176.307 16.1367 176.12 15.6093 176.12 14.928V8.026H177.114V14.872C177.114 15.3013 177.222 15.6327 177.436 15.866C177.66 16.0993 177.978 16.216 178.388 16.216C178.827 16.216 179.191 16.09 179.48 15.838L179.83 16.552C179.634 16.7293 179.396 16.86 179.116 16.944C178.846 17.028 178.566 17.07 178.276 17.07ZM174.804 10.476V9.65H179.354V10.476H174.804ZM186.246 17V15.376L186.204 15.11V12.394C186.204 11.7687 186.027 11.288 185.672 10.952C185.327 10.616 184.809 10.448 184.118 10.448C183.642 10.448 183.189 10.5273 182.76 10.686C182.331 10.8447 181.967 11.0547 181.668 11.316L181.22 10.574C181.593 10.2567 182.041 10.014 182.564 9.846C183.087 9.66867 183.637 9.58 184.216 9.58C185.168 9.58 185.901 9.818 186.414 10.294C186.937 10.7607 187.198 11.4747 187.198 12.436V17H186.246ZM183.712 17.07C183.161 17.07 182.681 16.9813 182.27 16.804C181.869 16.6173 181.561 16.3653 181.346 16.048C181.131 15.7213 181.024 15.348 181.024 14.928C181.024 14.5453 181.113 14.2 181.29 13.892C181.477 13.5747 181.775 13.3227 182.186 13.136C182.606 12.94 183.166 12.842 183.866 12.842H186.4V13.584H183.894C183.185 13.584 182.69 13.71 182.41 13.962C182.139 14.214 182.004 14.5267 182.004 14.9C182.004 15.32 182.167 15.656 182.494 15.908C182.821 16.16 183.278 16.286 183.866 16.286C184.426 16.286 184.907 16.16 185.308 15.908C185.719 15.6467 186.017 15.2733 186.204 14.788L186.428 15.474C186.241 15.9593 185.915 16.3467 185.448 16.636C184.991 16.9253 184.412 17.07 183.712 17.07ZM189.898 17V9.65H190.892V17H189.898ZM190.402 8.026C190.196 8.026 190.024 7.956 189.884 7.816C189.744 7.676 189.674 7.508 189.674 7.312C189.674 7.116 189.744 6.95267 189.884 6.822C190.024 6.682 190.196 6.612 190.402 6.612C190.607 6.612 190.78 6.67733 190.92 6.808C191.06 6.93867 191.13 7.102 191.13 7.298C191.13 7.50333 191.06 7.676 190.92 7.816C190.789 7.956 190.616 8.026 190.402 8.026ZM193.657 17V6.612H194.651V17H193.657ZM204.875 17.07C204.241 17.07 203.667 16.9253 203.153 16.636C202.64 16.3373 202.229 15.9127 201.921 15.362C201.623 14.802 201.473 14.1207 201.473 13.318C201.473 12.5153 201.623 11.8387 201.921 11.288C202.22 10.728 202.626 10.3033 203.139 10.014C203.653 9.72467 204.231 9.58 204.875 9.58C205.575 9.58 206.201 9.73867 206.751 10.056C207.311 10.364 207.75 10.8027 208.067 11.372C208.385 11.932 208.543 12.5807 208.543 13.318C208.543 14.0647 208.385 14.718 208.067 15.278C207.75 15.838 207.311 16.2767 206.751 16.594C206.201 16.9113 205.575 17.07 204.875 17.07ZM201.081 19.716V9.65H202.033V11.862L201.935 13.332L202.075 14.816V19.716H201.081ZM204.805 16.188C205.328 16.188 205.795 16.0713 206.205 15.838C206.616 15.5953 206.943 15.2593 207.185 14.83C207.428 14.3913 207.549 13.8873 207.549 13.318C207.549 12.7487 207.428 12.2493 207.185 11.82C206.943 11.3907 206.616 11.0547 206.205 10.812C205.795 10.5693 205.328 10.448 204.805 10.448C204.283 10.448 203.811 10.5693 203.391 10.812C202.981 11.0547 202.654 11.3907 202.411 11.82C202.178 12.2493 202.061 12.7487 202.061 13.318C202.061 13.8873 202.178 14.3913 202.411 14.83C202.654 15.2593 202.981 15.5953 203.391 15.838C203.811 16.0713 204.283 16.188 204.805 16.188ZM210.57 17V9.65H211.522V11.652L211.424 11.302C211.629 10.742 211.974 10.3173 212.46 10.028C212.945 9.72933 213.547 9.58 214.266 9.58V10.546C214.228 10.546 214.191 10.546 214.154 10.546C214.116 10.5367 214.079 10.532 214.042 10.532C213.267 10.532 212.66 10.77 212.222 11.246C211.783 11.7127 211.564 12.38 211.564 13.248V17H210.57ZM216.079 17V9.65H217.073V17H216.079ZM216.583 8.026C216.378 8.026 216.205 7.956 216.065 7.816C215.925 7.676 215.855 7.508 215.855 7.312C215.855 7.116 215.925 6.95267 216.065 6.822C216.205 6.682 216.378 6.612 216.583 6.612C216.789 6.612 216.961 6.67733 217.101 6.808C217.241 6.93867 217.311 7.102 217.311 7.298C217.311 7.50333 217.241 7.676 217.101 7.816C216.971 7.956 216.798 8.026 216.583 8.026ZM222.891 17.07C222.163 17.07 221.51 16.9113 220.931 16.594C220.362 16.2673 219.914 15.824 219.587 15.264C219.26 14.6947 219.097 14.046 219.097 13.318C219.097 12.5807 219.26 11.932 219.587 11.372C219.914 10.812 220.362 10.3733 220.931 10.056C221.51 9.73867 222.163 9.58 222.891 9.58C223.516 9.58 224.081 9.70133 224.585 9.944C225.089 10.1867 225.486 10.5507 225.775 11.036L225.033 11.54C224.781 11.1667 224.468 10.8913 224.095 10.714C223.722 10.5367 223.316 10.448 222.877 10.448C222.354 10.448 221.883 10.5693 221.463 10.812C221.043 11.0453 220.712 11.3767 220.469 11.806C220.226 12.2353 220.105 12.7393 220.105 13.318C220.105 13.8967 220.226 14.4007 220.469 14.83C220.712 15.2593 221.043 15.5953 221.463 15.838C221.883 16.0713 222.354 16.188 222.877 16.188C223.316 16.188 223.722 16.0993 224.095 15.922C224.468 15.7447 224.781 15.474 225.033 15.11L225.775 15.614C225.486 16.09 225.089 16.454 224.585 16.706C224.081 16.9487 223.516 17.07 222.891 17.07ZM230.727 17.07C229.961 17.07 229.289 16.9113 228.711 16.594C228.132 16.2673 227.679 15.824 227.353 15.264C227.026 14.6947 226.863 14.046 226.863 13.318C226.863 12.59 227.017 11.946 227.325 11.386C227.642 10.826 228.071 10.3873 228.613 10.07C229.163 9.74333 229.779 9.58 230.461 9.58C231.151 9.58 231.763 9.73867 232.295 10.056C232.836 10.364 233.261 10.8027 233.569 11.372C233.877 11.932 234.031 12.5807 234.031 13.318C234.031 13.3647 234.026 13.416 234.017 13.472C234.017 13.5187 234.017 13.57 234.017 13.626H227.619V12.884H233.485L233.093 13.178C233.093 12.646 232.976 12.1747 232.743 11.764C232.519 11.344 232.211 11.0173 231.819 10.784C231.427 10.5507 230.974 10.434 230.461 10.434C229.957 10.434 229.504 10.5507 229.103 10.784C228.701 11.0173 228.389 11.344 228.165 11.764C227.941 12.184 227.829 12.6647 227.829 13.206V13.36C227.829 13.92 227.95 14.4147 228.193 14.844C228.445 15.264 228.79 15.5953 229.229 15.838C229.677 16.0713 230.185 16.188 230.755 16.188C231.203 16.188 231.618 16.1087 232.001 15.95C232.393 15.7913 232.729 15.5487 233.009 15.222L233.569 15.866C233.242 16.258 232.831 16.5567 232.337 16.762C231.851 16.9673 231.315 17.07 230.727 17.07Z" fill="#BC0051"/>
</svg>
