<svg width="688" height="375" viewBox="0 0 688 375" fill="none" xmlns="http://www.w3.org/2000/svg">
<rect x="686" y="349" width="20" height="320" transform="rotate(180 686 349)" fill="#BC0051"/>
<rect x="659" y="349" width="20" height="266" transform="rotate(180 659 349)" fill="#214B33"/>
<rect x="632" y="349" width="20" height="254" transform="rotate(180 632 349)" fill="#A2C33D" fill-opacity="0.4"/>
<rect x="605" y="349" width="20" height="248" transform="rotate(180 605 349)" fill="#A2C33D" fill-opacity="0.4"/>
<rect x="578" y="349" width="20" height="240" transform="rotate(180 578 349)" fill="#A2C33D" fill-opacity="0.4"/>
<rect x="551" y="349" width="20" height="226" transform="rotate(180 551 349)" fill="#A2C33D" fill-opacity="0.4"/>
<rect x="524" y="349" width="20" height="220" transform="rotate(180 524 349)" fill="#A2C33D" fill-opacity="0.4"/>
<rect x="497" y="349" width="20" height="200" transform="rotate(180 497 349)" fill="#A2C33D" fill-opacity="0.4"/>
<rect x="470" y="349" width="20" height="196" transform="rotate(180 470 349)" fill="#A2C33D" fill-opacity="0.4"/>
<rect x="443" y="349" width="20" height="184" transform="rotate(180 443 349)" fill="#A2C33D" fill-opacity="0.4"/>
<rect x="416" y="349" width="20" height="184" transform="rotate(180 416 349)" fill="#A2C33D" fill-opacity="0.4"/>
<rect x="389" y="349" width="20" height="176" transform="rotate(180 389 349)" fill="#A2C33D" fill-opacity="0.4"/>
<rect x="362" y="349" width="20" height="172" transform="rotate(180 362 349)" fill="#A2C33D" fill-opacity="0.4"/>
<rect x="335" y="349" width="20" height="172" transform="rotate(180 335 349)" fill="#A2C33D" fill-opacity="0.4"/>
<rect x="308" y="349" width="20" height="152" transform="rotate(180 308 349)" fill="#A2C33D" fill-opacity="0.4"/>
<rect x="281" y="349" width="20" height="144" transform="rotate(180 281 349)" fill="#A2C33D" fill-opacity="0.4"/>
<rect x="254" y="349" width="20" height="140" transform="rotate(180 254 349)" fill="#A2C33D" fill-opacity="0.4"/>
<rect x="227" y="349" width="20" height="126" transform="rotate(180 227 349)" fill="#A2C33D" fill-opacity="0.4"/>
<rect x="200" y="349" width="20" height="120" transform="rotate(180 200 349)" fill="#A2C33D" fill-opacity="0.4"/>
<rect x="173" y="349" width="20" height="100" transform="rotate(180 173 349)" fill="#A2C33D"/>
<path d="M163 84V248.5" stroke="#A2C33D" stroke-width="20" stroke-dasharray="10 10"/>
<path d="M14.328 254L7.872 245.624L9.312 244.76L16.368 254H14.328ZM2.832 254V237.2H4.56V254H2.832ZM4.032 246.296V244.736H9.288V246.296H4.032ZM9.456 245.792L7.824 245.504L14.088 237.2H16.008L9.456 245.792ZM18.9056 258.776C18.3136 258.776 17.7456 258.68 17.2016 258.488C16.6736 258.296 16.2176 258.008 15.8336 257.624L16.6256 256.352C16.9456 256.656 17.2896 256.888 17.6576 257.048C18.0416 257.224 18.4656 257.312 18.9296 257.312C19.4896 257.312 19.9696 257.152 20.3696 256.832C20.7856 256.528 21.1776 255.984 21.5456 255.2L22.3616 253.352L22.5536 253.088L27.7376 241.4H29.4176L23.1056 255.512C22.7536 256.328 22.3616 256.976 21.9296 257.456C21.5136 257.936 21.0576 258.272 20.5616 258.464C20.0656 258.672 19.5136 258.776 18.9056 258.776ZM22.2656 254.36L16.4576 241.4H18.2336L23.3696 252.968L22.2656 254.36ZM32.0724 254V241.4H43.4004V254H41.6964V242.432L42.1284 242.888H33.3444L33.7764 242.432V254H32.0724ZM48.4603 258.776C47.8683 258.776 47.3003 258.68 46.7563 258.488C46.2283 258.296 45.7723 258.008 45.3883 257.624L46.1803 256.352C46.5003 256.656 46.8443 256.888 47.2123 257.048C47.5963 257.224 48.0203 257.312 48.4843 257.312C49.0443 257.312 49.5243 257.152 49.9243 256.832C50.3403 256.528 50.7323 255.984 51.1003 255.2L51.9163 253.352L52.1083 253.088L57.2923 241.4H58.9723L52.6603 255.512C52.3083 256.328 51.9163 256.976 51.4843 257.456C51.0683 257.936 50.6123 258.272 50.1163 258.464C49.6203 258.672 49.0683 258.776 48.4603 258.776ZM51.8203 254.36L46.0123 241.4H47.7883L52.9243 252.968L51.8203 254.36ZM68.4036 247.16V248.432H61.0836V247.16H68.4036ZM66.7236 254.12C65.4436 254.12 64.2996 253.848 63.2916 253.304C62.2836 252.744 61.4836 251.976 60.8916 251C60.3156 250.024 60.0276 248.92 60.0276 247.688C60.0276 246.44 60.3156 245.336 60.8916 244.376C61.4836 243.4 62.2836 242.64 63.2916 242.096C64.2996 241.536 65.4436 241.256 66.7236 241.256C67.7636 241.256 68.7236 241.416 69.6036 241.736C70.4836 242.056 71.2276 242.536 71.8356 243.176L70.8516 244.16C70.2916 243.648 69.6676 243.272 68.9796 243.032C68.3076 242.792 67.5716 242.672 66.7716 242.672C65.7956 242.672 64.9156 242.888 64.1316 243.32C63.3636 243.752 62.7476 244.352 62.2836 245.12C61.8356 245.872 61.6116 246.728 61.6116 247.688C61.6116 248.664 61.8356 249.528 62.2836 250.28C62.7476 251.032 63.3636 251.632 64.1316 252.08C64.9156 252.512 65.7956 252.728 66.7716 252.728C67.5716 252.728 68.3076 252.608 68.9796 252.368C69.6676 252.112 70.2916 251.72 70.8516 251.192L71.8356 252.176C71.2276 252.816 70.4836 253.304 69.6036 253.64C68.7236 253.96 67.7636 254.12 66.7236 254.12ZM77.1756 254V242.432L77.6076 242.888H72.3996V241.4H83.6556V242.888H78.4476L78.8796 242.432V254H77.1756ZM90.9334 254.12C89.6214 254.12 88.4694 253.848 87.4774 253.304C86.4854 252.744 85.7094 251.984 85.1494 251.024C84.5894 250.048 84.3094 248.936 84.3094 247.688C84.3094 246.44 84.5734 245.336 85.1014 244.376C85.6454 243.416 86.3814 242.664 87.3094 242.12C88.2534 241.56 89.3094 241.28 90.4774 241.28C91.6614 241.28 92.7094 241.552 93.6214 242.096C94.5494 242.624 95.2774 243.376 95.8054 244.352C96.3334 245.312 96.5974 246.424 96.5974 247.688C96.5974 247.768 96.5894 247.856 96.5734 247.952C96.5734 248.032 96.5734 248.12 96.5734 248.216H85.6054V246.944H95.6614L94.9894 247.448C94.9894 246.536 94.7894 245.728 94.3894 245.024C94.0054 244.304 93.4774 243.744 92.8054 243.344C92.1334 242.944 91.3574 242.744 90.4774 242.744C89.6134 242.744 88.8374 242.944 88.1494 243.344C87.4614 243.744 86.9254 244.304 86.5414 245.024C86.1574 245.744 85.9654 246.568 85.9654 247.496V247.76C85.9654 248.72 86.1734 249.568 86.5894 250.304C87.0214 251.024 87.6134 251.592 88.3654 252.008C89.1334 252.408 90.0054 252.608 90.9814 252.608C91.7494 252.608 92.4614 252.472 93.1174 252.2C93.7894 251.928 94.3654 251.512 94.8454 250.952L95.8054 252.056C95.2454 252.728 94.5414 253.24 93.6934 253.592C92.8614 253.944 91.9414 254.12 90.9334 254.12ZM9.504 286.144C9.504 286.144 9.472 286.144 9.408 286.144C9.344 286.144 9.28 286.144 9.216 286.144C9.168 286.144 9.128 286.144 9.096 286.144C6.6 286.128 4.656 285.56 3.264 284.44C1.872 283.32 1.176 281.728 1.176 279.664C1.176 277.632 1.872 276.064 3.264 274.96C4.672 273.84 6.648 273.272 9.192 273.256C9.208 273.256 9.24 273.256 9.288 273.256C9.352 273.256 9.408 273.256 9.456 273.256C9.504 273.256 9.536 273.256 9.552 273.256C12.112 273.272 14.104 273.84 15.528 274.96C16.952 276.064 17.664 277.632 17.664 279.664C17.664 281.744 16.944 283.344 15.504 284.464C14.08 285.584 12.08 286.144 9.504 286.144ZM9.48 284.656C10.904 284.656 12.096 284.464 13.056 284.08C14.016 283.68 14.744 283.112 15.24 282.376C15.736 281.64 15.984 280.736 15.984 279.664C15.984 278.624 15.736 277.744 15.24 277.024C14.744 276.288 14.016 275.728 13.056 275.344C12.096 274.96 10.904 274.768 9.48 274.768C9.464 274.768 9.416 274.768 9.336 274.768C9.272 274.768 9.232 274.768 9.216 274.768C7.824 274.768 6.656 274.968 5.712 275.368C4.768 275.752 4.056 276.304 3.576 277.024C3.096 277.744 2.856 278.624 2.856 279.664C2.856 280.72 3.096 281.616 3.576 282.352C4.072 283.088 4.792 283.656 5.736 284.056C6.68 284.44 7.84 284.64 9.216 284.656C9.248 284.656 9.296 284.656 9.36 284.656C9.424 284.656 9.464 284.656 9.48 284.656ZM8.568 290.656V268.192H10.224V290.656H8.568ZM20.2682 275.536L20.1482 269.2H21.6602L21.5402 275.536H20.2682ZM25.7678 286V273.4H27.4718V278.824H31.3118V280.384H27.4718V286H25.7678ZM36.6158 286.12C35.4158 286.12 34.3358 285.848 33.3758 285.304C32.4318 284.744 31.6878 283.984 31.1438 283.024C30.5998 282.048 30.3278 280.936 30.3278 279.688C30.3278 278.424 30.5998 277.312 31.1438 276.352C31.6878 275.392 32.4318 274.64 33.3758 274.096C34.3358 273.552 35.4158 273.28 36.6158 273.28C37.8158 273.28 38.8878 273.552 39.8318 274.096C40.7758 274.64 41.5198 275.392 42.0638 276.352C42.6078 277.312 42.8798 278.424 42.8798 279.688C42.8798 280.936 42.6078 282.048 42.0638 283.024C41.5198 283.984 40.7758 284.744 39.8318 285.304C38.8878 285.848 37.8158 286.12 36.6158 286.12ZM36.6158 284.632C37.4958 284.632 38.2798 284.424 38.9678 284.008C39.6558 283.592 40.1998 283.016 40.5998 282.28C40.9998 281.528 41.1998 280.664 41.1998 279.688C41.1998 278.696 40.9998 277.832 40.5998 277.096C40.1998 276.36 39.6558 275.792 38.9678 275.392C38.2798 274.976 37.4958 274.768 36.6158 274.768C35.7518 274.768 34.9678 274.976 34.2638 275.392C33.5758 275.792 33.0318 276.36 32.6318 277.096C32.2318 277.832 32.0318 278.696 32.0318 279.688C32.0318 280.664 32.2318 281.528 32.6318 282.28C33.0318 283.016 33.5758 283.592 34.2638 284.008C34.9678 284.424 35.7518 284.632 36.6158 284.632ZM54.5014 280.672C53.7654 280.992 53.0214 281.248 52.2694 281.44C51.5334 281.616 50.7974 281.704 50.0614 281.704C48.5734 281.704 47.3974 281.368 46.5334 280.696C45.6694 280.008 45.2374 278.952 45.2374 277.528V273.4H46.9174V277.432C46.9174 278.392 47.2294 279.112 47.8534 279.592C48.4774 280.072 49.3174 280.312 50.3734 280.312C51.0134 280.312 51.6854 280.232 52.3894 280.072C53.0934 279.896 53.8054 279.648 54.5254 279.328L54.5014 280.672ZM54.3574 286V273.4H56.0614V286H54.3574ZM66.3006 286.12C64.9886 286.12 63.8366 285.848 62.8446 285.304C61.8526 284.744 61.0766 283.984 60.5166 283.024C59.9566 282.048 59.6766 280.936 59.6766 279.688C59.6766 278.44 59.9406 277.336 60.4686 276.376C61.0126 275.416 61.7486 274.664 62.6766 274.12C63.6206 273.56 64.6766 273.28 65.8446 273.28C67.0286 273.28 68.0766 273.552 68.9886 274.096C69.9166 274.624 70.6446 275.376 71.1726 276.352C71.7006 277.312 71.9646 278.424 71.9646 279.688C71.9646 279.768 71.9566 279.856 71.9406 279.952C71.9406 280.032 71.9406 280.12 71.9406 280.216H60.9726V278.944H71.0286L70.3566 279.448C70.3566 278.536 70.1566 277.728 69.7566 277.024C69.3726 276.304 68.8446 275.744 68.1726 275.344C67.5006 274.944 66.7246 274.744 65.8446 274.744C64.9806 274.744 64.2046 274.944 63.5166 275.344C62.8286 275.744 62.2926 276.304 61.9086 277.024C61.5246 277.744 61.3326 278.568 61.3326 279.496V279.76C61.3326 280.72 61.5406 281.568 61.9566 282.304C62.3886 283.024 62.9806 283.592 63.7326 284.008C64.5006 284.408 65.3726 284.608 66.3486 284.608C67.1166 284.608 67.8286 284.472 68.4846 284.2C69.1566 283.928 69.7326 283.512 70.2126 282.952L71.1726 284.056C70.6126 284.728 69.9086 285.24 69.0606 285.592C68.2286 285.944 67.3086 286.12 66.3006 286.12ZM82.2405 286.12C81.1525 286.12 80.1685 285.872 79.2885 285.376C78.4085 284.864 77.7045 284.136 77.1765 283.192C76.6645 282.232 76.4085 281.064 76.4085 279.688C76.4085 278.312 76.6645 277.152 77.1765 276.208C77.6885 275.248 78.3845 274.52 79.2645 274.024C80.1445 273.528 81.1365 273.28 82.2405 273.28C83.4405 273.28 84.5125 273.552 85.4565 274.096C86.4165 274.624 87.1685 275.376 87.7125 276.352C88.2565 277.312 88.5285 278.424 88.5285 279.688C88.5285 280.968 88.2565 282.088 87.7125 283.048C87.1685 284.008 86.4165 284.76 85.4565 285.304C84.5125 285.848 83.4405 286.12 82.2405 286.12ZM75.7365 290.656V273.4H77.3685V277.192L77.2005 279.712L77.4405 282.256V290.656H75.7365ZM82.1205 284.608C83.0165 284.608 83.8165 284.408 84.5205 284.008C85.2245 283.592 85.7845 283.016 86.2005 282.28C86.6165 281.528 86.8245 280.664 86.8245 279.688C86.8245 278.712 86.6165 277.856 86.2005 277.12C85.7845 276.384 85.2245 275.808 84.5205 275.392C83.8165 274.976 83.0165 274.768 82.1205 274.768C81.2245 274.768 80.4165 274.976 79.6965 275.392C78.9925 275.808 78.4325 276.384 78.0165 277.12C77.6165 277.856 77.4165 278.712 77.4165 279.688C77.4165 280.664 77.6165 281.528 78.0165 282.28C78.4325 283.016 78.9925 283.592 79.6965 284.008C80.4165 284.408 81.2245 284.608 82.1205 284.608ZM97.4696 286.12C96.2216 286.12 95.1016 285.848 94.1096 285.304C93.1336 284.744 92.3656 283.984 91.8056 283.024C91.2456 282.048 90.9656 280.936 90.9656 279.688C90.9656 278.424 91.2456 277.312 91.8056 276.352C92.3656 275.392 93.1336 274.64 94.1096 274.096C95.1016 273.552 96.2216 273.28 97.4696 273.28C98.5416 273.28 99.5096 273.488 100.374 273.904C101.238 274.32 101.918 274.944 102.414 275.776L101.142 276.64C100.71 276 100.174 275.528 99.5336 275.224C98.8936 274.92 98.1976 274.768 97.4456 274.768C96.5496 274.768 95.7416 274.976 95.0216 275.392C94.3016 275.792 93.7336 276.36 93.3176 277.096C92.9016 277.832 92.6936 278.696 92.6936 279.688C92.6936 280.68 92.9016 281.544 93.3176 282.28C93.7336 283.016 94.3016 283.592 95.0216 284.008C95.7416 284.408 96.5496 284.608 97.4456 284.608C98.1976 284.608 98.8936 284.456 99.5336 284.152C100.174 283.848 100.71 283.384 101.142 282.76L102.414 283.624C101.918 284.44 101.238 285.064 100.374 285.496C99.5096 285.912 98.5416 286.12 97.4696 286.12ZM115.378 286.144C114.466 286.144 113.562 286.016 112.666 285.76C111.77 285.504 110.978 285.112 110.29 284.584L110.842 283.312C111.45 283.76 112.154 284.104 112.954 284.344C113.754 284.568 114.546 284.68 115.33 284.68C116.114 284.664 116.794 284.552 117.37 284.344C117.946 284.136 118.394 283.848 118.714 283.48C119.034 283.112 119.194 282.696 119.194 282.232C119.194 281.56 118.89 281.04 118.282 280.672C117.674 280.288 116.842 280.096 115.786 280.096H113.626V278.848H115.666C116.29 278.848 116.842 278.768 117.322 278.608C117.802 278.448 118.17 278.216 118.426 277.912C118.698 277.608 118.834 277.248 118.834 276.832C118.834 276.384 118.674 276 118.354 275.68C118.05 275.36 117.626 275.12 117.082 274.96C116.538 274.8 115.922 274.72 115.234 274.72C114.61 274.736 113.962 274.832 113.29 275.008C112.618 275.168 111.954 275.416 111.298 275.752L110.818 274.432C111.554 274.048 112.282 273.76 113.002 273.568C113.738 273.36 114.474 273.256 115.21 273.256C116.218 273.224 117.122 273.344 117.922 273.616C118.738 273.888 119.386 274.28 119.866 274.792C120.346 275.288 120.586 275.888 120.586 276.592C120.586 277.216 120.394 277.76 120.01 278.224C119.626 278.688 119.114 279.048 118.474 279.304C117.834 279.56 117.106 279.688 116.29 279.688L116.362 279.232C117.802 279.232 118.922 279.512 119.722 280.072C120.538 280.632 120.946 281.392 120.946 282.352C120.946 283.104 120.698 283.768 120.202 284.344C119.706 284.904 119.034 285.344 118.186 285.664C117.354 285.984 116.418 286.144 115.378 286.144ZM132.639 286V283.216L132.567 282.76V278.104C132.567 277.032 132.263 276.208 131.655 275.632C131.063 275.056 130.175 274.768 128.991 274.768C128.175 274.768 127.399 274.904 126.663 275.176C125.927 275.448 125.303 275.808 124.791 276.256L124.023 274.984C124.663 274.44 125.431 274.024 126.327 273.736C127.223 273.432 128.167 273.28 129.159 273.28C130.791 273.28 132.047 273.688 132.927 274.504C133.823 275.304 134.271 276.528 134.271 278.176V286H132.639ZM128.295 286.12C127.351 286.12 126.527 285.968 125.823 285.664C125.135 285.344 124.607 284.912 124.239 284.368C123.871 283.808 123.687 283.168 123.687 282.448C123.687 281.792 123.839 281.2 124.143 280.672C124.463 280.128 124.975 279.696 125.679 279.376C126.399 279.04 127.359 278.872 128.559 278.872H132.903V280.144H128.607C127.391 280.144 126.543 280.36 126.063 280.792C125.599 281.224 125.367 281.76 125.367 282.4C125.367 283.12 125.647 283.696 126.207 284.128C126.767 284.56 127.551 284.776 128.559 284.776C129.519 284.776 130.343 284.56 131.031 284.128C131.735 283.68 132.247 283.04 132.567 282.208L132.951 283.384C132.631 284.216 132.071 284.88 131.271 285.376C130.487 285.872 129.495 286.12 128.295 286.12ZM2.424 318V305.4H4.128V316.512H11.832V305.4H13.536V318H2.424ZM13.968 321.048V317.856L14.4 318H11.832V316.512H15.576V321.048H13.968ZM18.8303 318V305.4H20.5343V318H18.8303ZM19.6943 302.616C19.3423 302.616 19.0463 302.496 18.8063 302.256C18.5663 302.016 18.4463 301.728 18.4463 301.392C18.4463 301.056 18.5663 300.776 18.8063 300.552C19.0463 300.312 19.3423 300.192 19.6943 300.192C20.0463 300.192 20.3423 300.304 20.5823 300.528C20.8223 300.752 20.9423 301.032 20.9423 301.368C20.9423 301.72 20.8223 302.016 20.5823 302.256C20.3583 302.496 20.0623 302.616 19.6943 302.616ZM32.5208 311.16V312.432H25.2008V311.16H32.5208ZM30.8408 318.12C29.5608 318.12 28.4168 317.848 27.4088 317.304C26.4008 316.744 25.6008 315.976 25.0088 315C24.4328 314.024 24.1448 312.92 24.1448 311.688C24.1448 310.44 24.4328 309.336 25.0088 308.376C25.6008 307.4 26.4008 306.64 27.4088 306.096C28.4168 305.536 29.5608 305.256 30.8408 305.256C31.8808 305.256 32.8408 305.416 33.7208 305.736C34.6008 306.056 35.3448 306.536 35.9528 307.176L34.9688 308.16C34.4088 307.648 33.7848 307.272 33.0968 307.032C32.4248 306.792 31.6888 306.672 30.8888 306.672C29.9128 306.672 29.0328 306.888 28.2488 307.32C27.4808 307.752 26.8648 308.352 26.4008 309.12C25.9528 309.872 25.7288 310.728 25.7288 311.688C25.7288 312.664 25.9528 313.528 26.4008 314.28C26.8648 315.032 27.4808 315.632 28.2488 316.08C29.0328 316.512 29.9128 316.728 30.8888 316.728C31.6888 316.728 32.4248 316.608 33.0968 316.368C33.7848 316.112 34.4088 315.72 34.9688 315.192L35.9528 316.176C35.3448 316.816 34.6008 317.304 33.7208 317.64C32.8408 317.96 31.8808 318.12 30.8408 318.12ZM39.1271 318V305.4H40.8311V310.824H44.6711V312.384H40.8311V318H39.1271ZM49.9751 318.12C48.7751 318.12 47.6951 317.848 46.7351 317.304C45.7911 316.744 45.0471 315.984 44.5031 315.024C43.9591 314.048 43.6871 312.936 43.6871 311.688C43.6871 310.424 43.9591 309.312 44.5031 308.352C45.0471 307.392 45.7911 306.64 46.7351 306.096C47.6951 305.552 48.7751 305.28 49.9751 305.28C51.1751 305.28 52.2471 305.552 53.1911 306.096C54.1351 306.64 54.8791 307.392 55.4231 308.352C55.9671 309.312 56.2391 310.424 56.2391 311.688C56.2391 312.936 55.9671 314.048 55.4231 315.024C54.8791 315.984 54.1351 316.744 53.1911 317.304C52.2471 317.848 51.1751 318.12 49.9751 318.12ZM49.9751 316.632C50.8551 316.632 51.6391 316.424 52.3271 316.008C53.0151 315.592 53.5591 315.016 53.9591 314.28C54.3591 313.528 54.5591 312.664 54.5591 311.688C54.5591 310.696 54.3591 309.832 53.9591 309.096C53.5591 308.36 53.0151 307.792 52.3271 307.392C51.6391 306.976 50.8551 306.768 49.9751 306.768C49.1111 306.768 48.3271 306.976 47.6231 307.392C46.9351 307.792 46.3911 308.36 45.9911 309.096C45.5911 309.832 45.3911 310.696 45.3911 311.688C45.3911 312.664 45.5911 313.528 45.9911 314.28C46.3911 315.016 46.9351 315.592 47.6231 316.008C48.3271 316.424 49.1111 316.632 49.9751 316.632ZM66.174 318V305.4H67.878V316.512H75.582V305.4H77.286V318H66.174ZM77.718 321.048V317.856L78.15 318H75.582V316.512H79.326V321.048H77.718ZM82.5803 318V305.4H84.2843V318H82.5803ZM83.4443 302.616C83.0923 302.616 82.7963 302.496 82.5563 302.256C82.3163 302.016 82.1963 301.728 82.1963 301.392C82.1963 301.056 82.3163 300.776 82.5563 300.552C82.7963 300.312 83.0923 300.192 83.4443 300.192C83.7963 300.192 84.0923 300.304 84.3323 300.528C84.5723 300.752 84.6923 301.032 84.6923 301.368C84.6923 301.72 84.5723 302.016 84.3323 302.256C84.1083 302.496 83.8123 302.616 83.4443 302.616ZM89.1428 318V305.4H90.8468V310.968H98.7908V305.4H100.495V318H98.7908V312.432H90.8468V318H89.1428ZM110.522 318.12C109.306 318.12 108.21 317.848 107.234 317.304C106.274 316.744 105.514 315.984 104.954 315.024C104.394 314.048 104.114 312.936 104.114 311.688C104.114 310.424 104.394 309.312 104.954 308.352C105.514 307.392 106.274 306.64 107.234 306.096C108.194 305.552 109.29 305.28 110.522 305.28C111.77 305.28 112.874 305.552 113.834 306.096C114.81 306.64 115.57 307.392 116.114 308.352C116.674 309.312 116.954 310.424 116.954 311.688C116.954 312.936 116.674 314.048 116.114 315.024C115.57 315.984 114.81 316.744 113.834 317.304C112.858 317.848 111.754 318.12 110.522 318.12ZM110.522 316.608C111.434 316.608 112.242 316.408 112.946 316.008C113.65 315.592 114.202 315.016 114.602 314.28C115.018 313.528 115.226 312.664 115.226 311.688C115.226 310.696 115.018 309.832 114.602 309.096C114.202 308.36 113.65 307.792 112.946 307.392C112.242 306.976 111.442 306.768 110.546 306.768C109.65 306.768 108.85 306.976 108.146 307.392C107.442 307.792 106.882 308.36 106.466 309.096C106.05 309.832 105.842 310.696 105.842 311.688C105.842 312.664 106.05 313.528 106.466 314.28C106.882 315.016 107.442 315.592 108.146 316.008C108.85 316.408 109.642 316.608 110.522 316.608ZM120.596 318V305.4H122.3V310.824H126.14V312.384H122.3V318H120.596ZM131.444 318.12C130.244 318.12 129.164 317.848 128.204 317.304C127.26 316.744 126.516 315.984 125.972 315.024C125.428 314.048 125.156 312.936 125.156 311.688C125.156 310.424 125.428 309.312 125.972 308.352C126.516 307.392 127.26 306.64 128.204 306.096C129.164 305.552 130.244 305.28 131.444 305.28C132.644 305.28 133.716 305.552 134.66 306.096C135.604 306.64 136.348 307.392 136.892 308.352C137.436 309.312 137.708 310.424 137.708 311.688C137.708 312.936 137.436 314.048 136.892 315.024C136.348 315.984 135.604 316.744 134.66 317.304C133.716 317.848 132.644 318.12 131.444 318.12ZM131.444 316.632C132.324 316.632 133.108 316.424 133.796 316.008C134.484 315.592 135.028 315.016 135.428 314.28C135.828 313.528 136.028 312.664 136.028 311.688C136.028 310.696 135.828 309.832 135.428 309.096C135.028 308.36 134.484 307.792 133.796 307.392C133.108 306.976 132.324 306.768 131.444 306.768C130.58 306.768 129.796 306.976 129.092 307.392C128.404 307.792 127.86 308.36 127.46 309.096C127.06 309.832 126.86 310.696 126.86 311.688C126.86 312.664 127.06 313.528 127.46 314.28C127.86 315.016 128.404 315.592 129.092 316.008C129.796 316.424 130.58 316.632 131.444 316.632Z" fill="#A2C33D"/>
<path d="M116 249H156" stroke="#A2C33D"/>
<path d="M330 83H660" stroke="#214B33"/>
<path d="M2.832 82V65.2H9.816C11.592 65.2 12.984 65.568 13.992 66.304C15.016 67.024 15.528 68.088 15.528 69.496C15.528 70.888 15.04 71.944 14.064 72.664C13.088 73.368 11.808 73.72 10.224 73.72L10.632 73.12C12.504 73.12 13.928 73.488 14.904 74.224C15.88 74.96 16.368 76.04 16.368 77.464C16.368 78.904 15.856 80.024 14.832 80.824C13.824 81.608 12.304 82 10.272 82H2.832ZM4.584 80.584H10.272C11.696 80.584 12.776 80.32 13.512 79.792C14.248 79.264 14.616 78.448 14.616 77.344C14.616 76.256 14.248 75.456 13.512 74.944C12.776 74.432 11.696 74.176 10.272 74.176H4.584V80.584ZM4.584 72.808H9.72C11.016 72.808 12.008 72.552 12.696 72.04C13.4 71.512 13.752 70.736 13.752 69.712C13.752 68.688 13.4 67.92 12.696 67.408C12.008 66.88 11.016 66.616 9.72 66.616H4.584V72.808ZM20.4006 82V69.4H22.1046V79.408L30.5286 69.4H32.0406V82H30.3366V71.968L21.9366 82H20.4006ZM43.2053 82V69.4H54.5333V82H52.8293V70.432L53.2613 70.888H44.4773L44.9093 70.432V82H43.2053ZM65.8811 82.12C64.7931 82.12 63.8091 81.872 62.9291 81.376C62.0491 80.864 61.3451 80.136 60.8171 79.192C60.3051 78.232 60.0491 77.064 60.0491 75.688C60.0491 74.312 60.3051 73.152 60.8171 72.208C61.3291 71.248 62.0251 70.52 62.9051 70.024C63.7851 69.528 64.7771 69.28 65.8811 69.28C67.0811 69.28 68.1531 69.552 69.0971 70.096C70.0571 70.624 70.8091 71.376 71.3531 72.352C71.8971 73.312 72.1691 74.424 72.1691 75.688C72.1691 76.968 71.8971 78.088 71.3531 79.048C70.8091 80.008 70.0571 80.76 69.0971 81.304C68.1531 81.848 67.0811 82.12 65.8811 82.12ZM59.3771 86.656V69.4H61.0091V73.192L60.8411 75.712L61.0811 78.256V86.656H59.3771ZM65.7611 80.608C66.6571 80.608 67.4571 80.408 68.1611 80.008C68.8651 79.592 69.4251 79.016 69.8411 78.28C70.2571 77.528 70.4651 76.664 70.4651 75.688C70.4651 74.712 70.2571 73.856 69.8411 73.12C69.4251 72.384 68.8651 71.808 68.1611 71.392C67.4571 70.976 66.6571 70.768 65.7611 70.768C64.8651 70.768 64.0571 70.976 63.3371 71.392C62.6331 71.808 62.0731 72.384 61.6571 73.12C61.2571 73.856 61.0571 74.712 61.0571 75.688C61.0571 76.664 61.2571 77.528 61.6571 78.28C62.0731 79.016 62.6331 79.592 63.3371 80.008C64.0571 80.408 64.8651 80.608 65.7611 80.608ZM81.0143 82.12C79.7983 82.12 78.7023 81.848 77.7263 81.304C76.7663 80.744 76.0063 79.984 75.4463 79.024C74.8863 78.048 74.6063 76.936 74.6063 75.688C74.6063 74.424 74.8863 73.312 75.4463 72.352C76.0063 71.392 76.7663 70.64 77.7263 70.096C78.6863 69.552 79.7823 69.28 81.0143 69.28C82.2623 69.28 83.3663 69.552 84.3263 70.096C85.3023 70.64 86.0623 71.392 86.6063 72.352C87.1663 73.312 87.4463 74.424 87.4463 75.688C87.4463 76.936 87.1663 78.048 86.6063 79.024C86.0623 79.984 85.3023 80.744 84.3263 81.304C83.3503 81.848 82.2463 82.12 81.0143 82.12ZM81.0143 80.608C81.9263 80.608 82.7343 80.408 83.4383 80.008C84.1423 79.592 84.6943 79.016 85.0943 78.28C85.5103 77.528 85.7183 76.664 85.7183 75.688C85.7183 74.696 85.5103 73.832 85.0943 73.096C84.6943 72.36 84.1423 71.792 83.4383 71.392C82.7343 70.976 81.9343 70.768 81.0383 70.768C80.1423 70.768 79.3423 70.976 78.6383 71.392C77.9343 71.792 77.3743 72.36 76.9583 73.096C76.5423 73.832 76.3343 74.696 76.3343 75.688C76.3343 76.664 76.5423 77.528 76.9583 78.28C77.3743 79.016 77.9343 79.592 78.6383 80.008C79.3423 80.408 80.1343 80.608 81.0143 80.608ZM99.6578 81.184V70.888H93.5858L93.4418 73.696C93.4098 74.544 93.3538 75.376 93.2738 76.192C93.2098 77.008 93.0898 77.76 92.9138 78.448C92.7538 79.12 92.5218 79.672 92.2178 80.104C91.9138 80.52 91.5218 80.76 91.0418 80.824L89.3378 80.512C89.8338 80.528 90.2418 80.352 90.5618 79.984C90.8818 79.6 91.1298 79.08 91.3058 78.424C91.4818 77.768 91.6098 77.024 91.6898 76.192C91.7698 75.344 91.8338 74.48 91.8818 73.6L92.0498 69.4H101.362V81.184H99.6578ZM88.8098 85.048V80.512H103.33V85.048H101.722V82H90.4178V85.048H88.8098ZM114.475 82V79.216L114.403 78.76V74.104C114.403 73.032 114.099 72.208 113.491 71.632C112.899 71.056 112.011 70.768 110.827 70.768C110.011 70.768 109.235 70.904 108.499 71.176C107.763 71.448 107.139 71.808 106.627 72.256L105.859 70.984C106.499 70.44 107.267 70.024 108.163 69.736C109.059 69.432 110.003 69.28 110.995 69.28C112.627 69.28 113.883 69.688 114.763 70.504C115.659 71.304 116.107 72.528 116.107 74.176V82H114.475ZM110.131 82.12C109.187 82.12 108.363 81.968 107.659 81.664C106.971 81.344 106.443 80.912 106.075 80.368C105.707 79.808 105.523 79.168 105.523 78.448C105.523 77.792 105.675 77.2 105.979 76.672C106.299 76.128 106.811 75.696 107.515 75.376C108.235 75.04 109.195 74.872 110.395 74.872H114.739V76.144H110.443C109.227 76.144 108.379 76.36 107.899 76.792C107.435 77.224 107.203 77.76 107.203 78.4C107.203 79.12 107.483 79.696 108.043 80.128C108.603 80.56 109.387 80.776 110.395 80.776C111.355 80.776 112.179 80.56 112.867 80.128C113.571 79.68 114.083 79.04 114.403 78.208L114.787 79.384C114.467 80.216 113.907 80.88 113.107 81.376C112.323 81.872 111.331 82.12 110.131 82.12ZM127.771 75.16V76.432H120.451V75.16H127.771ZM126.091 82.12C124.811 82.12 123.667 81.848 122.659 81.304C121.651 80.744 120.851 79.976 120.259 79C119.683 78.024 119.395 76.92 119.395 75.688C119.395 74.44 119.683 73.336 120.259 72.376C120.851 71.4 121.651 70.64 122.659 70.096C123.667 69.536 124.811 69.256 126.091 69.256C127.131 69.256 128.091 69.416 128.971 69.736C129.851 70.056 130.595 70.536 131.203 71.176L130.219 72.16C129.659 71.648 129.035 71.272 128.347 71.032C127.675 70.792 126.939 70.672 126.139 70.672C125.163 70.672 124.283 70.888 123.499 71.32C122.731 71.752 122.115 72.352 121.651 73.12C121.203 73.872 120.979 74.728 120.979 75.688C120.979 76.664 121.203 77.528 121.651 78.28C122.115 79.032 122.731 79.632 123.499 80.08C124.283 80.512 125.163 80.728 126.139 80.728C126.939 80.728 127.675 80.608 128.347 80.368C129.035 80.112 129.659 79.72 130.219 79.192L131.203 80.176C130.595 80.816 129.851 81.304 128.971 81.64C128.091 81.96 127.131 82.12 126.091 82.12ZM136.543 82V70.432L136.975 70.888H131.767V69.4H143.023V70.888H137.815L138.247 70.432V82H136.543ZM150.301 82.12C148.989 82.12 147.837 81.848 146.845 81.304C145.853 80.744 145.077 79.984 144.517 79.024C143.957 78.048 143.677 76.936 143.677 75.688C143.677 74.44 143.941 73.336 144.469 72.376C145.013 71.416 145.749 70.664 146.677 70.12C147.621 69.56 148.677 69.28 149.845 69.28C151.029 69.28 152.077 69.552 152.989 70.096C153.917 70.624 154.645 71.376 155.173 72.352C155.701 73.312 155.965 74.424 155.965 75.688C155.965 75.768 155.957 75.856 155.941 75.952C155.941 76.032 155.941 76.12 155.941 76.216H144.973V74.944H155.029L154.357 75.448C154.357 74.536 154.157 73.728 153.757 73.024C153.373 72.304 152.845 71.744 152.173 71.344C151.501 70.944 150.725 70.744 149.845 70.744C148.981 70.744 148.205 70.944 147.517 71.344C146.829 71.744 146.293 72.304 145.909 73.024C145.525 73.744 145.333 74.568 145.333 75.496V75.76C145.333 76.72 145.541 77.568 145.957 78.304C146.389 79.024 146.981 79.592 147.733 80.008C148.501 80.408 149.373 80.608 150.349 80.608C151.117 80.608 151.829 80.472 152.485 80.2C153.157 79.928 153.733 79.512 154.213 78.952L155.173 80.056C154.613 80.728 153.909 81.24 153.061 81.592C152.229 81.944 151.309 82.12 150.301 82.12ZM173.098 82.144C173.098 82.144 173.066 82.144 173.002 82.144C172.938 82.144 172.874 82.144 172.81 82.144C172.762 82.144 172.722 82.144 172.69 82.144C170.194 82.128 168.25 81.56 166.858 80.44C165.466 79.32 164.77 77.728 164.77 75.664C164.77 73.632 165.466 72.064 166.858 70.96C168.266 69.84 170.242 69.272 172.786 69.256C172.802 69.256 172.834 69.256 172.882 69.256C172.946 69.256 173.002 69.256 173.05 69.256C173.098 69.256 173.13 69.256 173.146 69.256C175.706 69.272 177.698 69.84 179.122 70.96C180.546 72.064 181.258 73.632 181.258 75.664C181.258 77.744 180.538 79.344 179.098 80.464C177.674 81.584 175.674 82.144 173.098 82.144ZM173.074 80.656C174.498 80.656 175.69 80.464 176.65 80.08C177.61 79.68 178.338 79.112 178.834 78.376C179.33 77.64 179.578 76.736 179.578 75.664C179.578 74.624 179.33 73.744 178.834 73.024C178.338 72.288 177.61 71.728 176.65 71.344C175.69 70.96 174.498 70.768 173.074 70.768C173.058 70.768 173.01 70.768 172.93 70.768C172.866 70.768 172.826 70.768 172.81 70.768C171.418 70.768 170.25 70.968 169.306 71.368C168.362 71.752 167.65 72.304 167.17 73.024C166.69 73.744 166.45 74.624 166.45 75.664C166.45 76.72 166.69 77.616 167.17 78.352C167.666 79.088 168.386 79.656 169.33 80.056C170.274 80.44 171.434 80.64 172.81 80.656C172.842 80.656 172.89 80.656 172.954 80.656C173.018 80.656 173.058 80.656 173.074 80.656ZM172.162 86.656V64.192H173.818V86.656H172.162ZM183.862 71.536L183.742 65.2H185.254L185.134 71.536H183.862ZM189.362 82V69.4H191.066V74.824H194.906V76.384H191.066V82H189.362ZM200.21 82.12C199.01 82.12 197.93 81.848 196.97 81.304C196.026 80.744 195.282 79.984 194.738 79.024C194.194 78.048 193.922 76.936 193.922 75.688C193.922 74.424 194.194 73.312 194.738 72.352C195.282 71.392 196.026 70.64 196.97 70.096C197.93 69.552 199.01 69.28 200.21 69.28C201.41 69.28 202.482 69.552 203.426 70.096C204.37 70.64 205.114 71.392 205.658 72.352C206.202 73.312 206.474 74.424 206.474 75.688C206.474 76.936 206.202 78.048 205.658 79.024C205.114 79.984 204.37 80.744 203.426 81.304C202.482 81.848 201.41 82.12 200.21 82.12ZM200.21 80.632C201.09 80.632 201.874 80.424 202.562 80.008C203.25 79.592 203.794 79.016 204.194 78.28C204.594 77.528 204.794 76.664 204.794 75.688C204.794 74.696 204.594 73.832 204.194 73.096C203.794 72.36 203.25 71.792 202.562 71.392C201.874 70.976 201.09 70.768 200.21 70.768C199.346 70.768 198.562 70.976 197.858 71.392C197.17 71.792 196.626 72.36 196.226 73.096C195.826 73.832 195.626 74.696 195.626 75.688C195.626 76.664 195.826 77.528 196.226 78.28C196.626 79.016 197.17 79.592 197.858 80.008C198.562 80.424 199.346 80.632 200.21 80.632ZM218.095 76.672C217.359 76.992 216.615 77.248 215.863 77.44C215.127 77.616 214.391 77.704 213.655 77.704C212.167 77.704 210.991 77.368 210.127 76.696C209.263 76.008 208.831 74.952 208.831 73.528V69.4H210.511V73.432C210.511 74.392 210.823 75.112 211.447 75.592C212.071 76.072 212.911 76.312 213.967 76.312C214.607 76.312 215.279 76.232 215.983 76.072C216.687 75.896 217.399 75.648 218.119 75.328L218.095 76.672ZM217.951 82V69.4H219.655V82H217.951ZM229.894 82.12C228.582 82.12 227.43 81.848 226.438 81.304C225.446 80.744 224.67 79.984 224.11 79.024C223.55 78.048 223.27 76.936 223.27 75.688C223.27 74.44 223.534 73.336 224.062 72.376C224.606 71.416 225.342 70.664 226.27 70.12C227.214 69.56 228.27 69.28 229.438 69.28C230.622 69.28 231.67 69.552 232.582 70.096C233.51 70.624 234.238 71.376 234.766 72.352C235.294 73.312 235.558 74.424 235.558 75.688C235.558 75.768 235.55 75.856 235.534 75.952C235.534 76.032 235.534 76.12 235.534 76.216H224.566V74.944H234.622L233.95 75.448C233.95 74.536 233.75 73.728 233.35 73.024C232.966 72.304 232.438 71.744 231.766 71.344C231.094 70.944 230.318 70.744 229.438 70.744C228.574 70.744 227.798 70.944 227.11 71.344C226.422 71.744 225.886 72.304 225.502 73.024C225.118 73.744 224.926 74.568 224.926 75.496V75.76C224.926 76.72 225.134 77.568 225.55 78.304C225.982 79.024 226.574 79.592 227.326 80.008C228.094 80.408 228.966 80.608 229.942 80.608C230.71 80.608 231.422 80.472 232.078 80.2C232.75 79.928 233.326 79.512 233.806 78.952L234.766 80.056C234.206 80.728 233.502 81.24 232.654 81.592C231.822 81.944 230.902 82.12 229.894 82.12ZM245.834 82.12C244.746 82.12 243.762 81.872 242.882 81.376C242.002 80.864 241.298 80.136 240.77 79.192C240.258 78.232 240.002 77.064 240.002 75.688C240.002 74.312 240.258 73.152 240.77 72.208C241.282 71.248 241.978 70.52 242.858 70.024C243.738 69.528 244.73 69.28 245.834 69.28C247.034 69.28 248.106 69.552 249.05 70.096C250.01 70.624 250.762 71.376 251.306 72.352C251.85 73.312 252.122 74.424 252.122 75.688C252.122 76.968 251.85 78.088 251.306 79.048C250.762 80.008 250.01 80.76 249.05 81.304C248.106 81.848 247.034 82.12 245.834 82.12ZM239.33 86.656V69.4H240.962V73.192L240.794 75.712L241.034 78.256V86.656H239.33ZM245.714 80.608C246.61 80.608 247.41 80.408 248.114 80.008C248.818 79.592 249.378 79.016 249.794 78.28C250.21 77.528 250.418 76.664 250.418 75.688C250.418 74.712 250.21 73.856 249.794 73.12C249.378 72.384 248.818 71.808 248.114 71.392C247.41 70.976 246.61 70.768 245.714 70.768C244.818 70.768 244.01 70.976 243.29 71.392C242.586 71.808 242.026 72.384 241.61 73.12C241.21 73.856 241.01 74.712 241.01 75.688C241.01 76.664 241.21 77.528 241.61 78.28C242.026 79.016 242.586 79.592 243.29 80.008C244.01 80.408 244.818 80.608 245.714 80.608ZM261.063 82.12C259.815 82.12 258.695 81.848 257.703 81.304C256.727 80.744 255.959 79.984 255.399 79.024C254.839 78.048 254.559 76.936 254.559 75.688C254.559 74.424 254.839 73.312 255.399 72.352C255.959 71.392 256.727 70.64 257.703 70.096C258.695 69.552 259.815 69.28 261.063 69.28C262.135 69.28 263.103 69.488 263.967 69.904C264.831 70.32 265.511 70.944 266.007 71.776L264.735 72.64C264.303 72 263.767 71.528 263.127 71.224C262.487 70.92 261.791 70.768 261.039 70.768C260.143 70.768 259.335 70.976 258.615 71.392C257.895 71.792 257.327 72.36 256.911 73.096C256.495 73.832 256.287 74.696 256.287 75.688C256.287 76.68 256.495 77.544 256.911 78.28C257.327 79.016 257.895 79.592 258.615 80.008C259.335 80.408 260.143 80.608 261.039 80.608C261.791 80.608 262.487 80.456 263.127 80.152C263.767 79.848 264.303 79.384 264.735 78.76L266.007 79.624C265.511 80.44 264.831 81.064 263.967 81.496C263.103 81.912 262.135 82.12 261.063 82.12ZM278.972 82.144C278.06 82.144 277.156 82.016 276.26 81.76C275.364 81.504 274.572 81.112 273.884 80.584L274.436 79.312C275.044 79.76 275.748 80.104 276.548 80.344C277.348 80.568 278.14 80.68 278.924 80.68C279.708 80.664 280.388 80.552 280.964 80.344C281.54 80.136 281.988 79.848 282.308 79.48C282.628 79.112 282.788 78.696 282.788 78.232C282.788 77.56 282.484 77.04 281.876 76.672C281.268 76.288 280.436 76.096 279.38 76.096H277.22V74.848H279.26C279.884 74.848 280.436 74.768 280.916 74.608C281.396 74.448 281.764 74.216 282.02 73.912C282.292 73.608 282.428 73.248 282.428 72.832C282.428 72.384 282.268 72 281.948 71.68C281.644 71.36 281.22 71.12 280.676 70.96C280.132 70.8 279.516 70.72 278.828 70.72C278.204 70.736 277.556 70.832 276.884 71.008C276.212 71.168 275.548 71.416 274.892 71.752L274.412 70.432C275.148 70.048 275.876 69.76 276.596 69.568C277.332 69.36 278.068 69.256 278.804 69.256C279.812 69.224 280.716 69.344 281.516 69.616C282.332 69.888 282.98 70.28 283.46 70.792C283.94 71.288 284.18 71.888 284.18 72.592C284.18 73.216 283.988 73.76 283.604 74.224C283.22 74.688 282.708 75.048 282.068 75.304C281.428 75.56 280.7 75.688 279.884 75.688L279.956 75.232C281.396 75.232 282.516 75.512 283.316 76.072C284.132 76.632 284.54 77.392 284.54 78.352C284.54 79.104 284.292 79.768 283.796 80.344C283.3 80.904 282.628 81.344 281.78 81.664C280.948 81.984 280.012 82.144 278.972 82.144ZM296.232 82V79.216L296.16 78.76V74.104C296.16 73.032 295.856 72.208 295.248 71.632C294.656 71.056 293.768 70.768 292.584 70.768C291.768 70.768 290.992 70.904 290.256 71.176C289.52 71.448 288.896 71.808 288.384 72.256L287.616 70.984C288.256 70.44 289.024 70.024 289.92 69.736C290.816 69.432 291.76 69.28 292.752 69.28C294.384 69.28 295.64 69.688 296.52 70.504C297.416 71.304 297.864 72.528 297.864 74.176V82H296.232ZM291.888 82.12C290.944 82.12 290.12 81.968 289.416 81.664C288.728 81.344 288.2 80.912 287.832 80.368C287.464 79.808 287.28 79.168 287.28 78.448C287.28 77.792 287.432 77.2 287.736 76.672C288.056 76.128 288.568 75.696 289.272 75.376C289.992 75.04 290.952 74.872 292.152 74.872H296.496V76.144H292.2C290.984 76.144 290.136 76.36 289.656 76.792C289.192 77.224 288.96 77.76 288.96 78.4C288.96 79.12 289.24 79.696 289.8 80.128C290.36 80.56 291.144 80.776 292.152 80.776C293.112 80.776 293.936 80.56 294.624 80.128C295.328 79.68 295.84 79.04 296.16 78.208L296.544 79.384C296.224 80.216 295.664 80.88 294.864 81.376C294.08 81.872 293.088 82.12 291.888 82.12ZM308.682 82V69.4H310.386V80.512H318.09V69.4H319.794V82H308.682ZM320.226 85.048V81.856L320.658 82H318.09V80.512H321.834V85.048H320.226ZM325.088 82V69.4H326.792V82H325.088ZM325.952 66.616C325.6 66.616 325.304 66.496 325.064 66.256C324.824 66.016 324.704 65.728 324.704 65.392C324.704 65.056 324.824 64.776 325.064 64.552C325.304 64.312 325.6 64.192 325.952 64.192C326.304 64.192 326.6 64.304 326.84 64.528C327.08 64.752 327.2 65.032 327.2 65.368C327.2 65.72 327.08 66.016 326.84 66.256C326.616 66.496 326.32 66.616 325.952 66.616ZM338.779 75.16V76.432H331.459V75.16H338.779ZM337.099 82.12C335.819 82.12 334.675 81.848 333.667 81.304C332.659 80.744 331.859 79.976 331.267 79C330.691 78.024 330.403 76.92 330.403 75.688C330.403 74.44 330.691 73.336 331.267 72.376C331.859 71.4 332.659 70.64 333.667 70.096C334.675 69.536 335.819 69.256 337.099 69.256C338.139 69.256 339.099 69.416 339.979 69.736C340.859 70.056 341.603 70.536 342.211 71.176L341.227 72.16C340.667 71.648 340.043 71.272 339.355 71.032C338.683 70.792 337.947 70.672 337.147 70.672C336.171 70.672 335.291 70.888 334.507 71.32C333.739 71.752 333.123 72.352 332.659 73.12C332.211 73.872 331.987 74.728 331.987 75.688C331.987 76.664 332.211 77.528 332.659 78.28C333.123 79.032 333.739 79.632 334.507 80.08C335.291 80.512 336.171 80.728 337.147 80.728C337.947 80.728 338.683 80.608 339.355 80.368C340.043 80.112 340.667 79.72 341.227 79.192L342.211 80.176C341.603 80.816 340.859 81.304 339.979 81.64C339.099 81.96 338.139 82.12 337.099 82.12ZM345.385 82V69.4H347.089V74.824H350.929V76.384H347.089V82H345.385ZM356.233 82.12C355.033 82.12 353.953 81.848 352.993 81.304C352.049 80.744 351.305 79.984 350.761 79.024C350.217 78.048 349.945 76.936 349.945 75.688C349.945 74.424 350.217 73.312 350.761 72.352C351.305 71.392 352.049 70.64 352.993 70.096C353.953 69.552 355.033 69.28 356.233 69.28C357.433 69.28 358.505 69.552 359.449 70.096C360.393 70.64 361.137 71.392 361.681 72.352C362.225 73.312 362.497 74.424 362.497 75.688C362.497 76.936 362.225 78.048 361.681 79.024C361.137 79.984 360.393 80.744 359.449 81.304C358.505 81.848 357.433 82.12 356.233 82.12ZM356.233 80.632C357.113 80.632 357.897 80.424 358.585 80.008C359.273 79.592 359.817 79.016 360.217 78.28C360.617 77.528 360.817 76.664 360.817 75.688C360.817 74.696 360.617 73.832 360.217 73.096C359.817 72.36 359.273 71.792 358.585 71.392C357.897 70.976 357.113 70.768 356.233 70.768C355.369 70.768 354.585 70.976 353.881 71.392C353.193 71.792 352.649 72.36 352.249 73.096C351.849 73.832 351.649 74.696 351.649 75.688C351.649 76.664 351.849 77.528 352.249 78.28C352.649 79.016 353.193 79.592 353.881 80.008C354.585 80.424 355.369 80.632 356.233 80.632ZM372.432 82V69.4H374.136V80.512H381.84V69.4H383.544V82H372.432ZM383.976 85.048V81.856L384.408 82H381.84V80.512H385.584V85.048H383.976ZM388.838 82V69.4H390.542V82H388.838ZM389.702 66.616C389.35 66.616 389.054 66.496 388.814 66.256C388.574 66.016 388.454 65.728 388.454 65.392C388.454 65.056 388.574 64.776 388.814 64.552C389.054 64.312 389.35 64.192 389.702 64.192C390.054 64.192 390.35 64.304 390.59 64.528C390.83 64.752 390.95 65.032 390.95 65.368C390.95 65.72 390.83 66.016 390.59 66.256C390.366 66.496 390.07 66.616 389.702 66.616ZM395.401 82V69.4H397.105V74.968H405.049V69.4H406.753V82H405.049V76.432H397.105V82H395.401ZM416.78 82.12C415.564 82.12 414.468 81.848 413.492 81.304C412.532 80.744 411.772 79.984 411.212 79.024C410.652 78.048 410.372 76.936 410.372 75.688C410.372 74.424 410.652 73.312 411.212 72.352C411.772 71.392 412.532 70.64 413.492 70.096C414.452 69.552 415.548 69.28 416.78 69.28C418.028 69.28 419.132 69.552 420.092 70.096C421.068 70.64 421.828 71.392 422.372 72.352C422.932 73.312 423.212 74.424 423.212 75.688C423.212 76.936 422.932 78.048 422.372 79.024C421.828 79.984 421.068 80.744 420.092 81.304C419.116 81.848 418.012 82.12 416.78 82.12ZM416.78 80.608C417.692 80.608 418.5 80.408 419.204 80.008C419.908 79.592 420.46 79.016 420.86 78.28C421.276 77.528 421.484 76.664 421.484 75.688C421.484 74.696 421.276 73.832 420.86 73.096C420.46 72.36 419.908 71.792 419.204 71.392C418.5 70.976 417.7 70.768 416.804 70.768C415.908 70.768 415.108 70.976 414.404 71.392C413.7 71.792 413.14 72.36 412.724 73.096C412.308 73.832 412.1 74.696 412.1 75.688C412.1 76.664 412.308 77.528 412.724 78.28C413.14 79.016 413.7 79.592 414.404 80.008C415.108 80.408 415.9 80.608 416.78 80.608ZM426.854 82V69.4H428.558V74.824H432.398V76.384H428.558V82H426.854ZM437.702 82.12C436.502 82.12 435.422 81.848 434.462 81.304C433.518 80.744 432.774 79.984 432.23 79.024C431.686 78.048 431.414 76.936 431.414 75.688C431.414 74.424 431.686 73.312 432.23 72.352C432.774 71.392 433.518 70.64 434.462 70.096C435.422 69.552 436.502 69.28 437.702 69.28C438.902 69.28 439.974 69.552 440.918 70.096C441.862 70.64 442.606 71.392 443.15 72.352C443.694 73.312 443.966 74.424 443.966 75.688C443.966 76.936 443.694 78.048 443.15 79.024C442.606 79.984 441.862 80.744 440.918 81.304C439.974 81.848 438.902 82.12 437.702 82.12ZM437.702 80.632C438.582 80.632 439.366 80.424 440.054 80.008C440.742 79.592 441.286 79.016 441.686 78.28C442.086 77.528 442.286 76.664 442.286 75.688C442.286 74.696 442.086 73.832 441.686 73.096C441.286 72.36 440.742 71.792 440.054 71.392C439.366 70.976 438.582 70.768 437.702 70.768C436.838 70.768 436.054 70.976 435.35 71.392C434.662 71.792 434.118 72.36 433.718 73.096C433.318 73.832 433.118 74.696 433.118 75.688C433.118 76.664 433.318 77.528 433.718 78.28C434.118 79.016 434.662 79.592 435.35 80.008C436.054 80.424 436.838 80.632 437.702 80.632Z" fill="#214B33"/>
<path d="M138 29L688 29" stroke="#BC0051"/>
<path d="M2.832 29V12.2H9.12C10.544 12.2 11.768 12.432 12.792 12.896C13.816 13.344 14.6 14 15.144 14.864C15.704 15.712 15.984 16.744 15.984 17.96C15.984 19.144 15.704 20.168 15.144 21.032C14.6 21.88 13.816 22.536 12.792 23C11.768 23.464 10.544 23.696 9.12 23.696H3.816L4.608 22.856V29H2.832ZM4.608 23L3.816 22.136H9.072C10.752 22.136 12.024 21.776 12.888 21.056C13.768 20.32 14.208 19.288 14.208 17.96C14.208 16.616 13.768 15.576 12.888 14.84C12.024 14.104 10.752 13.736 9.072 13.736H3.816L4.608 12.896V23ZM24.3189 29.12C23.1029 29.12 22.0069 28.848 21.0309 28.304C20.0709 27.744 19.3109 26.984 18.7509 26.024C18.1909 25.048 17.9109 23.936 17.9109 22.688C17.9109 21.424 18.1909 20.312 18.7509 19.352C19.3109 18.392 20.0709 17.64 21.0309 17.096C21.9909 16.552 23.0869 16.28 24.3189 16.28C25.5669 16.28 26.6709 16.552 27.6309 17.096C28.6069 17.64 29.3669 18.392 29.9109 19.352C30.4709 20.312 30.7509 21.424 30.7509 22.688C30.7509 23.936 30.4709 25.048 29.9109 26.024C29.3669 26.984 28.6069 27.744 27.6309 28.304C26.6549 28.848 25.5509 29.12 24.3189 29.12ZM24.3189 27.608C25.2309 27.608 26.0389 27.408 26.7429 27.008C27.4469 26.592 27.9989 26.016 28.3989 25.28C28.8149 24.528 29.0229 23.664 29.0229 22.688C29.0229 21.696 28.8149 20.832 28.3989 20.096C27.9989 19.36 27.4469 18.792 26.7429 18.392C26.0389 17.976 25.2389 17.768 24.3429 17.768C23.4469 17.768 22.6469 17.976 21.9429 18.392C21.2389 18.792 20.6789 19.36 20.2629 20.096C19.8469 20.832 19.6389 21.696 19.6389 22.688C19.6389 23.664 19.8469 24.528 20.2629 25.28C20.6789 26.016 21.2389 26.592 21.9429 27.008C22.6469 27.408 23.4389 27.608 24.3189 27.608ZM37.683 29.144C36.771 29.144 35.867 29.016 34.971 28.76C34.075 28.504 33.283 28.112 32.595 27.584L33.147 26.312C33.755 26.76 34.459 27.104 35.259 27.344C36.059 27.568 36.851 27.68 37.635 27.68C38.419 27.664 39.099 27.552 39.675 27.344C40.251 27.136 40.699 26.848 41.019 26.48C41.339 26.112 41.499 25.696 41.499 25.232C41.499 24.56 41.195 24.04 40.587 23.672C39.979 23.288 39.147 23.096 38.091 23.096H35.931V21.848H37.971C38.595 21.848 39.147 21.768 39.627 21.608C40.107 21.448 40.475 21.216 40.731 20.912C41.003 20.608 41.139 20.248 41.139 19.832C41.139 19.384 40.979 19 40.659 18.68C40.355 18.36 39.931 18.12 39.387 17.96C38.843 17.8 38.227 17.72 37.539 17.72C36.915 17.736 36.267 17.832 35.595 18.008C34.923 18.168 34.259 18.416 33.603 18.752L33.123 17.432C33.859 17.048 34.587 16.76 35.307 16.568C36.043 16.36 36.779 16.256 37.515 16.256C38.523 16.224 39.427 16.344 40.227 16.616C41.043 16.888 41.691 17.28 42.171 17.792C42.651 18.288 42.891 18.888 42.891 19.592C42.891 20.216 42.699 20.76 42.315 21.224C41.931 21.688 41.419 22.048 40.779 22.304C40.139 22.56 39.411 22.688 38.595 22.688L38.667 22.232C40.107 22.232 41.227 22.512 42.027 23.072C42.843 23.632 43.251 24.392 43.251 25.352C43.251 26.104 43.003 26.768 42.507 27.344C42.011 27.904 41.339 28.344 40.491 28.664C39.659 28.984 38.723 29.144 37.683 29.144ZM55.7593 28.184V17.888H49.6873L49.5433 20.696C49.5113 21.544 49.4553 22.376 49.3753 23.192C49.3113 24.008 49.1913 24.76 49.0153 25.448C48.8553 26.12 48.6233 26.672 48.3193 27.104C48.0153 27.52 47.6233 27.76 47.1433 27.824L45.4393 27.512C45.9353 27.528 46.3433 27.352 46.6633 26.984C46.9833 26.6 47.2313 26.08 47.4073 25.424C47.5833 24.768 47.7113 24.024 47.7913 23.192C47.8713 22.344 47.9353 21.48 47.9833 20.6L48.1513 16.4H57.4633V28.184H55.7593ZM44.9113 32.048V27.512H59.4313V32.048H57.8233V29H46.5193V32.048H44.9113ZM69.2561 29.12C68.1681 29.12 67.1841 28.872 66.3041 28.376C65.4241 27.864 64.7201 27.136 64.1921 26.192C63.6801 25.232 63.4241 24.064 63.4241 22.688C63.4241 21.312 63.6801 20.152 64.1921 19.208C64.7041 18.248 65.4001 17.52 66.2801 17.024C67.1601 16.528 68.1521 16.28 69.2561 16.28C70.4561 16.28 71.5281 16.552 72.4721 17.096C73.4321 17.624 74.1841 18.376 74.7281 19.352C75.2721 20.312 75.5441 21.424 75.5441 22.688C75.5441 23.968 75.2721 25.088 74.7281 26.048C74.1841 27.008 73.4321 27.76 72.4721 28.304C71.5281 28.848 70.4561 29.12 69.2561 29.12ZM62.7521 33.656V16.4H64.3841V20.192L64.2161 22.712L64.4561 25.256V33.656H62.7521ZM69.1361 27.608C70.0321 27.608 70.8321 27.408 71.5361 27.008C72.2401 26.592 72.8001 26.016 73.2161 25.28C73.6321 24.528 73.8401 23.664 73.8401 22.688C73.8401 21.712 73.6321 20.856 73.2161 20.12C72.8001 19.384 72.2401 18.808 71.5361 18.392C70.8321 17.976 70.0321 17.768 69.1361 17.768C68.2401 17.768 67.4321 17.976 66.7121 18.392C66.0081 18.808 65.4481 19.384 65.0321 20.12C64.6321 20.856 64.4321 21.712 64.4321 22.688C64.4321 23.664 64.6321 24.528 65.0321 25.28C65.4481 26.016 66.0081 26.592 66.7121 27.008C67.4321 27.408 68.2401 27.608 69.1361 27.608ZM79.2053 29V16.4H80.9093V29H79.2053ZM80.0693 13.616C79.7173 13.616 79.4213 13.496 79.1813 13.256C78.9413 13.016 78.8213 12.728 78.8213 12.392C78.8213 12.056 78.9413 11.776 79.1813 11.552C79.4213 11.312 79.7173 11.192 80.0693 11.192C80.4213 11.192 80.7173 11.304 80.9573 11.528C81.1973 11.752 81.3173 12.032 81.3173 12.368C81.3173 12.72 81.1973 13.016 80.9573 13.256C80.7333 13.496 80.4373 13.616 80.0693 13.616ZM91.4318 29.144C90.4078 29.144 89.4958 28.976 88.6958 28.64C87.9118 28.304 87.2398 27.792 86.6798 27.104C86.1198 26.416 85.6958 25.568 85.4078 24.56C85.1198 23.536 84.9758 22.352 84.9758 21.008C84.9758 19.808 85.0878 18.76 85.3118 17.864C85.5358 16.952 85.8478 16.168 86.2478 15.512C86.6478 14.856 87.1118 14.304 87.6398 13.856C88.1838 13.392 88.7678 13.024 89.3918 12.752C90.0318 12.464 90.6878 12.248 91.3598 12.104L97.0238 10.784L97.3118 12.368L91.9838 13.568C91.6478 13.648 91.2398 13.76 90.7598 13.904C90.2958 14.048 89.8158 14.264 89.3198 14.552C88.8398 14.84 88.3918 15.24 87.9758 15.752C87.5598 16.264 87.2238 16.928 86.9678 17.744C86.7278 18.544 86.6078 19.544 86.6078 20.744C86.6078 21 86.6158 21.208 86.6318 21.368C86.6478 21.512 86.6638 21.672 86.6798 21.848C86.7118 22.008 86.7358 22.248 86.7518 22.568L86.0078 21.944C86.1838 20.968 86.5438 20.12 87.0878 19.4C87.6318 18.664 88.3118 18.096 89.1278 17.696C89.9598 17.28 90.8798 17.072 91.8878 17.072C93.0558 17.072 94.0958 17.328 95.0078 17.84C95.9198 18.336 96.6318 19.032 97.1438 19.928C97.6718 20.824 97.9358 21.864 97.9358 23.048C97.9358 24.216 97.6638 25.264 97.1198 26.192C96.5918 27.12 95.8398 27.848 94.8638 28.376C93.8878 28.888 92.7438 29.144 91.4318 29.144ZM91.6238 27.728C92.5198 27.728 93.3118 27.528 93.9998 27.128C94.6878 26.712 95.2238 26.152 95.6078 25.448C96.0078 24.744 96.2078 23.952 96.2078 23.072C96.2078 22.208 96.0078 21.44 95.6078 20.768C95.2238 20.096 94.6878 19.568 93.9998 19.184C93.3118 18.784 92.5118 18.584 91.5998 18.584C90.7038 18.584 89.9118 18.776 89.2238 19.16C88.5358 19.528 87.9918 20.048 87.5918 20.72C87.2078 21.392 87.0158 22.168 87.0158 23.048C87.0158 23.928 87.2078 24.72 87.5918 25.424C87.9918 26.128 88.5358 26.688 89.2238 27.104C89.9278 27.52 90.7278 27.728 91.6238 27.728ZM101.588 29V16.4H103.292V21.968H111.236V16.4H112.94V29H111.236V23.432H103.292V29H101.588ZM125.607 29V26.216L125.535 25.76V21.104C125.535 20.032 125.231 19.208 124.623 18.632C124.031 18.056 123.143 17.768 121.959 17.768C121.143 17.768 120.367 17.904 119.631 18.176C118.895 18.448 118.271 18.808 117.759 19.256L116.991 17.984C117.631 17.44 118.399 17.024 119.295 16.736C120.191 16.432 121.135 16.28 122.127 16.28C123.759 16.28 125.015 16.688 125.895 17.504C126.791 18.304 127.239 19.528 127.239 21.176V29H125.607ZM121.263 29.12C120.319 29.12 119.495 28.968 118.791 28.664C118.103 28.344 117.575 27.912 117.207 27.368C116.839 26.808 116.655 26.168 116.655 25.448C116.655 24.792 116.807 24.2 117.111 23.672C117.431 23.128 117.943 22.696 118.647 22.376C119.367 22.04 120.327 21.872 121.527 21.872H125.871V23.144H121.575C120.359 23.144 119.511 23.36 119.031 23.792C118.567 24.224 118.335 24.76 118.335 25.4C118.335 26.12 118.615 26.696 119.175 27.128C119.735 27.56 120.519 27.776 121.527 27.776C122.487 27.776 123.311 27.56 123.999 27.128C124.703 26.68 125.215 26.04 125.535 25.208L125.919 26.384C125.599 27.216 125.039 27.88 124.239 28.376C123.455 28.872 122.463 29.12 121.263 29.12ZM138.057 29V16.4H139.761V27.512H147.465V16.4H149.169V29H138.057ZM149.601 32.048V28.856L150.033 29H147.465V27.512H151.209V32.048H149.601ZM154.463 29V16.4H156.167V29H154.463ZM155.327 13.616C154.975 13.616 154.679 13.496 154.439 13.256C154.199 13.016 154.079 12.728 154.079 12.392C154.079 12.056 154.199 11.776 154.439 11.552C154.679 11.312 154.975 11.192 155.327 11.192C155.679 11.192 155.975 11.304 156.215 11.528C156.455 11.752 156.575 12.032 156.575 12.368C156.575 12.72 156.455 13.016 156.215 13.256C155.991 13.496 155.695 13.616 155.327 13.616ZM161.026 29V16.4H162.73V21.968H170.674V16.4H172.378V29H170.674V23.432H162.73V29H161.026ZM185.045 29V26.216L184.973 25.76V21.104C184.973 20.032 184.669 19.208 184.061 18.632C183.469 18.056 182.581 17.768 181.397 17.768C180.581 17.768 179.805 17.904 179.069 18.176C178.333 18.448 177.709 18.808 177.197 19.256L176.429 17.984C177.069 17.44 177.837 17.024 178.733 16.736C179.629 16.432 180.573 16.28 181.565 16.28C183.197 16.28 184.453 16.688 185.333 17.504C186.229 18.304 186.677 19.528 186.677 21.176V29H185.045ZM180.701 29.12C179.757 29.12 178.933 28.968 178.229 28.664C177.541 28.344 177.013 27.912 176.645 27.368C176.277 26.808 176.093 26.168 176.093 25.448C176.093 24.792 176.245 24.2 176.549 23.672C176.869 23.128 177.381 22.696 178.085 22.376C178.805 22.04 179.765 21.872 180.965 21.872H185.309V23.144H181.013C179.797 23.144 178.949 23.36 178.469 23.792C178.005 24.224 177.773 24.76 177.773 25.4C177.773 26.12 178.053 26.696 178.613 27.128C179.173 27.56 179.957 27.776 180.965 27.776C181.925 27.776 182.749 27.56 183.437 27.128C184.141 26.68 184.653 26.04 184.973 25.208L185.357 26.384C185.037 27.216 184.477 27.88 183.677 28.376C182.893 28.872 181.901 29.12 180.701 29.12Z" fill="#BC0051"/>
<path d="M153 166H0" stroke="#A2C33D"/>
<path d="M2.376 155V138.2H9.888C11.776 138.2 13.248 138.576 14.304 139.328C15.36 140.064 15.888 141.128 15.888 142.52C15.888 143.896 15.384 144.96 14.376 145.712C13.368 146.448 12.04 146.816 10.392 146.816L10.824 145.952C12.696 145.952 14.144 146.328 15.168 147.08C16.192 147.832 16.704 148.92 16.704 150.344C16.704 151.8 16.168 152.944 15.096 153.776C14.024 154.592 12.44 155 10.344 155H2.376ZM5.448 152.6H10.248C11.336 152.6 12.16 152.4 12.72 152C13.28 151.584 13.56 150.952 13.56 150.104C13.56 149.256 13.28 148.64 12.72 148.256C12.16 147.856 11.336 147.656 10.248 147.656H5.448V152.6ZM5.448 145.376H9.624C10.632 145.376 11.4 145.176 11.928 144.776C12.456 144.36 12.72 143.768 12.72 143C12.72 142.2 12.456 141.6 11.928 141.2C11.4 140.8 10.632 140.6 9.624 140.6H5.448V145.376ZM19.9223 155V142.184H22.9223V150.632L30.0023 142.184H32.7383V155H29.7383V146.552L22.6823 155H19.9223ZM36.7738 155V142.184H46.6138V144.728H39.0778L39.7738 144.056V155H36.7738ZM53.9468 155.168C52.6348 155.168 51.4668 154.888 50.4428 154.328C49.4188 153.752 48.6108 152.968 48.0188 151.976C47.4268 150.984 47.1308 149.856 47.1308 148.592C47.1308 147.312 47.4268 146.184 48.0188 145.208C48.6108 144.216 49.4188 143.44 50.4428 142.88C51.4668 142.32 52.6348 142.04 53.9468 142.04C55.2748 142.04 56.4508 142.32 57.4748 142.88C58.5148 143.44 59.3228 144.208 59.8988 145.184C60.4908 146.16 60.7868 147.296 60.7868 148.592C60.7868 149.856 60.4908 150.984 59.8988 151.976C59.3228 152.968 58.5148 153.752 57.4748 154.328C56.4508 154.888 55.2748 155.168 53.9468 155.168ZM53.9468 152.6C54.6828 152.6 55.3388 152.44 55.9148 152.12C56.4908 151.8 56.9388 151.336 57.2588 150.728C57.5948 150.12 57.7628 149.408 57.7628 148.592C57.7628 147.76 57.5948 147.048 57.2588 146.456C56.9388 145.848 56.4908 145.384 55.9148 145.064C55.3388 144.744 54.6908 144.584 53.9708 144.584C53.2348 144.584 52.5788 144.744 52.0028 145.064C51.4428 145.384 50.9948 145.848 50.6588 146.456C50.3228 147.048 50.1548 147.76 50.1548 148.592C50.1548 149.408 50.3228 150.12 50.6588 150.728C50.9948 151.336 51.4428 151.8 52.0028 152.12C52.5788 152.44 53.2268 152.6 53.9468 152.6ZM72.3938 153.608V144.728H67.4738L67.4018 146.792C67.3698 147.528 67.3218 148.24 67.2578 148.928C67.1938 149.6 67.0898 150.224 66.9458 150.8C66.8018 151.36 66.5938 151.824 66.3218 152.192C66.0498 152.56 65.6898 152.8 65.2418 152.912L62.2658 152.456C62.7458 152.456 63.1298 152.304 63.4178 152C63.7218 151.68 63.9538 151.248 64.1138 150.704C64.2898 150.144 64.4178 149.512 64.4978 148.808C64.5778 148.088 64.6338 147.344 64.6658 146.576L64.8338 142.184H75.3938V153.608H72.3938ZM61.8098 157.856V152.456H77.2898V157.856H74.4818V155H64.5938V157.856H61.8098ZM87.7451 155V152.408L87.5771 151.856V147.32C87.5771 146.44 87.3131 145.76 86.7851 145.28C86.2571 144.784 85.4571 144.536 84.3851 144.536C83.6651 144.536 82.9531 144.648 82.2491 144.872C81.5611 145.096 80.9771 145.408 80.4971 145.808L79.3211 143.624C80.0091 143.096 80.8251 142.704 81.7691 142.448C82.7291 142.176 83.7211 142.04 84.7451 142.04C86.6011 142.04 88.0331 142.488 89.0411 143.384C90.0651 144.264 90.5771 145.632 90.5771 147.488V155H87.7451ZM83.7131 155.168C82.7531 155.168 81.9131 155.008 81.1931 154.688C80.4731 154.352 79.9131 153.896 79.5131 153.32C79.1291 152.728 78.9371 152.064 78.9371 151.328C78.9371 150.608 79.1051 149.96 79.4411 149.384C79.7931 148.808 80.3611 148.352 81.1451 148.016C81.9291 147.68 82.9691 147.512 84.2651 147.512H87.9851V149.504H84.4811C83.4571 149.504 82.7691 149.672 82.4171 150.008C82.0651 150.328 81.8891 150.728 81.8891 151.208C81.8891 151.752 82.1051 152.184 82.5371 152.504C82.9691 152.824 83.5691 152.984 84.3371 152.984C85.0731 152.984 85.7291 152.816 86.3051 152.48C86.8971 152.144 87.3211 151.648 87.5771 150.992L88.0811 152.792C87.7931 153.544 87.2731 154.128 86.5211 154.544C85.7851 154.96 84.8491 155.168 83.7131 155.168Z" fill="#A2C33D"/>
<path d="M138.436 369V359.62L138.884 360.096H136.126V359.2H139.444V369H138.436ZM151.527 369L148.503 365.36L149.329 364.87L152.703 369H151.527ZM146.137 369V361.65H147.131V369H146.137ZM146.823 365.724V364.87H149.189V365.724H146.823ZM149.413 365.43L148.489 365.29L151.415 361.65H152.493L149.413 365.43ZM154.271 369V361.65H157.519C158.35 361.65 159.003 361.809 159.479 362.126C159.965 362.443 160.207 362.91 160.207 363.526C160.207 364.123 159.979 364.585 159.521 364.912C159.064 365.229 158.462 365.388 157.715 365.388L157.911 365.094C158.789 365.094 159.433 365.257 159.843 365.584C160.254 365.911 160.459 366.382 160.459 366.998C160.459 367.633 160.226 368.127 159.759 368.482C159.302 368.827 158.588 369 157.617 369H154.271ZM155.237 368.216H157.575C158.201 368.216 158.672 368.118 158.989 367.922C159.316 367.717 159.479 367.39 159.479 366.942C159.479 366.494 159.335 366.167 159.045 365.962C158.756 365.757 158.299 365.654 157.673 365.654H155.237V368.216ZM155.237 364.912H157.449C158.019 364.912 158.453 364.805 158.751 364.59C159.059 364.375 159.213 364.063 159.213 363.652C159.213 363.241 159.059 362.933 158.751 362.728C158.453 362.523 158.019 362.42 157.449 362.42H155.237V364.912ZM162.789 369V361.65H163.783V369H162.789ZM163.293 360.026C163.088 360.026 162.915 359.956 162.775 359.816C162.635 359.676 162.565 359.508 162.565 359.312C162.565 359.116 162.635 358.953 162.775 358.822C162.915 358.682 163.088 358.612 163.293 358.612C163.498 358.612 163.671 358.677 163.811 358.808C163.951 358.939 164.021 359.102 164.021 359.298C164.021 359.503 163.951 359.676 163.811 359.816C163.68 359.956 163.508 360.026 163.293 360.026ZM168.017 369V362.252L168.269 362.518H165.231V361.65H171.797V362.518H168.759L169.011 362.252V369H168.017ZM173.234 369V361.65H174.228V364.898H178.862V361.65H179.856V369H178.862V365.752H174.228V369H173.234ZM187.428 369V366.354L187.61 366.564H185.118C184.175 366.564 183.438 366.359 182.906 365.948C182.374 365.537 182.108 364.94 182.108 364.156C182.108 363.316 182.392 362.691 182.962 362.28C183.531 361.86 184.292 361.65 185.244 361.65H188.338V369H187.428ZM182.052 369L184.068 366.172H185.104L183.13 369H182.052ZM187.428 366.06V362.224L187.61 362.518H185.272C184.59 362.518 184.058 362.649 183.676 362.91C183.302 363.171 183.116 363.596 183.116 364.184C183.116 365.276 183.811 365.822 185.202 365.822H187.61L187.428 366.06Z" fill="#313131"/>
<path d="M615.654 369.084C614.945 369.084 614.273 368.972 613.638 368.748C613.013 368.515 612.509 368.207 612.126 367.824L612.616 367.026C612.933 367.353 613.358 367.623 613.89 367.838C614.431 368.053 615.019 368.16 615.654 368.16C616.466 368.16 617.087 367.983 617.516 367.628C617.955 367.273 618.174 366.797 618.174 366.2C618.174 365.603 617.959 365.127 617.53 364.772C617.11 364.417 616.443 364.24 615.528 364.24H614.828V363.498L617.852 359.704L617.992 360.096H612.532V359.2H618.832V359.914L615.808 363.708L615.318 363.386H615.696C616.872 363.386 617.749 363.647 618.328 364.17C618.916 364.693 619.21 365.365 619.21 366.186C619.21 366.737 619.079 367.231 618.818 367.67C618.557 368.109 618.16 368.454 617.628 368.706C617.105 368.958 616.447 369.084 615.654 369.084ZM624.536 369.084C623.78 369.084 623.108 368.888 622.52 368.496C621.932 368.095 621.47 367.525 621.134 366.788C620.798 366.041 620.63 365.145 620.63 364.1C620.63 363.055 620.798 362.163 621.134 361.426C621.47 360.679 621.932 360.11 622.52 359.718C623.108 359.317 623.78 359.116 624.536 359.116C625.292 359.116 625.964 359.317 626.552 359.718C627.14 360.11 627.602 360.679 627.938 361.426C628.284 362.163 628.456 363.055 628.456 364.1C628.456 365.145 628.284 366.041 627.938 366.788C627.602 367.525 627.14 368.095 626.552 368.496C625.964 368.888 625.292 369.084 624.536 369.084ZM624.536 368.16C625.115 368.16 625.619 368.006 626.048 367.698C626.478 367.381 626.814 366.923 627.056 366.326C627.299 365.719 627.42 364.977 627.42 364.1C627.42 363.223 627.299 362.485 627.056 361.888C626.814 361.281 626.478 360.824 626.048 360.516C625.619 360.199 625.115 360.04 624.536 360.04C623.976 360.04 623.477 360.199 623.038 360.516C622.6 360.824 622.259 361.281 622.016 361.888C621.774 362.485 621.652 363.223 621.652 364.1C621.652 364.977 621.774 365.719 622.016 366.326C622.259 366.923 622.6 367.381 623.038 367.698C623.477 368.006 623.976 368.16 624.536 368.16ZM639.64 369L636.616 365.36L637.442 364.87L640.816 369H639.64ZM634.25 369V361.65H635.244V369H634.25ZM634.936 365.724V364.87H637.302V365.724H634.936ZM637.526 365.43L636.602 365.29L639.528 361.65H640.606L637.526 365.43ZM642.385 369V361.65H645.633C646.463 361.65 647.117 361.809 647.593 362.126C648.078 362.443 648.321 362.91 648.321 363.526C648.321 364.123 648.092 364.585 647.635 364.912C647.177 365.229 646.575 365.388 645.829 365.388L646.025 365.094C646.902 365.094 647.546 365.257 647.957 365.584C648.367 365.911 648.573 366.382 648.573 366.998C648.573 367.633 648.339 368.127 647.873 368.482C647.415 368.827 646.701 369 645.731 369H642.385ZM643.351 368.216H645.689C646.314 368.216 646.785 368.118 647.103 367.922C647.429 367.717 647.593 367.39 647.593 366.942C647.593 366.494 647.448 366.167 647.159 365.962C646.869 365.757 646.412 365.654 645.787 365.654H643.351V368.216ZM643.351 364.912H645.563C646.132 364.912 646.566 364.805 646.865 364.59C647.173 364.375 647.327 364.063 647.327 363.652C647.327 363.241 647.173 362.933 646.865 362.728C646.566 362.523 646.132 362.42 645.563 362.42H643.351V364.912ZM650.902 369V361.65H651.896V369H650.902ZM651.406 360.026C651.201 360.026 651.028 359.956 650.888 359.816C650.748 359.676 650.678 359.508 650.678 359.312C650.678 359.116 650.748 358.953 650.888 358.822C651.028 358.682 651.201 358.612 651.406 358.612C651.612 358.612 651.784 358.677 651.924 358.808C652.064 358.939 652.134 359.102 652.134 359.298C652.134 359.503 652.064 359.676 651.924 359.816C651.794 359.956 651.621 360.026 651.406 360.026ZM656.13 369V362.252L656.382 362.518H653.344V361.65H659.91V362.518H656.872L657.124 362.252V369H656.13ZM661.348 369V361.65H662.342V364.898H666.976V361.65H667.97V369H666.976V365.752H662.342V369H661.348ZM675.541 369V366.354L675.723 366.564H673.231C672.288 366.564 671.551 366.359 671.019 365.948C670.487 365.537 670.221 364.94 670.221 364.156C670.221 363.316 670.506 362.691 671.075 362.28C671.644 361.86 672.405 361.65 673.357 361.65H676.451V369H675.541ZM670.165 369L672.181 366.172H673.217L671.243 369H670.165ZM675.541 366.06V362.224L675.723 362.518H673.385C672.704 362.518 672.172 362.649 671.789 362.91C671.416 363.171 671.229 363.596 671.229 364.184C671.229 365.276 671.924 365.822 673.315 365.822H675.723L675.541 366.06Z" fill="#313131"/>
<path d="M378.436 369V359.62L378.884 360.096H376.126V359.2H379.444V369H378.436ZM384.881 369.084C384.181 369.084 383.513 368.972 382.879 368.748C382.244 368.515 381.74 368.207 381.367 367.824L381.857 367.026C382.165 367.353 382.585 367.623 383.117 367.838C383.658 368.053 384.241 368.16 384.867 368.16C385.697 368.16 386.327 367.978 386.757 367.614C387.195 367.241 387.415 366.755 387.415 366.158C387.415 365.738 387.312 365.379 387.107 365.08C386.911 364.772 386.575 364.534 386.099 364.366C385.623 364.198 384.969 364.114 384.139 364.114H382.053L382.557 359.2H387.919V360.096H382.963L383.481 359.606L383.047 363.722L382.529 363.218H384.363C385.352 363.218 386.145 363.339 386.743 363.582C387.34 363.825 387.769 364.165 388.031 364.604C388.301 365.033 388.437 365.537 388.437 366.116C388.437 366.667 388.306 367.171 388.045 367.628C387.783 368.076 387.391 368.431 386.869 368.692C386.346 368.953 385.683 369.084 384.881 369.084ZM399.456 369L396.432 365.36L397.258 364.87L400.632 369H399.456ZM394.066 369V361.65H395.06V369H394.066ZM394.752 365.724V364.87H397.118V365.724H394.752ZM397.342 365.43L396.418 365.29L399.344 361.65H400.422L397.342 365.43ZM402.201 369V361.65H405.449C406.28 361.65 406.933 361.809 407.409 362.126C407.894 362.443 408.137 362.91 408.137 363.526C408.137 364.123 407.908 364.585 407.451 364.912C406.994 365.229 406.392 365.388 405.645 365.388L405.841 365.094C406.718 365.094 407.362 365.257 407.773 365.584C408.184 365.911 408.389 366.382 408.389 366.998C408.389 367.633 408.156 368.127 407.689 368.482C407.232 368.827 406.518 369 405.547 369H402.201ZM403.167 368.216H405.505C406.13 368.216 406.602 368.118 406.919 367.922C407.246 367.717 407.409 367.39 407.409 366.942C407.409 366.494 407.264 366.167 406.975 365.962C406.686 365.757 406.228 365.654 405.603 365.654H403.167V368.216ZM403.167 364.912H405.379C405.948 364.912 406.382 364.805 406.681 364.59C406.989 364.375 407.143 364.063 407.143 363.652C407.143 363.241 406.989 362.933 406.681 362.728C406.382 362.523 405.948 362.42 405.379 362.42H403.167V364.912ZM410.719 369V361.65H411.713V369H410.719ZM411.223 360.026C411.017 360.026 410.845 359.956 410.705 359.816C410.565 359.676 410.495 359.508 410.495 359.312C410.495 359.116 410.565 358.953 410.705 358.822C410.845 358.682 411.017 358.612 411.223 358.612C411.428 358.612 411.601 358.677 411.741 358.808C411.881 358.939 411.951 359.102 411.951 359.298C411.951 359.503 411.881 359.676 411.741 359.816C411.61 359.956 411.437 360.026 411.223 360.026ZM415.947 369V362.252L416.199 362.518H413.161V361.65H419.727V362.518H416.689L416.941 362.252V369H415.947ZM421.164 369V361.65H422.158V364.898H426.792V361.65H427.786V369H426.792V365.752H422.158V369H421.164ZM435.357 369V366.354L435.539 366.564H433.047C432.105 366.564 431.367 366.359 430.835 365.948C430.303 365.537 430.037 364.94 430.037 364.156C430.037 363.316 430.322 362.691 430.891 362.28C431.461 361.86 432.221 361.65 433.173 361.65H436.267V369H435.357ZM429.981 369L431.997 366.172H433.033L431.059 369H429.981ZM435.357 366.06V362.224L435.539 362.518H433.201C432.52 362.518 431.988 362.649 431.605 362.91C431.232 363.171 431.045 363.596 431.045 364.184C431.045 365.276 431.741 365.822 433.131 365.822H435.539L435.357 366.06Z" fill="#313131"/>
</svg>
