<svg width="302" height="226" viewBox="0 0 302 226" fill="none" xmlns="http://www.w3.org/2000/svg">
<path d="M253.654 220.084C252.945 220.084 252.273 219.972 251.638 219.748C251.013 219.515 250.509 219.207 250.126 218.824L250.616 218.026C250.933 218.353 251.358 218.623 251.89 218.838C252.431 219.053 253.019 219.16 253.654 219.16C254.466 219.16 255.087 218.983 255.516 218.628C255.955 218.273 256.174 217.797 256.174 217.2C256.174 216.603 255.959 216.127 255.53 215.772C255.11 215.417 254.443 215.24 253.528 215.24H252.828V214.498L255.852 210.704L255.992 211.096H250.532V210.2H256.832V210.914L253.808 214.708L253.318 214.386H253.696C254.872 214.386 255.749 214.647 256.328 215.17C256.916 215.693 257.21 216.365 257.21 217.186C257.21 217.737 257.079 218.231 256.818 218.67C256.557 219.109 256.16 219.454 255.628 219.706C255.105 219.958 254.447 220.084 253.654 220.084ZM262.536 220.084C261.78 220.084 261.108 219.888 260.52 219.496C259.932 219.095 259.47 218.525 259.134 217.788C258.798 217.041 258.63 216.145 258.63 215.1C258.63 214.055 258.798 213.163 259.134 212.426C259.47 211.679 259.932 211.11 260.52 210.718C261.108 210.317 261.78 210.116 262.536 210.116C263.292 210.116 263.964 210.317 264.552 210.718C265.14 211.11 265.602 211.679 265.938 212.426C266.284 213.163 266.456 214.055 266.456 215.1C266.456 216.145 266.284 217.041 265.938 217.788C265.602 218.525 265.14 219.095 264.552 219.496C263.964 219.888 263.292 220.084 262.536 220.084ZM262.536 219.16C263.115 219.16 263.619 219.006 264.048 218.698C264.478 218.381 264.814 217.923 265.056 217.326C265.299 216.719 265.42 215.977 265.42 215.1C265.42 214.223 265.299 213.485 265.056 212.888C264.814 212.281 264.478 211.824 264.048 211.516C263.619 211.199 263.115 211.04 262.536 211.04C261.976 211.04 261.477 211.199 261.038 211.516C260.6 211.824 260.259 212.281 260.016 212.888C259.774 213.485 259.652 214.223 259.652 215.1C259.652 215.977 259.774 216.719 260.016 217.326C260.259 217.923 260.6 218.381 261.038 218.698C261.477 219.006 261.976 219.16 262.536 219.16ZM276.828 220V218.376L276.786 218.11V215.394C276.786 214.769 276.609 214.288 276.254 213.952C275.909 213.616 275.391 213.448 274.7 213.448C274.224 213.448 273.771 213.527 273.342 213.686C272.913 213.845 272.549 214.055 272.25 214.316L271.802 213.574C272.175 213.257 272.623 213.014 273.146 212.846C273.669 212.669 274.219 212.58 274.798 212.58C275.75 212.58 276.483 212.818 276.996 213.294C277.519 213.761 277.78 214.475 277.78 215.436V220H276.828ZM274.294 220.07C273.743 220.07 273.263 219.981 272.852 219.804C272.451 219.617 272.143 219.365 271.928 219.048C271.713 218.721 271.606 218.348 271.606 217.928C271.606 217.545 271.695 217.2 271.872 216.892C272.059 216.575 272.357 216.323 272.768 216.136C273.188 215.94 273.748 215.842 274.448 215.842H276.982V216.584H274.476C273.767 216.584 273.272 216.71 272.992 216.962C272.721 217.214 272.586 217.527 272.586 217.9C272.586 218.32 272.749 218.656 273.076 218.908C273.403 219.16 273.86 219.286 274.448 219.286C275.008 219.286 275.489 219.16 275.89 218.908C276.301 218.647 276.599 218.273 276.786 217.788L277.01 218.474C276.823 218.959 276.497 219.347 276.03 219.636C275.573 219.925 274.994 220.07 274.294 220.07ZM284.274 220.07C283.639 220.07 283.065 219.925 282.552 219.636C282.038 219.337 281.628 218.913 281.32 218.362C281.021 217.802 280.872 217.121 280.872 216.318C280.872 215.515 281.021 214.839 281.32 214.288C281.618 213.728 282.024 213.303 282.538 213.014C283.051 212.725 283.63 212.58 284.274 212.58C284.974 212.58 285.599 212.739 286.15 213.056C286.71 213.364 287.148 213.803 287.466 214.372C287.783 214.932 287.942 215.581 287.942 216.318C287.942 217.065 287.783 217.718 287.466 218.278C287.148 218.838 286.71 219.277 286.15 219.594C285.599 219.911 284.974 220.07 284.274 220.07ZM280.48 222.716V212.65H281.432V214.862L281.334 216.332L281.474 217.816V222.716H280.48ZM284.204 219.188C284.726 219.188 285.193 219.071 285.604 218.838C286.014 218.595 286.341 218.259 286.584 217.83C286.826 217.391 286.948 216.887 286.948 216.318C286.948 215.749 286.826 215.249 286.584 214.82C286.341 214.391 286.014 214.055 285.604 213.812C285.193 213.569 284.726 213.448 284.204 213.448C283.681 213.448 283.21 213.569 282.79 213.812C282.379 214.055 282.052 214.391 281.81 214.82C281.576 215.249 281.46 215.749 281.46 216.318C281.46 216.887 281.576 217.391 281.81 217.83C282.052 218.259 282.379 218.595 282.79 218.838C283.21 219.071 283.681 219.188 284.204 219.188ZM289.968 220V212.65H290.92V214.652L290.822 214.302C291.027 213.742 291.373 213.317 291.858 213.028C292.343 212.729 292.945 212.58 293.664 212.58V213.546C293.627 213.546 293.589 213.546 293.552 213.546C293.515 213.537 293.477 213.532 293.44 213.532C292.665 213.532 292.059 213.77 291.62 214.246C291.181 214.713 290.962 215.38 290.962 216.248V220H289.968ZM295.478 220V212.65H296.472V220H295.478ZM295.982 211.026C295.776 211.026 295.604 210.956 295.464 210.816C295.324 210.676 295.254 210.508 295.254 210.312C295.254 210.116 295.324 209.953 295.464 209.822C295.604 209.682 295.776 209.612 295.982 209.612C296.187 209.612 296.36 209.677 296.5 209.808C296.64 209.939 296.71 210.102 296.71 210.298C296.71 210.503 296.64 210.676 296.5 210.816C296.369 210.956 296.196 211.026 295.982 211.026ZM299.238 220V209.612H300.232V220H299.238Z" fill="#313131"/>
<path d="M129.436 220V210.62L129.884 211.096H127.126V210.2H130.444V220H129.436ZM135.881 220.084C135.181 220.084 134.513 219.972 133.879 219.748C133.244 219.515 132.74 219.207 132.367 218.824L132.857 218.026C133.165 218.353 133.585 218.623 134.117 218.838C134.658 219.053 135.241 219.16 135.867 219.16C136.697 219.16 137.327 218.978 137.757 218.614C138.195 218.241 138.415 217.755 138.415 217.158C138.415 216.738 138.312 216.379 138.107 216.08C137.911 215.772 137.575 215.534 137.099 215.366C136.623 215.198 135.969 215.114 135.139 215.114H133.053L133.557 210.2H138.919V211.096H133.963L134.481 210.606L134.047 214.722L133.529 214.218H135.363C136.352 214.218 137.145 214.339 137.743 214.582C138.34 214.825 138.769 215.165 139.031 215.604C139.301 216.033 139.437 216.537 139.437 217.116C139.437 217.667 139.306 218.171 139.045 218.628C138.783 219.076 138.391 219.431 137.869 219.692C137.346 219.953 136.683 220.084 135.881 220.084ZM149.644 220V218.376L149.602 218.11V215.394C149.602 214.769 149.425 214.288 149.07 213.952C148.725 213.616 148.207 213.448 147.516 213.448C147.04 213.448 146.588 213.527 146.158 213.686C145.729 213.845 145.365 214.055 145.066 214.316L144.618 213.574C144.992 213.257 145.44 213.014 145.962 212.846C146.485 212.669 147.036 212.58 147.614 212.58C148.566 212.58 149.299 212.818 149.812 213.294C150.335 213.761 150.596 214.475 150.596 215.436V220H149.644ZM147.11 220.07C146.56 220.07 146.079 219.981 145.668 219.804C145.267 219.617 144.959 219.365 144.744 219.048C144.53 218.721 144.422 218.348 144.422 217.928C144.422 217.545 144.511 217.2 144.688 216.892C144.875 216.575 145.174 216.323 145.584 216.136C146.004 215.94 146.564 215.842 147.264 215.842H149.798V216.584H147.292C146.583 216.584 146.088 216.71 145.808 216.962C145.538 217.214 145.402 217.527 145.402 217.9C145.402 218.32 145.566 218.656 145.892 218.908C146.219 219.16 146.676 219.286 147.264 219.286C147.824 219.286 148.305 219.16 148.706 218.908C149.117 218.647 149.416 218.273 149.602 217.788L149.826 218.474C149.64 218.959 149.313 219.347 148.846 219.636C148.389 219.925 147.81 220.07 147.11 220.07ZM157.09 220.07C156.455 220.07 155.881 219.925 155.368 219.636C154.855 219.337 154.444 218.913 154.136 218.362C153.837 217.802 153.688 217.121 153.688 216.318C153.688 215.515 153.837 214.839 154.136 214.288C154.435 213.728 154.841 213.303 155.354 213.014C155.867 212.725 156.446 212.58 157.09 212.58C157.79 212.58 158.415 212.739 158.966 213.056C159.526 213.364 159.965 213.803 160.282 214.372C160.599 214.932 160.758 215.581 160.758 216.318C160.758 217.065 160.599 217.718 160.282 218.278C159.965 218.838 159.526 219.277 158.966 219.594C158.415 219.911 157.79 220.07 157.09 220.07ZM153.296 222.716V212.65H154.248V214.862L154.15 216.332L154.29 217.816V222.716H153.296ZM157.02 219.188C157.543 219.188 158.009 219.071 158.42 218.838C158.831 218.595 159.157 218.259 159.4 217.83C159.643 217.391 159.764 216.887 159.764 216.318C159.764 215.749 159.643 215.249 159.4 214.82C159.157 214.391 158.831 214.055 158.42 213.812C158.009 213.569 157.543 213.448 157.02 213.448C156.497 213.448 156.026 213.569 155.606 213.812C155.195 214.055 154.869 214.391 154.626 214.82C154.393 215.249 154.276 215.749 154.276 216.318C154.276 216.887 154.393 217.391 154.626 217.83C154.869 218.259 155.195 218.595 155.606 218.838C156.026 219.071 156.497 219.188 157.02 219.188ZM162.784 220V212.65H163.736V214.652L163.638 214.302C163.844 213.742 164.189 213.317 164.674 213.028C165.16 212.729 165.762 212.58 166.48 212.58V213.546C166.443 213.546 166.406 213.546 166.368 213.546C166.331 213.537 166.294 213.532 166.256 213.532C165.482 213.532 164.875 213.77 164.436 214.246C163.998 214.713 163.778 215.38 163.778 216.248V220H162.784ZM168.294 220V212.65H169.288V220H168.294ZM168.798 211.026C168.593 211.026 168.42 210.956 168.28 210.816C168.14 210.676 168.07 210.508 168.07 210.312C168.07 210.116 168.14 209.953 168.28 209.822C168.42 209.682 168.593 209.612 168.798 209.612C169.004 209.612 169.176 209.677 169.316 209.808C169.456 209.939 169.526 210.102 169.526 210.298C169.526 210.503 169.456 210.676 169.316 210.816C169.186 210.956 169.013 211.026 168.798 211.026ZM172.054 220V209.612H173.048V220H172.054Z" fill="#313131"/>
<path d="M2.436 220V210.62L2.884 211.096H0.126V210.2H3.444V220H2.436ZM14.7147 220V218.376L14.6727 218.11V215.394C14.6727 214.769 14.4953 214.288 14.1407 213.952C13.7953 213.616 13.2773 213.448 12.5867 213.448C12.1107 213.448 11.658 213.527 11.2287 213.686C10.7993 213.845 10.4353 214.055 10.1367 214.316L9.68866 213.574C10.062 213.257 10.51 213.014 11.0327 212.846C11.5553 212.669 12.106 212.58 12.6847 212.58C13.6367 212.58 14.3693 212.818 14.8827 213.294C15.4053 213.761 15.6667 214.475 15.6667 215.436V220H14.7147ZM12.1807 220.07C11.63 220.07 11.1493 219.981 10.7387 219.804C10.3373 219.617 10.0293 219.365 9.81466 219.048C9.59999 218.721 9.49266 218.348 9.49266 217.928C9.49266 217.545 9.58132 217.2 9.75866 216.892C9.94532 216.575 10.244 216.323 10.6547 216.136C11.0747 215.94 11.6347 215.842 12.3347 215.842H14.8687V216.584H12.3627C11.6533 216.584 11.1587 216.71 10.8787 216.962C10.608 217.214 10.4727 217.527 10.4727 217.9C10.4727 218.32 10.636 218.656 10.9627 218.908C11.2893 219.16 11.7467 219.286 12.3347 219.286C12.8947 219.286 13.3753 219.16 13.7767 218.908C14.1873 218.647 14.486 218.273 14.6727 217.788L14.8967 218.474C14.71 218.959 14.3833 219.347 13.9167 219.636C13.4593 219.925 12.8807 220.07 12.1807 220.07ZM22.1605 220.07C21.5258 220.07 20.9518 219.925 20.4385 219.636C19.9251 219.337 19.5145 218.913 19.2065 218.362C18.9078 217.802 18.7585 217.121 18.7585 216.318C18.7585 215.515 18.9078 214.839 19.2065 214.288C19.5051 213.728 19.9111 213.303 20.4245 213.014C20.9378 212.725 21.5165 212.58 22.1605 212.58C22.8605 212.58 23.4858 212.739 24.0365 213.056C24.5965 213.364 25.0351 213.803 25.3525 214.372C25.6698 214.932 25.8285 215.581 25.8285 216.318C25.8285 217.065 25.6698 217.718 25.3525 218.278C25.0351 218.838 24.5965 219.277 24.0365 219.594C23.4858 219.911 22.8605 220.07 22.1605 220.07ZM18.3665 222.716V212.65H19.3185V214.862L19.2205 216.332L19.3605 217.816V222.716H18.3665ZM22.0905 219.188C22.6131 219.188 23.0798 219.071 23.4905 218.838C23.9011 218.595 24.2278 218.259 24.4705 217.83C24.7131 217.391 24.8345 216.887 24.8345 216.318C24.8345 215.749 24.7131 215.249 24.4705 214.82C24.2278 214.391 23.9011 214.055 23.4905 213.812C23.0798 213.569 22.6131 213.448 22.0905 213.448C21.5678 213.448 21.0965 213.569 20.6765 213.812C20.2658 214.055 19.9391 214.391 19.6965 214.82C19.4631 215.249 19.3465 215.749 19.3465 216.318C19.3465 216.887 19.4631 217.391 19.6965 217.83C19.9391 218.259 20.2658 218.595 20.6765 218.838C21.0965 219.071 21.5678 219.188 22.0905 219.188ZM27.8548 220V212.65H28.8068V214.652L28.7088 214.302C28.9141 213.742 29.2594 213.317 29.7448 213.028C30.2301 212.729 30.8321 212.58 31.5508 212.58V213.546C31.5134 213.546 31.4761 213.546 31.4388 213.546C31.4014 213.537 31.3641 213.532 31.3268 213.532C30.5521 213.532 29.9454 213.77 29.5068 214.246C29.0681 214.713 28.8488 215.38 28.8488 216.248V220H27.8548ZM33.3645 220V212.65H34.3585V220H33.3645ZM33.8685 211.026C33.6632 211.026 33.4905 210.956 33.3505 210.816C33.2105 210.676 33.1405 210.508 33.1405 210.312C33.1405 210.116 33.2105 209.953 33.3505 209.822C33.4905 209.682 33.6632 209.612 33.8685 209.612C34.0738 209.612 34.2465 209.677 34.3865 209.808C34.5265 209.939 34.5965 210.102 34.5965 210.298C34.5965 210.503 34.5265 210.676 34.3865 210.816C34.2558 210.956 34.0832 211.026 33.8685 211.026ZM37.1243 220V209.612H38.1183V220H37.1243Z" fill="#313131"/>
<rect x="301.998" y="203" width="11" height="181" transform="rotate(180 301.998 203)" fill="#BC0051"/>
<rect x="286.998" y="203" width="11" height="151" transform="rotate(180 286.998 203)" fill="#214B33"/>
<rect x="270.998" y="203" width="11" height="144" transform="rotate(180 270.998 203)" fill="#A2C33D" fill-opacity="0.4"/>
<rect x="255.998" y="203" width="11" height="141" transform="rotate(180 255.998 203)" fill="#A2C33D" fill-opacity="0.4"/>
<rect x="240.998" y="203" width="11" height="136" transform="rotate(180 240.998 203)" fill="#A2C33D" fill-opacity="0.4"/>
<rect x="225.998" y="203" width="11" height="128" transform="rotate(180 225.998 203)" fill="#A2C33D" fill-opacity="0.4"/>
<rect x="209.998" y="203" width="11" height="125" transform="rotate(180 209.998 203)" fill="#A2C33D" fill-opacity="0.4"/>
<rect x="194.998" y="203" width="11" height="113" transform="rotate(180 194.998 203)" fill="#A2C33D" fill-opacity="0.4"/>
<rect x="179.998" y="203" width="11" height="111" transform="rotate(180 179.998 203)" fill="#A2C33D" fill-opacity="0.4"/>
<rect x="163.998" y="203" width="11" height="104" transform="rotate(180 163.998 203)" fill="#A2C33D" fill-opacity="0.4"/>
<rect x="148.998" y="203" width="11" height="104" transform="rotate(180 148.998 203)" fill="#A2C33D" fill-opacity="0.4"/>
<rect x="133.998" y="203" width="11" height="100" transform="rotate(180 133.998 203)" fill="#A2C33D" fill-opacity="0.4"/>
<rect x="117.998" y="203" width="11" height="97" transform="rotate(180 117.998 203)" fill="#A2C33D" fill-opacity="0.4"/>
<rect x="102.998" y="203" width="11" height="97" transform="rotate(180 102.998 203)" fill="#A2C33D" fill-opacity="0.4"/>
<rect x="87.998" y="203" width="11" height="86" transform="rotate(180 87.998 203)" fill="#A2C33D" fill-opacity="0.4"/>
<rect x="72.998" y="203" width="11" height="82" transform="rotate(180 72.998 203)" fill="#A2C33D" fill-opacity="0.4"/>
<rect x="56.998" y="203" width="11" height="79" transform="rotate(180 56.998 203)" fill="#A2C33D" fill-opacity="0.4"/>
<rect x="41.998" y="203" width="11" height="71" transform="rotate(180 41.998 203)" fill="#A2C33D" fill-opacity="0.4"/>
<rect x="26.998" y="203" width="11" height="68" transform="rotate(180 26.998 203)" fill="#A2C33D" fill-opacity="0.4"/>
<rect x="11" y="203" width="11" height="57" transform="rotate(180 11 203)" fill="#A2C33D"/>
<path d="M6 53V146" stroke="#A2C33D" stroke-width="11.3313" stroke-dasharray="5.67 5.67"/>
<path d="M24.298 146.084C23.57 146.084 22.87 145.967 22.198 145.734C21.5353 145.491 21.022 145.183 20.658 144.81L21.064 144.012C21.4093 144.348 21.8713 144.633 22.45 144.866C23.038 145.09 23.654 145.202 24.298 145.202C24.914 145.202 25.4133 145.127 25.796 144.978C26.188 144.819 26.4727 144.609 26.65 144.348C26.8367 144.087 26.93 143.797 26.93 143.48C26.93 143.097 26.818 142.789 26.594 142.556C26.3793 142.323 26.0947 142.141 25.74 142.01C25.3853 141.87 24.9933 141.749 24.564 141.646C24.1347 141.543 23.7053 141.436 23.276 141.324C22.8467 141.203 22.45 141.044 22.086 140.848C21.7313 140.652 21.442 140.395 21.218 140.078C21.0033 139.751 20.896 139.327 20.896 138.804C20.896 138.319 21.022 137.875 21.274 137.474C21.5353 137.063 21.932 136.737 22.464 136.494C22.996 136.242 23.6773 136.116 24.508 136.116C25.0587 136.116 25.6047 136.195 26.146 136.354C26.6873 136.503 27.154 136.713 27.546 136.984L27.196 137.81C26.776 137.53 26.328 137.325 25.852 137.194C25.3853 137.063 24.9327 136.998 24.494 136.998C23.906 136.998 23.4207 137.077 23.038 137.236C22.6553 137.395 22.3707 137.609 22.184 137.88C22.0067 138.141 21.918 138.44 21.918 138.776C21.918 139.159 22.0253 139.467 22.24 139.7C22.464 139.933 22.7533 140.115 23.108 140.246C23.472 140.377 23.8687 140.493 24.298 140.596C24.7273 140.699 25.152 140.811 25.572 140.932C26.0013 141.053 26.3933 141.212 26.748 141.408C27.112 141.595 27.4013 141.847 27.616 142.164C27.84 142.481 27.952 142.897 27.952 143.41C27.952 143.886 27.8213 144.329 27.56 144.74C27.2987 145.141 26.8973 145.468 26.356 145.72C25.824 145.963 25.138 146.084 24.298 146.084ZM29.9993 146V138.65H30.9933V146H29.9993ZM30.5033 137.026C30.2979 137.026 30.1253 136.956 29.9853 136.816C29.8453 136.676 29.7753 136.508 29.7753 136.312C29.7753 136.116 29.8453 135.953 29.9853 135.822C30.1253 135.682 30.2979 135.612 30.5033 135.612C30.7086 135.612 30.8813 135.677 31.0213 135.808C31.1613 135.939 31.2313 136.102 31.2313 136.298C31.2313 136.503 31.1613 136.676 31.0213 136.816C30.8906 136.956 30.7179 137.026 30.5033 137.026ZM36.881 146.07C36.1157 146.07 35.4437 145.911 34.865 145.594C34.2864 145.267 33.8337 144.824 33.507 144.264C33.1804 143.695 33.017 143.046 33.017 142.318C33.017 141.59 33.171 140.946 33.479 140.386C33.7964 139.826 34.2257 139.387 34.767 139.07C35.3177 138.743 35.9337 138.58 36.615 138.58C37.3057 138.58 37.917 138.739 38.449 139.056C38.9904 139.364 39.415 139.803 39.723 140.372C40.031 140.932 40.185 141.581 40.185 142.318C40.185 142.365 40.1804 142.416 40.171 142.472C40.171 142.519 40.171 142.57 40.171 142.626H33.773V141.884H39.639L39.247 142.178C39.247 141.646 39.1304 141.175 38.897 140.764C38.673 140.344 38.365 140.017 37.973 139.784C37.581 139.551 37.1284 139.434 36.615 139.434C36.111 139.434 35.6584 139.551 35.257 139.784C34.8557 140.017 34.543 140.344 34.319 140.764C34.095 141.184 33.983 141.665 33.983 142.206V142.36C33.983 142.92 34.1044 143.415 34.347 143.844C34.599 144.264 34.9444 144.595 35.383 144.838C35.831 145.071 36.3397 145.188 36.909 145.188C37.357 145.188 37.7724 145.109 38.155 144.95C38.547 144.791 38.883 144.549 39.163 144.222L39.723 144.866C39.3964 145.258 38.9857 145.557 38.491 145.762C38.0057 145.967 37.469 146.07 36.881 146.07ZM46.6563 144.096L46.6843 142.822L51.2623 138.65H52.4803L49.2463 141.744L48.6863 142.22L46.6563 144.096ZM45.8723 146V135.612H46.8663V146H45.8723ZM51.5703 146L48.5043 142.178L49.1483 141.408L52.7883 146H51.5703ZM58.7498 146V144.376L58.7078 144.11V141.394C58.7078 140.769 58.5305 140.288 58.1758 139.952C57.8305 139.616 57.3125 139.448 56.6218 139.448C56.1458 139.448 55.6931 139.527 55.2638 139.686C54.8345 139.845 54.4705 140.055 54.1718 140.316L53.7238 139.574C54.0971 139.257 54.5451 139.014 55.0678 138.846C55.5905 138.669 56.1411 138.58 56.7198 138.58C57.6718 138.58 58.4045 138.818 58.9178 139.294C59.4405 139.761 59.7018 140.475 59.7018 141.436V146H58.7498ZM56.2158 146.07C55.6651 146.07 55.1845 145.981 54.7738 145.804C54.3725 145.617 54.0645 145.365 53.8498 145.048C53.6351 144.721 53.5278 144.348 53.5278 143.928C53.5278 143.545 53.6165 143.2 53.7938 142.892C53.9805 142.575 54.2791 142.323 54.6898 142.136C55.1098 141.94 55.6698 141.842 56.3698 141.842H58.9038V142.584H56.3978C55.6885 142.584 55.1938 142.71 54.9138 142.962C54.6431 143.214 54.5078 143.527 54.5078 143.9C54.5078 144.32 54.6711 144.656 54.9978 144.908C55.3245 145.16 55.7818 145.286 56.3698 145.286C56.9298 145.286 57.4105 145.16 57.8118 144.908C58.2225 144.647 58.5211 144.273 58.7078 143.788L58.9318 144.474C58.7451 144.959 58.4185 145.347 57.9518 145.636C57.4945 145.925 56.9158 146.07 56.2158 146.07ZM65.4396 146.07C64.8143 146.07 64.2683 145.953 63.8016 145.72C63.335 145.487 62.971 145.137 62.7096 144.67C62.4576 144.203 62.3316 143.62 62.3316 142.92V138.65H63.3256V142.808C63.3256 143.592 63.517 144.185 63.8996 144.586C64.2916 144.978 64.8376 145.174 65.5376 145.174C66.051 145.174 66.4943 145.071 66.8676 144.866C67.2503 144.651 67.5396 144.343 67.7356 143.942C67.941 143.541 68.0436 143.06 68.0436 142.5V138.65H69.0376V146H68.0856V143.984L68.2396 144.348C68.0063 144.889 67.6423 145.314 67.1476 145.622C66.6623 145.921 66.093 146.07 65.4396 146.07ZM71.9759 146V137.726C71.9759 137.073 72.1672 136.545 72.5499 136.144C72.9325 135.743 73.4832 135.542 74.2019 135.542C74.4819 135.542 74.7525 135.579 75.0139 135.654C75.2752 135.729 75.4945 135.845 75.6719 136.004L75.3359 136.746C75.1959 136.625 75.0325 136.536 74.8459 136.48C74.6592 136.415 74.4585 136.382 74.2439 136.382C73.8239 136.382 73.5019 136.499 73.2779 136.732C73.0539 136.965 72.9419 137.311 72.9419 137.768V138.888L72.9699 139.35V146H71.9759ZM70.6599 139.476V138.65H75.2099V139.476H70.6599ZM79.551 146.07C78.7856 146.07 78.1136 145.911 77.535 145.594C76.9563 145.267 76.5036 144.824 76.177 144.264C75.8503 143.695 75.687 143.046 75.687 142.318C75.687 141.59 75.841 140.946 76.149 140.386C76.4663 139.826 76.8956 139.387 77.437 139.07C77.9876 138.743 78.6036 138.58 79.285 138.58C79.9756 138.58 80.587 138.739 81.119 139.056C81.6603 139.364 82.085 139.803 82.393 140.372C82.701 140.932 82.855 141.581 82.855 142.318C82.855 142.365 82.8503 142.416 82.841 142.472C82.841 142.519 82.841 142.57 82.841 142.626H76.443V141.884H82.309L81.917 142.178C81.917 141.646 81.8003 141.175 81.567 140.764C81.343 140.344 81.035 140.017 80.643 139.784C80.251 139.551 79.7983 139.434 79.285 139.434C78.781 139.434 78.3283 139.551 77.927 139.784C77.5256 140.017 77.213 140.344 76.989 140.764C76.765 141.184 76.653 141.665 76.653 142.206V142.36C76.653 142.92 76.7743 143.415 77.017 143.844C77.269 144.264 77.6143 144.595 78.053 144.838C78.501 145.071 79.0096 145.188 79.579 145.188C80.027 145.188 80.4423 145.109 80.825 144.95C81.217 144.791 81.553 144.549 81.833 144.222L82.393 144.866C82.0663 145.258 81.6556 145.557 81.161 145.762C80.6756 145.967 80.139 146.07 79.551 146.07ZM88.6302 138.58C89.2275 138.58 89.7502 138.697 90.1982 138.93C90.6555 139.154 91.0102 139.499 91.2622 139.966C91.5235 140.433 91.6542 141.021 91.6542 141.73V146H90.6602V141.828C90.6602 141.053 90.4642 140.47 90.0722 140.078C89.6895 139.677 89.1482 139.476 88.4482 139.476C87.9255 139.476 87.4682 139.583 87.0762 139.798C86.6935 140.003 86.3949 140.307 86.1802 140.708C85.9749 141.1 85.8722 141.576 85.8722 142.136V146H84.8782V138.65H85.8302V140.666L85.6762 140.288C85.9095 139.756 86.2829 139.341 86.7962 139.042C87.3095 138.734 87.9209 138.58 88.6302 138.58ZM99.1372 140.946H104.317V141.842H99.1372V140.946ZM99.2492 146H98.2132V136.2H104.933V137.096H99.2492V146ZM109.654 146.07C109.029 146.07 108.483 145.953 108.016 145.72C107.55 145.487 107.186 145.137 106.924 144.67C106.672 144.203 106.546 143.62 106.546 142.92V138.65H107.54V142.808C107.54 143.592 107.732 144.185 108.114 144.586C108.506 144.978 109.052 145.174 109.752 145.174C110.266 145.174 110.709 145.071 111.082 144.866C111.465 144.651 111.754 144.343 111.95 143.942C112.156 143.541 112.258 143.06 112.258 142.5V138.65H113.252V146H112.3V143.984L112.454 144.348C112.221 144.889 111.857 145.314 111.362 145.622C110.877 145.921 110.308 146.07 109.654 146.07ZM118.347 146.07C117.656 146.07 117.124 145.883 116.751 145.51C116.377 145.137 116.191 144.609 116.191 143.928V137.026H117.185V143.872C117.185 144.301 117.292 144.633 117.507 144.866C117.731 145.099 118.048 145.216 118.459 145.216C118.897 145.216 119.261 145.09 119.551 144.838L119.901 145.552C119.705 145.729 119.467 145.86 119.187 145.944C118.916 146.028 118.636 146.07 118.347 146.07ZM114.875 139.476V138.65H119.425V139.476H114.875ZM124.748 146.07C124.123 146.07 123.577 145.953 123.11 145.72C122.644 145.487 122.28 145.137 122.018 144.67C121.766 144.203 121.64 143.62 121.64 142.92V138.65H122.634V142.808C122.634 143.592 122.826 144.185 123.208 144.586C123.6 144.978 124.146 145.174 124.846 145.174C125.36 145.174 125.803 145.071 126.176 144.866C126.559 144.651 126.848 144.343 127.044 143.942C127.25 143.541 127.352 143.06 127.352 142.5V138.65H128.346V146H127.394V143.984L127.548 144.348C127.315 144.889 126.951 145.314 126.456 145.622C125.971 145.921 125.402 146.07 124.748 146.07ZM131.116 146V138.65H132.068V140.652L131.97 140.302C132.176 139.742 132.521 139.317 133.006 139.028C133.492 138.729 134.094 138.58 134.812 138.58V139.546C134.775 139.546 134.738 139.546 134.7 139.546C134.663 139.537 134.626 139.532 134.588 139.532C133.814 139.532 133.207 139.77 132.768 140.246C132.33 140.713 132.11 141.38 132.11 142.248V146H131.116ZM139.68 146.07C138.915 146.07 138.243 145.911 137.664 145.594C137.085 145.267 136.633 144.824 136.306 144.264C135.979 143.695 135.816 143.046 135.816 142.318C135.816 141.59 135.97 140.946 136.278 140.386C136.595 139.826 137.025 139.387 137.566 139.07C138.117 138.743 138.733 138.58 139.414 138.58C140.105 138.58 140.716 138.739 141.248 139.056C141.789 139.364 142.214 139.803 142.522 140.372C142.83 140.932 142.984 141.581 142.984 142.318C142.984 142.365 142.979 142.416 142.97 142.472C142.97 142.519 142.97 142.57 142.97 142.626H136.572V141.884H142.438L142.046 142.178C142.046 141.646 141.929 141.175 141.696 140.764C141.472 140.344 141.164 140.017 140.772 139.784C140.38 139.551 139.927 139.434 139.414 139.434C138.91 139.434 138.457 139.551 138.056 139.784C137.655 140.017 137.342 140.344 137.118 140.764C136.894 141.184 136.782 141.665 136.782 142.206V142.36C136.782 142.92 136.903 143.415 137.146 143.844C137.398 144.264 137.743 144.595 138.182 144.838C138.63 145.071 139.139 145.188 139.708 145.188C140.156 145.188 140.571 145.109 140.954 144.95C141.346 144.791 141.682 144.549 141.962 144.222L142.522 144.866C142.195 145.258 141.785 145.557 141.29 145.762C140.805 145.967 140.268 146.07 139.68 146.07ZM146.981 146.07C146.374 146.07 145.8 145.986 145.259 145.818C144.718 145.641 144.293 145.421 143.985 145.16L144.433 144.376C144.732 144.6 145.114 144.796 145.581 144.964C146.048 145.123 146.538 145.202 147.051 145.202C147.751 145.202 148.255 145.095 148.563 144.88C148.871 144.656 149.025 144.362 149.025 143.998C149.025 143.727 148.936 143.517 148.759 143.368C148.591 143.209 148.367 143.093 148.087 143.018C147.807 142.934 147.494 142.864 147.149 142.808C146.804 142.752 146.458 142.687 146.113 142.612C145.777 142.537 145.469 142.43 145.189 142.29C144.909 142.141 144.68 141.94 144.503 141.688C144.335 141.436 144.251 141.1 144.251 140.68C144.251 140.279 144.363 139.919 144.587 139.602C144.811 139.285 145.138 139.037 145.567 138.86C146.006 138.673 146.538 138.58 147.163 138.58C147.639 138.58 148.115 138.645 148.591 138.776C149.067 138.897 149.459 139.061 149.767 139.266L149.333 140.064C149.006 139.84 148.656 139.681 148.283 139.588C147.91 139.485 147.536 139.434 147.163 139.434C146.5 139.434 146.01 139.551 145.693 139.784C145.385 140.008 145.231 140.297 145.231 140.652C145.231 140.932 145.315 141.151 145.483 141.31C145.66 141.469 145.889 141.595 146.169 141.688C146.458 141.772 146.771 141.842 147.107 141.898C147.452 141.954 147.793 142.024 148.129 142.108C148.474 142.183 148.787 142.29 149.067 142.43C149.356 142.561 149.585 142.752 149.753 143.004C149.93 143.247 150.019 143.569 150.019 143.97C150.019 144.399 149.898 144.773 149.655 145.09C149.422 145.398 149.076 145.641 148.619 145.818C148.171 145.986 147.625 146.07 146.981 146.07ZM154.709 146V145.342L159.609 139.14L159.819 139.476H154.793V138.65H160.603V139.294L155.717 145.51L155.465 145.174H160.701V146H154.709ZM165.695 146.07C165.07 146.07 164.524 145.953 164.057 145.72C163.591 145.487 163.227 145.137 162.965 144.67C162.713 144.203 162.587 143.62 162.587 142.92V138.65H163.581V142.808C163.581 143.592 163.773 144.185 164.155 144.586C164.547 144.978 165.093 145.174 165.793 145.174C166.307 145.174 166.75 145.071 167.123 144.866C167.506 144.651 167.795 144.343 167.991 143.942C168.197 143.541 168.299 143.06 168.299 142.5V138.65H169.293V146H168.341V143.984L168.495 144.348C168.262 144.889 167.898 145.314 167.403 145.622C166.918 145.921 166.349 146.07 165.695 146.07ZM178.654 146.07C177.954 146.07 177.324 145.911 176.764 145.594C176.213 145.277 175.779 144.838 175.462 144.278C175.144 143.709 174.986 143.055 174.986 142.318C174.986 141.571 175.144 140.918 175.462 140.358C175.779 139.798 176.213 139.364 176.764 139.056C177.324 138.739 177.954 138.58 178.654 138.58C179.298 138.58 179.872 138.725 180.376 139.014C180.889 139.303 181.295 139.728 181.594 140.288C181.902 140.839 182.056 141.515 182.056 142.318C182.056 143.111 181.906 143.788 181.608 144.348C181.309 144.908 180.903 145.337 180.39 145.636C179.886 145.925 179.307 146.07 178.654 146.07ZM178.724 145.188C179.246 145.188 179.713 145.071 180.124 144.838C180.544 144.595 180.87 144.259 181.104 143.83C181.346 143.391 181.468 142.887 181.468 142.318C181.468 141.739 181.346 141.235 181.104 140.806C180.87 140.377 180.544 140.045 180.124 139.812C179.713 139.569 179.246 139.448 178.724 139.448C178.21 139.448 177.748 139.569 177.338 139.812C176.927 140.045 176.6 140.377 176.358 140.806C176.115 141.235 175.994 141.739 175.994 142.318C175.994 142.887 176.115 143.391 176.358 143.83C176.6 144.259 176.927 144.595 177.338 144.838C177.748 145.071 178.21 145.188 178.724 145.188ZM181.496 146V143.788L181.594 142.304L181.454 140.82V135.612H182.448V146H181.496ZM185.216 146V138.65H186.21V146H185.216ZM185.72 137.026C185.515 137.026 185.342 136.956 185.202 136.816C185.062 136.676 184.992 136.508 184.992 136.312C184.992 136.116 185.062 135.953 185.202 135.822C185.342 135.682 185.515 135.612 185.72 135.612C185.925 135.612 186.098 135.677 186.238 135.808C186.378 135.939 186.448 136.102 186.448 136.298C186.448 136.503 186.378 136.676 186.238 136.816C186.107 136.956 185.935 137.026 185.72 137.026ZM192.098 146.07C191.333 146.07 190.661 145.911 190.082 145.594C189.503 145.267 189.051 144.824 188.724 144.264C188.397 143.695 188.234 143.046 188.234 142.318C188.234 141.59 188.388 140.946 188.696 140.386C189.013 139.826 189.443 139.387 189.984 139.07C190.535 138.743 191.151 138.58 191.832 138.58C192.523 138.58 193.134 138.739 193.666 139.056C194.207 139.364 194.632 139.803 194.94 140.372C195.248 140.932 195.402 141.581 195.402 142.318C195.402 142.365 195.397 142.416 195.388 142.472C195.388 142.519 195.388 142.57 195.388 142.626H188.99V141.884H194.856L194.464 142.178C194.464 141.646 194.347 141.175 194.114 140.764C193.89 140.344 193.582 140.017 193.19 139.784C192.798 139.551 192.345 139.434 191.832 139.434C191.328 139.434 190.875 139.551 190.474 139.784C190.073 140.017 189.76 140.344 189.536 140.764C189.312 141.184 189.2 141.665 189.2 142.206V142.36C189.2 142.92 189.321 143.415 189.564 143.844C189.816 144.264 190.161 144.595 190.6 144.838C191.048 145.071 191.557 145.188 192.126 145.188C192.574 145.188 192.989 145.109 193.372 144.95C193.764 144.791 194.1 144.549 194.38 144.222L194.94 144.866C194.613 145.258 194.203 145.557 193.708 145.762C193.223 145.967 192.686 146.07 192.098 146.07ZM199.399 146.07C198.792 146.07 198.218 145.986 197.677 145.818C197.136 145.641 196.711 145.421 196.403 145.16L196.851 144.376C197.15 144.6 197.532 144.796 197.999 144.964C198.466 145.123 198.956 145.202 199.469 145.202C200.169 145.202 200.673 145.095 200.981 144.88C201.289 144.656 201.443 144.362 201.443 143.998C201.443 143.727 201.354 143.517 201.177 143.368C201.009 143.209 200.785 143.093 200.505 143.018C200.225 142.934 199.912 142.864 199.567 142.808C199.222 142.752 198.876 142.687 198.531 142.612C198.195 142.537 197.887 142.43 197.607 142.29C197.327 142.141 197.098 141.94 196.921 141.688C196.753 141.436 196.669 141.1 196.669 140.68C196.669 140.279 196.781 139.919 197.005 139.602C197.229 139.285 197.556 139.037 197.985 138.86C198.424 138.673 198.956 138.58 199.581 138.58C200.057 138.58 200.533 138.645 201.009 138.776C201.485 138.897 201.877 139.061 202.185 139.266L201.751 140.064C201.424 139.84 201.074 139.681 200.701 139.588C200.328 139.485 199.954 139.434 199.581 139.434C198.918 139.434 198.428 139.551 198.111 139.784C197.803 140.008 197.649 140.297 197.649 140.652C197.649 140.932 197.733 141.151 197.901 141.31C198.078 141.469 198.307 141.595 198.587 141.688C198.876 141.772 199.189 141.842 199.525 141.898C199.87 141.954 200.211 142.024 200.547 142.108C200.892 142.183 201.205 142.29 201.485 142.43C201.774 142.561 202.003 142.752 202.171 143.004C202.348 143.247 202.437 143.569 202.437 143.97C202.437 144.399 202.316 144.773 202.073 145.09C201.84 145.398 201.494 145.641 201.037 145.818C200.589 145.986 200.043 146.07 199.399 146.07ZM207.383 146.07C206.618 146.07 205.946 145.911 205.367 145.594C204.788 145.267 204.336 144.824 204.009 144.264C203.682 143.695 203.519 143.046 203.519 142.318C203.519 141.59 203.673 140.946 203.981 140.386C204.298 139.826 204.728 139.387 205.269 139.07C205.82 138.743 206.436 138.58 207.117 138.58C207.808 138.58 208.419 138.739 208.951 139.056C209.492 139.364 209.917 139.803 210.225 140.372C210.533 140.932 210.687 141.581 210.687 142.318C210.687 142.365 210.682 142.416 210.673 142.472C210.673 142.519 210.673 142.57 210.673 142.626H204.275V141.884H210.141L209.749 142.178C209.749 141.646 209.632 141.175 209.399 140.764C209.175 140.344 208.867 140.017 208.475 139.784C208.083 139.551 207.63 139.434 207.117 139.434C206.613 139.434 206.16 139.551 205.759 139.784C205.358 140.017 205.045 140.344 204.821 140.764C204.597 141.184 204.485 141.665 204.485 142.206V142.36C204.485 142.92 204.606 143.415 204.849 143.844C205.101 144.264 205.446 144.595 205.885 144.838C206.333 145.071 206.842 145.188 207.411 145.188C207.859 145.188 208.274 145.109 208.657 144.95C209.049 144.791 209.385 144.549 209.665 144.222L210.225 144.866C209.898 145.258 209.488 145.557 208.993 145.762C208.508 145.967 207.971 146.07 207.383 146.07ZM221.894 138.58C222.492 138.58 223.01 138.697 223.448 138.93C223.896 139.154 224.242 139.499 224.484 139.966C224.736 140.433 224.862 141.021 224.862 141.73V146H223.868V141.828C223.868 141.053 223.682 140.47 223.308 140.078C222.944 139.677 222.426 139.476 221.754 139.476C221.25 139.476 220.812 139.583 220.438 139.798C220.074 140.003 219.79 140.307 219.584 140.708C219.388 141.1 219.29 141.576 219.29 142.136V146H218.296V141.828C218.296 141.053 218.11 140.47 217.736 140.078C217.363 139.677 216.84 139.476 216.168 139.476C215.674 139.476 215.24 139.583 214.866 139.798C214.493 140.003 214.204 140.307 213.998 140.708C213.802 141.1 213.704 141.576 213.704 142.136V146H212.71V138.65H213.662V140.638L213.508 140.288C213.732 139.756 214.092 139.341 214.586 139.042C215.09 138.734 215.683 138.58 216.364 138.58C217.083 138.58 217.694 138.762 218.198 139.126C218.702 139.481 219.029 140.017 219.178 140.736L218.786 140.582C219.001 139.985 219.379 139.504 219.92 139.14C220.471 138.767 221.129 138.58 221.894 138.58ZM231.432 146V136.2H235.1C235.931 136.2 236.645 136.335 237.242 136.606C237.839 136.867 238.297 137.25 238.614 137.754C238.941 138.249 239.104 138.851 239.104 139.56C239.104 140.251 238.941 140.848 238.614 141.352C238.297 141.847 237.839 142.229 237.242 142.5C236.645 142.771 235.931 142.906 235.1 142.906H232.006L232.468 142.416V146H231.432ZM232.468 142.5L232.006 141.996H235.072C236.052 141.996 236.794 141.786 237.298 141.366C237.811 140.937 238.068 140.335 238.068 139.56C238.068 138.776 237.811 138.169 237.298 137.74C236.794 137.311 236.052 137.096 235.072 137.096H232.006L232.468 136.606V142.5ZM240.956 146V138.65H241.908V140.652L241.81 140.302C242.016 139.742 242.361 139.317 242.846 139.028C243.332 138.729 243.934 138.58 244.652 138.58V139.546C244.615 139.546 244.578 139.546 244.54 139.546C244.503 139.537 244.466 139.532 244.428 139.532C243.654 139.532 243.047 139.77 242.608 140.246C242.17 140.713 241.95 141.38 241.95 142.248V146H240.956ZM249.52 146.07C248.754 146.07 248.082 145.911 247.504 145.594C246.925 145.267 246.472 144.824 246.146 144.264C245.819 143.695 245.656 143.046 245.656 142.318C245.656 141.59 245.81 140.946 246.118 140.386C246.435 139.826 246.864 139.387 247.406 139.07C247.956 138.743 248.572 138.58 249.254 138.58C249.944 138.58 250.556 138.739 251.088 139.056C251.629 139.364 252.054 139.803 252.362 140.372C252.67 140.932 252.824 141.581 252.824 142.318C252.824 142.365 252.819 142.416 252.81 142.472C252.81 142.519 252.81 142.57 252.81 142.626H246.412V141.884H252.278L251.886 142.178C251.886 141.646 251.769 141.175 251.536 140.764C251.312 140.344 251.004 140.017 250.612 139.784C250.22 139.551 249.767 139.434 249.254 139.434C248.75 139.434 248.297 139.551 247.896 139.784C247.494 140.017 247.182 140.344 246.958 140.764C246.734 141.184 246.622 141.665 246.622 142.206V142.36C246.622 142.92 246.743 143.415 246.986 143.844C247.238 144.264 247.583 144.595 248.022 144.838C248.47 145.071 248.978 145.188 249.548 145.188C249.996 145.188 250.411 145.109 250.794 144.95C251.186 144.791 251.522 144.549 251.802 144.222L252.362 144.866C252.035 145.258 251.624 145.557 251.13 145.762C250.644 145.967 250.108 146.07 249.52 146.07ZM254.847 146V138.65H255.841V146H254.847ZM255.351 137.026C255.146 137.026 254.973 136.956 254.833 136.816C254.693 136.676 254.623 136.508 254.623 136.312C254.623 136.116 254.693 135.953 254.833 135.822C254.973 135.682 255.146 135.612 255.351 135.612C255.556 135.612 255.729 135.677 255.869 135.808C256.009 135.939 256.079 136.102 256.079 136.298C256.079 136.503 256.009 136.676 255.869 136.816C255.738 136.956 255.566 137.026 255.351 137.026ZM260.581 146.07C259.974 146.07 259.4 145.986 258.859 145.818C258.317 145.641 257.893 145.421 257.585 145.16L258.033 144.376C258.331 144.6 258.714 144.796 259.181 144.964C259.647 145.123 260.137 145.202 260.651 145.202C261.351 145.202 261.855 145.095 262.163 144.88C262.471 144.656 262.625 144.362 262.625 143.998C262.625 143.727 262.536 143.517 262.359 143.368C262.191 143.209 261.967 143.093 261.687 143.018C261.407 142.934 261.094 142.864 260.749 142.808C260.403 142.752 260.058 142.687 259.713 142.612C259.377 142.537 259.069 142.43 258.789 142.29C258.509 142.141 258.28 141.94 258.103 141.688C257.935 141.436 257.851 141.1 257.851 140.68C257.851 140.279 257.963 139.919 258.187 139.602C258.411 139.285 258.737 139.037 259.167 138.86C259.605 138.673 260.137 138.58 260.763 138.58C261.239 138.58 261.715 138.645 262.191 138.776C262.667 138.897 263.059 139.061 263.367 139.266L262.933 140.064C262.606 139.84 262.256 139.681 261.883 139.588C261.509 139.485 261.136 139.434 260.763 139.434C260.1 139.434 259.61 139.551 259.293 139.784C258.985 140.008 258.831 140.297 258.831 140.652C258.831 140.932 258.915 141.151 259.083 141.31C259.26 141.469 259.489 141.595 259.769 141.688C260.058 141.772 260.371 141.842 260.707 141.898C261.052 141.954 261.393 142.024 261.729 142.108C262.074 142.183 262.387 142.29 262.667 142.43C262.956 142.561 263.185 142.752 263.353 143.004C263.53 143.247 263.619 143.569 263.619 143.97C263.619 144.399 263.497 144.773 263.255 145.09C263.021 145.398 262.676 145.641 262.219 145.818C261.771 145.986 261.225 146.07 260.581 146.07Z" fill="#214B33"/>
<path d="M11 153L217 153" stroke="#214B33"/>
<path d="M21.596 95V85.2H22.632V95H21.596ZM29.3626 87.58C29.9599 87.58 30.4826 87.6967 30.9306 87.93C31.3879 88.154 31.7426 88.4993 31.9946 88.966C32.2559 89.4327 32.3866 90.0207 32.3866 90.73V95H31.3926V90.828C31.3926 90.0533 31.1966 89.47 30.8046 89.078C30.4219 88.6767 29.8806 88.476 29.1806 88.476C28.6579 88.476 28.2006 88.5833 27.8086 88.798C27.4259 89.0033 27.1273 89.3067 26.9126 89.708C26.7073 90.1 26.6046 90.576 26.6046 91.136V95H25.6106V84.612H26.6046V89.666L26.4086 89.288C26.6419 88.756 27.0153 88.3407 27.5286 88.042C28.0419 87.734 28.6533 87.58 29.3626 87.58ZM35.0715 95V87.65H36.0235V89.652L35.9255 89.302C36.1309 88.742 36.4762 88.3173 36.9615 88.028C37.4469 87.7293 38.0489 87.58 38.7675 87.58V88.546C38.7302 88.546 38.6929 88.546 38.6555 88.546C38.6182 88.5367 38.5809 88.532 38.5435 88.532C37.7689 88.532 37.1622 88.77 36.7235 89.246C36.2849 89.7127 36.0655 90.38 36.0655 91.248V95H35.0715ZM47.3508 95L43.0108 85.2H44.1308L48.1908 94.426H47.5748L51.6628 85.2H52.7128L48.3728 95H47.3508ZM56.3605 95.07C55.6512 95.07 55.0118 94.9113 54.4425 94.594C53.8825 94.2673 53.4392 93.824 53.1125 93.264C52.7858 92.6947 52.6225 92.046 52.6225 91.318C52.6225 90.5807 52.7858 89.932 53.1125 89.372C53.4392 88.812 53.8825 88.3733 54.4425 88.056C55.0025 87.7387 55.6418 87.58 56.3605 87.58C57.0885 87.58 57.7325 87.7387 58.2925 88.056C58.8618 88.3733 59.3052 88.812 59.6225 89.372C59.9492 89.932 60.1125 90.5807 60.1125 91.318C60.1125 92.046 59.9492 92.6947 59.6225 93.264C59.3052 93.824 58.8618 94.2673 58.2925 94.594C57.7232 94.9113 57.0792 95.07 56.3605 95.07ZM56.3605 94.188C56.8925 94.188 57.3638 94.0713 57.7745 93.838C58.1852 93.5953 58.5072 93.2593 58.7405 92.83C58.9832 92.3913 59.1045 91.8873 59.1045 91.318C59.1045 90.7393 58.9832 90.2353 58.7405 89.806C58.5072 89.3767 58.1852 89.0453 57.7745 88.812C57.3638 88.5693 56.8972 88.448 56.3745 88.448C55.8518 88.448 55.3852 88.5693 54.9745 88.812C54.5638 89.0453 54.2372 89.3767 53.9945 89.806C53.7518 90.2353 53.6305 90.7393 53.6305 91.318C53.6305 91.8873 53.7518 92.3913 53.9945 92.83C54.2372 93.2593 54.5638 93.5953 54.9745 93.838C55.3852 94.0713 55.8472 94.188 56.3605 94.188ZM62.1419 95V87.65H63.0939V89.652L62.9959 89.302C63.2012 88.742 63.5465 88.3173 64.0319 88.028C64.5172 87.7293 65.1192 87.58 65.8379 87.58V88.546C65.8005 88.546 65.7632 88.546 65.7259 88.546C65.6885 88.5367 65.6512 88.532 65.6139 88.532C64.8392 88.532 64.2325 88.77 63.7939 89.246C63.3552 89.7127 63.1359 90.38 63.1359 91.248V95H62.1419ZM70.2901 95.07C69.5994 95.07 69.0674 94.8833 68.6941 94.51C68.3207 94.1367 68.1341 93.6093 68.1341 92.928V86.026H69.1281V92.872C69.1281 93.3013 69.2354 93.6327 69.4501 93.866C69.6741 94.0993 69.9914 94.216 70.4021 94.216C70.8407 94.216 71.2047 94.09 71.4941 93.838L71.8441 94.552C71.6481 94.7293 71.4101 94.86 71.1301 94.944C70.8594 95.028 70.5794 95.07 70.2901 95.07ZM66.8181 88.476V87.65H71.3681V88.476H66.8181ZM76.5158 95.07C75.7505 95.07 75.0785 94.9113 74.4998 94.594C73.9211 94.2673 73.4685 93.824 73.1418 93.264C72.8151 92.6947 72.6518 92.046 72.6518 91.318C72.6518 90.59 72.8058 89.946 73.1138 89.386C73.4311 88.826 73.8605 88.3873 74.4018 88.07C74.9525 87.7433 75.5685 87.58 76.2498 87.58C76.9405 87.58 77.5518 87.7387 78.0838 88.056C78.6251 88.364 79.0498 88.8027 79.3578 89.372C79.6658 89.932 79.8198 90.5807 79.8198 91.318C79.8198 91.3647 79.8151 91.416 79.8058 91.472C79.8058 91.5187 79.8058 91.57 79.8058 91.626H73.4078V90.884H79.2738L78.8818 91.178C78.8818 90.646 78.7651 90.1747 78.5318 89.764C78.3078 89.344 77.9998 89.0173 77.6078 88.784C77.2158 88.5507 76.7631 88.434 76.2498 88.434C75.7458 88.434 75.2931 88.5507 74.8918 88.784C74.4905 89.0173 74.1778 89.344 73.9538 89.764C73.7298 90.184 73.6178 90.6647 73.6178 91.206V91.36C73.6178 91.92 73.7391 92.4147 73.9818 92.844C74.2338 93.264 74.5791 93.5953 75.0178 93.838C75.4658 94.0713 75.9745 94.188 76.5438 94.188C76.9918 94.188 77.4071 94.1087 77.7898 93.95C78.1818 93.7913 78.5178 93.5487 78.7978 93.222L79.3578 93.866C79.0311 94.258 78.6205 94.5567 78.1258 94.762C77.6405 94.9673 77.1038 95.07 76.5158 95.07ZM81.843 95V87.65H82.837V95H81.843ZM82.347 86.026C82.1417 86.026 81.969 85.956 81.829 85.816C81.689 85.676 81.619 85.508 81.619 85.312C81.619 85.116 81.689 84.9527 81.829 84.822C81.969 84.682 82.1417 84.612 82.347 84.612C82.5524 84.612 82.725 84.6773 82.865 84.808C83.005 84.9387 83.075 85.102 83.075 85.298C83.075 85.5033 83.005 85.676 82.865 85.816C82.7344 85.956 82.5617 86.026 82.347 86.026ZM85.6028 95V84.612H86.5968V95H85.6028Z" fill="#A2C33D"/>
<path d="M106 101L1 101" stroke="#A2C33D"/>
<path d="M119.298 44.084C118.57 44.084 117.87 43.9673 117.198 43.734C116.535 43.4913 116.022 43.1833 115.658 42.81L116.064 42.012C116.409 42.348 116.871 42.6327 117.45 42.866C118.038 43.09 118.654 43.202 119.298 43.202C119.914 43.202 120.413 43.1273 120.796 42.978C121.188 42.8193 121.473 42.6093 121.65 42.348C121.837 42.0867 121.93 41.7973 121.93 41.48C121.93 41.0973 121.818 40.7893 121.594 40.556C121.379 40.3227 121.095 40.1407 120.74 40.01C120.385 39.87 119.993 39.7487 119.564 39.646C119.135 39.5433 118.705 39.436 118.276 39.324C117.847 39.2027 117.45 39.044 117.086 38.848C116.731 38.652 116.442 38.3953 116.218 38.078C116.003 37.7513 115.896 37.3267 115.896 36.804C115.896 36.3187 116.022 35.8753 116.274 35.474C116.535 35.0633 116.932 34.7367 117.464 34.494C117.996 34.242 118.677 34.116 119.508 34.116C120.059 34.116 120.605 34.1953 121.146 34.354C121.687 34.5033 122.154 34.7133 122.546 34.984L122.196 35.81C121.776 35.53 121.328 35.3247 120.852 35.194C120.385 35.0633 119.933 34.998 119.494 34.998C118.906 34.998 118.421 35.0773 118.038 35.236C117.655 35.3947 117.371 35.6093 117.184 35.88C117.007 36.1413 116.918 36.44 116.918 36.776C116.918 37.1587 117.025 37.4667 117.24 37.7C117.464 37.9333 117.753 38.1153 118.108 38.246C118.472 38.3767 118.869 38.4933 119.298 38.596C119.727 38.6987 120.152 38.8107 120.572 38.932C121.001 39.0533 121.393 39.212 121.748 39.408C122.112 39.5947 122.401 39.8467 122.616 40.164C122.84 40.4813 122.952 40.8967 122.952 41.41C122.952 41.886 122.821 42.3293 122.56 42.74C122.299 43.1413 121.897 43.468 121.356 43.72C120.824 43.9627 120.138 44.084 119.298 44.084ZM124.999 44V36.65H125.993V44H124.999ZM125.503 35.026C125.298 35.026 125.125 34.956 124.985 34.816C124.845 34.676 124.775 34.508 124.775 34.312C124.775 34.116 124.845 33.9527 124.985 33.822C125.125 33.682 125.298 33.612 125.503 33.612C125.709 33.612 125.881 33.6773 126.021 33.808C126.161 33.9387 126.231 34.102 126.231 34.298C126.231 34.5033 126.161 34.676 126.021 34.816C125.891 34.956 125.718 35.026 125.503 35.026ZM131.881 44.07C131.116 44.07 130.444 43.9113 129.865 43.594C129.286 43.2673 128.834 42.824 128.507 42.264C128.18 41.6947 128.017 41.046 128.017 40.318C128.017 39.59 128.171 38.946 128.479 38.386C128.796 37.826 129.226 37.3873 129.767 37.07C130.318 36.7433 130.934 36.58 131.615 36.58C132.306 36.58 132.917 36.7387 133.449 37.056C133.99 37.364 134.415 37.8027 134.723 38.372C135.031 38.932 135.185 39.5807 135.185 40.318C135.185 40.3647 135.18 40.416 135.171 40.472C135.171 40.5187 135.171 40.57 135.171 40.626H128.773V39.884H134.639L134.247 40.178C134.247 39.646 134.13 39.1747 133.897 38.764C133.673 38.344 133.365 38.0173 132.973 37.784C132.581 37.5507 132.128 37.434 131.615 37.434C131.111 37.434 130.658 37.5507 130.257 37.784C129.856 38.0173 129.543 38.344 129.319 38.764C129.095 39.184 128.983 39.6647 128.983 40.206V40.36C128.983 40.92 129.104 41.4147 129.347 41.844C129.599 42.264 129.944 42.5953 130.383 42.838C130.831 43.0713 131.34 43.188 131.909 43.188C132.357 43.188 132.772 43.1087 133.155 42.95C133.547 42.7913 133.883 42.5487 134.163 42.222L134.723 42.866C134.396 43.258 133.986 43.5567 133.491 43.762C133.006 43.9673 132.469 44.07 131.881 44.07ZM142.762 44L139.5 36.65H140.536L143.532 43.468H143.042L146.08 36.65H147.06L143.784 44H142.762ZM151.377 44.07C150.612 44.07 149.94 43.9113 149.361 43.594C148.782 43.2673 148.33 42.824 148.003 42.264C147.676 41.6947 147.513 41.046 147.513 40.318C147.513 39.59 147.667 38.946 147.975 38.386C148.292 37.826 148.722 37.3873 149.263 37.07C149.814 36.7433 150.43 36.58 151.111 36.58C151.802 36.58 152.413 36.7387 152.945 37.056C153.486 37.364 153.911 37.8027 154.219 38.372C154.527 38.932 154.681 39.5807 154.681 40.318C154.681 40.3647 154.676 40.416 154.667 40.472C154.667 40.5187 154.667 40.57 154.667 40.626H148.269V39.884H154.135L153.743 40.178C153.743 39.646 153.626 39.1747 153.393 38.764C153.169 38.344 152.861 38.0173 152.469 37.784C152.077 37.5507 151.624 37.434 151.111 37.434C150.607 37.434 150.154 37.5507 149.753 37.784C149.352 38.0173 149.039 38.344 148.815 38.764C148.591 39.184 148.479 39.6647 148.479 40.206V40.36C148.479 40.92 148.6 41.4147 148.843 41.844C149.095 42.264 149.44 42.5953 149.879 42.838C150.327 43.0713 150.836 43.188 151.405 43.188C151.853 43.188 152.268 43.1087 152.651 42.95C153.043 42.7913 153.379 42.5487 153.659 42.222L154.219 42.866C153.892 43.258 153.482 43.5567 152.987 43.762C152.502 43.9673 151.965 44.07 151.377 44.07ZM156.704 44V36.65H157.656V38.652L157.558 38.302C157.764 37.742 158.109 37.3173 158.594 37.028C159.08 36.7293 159.682 36.58 160.4 36.58V37.546C160.363 37.546 160.326 37.546 160.288 37.546C160.251 37.5367 160.214 37.532 160.176 37.532C159.402 37.532 158.795 37.77 158.356 38.246C157.918 38.7127 157.698 39.38 157.698 40.248V44H156.704ZM162.998 42.096L163.026 40.822L167.604 36.65H168.822L165.588 39.744L165.028 40.22L162.998 42.096ZM162.214 44V33.612H163.208V44H162.214ZM167.912 44L164.846 40.178L165.49 39.408L169.13 44H167.912ZM175.092 44V42.376L175.05 42.11V39.394C175.05 38.7687 174.872 38.288 174.518 37.952C174.172 37.616 173.654 37.448 172.964 37.448C172.488 37.448 172.035 37.5273 171.606 37.686C171.176 37.8447 170.812 38.0547 170.514 38.316L170.066 37.574C170.439 37.2567 170.887 37.014 171.41 36.846C171.932 36.6687 172.483 36.58 173.062 36.58C174.014 36.58 174.746 36.818 175.26 37.294C175.782 37.7607 176.044 38.4747 176.044 39.436V44H175.092ZM172.558 44.07C172.007 44.07 171.526 43.9813 171.116 43.804C170.714 43.6173 170.406 43.3653 170.192 43.048C169.977 42.7213 169.87 42.348 169.87 41.928C169.87 41.5453 169.958 41.2 170.136 40.892C170.322 40.5747 170.621 40.3227 171.032 40.136C171.452 39.94 172.012 39.842 172.712 39.842H175.246V40.584H172.74C172.03 40.584 171.536 40.71 171.256 40.962C170.985 41.214 170.85 41.5267 170.85 41.9C170.85 42.32 171.013 42.656 171.34 42.908C171.666 43.16 172.124 43.286 172.712 43.286C173.272 43.286 173.752 43.16 174.154 42.908C174.564 42.6467 174.863 42.2733 175.05 41.788L175.274 42.474C175.087 42.9593 174.76 43.3467 174.294 43.636C173.836 43.9253 173.258 44.07 172.558 44.07ZM181.781 44.07C181.156 44.07 180.61 43.9533 180.143 43.72C179.677 43.4867 179.313 43.1367 179.051 42.67C178.799 42.2033 178.673 41.62 178.673 40.92V36.65H179.667V40.808C179.667 41.592 179.859 42.1847 180.241 42.586C180.633 42.978 181.179 43.174 181.879 43.174C182.393 43.174 182.836 43.0713 183.209 42.866C183.592 42.6513 183.881 42.3433 184.077 41.942C184.283 41.5407 184.385 41.06 184.385 40.5V36.65H185.379V44H184.427V41.984L184.581 42.348C184.348 42.8893 183.984 43.314 183.489 43.622C183.004 43.9207 182.435 44.07 181.781 44.07ZM188.318 44V35.726C188.318 35.0727 188.509 34.5453 188.892 34.144C189.274 33.7427 189.825 33.542 190.544 33.542C190.824 33.542 191.094 33.5793 191.356 33.654C191.617 33.7287 191.836 33.8453 192.014 34.004L191.678 34.746C191.538 34.6247 191.374 34.536 191.188 34.48C191.001 34.4147 190.8 34.382 190.586 34.382C190.166 34.382 189.844 34.4987 189.62 34.732C189.396 34.9653 189.284 35.3107 189.284 35.768V36.888L189.312 37.35V44H188.318ZM187.002 37.476V36.65H191.552V37.476H187.002ZM195.893 44.07C195.127 44.07 194.455 43.9113 193.877 43.594C193.298 43.2673 192.845 42.824 192.519 42.264C192.192 41.6947 192.029 41.046 192.029 40.318C192.029 39.59 192.183 38.946 192.491 38.386C192.808 37.826 193.237 37.3873 193.779 37.07C194.329 36.7433 194.945 36.58 195.627 36.58C196.317 36.58 196.929 36.7387 197.461 37.056C198.002 37.364 198.427 37.8027 198.735 38.372C199.043 38.932 199.197 39.5807 199.197 40.318C199.197 40.3647 199.192 40.416 199.183 40.472C199.183 40.5187 199.183 40.57 199.183 40.626H192.785V39.884H198.651L198.259 40.178C198.259 39.646 198.142 39.1747 197.909 38.764C197.685 38.344 197.377 38.0173 196.985 37.784C196.593 37.5507 196.14 37.434 195.627 37.434C195.123 37.434 194.67 37.5507 194.269 37.784C193.867 38.0173 193.555 38.344 193.331 38.764C193.107 39.184 192.995 39.6647 192.995 40.206V40.36C192.995 40.92 193.116 41.4147 193.359 41.844C193.611 42.264 193.956 42.5953 194.395 42.838C194.843 43.0713 195.351 43.188 195.921 43.188C196.369 43.188 196.784 43.1087 197.167 42.95C197.559 42.7913 197.895 42.5487 198.175 42.222L198.735 42.866C198.408 43.258 197.997 43.5567 197.503 43.762C197.017 43.9673 196.481 44.07 195.893 44.07ZM204.972 36.58C205.569 36.58 206.092 36.6967 206.54 36.93C206.997 37.154 207.352 37.4993 207.604 37.966C207.865 38.4327 207.996 39.0207 207.996 39.73V44H207.002V39.828C207.002 39.0533 206.806 38.47 206.414 38.078C206.031 37.6767 205.49 37.476 204.79 37.476C204.267 37.476 203.81 37.5833 203.418 37.798C203.035 38.0033 202.737 38.3067 202.522 38.708C202.317 39.1 202.214 39.576 202.214 40.136V44H201.22V36.65H202.172V38.666L202.018 38.288C202.251 37.756 202.625 37.3407 203.138 37.042C203.651 36.734 204.263 36.58 204.972 36.58ZM215.479 38.946H220.659V39.842H215.479V38.946ZM215.591 44H214.555V34.2H221.275V35.096H215.591V44ZM225.996 44.07C225.371 44.07 224.825 43.9533 224.358 43.72C223.892 43.4867 223.528 43.1367 223.266 42.67C223.014 42.2033 222.888 41.62 222.888 40.92V36.65H223.882V40.808C223.882 41.592 224.074 42.1847 224.456 42.586C224.848 42.978 225.394 43.174 226.094 43.174C226.608 43.174 227.051 43.0713 227.424 42.866C227.807 42.6513 228.096 42.3433 228.292 41.942C228.498 41.5407 228.6 41.06 228.6 40.5V36.65H229.594V44H228.642V41.984L228.796 42.348C228.563 42.8893 228.199 43.314 227.704 43.622C227.219 43.9207 226.65 44.07 225.996 44.07ZM234.689 44.07C233.998 44.07 233.466 43.8833 233.093 43.51C232.719 43.1367 232.533 42.6093 232.533 41.928V35.026H233.527V41.872C233.527 42.3013 233.634 42.6327 233.849 42.866C234.073 43.0993 234.39 43.216 234.801 43.216C235.239 43.216 235.603 43.09 235.893 42.838L236.243 43.552C236.047 43.7293 235.809 43.86 235.529 43.944C235.258 44.028 234.978 44.07 234.689 44.07ZM231.217 37.476V36.65H235.767V37.476H231.217ZM241.09 44.07C240.465 44.07 239.919 43.9533 239.452 43.72C238.985 43.4867 238.621 43.1367 238.36 42.67C238.108 42.2033 237.982 41.62 237.982 40.92V36.65H238.976V40.808C238.976 41.592 239.167 42.1847 239.55 42.586C239.942 42.978 240.488 43.174 241.188 43.174C241.701 43.174 242.145 43.0713 242.518 42.866C242.901 42.6513 243.19 42.3433 243.386 41.942C243.591 41.5407 243.694 41.06 243.694 40.5V36.65H244.688V44H243.736V41.984L243.89 42.348C243.657 42.8893 243.293 43.314 242.798 43.622C242.313 43.9207 241.743 44.07 241.09 44.07ZM247.458 44V36.65H248.41V38.652L248.312 38.302C248.518 37.742 248.863 37.3173 249.348 37.028C249.834 36.7293 250.436 36.58 251.154 36.58V37.546C251.117 37.546 251.08 37.546 251.042 37.546C251.005 37.5367 250.968 37.532 250.93 37.532C250.156 37.532 249.549 37.77 249.11 38.246C248.672 38.7127 248.452 39.38 248.452 40.248V44H247.458ZM256.022 44.07C255.256 44.07 254.584 43.9113 254.006 43.594C253.427 43.2673 252.974 42.824 252.648 42.264C252.321 41.6947 252.158 41.046 252.158 40.318C252.158 39.59 252.312 38.946 252.62 38.386C252.937 37.826 253.366 37.3873 253.908 37.07C254.458 36.7433 255.074 36.58 255.756 36.58C256.446 36.58 257.058 36.7387 257.59 37.056C258.131 37.364 258.556 37.8027 258.864 38.372C259.172 38.932 259.326 39.5807 259.326 40.318C259.326 40.3647 259.321 40.416 259.312 40.472C259.312 40.5187 259.312 40.57 259.312 40.626H252.914V39.884H258.78L258.388 40.178C258.388 39.646 258.271 39.1747 258.038 38.764C257.814 38.344 257.506 38.0173 257.114 37.784C256.722 37.5507 256.269 37.434 255.756 37.434C255.252 37.434 254.799 37.5507 254.398 37.784C253.996 38.0173 253.684 38.344 253.46 38.764C253.236 39.184 253.124 39.6647 253.124 40.206V40.36C253.124 40.92 253.245 41.4147 253.488 41.844C253.74 42.264 254.085 42.5953 254.524 42.838C254.972 43.0713 255.48 43.188 256.05 43.188C256.498 43.188 256.913 43.1087 257.296 42.95C257.688 42.7913 258.024 42.5487 258.304 42.222L258.864 42.866C258.537 43.258 258.126 43.5567 257.632 43.762C257.146 43.9673 256.61 44.07 256.022 44.07ZM263.323 44.07C262.716 44.07 262.142 43.986 261.601 43.818C261.06 43.6407 260.635 43.4213 260.327 43.16L260.775 42.376C261.074 42.6 261.456 42.796 261.923 42.964C262.39 43.1227 262.88 43.202 263.393 43.202C264.093 43.202 264.597 43.0947 264.905 42.88C265.213 42.656 265.367 42.362 265.367 41.998C265.367 41.7273 265.278 41.5173 265.101 41.368C264.933 41.2093 264.709 41.0927 264.429 41.018C264.149 40.934 263.836 40.864 263.491 40.808C263.146 40.752 262.8 40.6867 262.455 40.612C262.119 40.5373 261.811 40.43 261.531 40.29C261.251 40.1407 261.022 39.94 260.845 39.688C260.677 39.436 260.593 39.1 260.593 38.68C260.593 38.2787 260.705 37.9193 260.929 37.602C261.153 37.2847 261.48 37.0373 261.909 36.86C262.348 36.6733 262.88 36.58 263.505 36.58C263.981 36.58 264.457 36.6453 264.933 36.776C265.409 36.8973 265.801 37.0607 266.109 37.266L265.675 38.064C265.348 37.84 264.998 37.6813 264.625 37.588C264.252 37.4853 263.878 37.434 263.505 37.434C262.842 37.434 262.352 37.5507 262.035 37.784C261.727 38.008 261.573 38.2973 261.573 38.652C261.573 38.932 261.657 39.1513 261.825 39.31C262.002 39.4687 262.231 39.5947 262.511 39.688C262.8 39.772 263.113 39.842 263.449 39.898C263.794 39.954 264.135 40.024 264.471 40.108C264.816 40.1827 265.129 40.29 265.409 40.43C265.698 40.5607 265.927 40.752 266.095 41.004C266.272 41.2467 266.361 41.5687 266.361 41.97C266.361 42.3993 266.24 42.7727 265.997 43.09C265.764 43.398 265.418 43.6407 264.961 43.818C264.513 43.986 263.967 44.07 263.323 44.07ZM271.051 44V43.342L275.951 37.14L276.161 37.476H271.135V36.65H276.945V37.294L272.059 43.51L271.807 43.174H277.043V44H271.051ZM282.037 44.07C281.412 44.07 280.866 43.9533 280.399 43.72C279.933 43.4867 279.569 43.1367 279.307 42.67C279.055 42.2033 278.929 41.62 278.929 40.92V36.65H279.923V40.808C279.923 41.592 280.115 42.1847 280.497 42.586C280.889 42.978 281.435 43.174 282.135 43.174C282.649 43.174 283.092 43.0713 283.465 42.866C283.848 42.6513 284.137 42.3433 284.333 41.942C284.539 41.5407 284.641 41.06 284.641 40.5V36.65H285.635V44H284.683V41.984L284.837 42.348C284.604 42.8893 284.24 43.314 283.745 43.622C283.26 43.9207 282.691 44.07 282.037 44.07ZM119.312 67.07C118.612 67.07 117.982 66.9113 117.422 66.594C116.871 66.2767 116.437 65.838 116.12 65.278C115.803 64.7087 115.644 64.0553 115.644 63.318C115.644 62.5713 115.803 61.918 116.12 61.358C116.437 60.798 116.871 60.364 117.422 60.056C117.982 59.7387 118.612 59.58 119.312 59.58C119.956 59.58 120.53 59.7247 121.034 60.014C121.547 60.3033 121.953 60.728 122.252 61.288C122.56 61.8387 122.714 62.5153 122.714 63.318C122.714 64.1113 122.565 64.788 122.266 65.348C121.967 65.908 121.561 66.3373 121.048 66.636C120.544 66.9253 119.965 67.07 119.312 67.07ZM119.382 66.188C119.905 66.188 120.371 66.0713 120.782 65.838C121.202 65.5953 121.529 65.2593 121.762 64.83C122.005 64.3913 122.126 63.8873 122.126 63.318C122.126 62.7393 122.005 62.2353 121.762 61.806C121.529 61.3767 121.202 61.0453 120.782 60.812C120.371 60.5693 119.905 60.448 119.382 60.448C118.869 60.448 118.407 60.5693 117.996 60.812C117.585 61.0453 117.259 61.3767 117.016 61.806C116.773 62.2353 116.652 62.7393 116.652 63.318C116.652 63.8873 116.773 64.3913 117.016 64.83C117.259 65.2593 117.585 65.5953 117.996 65.838C118.407 66.0713 118.869 66.188 119.382 66.188ZM122.154 67V64.788L122.252 63.304L122.112 61.82V56.612H123.106V67H122.154ZM125.874 67V59.65H126.868V67H125.874ZM126.378 58.026C126.173 58.026 126 57.956 125.86 57.816C125.72 57.676 125.65 57.508 125.65 57.312C125.65 57.116 125.72 56.9527 125.86 56.822C126 56.682 126.173 56.612 126.378 56.612C126.584 56.612 126.756 56.6773 126.896 56.808C127.036 56.9387 127.106 57.102 127.106 57.298C127.106 57.5033 127.036 57.676 126.896 57.816C126.766 57.956 126.593 58.026 126.378 58.026ZM132.756 67.07C131.991 67.07 131.319 66.9113 130.74 66.594C130.161 66.2673 129.709 65.824 129.382 65.264C129.055 64.6947 128.892 64.046 128.892 63.318C128.892 62.59 129.046 61.946 129.354 61.386C129.671 60.826 130.101 60.3873 130.642 60.07C131.193 59.7433 131.809 59.58 132.49 59.58C133.181 59.58 133.792 59.7387 134.324 60.056C134.865 60.364 135.29 60.8027 135.598 61.372C135.906 61.932 136.06 62.5807 136.06 63.318C136.06 63.3647 136.055 63.416 136.046 63.472C136.046 63.5187 136.046 63.57 136.046 63.626H129.648V62.884H135.514L135.122 63.178C135.122 62.646 135.005 62.1747 134.772 61.764C134.548 61.344 134.24 61.0173 133.848 60.784C133.456 60.5507 133.003 60.434 132.49 60.434C131.986 60.434 131.533 60.5507 131.132 60.784C130.731 61.0173 130.418 61.344 130.194 61.764C129.97 62.184 129.858 62.6647 129.858 63.206V63.36C129.858 63.92 129.979 64.4147 130.222 64.844C130.474 65.264 130.819 65.5953 131.258 65.838C131.706 66.0713 132.215 66.188 132.784 66.188C133.232 66.188 133.647 66.1087 134.03 65.95C134.422 65.7913 134.758 65.5487 135.038 65.222L135.598 65.866C135.271 66.258 134.861 66.5567 134.366 66.762C133.881 66.9673 133.344 67.07 132.756 67.07ZM140.057 67.07C139.451 67.07 138.877 66.986 138.335 66.818C137.794 66.6407 137.369 66.4213 137.061 66.16L137.509 65.376C137.808 65.6 138.191 65.796 138.657 65.964C139.124 66.1227 139.614 66.202 140.127 66.202C140.827 66.202 141.331 66.0947 141.639 65.88C141.947 65.656 142.101 65.362 142.101 64.998C142.101 64.7273 142.013 64.5173 141.835 64.368C141.667 64.2093 141.443 64.0927 141.163 64.018C140.883 63.934 140.571 63.864 140.225 63.808C139.88 63.752 139.535 63.6867 139.189 63.612C138.853 63.5373 138.545 63.43 138.265 63.29C137.985 63.1407 137.757 62.94 137.579 62.688C137.411 62.436 137.327 62.1 137.327 61.68C137.327 61.2787 137.439 60.9193 137.663 60.602C137.887 60.2847 138.214 60.0373 138.643 59.86C139.082 59.6733 139.614 59.58 140.239 59.58C140.715 59.58 141.191 59.6453 141.667 59.776C142.143 59.8973 142.535 60.0607 142.843 60.266L142.409 61.064C142.083 60.84 141.733 60.6813 141.359 60.588C140.986 60.4853 140.613 60.434 140.239 60.434C139.577 60.434 139.087 60.5507 138.769 60.784C138.461 61.008 138.307 61.2973 138.307 61.652C138.307 61.932 138.391 62.1513 138.559 62.31C138.737 62.4687 138.965 62.5947 139.245 62.688C139.535 62.772 139.847 62.842 140.183 62.898C140.529 62.954 140.869 63.024 141.205 63.108C141.551 63.1827 141.863 63.29 142.143 63.43C142.433 63.5607 142.661 63.752 142.829 64.004C143.007 64.2467 143.095 64.5687 143.095 64.97C143.095 65.3993 142.974 65.7727 142.731 66.09C142.498 66.398 142.153 66.6407 141.695 66.818C141.247 66.986 140.701 67.07 140.057 67.07ZM148.041 67.07C147.276 67.07 146.604 66.9113 146.025 66.594C145.447 66.2673 144.994 65.824 144.667 65.264C144.341 64.6947 144.177 64.046 144.177 63.318C144.177 62.59 144.331 61.946 144.639 61.386C144.957 60.826 145.386 60.3873 145.927 60.07C146.478 59.7433 147.094 59.58 147.775 59.58C148.466 59.58 149.077 59.7387 149.609 60.056C150.151 60.364 150.575 60.8027 150.883 61.372C151.191 61.932 151.345 62.5807 151.345 63.318C151.345 63.3647 151.341 63.416 151.331 63.472C151.331 63.5187 151.331 63.57 151.331 63.626H144.933V62.884H150.799L150.407 63.178C150.407 62.646 150.291 62.1747 150.057 61.764C149.833 61.344 149.525 61.0173 149.133 60.784C148.741 60.5507 148.289 60.434 147.775 60.434C147.271 60.434 146.819 60.5507 146.417 60.784C146.016 61.0173 145.703 61.344 145.479 61.764C145.255 62.184 145.143 62.6647 145.143 63.206V63.36C145.143 63.92 145.265 64.4147 145.507 64.844C145.759 65.264 146.105 65.5953 146.543 65.838C146.991 66.0713 147.5 66.188 148.069 66.188C148.517 66.188 148.933 66.1087 149.315 65.95C149.707 65.7913 150.043 65.5487 150.323 65.222L150.883 65.866C150.557 66.258 150.146 66.5567 149.651 66.762C149.166 66.9673 148.629 67.07 148.041 67.07ZM162.552 59.58C163.15 59.58 163.668 59.6967 164.106 59.93C164.554 60.154 164.9 60.4993 165.142 60.966C165.394 61.4327 165.52 62.0207 165.52 62.73V67H164.526V62.828C164.526 62.0533 164.34 61.47 163.966 61.078C163.602 60.6767 163.084 60.476 162.412 60.476C161.908 60.476 161.47 60.5833 161.096 60.798C160.732 61.0033 160.448 61.3067 160.242 61.708C160.046 62.1 159.948 62.576 159.948 63.136V67H158.954V62.828C158.954 62.0533 158.768 61.47 158.394 61.078C158.021 60.6767 157.498 60.476 156.826 60.476C156.332 60.476 155.898 60.5833 155.524 60.798C155.151 61.0033 154.862 61.3067 154.656 61.708C154.46 62.1 154.362 62.576 154.362 63.136V67H153.368V59.65H154.32V61.638L154.166 61.288C154.39 60.756 154.75 60.3407 155.244 60.042C155.748 59.734 156.341 59.58 157.022 59.58C157.741 59.58 158.352 59.762 158.856 60.126C159.36 60.4807 159.687 61.0173 159.836 61.736L159.444 61.582C159.659 60.9847 160.037 60.504 160.578 60.14C161.129 59.7667 161.787 59.58 162.552 59.58ZM172.09 67V57.2H175.758C176.589 57.2 177.303 57.3353 177.9 57.606C178.497 57.8673 178.955 58.25 179.272 58.754C179.599 59.2487 179.762 59.8507 179.762 60.56C179.762 61.2507 179.599 61.848 179.272 62.352C178.955 62.8467 178.497 63.2293 177.9 63.5C177.303 63.7707 176.589 63.906 175.758 63.906H172.664L173.126 63.416V67H172.09ZM173.126 63.5L172.664 62.996H175.73C176.71 62.996 177.452 62.786 177.956 62.366C178.469 61.9367 178.726 61.3347 178.726 60.56C178.726 59.776 178.469 59.1693 177.956 58.74C177.452 58.3107 176.71 58.096 175.73 58.096H172.664L173.126 57.606V63.5ZM181.615 67V59.65H182.567V61.652L182.469 61.302C182.674 60.742 183.019 60.3173 183.505 60.028C183.99 59.7293 184.592 59.58 185.311 59.58V60.546C185.273 60.546 185.236 60.546 185.199 60.546C185.161 60.5367 185.124 60.532 185.087 60.532C184.312 60.532 183.705 60.77 183.267 61.246C182.828 61.7127 182.609 62.38 182.609 63.248V67H181.615ZM190.178 67.07C189.413 67.07 188.741 66.9113 188.162 66.594C187.583 66.2673 187.131 65.824 186.804 65.264C186.477 64.6947 186.314 64.046 186.314 63.318C186.314 62.59 186.468 61.946 186.776 61.386C187.093 60.826 187.523 60.3873 188.064 60.07C188.615 59.7433 189.231 59.58 189.912 59.58C190.603 59.58 191.214 59.7387 191.746 60.056C192.287 60.364 192.712 60.8027 193.02 61.372C193.328 61.932 193.482 62.5807 193.482 63.318C193.482 63.3647 193.477 63.416 193.468 63.472C193.468 63.5187 193.468 63.57 193.468 63.626H187.07V62.884H192.936L192.544 63.178C192.544 62.646 192.427 62.1747 192.194 61.764C191.97 61.344 191.662 61.0173 191.27 60.784C190.878 60.5507 190.425 60.434 189.912 60.434C189.408 60.434 188.955 60.5507 188.554 60.784C188.153 61.0173 187.84 61.344 187.616 61.764C187.392 62.184 187.28 62.6647 187.28 63.206V63.36C187.28 63.92 187.401 64.4147 187.644 64.844C187.896 65.264 188.241 65.5953 188.68 65.838C189.128 66.0713 189.637 66.188 190.206 66.188C190.654 66.188 191.069 66.1087 191.452 65.95C191.844 65.7913 192.18 65.5487 192.46 65.222L193.02 65.866C192.693 66.258 192.283 66.5567 191.788 66.762C191.303 66.9673 190.766 67.07 190.178 67.07ZM195.505 67V59.65H196.499V67H195.505ZM196.009 58.026C195.804 58.026 195.631 57.956 195.491 57.816C195.351 57.676 195.281 57.508 195.281 57.312C195.281 57.116 195.351 56.9527 195.491 56.822C195.631 56.682 195.804 56.612 196.009 56.612C196.214 56.612 196.387 56.6773 196.527 56.808C196.667 56.9387 196.737 57.102 196.737 57.298C196.737 57.5033 196.667 57.676 196.527 57.816C196.396 57.956 196.224 58.026 196.009 58.026ZM201.239 67.07C200.632 67.07 200.058 66.986 199.517 66.818C198.976 66.6407 198.551 66.4213 198.243 66.16L198.691 65.376C198.99 65.6 199.372 65.796 199.839 65.964C200.306 66.1227 200.796 66.202 201.309 66.202C202.009 66.202 202.513 66.0947 202.821 65.88C203.129 65.656 203.283 65.362 203.283 64.998C203.283 64.7273 203.194 64.5173 203.017 64.368C202.849 64.2093 202.625 64.0927 202.345 64.018C202.065 63.934 201.752 63.864 201.407 63.808C201.062 63.752 200.716 63.6867 200.371 63.612C200.035 63.5373 199.727 63.43 199.447 63.29C199.167 63.1407 198.938 62.94 198.761 62.688C198.593 62.436 198.509 62.1 198.509 61.68C198.509 61.2787 198.621 60.9193 198.845 60.602C199.069 60.2847 199.396 60.0373 199.825 59.86C200.264 59.6733 200.796 59.58 201.421 59.58C201.897 59.58 202.373 59.6453 202.849 59.776C203.325 59.8973 203.717 60.0607 204.025 60.266L203.591 61.064C203.264 60.84 202.914 60.6813 202.541 60.588C202.168 60.4853 201.794 60.434 201.421 60.434C200.758 60.434 200.268 60.5507 199.951 60.784C199.643 61.008 199.489 61.2973 199.489 61.652C199.489 61.932 199.573 62.1513 199.741 62.31C199.918 62.4687 200.147 62.5947 200.427 62.688C200.716 62.772 201.029 62.842 201.365 62.898C201.71 62.954 202.051 63.024 202.387 63.108C202.732 63.1827 203.045 63.29 203.325 63.43C203.614 63.5607 203.843 63.752 204.011 64.004C204.188 64.2467 204.277 64.5687 204.277 64.97C204.277 65.3993 204.156 65.7727 203.913 66.09C203.68 66.398 203.334 66.6407 202.877 66.818C202.429 66.986 201.883 67.07 201.239 67.07Z" fill="#214B33"/>
<path d="M156 70L287 70" stroke="#214B33"/>
<path d="M156 23L302 23" stroke="#BC0051"/>
<path d="M158.52 11.582H163.7V12.464H158.52V11.582ZM158.632 16.104H164.526V17H157.596V7.2H164.316V8.096H158.632V16.104ZM166.751 17V9.65H167.745V17H166.751ZM167.255 8.026C167.05 8.026 166.877 7.956 166.737 7.816C166.597 7.676 166.527 7.508 166.527 7.312C166.527 7.116 166.597 6.95267 166.737 6.822C166.877 6.682 167.05 6.612 167.255 6.612C167.461 6.612 167.633 6.67733 167.773 6.808C167.913 6.93867 167.983 7.102 167.983 7.298C167.983 7.50333 167.913 7.676 167.773 7.816C167.643 7.956 167.47 8.026 167.255 8.026ZM174.263 9.58C174.86 9.58 175.383 9.69667 175.831 9.93C176.288 10.154 176.643 10.4993 176.895 10.966C177.156 11.4327 177.287 12.0207 177.287 12.73V17H176.293V12.828C176.293 12.0533 176.097 11.47 175.705 11.078C175.322 10.6767 174.781 10.476 174.081 10.476C173.558 10.476 173.101 10.5833 172.709 10.798C172.326 11.0033 172.028 11.3067 171.813 11.708C171.608 12.1 171.505 12.576 171.505 13.136V17H170.511V9.65H171.463V11.666L171.309 11.288C171.542 10.756 171.916 10.3407 172.429 10.042C172.942 9.734 173.554 9.58 174.263 9.58ZM179.174 17V16.342L184.074 10.14L184.284 10.476H179.258V9.65H185.068V10.294L180.182 16.51L179.93 16.174H185.166V17H179.174ZM190.121 17.07C189.356 17.07 188.684 16.9113 188.105 16.594C187.527 16.2673 187.074 15.824 186.747 15.264C186.421 14.6947 186.257 14.046 186.257 13.318C186.257 12.59 186.411 11.946 186.719 11.386C187.037 10.826 187.466 10.3873 188.007 10.07C188.558 9.74333 189.174 9.58 189.855 9.58C190.546 9.58 191.157 9.73867 191.689 10.056C192.231 10.364 192.655 10.8027 192.963 11.372C193.271 11.932 193.425 12.5807 193.425 13.318C193.425 13.3647 193.421 13.416 193.411 13.472C193.411 13.5187 193.411 13.57 193.411 13.626H187.013V12.884H192.879L192.487 13.178C192.487 12.646 192.371 12.1747 192.137 11.764C191.913 11.344 191.605 11.0173 191.213 10.784C190.821 10.5507 190.369 10.434 189.855 10.434C189.351 10.434 188.899 10.5507 188.497 10.784C188.096 11.0173 187.783 11.344 187.559 11.764C187.335 12.184 187.223 12.6647 187.223 13.206V13.36C187.223 13.92 187.345 14.4147 187.587 14.844C187.839 15.264 188.185 15.5953 188.623 15.838C189.071 16.0713 189.58 16.188 190.149 16.188C190.597 16.188 191.013 16.1087 191.395 15.95C191.787 15.7913 192.123 15.5487 192.403 15.222L192.963 15.866C192.637 16.258 192.226 16.5567 191.731 16.762C191.246 16.9673 190.709 17.07 190.121 17.07ZM195.449 17V6.612H196.443V17H195.449ZM202.96 9.58C203.558 9.58 204.08 9.69667 204.528 9.93C204.986 10.154 205.34 10.4993 205.592 10.966C205.854 11.4327 205.984 12.0207 205.984 12.73V17H204.99V12.828C204.99 12.0533 204.794 11.47 204.402 11.078C204.02 10.6767 203.478 10.476 202.778 10.476C202.256 10.476 201.798 10.5833 201.406 10.798C201.024 11.0033 200.725 11.3067 200.51 11.708C200.305 12.1 200.202 12.576 200.202 13.136V17H199.208V6.612H200.202V11.666L200.006 11.288C200.24 10.756 200.613 10.3407 201.126 10.042C201.64 9.734 202.251 9.58 202.96 9.58ZM213.275 17V15.376L213.233 15.11V12.394C213.233 11.7687 213.056 11.288 212.701 10.952C212.356 10.616 211.838 10.448 211.147 10.448C210.671 10.448 210.219 10.5273 209.789 10.686C209.36 10.8447 208.996 11.0547 208.697 11.316L208.249 10.574C208.623 10.2567 209.071 10.014 209.593 9.846C210.116 9.66867 210.667 9.58 211.245 9.58C212.197 9.58 212.93 9.818 213.443 10.294C213.966 10.7607 214.227 11.4747 214.227 12.436V17H213.275ZM210.741 17.07C210.191 17.07 209.71 16.9813 209.299 16.804C208.898 16.6173 208.59 16.3653 208.375 16.048C208.161 15.7213 208.053 15.348 208.053 14.928C208.053 14.5453 208.142 14.2 208.319 13.892C208.506 13.5747 208.805 13.3227 209.215 13.136C209.635 12.94 210.195 12.842 210.895 12.842H213.429V13.584H210.923C210.214 13.584 209.719 13.71 209.439 13.962C209.169 14.214 209.033 14.5267 209.033 14.9C209.033 15.32 209.197 15.656 209.523 15.908C209.85 16.16 210.307 16.286 210.895 16.286C211.455 16.286 211.936 16.16 212.337 15.908C212.748 15.6467 213.047 15.2733 213.233 14.788L213.457 15.474C213.271 15.9593 212.944 16.3467 212.477 16.636C212.02 16.9253 211.441 17.07 210.741 17.07ZM220.679 9.58C221.276 9.58 221.799 9.69667 222.247 9.93C222.704 10.154 223.059 10.4993 223.311 10.966C223.572 11.4327 223.703 12.0207 223.703 12.73V17H222.709V12.828C222.709 12.0533 222.513 11.47 222.121 11.078C221.738 10.6767 221.197 10.476 220.497 10.476C219.974 10.476 219.517 10.5833 219.125 10.798C218.742 11.0033 218.444 11.3067 218.229 11.708C218.024 12.1 217.921 12.576 217.921 13.136V17H216.927V9.65H217.879V11.666L217.725 11.288C217.958 10.756 218.332 10.3407 218.845 10.042C219.358 9.734 219.97 9.58 220.679 9.58ZM229.314 17.07C228.614 17.07 227.984 16.9113 227.424 16.594C226.873 16.2767 226.439 15.838 226.122 15.278C225.805 14.7087 225.646 14.0553 225.646 13.318C225.646 12.5713 225.805 11.918 226.122 11.358C226.439 10.798 226.873 10.364 227.424 10.056C227.984 9.73867 228.614 9.58 229.314 9.58C229.958 9.58 230.532 9.72467 231.036 10.014C231.549 10.3033 231.955 10.728 232.254 11.288C232.562 11.8387 232.716 12.5153 232.716 13.318C232.716 14.1113 232.567 14.788 232.268 15.348C231.969 15.908 231.563 16.3373 231.05 16.636C230.546 16.9253 229.967 17.07 229.314 17.07ZM229.384 16.188C229.907 16.188 230.373 16.0713 230.784 15.838C231.204 15.5953 231.531 15.2593 231.764 14.83C232.007 14.3913 232.128 13.8873 232.128 13.318C232.128 12.7393 232.007 12.2353 231.764 11.806C231.531 11.3767 231.204 11.0453 230.784 10.812C230.373 10.5693 229.907 10.448 229.384 10.448C228.871 10.448 228.409 10.5693 227.998 10.812C227.587 11.0453 227.261 11.3767 227.018 11.806C226.775 12.2353 226.654 12.7393 226.654 13.318C226.654 13.8873 226.775 14.3913 227.018 14.83C227.261 15.2593 227.587 15.5953 227.998 15.838C228.409 16.0713 228.871 16.188 229.384 16.188ZM232.156 17V14.788L232.254 13.304L232.114 11.82V6.612H233.108V17H232.156ZM238.998 17.07C238.233 17.07 237.561 16.9113 236.982 16.594C236.404 16.2673 235.951 15.824 235.624 15.264C235.298 14.6947 235.134 14.046 235.134 13.318C235.134 12.59 235.288 11.946 235.596 11.386C235.914 10.826 236.343 10.3873 236.884 10.07C237.435 9.74333 238.051 9.58 238.732 9.58C239.423 9.58 240.034 9.73867 240.566 10.056C241.108 10.364 241.532 10.8027 241.84 11.372C242.148 11.932 242.302 12.5807 242.302 13.318C242.302 13.3647 242.298 13.416 242.288 13.472C242.288 13.5187 242.288 13.57 242.288 13.626H235.89V12.884H241.756L241.364 13.178C241.364 12.646 241.248 12.1747 241.014 11.764C240.79 11.344 240.482 11.0173 240.09 10.784C239.698 10.5507 239.246 10.434 238.732 10.434C238.228 10.434 237.776 10.5507 237.374 10.784C236.973 11.0173 236.66 11.344 236.436 11.764C236.212 12.184 236.1 12.6647 236.1 13.206V13.36C236.1 13.92 236.222 14.4147 236.464 14.844C236.716 15.264 237.062 15.5953 237.5 15.838C237.948 16.0713 238.457 16.188 239.026 16.188C239.474 16.188 239.89 16.1087 240.272 15.95C240.664 15.7913 241 15.5487 241.28 15.222L241.84 15.866C241.514 16.258 241.103 16.5567 240.608 16.762C240.123 16.9673 239.586 17.07 238.998 17.07ZM244.325 17V6.612H245.319V17H244.325ZM250.059 17.07C249.453 17.07 248.879 16.986 248.337 16.818C247.796 16.6407 247.371 16.4213 247.063 16.16L247.511 15.376C247.81 15.6 248.193 15.796 248.659 15.964C249.126 16.1227 249.616 16.202 250.129 16.202C250.829 16.202 251.333 16.0947 251.641 15.88C251.949 15.656 252.103 15.362 252.103 14.998C252.103 14.7273 252.015 14.5173 251.837 14.368C251.669 14.2093 251.445 14.0927 251.165 14.018C250.885 13.934 250.573 13.864 250.227 13.808C249.882 13.752 249.537 13.6867 249.191 13.612C248.855 13.5373 248.547 13.43 248.267 13.29C247.987 13.1407 247.759 12.94 247.581 12.688C247.413 12.436 247.329 12.1 247.329 11.68C247.329 11.2787 247.441 10.9193 247.665 10.602C247.889 10.2847 248.216 10.0373 248.645 9.86C249.084 9.67333 249.616 9.58 250.241 9.58C250.717 9.58 251.193 9.64533 251.669 9.776C252.145 9.89733 252.537 10.0607 252.845 10.266L252.411 11.064C252.085 10.84 251.735 10.6813 251.361 10.588C250.988 10.4853 250.615 10.434 250.241 10.434C249.579 10.434 249.089 10.5507 248.771 10.784C248.463 11.008 248.309 11.2973 248.309 11.652C248.309 11.932 248.393 12.1513 248.561 12.31C248.739 12.4687 248.967 12.5947 249.247 12.688C249.537 12.772 249.849 12.842 250.185 12.898C250.531 12.954 250.871 13.024 251.207 13.108C251.553 13.1827 251.865 13.29 252.145 13.43C252.435 13.5607 252.663 13.752 252.831 14.004C253.009 14.2467 253.097 14.5687 253.097 14.97C253.097 15.3993 252.976 15.7727 252.733 16.09C252.5 16.398 252.155 16.6407 251.697 16.818C251.249 16.986 250.703 17.07 250.059 17.07ZM258.715 17.07C258.08 17.07 257.506 16.9253 256.993 16.636C256.48 16.3373 256.069 15.9127 255.761 15.362C255.462 14.802 255.313 14.1207 255.313 13.318C255.313 12.5153 255.462 11.8387 255.761 11.288C256.06 10.728 256.466 10.3033 256.979 10.014C257.492 9.72467 258.071 9.58 258.715 9.58C259.415 9.58 260.04 9.73867 260.591 10.056C261.151 10.364 261.59 10.8027 261.907 11.372C262.224 11.932 262.383 12.5807 262.383 13.318C262.383 14.0647 262.224 14.718 261.907 15.278C261.59 15.838 261.151 16.2767 260.591 16.594C260.04 16.9113 259.415 17.07 258.715 17.07ZM254.921 19.716V9.65H255.873V11.862L255.775 13.332L255.915 14.816V19.716H254.921ZM258.645 16.188C259.168 16.188 259.634 16.0713 260.045 15.838C260.456 15.5953 260.782 15.2593 261.025 14.83C261.268 14.3913 261.389 13.8873 261.389 13.318C261.389 12.7487 261.268 12.2493 261.025 11.82C260.782 11.3907 260.456 11.0547 260.045 10.812C259.634 10.5693 259.168 10.448 258.645 10.448C258.122 10.448 257.651 10.5693 257.231 10.812C256.82 11.0547 256.494 11.3907 256.251 11.82C256.018 12.2493 255.901 12.7487 255.901 13.318C255.901 13.8873 256.018 14.3913 256.251 14.83C256.494 15.2593 256.82 15.5953 257.231 15.838C257.651 16.0713 258.122 16.188 258.645 16.188ZM264.409 17V9.65H265.361V11.652L265.263 11.302C265.469 10.742 265.814 10.3173 266.299 10.028C266.785 9.72933 267.387 9.58 268.105 9.58V10.546C268.068 10.546 268.031 10.546 267.993 10.546C267.956 10.5367 267.919 10.532 267.881 10.532C267.107 10.532 266.5 10.77 266.061 11.246C265.623 11.7127 265.403 12.38 265.403 13.248V17H264.409ZM272.973 17.07C272.208 17.07 271.536 16.9113 270.957 16.594C270.378 16.2673 269.926 15.824 269.599 15.264C269.272 14.6947 269.109 14.046 269.109 13.318C269.109 12.59 269.263 11.946 269.571 11.386C269.888 10.826 270.318 10.3873 270.859 10.07C271.41 9.74333 272.026 9.58 272.707 9.58C273.398 9.58 274.009 9.73867 274.541 10.056C275.082 10.364 275.507 10.8027 275.815 11.372C276.123 11.932 276.277 12.5807 276.277 13.318C276.277 13.3647 276.272 13.416 276.263 13.472C276.263 13.5187 276.263 13.57 276.263 13.626H269.865V12.884H275.731L275.339 13.178C275.339 12.646 275.222 12.1747 274.989 11.764C274.765 11.344 274.457 11.0173 274.065 10.784C273.673 10.5507 273.22 10.434 272.707 10.434C272.203 10.434 271.75 10.5507 271.349 10.784C270.948 11.0173 270.635 11.344 270.411 11.764C270.187 12.184 270.075 12.6647 270.075 13.206V13.36C270.075 13.92 270.196 14.4147 270.439 14.844C270.691 15.264 271.036 15.5953 271.475 15.838C271.923 16.0713 272.432 16.188 273.001 16.188C273.449 16.188 273.864 16.1087 274.247 15.95C274.639 15.7913 274.975 15.5487 275.255 15.222L275.815 15.866C275.488 16.258 275.078 16.5567 274.583 16.762C274.098 16.9673 273.561 17.07 272.973 17.07ZM278.3 17V9.65H279.294V17H278.3ZM278.804 8.026C278.599 8.026 278.426 7.956 278.286 7.816C278.146 7.676 278.076 7.508 278.076 7.312C278.076 7.116 278.146 6.95267 278.286 6.822C278.426 6.682 278.599 6.612 278.804 6.612C279.009 6.612 279.182 6.67733 279.322 6.808C279.462 6.93867 279.532 7.102 279.532 7.298C279.532 7.50333 279.462 7.676 279.322 7.816C279.191 7.956 279.019 8.026 278.804 8.026ZM284.034 17.07C283.427 17.07 282.853 16.986 282.312 16.818C281.77 16.6407 281.346 16.4213 281.038 16.16L281.486 15.376C281.784 15.6 282.167 15.796 282.634 15.964C283.1 16.1227 283.59 16.202 284.104 16.202C284.804 16.202 285.308 16.0947 285.616 15.88C285.924 15.656 286.078 15.362 286.078 14.998C286.078 14.7273 285.989 14.5173 285.812 14.368C285.644 14.2093 285.42 14.0927 285.14 14.018C284.86 13.934 284.547 13.864 284.202 13.808C283.856 13.752 283.511 13.6867 283.166 13.612C282.83 13.5373 282.522 13.43 282.242 13.29C281.962 13.1407 281.733 12.94 281.556 12.688C281.388 12.436 281.304 12.1 281.304 11.68C281.304 11.2787 281.416 10.9193 281.64 10.602C281.864 10.2847 282.19 10.0373 282.62 9.86C283.058 9.67333 283.59 9.58 284.216 9.58C284.692 9.58 285.168 9.64533 285.644 9.776C286.12 9.89733 286.512 10.0607 286.82 10.266L286.386 11.064C286.059 10.84 285.709 10.6813 285.336 10.588C284.962 10.4853 284.589 10.434 284.216 10.434C283.553 10.434 283.063 10.5507 282.746 10.784C282.438 11.008 282.284 11.2973 282.284 11.652C282.284 11.932 282.368 12.1513 282.536 12.31C282.713 12.4687 282.942 12.5947 283.222 12.688C283.511 12.772 283.824 12.842 284.16 12.898C284.505 12.954 284.846 13.024 285.182 13.108C285.527 13.1827 285.84 13.29 286.12 13.43C286.409 13.5607 286.638 13.752 286.806 14.004C286.983 14.2467 287.072 14.5687 287.072 14.97C287.072 15.3993 286.95 15.7727 286.708 16.09C286.474 16.398 286.129 16.6407 285.672 16.818C285.224 16.986 284.678 17.07 284.034 17.07Z" fill="#BC0051"/>
</svg>
