<svg width="302" height="226" viewBox="0 0 302 226" fill="none" xmlns="http://www.w3.org/2000/svg">
<path d="M231.654 220.084C230.945 220.084 230.273 219.972 229.638 219.748C229.013 219.515 228.509 219.207 228.126 218.824L228.616 218.026C228.933 218.353 229.358 218.623 229.89 218.838C230.431 219.053 231.019 219.16 231.654 219.16C232.466 219.16 233.087 218.983 233.516 218.628C233.955 218.273 234.174 217.797 234.174 217.2C234.174 216.603 233.959 216.127 233.53 215.772C233.11 215.417 232.443 215.24 231.528 215.24H230.828V214.498L233.852 210.704L233.992 211.096H228.532V210.2H234.832V210.914L231.808 214.708L231.318 214.386H231.696C232.872 214.386 233.749 214.647 234.328 215.17C234.916 215.693 235.21 216.365 235.21 217.186C235.21 217.737 235.079 218.231 234.818 218.67C234.557 219.109 234.16 219.454 233.628 219.706C233.105 219.958 232.447 220.084 231.654 220.084ZM240.536 220.084C239.78 220.084 239.108 219.888 238.52 219.496C237.932 219.095 237.47 218.525 237.134 217.788C236.798 217.041 236.63 216.145 236.63 215.1C236.63 214.055 236.798 213.163 237.134 212.426C237.47 211.679 237.932 211.11 238.52 210.718C239.108 210.317 239.78 210.116 240.536 210.116C241.292 210.116 241.964 210.317 242.552 210.718C243.14 211.11 243.602 211.679 243.938 212.426C244.284 213.163 244.456 214.055 244.456 215.1C244.456 216.145 244.284 217.041 243.938 217.788C243.602 218.525 243.14 219.095 242.552 219.496C241.964 219.888 241.292 220.084 240.536 220.084ZM240.536 219.16C241.115 219.16 241.619 219.006 242.048 218.698C242.478 218.381 242.814 217.923 243.056 217.326C243.299 216.719 243.42 215.977 243.42 215.1C243.42 214.223 243.299 213.485 243.056 212.888C242.814 212.281 242.478 211.824 242.048 211.516C241.619 211.199 241.115 211.04 240.536 211.04C239.976 211.04 239.477 211.199 239.038 211.516C238.6 211.824 238.259 212.281 238.016 212.888C237.774 213.485 237.652 214.223 237.652 215.1C237.652 215.977 237.774 216.719 238.016 217.326C238.259 217.923 238.6 218.381 239.038 218.698C239.477 219.006 239.976 219.16 240.536 219.16ZM254.814 220V218.376L254.772 218.11V215.394C254.772 214.769 254.595 214.288 254.24 213.952C253.895 213.616 253.377 213.448 252.686 213.448C252.21 213.448 251.757 213.527 251.328 213.686C250.899 213.845 250.535 214.055 250.236 214.316L249.788 213.574C250.161 213.257 250.609 213.014 251.132 212.846C251.655 212.669 252.205 212.58 252.784 212.58C253.736 212.58 254.469 212.818 254.982 213.294C255.505 213.761 255.766 214.475 255.766 215.436V220H254.814ZM252.28 220.07C251.729 220.07 251.249 219.981 250.838 219.804C250.437 219.617 250.129 219.365 249.914 219.048C249.699 218.721 249.592 218.348 249.592 217.928C249.592 217.545 249.681 217.2 249.858 216.892C250.045 216.575 250.343 216.323 250.754 216.136C251.174 215.94 251.734 215.842 252.434 215.842H254.968V216.584H252.462C251.753 216.584 251.258 216.71 250.978 216.962C250.707 217.214 250.572 217.527 250.572 217.9C250.572 218.32 250.735 218.656 251.062 218.908C251.389 219.16 251.846 219.286 252.434 219.286C252.994 219.286 253.475 219.16 253.876 218.908C254.287 218.647 254.585 218.273 254.772 217.788L254.996 218.474C254.809 218.959 254.483 219.347 254.016 219.636C253.559 219.925 252.98 220.07 252.28 220.07ZM258.412 220V212.65H265.02V220H264.026V213.252L264.278 213.518H259.154L259.406 213.252V220H258.412ZM271.64 220.07C271.005 220.07 270.431 219.925 269.918 219.636C269.404 219.337 268.994 218.913 268.686 218.362C268.387 217.802 268.238 217.121 268.238 216.318C268.238 215.515 268.387 214.839 268.686 214.288C268.984 213.728 269.39 213.303 269.904 213.014C270.417 212.725 270.996 212.58 271.64 212.58C272.34 212.58 272.965 212.739 273.516 213.056C274.076 213.364 274.514 213.803 274.832 214.372C275.149 214.932 275.308 215.581 275.308 216.318C275.308 217.065 275.149 217.718 274.832 218.278C274.514 218.838 274.076 219.277 273.516 219.594C272.965 219.911 272.34 220.07 271.64 220.07ZM267.846 222.716V212.65H268.798V214.862L268.7 216.332L268.84 217.816V222.716H267.846ZM271.57 219.188C272.092 219.188 272.559 219.071 272.97 218.838C273.38 218.595 273.707 218.259 273.95 217.83C274.192 217.391 274.314 216.887 274.314 216.318C274.314 215.749 274.192 215.249 273.95 214.82C273.707 214.391 273.38 214.055 272.97 213.812C272.559 213.569 272.092 213.448 271.57 213.448C271.047 213.448 270.576 213.569 270.156 213.812C269.745 214.055 269.418 214.391 269.176 214.82C268.942 215.249 268.826 215.749 268.826 216.318C268.826 216.887 268.942 217.391 269.176 217.83C269.418 218.259 269.745 218.595 270.156 218.838C270.576 219.071 271.047 219.188 271.57 219.188ZM280.593 220.07C279.828 220.07 279.156 219.911 278.577 219.594C277.999 219.267 277.546 218.824 277.219 218.264C276.893 217.695 276.729 217.046 276.729 216.318C276.729 215.59 276.883 214.946 277.191 214.386C277.509 213.826 277.938 213.387 278.479 213.07C279.03 212.743 279.646 212.58 280.327 212.58C281.018 212.58 281.629 212.739 282.161 213.056C282.703 213.364 283.127 213.803 283.435 214.372C283.743 214.932 283.897 215.581 283.897 216.318C283.897 216.365 283.893 216.416 283.883 216.472C283.883 216.519 283.883 216.57 283.883 216.626H277.485V215.884H283.351L282.959 216.178C282.959 215.646 282.843 215.175 282.609 214.764C282.385 214.344 282.077 214.017 281.685 213.784C281.293 213.551 280.841 213.434 280.327 213.434C279.823 213.434 279.371 213.551 278.969 213.784C278.568 214.017 278.255 214.344 278.031 214.764C277.807 215.184 277.695 215.665 277.695 216.206V216.36C277.695 216.92 277.817 217.415 278.059 217.844C278.311 218.264 278.657 218.595 279.095 218.838C279.543 219.071 280.052 219.188 280.621 219.188C281.069 219.188 281.485 219.109 281.867 218.95C282.259 218.791 282.595 218.549 282.875 218.222L283.435 218.866C283.109 219.258 282.698 219.557 282.203 219.762C281.718 219.967 281.181 220.07 280.593 220.07ZM284.603 219.986L284.673 219.132C284.739 219.141 284.799 219.155 284.855 219.174C284.921 219.183 284.977 219.188 285.023 219.188C285.322 219.188 285.56 219.076 285.737 218.852C285.924 218.628 286.064 218.329 286.157 217.956C286.251 217.583 286.316 217.163 286.353 216.696C286.391 216.22 286.423 215.744 286.451 215.268L286.577 212.65H291.967V220H290.973V213.224L291.225 213.518H287.221L287.459 213.21L287.347 215.338C287.319 215.973 287.268 216.579 287.193 217.158C287.128 217.737 287.021 218.245 286.871 218.684C286.731 219.123 286.535 219.468 286.283 219.72C286.031 219.963 285.709 220.084 285.317 220.084C285.205 220.084 285.089 220.075 284.967 220.056C284.855 220.037 284.734 220.014 284.603 219.986ZM299.539 220V217.354L299.721 217.564H297.229C296.286 217.564 295.549 217.359 295.017 216.948C294.485 216.537 294.219 215.94 294.219 215.156C294.219 214.316 294.504 213.691 295.073 213.28C295.642 212.86 296.403 212.65 297.355 212.65H300.449V220H299.539ZM294.163 220L296.179 217.172H297.215L295.241 220H294.163ZM299.539 217.06V213.224L299.721 213.518H297.383C296.702 213.518 296.17 213.649 295.787 213.91C295.414 214.171 295.227 214.596 295.227 215.184C295.227 216.276 295.922 216.822 297.313 216.822H299.721L299.539 217.06Z" fill="#313131"/>
<path d="M118.436 220V210.62L118.884 211.096H116.126V210.2H119.444V220H118.436ZM124.881 220.084C124.181 220.084 123.513 219.972 122.879 219.748C122.244 219.515 121.74 219.207 121.367 218.824L121.857 218.026C122.165 218.353 122.585 218.623 123.117 218.838C123.658 219.053 124.241 219.16 124.867 219.16C125.697 219.16 126.327 218.978 126.757 218.614C127.195 218.241 127.415 217.755 127.415 217.158C127.415 216.738 127.312 216.379 127.107 216.08C126.911 215.772 126.575 215.534 126.099 215.366C125.623 215.198 124.969 215.114 124.139 215.114H122.053L122.557 210.2H127.919V211.096H122.963L123.481 210.606L123.047 214.722L122.529 214.218H124.363C125.352 214.218 126.145 214.339 126.743 214.582C127.34 214.825 127.769 215.165 128.031 215.604C128.301 216.033 128.437 216.537 128.437 217.116C128.437 217.667 128.306 218.171 128.045 218.628C127.783 219.076 127.391 219.431 126.869 219.692C126.346 219.953 125.683 220.084 124.881 220.084ZM138.63 220V218.376L138.588 218.11V215.394C138.588 214.769 138.411 214.288 138.056 213.952C137.711 213.616 137.193 213.448 136.502 213.448C136.026 213.448 135.574 213.527 135.144 213.686C134.715 213.845 134.351 214.055 134.052 214.316L133.604 213.574C133.978 213.257 134.426 213.014 134.948 212.846C135.471 212.669 136.022 212.58 136.6 212.58C137.552 212.58 138.285 212.818 138.798 213.294C139.321 213.761 139.582 214.475 139.582 215.436V220H138.63ZM136.096 220.07C135.546 220.07 135.065 219.981 134.654 219.804C134.253 219.617 133.945 219.365 133.73 219.048C133.516 218.721 133.408 218.348 133.408 217.928C133.408 217.545 133.497 217.2 133.674 216.892C133.861 216.575 134.16 216.323 134.57 216.136C134.99 215.94 135.55 215.842 136.25 215.842H138.784V216.584H136.278C135.569 216.584 135.074 216.71 134.794 216.962C134.524 217.214 134.388 217.527 134.388 217.9C134.388 218.32 134.552 218.656 134.878 218.908C135.205 219.16 135.662 219.286 136.25 219.286C136.81 219.286 137.291 219.16 137.692 218.908C138.103 218.647 138.402 218.273 138.588 217.788L138.812 218.474C138.626 218.959 138.299 219.347 137.832 219.636C137.375 219.925 136.796 220.07 136.096 220.07ZM142.228 220V212.65H148.836V220H147.842V213.252L148.094 213.518H142.97L143.222 213.252V220H142.228ZM155.456 220.07C154.821 220.07 154.247 219.925 153.734 219.636C153.221 219.337 152.81 218.913 152.502 218.362C152.203 217.802 152.054 217.121 152.054 216.318C152.054 215.515 152.203 214.839 152.502 214.288C152.801 213.728 153.207 213.303 153.72 213.014C154.233 212.725 154.812 212.58 155.456 212.58C156.156 212.58 156.781 212.739 157.332 213.056C157.892 213.364 158.331 213.803 158.648 214.372C158.965 214.932 159.124 215.581 159.124 216.318C159.124 217.065 158.965 217.718 158.648 218.278C158.331 218.838 157.892 219.277 157.332 219.594C156.781 219.911 156.156 220.07 155.456 220.07ZM151.662 222.716V212.65H152.614V214.862L152.516 216.332L152.656 217.816V222.716H151.662ZM155.386 219.188C155.909 219.188 156.375 219.071 156.786 218.838C157.197 218.595 157.523 218.259 157.766 217.83C158.009 217.391 158.13 216.887 158.13 216.318C158.13 215.749 158.009 215.249 157.766 214.82C157.523 214.391 157.197 214.055 156.786 213.812C156.375 213.569 155.909 213.448 155.386 213.448C154.863 213.448 154.392 213.569 153.972 213.812C153.561 214.055 153.235 214.391 152.992 214.82C152.759 215.249 152.642 215.749 152.642 216.318C152.642 216.887 152.759 217.391 152.992 217.83C153.235 218.259 153.561 218.595 153.972 218.838C154.392 219.071 154.863 219.188 155.386 219.188ZM164.41 220.07C163.644 220.07 162.972 219.911 162.394 219.594C161.815 219.267 161.362 218.824 161.036 218.264C160.709 217.695 160.546 217.046 160.546 216.318C160.546 215.59 160.7 214.946 161.008 214.386C161.325 213.826 161.754 213.387 162.296 213.07C162.846 212.743 163.462 212.58 164.144 212.58C164.834 212.58 165.446 212.739 165.978 213.056C166.519 213.364 166.944 213.803 167.252 214.372C167.56 214.932 167.714 215.581 167.714 216.318C167.714 216.365 167.709 216.416 167.7 216.472C167.7 216.519 167.7 216.57 167.7 216.626H161.302V215.884H167.168L166.776 216.178C166.776 215.646 166.659 215.175 166.426 214.764C166.202 214.344 165.894 214.017 165.502 213.784C165.11 213.551 164.657 213.434 164.144 213.434C163.64 213.434 163.187 213.551 162.786 213.784C162.384 214.017 162.072 214.344 161.848 214.764C161.624 215.184 161.512 215.665 161.512 216.206V216.36C161.512 216.92 161.633 217.415 161.876 217.844C162.128 218.264 162.473 218.595 162.912 218.838C163.36 219.071 163.868 219.188 164.438 219.188C164.886 219.188 165.301 219.109 165.684 218.95C166.076 218.791 166.412 218.549 166.692 218.222L167.252 218.866C166.925 219.258 166.514 219.557 166.02 219.762C165.534 219.967 164.998 220.07 164.41 220.07ZM168.42 219.986L168.49 219.132C168.555 219.141 168.616 219.155 168.672 219.174C168.737 219.183 168.793 219.188 168.84 219.188C169.138 219.188 169.376 219.076 169.554 218.852C169.74 218.628 169.88 218.329 169.974 217.956C170.067 217.583 170.132 217.163 170.17 216.696C170.207 216.22 170.24 215.744 170.268 215.268L170.394 212.65H175.784V220H174.79V213.224L175.042 213.518H171.038L171.276 213.21L171.164 215.338C171.136 215.973 171.084 216.579 171.01 217.158C170.944 217.737 170.837 218.245 170.688 218.684C170.548 219.123 170.352 219.468 170.1 219.72C169.848 219.963 169.526 220.084 169.134 220.084C169.022 220.084 168.905 220.075 168.784 220.056C168.672 220.037 168.55 220.014 168.42 219.986ZM183.355 220V217.354L183.537 217.564H181.045C180.103 217.564 179.365 217.359 178.833 216.948C178.301 216.537 178.035 215.94 178.035 215.156C178.035 214.316 178.32 213.691 178.889 213.28C179.459 212.86 180.219 212.65 181.171 212.65H184.265V220H183.355ZM177.979 220L179.995 217.172H181.031L179.057 220H177.979ZM183.355 217.06V213.224L183.537 213.518H181.199C180.518 213.518 179.986 213.649 179.603 213.91C179.23 214.171 179.043 214.596 179.043 215.184C179.043 216.276 179.739 216.822 181.129 216.822H183.537L183.355 217.06Z" fill="#313131"/>
<path d="M2.436 220V210.62L2.884 211.096H0.126V210.2H3.444V220H2.436ZM14.7007 220V218.376L14.6587 218.11V215.394C14.6587 214.769 14.4813 214.288 14.1267 213.952C13.7813 213.616 13.2633 213.448 12.5727 213.448C12.0967 213.448 11.644 213.527 11.2147 213.686C10.7853 213.845 10.4213 214.055 10.1227 214.316L9.67466 213.574C10.048 213.257 10.496 213.014 11.0187 212.846C11.5413 212.669 12.092 212.58 12.6707 212.58C13.6227 212.58 14.3553 212.818 14.8687 213.294C15.3913 213.761 15.6527 214.475 15.6527 215.436V220H14.7007ZM12.1667 220.07C11.616 220.07 11.1353 219.981 10.7247 219.804C10.3233 219.617 10.0153 219.365 9.80066 219.048C9.58599 218.721 9.47866 218.348 9.47866 217.928C9.47866 217.545 9.56732 217.2 9.74466 216.892C9.93132 216.575 10.23 216.323 10.6407 216.136C11.0607 215.94 11.6207 215.842 12.3207 215.842H14.8547V216.584H12.3487C11.6393 216.584 11.1447 216.71 10.8647 216.962C10.594 217.214 10.4587 217.527 10.4587 217.9C10.4587 218.32 10.622 218.656 10.9487 218.908C11.2753 219.16 11.7327 219.286 12.3207 219.286C12.8807 219.286 13.3613 219.16 13.7627 218.908C14.1733 218.647 14.472 218.273 14.6587 217.788L14.8827 218.474C14.696 218.959 14.3693 219.347 13.9027 219.636C13.4453 219.925 12.8667 220.07 12.1667 220.07ZM18.2988 220V212.65H24.9068V220H23.9128V213.252L24.1648 213.518H19.0408L19.2928 213.252V220H18.2988ZM31.5264 220.07C30.8917 220.07 30.3177 219.925 29.8044 219.636C29.291 219.337 28.8804 218.913 28.5724 218.362C28.2737 217.802 28.1244 217.121 28.1244 216.318C28.1244 215.515 28.2737 214.839 28.5724 214.288C28.871 213.728 29.277 213.303 29.7904 213.014C30.3037 212.725 30.8824 212.58 31.5264 212.58C32.2264 212.58 32.8517 212.739 33.4024 213.056C33.9624 213.364 34.401 213.803 34.7184 214.372C35.0357 214.932 35.1944 215.581 35.1944 216.318C35.1944 217.065 35.0357 217.718 34.7184 218.278C34.401 218.838 33.9624 219.277 33.4024 219.594C32.8517 219.911 32.2264 220.07 31.5264 220.07ZM27.7324 222.716V212.65H28.6844V214.862L28.5864 216.332L28.7264 217.816V222.716H27.7324ZM31.4564 219.188C31.979 219.188 32.4457 219.071 32.8564 218.838C33.267 218.595 33.5937 218.259 33.8364 217.83C34.079 217.391 34.2004 216.887 34.2004 216.318C34.2004 215.749 34.079 215.249 33.8364 214.82C33.5937 214.391 33.267 214.055 32.8564 213.812C32.4457 213.569 31.979 213.448 31.4564 213.448C30.9337 213.448 30.4624 213.569 30.0424 213.812C29.6317 214.055 29.305 214.391 29.0624 214.82C28.829 215.249 28.7124 215.749 28.7124 216.318C28.7124 216.887 28.829 217.391 29.0624 217.83C29.305 218.259 29.6317 218.595 30.0424 218.838C30.4624 219.071 30.9337 219.188 31.4564 219.188ZM40.48 220.07C39.7147 220.07 39.0427 219.911 38.464 219.594C37.8853 219.267 37.4327 218.824 37.106 218.264C36.7793 217.695 36.616 217.046 36.616 216.318C36.616 215.59 36.77 214.946 37.078 214.386C37.3953 213.826 37.8247 213.387 38.366 213.07C38.9167 212.743 39.5327 212.58 40.214 212.58C40.9047 212.58 41.516 212.739 42.048 213.056C42.5893 213.364 43.014 213.803 43.322 214.372C43.63 214.932 43.784 215.581 43.784 216.318C43.784 216.365 43.7793 216.416 43.77 216.472C43.77 216.519 43.77 216.57 43.77 216.626H37.372V215.884H43.238L42.846 216.178C42.846 215.646 42.7293 215.175 42.496 214.764C42.272 214.344 41.964 214.017 41.572 213.784C41.18 213.551 40.7273 213.434 40.214 213.434C39.71 213.434 39.2573 213.551 38.856 213.784C38.4547 214.017 38.142 214.344 37.918 214.764C37.694 215.184 37.582 215.665 37.582 216.206V216.36C37.582 216.92 37.7033 217.415 37.946 217.844C38.198 218.264 38.5433 218.595 38.982 218.838C39.43 219.071 39.9387 219.188 40.508 219.188C40.956 219.188 41.3713 219.109 41.754 218.95C42.146 218.791 42.482 218.549 42.762 218.222L43.322 218.866C42.9953 219.258 42.5847 219.557 42.09 219.762C41.6047 219.967 41.068 220.07 40.48 220.07ZM44.4899 219.986L44.5599 219.132C44.6253 219.141 44.6859 219.155 44.7419 219.174C44.8073 219.183 44.8633 219.188 44.9099 219.188C45.2086 219.188 45.4466 219.076 45.6239 218.852C45.8106 218.628 45.9506 218.329 46.0439 217.956C46.1373 217.583 46.2026 217.163 46.2399 216.696C46.2773 216.22 46.3099 215.744 46.3379 215.268L46.4639 212.65H51.8539V220H50.8599V213.224L51.1119 213.518H47.1079L47.3459 213.21L47.2339 215.338C47.2059 215.973 47.1546 216.579 47.0799 217.158C47.0146 217.737 46.9073 218.245 46.7579 218.684C46.6179 219.123 46.4219 219.468 46.1699 219.72C45.9179 219.963 45.5959 220.084 45.2039 220.084C45.0919 220.084 44.9753 220.075 44.8539 220.056C44.7419 220.037 44.6206 220.014 44.4899 219.986ZM59.4256 220V217.354L59.6076 217.564H57.1156C56.173 217.564 55.4356 217.359 54.9036 216.948C54.3716 216.537 54.1056 215.94 54.1056 215.156C54.1056 214.316 54.3903 213.691 54.9596 213.28C55.529 212.86 56.2896 212.65 57.2416 212.65H60.3356V220H59.4256ZM54.0496 220L56.0656 217.172H57.1016L55.1276 220H54.0496ZM59.4256 217.06V213.224L59.6076 213.518H57.2696C56.5883 213.518 56.0563 213.649 55.6736 213.91C55.3003 214.171 55.1136 214.596 55.1136 215.184C55.1136 216.276 55.809 216.822 57.1996 216.822H59.6076L59.4256 217.06Z" fill="#313131"/>
<rect x="301.998" y="203" width="11" height="181" transform="rotate(180 301.998 203)" fill="#BC0051"/>
<rect x="286.998" y="203" width="11" height="151" transform="rotate(180 286.998 203)" fill="#214B33"/>
<rect x="270.998" y="203" width="11" height="144" transform="rotate(180 270.998 203)" fill="#A2C33D" fill-opacity="0.4"/>
<rect x="255.998" y="203" width="11" height="141" transform="rotate(180 255.998 203)" fill="#A2C33D" fill-opacity="0.4"/>
<rect x="240.998" y="203" width="11" height="136" transform="rotate(180 240.998 203)" fill="#A2C33D" fill-opacity="0.4"/>
<rect x="225.998" y="203" width="11" height="128" transform="rotate(180 225.998 203)" fill="#A2C33D" fill-opacity="0.4"/>
<rect x="209.998" y="203" width="11" height="125" transform="rotate(180 209.998 203)" fill="#A2C33D" fill-opacity="0.4"/>
<rect x="194.998" y="203" width="11" height="113" transform="rotate(180 194.998 203)" fill="#A2C33D" fill-opacity="0.4"/>
<rect x="179.998" y="203" width="11" height="111" transform="rotate(180 179.998 203)" fill="#A2C33D" fill-opacity="0.4"/>
<rect x="163.998" y="203" width="11" height="104" transform="rotate(180 163.998 203)" fill="#A2C33D" fill-opacity="0.4"/>
<rect x="148.998" y="203" width="11" height="104" transform="rotate(180 148.998 203)" fill="#A2C33D" fill-opacity="0.4"/>
<rect x="133.998" y="203" width="11" height="100" transform="rotate(180 133.998 203)" fill="#A2C33D" fill-opacity="0.4"/>
<rect x="117.998" y="203" width="11" height="97" transform="rotate(180 117.998 203)" fill="#A2C33D" fill-opacity="0.4"/>
<rect x="102.998" y="203" width="11" height="97" transform="rotate(180 102.998 203)" fill="#A2C33D" fill-opacity="0.4"/>
<rect x="87.998" y="203" width="11" height="86" transform="rotate(180 87.998 203)" fill="#A2C33D" fill-opacity="0.4"/>
<rect x="72.998" y="203" width="11" height="82" transform="rotate(180 72.998 203)" fill="#A2C33D" fill-opacity="0.4"/>
<rect x="56.998" y="203" width="11" height="79" transform="rotate(180 56.998 203)" fill="#A2C33D" fill-opacity="0.4"/>
<rect x="41.998" y="203" width="11" height="71" transform="rotate(180 41.998 203)" fill="#A2C33D" fill-opacity="0.4"/>
<rect x="26.998" y="203" width="11" height="68" transform="rotate(180 26.998 203)" fill="#A2C33D" fill-opacity="0.4"/>
<rect x="11" y="203" width="11" height="57" transform="rotate(180 11 203)" fill="#A2C33D"/>
<path d="M6 53V146" stroke="#A2C33D" stroke-width="11.3313" stroke-dasharray="5.67 5.67"/>
<path d="M21.652 146V136.2H29.898V146H28.876V136.816L29.142 137.096H22.408L22.674 136.816V146H21.652ZM35.9907 146.07C35.2814 146.07 34.6421 145.911 34.0727 145.594C33.5127 145.267 33.0694 144.824 32.7427 144.264C32.4161 143.695 32.2527 143.046 32.2527 142.318C32.2527 141.581 32.4161 140.932 32.7427 140.372C33.0694 139.812 33.5127 139.373 34.0727 139.056C34.6327 138.739 35.2721 138.58 35.9907 138.58C36.7187 138.58 37.3627 138.739 37.9227 139.056C38.4921 139.373 38.9354 139.812 39.2527 140.372C39.5794 140.932 39.7427 141.581 39.7427 142.318C39.7427 143.046 39.5794 143.695 39.2527 144.264C38.9354 144.824 38.4921 145.267 37.9227 145.594C37.3534 145.911 36.7094 146.07 35.9907 146.07ZM35.9907 145.188C36.5227 145.188 36.9941 145.071 37.4047 144.838C37.8154 144.595 38.1374 144.259 38.3707 143.83C38.6134 143.391 38.7347 142.887 38.7347 142.318C38.7347 141.739 38.6134 141.235 38.3707 140.806C38.1374 140.377 37.8154 140.045 37.4047 139.812C36.9941 139.569 36.5274 139.448 36.0047 139.448C35.4821 139.448 35.0154 139.569 34.6047 139.812C34.1941 140.045 33.8674 140.377 33.6247 140.806C33.3821 141.235 33.2607 141.739 33.2607 142.318C33.2607 142.887 33.3821 143.391 33.6247 143.83C33.8674 144.259 34.1941 144.595 34.6047 144.838C35.0154 145.071 35.4774 145.188 35.9907 145.188ZM47.2571 146L44.2331 142.36L45.0591 141.87L48.4331 146H47.2571ZM41.8671 146V138.65H42.8611V146H41.8671ZM42.5531 142.724V141.87H44.9191V142.724H42.5531ZM45.1431 142.43L44.2191 142.29L47.1451 138.65H48.2231L45.1431 142.43ZM49.7041 148.786C49.3587 148.786 49.0274 148.73 48.7101 148.618C48.4021 148.506 48.1361 148.338 47.9121 148.114L48.3741 147.372C48.5607 147.549 48.7614 147.685 48.9761 147.778C49.2001 147.881 49.4474 147.932 49.7181 147.932C50.0447 147.932 50.3247 147.839 50.5581 147.652C50.8007 147.475 51.0294 147.157 51.2441 146.7L51.7201 145.622L51.8321 145.468L54.8561 138.65H55.8361L52.1541 146.882C51.9487 147.358 51.7201 147.736 51.4681 148.016C51.2254 148.296 50.9594 148.492 50.6701 148.604C50.3807 148.725 50.0587 148.786 49.7041 148.786ZM51.6641 146.21L48.2761 138.65H49.3121L52.3081 145.398L51.6641 146.21ZM57.3847 146V138.65H63.9927V146H62.9987V139.252L63.2507 139.518H58.1267L58.3787 139.252V146H57.3847ZM71.3823 146V144.376L71.3403 144.11V141.394C71.3403 140.769 71.163 140.288 70.8083 139.952C70.463 139.616 69.945 139.448 69.2543 139.448C68.7783 139.448 68.3256 139.527 67.8963 139.686C67.467 139.845 67.103 140.055 66.8043 140.316L66.3563 139.574C66.7296 139.257 67.1776 139.014 67.7003 138.846C68.223 138.669 68.7736 138.58 69.3523 138.58C70.3043 138.58 71.037 138.818 71.5503 139.294C72.073 139.761 72.3343 140.475 72.3343 141.436V146H71.3823ZM68.8483 146.07C68.2976 146.07 67.817 145.981 67.4063 145.804C67.005 145.617 66.697 145.365 66.4823 145.048C66.2676 144.721 66.1603 144.348 66.1603 143.928C66.1603 143.545 66.249 143.2 66.4263 142.892C66.613 142.575 66.9116 142.323 67.3223 142.136C67.7423 141.94 68.3023 141.842 69.0023 141.842H71.5363V142.584H69.0303C68.321 142.584 67.8263 142.71 67.5463 142.962C67.2756 143.214 67.1403 143.527 67.1403 143.9C67.1403 144.32 67.3036 144.656 67.6303 144.908C67.957 145.16 68.4143 145.286 69.0023 145.286C69.5623 145.286 70.043 145.16 70.4443 144.908C70.855 144.647 71.1536 144.273 71.3403 143.788L71.5643 144.474C71.3776 144.959 71.051 145.347 70.5843 145.636C70.127 145.925 69.5483 146.07 68.8483 146.07ZM78.1304 146.07C77.3651 146.07 76.6931 145.911 76.1144 145.594C75.5357 145.267 75.0831 144.824 74.7564 144.264C74.4297 143.695 74.2664 143.046 74.2664 142.318C74.2664 141.59 74.4204 140.946 74.7284 140.386C75.0457 139.826 75.4751 139.387 76.0164 139.07C76.5671 138.743 77.1831 138.58 77.8644 138.58C78.5551 138.58 79.1664 138.739 79.6984 139.056C80.2397 139.364 80.6644 139.803 80.9724 140.372C81.2804 140.932 81.4344 141.581 81.4344 142.318C81.4344 142.365 81.4297 142.416 81.4204 142.472C81.4204 142.519 81.4204 142.57 81.4204 142.626H75.0224V141.884H80.8884L80.4964 142.178C80.4964 141.646 80.3797 141.175 80.1464 140.764C79.9224 140.344 79.6144 140.017 79.2224 139.784C78.8304 139.551 78.3777 139.434 77.8644 139.434C77.3604 139.434 76.9077 139.551 76.5064 139.784C76.1051 140.017 75.7924 140.344 75.5684 140.764C75.3444 141.184 75.2324 141.665 75.2324 142.206V142.36C75.2324 142.92 75.3537 143.415 75.5964 143.844C75.8484 144.264 76.1937 144.595 76.6324 144.838C77.0804 145.071 77.5891 145.188 78.1584 145.188C78.6064 145.188 79.0217 145.109 79.4044 144.95C79.7964 144.791 80.1324 144.549 80.4124 144.222L80.9724 144.866C80.6457 145.258 80.2351 145.557 79.7404 145.762C79.2551 145.967 78.7184 146.07 78.1304 146.07ZM84.7066 146V139.252L84.9586 139.518H81.9206V138.65H88.4866V139.518H85.4486L85.7006 139.252V146H84.7066ZM92.732 146.07C91.9666 146.07 91.2946 145.911 90.716 145.594C90.1373 145.267 89.6846 144.824 89.358 144.264C89.0313 143.695 88.868 143.046 88.868 142.318C88.868 141.59 89.022 140.946 89.33 140.386C89.6473 139.826 90.0766 139.387 90.618 139.07C91.1686 138.743 91.7846 138.58 92.466 138.58C93.1566 138.58 93.768 138.739 94.3 139.056C94.8413 139.364 95.266 139.803 95.574 140.372C95.882 140.932 96.036 141.581 96.036 142.318C96.036 142.365 96.0313 142.416 96.022 142.472C96.022 142.519 96.022 142.57 96.022 142.626H89.624V141.884H95.49L95.098 142.178C95.098 141.646 94.9813 141.175 94.748 140.764C94.524 140.344 94.216 140.017 93.824 139.784C93.432 139.551 92.9793 139.434 92.466 139.434C91.962 139.434 91.5093 139.551 91.108 139.784C90.7066 140.017 90.394 140.344 90.17 140.764C89.946 141.184 89.834 141.665 89.834 142.206V142.36C89.834 142.92 89.9553 143.415 90.198 143.844C90.45 144.264 90.7953 144.595 91.234 144.838C91.682 145.071 92.1906 145.188 92.76 145.188C93.208 145.188 93.6233 145.109 94.006 144.95C94.398 144.791 94.734 144.549 95.014 144.222L95.574 144.866C95.2473 145.258 94.8366 145.557 94.342 145.762C93.8566 145.967 93.32 146.07 92.732 146.07ZM106.03 146.084C106.03 146.084 106.012 146.084 105.974 146.084C105.937 146.084 105.9 146.084 105.862 146.084C105.834 146.084 105.811 146.084 105.792 146.084C104.336 146.075 103.202 145.743 102.39 145.09C101.578 144.437 101.172 143.508 101.172 142.304C101.172 141.119 101.578 140.204 102.39 139.56C103.212 138.907 104.364 138.575 105.848 138.566C105.858 138.566 105.876 138.566 105.904 138.566C105.942 138.566 105.974 138.566 106.002 138.566C106.03 138.566 106.049 138.566 106.058 138.566C107.552 138.575 108.714 138.907 109.544 139.56C110.375 140.204 110.79 141.119 110.79 142.304C110.79 143.517 110.37 144.451 109.53 145.104C108.7 145.757 107.533 146.084 106.03 146.084ZM106.016 145.216C106.847 145.216 107.542 145.104 108.102 144.88C108.662 144.647 109.087 144.315 109.376 143.886C109.666 143.457 109.81 142.929 109.81 142.304C109.81 141.697 109.666 141.184 109.376 140.764C109.087 140.335 108.662 140.008 108.102 139.784C107.542 139.56 106.847 139.448 106.016 139.448C106.007 139.448 105.979 139.448 105.932 139.448C105.895 139.448 105.872 139.448 105.862 139.448C105.05 139.448 104.369 139.565 103.818 139.798C103.268 140.022 102.852 140.344 102.572 140.764C102.292 141.184 102.152 141.697 102.152 142.304C102.152 142.92 102.292 143.443 102.572 143.872C102.862 144.301 103.282 144.633 103.832 144.866C104.383 145.09 105.06 145.207 105.862 145.216C105.881 145.216 105.909 145.216 105.946 145.216C105.984 145.216 106.007 145.216 106.016 145.216ZM105.484 148.716V135.612H106.45V148.716H105.484ZM116.057 141.24C116.981 141.249 117.681 141.455 118.157 141.856C118.642 142.257 118.885 142.836 118.885 143.592C118.885 144.376 118.623 144.978 118.101 145.398C117.587 145.818 116.841 146.023 115.861 146.014L112.893 146V138.65H113.887V141.212L116.057 141.24ZM115.805 145.258C116.486 145.267 116.999 145.132 117.345 144.852C117.699 144.563 117.877 144.143 117.877 143.592C117.877 143.041 117.704 142.64 117.359 142.388C117.013 142.127 116.495 141.991 115.805 141.982L113.887 141.954V145.23L115.805 145.258ZM120.781 146V138.65H121.775V141.814H124.015V142.724H121.775V146H120.781ZM127.109 146.07C126.409 146.07 125.779 145.911 125.219 145.594C124.669 145.267 124.235 144.824 123.917 144.264C123.6 143.695 123.441 143.046 123.441 142.318C123.441 141.581 123.6 140.932 123.917 140.372C124.235 139.812 124.669 139.373 125.219 139.056C125.779 138.739 126.409 138.58 127.109 138.58C127.809 138.58 128.435 138.739 128.985 139.056C129.536 139.373 129.97 139.812 130.287 140.372C130.605 140.932 130.763 141.581 130.763 142.318C130.763 143.046 130.605 143.695 130.287 144.264C129.97 144.824 129.536 145.267 128.985 145.594C128.435 145.911 127.809 146.07 127.109 146.07ZM127.109 145.202C127.623 145.202 128.08 145.081 128.481 144.838C128.883 144.595 129.2 144.259 129.433 143.83C129.667 143.391 129.783 142.887 129.783 142.318C129.783 141.739 129.667 141.235 129.433 140.806C129.2 140.377 128.883 140.045 128.481 139.812C128.08 139.569 127.623 139.448 127.109 139.448C126.605 139.448 126.148 139.569 125.737 139.812C125.336 140.045 125.019 140.377 124.785 140.806C124.552 141.235 124.435 141.739 124.435 142.318C124.435 142.887 124.552 143.391 124.785 143.83C125.019 144.259 125.336 144.595 125.737 144.838C126.148 145.081 126.605 145.202 127.109 145.202ZM137.542 142.892C137.113 143.079 136.679 143.228 136.24 143.34C135.811 143.443 135.382 143.494 134.952 143.494C134.084 143.494 133.398 143.298 132.894 142.906C132.39 142.505 132.138 141.889 132.138 141.058V138.65H133.118V141.002C133.118 141.562 133.3 141.982 133.664 142.262C134.028 142.542 134.518 142.682 135.134 142.682C135.508 142.682 135.9 142.635 136.31 142.542C136.721 142.439 137.136 142.295 137.556 142.108L137.542 142.892ZM137.458 146V138.65H138.452V146H137.458ZM144.425 146.07C143.66 146.07 142.988 145.911 142.409 145.594C141.831 145.267 141.378 144.824 141.051 144.264C140.725 143.695 140.561 143.046 140.561 142.318C140.561 141.59 140.715 140.946 141.023 140.386C141.341 139.826 141.77 139.387 142.311 139.07C142.862 138.743 143.478 138.58 144.159 138.58C144.85 138.58 145.461 138.739 145.993 139.056C146.535 139.364 146.959 139.803 147.267 140.372C147.575 140.932 147.729 141.581 147.729 142.318C147.729 142.365 147.725 142.416 147.715 142.472C147.715 142.519 147.715 142.57 147.715 142.626H141.317V141.884H147.183L146.791 142.178C146.791 141.646 146.675 141.175 146.441 140.764C146.217 140.344 145.909 140.017 145.517 139.784C145.125 139.551 144.673 139.434 144.159 139.434C143.655 139.434 143.203 139.551 142.801 139.784C142.4 140.017 142.087 140.344 141.863 140.764C141.639 141.184 141.527 141.665 141.527 142.206V142.36C141.527 142.92 141.649 143.415 141.891 143.844C142.143 144.264 142.489 144.595 142.927 144.838C143.375 145.071 143.884 145.188 144.453 145.188C144.901 145.188 145.317 145.109 145.699 144.95C146.091 144.791 146.427 144.549 146.707 144.222L147.267 144.866C146.941 145.258 146.53 145.557 146.035 145.762C145.55 145.967 145.013 146.07 144.425 146.07ZM153.724 146.07C153.089 146.07 152.515 145.925 152.002 145.636C151.488 145.337 151.078 144.913 150.77 144.362C150.471 143.802 150.322 143.121 150.322 142.318C150.322 141.515 150.471 140.839 150.77 140.288C151.068 139.728 151.474 139.303 151.988 139.014C152.501 138.725 153.08 138.58 153.724 138.58C154.424 138.58 155.049 138.739 155.6 139.056C156.16 139.364 156.598 139.803 156.916 140.372C157.233 140.932 157.392 141.581 157.392 142.318C157.392 143.065 157.233 143.718 156.916 144.278C156.598 144.838 156.16 145.277 155.6 145.594C155.049 145.911 154.424 146.07 153.724 146.07ZM149.93 148.716V138.65H150.882V140.862L150.784 142.332L150.924 143.816V148.716H149.93ZM153.654 145.188C154.176 145.188 154.643 145.071 155.054 144.838C155.464 144.595 155.791 144.259 156.034 143.83C156.276 143.391 156.398 142.887 156.398 142.318C156.398 141.749 156.276 141.249 156.034 140.82C155.791 140.391 155.464 140.055 155.054 139.812C154.643 139.569 154.176 139.448 153.654 139.448C153.131 139.448 152.66 139.569 152.24 139.812C151.829 140.055 151.502 140.391 151.26 140.82C151.026 141.249 150.91 141.749 150.91 142.318C150.91 142.887 151.026 143.391 151.26 143.83C151.502 144.259 151.829 144.595 152.24 144.838C152.66 145.071 153.131 145.188 153.654 145.188ZM162.607 146.07C161.879 146.07 161.226 145.911 160.647 145.594C160.078 145.267 159.63 144.824 159.303 144.264C158.977 143.695 158.813 143.046 158.813 142.318C158.813 141.581 158.977 140.932 159.303 140.372C159.63 139.812 160.078 139.373 160.647 139.056C161.226 138.739 161.879 138.58 162.607 138.58C163.233 138.58 163.797 138.701 164.301 138.944C164.805 139.187 165.202 139.551 165.491 140.036L164.749 140.54C164.497 140.167 164.185 139.891 163.811 139.714C163.438 139.537 163.032 139.448 162.593 139.448C162.071 139.448 161.599 139.569 161.179 139.812C160.759 140.045 160.428 140.377 160.185 140.806C159.943 141.235 159.821 141.739 159.821 142.318C159.821 142.897 159.943 143.401 160.185 143.83C160.428 144.259 160.759 144.595 161.179 144.838C161.599 145.071 162.071 145.188 162.593 145.188C163.032 145.188 163.438 145.099 163.811 144.922C164.185 144.745 164.497 144.474 164.749 144.11L165.491 144.614C165.202 145.09 164.805 145.454 164.301 145.706C163.797 145.949 163.233 146.07 162.607 146.07ZM171.08 146V138.65H177.688V146H176.694V139.252L176.946 139.518H171.822L172.074 139.252V146H171.08ZM183.538 146.07C182.828 146.07 182.189 145.911 181.62 145.594C181.06 145.267 180.616 144.824 180.29 144.264C179.963 143.695 179.8 143.046 179.8 142.318C179.8 141.581 179.963 140.932 180.29 140.372C180.616 139.812 181.06 139.373 181.62 139.056C182.18 138.739 182.819 138.58 183.538 138.58C184.266 138.58 184.91 138.739 185.47 139.056C186.039 139.373 186.482 139.812 186.8 140.372C187.126 140.932 187.29 141.581 187.29 142.318C187.29 143.046 187.126 143.695 186.8 144.264C186.482 144.824 186.039 145.267 185.47 145.594C184.9 145.911 184.256 146.07 183.538 146.07ZM183.538 145.188C184.07 145.188 184.541 145.071 184.952 144.838C185.362 144.595 185.684 144.259 185.918 143.83C186.16 143.391 186.282 142.887 186.282 142.318C186.282 141.739 186.16 141.235 185.918 140.806C185.684 140.377 185.362 140.045 184.952 139.812C184.541 139.569 184.074 139.448 183.552 139.448C183.029 139.448 182.562 139.569 182.152 139.812C181.741 140.045 181.414 140.377 181.172 140.806C180.929 141.235 180.808 141.739 180.808 142.318C180.808 142.887 180.929 143.391 181.172 143.83C181.414 144.259 181.741 144.595 182.152 144.838C182.562 145.071 183.024 145.188 183.538 145.188ZM194.1 142.64V141.884H198.37V142.64H194.1ZM195.08 138.58C195.827 138.58 196.494 138.743 197.082 139.07C197.67 139.387 198.132 139.831 198.468 140.4C198.813 140.96 198.986 141.599 198.986 142.318C198.986 143.037 198.813 143.681 198.468 144.25C198.132 144.819 197.67 145.267 197.082 145.594C196.494 145.921 195.827 146.084 195.08 146.084C194.473 146.084 193.909 145.991 193.386 145.804C192.873 145.608 192.439 145.328 192.084 144.964L192.672 144.376C192.989 144.675 193.349 144.899 193.75 145.048C194.151 145.188 194.581 145.258 195.038 145.258C195.617 145.258 196.13 145.132 196.578 144.88C197.035 144.619 197.395 144.269 197.656 143.83C197.917 143.382 198.048 142.878 198.048 142.318C198.048 141.758 197.917 141.259 197.656 140.82C197.395 140.372 197.035 140.022 196.578 139.77C196.13 139.518 195.617 139.392 195.038 139.392C194.581 139.392 194.151 139.467 193.75 139.616C193.349 139.756 192.989 139.975 192.672 140.274L192.084 139.7C192.439 139.327 192.873 139.047 193.386 138.86C193.909 138.673 194.473 138.58 195.08 138.58ZM202.203 146V139.252L202.455 139.518H199.417V138.65H205.983V139.518H202.945L203.197 139.252V146H202.203ZM210.102 146.07C209.393 146.07 208.753 145.911 208.184 145.594C207.624 145.267 207.181 144.824 206.854 144.264C206.527 143.695 206.364 143.046 206.364 142.318C206.364 141.581 206.527 140.932 206.854 140.372C207.181 139.812 207.624 139.373 208.184 139.056C208.744 138.739 209.383 138.58 210.102 138.58C210.83 138.58 211.474 138.739 212.034 139.056C212.603 139.373 213.047 139.812 213.364 140.372C213.691 140.932 213.854 141.581 213.854 142.318C213.854 143.046 213.691 143.695 213.364 144.264C213.047 144.824 212.603 145.267 212.034 145.594C211.465 145.911 210.821 146.07 210.102 146.07ZM210.102 145.188C210.634 145.188 211.105 145.071 211.516 144.838C211.927 144.595 212.249 144.259 212.482 143.83C212.725 143.391 212.846 142.887 212.846 142.318C212.846 141.739 212.725 141.235 212.482 140.806C212.249 140.377 211.927 140.045 211.516 139.812C211.105 139.569 210.639 139.448 210.116 139.448C209.593 139.448 209.127 139.569 208.716 139.812C208.305 140.045 207.979 140.377 207.736 140.806C207.493 141.235 207.372 141.739 207.372 142.318C207.372 142.887 207.493 143.391 207.736 143.83C207.979 144.259 208.305 144.595 208.716 144.838C209.127 145.071 209.589 145.188 210.102 145.188ZM215.978 146V138.65H216.972V144.488L221.886 138.65H222.768V146H221.774V140.148L216.874 146H215.978ZM219.31 137.586C218.694 137.586 218.195 137.432 217.812 137.124C217.439 136.807 217.243 136.354 217.224 135.766H217.938C217.948 136.139 218.078 136.433 218.33 136.648C218.582 136.863 218.909 136.97 219.31 136.97C219.712 136.97 220.038 136.863 220.29 136.648C220.552 136.433 220.687 136.139 220.696 135.766H221.41C221.401 136.354 221.205 136.807 220.822 137.124C220.44 137.432 219.936 137.586 219.31 137.586ZM229.281 146V138.65H230.275V145.132H234.769V138.65H235.763V146H229.281ZM236.015 147.778V145.916L236.267 146H234.769V145.132H236.953V147.778H236.015ZM242.002 146.07C241.236 146.07 240.564 145.911 239.986 145.594C239.407 145.267 238.954 144.824 238.628 144.264C238.301 143.695 238.138 143.046 238.138 142.318C238.138 141.59 238.292 140.946 238.6 140.386C238.917 139.826 239.346 139.387 239.888 139.07C240.438 138.743 241.054 138.58 241.736 138.58C242.426 138.58 243.038 138.739 243.57 139.056C244.111 139.364 244.536 139.803 244.844 140.372C245.152 140.932 245.306 141.581 245.306 142.318C245.306 142.365 245.301 142.416 245.292 142.472C245.292 142.519 245.292 142.57 245.292 142.626H238.894V141.884H244.76L244.368 142.178C244.368 141.646 244.251 141.175 244.018 140.764C243.794 140.344 243.486 140.017 243.094 139.784C242.702 139.551 242.249 139.434 241.736 139.434C241.232 139.434 240.779 139.551 240.378 139.784C239.976 140.017 239.664 140.344 239.44 140.764C239.216 141.184 239.104 141.665 239.104 142.206V142.36C239.104 142.92 239.225 143.415 239.468 143.844C239.72 144.264 240.065 144.595 240.504 144.838C240.952 145.071 241.46 145.188 242.03 145.188C242.478 145.188 242.893 145.109 243.276 144.95C243.668 144.791 244.004 144.549 244.284 144.222L244.844 144.866C244.517 145.258 244.106 145.557 243.612 145.762C243.126 145.967 242.59 146.07 242.002 146.07ZM247.506 146V138.65H248.5V141.898H253.134V138.65H254.128V146H253.134V142.752H248.5V146H247.506ZM260.103 146.07C259.338 146.07 258.666 145.911 258.087 145.594C257.508 145.267 257.056 144.824 256.729 144.264C256.402 143.695 256.239 143.046 256.239 142.318C256.239 141.59 256.393 140.946 256.701 140.386C257.018 139.826 257.448 139.387 257.989 139.07C258.54 138.743 259.156 138.58 259.837 138.58C260.528 138.58 261.139 138.739 261.671 139.056C262.212 139.364 262.637 139.803 262.945 140.372C263.253 140.932 263.407 141.581 263.407 142.318C263.407 142.365 263.402 142.416 263.393 142.472C263.393 142.519 263.393 142.57 263.393 142.626H256.995V141.884H262.861L262.469 142.178C262.469 141.646 262.352 141.175 262.119 140.764C261.895 140.344 261.587 140.017 261.195 139.784C260.803 139.551 260.35 139.434 259.837 139.434C259.333 139.434 258.88 139.551 258.479 139.784C258.078 140.017 257.765 140.344 257.541 140.764C257.317 141.184 257.205 141.665 257.205 142.206V142.36C257.205 142.92 257.326 143.415 257.569 143.844C257.821 144.264 258.166 144.595 258.605 144.838C259.053 145.071 259.562 145.188 260.131 145.188C260.579 145.188 260.994 145.109 261.377 144.95C261.769 144.791 262.105 144.549 262.385 144.222L262.945 144.866C262.618 145.258 262.208 145.557 261.713 145.762C261.228 145.967 260.691 146.07 260.103 146.07Z" fill="#214B33"/>
<path d="M11 153L217 153" stroke="#214B33"/>
<path d="M21.652 95V85.2H25.726C26.762 85.2 27.574 85.4147 28.162 85.844C28.7593 86.264 29.058 86.8847 29.058 87.706C29.058 88.518 28.7733 89.134 28.204 89.554C27.6347 89.9647 26.888 90.17 25.964 90.17L26.202 89.82C27.294 89.82 28.1247 90.0347 28.694 90.464C29.2633 90.8933 29.548 91.5233 29.548 92.354C29.548 93.194 29.2493 93.8473 28.652 94.314C28.064 94.7713 27.1773 95 25.992 95H21.652ZM22.674 94.174H25.992C26.8227 94.174 27.4527 94.02 27.882 93.712C28.3113 93.404 28.526 92.928 28.526 92.284C28.526 91.6493 28.3113 91.1827 27.882 90.884C27.4527 90.5853 26.8227 90.436 25.992 90.436H22.674V94.174ZM22.674 89.638H25.67C26.426 89.638 27.0047 89.4887 27.406 89.19C27.8167 88.882 28.022 88.4293 28.022 87.832C28.022 87.2347 27.8167 86.7867 27.406 86.488C27.0047 86.18 26.426 86.026 25.67 86.026H22.674V89.638ZM39.0683 95V87.65H40.0623V95H39.0683ZM34.9943 90.24C35.9183 90.2493 36.623 90.4547 37.1083 90.856C37.5937 91.2573 37.8363 91.836 37.8363 92.592C37.8363 93.376 37.575 93.978 37.0523 94.398C36.5297 94.818 35.783 95.0233 34.8123 95.014L31.9003 95V87.65H32.8943V90.212L34.9943 90.24ZM34.7423 94.258C35.433 94.2673 35.951 94.132 36.2963 93.852C36.651 93.5627 36.8283 93.1427 36.8283 92.592C36.8283 92.0413 36.6557 91.64 36.3103 91.388C35.965 91.1267 35.4423 90.9913 34.7423 90.982L32.8943 90.954V94.23L34.7423 94.258ZM42.8925 95V87.65H48.1005V88.518H43.6345L43.8865 88.266V95H42.8925ZM52.2193 95.07C51.5099 95.07 50.8706 94.9113 50.3013 94.594C49.7413 94.2673 49.2979 93.824 48.9713 93.264C48.6446 92.6947 48.4813 92.046 48.4813 91.318C48.4813 90.5807 48.6446 89.932 48.9713 89.372C49.2979 88.812 49.7413 88.3733 50.3013 88.056C50.8613 87.7387 51.5006 87.58 52.2193 87.58C52.9473 87.58 53.5913 87.7387 54.1513 88.056C54.7206 88.3733 55.1639 88.812 55.4813 89.372C55.8079 89.932 55.9713 90.5807 55.9713 91.318C55.9713 92.046 55.8079 92.6947 55.4813 93.264C55.1639 93.824 54.7206 94.2673 54.1513 94.594C53.5819 94.9113 52.9379 95.07 52.2193 95.07ZM52.2193 94.188C52.7513 94.188 53.2226 94.0713 53.6333 93.838C54.0439 93.5953 54.3659 93.2593 54.5993 92.83C54.8419 92.3913 54.9633 91.8873 54.9633 91.318C54.9633 90.7393 54.8419 90.2353 54.5993 89.806C54.3659 89.3767 54.0439 89.0453 53.6333 88.812C53.2226 88.5693 52.7559 88.448 52.2333 88.448C51.7106 88.448 51.2439 88.5693 50.8333 88.812C50.4226 89.0453 50.0959 89.3767 49.8533 89.806C49.6106 90.2353 49.4893 90.7393 49.4893 91.318C49.4893 91.8873 49.6106 92.3913 49.8533 92.83C50.0959 93.2593 50.4226 93.5953 50.8333 93.838C51.2439 94.0713 51.7059 94.188 52.2193 94.188ZM63.0946 94.524V88.518H59.5526L59.4686 90.156C59.45 90.6507 59.4173 91.136 59.3706 91.612C59.3333 92.088 59.2633 92.5267 59.1606 92.928C59.0673 93.32 58.932 93.642 58.7546 93.894C58.5773 94.1367 58.3486 94.2767 58.0686 94.314L57.0746 94.132C57.364 94.1413 57.602 94.0387 57.7886 93.824C57.9753 93.6 58.12 93.2967 58.2226 92.914C58.3253 92.5313 58.4 92.0973 58.4466 91.612C58.4933 91.1173 58.5306 90.6133 58.5586 90.1L58.6566 87.65H64.0886V94.524H63.0946ZM56.7666 96.778V94.132H65.2366V96.778H64.2986V95H57.7046V96.778H56.7666ZM71.7378 95V93.376L71.6958 93.11V90.394C71.6958 89.7687 71.5184 89.288 71.1638 88.952C70.8184 88.616 70.3004 88.448 69.6098 88.448C69.1338 88.448 68.6811 88.5273 68.2518 88.686C67.8224 88.8447 67.4584 89.0547 67.1598 89.316L66.7118 88.574C67.0851 88.2567 67.5331 88.014 68.0558 87.846C68.5784 87.6687 69.1291 87.58 69.7078 87.58C70.6598 87.58 71.3924 87.818 71.9058 88.294C72.4284 88.7607 72.6898 89.4747 72.6898 90.436V95H71.7378ZM69.2038 95.07C68.6531 95.07 68.1724 94.9813 67.7618 94.804C67.3604 94.6173 67.0524 94.3653 66.8378 94.048C66.6231 93.7213 66.5158 93.348 66.5158 92.928C66.5158 92.5453 66.6044 92.2 66.7818 91.892C66.9684 91.5747 67.2671 91.3227 67.6778 91.136C68.0978 90.94 68.6578 90.842 69.3578 90.842H71.8918V91.584H69.3858C68.6764 91.584 68.1818 91.71 67.9018 91.962C67.6311 92.214 67.4958 92.5267 67.4958 92.9C67.4958 93.32 67.6591 93.656 67.9858 93.908C68.3124 94.16 68.7698 94.286 69.3578 94.286C69.9178 94.286 70.3984 94.16 70.7998 93.908C71.2104 93.6467 71.5091 93.2733 71.6958 92.788L71.9198 93.474C71.7331 93.9593 71.4064 94.3467 70.9398 94.636C70.4824 94.9253 69.9038 95.07 69.2038 95.07Z" fill="#A2C33D"/>
<path d="M106 101L1 101" stroke="#A2C33D"/>
<path d="M109.652 44V34.2H113.726C114.762 34.2 115.574 34.4147 116.162 34.844C116.759 35.264 117.058 35.8847 117.058 36.706C117.058 37.518 116.773 38.134 116.204 38.554C115.635 38.9647 114.888 39.17 113.964 39.17L114.202 38.82C115.294 38.82 116.125 39.0347 116.694 39.464C117.263 39.8933 117.548 40.5233 117.548 41.354C117.548 42.194 117.249 42.8473 116.652 43.314C116.064 43.7713 115.177 44 113.992 44H109.652ZM110.674 43.174H113.992C114.823 43.174 115.453 43.02 115.882 42.712C116.311 42.404 116.526 41.928 116.526 41.284C116.526 40.6493 116.311 40.1827 115.882 39.884C115.453 39.5853 114.823 39.436 113.992 39.436H110.674V43.174ZM110.674 38.638H113.67C114.426 38.638 115.005 38.4887 115.406 38.19C115.817 37.882 116.022 37.4293 116.022 36.832C116.022 36.2347 115.817 35.7867 115.406 35.488C115.005 35.18 114.426 35.026 113.67 35.026H110.674V38.638ZM127.068 44V36.65H128.062V44H127.068ZM122.994 39.24C123.918 39.2493 124.623 39.4547 125.108 39.856C125.594 40.2573 125.836 40.836 125.836 41.592C125.836 42.376 125.575 42.978 125.052 43.398C124.53 43.818 123.783 44.0233 122.812 44.014L119.9 44V36.65H120.894V39.212L122.994 39.24ZM122.742 43.258C123.433 43.2673 123.951 43.132 124.296 42.852C124.651 42.5627 124.828 42.1427 124.828 41.592C124.828 41.0413 124.656 40.64 124.31 40.388C123.965 40.1267 123.442 39.9913 122.742 39.982L120.894 39.954V43.23L122.742 43.258ZM134.557 44V36.65H141.165V44H140.171V37.252L140.423 37.518H135.299L135.551 37.252V44H134.557ZM147.784 44.07C147.15 44.07 146.576 43.9253 146.062 43.636C145.549 43.3373 145.138 42.9127 144.83 42.362C144.532 41.802 144.382 41.1207 144.382 40.318C144.382 39.5153 144.532 38.8387 144.83 38.288C145.129 37.728 145.535 37.3033 146.048 37.014C146.562 36.7247 147.14 36.58 147.784 36.58C148.484 36.58 149.11 36.7387 149.66 37.056C150.22 37.364 150.659 37.8027 150.976 38.372C151.294 38.932 151.452 39.5807 151.452 40.318C151.452 41.0647 151.294 41.718 150.976 42.278C150.659 42.838 150.22 43.2767 149.66 43.594C149.11 43.9113 148.484 44.07 147.784 44.07ZM143.99 46.716V36.65H144.942V38.862L144.844 40.332L144.984 41.816V46.716H143.99ZM147.714 43.188C148.237 43.188 148.704 43.0713 149.114 42.838C149.525 42.5953 149.852 42.2593 150.094 41.83C150.337 41.3913 150.458 40.8873 150.458 40.318C150.458 39.7487 150.337 39.2493 150.094 38.82C149.852 38.3907 149.525 38.0547 149.114 37.812C148.704 37.5693 148.237 37.448 147.714 37.448C147.192 37.448 146.72 37.5693 146.3 37.812C145.89 38.0547 145.563 38.3907 145.32 38.82C145.087 39.2493 144.97 39.7487 144.97 40.318C144.97 40.8873 145.087 41.3913 145.32 41.83C145.563 42.2593 145.89 42.5953 146.3 42.838C146.72 43.0713 147.192 43.188 147.714 43.188ZM156.612 44.07C155.902 44.07 155.263 43.9113 154.694 43.594C154.134 43.2673 153.69 42.824 153.364 42.264C153.037 41.6947 152.874 41.046 152.874 40.318C152.874 39.5807 153.037 38.932 153.364 38.372C153.69 37.812 154.134 37.3733 154.694 37.056C155.254 36.7387 155.893 36.58 156.612 36.58C157.34 36.58 157.984 36.7387 158.544 37.056C159.113 37.3733 159.556 37.812 159.874 38.372C160.2 38.932 160.364 39.5807 160.364 40.318C160.364 41.046 160.2 41.6947 159.874 42.264C159.556 42.824 159.113 43.2673 158.544 43.594C157.974 43.9113 157.33 44.07 156.612 44.07ZM156.612 43.188C157.144 43.188 157.615 43.0713 158.026 42.838C158.436 42.5953 158.758 42.2593 158.992 41.83C159.234 41.3913 159.356 40.8873 159.356 40.318C159.356 39.7393 159.234 39.2353 158.992 38.806C158.758 38.3767 158.436 38.0453 158.026 37.812C157.615 37.5693 157.148 37.448 156.626 37.448C156.103 37.448 155.636 37.5693 155.226 37.812C154.815 38.0453 154.488 38.3767 154.246 38.806C154.003 39.2353 153.882 39.7393 153.882 40.318C153.882 40.8873 154.003 41.3913 154.246 41.83C154.488 42.2593 154.815 42.5953 155.226 42.838C155.636 43.0713 156.098 43.188 156.612 43.188ZM167.487 43.524V37.518H163.945L163.861 39.156C163.843 39.6507 163.81 40.136 163.763 40.612C163.726 41.088 163.656 41.5267 163.553 41.928C163.46 42.32 163.325 42.642 163.147 42.894C162.97 43.1367 162.741 43.2767 162.461 43.314L161.467 43.132C161.757 43.1413 161.995 43.0387 162.181 42.824C162.368 42.6 162.513 42.2967 162.615 41.914C162.718 41.5313 162.793 41.0973 162.839 40.612C162.886 40.1173 162.923 39.6133 162.951 39.1L163.049 36.65H168.481V43.524H167.487ZM161.159 45.778V43.132H169.629V45.778H168.691V44H162.097V45.778H161.159ZM176.13 44V42.376L176.088 42.11V39.394C176.088 38.7687 175.911 38.288 175.556 37.952C175.211 37.616 174.693 37.448 174.002 37.448C173.526 37.448 173.074 37.5273 172.644 37.686C172.215 37.8447 171.851 38.0547 171.552 38.316L171.104 37.574C171.478 37.2567 171.926 37.014 172.448 36.846C172.971 36.6687 173.522 36.58 174.1 36.58C175.052 36.58 175.785 36.818 176.298 37.294C176.821 37.7607 177.082 38.4747 177.082 39.436V44H176.13ZM173.596 44.07C173.046 44.07 172.565 43.9813 172.154 43.804C171.753 43.6173 171.445 43.3653 171.23 43.048C171.016 42.7213 170.908 42.348 170.908 41.928C170.908 41.5453 170.997 41.2 171.174 40.892C171.361 40.5747 171.66 40.3227 172.07 40.136C172.49 39.94 173.05 39.842 173.75 39.842H176.284V40.584H173.778C173.069 40.584 172.574 40.71 172.294 40.962C172.024 41.214 171.888 41.5267 171.888 41.9C171.888 42.32 172.052 42.656 172.378 42.908C172.705 43.16 173.162 43.286 173.75 43.286C174.31 43.286 174.791 43.16 175.192 42.908C175.603 42.6467 175.902 42.2733 176.088 41.788L176.312 42.474C176.126 42.9593 175.799 43.3467 175.332 43.636C174.875 43.9253 174.296 44.07 173.596 44.07ZM182.878 44.07C182.113 44.07 181.441 43.9113 180.862 43.594C180.284 43.2673 179.831 42.824 179.504 42.264C179.178 41.6947 179.014 41.046 179.014 40.318C179.014 39.59 179.168 38.946 179.476 38.386C179.794 37.826 180.223 37.3873 180.764 37.07C181.315 36.7433 181.931 36.58 182.612 36.58C183.303 36.58 183.914 36.7387 184.446 37.056C184.988 37.364 185.412 37.8027 185.72 38.372C186.028 38.932 186.182 39.5807 186.182 40.318C186.182 40.3647 186.178 40.416 186.168 40.472C186.168 40.5187 186.168 40.57 186.168 40.626H179.77V39.884H185.636L185.244 40.178C185.244 39.646 185.128 39.1747 184.894 38.764C184.67 38.344 184.362 38.0173 183.97 37.784C183.578 37.5507 183.126 37.434 182.612 37.434C182.108 37.434 181.656 37.5507 181.254 37.784C180.853 38.0173 180.54 38.344 180.316 38.764C180.092 39.184 179.98 39.6647 179.98 40.206V40.36C179.98 40.92 180.102 41.4147 180.344 41.844C180.596 42.264 180.942 42.5953 181.38 42.838C181.828 43.0713 182.337 43.188 182.906 43.188C183.354 43.188 183.77 43.1087 184.152 42.95C184.544 42.7913 184.88 42.5487 185.16 42.222L185.72 42.866C185.394 43.258 184.983 43.5567 184.488 43.762C184.003 43.9673 183.466 44.07 182.878 44.07ZM189.455 44V37.252L189.707 37.518H186.669V36.65H193.235V37.518H190.197L190.449 37.252V44H189.455ZM197.48 44.07C196.715 44.07 196.043 43.9113 195.464 43.594C194.885 43.2673 194.433 42.824 194.106 42.264C193.779 41.6947 193.616 41.046 193.616 40.318C193.616 39.59 193.77 38.946 194.078 38.386C194.395 37.826 194.825 37.3873 195.366 37.07C195.917 36.7433 196.533 36.58 197.214 36.58C197.905 36.58 198.516 36.7387 199.048 37.056C199.589 37.364 200.014 37.8027 200.322 38.372C200.63 38.932 200.784 39.5807 200.784 40.318C200.784 40.3647 200.779 40.416 200.77 40.472C200.77 40.5187 200.77 40.57 200.77 40.626H194.372V39.884H200.238L199.846 40.178C199.846 39.646 199.729 39.1747 199.496 38.764C199.272 38.344 198.964 38.0173 198.572 37.784C198.18 37.5507 197.727 37.434 197.214 37.434C196.71 37.434 196.257 37.5507 195.856 37.784C195.455 38.0173 195.142 38.344 194.918 38.764C194.694 39.184 194.582 39.6647 194.582 40.206V40.36C194.582 40.92 194.703 41.4147 194.946 41.844C195.198 42.264 195.543 42.5953 195.982 42.838C196.43 43.0713 196.939 43.188 197.508 43.188C197.956 43.188 198.371 43.1087 198.754 42.95C199.146 42.7913 199.482 42.5487 199.762 42.222L200.322 42.866C199.995 43.258 199.585 43.5567 199.09 43.762C198.605 43.9673 198.068 44.07 197.48 44.07ZM210.778 44.084C210.778 44.084 210.76 44.084 210.722 44.084C210.685 44.084 210.648 44.084 210.61 44.084C210.582 44.084 210.559 44.084 210.54 44.084C209.084 44.0747 207.95 43.7433 207.138 43.09C206.326 42.4367 205.92 41.508 205.92 40.304C205.92 39.1187 206.326 38.204 207.138 37.56C207.96 36.9067 209.112 36.5753 210.596 36.566C210.606 36.566 210.624 36.566 210.652 36.566C210.69 36.566 210.722 36.566 210.75 36.566C210.778 36.566 210.797 36.566 210.806 36.566C212.3 36.5753 213.462 36.9067 214.292 37.56C215.123 38.204 215.538 39.1187 215.538 40.304C215.538 41.5173 215.118 42.4507 214.278 43.104C213.448 43.7573 212.281 44.084 210.778 44.084ZM210.764 43.216C211.595 43.216 212.29 43.104 212.85 42.88C213.41 42.6467 213.835 42.3153 214.124 41.886C214.414 41.4567 214.558 40.9293 214.558 40.304C214.558 39.6973 214.414 39.184 214.124 38.764C213.835 38.3347 213.41 38.008 212.85 37.784C212.29 37.56 211.595 37.448 210.764 37.448C210.755 37.448 210.727 37.448 210.68 37.448C210.643 37.448 210.62 37.448 210.61 37.448C209.798 37.448 209.117 37.5647 208.566 37.798C208.016 38.022 207.6 38.344 207.32 38.764C207.04 39.184 206.9 39.6973 206.9 40.304C206.9 40.92 207.04 41.4427 207.32 41.872C207.61 42.3013 208.03 42.6327 208.58 42.866C209.131 43.09 209.808 43.2067 210.61 43.216C210.629 43.216 210.657 43.216 210.694 43.216C210.732 43.216 210.755 43.216 210.764 43.216ZM210.232 46.716V33.612H211.198V46.716H210.232ZM220.805 39.24C221.729 39.2493 222.429 39.4547 222.905 39.856C223.39 40.2573 223.633 40.836 223.633 41.592C223.633 42.376 223.371 42.978 222.849 43.398C222.335 43.818 221.589 44.0233 220.609 44.014L217.641 44V36.65H218.635V39.212L220.805 39.24ZM220.553 43.258C221.234 43.2673 221.747 43.132 222.093 42.852C222.447 42.5627 222.625 42.1427 222.625 41.592C222.625 41.0413 222.452 40.64 222.107 40.388C221.761 40.1267 221.243 39.9913 220.553 39.982L218.635 39.954V43.23L220.553 43.258ZM225.529 44V36.65H226.523V39.814H228.763V40.724H226.523V44H225.529ZM231.857 44.07C231.157 44.07 230.527 43.9113 229.967 43.594C229.417 43.2673 228.983 42.824 228.665 42.264C228.348 41.6947 228.189 41.046 228.189 40.318C228.189 39.5807 228.348 38.932 228.665 38.372C228.983 37.812 229.417 37.3733 229.967 37.056C230.527 36.7387 231.157 36.58 231.857 36.58C232.557 36.58 233.183 36.7387 233.733 37.056C234.284 37.3733 234.718 37.812 235.035 38.372C235.353 38.932 235.511 39.5807 235.511 40.318C235.511 41.046 235.353 41.6947 235.035 42.264C234.718 42.824 234.284 43.2673 233.733 43.594C233.183 43.9113 232.557 44.07 231.857 44.07ZM231.857 43.202C232.371 43.202 232.828 43.0807 233.229 42.838C233.631 42.5953 233.948 42.2593 234.181 41.83C234.415 41.3913 234.531 40.8873 234.531 40.318C234.531 39.7393 234.415 39.2353 234.181 38.806C233.948 38.3767 233.631 38.0453 233.229 37.812C232.828 37.5693 232.371 37.448 231.857 37.448C231.353 37.448 230.896 37.5693 230.485 37.812C230.084 38.0453 229.767 38.3767 229.533 38.806C229.3 39.2353 229.183 39.7393 229.183 40.318C229.183 40.8873 229.3 41.3913 229.533 41.83C229.767 42.2593 230.084 42.5953 230.485 42.838C230.896 43.0807 231.353 43.202 231.857 43.202ZM242.291 40.892C241.861 41.0787 241.427 41.228 240.989 41.34C240.559 41.4427 240.13 41.494 239.701 41.494C238.833 41.494 238.147 41.298 237.643 40.906C237.139 40.5047 236.887 39.8887 236.887 39.058V36.65H237.867V39.002C237.867 39.562 238.049 39.982 238.413 40.262C238.777 40.542 239.267 40.682 239.883 40.682C240.256 40.682 240.648 40.6353 241.059 40.542C241.469 40.4393 241.885 40.2947 242.305 40.108L242.291 40.892ZM242.207 44V36.65H243.201V44H242.207ZM249.173 44.07C248.408 44.07 247.736 43.9113 247.157 43.594C246.579 43.2673 246.126 42.824 245.799 42.264C245.473 41.6947 245.309 41.046 245.309 40.318C245.309 39.59 245.463 38.946 245.771 38.386C246.089 37.826 246.518 37.3873 247.059 37.07C247.61 36.7433 248.226 36.58 248.907 36.58C249.598 36.58 250.209 36.7387 250.741 37.056C251.283 37.364 251.707 37.8027 252.015 38.372C252.323 38.932 252.477 39.5807 252.477 40.318C252.477 40.3647 252.473 40.416 252.463 40.472C252.463 40.5187 252.463 40.57 252.463 40.626H246.065V39.884H251.931L251.539 40.178C251.539 39.646 251.423 39.1747 251.189 38.764C250.965 38.344 250.657 38.0173 250.265 37.784C249.873 37.5507 249.421 37.434 248.907 37.434C248.403 37.434 247.951 37.5507 247.549 37.784C247.148 38.0173 246.835 38.344 246.611 38.764C246.387 39.184 246.275 39.6647 246.275 40.206V40.36C246.275 40.92 246.397 41.4147 246.639 41.844C246.891 42.264 247.237 42.5953 247.675 42.838C248.123 43.0713 248.632 43.188 249.201 43.188C249.649 43.188 250.065 43.1087 250.447 42.95C250.839 42.7913 251.175 42.5487 251.455 42.222L252.015 42.866C251.689 43.258 251.278 43.5567 250.783 43.762C250.298 43.9673 249.761 44.07 249.173 44.07ZM258.472 44.07C257.837 44.07 257.263 43.9253 256.75 43.636C256.236 43.3373 255.826 42.9127 255.518 42.362C255.219 41.802 255.07 41.1207 255.07 40.318C255.07 39.5153 255.219 38.8387 255.518 38.288C255.816 37.728 256.222 37.3033 256.736 37.014C257.249 36.7247 257.828 36.58 258.472 36.58C259.172 36.58 259.797 36.7387 260.348 37.056C260.908 37.364 261.346 37.8027 261.664 38.372C261.981 38.932 262.14 39.5807 262.14 40.318C262.14 41.0647 261.981 41.718 261.664 42.278C261.346 42.838 260.908 43.2767 260.348 43.594C259.797 43.9113 259.172 44.07 258.472 44.07ZM254.678 46.716V36.65H255.63V38.862L255.532 40.332L255.672 41.816V46.716H254.678ZM258.402 43.188C258.924 43.188 259.391 43.0713 259.802 42.838C260.212 42.5953 260.539 42.2593 260.782 41.83C261.024 41.3913 261.146 40.8873 261.146 40.318C261.146 39.7487 261.024 39.2493 260.782 38.82C260.539 38.3907 260.212 38.0547 259.802 37.812C259.391 37.5693 258.924 37.448 258.402 37.448C257.879 37.448 257.408 37.5693 256.988 37.812C256.577 38.0547 256.25 38.3907 256.008 38.82C255.774 39.2493 255.658 39.7487 255.658 40.318C255.658 40.8873 255.774 41.3913 256.008 41.83C256.25 42.2593 256.577 42.5953 256.988 42.838C257.408 43.0713 257.879 43.188 258.402 43.188ZM267.355 44.07C266.627 44.07 265.974 43.9113 265.395 43.594C264.826 43.2673 264.378 42.824 264.051 42.264C263.725 41.6947 263.561 41.046 263.561 40.318C263.561 39.5807 263.725 38.932 264.051 38.372C264.378 37.812 264.826 37.3733 265.395 37.056C265.974 36.7387 266.627 36.58 267.355 36.58C267.981 36.58 268.545 36.7013 269.049 36.944C269.553 37.1867 269.95 37.5507 270.239 38.036L269.497 38.54C269.245 38.1667 268.933 37.8913 268.559 37.714C268.186 37.5367 267.78 37.448 267.341 37.448C266.819 37.448 266.347 37.5693 265.927 37.812C265.507 38.0453 265.176 38.3767 264.933 38.806C264.691 39.2353 264.569 39.7393 264.569 40.318C264.569 40.8967 264.691 41.4007 264.933 41.83C265.176 42.2593 265.507 42.5953 265.927 42.838C266.347 43.0713 266.819 43.188 267.341 43.188C267.78 43.188 268.186 43.0993 268.559 42.922C268.933 42.7447 269.245 42.474 269.497 42.11L270.239 42.614C269.95 43.09 269.553 43.454 269.049 43.706C268.545 43.9487 267.981 44.07 267.355 44.07ZM109.414 67V59.65H116.022V67H115.028V60.252L115.28 60.518H110.156L110.408 60.252V67H109.414ZM121.872 67.07C121.162 67.07 120.523 66.9113 119.954 66.594C119.394 66.2673 118.95 65.824 118.624 65.264C118.297 64.6947 118.134 64.046 118.134 63.318C118.134 62.5807 118.297 61.932 118.624 61.372C118.95 60.812 119.394 60.3733 119.954 60.056C120.514 59.7387 121.153 59.58 121.872 59.58C122.6 59.58 123.244 59.7387 123.804 60.056C124.373 60.3733 124.816 60.812 125.134 61.372C125.46 61.932 125.624 62.5807 125.624 63.318C125.624 64.046 125.46 64.6947 125.134 65.264C124.816 65.824 124.373 66.2673 123.804 66.594C123.234 66.9113 122.59 67.07 121.872 67.07ZM121.872 66.188C122.404 66.188 122.875 66.0713 123.286 65.838C123.696 65.5953 124.018 65.2593 124.252 64.83C124.494 64.3913 124.616 63.8873 124.616 63.318C124.616 62.7393 124.494 62.2353 124.252 61.806C124.018 61.3767 123.696 61.0453 123.286 60.812C122.875 60.5693 122.408 60.448 121.886 60.448C121.363 60.448 120.896 60.5693 120.486 60.812C120.075 61.0453 119.748 61.3767 119.506 61.806C119.263 62.2353 119.142 62.7393 119.142 63.318C119.142 63.8873 119.263 64.3913 119.506 64.83C119.748 65.2593 120.075 65.5953 120.486 65.838C120.896 66.0713 121.358 66.188 121.872 66.188ZM132.434 63.64V62.884H136.704V63.64H132.434ZM133.414 59.58C134.161 59.58 134.828 59.7433 135.416 60.07C136.004 60.3873 136.466 60.8307 136.802 61.4C137.147 61.96 137.32 62.5993 137.32 63.318C137.32 64.0367 137.147 64.6807 136.802 65.25C136.466 65.8193 136.004 66.2673 135.416 66.594C134.828 66.9207 134.161 67.084 133.414 67.084C132.807 67.084 132.243 66.9907 131.72 66.804C131.207 66.608 130.773 66.328 130.418 65.964L131.006 65.376C131.323 65.6747 131.683 65.8987 132.084 66.048C132.485 66.188 132.915 66.258 133.372 66.258C133.951 66.258 134.464 66.132 134.912 65.88C135.369 65.6187 135.729 65.2687 135.99 64.83C136.251 64.382 136.382 63.878 136.382 63.318C136.382 62.758 136.251 62.2587 135.99 61.82C135.729 61.372 135.369 61.022 134.912 60.77C134.464 60.518 133.951 60.392 133.372 60.392C132.915 60.392 132.485 60.4667 132.084 60.616C131.683 60.756 131.323 60.9753 131.006 61.274L130.418 60.7C130.773 60.3267 131.207 60.0467 131.72 59.86C132.243 59.6733 132.807 59.58 133.414 59.58ZM140.537 67V60.252L140.789 60.518H137.751V59.65H144.317V60.518H141.279L141.531 60.252V67H140.537ZM148.436 67.07C147.727 67.07 147.087 66.9113 146.518 66.594C145.958 66.2673 145.515 65.824 145.188 65.264C144.861 64.6947 144.698 64.046 144.698 63.318C144.698 62.5807 144.861 61.932 145.188 61.372C145.515 60.812 145.958 60.3733 146.518 60.056C147.078 59.7387 147.717 59.58 148.436 59.58C149.164 59.58 149.808 59.7387 150.368 60.056C150.937 60.3733 151.381 60.812 151.698 61.372C152.025 61.932 152.188 62.5807 152.188 63.318C152.188 64.046 152.025 64.6947 151.698 65.264C151.381 65.824 150.937 66.2673 150.368 66.594C149.799 66.9113 149.155 67.07 148.436 67.07ZM148.436 66.188C148.968 66.188 149.439 66.0713 149.85 65.838C150.261 65.5953 150.583 65.2593 150.816 64.83C151.059 64.3913 151.18 63.8873 151.18 63.318C151.18 62.7393 151.059 62.2353 150.816 61.806C150.583 61.3767 150.261 61.0453 149.85 60.812C149.439 60.5693 148.973 60.448 148.45 60.448C147.927 60.448 147.461 60.5693 147.05 60.812C146.639 61.0453 146.313 61.3767 146.07 61.806C145.827 62.2353 145.706 62.7393 145.706 63.318C145.706 63.8873 145.827 64.3913 146.07 64.83C146.313 65.2593 146.639 65.5953 147.05 65.838C147.461 66.0713 147.923 66.188 148.436 66.188ZM154.312 67V59.65H155.306V65.488L160.22 59.65H161.102V67H160.108V61.148L155.208 67H154.312ZM157.644 58.586C157.028 58.586 156.529 58.432 156.146 58.124C155.773 57.8067 155.577 57.354 155.558 56.766H156.272C156.282 57.1393 156.412 57.4333 156.664 57.648C156.916 57.8627 157.243 57.97 157.644 57.97C158.046 57.97 158.372 57.8627 158.624 57.648C158.886 57.4333 159.021 57.1393 159.03 56.766H159.744C159.735 57.354 159.539 57.8067 159.156 58.124C158.774 58.432 158.27 58.586 157.644 58.586ZM167.615 67V59.65H168.609V66.132H173.103V59.65H174.097V67H167.615ZM174.349 68.778V66.916L174.601 67H173.103V66.132H175.287V68.778H174.349ZM180.335 67.07C179.57 67.07 178.898 66.9113 178.319 66.594C177.741 66.2673 177.288 65.824 176.961 65.264C176.635 64.6947 176.471 64.046 176.471 63.318C176.471 62.59 176.625 61.946 176.933 61.386C177.251 60.826 177.68 60.3873 178.221 60.07C178.772 59.7433 179.388 59.58 180.069 59.58C180.76 59.58 181.371 59.7387 181.903 60.056C182.445 60.364 182.869 60.8027 183.177 61.372C183.485 61.932 183.639 62.5807 183.639 63.318C183.639 63.3647 183.635 63.416 183.625 63.472C183.625 63.5187 183.625 63.57 183.625 63.626H177.227V62.884H183.093L182.701 63.178C182.701 62.646 182.585 62.1747 182.351 61.764C182.127 61.344 181.819 61.0173 181.427 60.784C181.035 60.5507 180.583 60.434 180.069 60.434C179.565 60.434 179.113 60.5507 178.711 60.784C178.31 61.0173 177.997 61.344 177.773 61.764C177.549 62.184 177.437 62.6647 177.437 63.206V63.36C177.437 63.92 177.559 64.4147 177.801 64.844C178.053 65.264 178.399 65.5953 178.837 65.838C179.285 66.0713 179.794 66.188 180.363 66.188C180.811 66.188 181.227 66.1087 181.609 65.95C182.001 65.7913 182.337 65.5487 182.617 65.222L183.177 65.866C182.851 66.258 182.44 66.5567 181.945 66.762C181.46 66.9673 180.923 67.07 180.335 67.07ZM185.84 67V59.65H186.834V62.898H191.468V59.65H192.462V67H191.468V63.752H186.834V67H185.84ZM198.437 67.07C197.672 67.07 197 66.9113 196.421 66.594C195.842 66.2673 195.39 65.824 195.063 65.264C194.736 64.6947 194.573 64.046 194.573 63.318C194.573 62.59 194.727 61.946 195.035 61.386C195.352 60.826 195.782 60.3873 196.323 60.07C196.874 59.7433 197.49 59.58 198.171 59.58C198.862 59.58 199.473 59.7387 200.005 60.056C200.546 60.364 200.971 60.8027 201.279 61.372C201.587 61.932 201.741 62.5807 201.741 63.318C201.741 63.3647 201.736 63.416 201.727 63.472C201.727 63.5187 201.727 63.57 201.727 63.626H195.329V62.884H201.195L200.803 63.178C200.803 62.646 200.686 62.1747 200.453 61.764C200.229 61.344 199.921 61.0173 199.529 60.784C199.137 60.5507 198.684 60.434 198.171 60.434C197.667 60.434 197.214 60.5507 196.813 60.784C196.412 61.0173 196.099 61.344 195.875 61.764C195.651 62.184 195.539 62.6647 195.539 63.206V63.36C195.539 63.92 195.66 64.4147 195.903 64.844C196.155 65.264 196.5 65.5953 196.939 65.838C197.387 66.0713 197.896 66.188 198.465 66.188C198.913 66.188 199.328 66.1087 199.711 65.95C200.103 65.7913 200.439 65.5487 200.719 65.222L201.279 65.866C200.952 66.258 200.542 66.5567 200.047 66.762C199.562 66.9673 199.025 67.07 198.437 67.07Z" fill="#214B33"/>
<path d="M156 70L287 70" stroke="#214B33"/>
<path d="M156 23L302 23" stroke="#BC0051"/>
<path d="M157.652 17V7.2H161.32C162.151 7.2 162.865 7.33533 163.462 7.606C164.059 7.86733 164.517 8.25 164.834 8.754C165.161 9.24867 165.324 9.85067 165.324 10.56C165.324 11.2507 165.161 11.848 164.834 12.352C164.517 12.8467 164.059 13.2293 163.462 13.5C162.865 13.7707 162.151 13.906 161.32 13.906H158.226L158.688 13.416V17H157.652ZM158.688 13.5L158.226 12.996H161.292C162.272 12.996 163.014 12.786 163.518 12.366C164.031 11.9367 164.288 11.3347 164.288 10.56C164.288 9.776 164.031 9.16933 163.518 8.74C163.014 8.31067 162.272 8.096 161.292 8.096H158.226L158.688 7.606V13.5ZM170.186 17.07C169.477 17.07 168.837 16.9113 168.268 16.594C167.708 16.2673 167.265 15.824 166.938 15.264C166.611 14.6947 166.448 14.046 166.448 13.318C166.448 12.5807 166.611 11.932 166.938 11.372C167.265 10.812 167.708 10.3733 168.268 10.056C168.828 9.73867 169.467 9.58 170.186 9.58C170.914 9.58 171.558 9.73867 172.118 10.056C172.687 10.3733 173.131 10.812 173.448 11.372C173.775 11.932 173.938 12.5807 173.938 13.318C173.938 14.046 173.775 14.6947 173.448 15.264C173.131 15.824 172.687 16.2673 172.118 16.594C171.549 16.9113 170.905 17.07 170.186 17.07ZM170.186 16.188C170.718 16.188 171.189 16.0713 171.6 15.838C172.011 15.5953 172.333 15.2593 172.566 14.83C172.809 14.3913 172.93 13.8873 172.93 13.318C172.93 12.7393 172.809 12.2353 172.566 11.806C172.333 11.3767 172.011 11.0453 171.6 10.812C171.189 10.5693 170.723 10.448 170.2 10.448C169.677 10.448 169.211 10.5693 168.8 10.812C168.389 11.0453 168.063 11.3767 167.82 11.806C167.577 12.2353 167.456 12.7393 167.456 13.318C167.456 13.8873 167.577 14.3913 167.82 14.83C168.063 15.2593 168.389 15.5953 168.8 15.838C169.211 16.0713 169.673 16.188 170.186 16.188ZM177.982 17.084C177.45 17.084 176.922 17.0093 176.4 16.86C175.877 16.7107 175.415 16.482 175.014 16.174L175.336 15.432C175.69 15.6933 176.101 15.894 176.568 16.034C177.034 16.1647 177.496 16.23 177.954 16.23C178.411 16.2207 178.808 16.1553 179.144 16.034C179.48 15.9127 179.741 15.7447 179.928 15.53C180.114 15.3153 180.208 15.0727 180.208 14.802C180.208 14.41 180.03 14.1067 179.676 13.892C179.321 13.668 178.836 13.556 178.22 13.556H176.96V12.828H178.15C178.514 12.828 178.836 12.7813 179.116 12.688C179.396 12.5947 179.61 12.4593 179.76 12.282C179.918 12.1047 179.998 11.8947 179.998 11.652C179.998 11.3907 179.904 11.1667 179.718 10.98C179.54 10.7933 179.293 10.6533 178.976 10.56C178.658 10.4667 178.299 10.42 177.898 10.42C177.534 10.4293 177.156 10.4853 176.764 10.588C176.372 10.6813 175.984 10.826 175.602 11.022L175.322 10.252C175.751 10.028 176.176 9.86 176.596 9.748C177.025 9.62667 177.454 9.566 177.884 9.566C178.472 9.54733 178.999 9.61733 179.466 9.776C179.942 9.93467 180.32 10.1633 180.6 10.462C180.88 10.7513 181.02 11.1013 181.02 11.512C181.02 11.876 180.908 12.1933 180.684 12.464C180.46 12.7347 180.161 12.9447 179.788 13.094C179.414 13.2433 178.99 13.318 178.514 13.318L178.556 13.052C179.396 13.052 180.049 13.2153 180.516 13.542C180.992 13.8687 181.23 14.312 181.23 14.872C181.23 15.3107 181.085 15.698 180.796 16.034C180.506 16.3607 180.114 16.6173 179.62 16.804C179.134 16.9907 178.588 17.084 177.982 17.084ZM183.486 17V9.65H184.48V12.898H189.114V9.65H190.108V17H189.114V13.752H184.48V17H183.486ZM192.934 17V9.65H193.928V15.488L198.842 9.65H199.724V17H198.73V11.148L193.83 17H192.934ZM207.22 13.892C206.791 14.0787 206.357 14.228 205.918 14.34C205.489 14.4427 205.06 14.494 204.63 14.494C203.762 14.494 203.076 14.298 202.572 13.906C202.068 13.5047 201.816 12.8887 201.816 12.058V9.65H202.796V12.002C202.796 12.562 202.978 12.982 203.342 13.262C203.706 13.542 204.196 13.682 204.812 13.682C205.186 13.682 205.578 13.6353 205.988 13.542C206.399 13.4393 206.814 13.2947 207.234 13.108L207.22 13.892ZM207.136 17V9.65H208.13V17H207.136ZM210.953 17V9.65H211.947V12.898H216.581V9.65H217.575V17H216.581V13.752H211.947V17H210.953ZM224.964 17V15.376L224.922 15.11V12.394C224.922 11.7687 224.745 11.288 224.39 10.952C224.045 10.616 223.527 10.448 222.836 10.448C222.36 10.448 221.908 10.5273 221.478 10.686C221.049 10.8447 220.685 11.0547 220.386 11.316L219.938 10.574C220.312 10.2567 220.76 10.014 221.282 9.846C221.805 9.66867 222.356 9.58 222.934 9.58C223.886 9.58 224.619 9.818 225.132 10.294C225.655 10.7607 225.916 11.4747 225.916 12.436V17H224.964ZM222.43 17.07C221.88 17.07 221.399 16.9813 220.988 16.804C220.587 16.6173 220.279 16.3653 220.064 16.048C219.85 15.7213 219.742 15.348 219.742 14.928C219.742 14.5453 219.831 14.2 220.008 13.892C220.195 13.5747 220.494 13.3227 220.904 13.136C221.324 12.94 221.884 12.842 222.584 12.842H225.118V13.584H222.612C221.903 13.584 221.408 13.71 221.128 13.962C220.858 14.214 220.722 14.5267 220.722 14.9C220.722 15.32 220.886 15.656 221.212 15.908C221.539 16.16 221.996 16.286 222.584 16.286C223.144 16.286 223.625 16.16 224.026 15.908C224.437 15.6467 224.736 15.2733 224.922 14.788L225.146 15.474C224.96 15.9593 224.633 16.3467 224.166 16.636C223.709 16.9253 223.13 17.07 222.43 17.07ZM233.308 17V14.354L233.49 14.564H230.998C230.056 14.564 229.318 14.3587 228.786 13.948C228.254 13.5373 227.988 12.94 227.988 12.156C227.988 11.316 228.273 10.6907 228.842 10.28C229.412 9.86 230.172 9.65 231.124 9.65H234.218V17H233.308ZM227.932 17L229.948 14.172H230.984L229.01 17H227.932ZM233.308 14.06V10.224L233.49 10.518H231.152C230.471 10.518 229.939 10.6487 229.556 10.91C229.183 11.1713 228.996 11.596 228.996 12.184C228.996 13.276 229.692 13.822 231.082 13.822H233.49L233.308 14.06ZM240.717 17V9.65H241.711V16.132H246.205V9.65H247.199V17H240.717ZM247.451 18.778V16.916L247.703 17H246.205V16.132H248.389V18.778H247.451ZM253.437 17.07C252.672 17.07 252 16.9113 251.421 16.594C250.842 16.2673 250.39 15.824 250.063 15.264C249.736 14.6947 249.573 14.046 249.573 13.318C249.573 12.59 249.727 11.946 250.035 11.386C250.352 10.826 250.782 10.3873 251.323 10.07C251.874 9.74333 252.49 9.58 253.171 9.58C253.862 9.58 254.473 9.73867 255.005 10.056C255.546 10.364 255.971 10.8027 256.279 11.372C256.587 11.932 256.741 12.5807 256.741 13.318C256.741 13.3647 256.736 13.416 256.727 13.472C256.727 13.5187 256.727 13.57 256.727 13.626H250.329V12.884H256.195L255.803 13.178C255.803 12.646 255.686 12.1747 255.453 11.764C255.229 11.344 254.921 11.0173 254.529 10.784C254.137 10.5507 253.684 10.434 253.171 10.434C252.667 10.434 252.214 10.5507 251.813 10.784C251.412 11.0173 251.099 11.344 250.875 11.764C250.651 12.184 250.539 12.6647 250.539 13.206V13.36C250.539 13.92 250.66 14.4147 250.903 14.844C251.155 15.264 251.5 15.5953 251.939 15.838C252.387 16.0713 252.896 16.188 253.465 16.188C253.913 16.188 254.328 16.1087 254.711 15.95C255.103 15.7913 255.439 15.5487 255.719 15.222L256.279 15.866C255.952 16.258 255.542 16.5567 255.047 16.762C254.562 16.9673 254.025 17.07 253.437 17.07ZM258.941 17V9.65H259.935V12.898H264.569V9.65H265.563V17H264.569V13.752H259.935V17H258.941ZM272.953 17V15.376L272.911 15.11V12.394C272.911 11.7687 272.733 11.288 272.379 10.952C272.033 10.616 271.515 10.448 270.825 10.448C270.349 10.448 269.896 10.5273 269.467 10.686C269.037 10.8447 268.673 11.0547 268.375 11.316L267.927 10.574C268.3 10.2567 268.748 10.014 269.271 9.846C269.793 9.66867 270.344 9.58 270.923 9.58C271.875 9.58 272.607 9.818 273.121 10.294C273.643 10.7607 273.905 11.4747 273.905 12.436V17H272.953ZM270.419 17.07C269.868 17.07 269.387 16.9813 268.977 16.804C268.575 16.6173 268.267 16.3653 268.053 16.048C267.838 15.7213 267.731 15.348 267.731 14.928C267.731 14.5453 267.819 14.2 267.997 13.892C268.183 13.5747 268.482 13.3227 268.893 13.136C269.313 12.94 269.873 12.842 270.573 12.842H273.107V13.584H270.601C269.891 13.584 269.397 13.71 269.117 13.962C268.846 14.214 268.711 14.5267 268.711 14.9C268.711 15.32 268.874 15.656 269.201 15.908C269.527 16.16 269.985 16.286 270.573 16.286C271.133 16.286 271.613 16.16 272.015 15.908C272.425 15.6467 272.724 15.2733 272.911 14.788L273.135 15.474C272.948 15.9593 272.621 16.3467 272.155 16.636C271.697 16.9253 271.119 17.07 270.419 17.07Z" fill="#BC0051"/>
</svg>
