<svg width="929" height="370" viewBox="0 0 929 370" fill="none" xmlns="http://www.w3.org/2000/svg">
<rect x="902" y="344" width="20" height="320" transform="rotate(180 902 344)" fill="#BC0051"/>
<rect x="874" y="344" width="20" height="266" transform="rotate(180 874 344)" fill="#214B33"/>
<rect x="846" y="344" width="20" height="254" transform="rotate(180 846 344)" fill="#A2C33D" fill-opacity="0.4"/>
<rect x="818" y="344" width="20" height="248" transform="rotate(180 818 344)" fill="#A2C33D" fill-opacity="0.4"/>
<rect x="790" y="344" width="20" height="240" transform="rotate(180 790 344)" fill="#A2C33D" fill-opacity="0.4"/>
<rect x="762" y="344" width="20" height="226" transform="rotate(180 762 344)" fill="#A2C33D" fill-opacity="0.4"/>
<rect x="734" y="344" width="20" height="220" transform="rotate(180 734 344)" fill="#A2C33D" fill-opacity="0.4"/>
<rect x="706" y="344" width="20" height="200" transform="rotate(180 706 344)" fill="#A2C33D" fill-opacity="0.4"/>
<rect x="678" y="344" width="20" height="196" transform="rotate(180 678 344)" fill="#A2C33D" fill-opacity="0.4"/>
<rect x="650" y="344" width="20" height="184" transform="rotate(180 650 344)" fill="#A2C33D" fill-opacity="0.4"/>
<rect x="622" y="344" width="20" height="184" transform="rotate(180 622 344)" fill="#A2C33D" fill-opacity="0.4"/>
<rect x="594" y="344" width="20" height="176" transform="rotate(180 594 344)" fill="#A2C33D" fill-opacity="0.4"/>
<rect x="566" y="344" width="20" height="172" transform="rotate(180 566 344)" fill="#A2C33D" fill-opacity="0.4"/>
<rect x="538" y="344" width="20" height="172" transform="rotate(180 538 344)" fill="#A2C33D" fill-opacity="0.4"/>
<rect x="510" y="344" width="20" height="152" transform="rotate(180 510 344)" fill="#A2C33D" fill-opacity="0.4"/>
<rect x="482" y="344" width="20" height="144" transform="rotate(180 482 344)" fill="#A2C33D" fill-opacity="0.4"/>
<rect x="454" y="344" width="20" height="140" transform="rotate(180 454 344)" fill="#A2C33D" fill-opacity="0.4"/>
<rect x="426" y="344" width="20" height="126" transform="rotate(180 426 344)" fill="#A2C33D" fill-opacity="0.4"/>
<rect x="398" y="344" width="20" height="120" transform="rotate(180 398 344)" fill="#A2C33D" fill-opacity="0.4"/>
<rect x="370" y="344" width="20" height="100" transform="rotate(180 370 344)" fill="#A2C33D"/>
<path d="M360 79V243.5" stroke="#A2C33D" stroke-width="20" stroke-dasharray="10 10"/>
<path d="M7.852 242.084C7.11467 242.084 6.43333 241.963 5.808 241.72C5.18267 241.468 4.64133 241.118 4.184 240.67C3.72667 240.222 3.36733 239.695 3.106 239.088C2.854 238.481 2.728 237.819 2.728 237.1C2.728 236.381 2.854 235.719 3.106 235.112C3.36733 234.505 3.72667 233.978 4.184 233.53C4.65067 233.082 5.19667 232.737 5.822 232.494C6.44733 232.242 7.12867 232.116 7.866 232.116C8.57533 232.116 9.24267 232.237 9.868 232.48C10.4933 232.713 11.0207 233.068 11.45 233.544L10.792 234.202C10.3907 233.791 9.94733 233.497 9.462 233.32C8.97667 233.133 8.454 233.04 7.894 233.04C7.306 233.04 6.76 233.143 6.256 233.348C5.752 233.544 5.31333 233.829 4.94 234.202C4.56667 234.566 4.27267 234.995 4.058 235.49C3.85267 235.975 3.75 236.512 3.75 237.1C3.75 237.688 3.85267 238.229 4.058 238.724C4.27267 239.209 4.56667 239.639 4.94 240.012C5.31333 240.376 5.752 240.661 6.256 240.866C6.76 241.062 7.306 241.16 7.894 241.16C8.454 241.16 8.97667 241.067 9.462 240.88C9.94733 240.693 10.3907 240.395 10.792 239.984L11.45 240.642C11.0207 241.118 10.4933 241.477 9.868 241.72C9.24267 241.963 8.57067 242.084 7.852 242.084ZM16.1164 242.07C15.407 242.07 14.7677 241.911 14.1984 241.594C13.6384 241.267 13.195 240.824 12.8684 240.264C12.5417 239.695 12.3784 239.046 12.3784 238.318C12.3784 237.581 12.5417 236.932 12.8684 236.372C13.195 235.812 13.6384 235.373 14.1984 235.056C14.7584 234.739 15.3977 234.58 16.1164 234.58C16.8444 234.58 17.4884 234.739 18.0484 235.056C18.6177 235.373 19.061 235.812 19.3784 236.372C19.705 236.932 19.8684 237.581 19.8684 238.318C19.8684 239.046 19.705 239.695 19.3784 240.264C19.061 240.824 18.6177 241.267 18.0484 241.594C17.479 241.911 16.835 242.07 16.1164 242.07ZM16.1164 241.188C16.6484 241.188 17.1197 241.071 17.5304 240.838C17.941 240.595 18.263 240.259 18.4964 239.83C18.739 239.391 18.8604 238.887 18.8604 238.318C18.8604 237.739 18.739 237.235 18.4964 236.806C18.263 236.377 17.941 236.045 17.5304 235.812C17.1197 235.569 16.653 235.448 16.1304 235.448C15.6077 235.448 15.141 235.569 14.7304 235.812C14.3197 236.045 13.993 236.377 13.7504 236.806C13.5077 237.235 13.3864 237.739 13.3864 238.318C13.3864 238.887 13.5077 239.391 13.7504 239.83C13.993 240.259 14.3197 240.595 14.7304 240.838C15.141 241.071 15.603 241.188 16.1164 241.188ZM31.0817 234.58C31.6791 234.58 32.1971 234.697 32.6357 234.93C33.0837 235.154 33.4291 235.499 33.6717 235.966C33.9237 236.433 34.0497 237.021 34.0497 237.73V242H33.0557V237.828C33.0557 237.053 32.8691 236.47 32.4957 236.078C32.1317 235.677 31.6137 235.476 30.9417 235.476C30.4377 235.476 29.9991 235.583 29.6257 235.798C29.2617 236.003 28.9771 236.307 28.7717 236.708C28.5757 237.1 28.4777 237.576 28.4777 238.136V242H27.4837V237.828C27.4837 237.053 27.2971 236.47 26.9237 236.078C26.5504 235.677 26.0277 235.476 25.3557 235.476C24.8611 235.476 24.4271 235.583 24.0537 235.798C23.6804 236.003 23.3911 236.307 23.1857 236.708C22.9897 237.1 22.8917 237.576 22.8917 238.136V242H21.8977V234.65H22.8497V236.638L22.6957 236.288C22.9197 235.756 23.2791 235.341 23.7737 235.042C24.2777 234.734 24.8704 234.58 25.5517 234.58C26.2704 234.58 26.8817 234.762 27.3857 235.126C27.8897 235.481 28.2164 236.017 28.3657 236.736L27.9737 236.582C28.1884 235.985 28.5664 235.504 29.1077 235.14C29.6584 234.767 30.3164 234.58 31.0817 234.58ZM40.5394 242.07C39.9047 242.07 39.3307 241.925 38.8174 241.636C38.304 241.337 37.8934 240.913 37.5854 240.362C37.2867 239.802 37.1374 239.121 37.1374 238.318C37.1374 237.515 37.2867 236.839 37.5854 236.288C37.884 235.728 38.29 235.303 38.8034 235.014C39.3167 234.725 39.8954 234.58 40.5394 234.58C41.2394 234.58 41.8647 234.739 42.4154 235.056C42.9754 235.364 43.414 235.803 43.7314 236.372C44.0487 236.932 44.2074 237.581 44.2074 238.318C44.2074 239.065 44.0487 239.718 43.7314 240.278C43.414 240.838 42.9754 241.277 42.4154 241.594C41.8647 241.911 41.2394 242.07 40.5394 242.07ZM36.7454 244.716V234.65H37.6974V236.862L37.5994 238.332L37.7394 239.816V244.716H36.7454ZM40.4694 241.188C40.992 241.188 41.4587 241.071 41.8694 240.838C42.28 240.595 42.6067 240.259 42.8494 239.83C43.092 239.391 43.2134 238.887 43.2134 238.318C43.2134 237.749 43.092 237.249 42.8494 236.82C42.6067 236.391 42.28 236.055 41.8694 235.812C41.4587 235.569 40.992 235.448 40.4694 235.448C39.9467 235.448 39.4754 235.569 39.0554 235.812C38.6447 236.055 38.318 236.391 38.0754 236.82C37.842 237.249 37.7254 237.749 37.7254 238.318C37.7254 238.887 37.842 239.391 38.0754 239.83C38.318 240.259 38.6447 240.595 39.0554 240.838C39.4754 241.071 39.9467 241.188 40.4694 241.188ZM46.2337 242V234.65H47.1857V236.652L47.0877 236.302C47.293 235.742 47.6383 235.317 48.1237 235.028C48.609 234.729 49.211 234.58 49.9297 234.58V235.546C49.8923 235.546 49.855 235.546 49.8177 235.546C49.7803 235.537 49.743 235.532 49.7057 235.532C48.931 235.532 48.3243 235.77 47.8857 236.246C47.447 236.713 47.2277 237.38 47.2277 238.248V242H46.2337ZM55.8025 242V240.376L55.7605 240.11V237.394C55.7605 236.769 55.5832 236.288 55.2285 235.952C54.8832 235.616 54.3652 235.448 53.6745 235.448C53.1985 235.448 52.7459 235.527 52.3165 235.686C51.8872 235.845 51.5232 236.055 51.2245 236.316L50.7765 235.574C51.1499 235.257 51.5979 235.014 52.1205 234.846C52.6432 234.669 53.1939 234.58 53.7725 234.58C54.7245 234.58 55.4572 234.818 55.9705 235.294C56.4932 235.761 56.7545 236.475 56.7545 237.436V242H55.8025ZM53.2685 242.07C52.7179 242.07 52.2372 241.981 51.8265 241.804C51.4252 241.617 51.1172 241.365 50.9025 241.048C50.6879 240.721 50.5805 240.348 50.5805 239.928C50.5805 239.545 50.6692 239.2 50.8465 238.892C51.0332 238.575 51.3319 238.323 51.7425 238.136C52.1625 237.94 52.7225 237.842 53.4225 237.842H55.9565V238.584H53.4505C52.7412 238.584 52.2465 238.71 51.9665 238.962C51.6959 239.214 51.5605 239.527 51.5605 239.9C51.5605 240.32 51.7239 240.656 52.0505 240.908C52.3772 241.16 52.8345 241.286 53.4225 241.286C53.9825 241.286 54.4632 241.16 54.8645 240.908C55.2752 240.647 55.5739 240.273 55.7605 239.788L55.9845 240.474C55.7979 240.959 55.4712 241.347 55.0045 241.636C54.5472 241.925 53.9685 242.07 53.2685 242.07ZM61.7784 242.07C61.0877 242.07 60.5557 241.883 60.1824 241.51C59.809 241.137 59.6224 240.609 59.6224 239.928V233.026H60.6164V239.872C60.6164 240.301 60.7237 240.633 60.9384 240.866C61.1624 241.099 61.4797 241.216 61.8904 241.216C62.329 241.216 62.693 241.09 62.9824 240.838L63.3324 241.552C63.1364 241.729 62.8984 241.86 62.6184 241.944C62.3477 242.028 62.0677 242.07 61.7784 242.07ZM58.3064 235.476V234.65H62.8564V235.476H58.3064ZM68.0041 242.07C67.2388 242.07 66.5668 241.911 65.9881 241.594C65.4094 241.267 64.9568 240.824 64.6301 240.264C64.3034 239.695 64.1401 239.046 64.1401 238.318C64.1401 237.59 64.2941 236.946 64.6021 236.386C64.9194 235.826 65.3488 235.387 65.8901 235.07C66.4408 234.743 67.0568 234.58 67.7381 234.58C68.4288 234.58 69.0401 234.739 69.5721 235.056C70.1134 235.364 70.5381 235.803 70.8461 236.372C71.1541 236.932 71.3081 237.581 71.3081 238.318C71.3081 238.365 71.3034 238.416 71.2941 238.472C71.2941 238.519 71.2941 238.57 71.2941 238.626H64.8961V237.884H70.7621L70.3701 238.178C70.3701 237.646 70.2534 237.175 70.0201 236.764C69.7961 236.344 69.4881 236.017 69.0961 235.784C68.7041 235.551 68.2514 235.434 67.7381 235.434C67.2341 235.434 66.7814 235.551 66.3801 235.784C65.9788 236.017 65.6661 236.344 65.4421 236.764C65.2181 237.184 65.1061 237.665 65.1061 238.206V238.36C65.1061 238.92 65.2274 239.415 65.4701 239.844C65.7221 240.264 66.0674 240.595 66.5061 240.838C66.9541 241.071 67.4628 241.188 68.0321 241.188C68.4801 241.188 68.8954 241.109 69.2781 240.95C69.6701 240.791 70.0061 240.549 70.2861 240.222L70.8461 240.866C70.5194 241.258 70.1088 241.557 69.6141 241.762C69.1288 241.967 68.5921 242.07 68.0041 242.07ZM77.1634 242V233.726C77.1634 233.073 77.3547 232.545 77.7374 232.144C78.12 231.743 78.6707 231.542 79.3894 231.542C79.6694 231.542 79.94 231.579 80.2014 231.654C80.4627 231.729 80.682 231.845 80.8594 232.004L80.5234 232.746C80.3834 232.625 80.22 232.536 80.0334 232.48C79.8467 232.415 79.646 232.382 79.4314 232.382C79.0114 232.382 78.6894 232.499 78.4654 232.732C78.2414 232.965 78.1294 233.311 78.1294 233.768V234.888L78.1574 235.35V242H77.1634ZM75.8474 235.476V234.65H80.3974V235.476H75.8474ZM84.7775 242.07C84.1522 242.07 83.6062 241.953 83.1395 241.72C82.6728 241.487 82.3088 241.137 82.0475 240.67C81.7955 240.203 81.6695 239.62 81.6695 238.92V234.65H82.6635V238.808C82.6635 239.592 82.8548 240.185 83.2375 240.586C83.6295 240.978 84.1755 241.174 84.8755 241.174C85.3888 241.174 85.8322 241.071 86.2055 240.866C86.5882 240.651 86.8775 240.343 87.0735 239.942C87.2788 239.541 87.3815 239.06 87.3815 238.5V234.65H88.3755V242H87.4235V239.984L87.5775 240.348C87.3442 240.889 86.9802 241.314 86.4855 241.622C86.0002 241.921 85.4308 242.07 84.7775 242.07ZM93.4698 242.07C92.7791 242.07 92.2471 241.883 91.8738 241.51C91.5004 241.137 91.3138 240.609 91.3138 239.928V233.026H92.3078V239.872C92.3078 240.301 92.4151 240.633 92.6298 240.866C92.8538 241.099 93.1711 241.216 93.5818 241.216C94.0204 241.216 94.3844 241.09 94.6738 240.838L95.0238 241.552C94.8278 241.729 94.5898 241.86 94.3098 241.944C94.0391 242.028 93.7591 242.07 93.4698 242.07ZM89.9978 235.476V234.65H94.5478V235.476H89.9978ZM99.8713 242.07C99.2459 242.07 98.6999 241.953 98.2333 241.72C97.7666 241.487 97.4026 241.137 97.1413 240.67C96.8893 240.203 96.7633 239.62 96.7633 238.92V234.65H97.7573V238.808C97.7573 239.592 97.9486 240.185 98.3313 240.586C98.7233 240.978 99.2693 241.174 99.9693 241.174C100.483 241.174 100.926 241.071 101.299 240.866C101.682 240.651 101.971 240.343 102.167 239.942C102.373 239.541 102.475 239.06 102.475 238.5V234.65H103.469V242H102.517V239.984L102.671 240.348C102.438 240.889 102.074 241.314 101.579 241.622C101.094 241.921 100.525 242.07 99.8713 242.07ZM106.24 242V234.65H107.192V236.652L107.094 236.302C107.299 235.742 107.644 235.317 108.13 235.028C108.615 234.729 109.217 234.58 109.936 234.58V235.546C109.898 235.546 109.861 235.546 109.824 235.546C109.786 235.537 109.749 235.532 109.712 235.532C108.937 235.532 108.33 235.77 107.892 236.246C107.453 236.713 107.234 237.38 107.234 238.248V242H106.24ZM114.803 242.07C114.038 242.07 113.366 241.911 112.787 241.594C112.208 241.267 111.756 240.824 111.429 240.264C111.102 239.695 110.939 239.046 110.939 238.318C110.939 237.59 111.093 236.946 111.401 236.386C111.718 235.826 112.148 235.387 112.689 235.07C113.24 234.743 113.856 234.58 114.537 234.58C115.228 234.58 115.839 234.739 116.371 235.056C116.912 235.364 117.337 235.803 117.645 236.372C117.953 236.932 118.107 237.581 118.107 238.318C118.107 238.365 118.102 238.416 118.093 238.472C118.093 238.519 118.093 238.57 118.093 238.626H111.695V237.884H117.561L117.169 238.178C117.169 237.646 117.052 237.175 116.819 236.764C116.595 236.344 116.287 236.017 115.895 235.784C115.503 235.551 115.05 235.434 114.537 235.434C114.033 235.434 113.58 235.551 113.179 235.784C112.778 236.017 112.465 236.344 112.241 236.764C112.017 237.184 111.905 237.665 111.905 238.206V238.36C111.905 238.92 112.026 239.415 112.269 239.844C112.521 240.264 112.866 240.595 113.305 240.838C113.753 241.071 114.262 241.188 114.831 241.188C115.279 241.188 115.694 241.109 116.077 240.95C116.469 240.791 116.805 240.549 117.085 240.222L117.645 240.866C117.318 241.258 116.908 241.557 116.413 241.762C115.928 241.967 115.391 242.07 114.803 242.07ZM122.104 242.07C121.497 242.07 120.923 241.986 120.382 241.818C119.841 241.641 119.416 241.421 119.108 241.16L119.556 240.376C119.855 240.6 120.237 240.796 120.704 240.964C121.171 241.123 121.661 241.202 122.174 241.202C122.874 241.202 123.378 241.095 123.686 240.88C123.994 240.656 124.148 240.362 124.148 239.998C124.148 239.727 124.059 239.517 123.882 239.368C123.714 239.209 123.49 239.093 123.21 239.018C122.93 238.934 122.617 238.864 122.272 238.808C121.927 238.752 121.581 238.687 121.236 238.612C120.9 238.537 120.592 238.43 120.312 238.29C120.032 238.141 119.803 237.94 119.626 237.688C119.458 237.436 119.374 237.1 119.374 236.68C119.374 236.279 119.486 235.919 119.71 235.602C119.934 235.285 120.261 235.037 120.69 234.86C121.129 234.673 121.661 234.58 122.286 234.58C122.762 234.58 123.238 234.645 123.714 234.776C124.19 234.897 124.582 235.061 124.89 235.266L124.456 236.064C124.129 235.84 123.779 235.681 123.406 235.588C123.033 235.485 122.659 235.434 122.286 235.434C121.623 235.434 121.133 235.551 120.816 235.784C120.508 236.008 120.354 236.297 120.354 236.652C120.354 236.932 120.438 237.151 120.606 237.31C120.783 237.469 121.012 237.595 121.292 237.688C121.581 237.772 121.894 237.842 122.23 237.898C122.575 237.954 122.916 238.024 123.252 238.108C123.597 238.183 123.91 238.29 124.19 238.43C124.479 238.561 124.708 238.752 124.876 239.004C125.053 239.247 125.142 239.569 125.142 239.97C125.142 240.399 125.021 240.773 124.778 241.09C124.545 241.398 124.199 241.641 123.742 241.818C123.294 241.986 122.748 242.07 122.104 242.07ZM135.236 242V240.376L135.194 240.11V237.394C135.194 236.769 135.017 236.288 134.662 235.952C134.317 235.616 133.799 235.448 133.108 235.448C132.632 235.448 132.179 235.527 131.75 235.686C131.321 235.845 130.957 236.055 130.658 236.316L130.21 235.574C130.583 235.257 131.031 235.014 131.554 234.846C132.077 234.669 132.627 234.58 133.206 234.58C134.158 234.58 134.891 234.818 135.404 235.294C135.927 235.761 136.188 236.475 136.188 237.436V242H135.236ZM132.702 242.07C132.151 242.07 131.671 241.981 131.26 241.804C130.859 241.617 130.551 241.365 130.336 241.048C130.121 240.721 130.014 240.348 130.014 239.928C130.014 239.545 130.103 239.2 130.28 238.892C130.467 238.575 130.765 238.323 131.176 238.136C131.596 237.94 132.156 237.842 132.856 237.842H135.39V238.584H132.884C132.175 238.584 131.68 238.71 131.4 238.962C131.129 239.214 130.994 239.527 130.994 239.9C130.994 240.32 131.157 240.656 131.484 240.908C131.811 241.16 132.268 241.286 132.856 241.286C133.416 241.286 133.897 241.16 134.298 240.908C134.709 240.647 135.007 240.273 135.194 239.788L135.418 240.474C135.231 240.959 134.905 241.347 134.438 241.636C133.981 241.925 133.402 242.07 132.702 242.07ZM145.478 242.07C144.778 242.07 144.148 241.911 143.588 241.594C143.037 241.277 142.603 240.838 142.286 240.278C141.969 239.718 141.81 239.065 141.81 238.318C141.81 237.581 141.969 236.932 142.286 236.372C142.603 235.803 143.037 235.364 143.588 235.056C144.148 234.739 144.778 234.58 145.478 234.58C146.131 234.58 146.71 234.725 147.214 235.014C147.727 235.303 148.133 235.728 148.432 236.288C148.731 236.839 148.88 237.515 148.88 238.318C148.88 239.121 148.726 239.802 148.418 240.362C148.119 240.913 147.713 241.337 147.2 241.636C146.696 241.925 146.122 242.07 145.478 242.07ZM145.548 241.188C146.071 241.188 146.537 241.071 146.948 240.838C147.368 240.595 147.695 240.259 147.928 239.83C148.171 239.391 148.292 238.887 148.292 238.318C148.292 237.749 148.171 237.249 147.928 236.82C147.695 236.391 147.368 236.055 146.948 235.812C146.537 235.569 146.071 235.448 145.548 235.448C145.035 235.448 144.573 235.569 144.162 235.812C143.751 236.055 143.425 236.391 143.182 236.82C142.939 237.249 142.818 237.749 142.818 238.318C142.818 238.887 142.939 239.391 143.182 239.83C143.425 240.259 143.751 240.595 144.162 240.838C144.573 241.071 145.035 241.188 145.548 241.188ZM148.278 244.716V239.816L148.418 238.332L148.32 236.862V234.65H149.272V244.716H148.278ZM155.078 242.07C154.453 242.07 153.907 241.953 153.44 241.72C152.974 241.487 152.61 241.137 152.348 240.67C152.096 240.203 151.97 239.62 151.97 238.92V234.65H152.964V238.808C152.964 239.592 153.156 240.185 153.538 240.586C153.93 240.978 154.476 241.174 155.176 241.174C155.69 241.174 156.133 241.071 156.506 240.866C156.889 240.651 157.178 240.343 157.374 239.942C157.58 239.541 157.682 239.06 157.682 238.5V234.65H158.676V242H157.724V239.984L157.878 240.348C157.645 240.889 157.281 241.314 156.786 241.622C156.301 241.921 155.732 242.07 155.078 242.07ZM164.569 242.07C163.803 242.07 163.131 241.911 162.553 241.594C161.974 241.267 161.521 240.824 161.195 240.264C160.868 239.695 160.705 239.046 160.705 238.318C160.705 237.59 160.859 236.946 161.167 236.386C161.484 235.826 161.913 235.387 162.455 235.07C163.005 234.743 163.621 234.58 164.303 234.58C164.993 234.58 165.605 234.739 166.137 235.056C166.678 235.364 167.103 235.803 167.411 236.372C167.719 236.932 167.873 237.581 167.873 238.318C167.873 238.365 167.868 238.416 167.859 238.472C167.859 238.519 167.859 238.57 167.859 238.626H161.461V237.884H167.327L166.935 238.178C166.935 237.646 166.818 237.175 166.585 236.764C166.361 236.344 166.053 236.017 165.661 235.784C165.269 235.551 164.816 235.434 164.303 235.434C163.799 235.434 163.346 235.551 162.945 235.784C162.543 236.017 162.231 236.344 162.007 236.764C161.783 237.184 161.671 237.665 161.671 238.206V238.36C161.671 238.92 161.792 239.415 162.035 239.844C162.287 240.264 162.632 240.595 163.071 240.838C163.519 241.071 164.027 241.188 164.597 241.188C165.045 241.188 165.46 241.109 165.843 240.95C166.235 240.791 166.571 240.549 166.851 240.222L167.411 240.866C167.084 241.258 166.673 241.557 166.179 241.762C165.693 241.967 165.157 242.07 164.569 242.07ZM171.87 242.07C171.263 242.07 170.689 241.986 170.148 241.818C169.606 241.641 169.182 241.421 168.874 241.16L169.322 240.376C169.62 240.6 170.003 240.796 170.47 240.964C170.936 241.123 171.426 241.202 171.94 241.202C172.64 241.202 173.144 241.095 173.452 240.88C173.76 240.656 173.914 240.362 173.914 239.998C173.914 239.727 173.825 239.517 173.648 239.368C173.48 239.209 173.256 239.093 172.976 239.018C172.696 238.934 172.383 238.864 172.038 238.808C171.692 238.752 171.347 238.687 171.002 238.612C170.666 238.537 170.358 238.43 170.078 238.29C169.798 238.141 169.569 237.94 169.392 237.688C169.224 237.436 169.14 237.1 169.14 236.68C169.14 236.279 169.252 235.919 169.476 235.602C169.7 235.285 170.026 235.037 170.456 234.86C170.894 234.673 171.426 234.58 172.052 234.58C172.528 234.58 173.004 234.645 173.48 234.776C173.956 234.897 174.348 235.061 174.656 235.266L174.222 236.064C173.895 235.84 173.545 235.681 173.172 235.588C172.798 235.485 172.425 235.434 172.052 235.434C171.389 235.434 170.899 235.551 170.582 235.784C170.274 236.008 170.12 236.297 170.12 236.652C170.12 236.932 170.204 237.151 170.372 237.31C170.549 237.469 170.778 237.595 171.058 237.688C171.347 237.772 171.66 237.842 171.996 237.898C172.341 237.954 172.682 238.024 173.018 238.108C173.363 238.183 173.676 238.29 173.956 238.43C174.245 238.561 174.474 238.752 174.642 239.004C174.819 239.247 174.908 239.569 174.908 239.97C174.908 240.399 174.786 240.773 174.544 241.09C174.31 241.398 173.965 241.641 173.508 241.818C173.06 241.986 172.514 242.07 171.87 242.07ZM179.056 242.07C178.365 242.07 177.833 241.883 177.46 241.51C177.086 241.137 176.9 240.609 176.9 239.928V233.026H177.894V239.872C177.894 240.301 178.001 240.633 178.216 240.866C178.44 241.099 178.757 241.216 179.168 241.216C179.606 241.216 179.97 241.09 180.26 240.838L180.61 241.552C180.414 241.729 180.176 241.86 179.896 241.944C179.625 242.028 179.345 242.07 179.056 242.07ZM175.584 235.476V234.65H180.134V235.476H175.584ZM185.155 242.07C184.446 242.07 183.807 241.911 183.237 241.594C182.677 241.267 182.234 240.824 181.907 240.264C181.581 239.695 181.417 239.046 181.417 238.318C181.417 237.581 181.581 236.932 181.907 236.372C182.234 235.812 182.677 235.373 183.237 235.056C183.797 234.739 184.437 234.58 185.155 234.58C185.883 234.58 186.527 234.739 187.087 235.056C187.657 235.373 188.1 235.812 188.417 236.372C188.744 236.932 188.907 237.581 188.907 238.318C188.907 239.046 188.744 239.695 188.417 240.264C188.1 240.824 187.657 241.267 187.087 241.594C186.518 241.911 185.874 242.07 185.155 242.07ZM185.155 241.188C185.687 241.188 186.159 241.071 186.569 240.838C186.98 240.595 187.302 240.259 187.535 239.83C187.778 239.391 187.899 238.887 187.899 238.318C187.899 237.739 187.778 237.235 187.535 236.806C187.302 236.377 186.98 236.045 186.569 235.812C186.159 235.569 185.692 235.448 185.169 235.448C184.647 235.448 184.18 235.569 183.769 235.812C183.359 236.045 183.032 236.377 182.789 236.806C182.547 237.235 182.425 237.739 182.425 238.318C182.425 238.887 182.547 239.391 182.789 239.83C183.032 240.259 183.359 240.595 183.769 240.838C184.18 241.071 184.642 241.188 185.155 241.188ZM198.395 242.07C197.76 242.07 197.186 241.925 196.673 241.636C196.16 241.337 195.749 240.913 195.441 240.362C195.142 239.802 194.993 239.121 194.993 238.318C194.993 237.515 195.142 236.839 195.441 236.288C195.74 235.728 196.146 235.303 196.659 235.014C197.172 234.725 197.751 234.58 198.395 234.58C199.095 234.58 199.72 234.739 200.271 235.056C200.831 235.364 201.27 235.803 201.587 236.372C201.904 236.932 202.063 237.581 202.063 238.318C202.063 239.065 201.904 239.718 201.587 240.278C201.27 240.838 200.831 241.277 200.271 241.594C199.72 241.911 199.095 242.07 198.395 242.07ZM194.601 244.716V234.65H195.553V236.862L195.455 238.332L195.595 239.816V244.716H194.601ZM198.325 241.188C198.848 241.188 199.314 241.071 199.725 240.838C200.136 240.595 200.462 240.259 200.705 239.83C200.948 239.391 201.069 238.887 201.069 238.318C201.069 237.749 200.948 237.249 200.705 236.82C200.462 236.391 200.136 236.055 199.725 235.812C199.314 235.569 198.848 235.448 198.325 235.448C197.802 235.448 197.331 235.569 196.911 235.812C196.5 236.055 196.174 236.391 195.931 236.82C195.698 237.249 195.581 237.749 195.581 238.318C195.581 238.887 195.698 239.391 195.931 239.83C196.174 240.259 196.5 240.595 196.911 240.838C197.331 241.071 197.802 241.188 198.325 241.188ZM204.089 242V234.65H205.041V236.652L204.943 236.302C205.148 235.742 205.494 235.317 205.979 235.028C206.464 234.729 207.066 234.58 207.785 234.58V235.546C207.748 235.546 207.71 235.546 207.673 235.546C207.636 235.537 207.598 235.532 207.561 235.532C206.786 235.532 206.18 235.77 205.741 236.246C205.302 236.713 205.083 237.38 205.083 238.248V242H204.089ZM212.653 242.07C211.887 242.07 211.215 241.911 210.637 241.594C210.058 241.267 209.605 240.824 209.279 240.264C208.952 239.695 208.789 239.046 208.789 238.318C208.789 237.59 208.943 236.946 209.251 236.386C209.568 235.826 209.997 235.387 210.539 235.07C211.089 234.743 211.705 234.58 212.387 234.58C213.077 234.58 213.689 234.739 214.221 235.056C214.762 235.364 215.187 235.803 215.495 236.372C215.803 236.932 215.957 237.581 215.957 238.318C215.957 238.365 215.952 238.416 215.943 238.472C215.943 238.519 215.943 238.57 215.943 238.626H209.545V237.884H215.411L215.019 238.178C215.019 237.646 214.902 237.175 214.669 236.764C214.445 236.344 214.137 236.017 213.745 235.784C213.353 235.551 212.9 235.434 212.387 235.434C211.883 235.434 211.43 235.551 211.029 235.784C210.627 236.017 210.315 236.344 210.091 236.764C209.867 237.184 209.755 237.665 209.755 238.206V238.36C209.755 238.92 209.876 239.415 210.119 239.844C210.371 240.264 210.716 240.595 211.155 240.838C211.603 241.071 212.111 241.188 212.681 241.188C213.129 241.188 213.544 241.109 213.927 240.95C214.319 240.791 214.655 240.549 214.935 240.222L215.495 240.866C215.168 241.258 214.757 241.557 214.263 241.762C213.777 241.967 213.241 242.07 212.653 242.07ZM217.113 242V241.342L222.013 235.14L222.223 235.476H217.197V234.65H223.007V235.294L218.121 241.51L217.869 241.174H223.105V242H217.113ZM224.264 242V241.342L229.164 235.14L229.374 235.476H224.348V234.65H230.158V235.294L225.272 241.51L225.02 241.174H230.256V242H224.264ZM235.085 242.07C234.376 242.07 233.736 241.911 233.167 241.594C232.607 241.267 232.164 240.824 231.837 240.264C231.51 239.695 231.347 239.046 231.347 238.318C231.347 237.581 231.51 236.932 231.837 236.372C232.164 235.812 232.607 235.373 233.167 235.056C233.727 234.739 234.366 234.58 235.085 234.58C235.813 234.58 236.457 234.739 237.017 235.056C237.586 235.373 238.03 235.812 238.347 236.372C238.674 236.932 238.837 237.581 238.837 238.318C238.837 239.046 238.674 239.695 238.347 240.264C238.03 240.824 237.586 241.267 237.017 241.594C236.448 241.911 235.804 242.07 235.085 242.07ZM235.085 241.188C235.617 241.188 236.088 241.071 236.499 240.838C236.91 240.595 237.232 240.259 237.465 239.83C237.708 239.391 237.829 238.887 237.829 238.318C237.829 237.739 237.708 237.235 237.465 236.806C237.232 236.377 236.91 236.045 236.499 235.812C236.088 235.569 235.622 235.448 235.099 235.448C234.576 235.448 234.11 235.569 233.699 235.812C233.288 236.045 232.962 236.377 232.719 236.806C232.476 237.235 232.355 237.739 232.355 238.318C232.355 238.887 232.476 239.391 232.719 239.83C232.962 240.259 233.288 240.595 233.699 240.838C234.11 241.071 234.572 241.188 235.085 241.188Z" fill="#A2C33D"/>
<path d="M223 244L370 244" stroke="#A2C33D"/>
<path d="M327 76.0001L873.5 78.5102" stroke="#214B33"/>
<path d="M6.418 76L0.91 63.4H3.448L8.362 74.794H6.904L11.872 63.4H14.212L8.722 76H6.418ZM19.1229 76.126C18.0549 76.126 17.1189 75.916 16.3149 75.496C15.5229 75.064 14.9049 74.476 14.4609 73.732C14.0289 72.988 13.8129 72.142 13.8129 71.194C13.8129 70.234 14.0229 69.388 14.4429 68.656C14.8749 67.912 15.4629 67.33 16.2069 66.91C16.9629 66.49 17.8209 66.28 18.7809 66.28C19.7169 66.28 20.5509 66.484 21.2829 66.892C22.0149 67.3 22.5909 67.876 23.0109 68.62C23.4309 69.364 23.6409 70.24 23.6409 71.248C23.6409 71.344 23.6349 71.452 23.6229 71.572C23.6229 71.692 23.6169 71.806 23.6049 71.914H15.5949V70.42H22.4169L21.5349 70.888C21.5469 70.336 21.4329 69.85 21.1929 69.43C20.9529 69.01 20.6229 68.68 20.2029 68.44C19.7949 68.2 19.3209 68.08 18.7809 68.08C18.2289 68.08 17.7429 68.2 17.3229 68.44C16.9149 68.68 16.5909 69.016 16.3509 69.448C16.1229 69.868 16.0089 70.366 16.0089 70.942V71.302C16.0089 71.878 16.1409 72.388 16.4049 72.832C16.6689 73.276 17.0409 73.618 17.5209 73.858C18.0009 74.098 18.5529 74.218 19.1769 74.218C19.7169 74.218 20.2029 74.134 20.6349 73.966C21.0669 73.798 21.4509 73.534 21.7869 73.174L22.9929 74.56C22.5609 75.064 22.0149 75.454 21.3549 75.73C20.7069 75.994 19.9629 76.126 19.1229 76.126ZM31.2562 66.28C32.0242 66.28 32.7082 66.43 33.3082 66.73C33.9202 67.03 34.4002 67.492 34.7482 68.116C35.0962 68.728 35.2702 69.52 35.2702 70.492V76H33.0202V70.78C33.0202 69.928 32.8162 69.292 32.4082 68.872C32.0122 68.452 31.4542 68.242 30.7342 68.242C30.2062 68.242 29.7382 68.35 29.3302 68.566C28.9222 68.782 28.6042 69.106 28.3762 69.538C28.1602 69.958 28.0522 70.492 28.0522 71.14V76H25.8022V66.388H27.9442V68.98L27.5662 68.188C27.9022 67.576 28.3882 67.108 29.0242 66.784C29.6722 66.448 30.4162 66.28 31.2562 66.28ZM42.21 76.126C41.286 76.126 40.452 75.922 39.708 75.514C38.976 75.094 38.4 74.518 37.98 73.786C37.56 73.054 37.35 72.19 37.35 71.194C37.35 70.198 37.56 69.334 37.98 68.602C38.4 67.87 38.976 67.3 39.708 66.892C40.452 66.484 41.286 66.28 42.21 66.28C43.014 66.28 43.734 66.46 44.37 66.82C45.006 67.168 45.51 67.702 45.882 68.422C46.254 69.142 46.44 70.066 46.44 71.194C46.44 72.31 46.26 73.234 45.9 73.966C45.54 74.686 45.042 75.226 44.406 75.586C43.77 75.946 43.038 76.126 42.21 76.126ZM42.48 74.2C43.02 74.2 43.5 74.08 43.92 73.84C44.352 73.6 44.694 73.252 44.946 72.796C45.21 72.34 45.342 71.806 45.342 71.194C45.342 70.57 45.21 70.036 44.946 69.592C44.694 69.136 44.352 68.788 43.92 68.548C43.5 68.308 43.02 68.188 42.48 68.188C41.94 68.188 41.454 68.308 41.022 68.548C40.602 68.788 40.26 69.136 39.996 69.592C39.744 70.036 39.618 70.57 39.618 71.194C39.618 71.806 39.744 72.34 39.996 72.796C40.26 73.252 40.602 73.6 41.022 73.84C41.454 74.08 41.94 74.2 42.48 74.2ZM45.396 76V73.732L45.486 71.176L45.306 68.62V62.644H47.538V76H45.396ZM55.0174 76.126C53.9494 76.126 53.0134 75.916 52.2094 75.496C51.4174 75.064 50.7994 74.476 50.3554 73.732C49.9234 72.988 49.7074 72.142 49.7074 71.194C49.7074 70.234 49.9174 69.388 50.3374 68.656C50.7694 67.912 51.3574 67.33 52.1014 66.91C52.8574 66.49 53.7154 66.28 54.6754 66.28C55.6114 66.28 56.4454 66.484 57.1774 66.892C57.9094 67.3 58.4854 67.876 58.9054 68.62C59.3254 69.364 59.5354 70.24 59.5354 71.248C59.5354 71.344 59.5294 71.452 59.5174 71.572C59.5174 71.692 59.5114 71.806 59.4994 71.914H51.4894V70.42H58.3114L57.4294 70.888C57.4414 70.336 57.3274 69.85 57.0874 69.43C56.8474 69.01 56.5174 68.68 56.0974 68.44C55.6894 68.2 55.2154 68.08 54.6754 68.08C54.1234 68.08 53.6374 68.2 53.2174 68.44C52.8094 68.68 52.4854 69.016 52.2454 69.448C52.0174 69.868 51.9034 70.366 51.9034 70.942V71.302C51.9034 71.878 52.0354 72.388 52.2994 72.832C52.5634 73.276 52.9354 73.618 53.4154 73.858C53.8954 74.098 54.4474 74.218 55.0714 74.218C55.6114 74.218 56.0974 74.134 56.5294 73.966C56.9614 73.798 57.3454 73.534 57.6814 73.174L58.8874 74.56C58.4554 75.064 57.9094 75.454 57.2494 75.73C56.6014 75.994 55.8574 76.126 55.0174 76.126ZM65.3147 76.126C64.2587 76.126 63.4427 75.856 62.8667 75.316C62.2907 74.764 62.0027 73.954 62.0027 72.886V64.264H64.2527V72.832C64.2527 73.288 64.3667 73.642 64.5947 73.894C64.8347 74.146 65.1647 74.272 65.5847 74.272C66.0887 74.272 66.5087 74.14 66.8447 73.876L67.4747 75.478C67.2107 75.694 66.8867 75.856 66.5027 75.964C66.1187 76.072 65.7227 76.126 65.3147 76.126ZM60.4187 68.26V66.46H66.8267V68.26H60.4187ZM73.5272 76.126C72.4592 76.126 71.5232 75.916 70.7192 75.496C69.9272 75.064 69.3092 74.476 68.8652 73.732C68.4332 72.988 68.2172 72.142 68.2172 71.194C68.2172 70.234 68.4272 69.388 68.8472 68.656C69.2792 67.912 69.8672 67.33 70.6112 66.91C71.3672 66.49 72.2252 66.28 73.1852 66.28C74.1212 66.28 74.9552 66.484 75.6872 66.892C76.4192 67.3 76.9952 67.876 77.4152 68.62C77.8352 69.364 78.0452 70.24 78.0452 71.248C78.0452 71.344 78.0392 71.452 78.0272 71.572C78.0272 71.692 78.0212 71.806 78.0092 71.914H69.9992V70.42H76.8212L75.9392 70.888C75.9512 70.336 75.8372 69.85 75.5972 69.43C75.3572 69.01 75.0272 68.68 74.6072 68.44C74.1992 68.2 73.7252 68.08 73.1852 68.08C72.6332 68.08 72.1472 68.2 71.7272 68.44C71.3192 68.68 70.9952 69.016 70.7552 69.448C70.5272 69.868 70.4132 70.366 70.4132 70.942V71.302C70.4132 71.878 70.5452 72.388 70.8092 72.832C71.0732 73.276 71.4452 73.618 71.9252 73.858C72.4052 74.098 72.9572 74.218 73.5812 74.218C74.1212 74.218 74.6072 74.134 75.0392 73.966C75.4712 73.798 75.8552 73.534 76.1912 73.174L77.3972 74.56C76.9652 75.064 76.4192 75.454 75.7592 75.73C75.1112 75.994 74.3672 76.126 73.5272 76.126ZM85.4871 76V65.848C85.4871 64.84 85.7811 64.036 86.3691 63.436C86.9691 62.824 87.8211 62.518 88.9251 62.518C89.3211 62.518 89.6931 62.56 90.0411 62.644C90.4011 62.728 90.7011 62.86 90.9411 63.04L90.3291 64.732C90.1611 64.6 89.9691 64.504 89.7531 64.444C89.5371 64.372 89.3151 64.336 89.0871 64.336C88.6191 64.336 88.2651 64.468 88.0251 64.732C87.7851 64.984 87.6651 65.368 87.6651 65.884V66.964L87.7371 67.972V76H85.4871ZM83.9031 68.26V66.46H90.3111V68.26H83.9031ZM95.8936 76.126C95.0776 76.126 94.3576 75.976 93.7336 75.676C93.1096 75.364 92.6236 74.896 92.2756 74.272C91.9276 73.636 91.7536 72.838 91.7536 71.878V66.388H94.0036V71.572C94.0036 72.436 94.1956 73.084 94.5796 73.516C94.9756 73.936 95.5336 74.146 96.2536 74.146C96.7816 74.146 97.2376 74.038 97.6216 73.822C98.0176 73.606 98.3236 73.282 98.5396 72.85C98.7676 72.418 98.8816 71.884 98.8816 71.248V66.388H101.132V76H98.9896V73.408L99.3676 74.2C99.0436 74.824 98.5696 75.304 97.9456 75.64C97.3216 75.964 96.6376 76.126 95.8936 76.126ZM107.696 76.126C106.64 76.126 105.824 75.856 105.248 75.316C104.672 74.764 104.384 73.954 104.384 72.886V64.264H106.634V72.832C106.634 73.288 106.748 73.642 106.976 73.894C107.216 74.146 107.546 74.272 107.966 74.272C108.47 74.272 108.89 74.14 109.226 73.876L109.856 75.478C109.592 75.694 109.268 75.856 108.884 75.964C108.5 76.072 108.104 76.126 107.696 76.126ZM102.8 68.26V66.46H109.208V68.26H102.8ZM115.774 76.126C114.958 76.126 114.238 75.976 113.614 75.676C112.99 75.364 112.504 74.896 112.156 74.272C111.808 73.636 111.634 72.838 111.634 71.878V66.388H113.884V71.572C113.884 72.436 114.076 73.084 114.46 73.516C114.856 73.936 115.414 74.146 116.134 74.146C116.662 74.146 117.118 74.038 117.502 73.822C117.898 73.606 118.204 73.282 118.42 72.85C118.648 72.418 118.762 71.884 118.762 71.248V66.388H121.012V76H118.87V73.408L119.248 74.2C118.924 74.824 118.45 75.304 117.826 75.64C117.202 75.964 116.518 76.126 115.774 76.126ZM123.958 76V66.388H126.1V69.034L125.848 68.26C126.136 67.612 126.586 67.12 127.198 66.784C127.822 66.448 128.596 66.28 129.52 66.28V68.422C129.424 68.398 129.334 68.386 129.25 68.386C129.166 68.374 129.082 68.368 128.998 68.368C128.146 68.368 127.468 68.62 126.964 69.124C126.46 69.616 126.208 70.354 126.208 71.338V76H123.958ZM135.859 76.126C134.791 76.126 133.855 75.916 133.051 75.496C132.259 75.064 131.641 74.476 131.197 73.732C130.765 72.988 130.549 72.142 130.549 71.194C130.549 70.234 130.759 69.388 131.179 68.656C131.611 67.912 132.199 67.33 132.943 66.91C133.699 66.49 134.557 66.28 135.517 66.28C136.453 66.28 137.287 66.484 138.019 66.892C138.751 67.3 139.327 67.876 139.747 68.62C140.167 69.364 140.377 70.24 140.377 71.248C140.377 71.344 140.371 71.452 140.359 71.572C140.359 71.692 140.353 71.806 140.341 71.914H132.331V70.42H139.153L138.271 70.888C138.283 70.336 138.169 69.85 137.929 69.43C137.689 69.01 137.359 68.68 136.939 68.44C136.531 68.2 136.057 68.08 135.517 68.08C134.965 68.08 134.479 68.2 134.059 68.44C133.651 68.68 133.327 69.016 133.087 69.448C132.859 69.868 132.745 70.366 132.745 70.942V71.302C132.745 71.878 132.877 72.388 133.141 72.832C133.405 73.276 133.777 73.618 134.257 73.858C134.737 74.098 135.289 74.218 135.913 74.218C136.453 74.218 136.939 74.134 137.371 73.966C137.803 73.798 138.187 73.534 138.523 73.174L139.729 74.56C139.297 75.064 138.751 75.454 138.091 75.73C137.443 75.994 136.699 76.126 135.859 76.126ZM145.509 76.126C144.705 76.126 143.931 76.024 143.187 75.82C142.455 75.604 141.873 75.346 141.441 75.046L142.305 73.336C142.737 73.612 143.253 73.84 143.853 74.02C144.453 74.2 145.053 74.29 145.653 74.29C146.361 74.29 146.871 74.194 147.183 74.002C147.507 73.81 147.669 73.552 147.669 73.228C147.669 72.964 147.561 72.766 147.345 72.634C147.129 72.49 146.847 72.382 146.499 72.31C146.151 72.238 145.761 72.172 145.329 72.112C144.909 72.052 144.483 71.974 144.051 71.878C143.631 71.77 143.247 71.62 142.899 71.428C142.551 71.224 142.269 70.954 142.053 70.618C141.837 70.282 141.729 69.838 141.729 69.286C141.729 68.674 141.903 68.146 142.25 67.702C142.599 67.246 143.085 66.898 143.708 66.658C144.345 66.406 145.095 66.28 145.959 66.28C146.607 66.28 147.261 66.352 147.921 66.496C148.581 66.64 149.127 66.844 149.559 67.108L148.695 68.818C148.239 68.542 147.777 68.356 147.309 68.26C146.853 68.152 146.397 68.098 145.941 68.098C145.257 68.098 144.747 68.2 144.411 68.404C144.087 68.608 143.925 68.866 143.925 69.178C143.925 69.466 144.033 69.682 144.249 69.826C144.465 69.97 144.747 70.084 145.095 70.168C145.443 70.252 145.827 70.324 146.247 70.384C146.679 70.432 147.105 70.51 147.525 70.618C147.945 70.726 148.329 70.876 148.677 71.068C149.037 71.248 149.325 71.506 149.541 71.842C149.757 72.178 149.865 72.616 149.865 73.156C149.865 73.756 149.685 74.278 149.325 74.722C148.977 75.166 148.479 75.514 147.831 75.766C147.183 76.006 146.409 76.126 145.509 76.126ZM162.699 76V74.056L162.573 73.642V70.24C162.573 69.58 162.375 69.07 161.979 68.71C161.583 68.338 160.983 68.152 160.179 68.152C159.639 68.152 159.105 68.236 158.577 68.404C158.061 68.572 157.623 68.806 157.263 69.106L156.381 67.468C156.897 67.072 157.509 66.778 158.217 66.586C158.937 66.382 159.681 66.28 160.449 66.28C161.841 66.28 162.915 66.616 163.671 67.288C164.439 67.948 164.823 68.974 164.823 70.366V76H162.699ZM159.675 76.126C158.955 76.126 158.325 76.006 157.785 75.766C157.245 75.514 156.825 75.172 156.525 74.74C156.237 74.296 156.093 73.798 156.093 73.246C156.093 72.706 156.219 72.22 156.471 71.788C156.735 71.356 157.161 71.014 157.749 70.762C158.337 70.51 159.117 70.384 160.089 70.384H162.879V71.878H160.251C159.483 71.878 158.967 72.004 158.703 72.256C158.439 72.496 158.307 72.796 158.307 73.156C158.307 73.564 158.469 73.888 158.793 74.128C159.117 74.368 159.567 74.488 160.143 74.488C160.695 74.488 161.187 74.362 161.619 74.11C162.063 73.858 162.381 73.486 162.573 72.994L162.951 74.344C162.735 74.908 162.345 75.346 161.781 75.658C161.229 75.97 160.527 76.126 159.675 76.126ZM176.753 76.126C175.829 76.126 174.995 75.922 174.251 75.514C173.519 75.106 172.943 74.536 172.523 73.804C172.103 73.06 171.893 72.19 171.893 71.194C171.893 70.198 172.103 69.334 172.523 68.602C172.943 67.87 173.519 67.3 174.251 66.892C174.995 66.484 175.829 66.28 176.753 66.28C177.581 66.28 178.307 66.46 178.931 66.82C179.567 67.168 180.065 67.702 180.425 68.422C180.797 69.142 180.983 70.066 180.983 71.194C180.983 72.31 180.791 73.234 180.407 73.966C180.035 74.686 179.531 75.226 178.895 75.586C178.259 75.946 177.545 76.126 176.753 76.126ZM177.005 74.2C177.545 74.2 178.031 74.08 178.463 73.84C178.895 73.6 179.237 73.252 179.489 72.796C179.741 72.34 179.867 71.806 179.867 71.194C179.867 70.57 179.741 70.036 179.489 69.592C179.237 69.136 178.895 68.788 178.463 68.548C178.031 68.308 177.545 68.188 177.005 68.188C176.465 68.188 175.979 68.308 175.547 68.548C175.127 68.788 174.791 69.136 174.539 69.592C174.287 70.036 174.161 70.57 174.161 71.194C174.161 71.806 174.287 72.34 174.539 72.796C174.791 73.252 175.127 73.6 175.547 73.84C175.979 74.08 176.465 74.2 177.005 74.2ZM179.831 79.492V73.768L180.011 71.212L179.939 68.656V66.388H182.081V79.492H179.831ZM189.093 76.126C188.277 76.126 187.557 75.976 186.933 75.676C186.309 75.364 185.823 74.896 185.475 74.272C185.127 73.636 184.953 72.838 184.953 71.878V66.388H187.203V71.572C187.203 72.436 187.395 73.084 187.779 73.516C188.175 73.936 188.733 74.146 189.453 74.146C189.981 74.146 190.437 74.038 190.821 73.822C191.217 73.606 191.523 73.282 191.739 72.85C191.967 72.418 192.081 71.884 192.081 71.248V66.388H194.331V76H192.189V73.408L192.567 74.2C192.243 74.824 191.769 75.304 191.145 75.64C190.521 75.964 189.837 76.126 189.093 76.126ZM201.795 76.126C200.727 76.126 199.791 75.916 198.987 75.496C198.195 75.064 197.577 74.476 197.133 73.732C196.701 72.988 196.485 72.142 196.485 71.194C196.485 70.234 196.695 69.388 197.115 68.656C197.547 67.912 198.135 67.33 198.879 66.91C199.635 66.49 200.493 66.28 201.453 66.28C202.389 66.28 203.223 66.484 203.955 66.892C204.687 67.3 205.263 67.876 205.683 68.62C206.103 69.364 206.313 70.24 206.313 71.248C206.313 71.344 206.307 71.452 206.295 71.572C206.295 71.692 206.289 71.806 206.277 71.914H198.267V70.42H205.089L204.207 70.888C204.219 70.336 204.105 69.85 203.865 69.43C203.625 69.01 203.295 68.68 202.875 68.44C202.467 68.2 201.993 68.08 201.453 68.08C200.901 68.08 200.415 68.2 199.995 68.44C199.587 68.68 199.263 69.016 199.023 69.448C198.795 69.868 198.681 70.366 198.681 70.942V71.302C198.681 71.878 198.813 72.388 199.077 72.832C199.341 73.276 199.713 73.618 200.193 73.858C200.673 74.098 201.225 74.218 201.849 74.218C202.389 74.218 202.875 74.134 203.307 73.966C203.739 73.798 204.123 73.534 204.459 73.174L205.665 74.56C205.233 75.064 204.687 75.454 204.027 75.73C203.379 75.994 202.635 76.126 201.795 76.126ZM211.444 76.126C210.64 76.126 209.866 76.024 209.122 75.82C208.39 75.604 207.808 75.346 207.376 75.046L208.24 73.336C208.672 73.612 209.188 73.84 209.788 74.02C210.388 74.2 210.988 74.29 211.588 74.29C212.296 74.29 212.806 74.194 213.118 74.002C213.442 73.81 213.604 73.552 213.604 73.228C213.604 72.964 213.496 72.766 213.28 72.634C213.064 72.49 212.782 72.382 212.434 72.31C212.086 72.238 211.696 72.172 211.264 72.112C210.844 72.052 210.418 71.974 209.986 71.878C209.566 71.77 209.182 71.62 208.834 71.428C208.486 71.224 208.204 70.954 207.988 70.618C207.772 70.282 207.664 69.838 207.664 69.286C207.664 68.674 207.838 68.146 208.186 67.702C208.534 67.246 209.02 66.898 209.644 66.658C210.28 66.406 211.03 66.28 211.894 66.28C212.542 66.28 213.196 66.352 213.856 66.496C214.516 66.64 215.062 66.844 215.494 67.108L214.63 68.818C214.174 68.542 213.712 68.356 213.244 68.26C212.788 68.152 212.332 68.098 211.876 68.098C211.192 68.098 210.682 68.2 210.346 68.404C210.022 68.608 209.86 68.866 209.86 69.178C209.86 69.466 209.968 69.682 210.184 69.826C210.4 69.97 210.682 70.084 211.03 70.168C211.378 70.252 211.762 70.324 212.182 70.384C212.614 70.432 213.04 70.51 213.46 70.618C213.88 70.726 214.264 70.876 214.612 71.068C214.972 71.248 215.26 71.506 215.476 71.842C215.692 72.178 215.8 72.616 215.8 73.156C215.8 73.756 215.62 74.278 215.26 74.722C214.912 75.166 214.414 75.514 213.766 75.766C213.118 76.006 212.344 76.126 211.444 76.126ZM221.356 76.126C220.3 76.126 219.484 75.856 218.908 75.316C218.332 74.764 218.044 73.954 218.044 72.886V64.264H220.294V72.832C220.294 73.288 220.408 73.642 220.636 73.894C220.876 74.146 221.206 74.272 221.626 74.272C222.13 74.272 222.55 74.14 222.886 73.876L223.516 75.478C223.252 75.694 222.928 75.856 222.544 75.964C222.16 76.072 221.764 76.126 221.356 76.126ZM216.46 68.26V66.46H222.868V68.26H216.46ZM229.37 76.126C228.386 76.126 227.51 75.916 226.742 75.496C225.974 75.064 225.368 74.476 224.924 73.732C224.48 72.988 224.258 72.142 224.258 71.194C224.258 70.234 224.48 69.388 224.924 68.656C225.368 67.912 225.974 67.33 226.742 66.91C227.51 66.49 228.386 66.28 229.37 66.28C230.366 66.28 231.248 66.49 232.016 66.91C232.796 67.33 233.402 67.906 233.834 68.638C234.278 69.37 234.5 70.222 234.5 71.194C234.5 72.142 234.278 72.988 233.834 73.732C233.402 74.476 232.796 75.064 232.016 75.496C231.248 75.916 230.366 76.126 229.37 76.126ZM229.37 74.2C229.922 74.2 230.414 74.08 230.846 73.84C231.278 73.6 231.614 73.252 231.854 72.796C232.106 72.34 232.232 71.806 232.232 71.194C232.232 70.57 232.106 70.036 231.854 69.592C231.614 69.136 231.278 68.788 230.846 68.548C230.414 68.308 229.928 68.188 229.388 68.188C228.836 68.188 228.344 68.308 227.912 68.548C227.492 68.788 227.156 69.136 226.904 69.592C226.652 70.036 226.526 70.57 226.526 71.194C226.526 71.806 226.652 72.34 226.904 72.796C227.156 73.252 227.492 73.6 227.912 73.84C228.344 74.08 228.83 74.2 229.37 74.2ZM246.954 76.126C246.174 76.126 245.46 75.946 244.812 75.586C244.176 75.226 243.666 74.686 243.282 73.966C242.91 73.234 242.724 72.31 242.724 71.194C242.724 70.066 242.904 69.142 243.264 68.422C243.636 67.702 244.14 67.168 244.776 66.82C245.412 66.46 246.138 66.28 246.954 66.28C247.902 66.28 248.736 66.484 249.456 66.892C250.188 67.3 250.764 67.87 251.184 68.602C251.616 69.334 251.832 70.198 251.832 71.194C251.832 72.19 251.616 73.06 251.184 73.804C250.764 74.536 250.188 75.106 249.456 75.514C248.736 75.922 247.902 76.126 246.954 76.126ZM241.626 79.492V66.388H243.768V68.656L243.696 71.212L243.876 73.768V79.492H241.626ZM246.702 74.2C247.242 74.2 247.722 74.08 248.142 73.84C248.574 73.6 248.916 73.252 249.168 72.796C249.42 72.34 249.546 71.806 249.546 71.194C249.546 70.57 249.42 70.036 249.168 69.592C248.916 69.136 248.574 68.788 248.142 68.548C247.722 68.308 247.242 68.188 246.702 68.188C246.162 68.188 245.676 68.308 245.244 68.548C244.812 68.788 244.47 69.136 244.218 69.592C243.966 70.036 243.84 70.57 243.84 71.194C243.84 71.806 243.966 72.34 244.218 72.796C244.47 73.252 244.812 73.6 245.244 73.84C245.676 74.08 246.162 74.2 246.702 74.2ZM253.966 76V66.388H256.108V69.034L255.856 68.26C256.144 67.612 256.594 67.12 257.206 66.784C257.83 66.448 258.604 66.28 259.528 66.28V68.422C259.432 68.398 259.342 68.386 259.258 68.386C259.174 68.374 259.09 68.368 259.006 68.368C258.154 68.368 257.476 68.62 256.972 69.124C256.468 69.616 256.216 70.354 256.216 71.338V76H253.966ZM265.867 76.126C264.799 76.126 263.863 75.916 263.059 75.496C262.267 75.064 261.649 74.476 261.205 73.732C260.773 72.988 260.557 72.142 260.557 71.194C260.557 70.234 260.767 69.388 261.187 68.656C261.619 67.912 262.207 67.33 262.951 66.91C263.707 66.49 264.565 66.28 265.525 66.28C266.461 66.28 267.295 66.484 268.027 66.892C268.759 67.3 269.335 67.876 269.755 68.62C270.175 69.364 270.385 70.24 270.385 71.248C270.385 71.344 270.379 71.452 270.367 71.572C270.367 71.692 270.361 71.806 270.349 71.914H262.339V70.42H269.161L268.279 70.888C268.291 70.336 268.177 69.85 267.937 69.43C267.697 69.01 267.367 68.68 266.947 68.44C266.539 68.2 266.065 68.08 265.525 68.08C264.973 68.08 264.487 68.2 264.067 68.44C263.659 68.68 263.335 69.016 263.095 69.448C262.867 69.868 262.753 70.366 262.753 70.942V71.302C262.753 71.878 262.885 72.388 263.149 72.832C263.413 73.276 263.785 73.618 264.265 73.858C264.745 74.098 265.297 74.218 265.921 74.218C266.461 74.218 266.947 74.134 267.379 73.966C267.811 73.798 268.195 73.534 268.531 73.174L269.737 74.56C269.305 75.064 268.759 75.454 268.099 75.73C267.451 75.994 266.707 76.126 265.867 76.126ZM271.666 76V74.578L277.588 67.414L278.002 68.188H271.774V66.388H279.802V67.81L273.88 74.974L273.43 74.2H279.964V76H271.666ZM281.247 76V74.578L287.169 67.414L287.583 68.188H281.355V66.388H289.383V67.81L283.461 74.974L283.011 74.2H289.545V76H281.247ZM295.798 76.126C294.814 76.126 293.938 75.916 293.17 75.496C292.402 75.064 291.796 74.476 291.352 73.732C290.908 72.988 290.686 72.142 290.686 71.194C290.686 70.234 290.908 69.388 291.352 68.656C291.796 67.912 292.402 67.33 293.17 66.91C293.938 66.49 294.814 66.28 295.798 66.28C296.794 66.28 297.676 66.49 298.444 66.91C299.224 67.33 299.83 67.906 300.262 68.638C300.706 69.37 300.928 70.222 300.928 71.194C300.928 72.142 300.706 72.988 300.262 73.732C299.83 74.476 299.224 75.064 298.444 75.496C297.676 75.916 296.794 76.126 295.798 76.126ZM295.798 74.2C296.35 74.2 296.842 74.08 297.274 73.84C297.706 73.6 298.042 73.252 298.282 72.796C298.534 72.34 298.66 71.806 298.66 71.194C298.66 70.57 298.534 70.036 298.282 69.592C298.042 69.136 297.706 68.788 297.274 68.548C296.842 68.308 296.356 68.188 295.816 68.188C295.264 68.188 294.772 68.308 294.34 68.548C293.92 68.788 293.584 69.136 293.332 69.592C293.08 70.036 292.954 70.57 292.954 71.194C292.954 71.806 293.08 72.34 293.332 72.796C293.584 73.252 293.92 73.6 294.34 73.84C294.772 74.08 295.258 74.2 295.798 74.2Z" fill="#214B33"/>
<path d="M175 24L902 24" stroke="#BC0051"/>
<path d="M1.692 21V8.4H6.876C7.992 8.4 8.946 8.58 9.738 8.94C10.542 9.3 11.16 9.816 11.592 10.488C12.024 11.16 12.24 11.958 12.24 12.882C12.24 13.806 12.024 14.604 11.592 15.276C11.16 15.948 10.542 16.464 9.738 16.824C8.946 17.184 7.992 17.364 6.876 17.364H2.988L4.032 16.266V21H1.692ZM4.032 16.518L2.988 15.384H6.768C7.8 15.384 8.574 15.168 9.09 14.736C9.618 14.292 9.882 13.674 9.882 12.882C9.882 12.078 9.618 11.46 9.09 11.028C8.574 10.596 7.8 10.38 6.768 10.38H2.988L4.032 9.228V16.518ZM14.2729 21V11.388H16.4149V14.034L16.1629 13.26C16.4509 12.612 16.9009 12.12 17.5129 11.784C18.1369 11.448 18.9109 11.28 19.8349 11.28V13.422C19.7389 13.398 19.6489 13.386 19.5649 13.386C19.4809 13.374 19.3969 13.368 19.3129 13.368C18.4609 13.368 17.7829 13.62 17.2789 14.124C16.7749 14.616 16.5229 15.354 16.5229 16.338V21H14.2729ZM26.1737 21.126C25.1057 21.126 24.1697 20.916 23.3657 20.496C22.5737 20.064 21.9557 19.476 21.5117 18.732C21.0797 17.988 20.8637 17.142 20.8637 16.194C20.8637 15.234 21.0737 14.388 21.4937 13.656C21.9257 12.912 22.5137 12.33 23.2577 11.91C24.0137 11.49 24.8717 11.28 25.8317 11.28C26.7677 11.28 27.6017 11.484 28.3337 11.892C29.0657 12.3 29.6417 12.876 30.0617 13.62C30.4817 14.364 30.6917 15.24 30.6917 16.248C30.6917 16.344 30.6857 16.452 30.6737 16.572C30.6737 16.692 30.6677 16.806 30.6557 16.914H22.6457V15.42H29.4677L28.5857 15.888C28.5977 15.336 28.4837 14.85 28.2437 14.43C28.0037 14.01 27.6737 13.68 27.2537 13.44C26.8457 13.2 26.3717 13.08 25.8317 13.08C25.2797 13.08 24.7937 13.2 24.3737 13.44C23.9657 13.68 23.6417 14.016 23.4017 14.448C23.1737 14.868 23.0597 15.366 23.0597 15.942V16.302C23.0597 16.878 23.1917 17.388 23.4557 17.832C23.7197 18.276 24.0917 18.618 24.5717 18.858C25.0517 19.098 25.6037 19.218 26.2277 19.218C26.7677 19.218 27.2537 19.134 27.6857 18.966C28.1177 18.798 28.5017 18.534 28.8377 18.174L30.0437 19.56C29.6117 20.064 29.0657 20.454 28.4057 20.73C27.7577 20.994 27.0137 21.126 26.1737 21.126ZM31.9731 21V19.578L37.8951 12.414L38.3091 13.188H32.0811V11.388H40.1091V12.81L34.1871 19.974L33.7371 19.2H40.2711V21H31.9731ZM41.5531 21V19.578L47.4751 12.414L47.8891 13.188H41.6611V11.388H49.6891V12.81L43.7671 19.974L43.3171 19.2H49.8511V21H41.5531ZM56.1046 21.126C55.1206 21.126 54.2446 20.916 53.4766 20.496C52.7086 20.064 52.1026 19.476 51.6586 18.732C51.2146 17.988 50.9926 17.142 50.9926 16.194C50.9926 15.234 51.2146 14.388 51.6586 13.656C52.1026 12.912 52.7086 12.33 53.4766 11.91C54.2446 11.49 55.1206 11.28 56.1046 11.28C57.1006 11.28 57.9826 11.49 58.7506 11.91C59.5306 12.33 60.1366 12.906 60.5686 13.638C61.0126 14.37 61.2346 15.222 61.2346 16.194C61.2346 17.142 61.0126 17.988 60.5686 18.732C60.1366 19.476 59.5306 20.064 58.7506 20.496C57.9826 20.916 57.1006 21.126 56.1046 21.126ZM56.1046 19.2C56.6566 19.2 57.1486 19.08 57.5806 18.84C58.0126 18.6 58.3486 18.252 58.5886 17.796C58.8406 17.34 58.9666 16.806 58.9666 16.194C58.9666 15.57 58.8406 15.036 58.5886 14.592C58.3486 14.136 58.0126 13.788 57.5806 13.548C57.1486 13.308 56.6626 13.188 56.1226 13.188C55.5706 13.188 55.0786 13.308 54.6466 13.548C54.2266 13.788 53.8906 14.136 53.6386 14.592C53.3866 15.036 53.2606 15.57 53.2606 16.194C53.2606 16.806 53.3866 17.34 53.6386 17.796C53.8906 18.252 54.2266 18.6 54.6466 18.84C55.0786 19.08 55.5646 19.2 56.1046 19.2ZM74.2828 21V19.056L74.1568 18.642V15.24C74.1568 14.58 73.9588 14.07 73.5628 13.71C73.1668 13.338 72.5668 13.152 71.7628 13.152C71.2228 13.152 70.6888 13.236 70.1608 13.404C69.6448 13.572 69.2068 13.806 68.8468 14.106L67.9648 12.468C68.4808 12.072 69.0928 11.778 69.8008 11.586C70.5208 11.382 71.2648 11.28 72.0328 11.28C73.4248 11.28 74.4988 11.616 75.2548 12.288C76.0228 12.948 76.4068 13.974 76.4068 15.366V21H74.2828ZM71.2588 21.126C70.5388 21.126 69.9088 21.006 69.3688 20.766C68.8288 20.514 68.4088 20.172 68.1088 19.74C67.8208 19.296 67.6768 18.798 67.6768 18.246C67.6768 17.706 67.8028 17.22 68.0548 16.788C68.3188 16.356 68.7448 16.014 69.3328 15.762C69.9208 15.51 70.7008 15.384 71.6728 15.384H74.4628V16.878H71.8348C71.0668 16.878 70.5508 17.004 70.2868 17.256C70.0228 17.496 69.8908 17.796 69.8908 18.156C69.8908 18.564 70.0528 18.888 70.3768 19.128C70.7008 19.368 71.1508 19.488 71.7268 19.488C72.2788 19.488 72.7708 19.362 73.2028 19.11C73.6468 18.858 73.9648 18.486 74.1568 17.994L74.5348 19.344C74.3188 19.908 73.9288 20.346 73.3648 20.658C72.8128 20.97 72.1108 21.126 71.2588 21.126ZM79.2944 21V7.644H81.5444V21H79.2944ZM93.5401 21.126C92.6161 21.126 91.7821 20.922 91.0381 20.514C90.3061 20.094 89.7301 19.518 89.3101 18.786C88.8901 18.054 88.6801 17.19 88.6801 16.194C88.6801 15.198 88.8901 14.334 89.3101 13.602C89.7301 12.87 90.3061 12.3 91.0381 11.892C91.7821 11.484 92.6161 11.28 93.5401 11.28C94.3441 11.28 95.0641 11.46 95.7001 11.82C96.3361 12.168 96.8401 12.702 97.2121 13.422C97.5841 14.142 97.7701 15.066 97.7701 16.194C97.7701 17.31 97.5901 18.234 97.2301 18.966C96.8701 19.686 96.3721 20.226 95.7361 20.586C95.1001 20.946 94.3681 21.126 93.5401 21.126ZM93.8101 19.2C94.3501 19.2 94.8301 19.08 95.2501 18.84C95.6821 18.6 96.0241 18.252 96.2761 17.796C96.5401 17.34 96.6721 16.806 96.6721 16.194C96.6721 15.57 96.5401 15.036 96.2761 14.592C96.0241 14.136 95.6821 13.788 95.2501 13.548C94.8301 13.308 94.3501 13.188 93.8101 13.188C93.2701 13.188 92.7841 13.308 92.3521 13.548C91.9321 13.788 91.5901 14.136 91.3261 14.592C91.0741 15.036 90.9481 15.57 90.9481 16.194C90.9481 16.806 91.0741 17.34 91.3261 17.796C91.5901 18.252 91.9321 18.6 92.3521 18.84C92.7841 19.08 93.2701 19.2 93.8101 19.2ZM96.7261 21V18.732L96.8161 16.176L96.6361 13.62V7.644H98.8681V21H96.7261ZM106.348 21.126C105.28 21.126 104.344 20.916 103.54 20.496C102.748 20.064 102.13 19.476 101.686 18.732C101.254 17.988 101.038 17.142 101.038 16.194C101.038 15.234 101.248 14.388 101.668 13.656C102.1 12.912 102.688 12.33 103.432 11.91C104.188 11.49 105.046 11.28 106.006 11.28C106.942 11.28 107.776 11.484 108.508 11.892C109.24 12.3 109.816 12.876 110.236 13.62C110.656 14.364 110.866 15.24 110.866 16.248C110.866 16.344 110.86 16.452 110.848 16.572C110.848 16.692 110.842 16.806 110.83 16.914H102.82V15.42H109.642L108.76 15.888C108.772 15.336 108.658 14.85 108.418 14.43C108.178 14.01 107.848 13.68 107.428 13.44C107.02 13.2 106.546 13.08 106.006 13.08C105.454 13.08 104.968 13.2 104.548 13.44C104.14 13.68 103.816 14.016 103.576 14.448C103.348 14.868 103.234 15.366 103.234 15.942V16.302C103.234 16.878 103.366 17.388 103.63 17.832C103.894 18.276 104.266 18.618 104.746 18.858C105.226 19.098 105.778 19.218 106.402 19.218C106.942 19.218 107.428 19.134 107.86 18.966C108.292 18.798 108.676 18.534 109.012 18.174L110.218 19.56C109.786 20.064 109.24 20.454 108.58 20.73C107.932 20.994 107.188 21.126 106.348 21.126ZM116.645 21.126C115.589 21.126 114.773 20.856 114.197 20.316C113.621 19.764 113.333 18.954 113.333 17.886V9.264H115.583V17.832C115.583 18.288 115.697 18.642 115.925 18.894C116.165 19.146 116.495 19.272 116.915 19.272C117.419 19.272 117.839 19.14 118.175 18.876L118.805 20.478C118.541 20.694 118.217 20.856 117.833 20.964C117.449 21.072 117.053 21.126 116.645 21.126ZM111.749 13.26V11.46H118.157V13.26H111.749ZM124.045 21.126C122.989 21.126 122.173 20.856 121.597 20.316C121.021 19.764 120.733 18.954 120.733 17.886V9.264H122.983V17.832C122.983 18.288 123.097 18.642 123.325 18.894C123.565 19.146 123.895 19.272 124.315 19.272C124.819 19.272 125.239 19.14 125.575 18.876L126.205 20.478C125.941 20.694 125.617 20.856 125.233 20.964C124.849 21.072 124.453 21.126 124.045 21.126ZM119.149 13.26V11.46H125.557V13.26H119.149ZM133.978 21V19.056L133.852 18.642V15.24C133.852 14.58 133.654 14.07 133.258 13.71C132.862 13.338 132.262 13.152 131.458 13.152C130.918 13.152 130.384 13.236 129.856 13.404C129.34 13.572 128.902 13.806 128.542 14.106L127.66 12.468C128.176 12.072 128.788 11.778 129.496 11.586C130.216 11.382 130.96 11.28 131.728 11.28C133.12 11.28 134.194 11.616 134.95 12.288C135.718 12.948 136.102 13.974 136.102 15.366V21H133.978ZM130.954 21.126C130.234 21.126 129.604 21.006 129.064 20.766C128.524 20.514 128.104 20.172 127.804 19.74C127.516 19.296 127.372 18.798 127.372 18.246C127.372 17.706 127.498 17.22 127.75 16.788C128.014 16.356 128.44 16.014 129.028 15.762C129.616 15.51 130.396 15.384 131.368 15.384H134.158V16.878H131.53C130.762 16.878 130.246 17.004 129.982 17.256C129.718 17.496 129.586 17.796 129.586 18.156C129.586 18.564 129.748 18.888 130.072 19.128C130.396 19.368 130.846 19.488 131.422 19.488C131.974 19.488 132.466 19.362 132.898 19.11C133.342 18.858 133.66 18.486 133.852 17.994L134.23 19.344C134.014 19.908 133.624 20.346 133.06 20.658C132.508 20.97 131.806 21.126 130.954 21.126ZM143.363 24.618C142.475 24.618 141.605 24.498 140.753 24.258C139.913 24.03 139.223 23.694 138.683 23.25L139.691 21.558C140.111 21.906 140.639 22.182 141.275 22.386C141.923 22.602 142.577 22.71 143.237 22.71C144.293 22.71 145.067 22.464 145.559 21.972C146.051 21.492 146.297 20.766 146.297 19.794V18.084L146.477 15.906L146.405 13.728V11.388H148.547V19.542C148.547 21.282 148.103 22.56 147.215 23.376C146.327 24.204 145.043 24.618 143.363 24.618ZM143.075 20.568C142.163 20.568 141.335 20.376 140.591 19.992C139.859 19.596 139.277 19.05 138.845 18.354C138.425 17.658 138.215 16.842 138.215 15.906C138.215 14.982 138.425 14.172 138.845 13.476C139.277 12.78 139.859 12.24 140.591 11.856C141.335 11.472 142.163 11.28 143.075 11.28C143.891 11.28 144.623 11.442 145.271 11.766C145.919 12.09 146.435 12.594 146.819 13.278C147.215 13.962 147.413 14.838 147.413 15.906C147.413 16.974 147.215 17.856 146.819 18.552C146.435 19.236 145.919 19.746 145.271 20.082C144.623 20.406 143.891 20.568 143.075 20.568ZM143.417 18.66C143.981 18.66 144.485 18.546 144.929 18.318C145.373 18.078 145.715 17.754 145.955 17.346C146.207 16.926 146.333 16.446 146.333 15.906C146.333 15.366 146.207 14.892 145.955 14.484C145.715 14.064 145.373 13.746 144.929 13.53C144.485 13.302 143.981 13.188 143.417 13.188C142.853 13.188 142.343 13.302 141.887 13.53C141.443 13.746 141.095 14.064 140.843 14.484C140.603 14.892 140.483 15.366 140.483 15.906C140.483 16.446 140.603 16.926 140.843 17.346C141.095 17.754 141.443 18.078 141.887 18.318C142.343 18.546 142.853 18.66 143.417 18.66ZM151.505 21V7.644H153.755V21H151.505ZM156.708 21V11.388H158.958V21H156.708ZM157.842 9.804C157.422 9.804 157.074 9.672 156.798 9.408C156.534 9.144 156.402 8.826 156.402 8.454C156.402 8.07 156.534 7.752 156.798 7.5C157.074 7.236 157.422 7.104 157.842 7.104C158.262 7.104 158.604 7.23 158.868 7.482C159.144 7.722 159.282 8.028 159.282 8.4C159.282 8.796 159.15 9.132 158.886 9.408C158.622 9.672 158.274 9.804 157.842 9.804ZM166.232 21.126C165.248 21.126 164.372 20.916 163.604 20.496C162.836 20.064 162.23 19.476 161.786 18.732C161.342 17.988 161.12 17.142 161.12 16.194C161.12 15.234 161.342 14.388 161.786 13.656C162.23 12.912 162.836 12.33 163.604 11.91C164.372 11.49 165.248 11.28 166.232 11.28C167.228 11.28 168.11 11.49 168.878 11.91C169.658 12.33 170.264 12.906 170.696 13.638C171.14 14.37 171.362 15.222 171.362 16.194C171.362 17.142 171.14 17.988 170.696 18.732C170.264 19.476 169.658 20.064 168.878 20.496C168.11 20.916 167.228 21.126 166.232 21.126ZM166.232 19.2C166.784 19.2 167.276 19.08 167.708 18.84C168.14 18.6 168.476 18.252 168.716 17.796C168.968 17.34 169.094 16.806 169.094 16.194C169.094 15.57 168.968 15.036 168.716 14.592C168.476 14.136 168.14 13.788 167.708 13.548C167.276 13.308 166.79 13.188 166.25 13.188C165.698 13.188 165.206 13.308 164.774 13.548C164.354 13.788 164.018 14.136 163.766 14.592C163.514 15.036 163.388 15.57 163.388 16.194C163.388 16.806 163.514 17.34 163.766 17.796C164.018 18.252 164.354 18.6 164.774 18.84C165.206 19.08 165.692 19.2 166.232 19.2Z" fill="#BC0051"/>
<path d="M350 161L1 161" stroke="#A2C33D"/>
<path d="M4.008 153V130.6H8.168V153H4.008ZM13.8428 153V129.256H17.8428V153H13.8428ZM38.3685 153.224C36.4912 153.224 35.0405 152.744 34.0165 151.784C32.9925 150.803 32.4805 149.363 32.4805 147.464V132.136H36.4805V147.368C36.4805 148.179 36.6832 148.808 37.0885 149.256C37.5152 149.704 38.1018 149.928 38.8485 149.928C39.7445 149.928 40.4912 149.693 41.0885 149.224L42.2085 152.072C41.7392 152.456 41.1632 152.744 40.4805 152.936C39.7978 153.128 39.0938 153.224 38.3685 153.224ZM29.6645 139.24V136.04H41.0565V139.24H29.6645ZM52.731 153.224C51.2803 153.224 50.0003 152.957 48.891 152.424C47.7817 151.869 46.9177 151.037 46.299 149.928C45.6803 148.797 45.371 147.379 45.371 145.672V135.912H49.371V145.128C49.371 146.664 49.7123 147.816 50.395 148.584C51.099 149.331 52.091 149.704 53.371 149.704C54.3097 149.704 55.1203 149.512 55.803 149.128C56.507 148.744 57.051 148.168 57.435 147.4C57.8403 146.632 58.043 145.683 58.043 144.552V135.912H62.043V153H58.235V148.392L58.907 149.8C58.331 150.909 57.4883 151.763 56.379 152.36C55.2697 152.936 54.0537 153.224 52.731 153.224ZM74.9603 153.224C73.2109 153.224 71.6536 152.851 70.2883 152.104C68.9229 151.336 67.8456 150.291 67.0563 148.968C66.2669 147.645 65.8723 146.141 65.8723 144.456C65.8723 142.749 66.2669 141.245 67.0563 139.944C67.8456 138.621 68.9229 137.587 70.2883 136.84C71.6536 136.093 73.2109 135.72 74.9603 135.72C76.7309 135.72 78.2989 136.093 79.6643 136.84C81.0509 137.587 82.1283 138.611 82.8963 139.912C83.6856 141.213 84.0803 142.728 84.0803 144.456C84.0803 146.141 83.6856 147.645 82.8963 148.968C82.1283 150.291 81.0509 151.336 79.6643 152.104C78.2989 152.851 76.7309 153.224 74.9603 153.224ZM74.9603 149.8C75.9416 149.8 76.8163 149.587 77.5843 149.16C78.3523 148.733 78.9496 148.115 79.3763 147.304C79.8243 146.493 80.0483 145.544 80.0483 144.456C80.0483 143.347 79.8243 142.397 79.3763 141.608C78.9496 140.797 78.3523 140.179 77.5843 139.752C76.8163 139.325 75.9523 139.112 74.9923 139.112C74.0109 139.112 73.1363 139.325 72.3683 139.752C71.6216 140.179 71.0243 140.797 70.5763 141.608C70.1283 142.397 69.9043 143.347 69.9043 144.456C69.9043 145.544 70.1283 146.493 70.5763 147.304C71.0243 148.115 71.6216 148.733 72.3683 149.16C73.1363 149.587 74.0003 149.8 74.9603 149.8ZM101.293 153L93.965 135.912H98.125L104.429 150.984H102.381L108.909 135.912H112.749L105.421 153H101.293ZM125.246 153V149.544L125.022 148.808V142.76C125.022 141.587 124.67 140.68 123.966 140.04C123.262 139.379 122.195 139.048 120.766 139.048C119.806 139.048 118.856 139.197 117.918 139.496C117 139.795 116.222 140.211 115.582 140.744L114.014 137.832C114.931 137.128 116.019 136.605 117.278 136.264C118.558 135.901 119.88 135.72 121.246 135.72C123.72 135.72 125.63 136.317 126.974 137.512C128.339 138.685 129.022 140.509 129.022 142.984V153H125.246ZM119.87 153.224C118.59 153.224 117.47 153.011 116.51 152.584C115.55 152.136 114.803 151.528 114.27 150.76C113.758 149.971 113.502 149.085 113.502 148.104C113.502 147.144 113.726 146.28 114.174 145.512C114.643 144.744 115.4 144.136 116.446 143.688C117.491 143.24 118.878 143.016 120.606 143.016H125.566V145.672H120.894C119.528 145.672 118.611 145.896 118.142 146.344C117.672 146.771 117.438 147.304 117.438 147.944C117.438 148.669 117.726 149.245 118.302 149.672C118.878 150.099 119.678 150.312 120.702 150.312C121.683 150.312 122.558 150.088 123.326 149.64C124.115 149.192 124.68 148.531 125.022 147.656L125.694 150.056C125.31 151.059 124.616 151.837 123.614 152.392C122.632 152.947 121.384 153.224 119.87 153.224ZM143.851 135.72C145.217 135.72 146.433 135.987 147.499 136.52C148.587 137.053 149.441 137.875 150.059 138.984C150.678 140.072 150.987 141.48 150.987 143.208V153H146.987V143.72C146.987 142.205 146.625 141.075 145.899 140.328C145.195 139.581 144.203 139.208 142.923 139.208C141.985 139.208 141.153 139.4 140.427 139.784C139.702 140.168 139.137 140.744 138.731 141.512C138.347 142.259 138.155 143.208 138.155 144.36V153H134.155V135.912H137.963V140.52L137.291 139.112C137.889 138.024 138.753 137.192 139.883 136.616C141.035 136.019 142.358 135.72 143.851 135.72ZM162.494 153.224C160.616 153.224 159.166 152.744 158.141 151.784C157.118 150.803 156.606 149.363 156.606 147.464V132.136H160.606V147.368C160.606 148.179 160.808 148.808 161.214 149.256C161.64 149.704 162.227 149.928 162.974 149.928C163.87 149.928 164.616 149.693 165.214 149.224L166.334 152.072C165.864 152.456 165.288 152.744 164.606 152.936C163.923 153.128 163.219 153.224 162.494 153.224ZM153.79 139.24V136.04H165.182V139.24H153.79ZM180.152 153V149.544L179.928 148.808V142.76C179.928 141.587 179.576 140.68 178.872 140.04C178.168 139.379 177.101 139.048 175.672 139.048C174.712 139.048 173.763 139.197 172.824 139.496C171.907 139.795 171.128 140.211 170.488 140.744L168.92 137.832C169.837 137.128 170.925 136.605 172.184 136.264C173.464 135.901 174.787 135.72 176.152 135.72C178.627 135.72 180.536 136.317 181.88 137.512C183.245 138.685 183.928 140.509 183.928 142.984V153H180.152ZM174.776 153.224C173.496 153.224 172.376 153.011 171.416 152.584C170.456 152.136 169.709 151.528 169.176 150.76C168.664 149.971 168.408 149.085 168.408 148.104C168.408 147.144 168.632 146.28 169.08 145.512C169.549 144.744 170.307 144.136 171.352 143.688C172.397 143.24 173.784 143.016 175.512 143.016H180.472V145.672H175.8C174.435 145.672 173.517 145.896 173.048 146.344C172.579 146.771 172.344 147.304 172.344 147.944C172.344 148.669 172.632 149.245 173.208 149.672C173.784 150.099 174.584 150.312 175.608 150.312C176.589 150.312 177.464 150.088 178.232 149.64C179.021 149.192 179.587 148.531 179.928 147.656L180.6 150.056C180.216 151.059 179.523 151.837 178.52 152.392C177.539 152.947 176.291 153.224 174.776 153.224ZM196.837 159.432C195.258 159.432 193.711 159.219 192.197 158.792C190.703 158.387 189.477 157.789 188.517 157L190.309 153.992C191.055 154.611 191.994 155.101 193.125 155.464C194.277 155.848 195.439 156.04 196.613 156.04C198.49 156.04 199.866 155.603 200.741 154.728C201.615 153.875 202.053 152.584 202.053 150.856V147.816L202.373 143.944L202.245 140.072V135.912H206.053V150.408C206.053 153.501 205.263 155.773 203.685 157.224C202.106 158.696 199.823 159.432 196.837 159.432ZM196.325 152.232C194.703 152.232 193.231 151.891 191.909 151.208C190.607 150.504 189.573 149.533 188.805 148.296C188.058 147.059 187.685 145.608 187.685 143.944C187.685 142.301 188.058 140.861 188.805 139.624C189.573 138.387 190.607 137.427 191.909 136.744C193.231 136.061 194.703 135.72 196.325 135.72C197.775 135.72 199.077 136.008 200.229 136.584C201.381 137.16 202.298 138.056 202.981 139.272C203.685 140.488 204.037 142.045 204.037 143.944C204.037 145.843 203.685 147.411 202.981 148.648C202.298 149.864 201.381 150.771 200.229 151.368C199.077 151.944 197.775 152.232 196.325 152.232ZM196.933 148.84C197.935 148.84 198.831 148.637 199.621 148.232C200.41 147.805 201.018 147.229 201.445 146.504C201.893 145.757 202.117 144.904 202.117 143.944C202.117 142.984 201.893 142.141 201.445 141.416C201.018 140.669 200.41 140.104 199.621 139.72C198.831 139.315 197.935 139.112 196.933 139.112C195.93 139.112 195.023 139.315 194.213 139.72C193.423 140.104 192.805 140.669 192.357 141.416C191.93 142.141 191.717 142.984 191.717 143.944C191.717 144.904 191.93 145.757 192.357 146.504C192.805 147.229 193.423 147.805 194.213 148.232C195.023 148.637 195.93 148.84 196.933 148.84ZM219.056 159.432C217.477 159.432 215.93 159.219 214.416 158.792C212.922 158.387 211.696 157.789 210.736 157L212.528 153.992C213.274 154.611 214.213 155.101 215.344 155.464C216.496 155.848 217.658 156.04 218.832 156.04C220.709 156.04 222.085 155.603 222.96 154.728C223.834 153.875 224.272 152.584 224.272 150.856V147.816L224.592 143.944L224.464 140.072V135.912H228.272V150.408C228.272 153.501 227.482 155.773 225.904 157.224C224.325 158.696 222.042 159.432 219.056 159.432ZM218.544 152.232C216.922 152.232 215.45 151.891 214.128 151.208C212.826 150.504 211.792 149.533 211.024 148.296C210.277 147.059 209.904 145.608 209.904 143.944C209.904 142.301 210.277 140.861 211.024 139.624C211.792 138.387 212.826 137.427 214.128 136.744C215.45 136.061 216.922 135.72 218.544 135.72C219.994 135.72 221.296 136.008 222.448 136.584C223.6 137.16 224.517 138.056 225.2 139.272C225.904 140.488 226.256 142.045 226.256 143.944C226.256 145.843 225.904 147.411 225.2 148.648C224.517 149.864 223.6 150.771 222.448 151.368C221.296 151.944 219.994 152.232 218.544 152.232ZM219.152 148.84C220.154 148.84 221.05 148.637 221.84 148.232C222.629 147.805 223.237 147.229 223.664 146.504C224.112 145.757 224.336 144.904 224.336 143.944C224.336 142.984 224.112 142.141 223.664 141.416C223.237 140.669 222.629 140.104 221.84 139.72C221.05 139.315 220.154 139.112 219.152 139.112C218.149 139.112 217.242 139.315 216.432 139.72C215.642 140.104 215.024 140.669 214.576 141.416C214.149 142.141 213.936 142.984 213.936 143.944C213.936 144.904 214.149 145.757 214.576 146.504C215.024 147.229 215.642 147.805 216.432 148.232C217.242 148.637 218.149 148.84 219.152 148.84ZM233.53 153V135.912H237.53V153H233.53ZM235.546 133.096C234.8 133.096 234.181 132.861 233.69 132.392C233.221 131.923 232.986 131.357 232.986 130.696C232.986 130.013 233.221 129.448 233.69 129C234.181 128.531 234.8 128.296 235.546 128.296C236.293 128.296 236.901 128.52 237.37 128.968C237.861 129.395 238.106 129.939 238.106 130.6C238.106 131.304 237.872 131.901 237.402 132.392C236.933 132.861 236.314 133.096 235.546 133.096ZM250.46 153.224C248.711 153.224 247.154 152.851 245.788 152.104C244.423 151.336 243.346 150.291 242.556 148.968C241.767 147.645 241.372 146.141 241.372 144.456C241.372 142.749 241.767 141.245 242.556 139.944C243.346 138.621 244.423 137.587 245.788 136.84C247.154 136.093 248.711 135.72 250.46 135.72C252.231 135.72 253.799 136.093 255.164 136.84C256.551 137.587 257.628 138.611 258.396 139.912C259.186 141.213 259.58 142.728 259.58 144.456C259.58 146.141 259.186 147.645 258.396 148.968C257.628 150.291 256.551 151.336 255.164 152.104C253.799 152.851 252.231 153.224 250.46 153.224ZM250.46 149.8C251.442 149.8 252.316 149.587 253.084 149.16C253.852 148.733 254.45 148.115 254.876 147.304C255.324 146.493 255.548 145.544 255.548 144.456C255.548 143.347 255.324 142.397 254.876 141.608C254.45 140.797 253.852 140.179 253.084 139.752C252.316 139.325 251.452 139.112 250.492 139.112C249.511 139.112 248.636 139.325 247.868 139.752C247.122 140.179 246.524 140.797 246.076 141.608C245.628 142.397 245.404 143.347 245.404 144.456C245.404 145.544 245.628 146.493 246.076 147.304C246.524 148.115 247.122 148.733 247.868 149.16C248.636 149.587 249.5 149.8 250.46 149.8Z" fill="#A2C33D"/>
<path d="M343.436 364V354.62L343.884 355.096H341.126V354.2H344.444V364H343.436ZM355.715 364V362.376L355.673 362.11V359.394C355.673 358.769 355.495 358.288 355.141 357.952C354.795 357.616 354.277 357.448 353.587 357.448C353.111 357.448 352.658 357.527 352.229 357.686C351.799 357.845 351.435 358.055 351.137 358.316L350.689 357.574C351.062 357.257 351.51 357.014 352.033 356.846C352.555 356.669 353.106 356.58 353.685 356.58C354.637 356.58 355.369 356.818 355.883 357.294C356.405 357.761 356.667 358.475 356.667 359.436V364H355.715ZM353.181 364.07C352.63 364.07 352.149 363.981 351.739 363.804C351.337 363.617 351.029 363.365 350.815 363.048C350.6 362.721 350.493 362.348 350.493 361.928C350.493 361.545 350.581 361.2 350.759 360.892C350.945 360.575 351.244 360.323 351.655 360.136C352.075 359.94 352.635 359.842 353.335 359.842H355.869V360.584H353.363C352.653 360.584 352.159 360.71 351.879 360.962C351.608 361.214 351.473 361.527 351.473 361.9C351.473 362.32 351.636 362.656 351.963 362.908C352.289 363.16 352.747 363.286 353.335 363.286C353.895 363.286 354.375 363.16 354.777 362.908C355.187 362.647 355.486 362.273 355.673 361.788L355.897 362.474C355.71 362.959 355.383 363.347 354.917 363.636C354.459 363.925 353.881 364.07 353.181 364.07ZM363.16 364.07C362.526 364.07 361.952 363.925 361.438 363.636C360.925 363.337 360.514 362.913 360.206 362.362C359.908 361.802 359.758 361.121 359.758 360.318C359.758 359.515 359.908 358.839 360.206 358.288C360.505 357.728 360.911 357.303 361.424 357.014C361.938 356.725 362.516 356.58 363.16 356.58C363.86 356.58 364.486 356.739 365.036 357.056C365.596 357.364 366.035 357.803 366.352 358.372C366.67 358.932 366.828 359.581 366.828 360.318C366.828 361.065 366.67 361.718 366.352 362.278C366.035 362.838 365.596 363.277 365.036 363.594C364.486 363.911 363.86 364.07 363.16 364.07ZM359.366 366.716V356.65H360.318V358.862L360.22 360.332L360.36 361.816V366.716H359.366ZM363.09 363.188C363.613 363.188 364.08 363.071 364.49 362.838C364.901 362.595 365.228 362.259 365.47 361.83C365.713 361.391 365.834 360.887 365.834 360.318C365.834 359.749 365.713 359.249 365.47 358.82C365.228 358.391 364.901 358.055 364.49 357.812C364.08 357.569 363.613 357.448 363.09 357.448C362.568 357.448 362.096 357.569 361.676 357.812C361.266 358.055 360.939 358.391 360.696 358.82C360.463 359.249 360.346 359.749 360.346 360.318C360.346 360.887 360.463 361.391 360.696 361.83C360.939 362.259 361.266 362.595 361.676 362.838C362.096 363.071 362.568 363.188 363.09 363.188ZM368.855 364V356.65H369.807V358.652L369.709 358.302C369.914 357.742 370.259 357.317 370.745 357.028C371.23 356.729 371.832 356.58 372.551 356.58V357.546C372.513 357.546 372.476 357.546 372.439 357.546C372.401 357.537 372.364 357.532 372.327 357.532C371.552 357.532 370.945 357.77 370.507 358.246C370.068 358.713 369.849 359.38 369.849 360.248V364H368.855ZM374.365 364V356.65H375.359V364H374.365ZM374.869 355.026C374.663 355.026 374.491 354.956 374.351 354.816C374.211 354.676 374.141 354.508 374.141 354.312C374.141 354.116 374.211 353.953 374.351 353.822C374.491 353.682 374.663 353.612 374.869 353.612C375.074 353.612 375.247 353.677 375.387 353.808C375.527 353.939 375.597 354.102 375.597 354.298C375.597 354.503 375.527 354.676 375.387 354.816C375.256 354.956 375.083 355.026 374.869 355.026ZM378.124 364V353.612H379.118V364H378.124ZM385.006 364.07C384.241 364.07 383.569 363.911 382.99 363.594C382.411 363.267 381.959 362.824 381.632 362.264C381.305 361.695 381.142 361.046 381.142 360.318C381.142 359.59 381.296 358.946 381.604 358.386C381.921 357.826 382.351 357.387 382.892 357.07C383.443 356.743 384.059 356.58 384.74 356.58C385.431 356.58 386.042 356.739 386.574 357.056C387.115 357.364 387.54 357.803 387.848 358.372C388.156 358.932 388.31 359.581 388.31 360.318C388.31 360.365 388.305 360.416 388.296 360.472C388.296 360.519 388.296 360.57 388.296 360.626H381.898V359.884H387.764L387.372 360.178C387.372 359.646 387.255 359.175 387.022 358.764C386.798 358.344 386.49 358.017 386.098 357.784C385.706 357.551 385.253 357.434 384.74 357.434C384.236 357.434 383.783 357.551 383.382 357.784C382.981 358.017 382.668 358.344 382.444 358.764C382.22 359.184 382.108 359.665 382.108 360.206V360.36C382.108 360.92 382.229 361.415 382.472 361.844C382.724 362.264 383.069 362.595 383.508 362.838C383.956 363.071 384.465 363.188 385.034 363.188C385.482 363.188 385.897 363.109 386.28 362.95C386.672 362.791 387.008 362.549 387.288 362.222L387.848 362.866C387.521 363.258 387.111 363.557 386.616 363.762C386.131 363.967 385.594 364.07 385.006 364.07Z" fill="#313131"/>
<path d="M871.654 364.084C870.945 364.084 870.273 363.972 869.638 363.748C869.013 363.515 868.509 363.207 868.126 362.824L868.616 362.026C868.933 362.353 869.358 362.623 869.89 362.838C870.431 363.053 871.019 363.16 871.654 363.16C872.466 363.16 873.087 362.983 873.516 362.628C873.955 362.273 874.174 361.797 874.174 361.2C874.174 360.603 873.959 360.127 873.53 359.772C873.11 359.417 872.443 359.24 871.528 359.24H870.828V358.498L873.852 354.704L873.992 355.096H868.532V354.2H874.832V354.914L871.808 358.708L871.318 358.386H871.696C872.872 358.386 873.749 358.647 874.328 359.17C874.916 359.693 875.21 360.365 875.21 361.186C875.21 361.737 875.079 362.231 874.818 362.67C874.557 363.109 874.16 363.454 873.628 363.706C873.105 363.958 872.447 364.084 871.654 364.084ZM880.536 364.084C879.78 364.084 879.108 363.888 878.52 363.496C877.932 363.095 877.47 362.525 877.134 361.788C876.798 361.041 876.63 360.145 876.63 359.1C876.63 358.055 876.798 357.163 877.134 356.426C877.47 355.679 877.932 355.11 878.52 354.718C879.108 354.317 879.78 354.116 880.536 354.116C881.292 354.116 881.964 354.317 882.552 354.718C883.14 355.11 883.602 355.679 883.938 356.426C884.284 357.163 884.456 358.055 884.456 359.1C884.456 360.145 884.284 361.041 883.938 361.788C883.602 362.525 883.14 363.095 882.552 363.496C881.964 363.888 881.292 364.084 880.536 364.084ZM880.536 363.16C881.115 363.16 881.619 363.006 882.048 362.698C882.478 362.381 882.814 361.923 883.056 361.326C883.299 360.719 883.42 359.977 883.42 359.1C883.42 358.223 883.299 357.485 883.056 356.888C882.814 356.281 882.478 355.824 882.048 355.516C881.619 355.199 881.115 355.04 880.536 355.04C879.976 355.04 879.477 355.199 879.038 355.516C878.6 355.824 878.259 356.281 878.016 356.888C877.774 357.485 877.652 358.223 877.652 359.1C877.652 359.977 877.774 360.719 878.016 361.326C878.259 361.923 878.6 362.381 879.038 362.698C879.477 363.006 879.976 363.16 880.536 363.16ZM894.828 364V362.376L894.786 362.11V359.394C894.786 358.769 894.609 358.288 894.254 357.952C893.909 357.616 893.391 357.448 892.7 357.448C892.224 357.448 891.771 357.527 891.342 357.686C890.913 357.845 890.549 358.055 890.25 358.316L889.802 357.574C890.175 357.257 890.623 357.014 891.146 356.846C891.669 356.669 892.219 356.58 892.798 356.58C893.75 356.58 894.483 356.818 894.996 357.294C895.519 357.761 895.78 358.475 895.78 359.436V364H894.828ZM892.294 364.07C891.743 364.07 891.263 363.981 890.852 363.804C890.451 363.617 890.143 363.365 889.928 363.048C889.713 362.721 889.606 362.348 889.606 361.928C889.606 361.545 889.695 361.2 889.872 360.892C890.059 360.575 890.357 360.323 890.768 360.136C891.188 359.94 891.748 359.842 892.448 359.842H894.982V360.584H892.476C891.767 360.584 891.272 360.71 890.992 360.962C890.721 361.214 890.586 361.527 890.586 361.9C890.586 362.32 890.749 362.656 891.076 362.908C891.403 363.16 891.86 363.286 892.448 363.286C893.008 363.286 893.489 363.16 893.89 362.908C894.301 362.647 894.599 362.273 894.786 361.788L895.01 362.474C894.823 362.959 894.497 363.347 894.03 363.636C893.573 363.925 892.994 364.07 892.294 364.07ZM902.274 364.07C901.639 364.07 901.065 363.925 900.552 363.636C900.038 363.337 899.628 362.913 899.32 362.362C899.021 361.802 898.872 361.121 898.872 360.318C898.872 359.515 899.021 358.839 899.32 358.288C899.618 357.728 900.024 357.303 900.538 357.014C901.051 356.725 901.63 356.58 902.274 356.58C902.974 356.58 903.599 356.739 904.15 357.056C904.71 357.364 905.148 357.803 905.466 358.372C905.783 358.932 905.942 359.581 905.942 360.318C905.942 361.065 905.783 361.718 905.466 362.278C905.148 362.838 904.71 363.277 904.15 363.594C903.599 363.911 902.974 364.07 902.274 364.07ZM898.48 366.716V356.65H899.432V358.862L899.334 360.332L899.474 361.816V366.716H898.48ZM902.204 363.188C902.726 363.188 903.193 363.071 903.604 362.838C904.014 362.595 904.341 362.259 904.584 361.83C904.826 361.391 904.948 360.887 904.948 360.318C904.948 359.749 904.826 359.249 904.584 358.82C904.341 358.391 904.014 358.055 903.604 357.812C903.193 357.569 902.726 357.448 902.204 357.448C901.681 357.448 901.21 357.569 900.79 357.812C900.379 358.055 900.052 358.391 899.81 358.82C899.576 359.249 899.46 359.749 899.46 360.318C899.46 360.887 899.576 361.391 899.81 361.83C900.052 362.259 900.379 362.595 900.79 362.838C901.21 363.071 901.681 363.188 902.204 363.188ZM907.968 364V356.65H908.92V358.652L908.822 358.302C909.027 357.742 909.373 357.317 909.858 357.028C910.343 356.729 910.945 356.58 911.664 356.58V357.546C911.627 357.546 911.589 357.546 911.552 357.546C911.515 357.537 911.477 357.532 911.44 357.532C910.665 357.532 910.059 357.77 909.62 358.246C909.181 358.713 908.962 359.38 908.962 360.248V364H907.968ZM913.478 364V356.65H914.472V364H913.478ZM913.982 355.026C913.776 355.026 913.604 354.956 913.464 354.816C913.324 354.676 913.254 354.508 913.254 354.312C913.254 354.116 913.324 353.953 913.464 353.822C913.604 353.682 913.776 353.612 913.982 353.612C914.187 353.612 914.36 353.677 914.5 353.808C914.64 353.939 914.71 354.102 914.71 354.298C914.71 354.503 914.64 354.676 914.5 354.816C914.369 354.956 914.196 355.026 913.982 355.026ZM917.238 364V353.612H918.232V364H917.238ZM924.119 364.07C923.354 364.07 922.682 363.911 922.103 363.594C921.525 363.267 921.072 362.824 920.745 362.264C920.419 361.695 920.255 361.046 920.255 360.318C920.255 359.59 920.409 358.946 920.717 358.386C921.035 357.826 921.464 357.387 922.005 357.07C922.556 356.743 923.172 356.58 923.853 356.58C924.544 356.58 925.155 356.739 925.687 357.056C926.229 357.364 926.653 357.803 926.961 358.372C927.269 358.932 927.423 359.581 927.423 360.318C927.423 360.365 927.419 360.416 927.409 360.472C927.409 360.519 927.409 360.57 927.409 360.626H921.011V359.884H926.877L926.485 360.178C926.485 359.646 926.369 359.175 926.135 358.764C925.911 358.344 925.603 358.017 925.211 357.784C924.819 357.551 924.367 357.434 923.853 357.434C923.349 357.434 922.897 357.551 922.495 357.784C922.094 358.017 921.781 358.344 921.557 358.764C921.333 359.184 921.221 359.665 921.221 360.206V360.36C921.221 360.92 921.343 361.415 921.585 361.844C921.837 362.264 922.183 362.595 922.621 362.838C923.069 363.071 923.578 363.188 924.147 363.188C924.595 363.188 925.011 363.109 925.393 362.95C925.785 362.791 926.121 362.549 926.401 362.222L926.961 362.866C926.635 363.258 926.224 363.557 925.729 363.762C925.244 363.967 924.707 364.07 924.119 364.07Z" fill="#313131"/>
<path d="M592.436 364V354.62L592.884 355.096H590.126V354.2H593.444V364H592.436ZM598.881 364.084C598.181 364.084 597.513 363.972 596.879 363.748C596.244 363.515 595.74 363.207 595.367 362.824L595.857 362.026C596.165 362.353 596.585 362.623 597.117 362.838C597.658 363.053 598.241 363.16 598.867 363.16C599.697 363.16 600.327 362.978 600.757 362.614C601.195 362.241 601.415 361.755 601.415 361.158C601.415 360.738 601.312 360.379 601.107 360.08C600.911 359.772 600.575 359.534 600.099 359.366C599.623 359.198 598.969 359.114 598.139 359.114H596.053L596.557 354.2H601.919V355.096H596.963L597.481 354.606L597.047 358.722L596.529 358.218H598.363C599.352 358.218 600.145 358.339 600.743 358.582C601.34 358.825 601.769 359.165 602.031 359.604C602.301 360.033 602.437 360.537 602.437 361.116C602.437 361.667 602.306 362.171 602.045 362.628C601.783 363.076 601.391 363.431 600.869 363.692C600.346 363.953 599.683 364.084 598.881 364.084ZM612.644 364V362.376L612.602 362.11V359.394C612.602 358.769 612.425 358.288 612.07 357.952C611.725 357.616 611.207 357.448 610.516 357.448C610.04 357.448 609.588 357.527 609.158 357.686C608.729 357.845 608.365 358.055 608.066 358.316L607.618 357.574C607.992 357.257 608.44 357.014 608.962 356.846C609.485 356.669 610.036 356.58 610.614 356.58C611.566 356.58 612.299 356.818 612.812 357.294C613.335 357.761 613.596 358.475 613.596 359.436V364H612.644ZM610.11 364.07C609.56 364.07 609.079 363.981 608.668 363.804C608.267 363.617 607.959 363.365 607.744 363.048C607.53 362.721 607.422 362.348 607.422 361.928C607.422 361.545 607.511 361.2 607.688 360.892C607.875 360.575 608.174 360.323 608.584 360.136C609.004 359.94 609.564 359.842 610.264 359.842H612.798V360.584H610.292C609.583 360.584 609.088 360.71 608.808 360.962C608.538 361.214 608.402 361.527 608.402 361.9C608.402 362.32 608.566 362.656 608.892 362.908C609.219 363.16 609.676 363.286 610.264 363.286C610.824 363.286 611.305 363.16 611.706 362.908C612.117 362.647 612.416 362.273 612.602 361.788L612.826 362.474C612.64 362.959 612.313 363.347 611.846 363.636C611.389 363.925 610.81 364.07 610.11 364.07ZM620.09 364.07C619.455 364.07 618.881 363.925 618.368 363.636C617.855 363.337 617.444 362.913 617.136 362.362C616.837 361.802 616.688 361.121 616.688 360.318C616.688 359.515 616.837 358.839 617.136 358.288C617.435 357.728 617.841 357.303 618.354 357.014C618.867 356.725 619.446 356.58 620.09 356.58C620.79 356.58 621.415 356.739 621.966 357.056C622.526 357.364 622.965 357.803 623.282 358.372C623.599 358.932 623.758 359.581 623.758 360.318C623.758 361.065 623.599 361.718 623.282 362.278C622.965 362.838 622.526 363.277 621.966 363.594C621.415 363.911 620.79 364.07 620.09 364.07ZM616.296 366.716V356.65H617.248V358.862L617.15 360.332L617.29 361.816V366.716H616.296ZM620.02 363.188C620.543 363.188 621.009 363.071 621.42 362.838C621.831 362.595 622.157 362.259 622.4 361.83C622.643 361.391 622.764 360.887 622.764 360.318C622.764 359.749 622.643 359.249 622.4 358.82C622.157 358.391 621.831 358.055 621.42 357.812C621.009 357.569 620.543 357.448 620.02 357.448C619.497 357.448 619.026 357.569 618.606 357.812C618.195 358.055 617.869 358.391 617.626 358.82C617.393 359.249 617.276 359.749 617.276 360.318C617.276 360.887 617.393 361.391 617.626 361.83C617.869 362.259 618.195 362.595 618.606 362.838C619.026 363.071 619.497 363.188 620.02 363.188ZM625.784 364V356.65H626.736V358.652L626.638 358.302C626.844 357.742 627.189 357.317 627.674 357.028C628.16 356.729 628.762 356.58 629.48 356.58V357.546C629.443 357.546 629.406 357.546 629.368 357.546C629.331 357.537 629.294 357.532 629.256 357.532C628.482 357.532 627.875 357.77 627.436 358.246C626.998 358.713 626.778 359.38 626.778 360.248V364H625.784ZM631.294 364V356.65H632.288V364H631.294ZM631.798 355.026C631.593 355.026 631.42 354.956 631.28 354.816C631.14 354.676 631.07 354.508 631.07 354.312C631.07 354.116 631.14 353.953 631.28 353.822C631.42 353.682 631.593 353.612 631.798 353.612C632.004 353.612 632.176 353.677 632.316 353.808C632.456 353.939 632.526 354.102 632.526 354.298C632.526 354.503 632.456 354.676 632.316 354.816C632.186 354.956 632.013 355.026 631.798 355.026ZM635.054 364V353.612H636.048V364H635.054ZM641.936 364.07C641.17 364.07 640.498 363.911 639.92 363.594C639.341 363.267 638.888 362.824 638.562 362.264C638.235 361.695 638.072 361.046 638.072 360.318C638.072 359.59 638.226 358.946 638.534 358.386C638.851 357.826 639.28 357.387 639.822 357.07C640.372 356.743 640.988 356.58 641.67 356.58C642.36 356.58 642.972 356.739 643.504 357.056C644.045 357.364 644.47 357.803 644.778 358.372C645.086 358.932 645.24 359.581 645.24 360.318C645.24 360.365 645.235 360.416 645.226 360.472C645.226 360.519 645.226 360.57 645.226 360.626H638.828V359.884H644.694L644.302 360.178C644.302 359.646 644.185 359.175 643.952 358.764C643.728 358.344 643.42 358.017 643.028 357.784C642.636 357.551 642.183 357.434 641.67 357.434C641.166 357.434 640.713 357.551 640.312 357.784C639.91 358.017 639.598 358.344 639.374 358.764C639.15 359.184 639.038 359.665 639.038 360.206V360.36C639.038 360.92 639.159 361.415 639.402 361.844C639.654 362.264 639.999 362.595 640.438 362.838C640.886 363.071 641.394 363.188 641.964 363.188C642.412 363.188 642.827 363.109 643.21 362.95C643.602 362.791 643.938 362.549 644.218 362.222L644.778 362.866C644.451 363.258 644.04 363.557 643.546 363.762C643.06 363.967 642.524 364.07 641.936 364.07Z" fill="#313131"/>
</svg>
