<svg width="942" height="370" viewBox="0 0 942 370" fill="none" xmlns="http://www.w3.org/2000/svg">
<rect x="902" y="344" width="20" height="320" transform="rotate(180 902 344)" fill="#BC0051"/>
<rect x="874" y="344" width="20" height="266" transform="rotate(180 874 344)" fill="#214B33"/>
<rect x="846" y="344" width="20" height="254" transform="rotate(180 846 344)" fill="#A2C33D" fill-opacity="0.4"/>
<rect x="818" y="344" width="20" height="248" transform="rotate(180 818 344)" fill="#A2C33D" fill-opacity="0.4"/>
<rect x="790" y="344" width="20" height="240" transform="rotate(180 790 344)" fill="#A2C33D" fill-opacity="0.4"/>
<rect x="762" y="344" width="20" height="226" transform="rotate(180 762 344)" fill="#A2C33D" fill-opacity="0.4"/>
<rect x="734" y="344" width="20" height="220" transform="rotate(180 734 344)" fill="#A2C33D" fill-opacity="0.4"/>
<rect x="706" y="344" width="20" height="200" transform="rotate(180 706 344)" fill="#A2C33D" fill-opacity="0.4"/>
<rect x="678" y="344" width="20" height="196" transform="rotate(180 678 344)" fill="#A2C33D" fill-opacity="0.4"/>
<rect x="650" y="344" width="20" height="184" transform="rotate(180 650 344)" fill="#A2C33D" fill-opacity="0.4"/>
<rect x="622" y="344" width="20" height="184" transform="rotate(180 622 344)" fill="#A2C33D" fill-opacity="0.4"/>
<rect x="594" y="344" width="20" height="176" transform="rotate(180 594 344)" fill="#A2C33D" fill-opacity="0.4"/>
<rect x="566" y="344" width="20" height="172" transform="rotate(180 566 344)" fill="#A2C33D" fill-opacity="0.4"/>
<rect x="538" y="344" width="20" height="172" transform="rotate(180 538 344)" fill="#A2C33D" fill-opacity="0.4"/>
<rect x="510" y="344" width="20" height="152" transform="rotate(180 510 344)" fill="#A2C33D" fill-opacity="0.4"/>
<rect x="482" y="344" width="20" height="144" transform="rotate(180 482 344)" fill="#A2C33D" fill-opacity="0.4"/>
<rect x="454" y="344" width="20" height="140" transform="rotate(180 454 344)" fill="#A2C33D" fill-opacity="0.4"/>
<rect x="426" y="344" width="20" height="126" transform="rotate(180 426 344)" fill="#A2C33D" fill-opacity="0.4"/>
<rect x="398" y="344" width="20" height="120" transform="rotate(180 398 344)" fill="#A2C33D" fill-opacity="0.4"/>
<rect x="370" y="344" width="20" height="100" transform="rotate(180 370 344)" fill="#A2C33D"/>
<path d="M360 79V243.5" stroke="#A2C33D" stroke-width="20" stroke-dasharray="10 10"/>
<path d="M7.852 245.084C7.11467 245.084 6.43333 244.963 5.808 244.72C5.18267 244.468 4.64133 244.118 4.184 243.67C3.72667 243.222 3.36733 242.695 3.106 242.088C2.854 241.481 2.728 240.819 2.728 240.1C2.728 239.381 2.854 238.719 3.106 238.112C3.36733 237.505 3.72667 236.978 4.184 236.53C4.65067 236.082 5.19667 235.737 5.822 235.494C6.44733 235.242 7.12867 235.116 7.866 235.116C8.57533 235.116 9.24267 235.237 9.868 235.48C10.4933 235.713 11.0207 236.068 11.45 236.544L10.792 237.202C10.3907 236.791 9.94733 236.497 9.462 236.32C8.97667 236.133 8.454 236.04 7.894 236.04C7.306 236.04 6.76 236.143 6.256 236.348C5.752 236.544 5.31333 236.829 4.94 237.202C4.56667 237.566 4.27267 237.995 4.058 238.49C3.85267 238.975 3.75 239.512 3.75 240.1C3.75 240.688 3.85267 241.229 4.058 241.724C4.27267 242.209 4.56667 242.639 4.94 243.012C5.31333 243.376 5.752 243.661 6.256 243.866C6.76 244.062 7.306 244.16 7.894 244.16C8.454 244.16 8.97667 244.067 9.462 243.88C9.94733 243.693 10.3907 243.395 10.792 242.984L11.45 243.642C11.0207 244.118 10.4933 244.477 9.868 244.72C9.24267 244.963 8.57067 245.084 7.852 245.084ZM16.1164 245.07C15.407 245.07 14.7677 244.911 14.1984 244.594C13.6384 244.267 13.195 243.824 12.8684 243.264C12.5417 242.695 12.3784 242.046 12.3784 241.318C12.3784 240.581 12.5417 239.932 12.8684 239.372C13.195 238.812 13.6384 238.373 14.1984 238.056C14.7584 237.739 15.3977 237.58 16.1164 237.58C16.8444 237.58 17.4884 237.739 18.0484 238.056C18.6177 238.373 19.061 238.812 19.3784 239.372C19.705 239.932 19.8684 240.581 19.8684 241.318C19.8684 242.046 19.705 242.695 19.3784 243.264C19.061 243.824 18.6177 244.267 18.0484 244.594C17.479 244.911 16.835 245.07 16.1164 245.07ZM16.1164 244.188C16.6484 244.188 17.1197 244.071 17.5304 243.838C17.941 243.595 18.263 243.259 18.4964 242.83C18.739 242.391 18.8604 241.887 18.8604 241.318C18.8604 240.739 18.739 240.235 18.4964 239.806C18.263 239.377 17.941 239.045 17.5304 238.812C17.1197 238.569 16.653 238.448 16.1304 238.448C15.6077 238.448 15.141 238.569 14.7304 238.812C14.3197 239.045 13.993 239.377 13.7504 239.806C13.5077 240.235 13.3864 240.739 13.3864 241.318C13.3864 241.887 13.5077 242.391 13.7504 242.83C13.993 243.259 14.3197 243.595 14.7304 243.838C15.141 244.071 15.603 244.188 16.1164 244.188ZM31.0817 237.58C31.6791 237.58 32.1971 237.697 32.6357 237.93C33.0837 238.154 33.4291 238.499 33.6717 238.966C33.9237 239.433 34.0497 240.021 34.0497 240.73V245H33.0557V240.828C33.0557 240.053 32.8691 239.47 32.4957 239.078C32.1317 238.677 31.6137 238.476 30.9417 238.476C30.4377 238.476 29.9991 238.583 29.6257 238.798C29.2617 239.003 28.9771 239.307 28.7717 239.708C28.5757 240.1 28.4777 240.576 28.4777 241.136V245H27.4837V240.828C27.4837 240.053 27.2971 239.47 26.9237 239.078C26.5504 238.677 26.0277 238.476 25.3557 238.476C24.8611 238.476 24.4271 238.583 24.0537 238.798C23.6804 239.003 23.3911 239.307 23.1857 239.708C22.9897 240.1 22.8917 240.576 22.8917 241.136V245H21.8977V237.65H22.8497V239.638L22.6957 239.288C22.9197 238.756 23.2791 238.341 23.7737 238.042C24.2777 237.734 24.8704 237.58 25.5517 237.58C26.2704 237.58 26.8817 237.762 27.3857 238.126C27.8897 238.481 28.2164 239.017 28.3657 239.736L27.9737 239.582C28.1884 238.985 28.5664 238.504 29.1077 238.14C29.6584 237.767 30.3164 237.58 31.0817 237.58ZM40.5394 245.07C39.9047 245.07 39.3307 244.925 38.8174 244.636C38.304 244.337 37.8934 243.913 37.5854 243.362C37.2867 242.802 37.1374 242.121 37.1374 241.318C37.1374 240.515 37.2867 239.839 37.5854 239.288C37.884 238.728 38.29 238.303 38.8034 238.014C39.3167 237.725 39.8954 237.58 40.5394 237.58C41.2394 237.58 41.8647 237.739 42.4154 238.056C42.9754 238.364 43.414 238.803 43.7314 239.372C44.0487 239.932 44.2074 240.581 44.2074 241.318C44.2074 242.065 44.0487 242.718 43.7314 243.278C43.414 243.838 42.9754 244.277 42.4154 244.594C41.8647 244.911 41.2394 245.07 40.5394 245.07ZM36.7454 247.716V237.65H37.6974V239.862L37.5994 241.332L37.7394 242.816V247.716H36.7454ZM40.4694 244.188C40.992 244.188 41.4587 244.071 41.8694 243.838C42.28 243.595 42.6067 243.259 42.8494 242.83C43.092 242.391 43.2134 241.887 43.2134 241.318C43.2134 240.749 43.092 240.249 42.8494 239.82C42.6067 239.391 42.28 239.055 41.8694 238.812C41.4587 238.569 40.992 238.448 40.4694 238.448C39.9467 238.448 39.4754 238.569 39.0554 238.812C38.6447 239.055 38.318 239.391 38.0754 239.82C37.842 240.249 37.7254 240.749 37.7254 241.318C37.7254 241.887 37.842 242.391 38.0754 242.83C38.318 243.259 38.6447 243.595 39.0554 243.838C39.4754 244.071 39.9467 244.188 40.4694 244.188ZM46.2337 245V237.65H47.1857V239.652L47.0877 239.302C47.293 238.742 47.6383 238.317 48.1237 238.028C48.609 237.729 49.211 237.58 49.9297 237.58V238.546C49.8923 238.546 49.855 238.546 49.8177 238.546C49.7803 238.537 49.743 238.532 49.7057 238.532C48.931 238.532 48.3243 238.77 47.8857 239.246C47.447 239.713 47.2277 240.38 47.2277 241.248V245H46.2337ZM55.8025 245V243.376L55.7605 243.11V240.394C55.7605 239.769 55.5832 239.288 55.2285 238.952C54.8832 238.616 54.3652 238.448 53.6745 238.448C53.1985 238.448 52.7459 238.527 52.3165 238.686C51.8872 238.845 51.5232 239.055 51.2245 239.316L50.7765 238.574C51.1499 238.257 51.5979 238.014 52.1205 237.846C52.6432 237.669 53.1939 237.58 53.7725 237.58C54.7245 237.58 55.4572 237.818 55.9705 238.294C56.4932 238.761 56.7545 239.475 56.7545 240.436V245H55.8025ZM53.2685 245.07C52.7179 245.07 52.2372 244.981 51.8265 244.804C51.4252 244.617 51.1172 244.365 50.9025 244.048C50.6879 243.721 50.5805 243.348 50.5805 242.928C50.5805 242.545 50.6692 242.2 50.8465 241.892C51.0332 241.575 51.3319 241.323 51.7425 241.136C52.1625 240.94 52.7225 240.842 53.4225 240.842H55.9565V241.584H53.4505C52.7412 241.584 52.2465 241.71 51.9665 241.962C51.6959 242.214 51.5605 242.527 51.5605 242.9C51.5605 243.32 51.7239 243.656 52.0505 243.908C52.3772 244.16 52.8345 244.286 53.4225 244.286C53.9825 244.286 54.4632 244.16 54.8645 243.908C55.2752 243.647 55.5739 243.273 55.7605 242.788L55.9845 243.474C55.7979 243.959 55.4712 244.347 55.0045 244.636C54.5472 244.925 53.9685 245.07 53.2685 245.07ZM61.4284 245.07C60.8217 245.07 60.2477 244.986 59.7064 244.818C59.165 244.641 58.7404 244.421 58.4324 244.16L58.8804 243.376C59.179 243.6 59.5617 243.796 60.0284 243.964C60.495 244.123 60.985 244.202 61.4984 244.202C62.1984 244.202 62.7024 244.095 63.0104 243.88C63.3184 243.656 63.4724 243.362 63.4724 242.998C63.4724 242.727 63.3837 242.517 63.2064 242.368C63.0384 242.209 62.8144 242.093 62.5344 242.018C62.2544 241.934 61.9417 241.864 61.5964 241.808C61.251 241.752 60.9057 241.687 60.5604 241.612C60.2244 241.537 59.9164 241.43 59.6364 241.29C59.3564 241.141 59.1277 240.94 58.9504 240.688C58.7824 240.436 58.6984 240.1 58.6984 239.68C58.6984 239.279 58.8104 238.919 59.0344 238.602C59.2584 238.285 59.585 238.037 60.0144 237.86C60.453 237.673 60.985 237.58 61.6104 237.58C62.0864 237.58 62.5624 237.645 63.0384 237.776C63.5144 237.897 63.9064 238.061 64.2144 238.266L63.7804 239.064C63.4537 238.84 63.1037 238.681 62.7304 238.588C62.357 238.485 61.9837 238.434 61.6104 238.434C60.9477 238.434 60.4577 238.551 60.1404 238.784C59.8324 239.008 59.6784 239.297 59.6784 239.652C59.6784 239.932 59.7624 240.151 59.9304 240.31C60.1077 240.469 60.3364 240.595 60.6164 240.688C60.9057 240.772 61.2184 240.842 61.5544 240.898C61.8997 240.954 62.2404 241.024 62.5764 241.108C62.9217 241.183 63.2344 241.29 63.5144 241.43C63.8037 241.561 64.0324 241.752 64.2004 242.004C64.3777 242.247 64.4664 242.569 64.4664 242.97C64.4664 243.399 64.345 243.773 64.1024 244.09C63.869 244.398 63.5237 244.641 63.0664 244.818C62.6184 244.986 62.0724 245.07 61.4284 245.07ZM70.1224 245V236.726C70.1224 236.073 70.3137 235.545 70.6964 235.144C71.079 234.743 71.6297 234.542 72.3484 234.542C72.6284 234.542 72.899 234.579 73.1604 234.654C73.4217 234.729 73.641 234.845 73.8184 235.004L73.4824 235.746C73.3424 235.625 73.179 235.536 72.9924 235.48C72.8057 235.415 72.605 235.382 72.3904 235.382C71.9704 235.382 71.6484 235.499 71.4244 235.732C71.2004 235.965 71.0884 236.311 71.0884 236.768V237.888L71.1164 238.35V245H70.1224ZM68.8064 238.476V237.65H73.3564V238.476H68.8064ZM77.7365 245.07C77.1112 245.07 76.5652 244.953 76.0985 244.72C75.6318 244.487 75.2678 244.137 75.0065 243.67C74.7545 243.203 74.6285 242.62 74.6285 241.92V237.65H75.6225V241.808C75.6225 242.592 75.8138 243.185 76.1965 243.586C76.5885 243.978 77.1345 244.174 77.8345 244.174C78.3478 244.174 78.7912 244.071 79.1645 243.866C79.5472 243.651 79.8365 243.343 80.0325 242.942C80.2378 242.541 80.3405 242.06 80.3405 241.5V237.65H81.3345V245H80.3825V242.984L80.5365 243.348C80.3032 243.889 79.9392 244.314 79.4445 244.622C78.9592 244.921 78.3898 245.07 77.7365 245.07ZM86.4288 245.07C85.7381 245.07 85.2061 244.883 84.8328 244.51C84.4594 244.137 84.2728 243.609 84.2728 242.928V236.026H85.2668V242.872C85.2668 243.301 85.3741 243.633 85.5888 243.866C85.8128 244.099 86.1301 244.216 86.5408 244.216C86.9794 244.216 87.3434 244.09 87.6328 243.838L87.9828 244.552C87.7868 244.729 87.5488 244.86 87.2688 244.944C86.9981 245.028 86.7181 245.07 86.4288 245.07ZM82.9568 238.476V237.65H87.5068V238.476H82.9568ZM92.8303 245.07C92.2049 245.07 91.6589 244.953 91.1923 244.72C90.7256 244.487 90.3616 244.137 90.1003 243.67C89.8483 243.203 89.7223 242.62 89.7223 241.92V237.65H90.7163V241.808C90.7163 242.592 90.9076 243.185 91.2903 243.586C91.6823 243.978 92.2283 244.174 92.9283 244.174C93.4416 244.174 93.8849 244.071 94.2583 243.866C94.6409 243.651 94.9303 243.343 95.1263 242.942C95.3316 242.541 95.4343 242.06 95.4343 241.5V237.65H96.4283V245H95.4762V242.984L95.6303 243.348C95.3969 243.889 95.0329 244.314 94.5383 244.622C94.0529 244.921 93.4836 245.07 92.8303 245.07ZM99.1985 245V237.65H100.151V239.652L100.053 239.302C100.258 238.742 100.603 238.317 101.089 238.028C101.574 237.729 102.176 237.58 102.895 237.58V238.546C102.857 238.546 102.82 238.546 102.783 238.546C102.745 238.537 102.708 238.532 102.671 238.532C101.896 238.532 101.289 238.77 100.851 239.246C100.412 239.713 100.193 240.38 100.193 241.248V245H99.1985ZM107.636 245.07C106.927 245.07 106.287 244.911 105.718 244.594C105.158 244.267 104.715 243.824 104.388 243.264C104.061 242.695 103.898 242.046 103.898 241.318C103.898 240.581 104.061 239.932 104.388 239.372C104.715 238.812 105.158 238.373 105.718 238.056C106.278 237.739 106.917 237.58 107.636 237.58C108.364 237.58 109.008 237.739 109.568 238.056C110.137 238.373 110.581 238.812 110.898 239.372C111.225 239.932 111.388 240.581 111.388 241.318C111.388 242.046 111.225 242.695 110.898 243.264C110.581 243.824 110.137 244.267 109.568 244.594C108.999 244.911 108.355 245.07 107.636 245.07ZM107.636 244.188C108.168 244.188 108.639 244.071 109.05 243.838C109.461 243.595 109.783 243.259 110.016 242.83C110.259 242.391 110.38 241.887 110.38 241.318C110.38 240.739 110.259 240.235 110.016 239.806C109.783 239.377 109.461 239.045 109.05 238.812C108.639 238.569 108.173 238.448 107.65 238.448C107.127 238.448 106.661 238.569 106.25 238.812C105.839 239.045 105.513 239.377 105.27 239.806C105.027 240.235 104.906 240.739 104.906 241.318C104.906 241.887 105.027 242.391 105.27 242.83C105.513 243.259 105.839 243.595 106.25 243.838C106.661 244.071 107.123 244.188 107.636 244.188ZM115.391 245.07C114.785 245.07 114.211 244.986 113.669 244.818C113.128 244.641 112.703 244.421 112.395 244.16L112.843 243.376C113.142 243.6 113.525 243.796 113.991 243.964C114.458 244.123 114.948 244.202 115.461 244.202C116.161 244.202 116.665 244.095 116.973 243.88C117.281 243.656 117.435 243.362 117.435 242.998C117.435 242.727 117.347 242.517 117.169 242.368C117.001 242.209 116.777 242.093 116.497 242.018C116.217 241.934 115.905 241.864 115.559 241.808C115.214 241.752 114.869 241.687 114.523 241.612C114.187 241.537 113.879 241.43 113.599 241.29C113.319 241.141 113.091 240.94 112.913 240.688C112.745 240.436 112.661 240.1 112.661 239.68C112.661 239.279 112.773 238.919 112.997 238.602C113.221 238.285 113.548 238.037 113.977 237.86C114.416 237.673 114.948 237.58 115.573 237.58C116.049 237.58 116.525 237.645 117.001 237.776C117.477 237.897 117.869 238.061 118.177 238.266L117.743 239.064C117.417 238.84 117.067 238.681 116.693 238.588C116.32 238.485 115.947 238.434 115.573 238.434C114.911 238.434 114.421 238.551 114.103 238.784C113.795 239.008 113.641 239.297 113.641 239.652C113.641 239.932 113.725 240.151 113.893 240.31C114.071 240.469 114.299 240.595 114.579 240.688C114.869 240.772 115.181 240.842 115.517 240.898C115.863 240.954 116.203 241.024 116.539 241.108C116.885 241.183 117.197 241.29 117.477 241.43C117.767 241.561 117.995 241.752 118.163 242.004C118.341 242.247 118.429 242.569 118.429 242.97C118.429 243.399 118.308 243.773 118.065 244.09C117.832 244.398 117.487 244.641 117.029 244.818C116.581 244.986 116.035 245.07 115.391 245.07ZM128.523 245V243.376L128.481 243.11V240.394C128.481 239.769 128.304 239.288 127.949 238.952C127.604 238.616 127.086 238.448 126.395 238.448C125.919 238.448 125.467 238.527 125.037 238.686C124.608 238.845 124.244 239.055 123.945 239.316L123.497 238.574C123.871 238.257 124.319 238.014 124.841 237.846C125.364 237.669 125.915 237.58 126.493 237.58C127.445 237.58 128.178 237.818 128.691 238.294C129.214 238.761 129.475 239.475 129.475 240.436V245H128.523ZM125.989 245.07C125.439 245.07 124.958 244.981 124.547 244.804C124.146 244.617 123.838 244.365 123.623 244.048C123.409 243.721 123.301 243.348 123.301 242.928C123.301 242.545 123.39 242.2 123.567 241.892C123.754 241.575 124.053 241.323 124.463 241.136C124.883 240.94 125.443 240.842 126.143 240.842H128.677V241.584H126.171C125.462 241.584 124.967 241.71 124.687 241.962C124.417 242.214 124.281 242.527 124.281 242.9C124.281 243.32 124.445 243.656 124.771 243.908C125.098 244.16 125.555 244.286 126.143 244.286C126.703 244.286 127.184 244.16 127.585 243.908C127.996 243.647 128.295 243.273 128.481 242.788L128.705 243.474C128.519 243.959 128.192 244.347 127.725 244.636C127.268 244.925 126.689 245.07 125.989 245.07ZM138.961 245.07C138.196 245.07 137.524 244.911 136.945 244.594C136.366 244.267 135.914 243.824 135.587 243.264C135.26 242.695 135.097 242.046 135.097 241.318C135.097 240.59 135.251 239.946 135.559 239.386C135.876 238.826 136.306 238.387 136.847 238.07C137.398 237.743 138.014 237.58 138.695 237.58C139.386 237.58 139.997 237.739 140.529 238.056C141.07 238.364 141.495 238.803 141.803 239.372C142.111 239.932 142.265 240.581 142.265 241.318C142.265 241.365 142.26 241.416 142.251 241.472C142.251 241.519 142.251 241.57 142.251 241.626H135.853V240.884H141.719L141.327 241.178C141.327 240.646 141.21 240.175 140.977 239.764C140.753 239.344 140.445 239.017 140.053 238.784C139.661 238.551 139.208 238.434 138.695 238.434C138.191 238.434 137.738 238.551 137.337 238.784C136.936 239.017 136.623 239.344 136.399 239.764C136.175 240.184 136.063 240.665 136.063 241.206V241.36C136.063 241.92 136.184 242.415 136.427 242.844C136.679 243.264 137.024 243.595 137.463 243.838C137.911 244.071 138.42 244.188 138.989 244.188C139.437 244.188 139.852 244.109 140.235 243.95C140.627 243.791 140.963 243.549 141.243 243.222L141.803 243.866C141.476 244.258 141.066 244.557 140.571 244.762C140.086 244.967 139.549 245.07 138.961 245.07ZM146.262 245.07C145.656 245.07 145.082 244.986 144.54 244.818C143.999 244.641 143.574 244.421 143.266 244.16L143.714 243.376C144.013 243.6 144.396 243.796 144.862 243.964C145.329 244.123 145.819 244.202 146.332 244.202C147.032 244.202 147.536 244.095 147.844 243.88C148.152 243.656 148.306 243.362 148.306 242.998C148.306 242.727 148.218 242.517 148.04 242.368C147.872 242.209 147.648 242.093 147.368 242.018C147.088 241.934 146.776 241.864 146.43 241.808C146.085 241.752 145.74 241.687 145.394 241.612C145.058 241.537 144.75 241.43 144.47 241.29C144.19 241.141 143.962 240.94 143.784 240.688C143.616 240.436 143.532 240.1 143.532 239.68C143.532 239.279 143.644 238.919 143.868 238.602C144.092 238.285 144.419 238.037 144.848 237.86C145.287 237.673 145.819 237.58 146.444 237.58C146.92 237.58 147.396 237.645 147.872 237.776C148.348 237.897 148.74 238.061 149.048 238.266L148.614 239.064C148.288 238.84 147.938 238.681 147.564 238.588C147.191 238.485 146.818 238.434 146.444 238.434C145.782 238.434 145.292 238.551 144.974 238.784C144.666 239.008 144.512 239.297 144.512 239.652C144.512 239.932 144.596 240.151 144.764 240.31C144.942 240.469 145.17 240.595 145.45 240.688C145.74 240.772 146.052 240.842 146.388 240.898C146.734 240.954 147.074 241.024 147.41 241.108C147.756 241.183 148.068 241.29 148.348 241.43C148.638 241.561 148.866 241.752 149.034 242.004C149.212 242.247 149.3 242.569 149.3 242.97C149.3 243.399 149.179 243.773 148.936 244.09C148.703 244.398 148.358 244.641 147.9 244.818C147.452 244.986 146.906 245.07 146.262 245.07ZM153.448 245.07C152.758 245.07 152.226 244.883 151.852 244.51C151.479 244.137 151.292 243.609 151.292 242.928V236.026H152.286V242.872C152.286 243.301 152.394 243.633 152.608 243.866C152.832 244.099 153.15 244.216 153.56 244.216C153.999 244.216 154.363 244.09 154.652 243.838L155.002 244.552C154.806 244.729 154.568 244.86 154.288 244.944C154.018 245.028 153.738 245.07 153.448 245.07ZM149.976 238.476V237.65H154.526V238.476H149.976ZM159.674 245.07C158.909 245.07 158.237 244.911 157.658 244.594C157.079 244.267 156.627 243.824 156.3 243.264C155.973 242.695 155.81 242.046 155.81 241.318C155.81 240.59 155.964 239.946 156.272 239.386C156.589 238.826 157.019 238.387 157.56 238.07C158.111 237.743 158.727 237.58 159.408 237.58C160.099 237.58 160.71 237.739 161.242 238.056C161.783 238.364 162.208 238.803 162.516 239.372C162.824 239.932 162.978 240.581 162.978 241.318C162.978 241.365 162.973 241.416 162.964 241.472C162.964 241.519 162.964 241.57 162.964 241.626H156.566V240.884H162.432L162.04 241.178C162.04 240.646 161.923 240.175 161.69 239.764C161.466 239.344 161.158 239.017 160.766 238.784C160.374 238.551 159.921 238.434 159.408 238.434C158.904 238.434 158.451 238.551 158.05 238.784C157.649 239.017 157.336 239.344 157.112 239.764C156.888 240.184 156.776 240.665 156.776 241.206V241.36C156.776 241.92 156.897 242.415 157.14 242.844C157.392 243.264 157.737 243.595 158.176 243.838C158.624 244.071 159.133 244.188 159.702 244.188C160.15 244.188 160.565 244.109 160.948 243.95C161.34 243.791 161.676 243.549 161.956 243.222L162.516 243.866C162.189 244.258 161.779 244.557 161.284 244.762C160.799 244.967 160.262 245.07 159.674 245.07ZM172.459 245.07C171.825 245.07 171.251 244.925 170.737 244.636C170.224 244.337 169.813 243.913 169.505 243.362C169.207 242.802 169.057 242.121 169.057 241.318C169.057 240.515 169.207 239.839 169.505 239.288C169.804 238.728 170.21 238.303 170.723 238.014C171.237 237.725 171.815 237.58 172.459 237.58C173.159 237.58 173.785 237.739 174.335 238.056C174.895 238.364 175.334 238.803 175.651 239.372C175.969 239.932 176.127 240.581 176.127 241.318C176.127 242.065 175.969 242.718 175.651 243.278C175.334 243.838 174.895 244.277 174.335 244.594C173.785 244.911 173.159 245.07 172.459 245.07ZM168.665 247.716V237.65H169.617V239.862L169.519 241.332L169.659 242.816V247.716H168.665ZM172.389 244.188C172.912 244.188 173.379 244.071 173.789 243.838C174.2 243.595 174.527 243.259 174.769 242.83C175.012 242.391 175.133 241.887 175.133 241.318C175.133 240.749 175.012 240.249 174.769 239.82C174.527 239.391 174.2 239.055 173.789 238.812C173.379 238.569 172.912 238.448 172.389 238.448C171.867 238.448 171.395 238.569 170.975 238.812C170.565 239.055 170.238 239.391 169.995 239.82C169.762 240.249 169.645 240.749 169.645 241.318C169.645 241.887 169.762 242.391 169.995 242.83C170.238 243.259 170.565 243.595 170.975 243.838C171.395 244.071 171.867 244.188 172.389 244.188ZM178.154 245V237.65H179.106V239.652L179.008 239.302C179.213 238.742 179.558 238.317 180.044 238.028C180.529 237.729 181.131 237.58 181.85 237.58V238.546C181.812 238.546 181.775 238.546 181.738 238.546C181.7 238.537 181.663 238.532 181.626 238.532C180.851 238.532 180.244 238.77 179.806 239.246C179.367 239.713 179.148 240.38 179.148 241.248V245H178.154ZM186.717 245.07C185.952 245.07 185.28 244.911 184.701 244.594C184.122 244.267 183.67 243.824 183.343 243.264C183.016 242.695 182.853 242.046 182.853 241.318C182.853 240.59 183.007 239.946 183.315 239.386C183.632 238.826 184.062 238.387 184.603 238.07C185.154 237.743 185.77 237.58 186.451 237.58C187.142 237.58 187.753 237.739 188.285 238.056C188.826 238.364 189.251 238.803 189.559 239.372C189.867 239.932 190.021 240.581 190.021 241.318C190.021 241.365 190.016 241.416 190.007 241.472C190.007 241.519 190.007 241.57 190.007 241.626H183.609V240.884H189.475L189.083 241.178C189.083 240.646 188.966 240.175 188.733 239.764C188.509 239.344 188.201 239.017 187.809 238.784C187.417 238.551 186.964 238.434 186.451 238.434C185.947 238.434 185.494 238.551 185.093 238.784C184.692 239.017 184.379 239.344 184.155 239.764C183.931 240.184 183.819 240.665 183.819 241.206V241.36C183.819 241.92 183.94 242.415 184.183 242.844C184.435 243.264 184.78 243.595 185.219 243.838C185.667 244.071 186.176 244.188 186.745 244.188C187.193 244.188 187.608 244.109 187.991 243.95C188.383 243.791 188.719 243.549 188.999 243.222L189.559 243.866C189.232 244.258 188.822 244.557 188.327 244.762C187.842 244.967 187.305 245.07 186.717 245.07ZM195.096 245.07C194.368 245.07 193.715 244.911 193.136 244.594C192.567 244.267 192.119 243.824 191.792 243.264C191.466 242.695 191.302 242.046 191.302 241.318C191.302 240.581 191.466 239.932 191.792 239.372C192.119 238.812 192.567 238.373 193.136 238.056C193.715 237.739 194.368 237.58 195.096 237.58C195.722 237.58 196.286 237.701 196.79 237.944C197.294 238.187 197.691 238.551 197.98 239.036L197.238 239.54C196.986 239.167 196.674 238.891 196.3 238.714C195.927 238.537 195.521 238.448 195.082 238.448C194.56 238.448 194.088 238.569 193.668 238.812C193.248 239.045 192.917 239.377 192.674 239.806C192.432 240.235 192.31 240.739 192.31 241.318C192.31 241.897 192.432 242.401 192.674 242.83C192.917 243.259 193.248 243.595 193.668 243.838C194.088 244.071 194.56 244.188 195.082 244.188C195.521 244.188 195.927 244.099 196.3 243.922C196.674 243.745 196.986 243.474 197.238 243.11L197.98 243.614C197.691 244.09 197.294 244.454 196.79 244.706C196.286 244.949 195.722 245.07 195.096 245.07ZM199.824 245V237.65H200.818V245H199.824ZM200.328 236.026C200.122 236.026 199.95 235.956 199.81 235.816C199.67 235.676 199.6 235.508 199.6 235.312C199.6 235.116 199.67 234.953 199.81 234.822C199.95 234.682 200.122 234.612 200.328 234.612C200.533 234.612 200.706 234.677 200.846 234.808C200.986 234.939 201.056 235.102 201.056 235.298C201.056 235.503 200.986 235.676 200.846 235.816C200.715 235.956 200.542 236.026 200.328 236.026ZM206.579 245.07C205.87 245.07 205.231 244.911 204.661 244.594C204.101 244.267 203.658 243.824 203.331 243.264C203.005 242.695 202.841 242.046 202.841 241.318C202.841 240.581 203.005 239.932 203.331 239.372C203.658 238.812 204.101 238.373 204.661 238.056C205.221 237.739 205.861 237.58 206.579 237.58C207.307 237.58 207.951 237.739 208.511 238.056C209.081 238.373 209.524 238.812 209.841 239.372C210.168 239.932 210.331 240.581 210.331 241.318C210.331 242.046 210.168 242.695 209.841 243.264C209.524 243.824 209.081 244.267 208.511 244.594C207.942 244.911 207.298 245.07 206.579 245.07ZM206.579 244.188C207.111 244.188 207.583 244.071 207.993 243.838C208.404 243.595 208.726 243.259 208.959 242.83C209.202 242.391 209.323 241.887 209.323 241.318C209.323 240.739 209.202 240.235 208.959 239.806C208.726 239.377 208.404 239.045 207.993 238.812C207.583 238.569 207.116 238.448 206.593 238.448C206.071 238.448 205.604 238.569 205.193 238.812C204.783 239.045 204.456 239.377 204.213 239.806C203.971 240.235 203.849 240.739 203.849 241.318C203.849 241.887 203.971 242.391 204.213 242.83C204.456 243.259 204.783 243.595 205.193 243.838C205.604 244.071 206.066 244.188 206.579 244.188Z" fill="#A2C33D"/>
<path d="M223 244L370 244" stroke="#A2C33D"/>
<path d="M327 76.0001L873.5 78.5102" stroke="#214B33"/>
<path d="M6.418 76L0.91 63.4H3.448L8.362 74.794H6.904L11.872 63.4H14.212L8.722 76H6.418ZM19.1229 76.126C18.0549 76.126 17.1189 75.916 16.3149 75.496C15.5229 75.064 14.9049 74.476 14.4609 73.732C14.0289 72.988 13.8129 72.142 13.8129 71.194C13.8129 70.234 14.0229 69.388 14.4429 68.656C14.8749 67.912 15.4629 67.33 16.2069 66.91C16.9629 66.49 17.8209 66.28 18.7809 66.28C19.7169 66.28 20.5509 66.484 21.2829 66.892C22.0149 67.3 22.5909 67.876 23.0109 68.62C23.4309 69.364 23.6409 70.24 23.6409 71.248C23.6409 71.344 23.6349 71.452 23.6229 71.572C23.6229 71.692 23.6169 71.806 23.6049 71.914H15.5949V70.42H22.4169L21.5349 70.888C21.5469 70.336 21.4329 69.85 21.1929 69.43C20.9529 69.01 20.6229 68.68 20.2029 68.44C19.7949 68.2 19.3209 68.08 18.7809 68.08C18.2289 68.08 17.7429 68.2 17.3229 68.44C16.9149 68.68 16.5909 69.016 16.3509 69.448C16.1229 69.868 16.0089 70.366 16.0089 70.942V71.302C16.0089 71.878 16.1409 72.388 16.4049 72.832C16.6689 73.276 17.0409 73.618 17.5209 73.858C18.0009 74.098 18.5529 74.218 19.1769 74.218C19.7169 74.218 20.2029 74.134 20.6349 73.966C21.0669 73.798 21.4509 73.534 21.7869 73.174L22.9929 74.56C22.5609 75.064 22.0149 75.454 21.3549 75.73C20.7069 75.994 19.9629 76.126 19.1229 76.126ZM31.2562 66.28C32.0242 66.28 32.7082 66.43 33.3082 66.73C33.9202 67.03 34.4002 67.492 34.7482 68.116C35.0962 68.728 35.2702 69.52 35.2702 70.492V76H33.0202V70.78C33.0202 69.928 32.8162 69.292 32.4082 68.872C32.0122 68.452 31.4542 68.242 30.7342 68.242C30.2062 68.242 29.7382 68.35 29.3302 68.566C28.9222 68.782 28.6042 69.106 28.3762 69.538C28.1602 69.958 28.0522 70.492 28.0522 71.14V76H25.8022V66.388H27.9442V68.98L27.5662 68.188C27.9022 67.576 28.3882 67.108 29.0242 66.784C29.6722 66.448 30.4162 66.28 31.2562 66.28ZM42.21 76.126C41.286 76.126 40.452 75.922 39.708 75.514C38.976 75.094 38.4 74.518 37.98 73.786C37.56 73.054 37.35 72.19 37.35 71.194C37.35 70.198 37.56 69.334 37.98 68.602C38.4 67.87 38.976 67.3 39.708 66.892C40.452 66.484 41.286 66.28 42.21 66.28C43.014 66.28 43.734 66.46 44.37 66.82C45.006 67.168 45.51 67.702 45.882 68.422C46.254 69.142 46.44 70.066 46.44 71.194C46.44 72.31 46.26 73.234 45.9 73.966C45.54 74.686 45.042 75.226 44.406 75.586C43.77 75.946 43.038 76.126 42.21 76.126ZM42.48 74.2C43.02 74.2 43.5 74.08 43.92 73.84C44.352 73.6 44.694 73.252 44.946 72.796C45.21 72.34 45.342 71.806 45.342 71.194C45.342 70.57 45.21 70.036 44.946 69.592C44.694 69.136 44.352 68.788 43.92 68.548C43.5 68.308 43.02 68.188 42.48 68.188C41.94 68.188 41.454 68.308 41.022 68.548C40.602 68.788 40.26 69.136 39.996 69.592C39.744 70.036 39.618 70.57 39.618 71.194C39.618 71.806 39.744 72.34 39.996 72.796C40.26 73.252 40.602 73.6 41.022 73.84C41.454 74.08 41.94 74.2 42.48 74.2ZM45.396 76V73.732L45.486 71.176L45.306 68.62V62.644H47.538V76H45.396ZM55.0174 76.126C53.9494 76.126 53.0134 75.916 52.2094 75.496C51.4174 75.064 50.7994 74.476 50.3554 73.732C49.9234 72.988 49.7074 72.142 49.7074 71.194C49.7074 70.234 49.9174 69.388 50.3374 68.656C50.7694 67.912 51.3574 67.33 52.1014 66.91C52.8574 66.49 53.7154 66.28 54.6754 66.28C55.6114 66.28 56.4454 66.484 57.1774 66.892C57.9094 67.3 58.4854 67.876 58.9054 68.62C59.3254 69.364 59.5354 70.24 59.5354 71.248C59.5354 71.344 59.5294 71.452 59.5174 71.572C59.5174 71.692 59.5114 71.806 59.4994 71.914H51.4894V70.42H58.3114L57.4294 70.888C57.4414 70.336 57.3274 69.85 57.0874 69.43C56.8474 69.01 56.5174 68.68 56.0974 68.44C55.6894 68.2 55.2154 68.08 54.6754 68.08C54.1234 68.08 53.6374 68.2 53.2174 68.44C52.8094 68.68 52.4854 69.016 52.2454 69.448C52.0174 69.868 51.9034 70.366 51.9034 70.942V71.302C51.9034 71.878 52.0354 72.388 52.2994 72.832C52.5634 73.276 52.9354 73.618 53.4154 73.858C53.8954 74.098 54.4474 74.218 55.0714 74.218C55.6114 74.218 56.0974 74.134 56.5294 73.966C56.9614 73.798 57.3454 73.534 57.6814 73.174L58.8874 74.56C58.4554 75.064 57.9094 75.454 57.2494 75.73C56.6014 75.994 55.8574 76.126 55.0174 76.126ZM64.6667 76.126C63.8627 76.126 63.0887 76.024 62.3447 75.82C61.6127 75.604 61.0307 75.346 60.5987 75.046L61.4627 73.336C61.8947 73.612 62.4107 73.84 63.0107 74.02C63.6107 74.2 64.2107 74.29 64.8107 74.29C65.5187 74.29 66.0287 74.194 66.3407 74.002C66.6647 73.81 66.8267 73.552 66.8267 73.228C66.8267 72.964 66.7187 72.766 66.5027 72.634C66.2867 72.49 66.0047 72.382 65.6567 72.31C65.3087 72.238 64.9187 72.172 64.4867 72.112C64.0667 72.052 63.6407 71.974 63.2087 71.878C62.7887 71.77 62.4047 71.62 62.0567 71.428C61.7087 71.224 61.4267 70.954 61.2107 70.618C60.9947 70.282 60.8867 69.838 60.8867 69.286C60.8867 68.674 61.0607 68.146 61.4087 67.702C61.7567 67.246 62.2427 66.898 62.8667 66.658C63.5027 66.406 64.2527 66.28 65.1167 66.28C65.7647 66.28 66.4187 66.352 67.0787 66.496C67.7387 66.64 68.2847 66.844 68.7167 67.108L67.8527 68.818C67.3967 68.542 66.9347 68.356 66.4667 68.26C66.0107 68.152 65.5547 68.098 65.0987 68.098C64.4147 68.098 63.9047 68.2 63.5687 68.404C63.2447 68.608 63.0827 68.866 63.0827 69.178C63.0827 69.466 63.1907 69.682 63.4067 69.826C63.6227 69.97 63.9047 70.084 64.2527 70.168C64.6007 70.252 64.9847 70.324 65.4047 70.384C65.8367 70.432 66.2627 70.51 66.6827 70.618C67.1027 70.726 67.4867 70.876 67.8347 71.068C68.1947 71.248 68.4827 71.506 68.6987 71.842C68.9147 72.178 69.0227 72.616 69.0227 73.156C69.0227 73.756 68.8427 74.278 68.4827 74.722C68.1347 75.166 67.6367 75.514 66.9887 75.766C66.3407 76.006 65.5667 76.126 64.6667 76.126ZM76.241 76V65.848C76.241 64.84 76.535 64.036 77.123 63.436C77.723 62.824 78.575 62.518 79.679 62.518C80.075 62.518 80.447 62.56 80.795 62.644C81.155 62.728 81.455 62.86 81.695 63.04L81.083 64.732C80.915 64.6 80.723 64.504 80.507 64.444C80.291 64.372 80.069 64.336 79.841 64.336C79.373 64.336 79.019 64.468 78.779 64.732C78.539 64.984 78.419 65.368 78.419 65.884V66.964L78.491 67.972V76H76.241ZM74.657 68.26V66.46H81.065V68.26H74.657ZM86.6475 76.126C85.8315 76.126 85.1115 75.976 84.4875 75.676C83.8635 75.364 83.3775 74.896 83.0295 74.272C82.6815 73.636 82.5075 72.838 82.5075 71.878V66.388H84.7575V71.572C84.7575 72.436 84.9495 73.084 85.3335 73.516C85.7295 73.936 86.2875 74.146 87.0075 74.146C87.5355 74.146 87.9915 74.038 88.3755 73.822C88.7715 73.606 89.0775 73.282 89.2935 72.85C89.5215 72.418 89.6355 71.884 89.6355 71.248V66.388H91.8855V76H89.7435V73.408L90.1215 74.2C89.7975 74.824 89.3235 75.304 88.6995 75.64C88.0755 75.964 87.3915 76.126 86.6475 76.126ZM98.4495 76.126C97.3935 76.126 96.5775 75.856 96.0015 75.316C95.4255 74.764 95.1375 73.954 95.1375 72.886V64.264H97.3875V72.832C97.3875 73.288 97.5015 73.642 97.7295 73.894C97.9695 74.146 98.2995 74.272 98.7195 74.272C99.2235 74.272 99.6435 74.14 99.9795 73.876L100.609 75.478C100.345 75.694 100.021 75.856 99.6375 75.964C99.2535 76.072 98.8575 76.126 98.4495 76.126ZM93.5535 68.26V66.46H99.9615V68.26H93.5535ZM106.528 76.126C105.712 76.126 104.992 75.976 104.368 75.676C103.744 75.364 103.258 74.896 102.91 74.272C102.562 73.636 102.388 72.838 102.388 71.878V66.388H104.638V71.572C104.638 72.436 104.83 73.084 105.214 73.516C105.61 73.936 106.168 74.146 106.888 74.146C107.416 74.146 107.872 74.038 108.256 73.822C108.652 73.606 108.958 73.282 109.174 72.85C109.402 72.418 109.516 71.884 109.516 71.248V66.388H111.766V76H109.624V73.408L110.002 74.2C109.678 74.824 109.204 75.304 108.58 75.64C107.956 75.964 107.272 76.126 106.528 76.126ZM114.712 76V66.388H116.854V69.034L116.602 68.26C116.89 67.612 117.34 67.12 117.952 66.784C118.576 66.448 119.35 66.28 120.274 66.28V68.422C120.178 68.398 120.088 68.386 120.004 68.386C119.92 68.374 119.836 68.368 119.752 68.368C118.9 68.368 118.222 68.62 117.718 69.124C117.214 69.616 116.962 70.354 116.962 71.338V76H114.712ZM126.415 76.126C125.431 76.126 124.555 75.916 123.787 75.496C123.019 75.064 122.413 74.476 121.969 73.732C121.525 72.988 121.303 72.142 121.303 71.194C121.303 70.234 121.525 69.388 121.969 68.656C122.413 67.912 123.019 67.33 123.787 66.91C124.555 66.49 125.431 66.28 126.415 66.28C127.411 66.28 128.293 66.49 129.061 66.91C129.841 67.33 130.447 67.906 130.879 68.638C131.323 69.37 131.545 70.222 131.545 71.194C131.545 72.142 131.323 72.988 130.879 73.732C130.447 74.476 129.841 75.064 129.061 75.496C128.293 75.916 127.411 76.126 126.415 76.126ZM126.415 74.2C126.967 74.2 127.459 74.08 127.891 73.84C128.323 73.6 128.659 73.252 128.899 72.796C129.151 72.34 129.277 71.806 129.277 71.194C129.277 70.57 129.151 70.036 128.899 69.592C128.659 69.136 128.323 68.788 127.891 68.548C127.459 68.308 126.973 68.188 126.433 68.188C125.881 68.188 125.389 68.308 124.957 68.548C124.537 68.788 124.201 69.136 123.949 69.592C123.697 70.036 123.571 70.57 123.571 71.194C123.571 71.806 123.697 72.34 123.949 72.796C124.201 73.252 124.537 73.6 124.957 73.84C125.389 74.08 125.875 74.2 126.415 74.2ZM136.667 76.126C135.863 76.126 135.089 76.024 134.345 75.82C133.613 75.604 133.031 75.346 132.599 75.046L133.463 73.336C133.895 73.612 134.411 73.84 135.011 74.02C135.611 74.2 136.211 74.29 136.811 74.29C137.519 74.29 138.029 74.194 138.341 74.002C138.665 73.81 138.827 73.552 138.827 73.228C138.827 72.964 138.719 72.766 138.503 72.634C138.287 72.49 138.005 72.382 137.657 72.31C137.309 72.238 136.919 72.172 136.487 72.112C136.067 72.052 135.641 71.974 135.209 71.878C134.789 71.77 134.405 71.62 134.057 71.428C133.709 71.224 133.427 70.954 133.211 70.618C132.995 70.282 132.887 69.838 132.887 69.286C132.887 68.674 133.061 68.146 133.409 67.702C133.757 67.246 134.243 66.898 134.867 66.658C135.503 66.406 136.253 66.28 137.117 66.28C137.765 66.28 138.419 66.352 139.079 66.496C139.739 66.64 140.285 66.844 140.717 67.108L139.853 68.818C139.397 68.542 138.935 68.356 138.467 68.26C138.011 68.152 137.555 68.098 137.099 68.098C136.415 68.098 135.905 68.2 135.569 68.404C135.245 68.608 135.083 68.866 135.083 69.178C135.083 69.466 135.191 69.682 135.407 69.826C135.623 69.97 135.905 70.084 136.253 70.168C136.601 70.252 136.985 70.324 137.405 70.384C137.837 70.432 138.263 70.51 138.683 70.618C139.103 70.726 139.487 70.876 139.835 71.068C140.195 71.248 140.483 71.506 140.699 71.842C140.915 72.178 141.023 72.616 141.023 73.156C141.023 73.756 140.843 74.278 140.483 74.722C140.135 75.166 139.637 75.514 138.989 75.766C138.341 76.006 137.567 76.126 136.667 76.126ZM153.857 76V74.056L153.731 73.642V70.24C153.731 69.58 153.533 69.07 153.137 68.71C152.741 68.338 152.141 68.152 151.337 68.152C150.797 68.152 150.263 68.236 149.735 68.404C149.219 68.572 148.781 68.806 148.421 69.106L147.539 67.468C148.055 67.072 148.667 66.778 149.375 66.586C150.095 66.382 150.839 66.28 151.607 66.28C152.999 66.28 154.073 66.616 154.829 67.288C155.597 67.948 155.981 68.974 155.981 70.366V76H153.857ZM150.833 76.126C150.113 76.126 149.483 76.006 148.943 75.766C148.403 75.514 147.983 75.172 147.683 74.74C147.395 74.296 147.251 73.798 147.251 73.246C147.251 72.706 147.377 72.22 147.629 71.788C147.893 71.356 148.319 71.014 148.907 70.762C149.495 70.51 150.275 70.384 151.247 70.384H154.037V71.878H151.409C150.641 71.878 150.125 72.004 149.861 72.256C149.597 72.496 149.465 72.796 149.465 73.156C149.465 73.564 149.627 73.888 149.951 74.128C150.275 74.368 150.725 74.488 151.301 74.488C151.853 74.488 152.345 74.362 152.777 74.11C153.221 73.858 153.539 73.486 153.731 72.994L154.109 74.344C153.893 74.908 153.503 75.346 152.939 75.658C152.387 75.97 151.685 76.126 150.833 76.126ZM168.361 76.126C167.293 76.126 166.357 75.916 165.553 75.496C164.761 75.064 164.143 74.476 163.699 73.732C163.267 72.988 163.051 72.142 163.051 71.194C163.051 70.234 163.261 69.388 163.681 68.656C164.113 67.912 164.701 67.33 165.445 66.91C166.201 66.49 167.059 66.28 168.019 66.28C168.955 66.28 169.789 66.484 170.521 66.892C171.253 67.3 171.829 67.876 172.249 68.62C172.669 69.364 172.879 70.24 172.879 71.248C172.879 71.344 172.873 71.452 172.861 71.572C172.861 71.692 172.855 71.806 172.843 71.914H164.833V70.42H171.655L170.773 70.888C170.785 70.336 170.671 69.85 170.431 69.43C170.191 69.01 169.861 68.68 169.441 68.44C169.033 68.2 168.559 68.08 168.019 68.08C167.467 68.08 166.981 68.2 166.561 68.44C166.153 68.68 165.829 69.016 165.589 69.448C165.361 69.868 165.247 70.366 165.247 70.942V71.302C165.247 71.878 165.379 72.388 165.643 72.832C165.907 73.276 166.279 73.618 166.759 73.858C167.239 74.098 167.791 74.218 168.415 74.218C168.955 74.218 169.441 74.134 169.873 73.966C170.305 73.798 170.689 73.534 171.025 73.174L172.231 74.56C171.799 75.064 171.253 75.454 170.593 75.73C169.945 75.994 169.201 76.126 168.361 76.126ZM178.01 76.126C177.206 76.126 176.432 76.024 175.688 75.82C174.956 75.604 174.374 75.346 173.942 75.046L174.806 73.336C175.238 73.612 175.754 73.84 176.354 74.02C176.954 74.2 177.554 74.29 178.154 74.29C178.862 74.29 179.372 74.194 179.684 74.002C180.008 73.81 180.17 73.552 180.17 73.228C180.17 72.964 180.062 72.766 179.846 72.634C179.63 72.49 179.348 72.382 179 72.31C178.652 72.238 178.262 72.172 177.83 72.112C177.41 72.052 176.984 71.974 176.552 71.878C176.132 71.77 175.748 71.62 175.4 71.428C175.052 71.224 174.77 70.954 174.554 70.618C174.338 70.282 174.23 69.838 174.23 69.286C174.23 68.674 174.404 68.146 174.752 67.702C175.1 67.246 175.586 66.898 176.21 66.658C176.846 66.406 177.596 66.28 178.46 66.28C179.108 66.28 179.762 66.352 180.422 66.496C181.082 66.64 181.628 66.844 182.06 67.108L181.196 68.818C180.74 68.542 180.278 68.356 179.81 68.26C179.354 68.152 178.898 68.098 178.442 68.098C177.758 68.098 177.248 68.2 176.912 68.404C176.588 68.608 176.426 68.866 176.426 69.178C176.426 69.466 176.534 69.682 176.75 69.826C176.966 69.97 177.248 70.084 177.596 70.168C177.944 70.252 178.328 70.324 178.748 70.384C179.18 70.432 179.606 70.51 180.026 70.618C180.446 70.726 180.83 70.876 181.178 71.068C181.538 71.248 181.826 71.506 182.042 71.842C182.258 72.178 182.366 72.616 182.366 73.156C182.366 73.756 182.186 74.278 181.826 74.722C181.478 75.166 180.98 75.514 180.332 75.766C179.684 76.006 178.91 76.126 178.01 76.126ZM187.922 76.126C186.866 76.126 186.05 75.856 185.474 75.316C184.898 74.764 184.61 73.954 184.61 72.886V64.264H186.86V72.832C186.86 73.288 186.974 73.642 187.202 73.894C187.442 74.146 187.772 74.272 188.192 74.272C188.696 74.272 189.116 74.14 189.452 73.876L190.082 75.478C189.818 75.694 189.494 75.856 189.11 75.964C188.726 76.072 188.33 76.126 187.922 76.126ZM183.026 68.26V66.46H189.434V68.26H183.026ZM196.135 76.126C195.067 76.126 194.131 75.916 193.327 75.496C192.535 75.064 191.917 74.476 191.473 73.732C191.041 72.988 190.825 72.142 190.825 71.194C190.825 70.234 191.035 69.388 191.455 68.656C191.887 67.912 192.475 67.33 193.219 66.91C193.975 66.49 194.833 66.28 195.793 66.28C196.729 66.28 197.563 66.484 198.295 66.892C199.027 67.3 199.603 67.876 200.023 68.62C200.443 69.364 200.653 70.24 200.653 71.248C200.653 71.344 200.647 71.452 200.635 71.572C200.635 71.692 200.629 71.806 200.617 71.914H192.607V70.42H199.429L198.547 70.888C198.559 70.336 198.445 69.85 198.205 69.43C197.965 69.01 197.635 68.68 197.215 68.44C196.807 68.2 196.333 68.08 195.793 68.08C195.241 68.08 194.755 68.2 194.335 68.44C193.927 68.68 193.603 69.016 193.363 69.448C193.135 69.868 193.021 70.366 193.021 70.942V71.302C193.021 71.878 193.153 72.388 193.417 72.832C193.681 73.276 194.053 73.618 194.533 73.858C195.013 74.098 195.565 74.218 196.189 74.218C196.729 74.218 197.215 74.134 197.647 73.966C198.079 73.798 198.463 73.534 198.799 73.174L200.005 74.56C199.573 75.064 199.027 75.454 198.367 75.73C197.719 75.994 196.975 76.126 196.135 76.126ZM213.117 76.126C212.337 76.126 211.623 75.946 210.975 75.586C210.339 75.226 209.829 74.686 209.445 73.966C209.073 73.234 208.887 72.31 208.887 71.194C208.887 70.066 209.067 69.142 209.427 68.422C209.799 67.702 210.303 67.168 210.938 66.82C211.575 66.46 212.301 66.28 213.117 66.28C214.065 66.28 214.899 66.484 215.619 66.892C216.351 67.3 216.927 67.87 217.347 68.602C217.779 69.334 217.995 70.198 217.995 71.194C217.995 72.19 217.779 73.06 217.347 73.804C216.927 74.536 216.351 75.106 215.619 75.514C214.899 75.922 214.065 76.126 213.117 76.126ZM207.789 79.492V66.388H209.931V68.656L209.859 71.212L210.039 73.768V79.492H207.789ZM212.865 74.2C213.405 74.2 213.885 74.08 214.305 73.84C214.737 73.6 215.079 73.252 215.331 72.796C215.583 72.34 215.709 71.806 215.709 71.194C215.709 70.57 215.583 70.036 215.331 69.592C215.079 69.136 214.737 68.788 214.305 68.548C213.885 68.308 213.405 68.188 212.865 68.188C212.325 68.188 211.839 68.308 211.407 68.548C210.975 68.788 210.633 69.136 210.381 69.592C210.129 70.036 210.003 70.57 210.003 71.194C210.003 71.806 210.129 72.34 210.381 72.796C210.633 73.252 210.975 73.6 211.407 73.84C211.839 74.08 212.325 74.2 212.865 74.2ZM220.128 76V66.388H222.27V69.034L222.018 68.26C222.306 67.612 222.756 67.12 223.368 66.784C223.992 66.448 224.766 66.28 225.69 66.28V68.422C225.594 68.398 225.504 68.386 225.42 68.386C225.336 68.374 225.252 68.368 225.168 68.368C224.316 68.368 223.638 68.62 223.134 69.124C222.63 69.616 222.378 70.354 222.378 71.338V76H220.128ZM232.029 76.126C230.961 76.126 230.025 75.916 229.221 75.496C228.429 75.064 227.811 74.476 227.367 73.732C226.935 72.988 226.719 72.142 226.719 71.194C226.719 70.234 226.929 69.388 227.349 68.656C227.781 67.912 228.369 67.33 229.113 66.91C229.869 66.49 230.727 66.28 231.687 66.28C232.623 66.28 233.457 66.484 234.189 66.892C234.921 67.3 235.497 67.876 235.917 68.62C236.337 69.364 236.547 70.24 236.547 71.248C236.547 71.344 236.541 71.452 236.529 71.572C236.529 71.692 236.523 71.806 236.511 71.914H228.501V70.42H235.323L234.441 70.888C234.453 70.336 234.339 69.85 234.099 69.43C233.859 69.01 233.529 68.68 233.109 68.44C232.701 68.2 232.227 68.08 231.687 68.08C231.135 68.08 230.649 68.2 230.229 68.44C229.821 68.68 229.497 69.016 229.257 69.448C229.029 69.868 228.915 70.366 228.915 70.942V71.302C228.915 71.878 229.047 72.388 229.311 72.832C229.575 73.276 229.947 73.618 230.427 73.858C230.907 74.098 231.459 74.218 232.083 74.218C232.623 74.218 233.109 74.134 233.541 73.966C233.973 73.798 234.357 73.534 234.693 73.174L235.899 74.56C235.467 75.064 234.921 75.454 234.261 75.73C233.613 75.994 232.869 76.126 232.029 76.126ZM243.118 76.126C242.11 76.126 241.21 75.916 240.418 75.496C239.638 75.064 239.026 74.476 238.582 73.732C238.138 72.988 237.916 72.142 237.916 71.194C237.916 70.234 238.138 69.388 238.582 68.656C239.026 67.912 239.638 67.33 240.418 66.91C241.21 66.49 242.11 66.28 243.118 66.28C244.054 66.28 244.876 66.472 245.584 66.856C246.304 67.228 246.85 67.78 247.222 68.512L245.494 69.52C245.206 69.064 244.852 68.728 244.432 68.512C244.024 68.296 243.58 68.188 243.1 68.188C242.548 68.188 242.05 68.308 241.606 68.548C241.162 68.788 240.814 69.136 240.562 69.592C240.31 70.036 240.184 70.57 240.184 71.194C240.184 71.818 240.31 72.358 240.562 72.814C240.814 73.258 241.162 73.6 241.606 73.84C242.05 74.08 242.548 74.2 243.1 74.2C243.58 74.2 244.024 74.092 244.432 73.876C244.852 73.66 245.206 73.324 245.494 72.868L247.222 73.876C246.85 74.596 246.304 75.154 245.584 75.55C244.876 75.934 244.054 76.126 243.118 76.126ZM249.08 76V66.388H251.33V76H249.08ZM250.214 64.804C249.794 64.804 249.446 64.672 249.17 64.408C248.906 64.144 248.774 63.826 248.774 63.454C248.774 63.07 248.906 62.752 249.17 62.5C249.446 62.236 249.794 62.104 250.214 62.104C250.634 62.104 250.976 62.23 251.24 62.482C251.516 62.722 251.654 63.028 251.654 63.4C251.654 63.796 251.522 64.132 251.258 64.408C250.994 64.672 250.646 64.804 250.214 64.804ZM258.603 76.126C257.619 76.126 256.743 75.916 255.975 75.496C255.207 75.064 254.601 74.476 254.157 73.732C253.713 72.988 253.491 72.142 253.491 71.194C253.491 70.234 253.713 69.388 254.157 68.656C254.601 67.912 255.207 67.33 255.975 66.91C256.743 66.49 257.619 66.28 258.603 66.28C259.599 66.28 260.481 66.49 261.249 66.91C262.029 67.33 262.635 67.906 263.067 68.638C263.511 69.37 263.733 70.222 263.733 71.194C263.733 72.142 263.511 72.988 263.067 73.732C262.635 74.476 262.029 75.064 261.249 75.496C260.481 75.916 259.599 76.126 258.603 76.126ZM258.603 74.2C259.155 74.2 259.647 74.08 260.079 73.84C260.511 73.6 260.847 73.252 261.087 72.796C261.339 72.34 261.465 71.806 261.465 71.194C261.465 70.57 261.339 70.036 261.087 69.592C260.847 69.136 260.511 68.788 260.079 68.548C259.647 68.308 259.161 68.188 258.621 68.188C258.069 68.188 257.577 68.308 257.145 68.548C256.725 68.788 256.389 69.136 256.137 69.592C255.885 70.036 255.759 70.57 255.759 71.194C255.759 71.806 255.885 72.34 256.137 72.796C256.389 73.252 256.725 73.6 257.145 73.84C257.577 74.08 258.063 74.2 258.603 74.2Z" fill="#214B33"/>
<path d="M175 24L902 24" stroke="#BC0051"/>
<path d="M1.692 21V8.4H6.876C7.992 8.4 8.946 8.58 9.738 8.94C10.542 9.3 11.16 9.816 11.592 10.488C12.024 11.16 12.24 11.958 12.24 12.882C12.24 13.806 12.024 14.604 11.592 15.276C11.16 15.948 10.542 16.464 9.738 16.824C8.946 17.184 7.992 17.364 6.876 17.364H2.988L4.032 16.266V21H1.692ZM4.032 16.518L2.988 15.384H6.768C7.8 15.384 8.574 15.168 9.09 14.736C9.618 14.292 9.882 13.674 9.882 12.882C9.882 12.078 9.618 11.46 9.09 11.028C8.574 10.596 7.8 10.38 6.768 10.38H2.988L4.032 9.228V16.518ZM14.2729 21V11.388H16.4149V14.034L16.1629 13.26C16.4509 12.612 16.9009 12.12 17.5129 11.784C18.1369 11.448 18.9109 11.28 19.8349 11.28V13.422C19.7389 13.398 19.6489 13.386 19.5649 13.386C19.4809 13.374 19.3969 13.368 19.3129 13.368C18.4609 13.368 17.7829 13.62 17.2789 14.124C16.7749 14.616 16.5229 15.354 16.5229 16.338V21H14.2729ZM26.1737 21.126C25.1057 21.126 24.1697 20.916 23.3657 20.496C22.5737 20.064 21.9557 19.476 21.5117 18.732C21.0797 17.988 20.8637 17.142 20.8637 16.194C20.8637 15.234 21.0737 14.388 21.4937 13.656C21.9257 12.912 22.5137 12.33 23.2577 11.91C24.0137 11.49 24.8717 11.28 25.8317 11.28C26.7677 11.28 27.6017 11.484 28.3337 11.892C29.0657 12.3 29.6417 12.876 30.0617 13.62C30.4817 14.364 30.6917 15.24 30.6917 16.248C30.6917 16.344 30.6857 16.452 30.6737 16.572C30.6737 16.692 30.6677 16.806 30.6557 16.914H22.6457V15.42H29.4677L28.5857 15.888C28.5977 15.336 28.4837 14.85 28.2437 14.43C28.0037 14.01 27.6737 13.68 27.2537 13.44C26.8457 13.2 26.3717 13.08 25.8317 13.08C25.2797 13.08 24.7937 13.2 24.3737 13.44C23.9657 13.68 23.6417 14.016 23.4017 14.448C23.1737 14.868 23.0597 15.366 23.0597 15.942V16.302C23.0597 16.878 23.1917 17.388 23.4557 17.832C23.7197 18.276 24.0917 18.618 24.5717 18.858C25.0517 19.098 25.6037 19.218 26.2277 19.218C26.7677 19.218 27.2537 19.134 27.6857 18.966C28.1177 18.798 28.5017 18.534 28.8377 18.174L30.0437 19.56C29.6117 20.064 29.0657 20.454 28.4057 20.73C27.7577 20.994 27.0137 21.126 26.1737 21.126ZM37.263 21.126C36.255 21.126 35.355 20.916 34.563 20.496C33.783 20.064 33.171 19.476 32.727 18.732C32.283 17.988 32.061 17.142 32.061 16.194C32.061 15.234 32.283 14.388 32.727 13.656C33.171 12.912 33.783 12.33 34.563 11.91C35.355 11.49 36.255 11.28 37.263 11.28C38.199 11.28 39.021 11.472 39.729 11.856C40.449 12.228 40.995 12.78 41.367 13.512L39.639 14.52C39.351 14.064 38.997 13.728 38.577 13.512C38.169 13.296 37.725 13.188 37.245 13.188C36.693 13.188 36.195 13.308 35.751 13.548C35.307 13.788 34.959 14.136 34.707 14.592C34.455 15.036 34.329 15.57 34.329 16.194C34.329 16.818 34.455 17.358 34.707 17.814C34.959 18.258 35.307 18.6 35.751 18.84C36.195 19.08 36.693 19.2 37.245 19.2C37.725 19.2 38.169 19.092 38.577 18.876C38.997 18.66 39.351 18.324 39.639 17.868L41.367 18.876C40.995 19.596 40.449 20.154 39.729 20.55C39.021 20.934 38.199 21.126 37.263 21.126ZM43.224 21V11.388H45.474V21H43.224ZM44.358 9.804C43.938 9.804 43.59 9.672 43.314 9.408C43.05 9.144 42.918 8.826 42.918 8.454C42.918 8.07 43.05 7.752 43.314 7.5C43.59 7.236 43.938 7.104 44.358 7.104C44.778 7.104 45.12 7.23 45.384 7.482C45.66 7.722 45.798 8.028 45.798 8.4C45.798 8.796 45.666 9.132 45.402 9.408C45.138 9.672 44.79 9.804 44.358 9.804ZM52.7472 21.126C51.7632 21.126 50.8872 20.916 50.1192 20.496C49.3512 20.064 48.7452 19.476 48.3012 18.732C47.8572 17.988 47.6352 17.142 47.6352 16.194C47.6352 15.234 47.8572 14.388 48.3012 13.656C48.7452 12.912 49.3512 12.33 50.1192 11.91C50.8872 11.49 51.7632 11.28 52.7472 11.28C53.7432 11.28 54.6252 11.49 55.3932 11.91C56.1732 12.33 56.7792 12.906 57.2112 13.638C57.6552 14.37 57.8772 15.222 57.8772 16.194C57.8772 17.142 57.6552 17.988 57.2112 18.732C56.7792 19.476 56.1732 20.064 55.3932 20.496C54.6252 20.916 53.7432 21.126 52.7472 21.126ZM52.7472 19.2C53.2992 19.2 53.7912 19.08 54.2232 18.84C54.6552 18.6 54.9912 18.252 55.2312 17.796C55.4832 17.34 55.6092 16.806 55.6092 16.194C55.6092 15.57 55.4832 15.036 55.2312 14.592C54.9912 14.136 54.6552 13.788 54.2232 13.548C53.7912 13.308 53.3052 13.188 52.7652 13.188C52.2132 13.188 51.7212 13.308 51.2892 13.548C50.8692 13.788 50.5332 14.136 50.2812 14.592C50.0292 15.036 49.9032 15.57 49.9032 16.194C49.9032 16.806 50.0292 17.34 50.2812 17.796C50.5332 18.252 50.8692 18.6 51.2892 18.84C51.7212 19.08 52.2072 19.2 52.7472 19.2ZM69.0713 21.126C68.1473 21.126 67.3133 20.922 66.5693 20.514C65.8373 20.094 65.2613 19.518 64.8413 18.786C64.4213 18.054 64.2113 17.19 64.2113 16.194C64.2113 15.198 64.4213 14.334 64.8413 13.602C65.2613 12.87 65.8373 12.3 66.5693 11.892C67.3133 11.484 68.1473 11.28 69.0713 11.28C69.8753 11.28 70.5953 11.46 71.2313 11.82C71.8673 12.168 72.3713 12.702 72.7433 13.422C73.1153 14.142 73.3013 15.066 73.3013 16.194C73.3013 17.31 73.1213 18.234 72.7613 18.966C72.4013 19.686 71.9033 20.226 71.2673 20.586C70.6313 20.946 69.8993 21.126 69.0713 21.126ZM69.3413 19.2C69.8813 19.2 70.3613 19.08 70.7813 18.84C71.2133 18.6 71.5553 18.252 71.8073 17.796C72.0713 17.34 72.2033 16.806 72.2033 16.194C72.2033 15.57 72.0713 15.036 71.8073 14.592C71.5553 14.136 71.2133 13.788 70.7813 13.548C70.3613 13.308 69.8813 13.188 69.3413 13.188C68.8013 13.188 68.3153 13.308 67.8833 13.548C67.4633 13.788 67.1213 14.136 66.8573 14.592C66.6053 15.036 66.4793 15.57 66.4793 16.194C66.4793 16.806 66.6053 17.34 66.8573 17.796C67.1213 18.252 67.4633 18.6 67.8833 18.84C68.3153 19.08 68.8013 19.2 69.3413 19.2ZM72.2573 21V18.732L72.3473 16.176L72.1673 13.62V7.644H74.3993V21H72.2573ZM81.8788 21.126C80.8108 21.126 79.8748 20.916 79.0708 20.496C78.2788 20.064 77.6608 19.476 77.2168 18.732C76.7848 17.988 76.5688 17.142 76.5688 16.194C76.5688 15.234 76.7788 14.388 77.1988 13.656C77.6308 12.912 78.2188 12.33 78.9628 11.91C79.7188 11.49 80.5768 11.28 81.5368 11.28C82.4728 11.28 83.3068 11.484 84.0388 11.892C84.7708 12.3 85.3468 12.876 85.7668 13.62C86.1868 14.364 86.3968 15.24 86.3968 16.248C86.3968 16.344 86.3908 16.452 86.3788 16.572C86.3788 16.692 86.3728 16.806 86.3608 16.914H78.3508V15.42H85.1728L84.2908 15.888C84.3028 15.336 84.1888 14.85 83.9488 14.43C83.7088 14.01 83.3788 13.68 82.9588 13.44C82.5508 13.2 82.0768 13.08 81.5368 13.08C80.9848 13.08 80.4988 13.2 80.0788 13.44C79.6708 13.68 79.3468 14.016 79.1068 14.448C78.8788 14.868 78.7648 15.366 78.7648 15.942V16.302C78.7648 16.878 78.8968 17.388 79.1608 17.832C79.4248 18.276 79.7968 18.618 80.2768 18.858C80.7568 19.098 81.3088 19.218 81.9328 19.218C82.4728 19.218 82.9588 19.134 83.3908 18.966C83.8228 18.798 84.2068 18.534 84.5428 18.174L85.7488 19.56C85.3168 20.064 84.7708 20.454 84.1108 20.73C83.4628 20.994 82.7188 21.126 81.8788 21.126ZM96.0886 21L91.9666 11.388H94.3066L97.8526 19.866H96.7006L100.373 11.388H102.533L98.4106 21H96.0886ZM108.193 21.126C107.125 21.126 106.189 20.916 105.385 20.496C104.593 20.064 103.975 19.476 103.531 18.732C103.099 17.988 102.883 17.142 102.883 16.194C102.883 15.234 103.093 14.388 103.513 13.656C103.945 12.912 104.533 12.33 105.277 11.91C106.033 11.49 106.891 11.28 107.851 11.28C108.787 11.28 109.621 11.484 110.353 11.892C111.085 12.3 111.661 12.876 112.081 13.62C112.501 14.364 112.711 15.24 112.711 16.248C112.711 16.344 112.705 16.452 112.693 16.572C112.693 16.692 112.687 16.806 112.675 16.914H104.665V15.42H111.487L110.605 15.888C110.617 15.336 110.503 14.85 110.263 14.43C110.023 14.01 109.693 13.68 109.273 13.44C108.865 13.2 108.391 13.08 107.851 13.08C107.299 13.08 106.813 13.2 106.393 13.44C105.985 13.68 105.661 14.016 105.421 14.448C105.193 14.868 105.079 15.366 105.079 15.942V16.302C105.079 16.878 105.211 17.388 105.475 17.832C105.739 18.276 106.111 18.618 106.591 18.858C107.071 19.098 107.623 19.218 108.247 19.218C108.787 19.218 109.273 19.134 109.705 18.966C110.137 18.798 110.521 18.534 110.857 18.174L112.063 19.56C111.631 20.064 111.085 20.454 110.425 20.73C109.777 20.994 109.033 21.126 108.193 21.126ZM120.326 11.28C121.094 11.28 121.778 11.43 122.378 11.73C122.99 12.03 123.47 12.492 123.818 13.116C124.166 13.728 124.34 14.52 124.34 15.492V21H122.09V15.78C122.09 14.928 121.886 14.292 121.478 13.872C121.082 13.452 120.524 13.242 119.804 13.242C119.276 13.242 118.808 13.35 118.4 13.566C117.992 13.782 117.674 14.106 117.446 14.538C117.23 14.958 117.122 15.492 117.122 16.14V21H114.872V11.388H117.014V13.98L116.636 13.188C116.972 12.576 117.458 12.108 118.094 11.784C118.742 11.448 119.486 11.28 120.326 11.28ZM130.813 21.126C129.757 21.126 128.941 20.856 128.365 20.316C127.789 19.764 127.501 18.954 127.501 17.886V9.264H129.751V17.832C129.751 18.288 129.865 18.642 130.093 18.894C130.333 19.146 130.663 19.272 131.083 19.272C131.587 19.272 132.007 19.14 132.343 18.876L132.973 20.478C132.709 20.694 132.385 20.856 132.001 20.964C131.617 21.072 131.221 21.126 130.813 21.126ZM125.917 13.26V11.46H132.325V13.26H125.917ZM140.746 21V19.056L140.62 18.642V15.24C140.62 14.58 140.422 14.07 140.026 13.71C139.63 13.338 139.03 13.152 138.226 13.152C137.686 13.152 137.152 13.236 136.624 13.404C136.108 13.572 135.67 13.806 135.31 14.106L134.428 12.468C134.944 12.072 135.556 11.778 136.264 11.586C136.984 11.382 137.728 11.28 138.496 11.28C139.888 11.28 140.962 11.616 141.718 12.288C142.486 12.948 142.87 13.974 142.87 15.366V21H140.746ZM137.722 21.126C137.002 21.126 136.372 21.006 135.832 20.766C135.292 20.514 134.872 20.172 134.572 19.74C134.284 19.296 134.14 18.798 134.14 18.246C134.14 17.706 134.266 17.22 134.518 16.788C134.782 16.356 135.208 16.014 135.796 15.762C136.384 15.51 137.164 15.384 138.136 15.384H140.926V16.878H138.298C137.53 16.878 137.014 17.004 136.75 17.256C136.486 17.496 136.354 17.796 136.354 18.156C136.354 18.564 136.516 18.888 136.84 19.128C137.164 19.368 137.614 19.488 138.19 19.488C138.742 19.488 139.234 19.362 139.666 19.11C140.11 18.858 140.428 18.486 140.62 17.994L140.998 19.344C140.782 19.908 140.392 20.346 139.828 20.658C139.276 20.97 138.574 21.126 137.722 21.126ZM156.654 21V19.056L156.528 18.642V15.24C156.528 14.58 156.33 14.07 155.934 13.71C155.538 13.338 154.938 13.152 154.134 13.152C153.594 13.152 153.06 13.236 152.532 13.404C152.016 13.572 151.578 13.806 151.218 14.106L150.336 12.468C150.852 12.072 151.464 11.778 152.172 11.586C152.892 11.382 153.636 11.28 154.404 11.28C155.796 11.28 156.87 11.616 157.626 12.288C158.394 12.948 158.778 13.974 158.778 15.366V21H156.654ZM153.63 21.126C152.91 21.126 152.28 21.006 151.74 20.766C151.2 20.514 150.78 20.172 150.48 19.74C150.192 19.296 150.048 18.798 150.048 18.246C150.048 17.706 150.174 17.22 150.426 16.788C150.69 16.356 151.116 16.014 151.704 15.762C152.292 15.51 153.072 15.384 154.044 15.384H156.834V16.878H154.206C153.438 16.878 152.922 17.004 152.658 17.256C152.394 17.496 152.262 17.796 152.262 18.156C152.262 18.564 152.424 18.888 152.748 19.128C153.072 19.368 153.522 19.488 154.098 19.488C154.65 19.488 155.142 19.362 155.574 19.11C156.018 18.858 156.336 18.486 156.528 17.994L156.906 19.344C156.69 19.908 156.3 20.346 155.736 20.658C155.184 20.97 154.482 21.126 153.63 21.126ZM161.665 21V7.644H163.915V21H161.665ZM177.171 21.126C176.391 21.126 175.677 20.946 175.029 20.586C174.393 20.226 173.883 19.686 173.499 18.966C173.127 18.234 172.941 17.31 172.941 16.194C172.941 15.066 173.121 14.142 173.481 13.422C173.853 12.702 174.357 12.168 174.993 11.82C175.629 11.46 176.355 11.28 177.171 11.28C178.119 11.28 178.953 11.484 179.673 11.892C180.405 12.3 180.981 12.87 181.401 13.602C181.833 14.334 182.049 15.198 182.049 16.194C182.049 17.19 181.833 18.06 181.401 18.804C180.981 19.536 180.405 20.106 179.673 20.514C178.953 20.922 178.119 21.126 177.171 21.126ZM171.843 24.492V11.388H173.985V13.656L173.913 16.212L174.093 18.768V24.492H171.843ZM176.919 19.2C177.459 19.2 177.939 19.08 178.359 18.84C178.791 18.6 179.133 18.252 179.385 17.796C179.637 17.34 179.763 16.806 179.763 16.194C179.763 15.57 179.637 15.036 179.385 14.592C179.133 14.136 178.791 13.788 178.359 13.548C177.939 13.308 177.459 13.188 176.919 13.188C176.379 13.188 175.893 13.308 175.461 13.548C175.029 13.788 174.687 14.136 174.435 14.592C174.183 15.036 174.057 15.57 174.057 16.194C174.057 16.806 174.183 17.34 174.435 17.796C174.687 18.252 175.029 18.6 175.461 18.84C175.893 19.08 176.379 19.2 176.919 19.2ZM188.503 21.126C187.519 21.126 186.643 20.916 185.875 20.496C185.107 20.064 184.501 19.476 184.057 18.732C183.613 17.988 183.391 17.142 183.391 16.194C183.391 15.234 183.613 14.388 184.057 13.656C184.501 12.912 185.107 12.33 185.875 11.91C186.643 11.49 187.519 11.28 188.503 11.28C189.499 11.28 190.381 11.49 191.149 11.91C191.929 12.33 192.535 12.906 192.967 13.638C193.411 14.37 193.633 15.222 193.633 16.194C193.633 17.142 193.411 17.988 192.967 18.732C192.535 19.476 191.929 20.064 191.149 20.496C190.381 20.916 189.499 21.126 188.503 21.126ZM188.503 19.2C189.055 19.2 189.547 19.08 189.979 18.84C190.411 18.6 190.747 18.252 190.987 17.796C191.239 17.34 191.365 16.806 191.365 16.194C191.365 15.57 191.239 15.036 190.987 14.592C190.747 14.136 190.411 13.788 189.979 13.548C189.547 13.308 189.061 13.188 188.521 13.188C187.969 13.188 187.477 13.308 187.045 13.548C186.625 13.788 186.289 14.136 186.037 14.592C185.785 15.036 185.659 15.57 185.659 16.194C185.659 16.806 185.785 17.34 186.037 17.796C186.289 18.252 186.625 18.6 187.045 18.84C187.477 19.08 187.963 19.2 188.503 19.2ZM195.785 21V11.388H197.927V14.034L197.675 13.26C197.963 12.612 198.413 12.12 199.025 11.784C199.649 11.448 200.423 11.28 201.347 11.28V13.422C201.251 13.398 201.161 13.386 201.077 13.386C200.993 13.374 200.909 13.368 200.825 13.368C199.973 13.368 199.295 13.62 198.791 14.124C198.287 14.616 198.035 15.354 198.035 16.338V21H195.785ZM220.45 11.28C221.218 11.28 221.896 11.43 222.484 11.73C223.084 12.03 223.552 12.492 223.888 13.116C224.224 13.728 224.392 14.52 224.392 15.492V21H222.142V15.78C222.142 14.928 221.956 14.292 221.584 13.872C221.212 13.452 220.678 13.242 219.982 13.242C219.49 13.242 219.052 13.35 218.668 13.566C218.296 13.782 218.002 14.1 217.786 14.52C217.582 14.94 217.48 15.474 217.48 16.122V21H215.23V15.78C215.23 14.928 215.044 14.292 214.672 13.872C214.3 13.452 213.766 13.242 213.07 13.242C212.578 13.242 212.14 13.35 211.756 13.566C211.384 13.782 211.09 14.1 210.874 14.52C210.67 14.94 210.568 15.474 210.568 16.122V21H208.318V11.388H210.46V13.944L210.082 13.188C210.406 12.564 210.874 12.09 211.486 11.766C212.11 11.442 212.818 11.28 213.61 11.28C214.51 11.28 215.29 11.502 215.95 11.946C216.622 12.39 217.066 13.062 217.282 13.962L216.4 13.656C216.712 12.936 217.228 12.36 217.948 11.928C218.668 11.496 219.502 11.28 220.45 11.28ZM231.803 21.126C230.735 21.126 229.799 20.916 228.995 20.496C228.203 20.064 227.585 19.476 227.141 18.732C226.709 17.988 226.493 17.142 226.493 16.194C226.493 15.234 226.703 14.388 227.123 13.656C227.555 12.912 228.143 12.33 228.887 11.91C229.643 11.49 230.501 11.28 231.461 11.28C232.397 11.28 233.231 11.484 233.963 11.892C234.695 12.3 235.271 12.876 235.691 13.62C236.111 14.364 236.321 15.24 236.321 16.248C236.321 16.344 236.315 16.452 236.303 16.572C236.303 16.692 236.297 16.806 236.285 16.914H228.275V15.42H235.097L234.215 15.888C234.227 15.336 234.113 14.85 233.873 14.43C233.633 14.01 233.303 13.68 232.883 13.44C232.475 13.2 232.001 13.08 231.461 13.08C230.909 13.08 230.423 13.2 230.003 13.44C229.595 13.68 229.271 14.016 229.031 14.448C228.803 14.868 228.689 15.366 228.689 15.942V16.302C228.689 16.878 228.821 17.388 229.085 17.832C229.349 18.276 229.721 18.618 230.201 18.858C230.681 19.098 231.233 19.218 231.857 19.218C232.397 19.218 232.883 19.134 233.315 18.966C233.747 18.798 234.131 18.534 234.467 18.174L235.673 19.56C235.241 20.064 234.695 20.454 234.035 20.73C233.387 20.994 232.643 21.126 231.803 21.126ZM243.936 11.28C244.704 11.28 245.388 11.43 245.988 11.73C246.6 12.03 247.08 12.492 247.428 13.116C247.776 13.728 247.95 14.52 247.95 15.492V21H245.7V15.78C245.7 14.928 245.496 14.292 245.088 13.872C244.692 13.452 244.134 13.242 243.414 13.242C242.886 13.242 242.418 13.35 242.01 13.566C241.602 13.782 241.284 14.106 241.056 14.538C240.84 14.958 240.732 15.492 240.732 16.14V21H238.482V11.388H240.624V13.98L240.246 13.188C240.582 12.576 241.068 12.108 241.704 11.784C242.352 11.448 243.096 11.28 243.936 11.28ZM255.142 21.126C254.158 21.126 253.282 20.916 252.514 20.496C251.746 20.064 251.14 19.476 250.696 18.732C250.252 17.988 250.03 17.142 250.03 16.194C250.03 15.234 250.252 14.388 250.696 13.656C251.14 12.912 251.746 12.33 252.514 11.91C253.282 11.49 254.158 11.28 255.142 11.28C256.138 11.28 257.02 11.49 257.788 11.91C258.568 12.33 259.174 12.906 259.606 13.638C260.05 14.37 260.272 15.222 260.272 16.194C260.272 17.142 260.05 17.988 259.606 18.732C259.174 19.476 258.568 20.064 257.788 20.496C257.02 20.916 256.138 21.126 255.142 21.126ZM255.142 19.2C255.694 19.2 256.186 19.08 256.618 18.84C257.05 18.6 257.386 18.252 257.626 17.796C257.878 17.34 258.004 16.806 258.004 16.194C258.004 15.57 257.878 15.036 257.626 14.592C257.386 14.136 257.05 13.788 256.618 13.548C256.186 13.308 255.7 13.188 255.16 13.188C254.608 13.188 254.116 13.308 253.684 13.548C253.264 13.788 252.928 14.136 252.676 14.592C252.424 15.036 252.298 15.57 252.298 16.194C252.298 16.806 252.424 17.34 252.676 17.796C252.928 18.252 253.264 18.6 253.684 18.84C254.116 19.08 254.602 19.2 255.142 19.2ZM262.423 21V11.388H264.565V14.034L264.313 13.26C264.601 12.612 265.051 12.12 265.663 11.784C266.287 11.448 267.061 11.28 267.985 11.28V13.422C267.889 13.398 267.799 13.386 267.715 13.386C267.631 13.374 267.547 13.368 267.463 13.368C266.611 13.368 265.933 13.62 265.429 14.124C264.925 14.616 264.673 15.354 264.673 16.338V21H262.423Z" fill="#BC0051"/>
<path d="M350 161L1 161" stroke="#A2C33D"/>
<path d="M10.952 153.32C9.20267 153.32 7.528 153.075 5.928 152.584C4.328 152.072 3.05867 151.421 2.12 150.632L3.56 147.4C4.456 148.104 5.56533 148.691 6.888 149.16C8.21067 149.629 9.56533 149.864 10.952 149.864C12.1253 149.864 13.0747 149.736 13.8 149.48C14.5253 149.224 15.0587 148.883 15.4 148.456C15.7413 148.008 15.912 147.507 15.912 146.952C15.912 146.269 15.6667 145.725 15.176 145.32C14.6853 144.893 14.0453 144.563 13.256 144.328C12.488 144.072 11.624 143.837 10.664 143.624C9.72533 143.411 8.776 143.165 7.816 142.888C6.87733 142.589 6.01333 142.216 5.224 141.768C4.456 141.299 3.82667 140.68 3.336 139.912C2.84533 139.144 2.6 138.163 2.6 136.968C2.6 135.752 2.92 134.643 3.56 133.64C4.22133 132.616 5.21333 131.805 6.536 131.208C7.88 130.589 9.576 130.28 11.624 130.28C12.968 130.28 14.3013 130.451 15.624 130.792C16.9467 131.133 18.0987 131.624 19.08 132.264L17.768 135.496C16.7653 134.899 15.7307 134.461 14.664 134.184C13.5973 133.885 12.5733 133.736 11.592 133.736C10.44 133.736 9.50133 133.875 8.776 134.152C8.072 134.429 7.54933 134.792 7.208 135.24C6.888 135.688 6.728 136.2 6.728 136.776C6.728 137.459 6.96267 138.013 7.432 138.44C7.92267 138.845 8.552 139.165 9.32 139.4C10.1093 139.635 10.984 139.869 11.944 140.104C12.904 140.317 13.8533 140.563 14.792 140.84C15.752 141.117 16.616 141.48 17.384 141.928C18.1733 142.376 18.8027 142.984 19.272 143.752C19.7627 144.52 20.008 145.491 20.008 146.664C20.008 147.859 19.6773 148.968 19.016 149.992C18.376 150.995 17.384 151.805 16.04 152.424C14.696 153.021 13 153.32 10.952 153.32ZM30.981 153.224C29.5303 153.224 28.2503 152.957 27.141 152.424C26.0317 151.869 25.1677 151.037 24.549 149.928C23.9303 148.797 23.621 147.379 23.621 145.672V135.912H27.621V145.128C27.621 146.664 27.9623 147.816 28.645 148.584C29.349 149.331 30.341 149.704 31.621 149.704C32.5597 149.704 33.3703 149.512 34.053 149.128C34.757 148.744 35.301 148.168 35.685 147.4C36.0903 146.632 36.293 145.683 36.293 144.552V135.912H40.293V153H36.485V148.392L37.157 149.8C36.581 150.909 35.7383 151.763 34.629 152.36C33.5197 152.936 32.3037 153.224 30.981 153.224ZM58.918 153L51.59 135.912H55.75L62.054 150.984H60.006L66.534 135.912H70.374L63.046 153H58.918ZM80.4373 153.224C78.5386 153.224 76.8746 152.851 75.4453 152.104C74.0373 151.336 72.9386 150.291 72.1493 148.968C71.3813 147.645 70.9973 146.141 70.9973 144.456C70.9973 142.749 71.3706 141.245 72.1173 139.944C72.8853 138.621 73.9306 137.587 75.2533 136.84C76.5973 136.093 78.1226 135.72 79.8293 135.72C81.4933 135.72 82.9759 136.083 84.2773 136.808C85.5786 137.533 86.6026 138.557 87.3493 139.88C88.0959 141.203 88.4693 142.76 88.4693 144.552C88.4693 144.723 88.4586 144.915 88.4373 145.128C88.4373 145.341 88.4266 145.544 88.4053 145.736H74.1653V143.08H86.2933L84.7253 143.912C84.7466 142.931 84.5439 142.067 84.1173 141.32C83.6906 140.573 83.1039 139.987 82.3573 139.56C81.6319 139.133 80.7893 138.92 79.8293 138.92C78.8479 138.92 77.9839 139.133 77.2373 139.56C76.5119 139.987 75.9359 140.584 75.5093 141.352C75.1039 142.099 74.9013 142.984 74.9013 144.008V144.648C74.9013 145.672 75.1359 146.579 75.6053 147.368C76.0746 148.157 76.7359 148.765 77.5893 149.192C78.4426 149.619 79.4239 149.832 80.5333 149.832C81.4933 149.832 82.3573 149.683 83.1253 149.384C83.8933 149.085 84.5759 148.616 85.1733 147.976L87.3173 150.44C86.5493 151.336 85.5786 152.029 84.4053 152.52C83.2533 152.989 81.9306 153.224 80.4373 153.224ZM102.008 135.72C103.373 135.72 104.589 135.987 105.656 136.52C106.744 137.053 107.597 137.875 108.216 138.984C108.834 140.072 109.144 141.48 109.144 143.208V153H105.144V143.72C105.144 142.205 104.781 141.075 104.056 140.328C103.352 139.581 102.36 139.208 101.08 139.208C100.141 139.208 99.3088 139.4 98.5835 139.784C97.8582 140.168 97.2928 140.744 96.8875 141.512C96.5035 142.259 96.3115 143.208 96.3115 144.36V153H92.3115V135.912H96.1195V140.52L95.4475 139.112C96.0448 138.024 96.9088 137.192 98.0395 136.616C99.1915 136.019 100.514 135.72 102.008 135.72ZM120.65 153.224C118.772 153.224 117.322 152.744 116.298 151.784C115.274 150.803 114.762 149.363 114.762 147.464V132.136H118.762V147.368C118.762 148.179 118.964 148.808 119.37 149.256C119.796 149.704 120.383 149.928 121.13 149.928C122.026 149.928 122.772 149.693 123.37 149.224L124.49 152.072C124.02 152.456 123.444 152.744 122.762 152.936C122.079 153.128 121.375 153.224 120.65 153.224ZM111.946 139.24V136.04H123.338V139.24H111.946ZM138.308 153V149.544L138.084 148.808V142.76C138.084 141.587 137.732 140.68 137.028 140.04C136.324 139.379 135.258 139.048 133.828 139.048C132.868 139.048 131.919 139.197 130.98 139.496C130.063 139.795 129.284 140.211 128.644 140.744L127.076 137.832C127.994 137.128 129.082 136.605 130.34 136.264C131.62 135.901 132.943 135.72 134.308 135.72C136.783 135.72 138.692 136.317 140.036 137.512C141.402 138.685 142.084 140.509 142.084 142.984V153H138.308ZM132.932 153.224C131.652 153.224 130.532 153.011 129.572 152.584C128.612 152.136 127.866 151.528 127.332 150.76C126.82 149.971 126.564 149.085 126.564 148.104C126.564 147.144 126.788 146.28 127.236 145.512C127.706 144.744 128.463 144.136 129.508 143.688C130.554 143.24 131.94 143.016 133.668 143.016H138.628V145.672H133.956C132.591 145.672 131.674 145.896 131.204 146.344C130.735 146.771 130.5 147.304 130.5 147.944C130.5 148.669 130.788 149.245 131.364 149.672C131.94 150.099 132.74 150.312 133.764 150.312C134.746 150.312 135.62 150.088 136.388 149.64C137.178 149.192 137.743 148.531 138.084 147.656L138.756 150.056C138.372 151.059 137.679 151.837 136.676 152.392C135.695 152.947 134.447 153.224 132.932 153.224ZM145.458 159.432C144.711 159.432 144.007 159.347 143.346 159.176C142.663 159.027 142.087 158.781 141.618 158.44L142.77 155.464C143.388 155.912 144.167 156.136 145.106 156.136C145.831 156.136 146.396 155.901 146.802 155.432C147.207 154.984 147.41 154.312 147.41 153.416V135.912H151.41V153.32C151.41 155.197 150.887 156.68 149.842 157.768C148.818 158.877 147.356 159.432 145.458 159.432ZM149.394 133.096C148.647 133.096 148.028 132.861 147.538 132.392C147.068 131.923 146.834 131.357 146.834 130.696C146.834 130.013 147.068 129.448 147.538 129C148.028 128.531 148.647 128.296 149.394 128.296C150.14 128.296 150.748 128.52 151.218 128.968C151.708 129.395 151.954 129.939 151.954 130.6C151.954 131.304 151.719 131.901 151.25 132.392C150.78 132.861 150.162 133.096 149.394 133.096ZM167.183 153V149.544L166.959 148.808V142.76C166.959 141.587 166.607 140.68 165.903 140.04C165.199 139.379 164.133 139.048 162.703 139.048C161.743 139.048 160.794 139.197 159.855 139.496C158.938 139.795 158.159 140.211 157.519 140.744L155.951 137.832C156.869 137.128 157.957 136.605 159.215 136.264C160.495 135.901 161.818 135.72 163.183 135.72C165.658 135.72 167.567 136.317 168.911 137.512C170.277 138.685 170.959 140.509 170.959 142.984V153H167.183ZM161.807 153.224C160.527 153.224 159.407 153.011 158.447 152.584C157.487 152.136 156.741 151.528 156.207 150.76C155.695 149.971 155.439 149.085 155.439 148.104C155.439 147.144 155.663 146.28 156.111 145.512C156.581 144.744 157.338 144.136 158.383 143.688C159.429 143.24 160.815 143.016 162.543 143.016H167.503V145.672H162.831C161.466 145.672 160.549 145.896 160.079 146.344C159.61 146.771 159.375 147.304 159.375 147.944C159.375 148.669 159.663 149.245 160.239 149.672C160.815 150.099 161.615 150.312 162.639 150.312C163.621 150.312 164.495 150.088 165.263 149.64C166.053 149.192 166.618 148.531 166.959 147.656L167.631 150.056C167.247 151.059 166.554 151.837 165.551 152.392C164.57 152.947 163.322 153.224 161.807 153.224Z" fill="#A2C33D"/>
<path d="M343.436 364V354.62L343.884 355.096H341.126V354.2H344.444V364H343.436ZM354.035 364.07C353.335 364.07 352.705 363.911 352.145 363.594C351.594 363.277 351.16 362.838 350.843 362.278C350.525 361.709 350.367 361.055 350.367 360.318C350.367 359.571 350.525 358.918 350.843 358.358C351.16 357.798 351.594 357.364 352.145 357.056C352.705 356.739 353.335 356.58 354.035 356.58C354.679 356.58 355.253 356.725 355.757 357.014C356.27 357.303 356.676 357.728 356.975 358.288C357.283 358.839 357.437 359.515 357.437 360.318C357.437 361.111 357.287 361.788 356.989 362.348C356.69 362.908 356.284 363.337 355.771 363.636C355.267 363.925 354.688 364.07 354.035 364.07ZM354.105 363.188C354.627 363.188 355.094 363.071 355.505 362.838C355.925 362.595 356.251 362.259 356.485 361.83C356.727 361.391 356.849 360.887 356.849 360.318C356.849 359.739 356.727 359.235 356.485 358.806C356.251 358.377 355.925 358.045 355.505 357.812C355.094 357.569 354.627 357.448 354.105 357.448C353.591 357.448 353.129 357.569 352.719 357.812C352.308 358.045 351.981 358.377 351.739 358.806C351.496 359.235 351.375 359.739 351.375 360.318C351.375 360.887 351.496 361.391 351.739 361.83C351.981 362.259 352.308 362.595 352.719 362.838C353.129 363.071 353.591 363.188 354.105 363.188ZM356.877 364V361.788L356.975 360.304L356.835 358.82V353.612H357.829V364H356.877ZM363.719 364.07C362.954 364.07 362.282 363.911 361.703 363.594C361.124 363.267 360.672 362.824 360.345 362.264C360.018 361.695 359.855 361.046 359.855 360.318C359.855 359.59 360.009 358.946 360.317 358.386C360.634 357.826 361.064 357.387 361.605 357.07C362.156 356.743 362.772 356.58 363.453 356.58C364.144 356.58 364.755 356.739 365.287 357.056C365.828 357.364 366.253 357.803 366.561 358.372C366.869 358.932 367.023 359.581 367.023 360.318C367.023 360.365 367.018 360.416 367.009 360.472C367.009 360.519 367.009 360.57 367.009 360.626H360.611V359.884H366.477L366.085 360.178C366.085 359.646 365.968 359.175 365.735 358.764C365.511 358.344 365.203 358.017 364.811 357.784C364.419 357.551 363.966 357.434 363.453 357.434C362.949 357.434 362.496 357.551 362.095 357.784C361.694 358.017 361.381 358.344 361.157 358.764C360.933 359.184 360.821 359.665 360.821 360.206V360.36C360.821 360.92 360.942 361.415 361.185 361.844C361.437 362.264 361.782 362.595 362.221 362.838C362.669 363.071 363.178 363.188 363.747 363.188C364.195 363.188 364.61 363.109 364.993 362.95C365.385 362.791 365.721 362.549 366.001 362.222L366.561 362.866C366.234 363.258 365.824 363.557 365.329 363.762C364.844 363.967 364.307 364.07 363.719 364.07ZM377.316 364V362.376L377.274 362.11V359.394C377.274 358.769 377.097 358.288 376.742 357.952C376.397 357.616 375.879 357.448 375.188 357.448C374.712 357.448 374.26 357.527 373.83 357.686C373.401 357.845 373.037 358.055 372.738 358.316L372.29 357.574C372.664 357.257 373.112 357.014 373.634 356.846C374.157 356.669 374.708 356.58 375.286 356.58C376.238 356.58 376.971 356.818 377.484 357.294C378.007 357.761 378.268 358.475 378.268 359.436V364H377.316ZM374.782 364.07C374.232 364.07 373.751 363.981 373.34 363.804C372.939 363.617 372.631 363.365 372.416 363.048C372.202 362.721 372.094 362.348 372.094 361.928C372.094 361.545 372.183 361.2 372.36 360.892C372.547 360.575 372.846 360.323 373.256 360.136C373.676 359.94 374.236 359.842 374.936 359.842H377.47V360.584H374.964C374.255 360.584 373.76 360.71 373.48 360.962C373.21 361.214 373.074 361.527 373.074 361.9C373.074 362.32 373.238 362.656 373.564 362.908C373.891 363.16 374.348 363.286 374.936 363.286C375.496 363.286 375.977 363.16 376.378 362.908C376.789 362.647 377.088 362.273 377.274 361.788L377.498 362.474C377.312 362.959 376.985 363.347 376.518 363.636C376.061 363.925 375.482 364.07 374.782 364.07ZM384.762 364.07C384.118 364.07 383.539 363.925 383.026 363.636C382.513 363.337 382.107 362.908 381.808 362.348C381.509 361.788 381.36 361.111 381.36 360.318C381.36 359.515 381.509 358.839 381.808 358.288C382.116 357.728 382.527 357.303 383.04 357.014C383.553 356.725 384.127 356.58 384.762 356.58C385.462 356.58 386.087 356.739 386.638 357.056C387.198 357.364 387.637 357.798 387.954 358.358C388.271 358.918 388.43 359.571 388.43 360.318C388.43 361.055 388.271 361.709 387.954 362.278C387.637 362.838 387.198 363.277 386.638 363.594C386.087 363.911 385.462 364.07 384.762 364.07ZM380.968 364V353.612H381.962V358.82L381.822 360.304L381.92 361.788V364H380.968ZM384.692 363.188C385.215 363.188 385.681 363.071 386.092 362.838C386.503 362.595 386.829 362.259 387.072 361.83C387.315 361.391 387.436 360.887 387.436 360.318C387.436 359.739 387.315 359.235 387.072 358.806C386.829 358.377 386.503 358.045 386.092 357.812C385.681 357.569 385.215 357.448 384.692 357.448C384.169 357.448 383.698 357.569 383.278 357.812C382.867 358.045 382.541 358.377 382.298 358.806C382.065 359.235 381.948 359.739 381.948 360.318C381.948 360.887 382.065 361.391 382.298 361.83C382.541 362.259 382.867 362.595 383.278 362.838C383.698 363.071 384.169 363.188 384.692 363.188ZM390.456 364V356.65H391.408V358.652L391.31 358.302C391.516 357.742 391.861 357.317 392.346 357.028C392.832 356.729 393.434 356.58 394.152 356.58V357.546C394.115 357.546 394.078 357.546 394.04 357.546C394.003 357.537 393.966 357.532 393.928 357.532C393.154 357.532 392.547 357.77 392.108 358.246C391.67 358.713 391.45 359.38 391.45 360.248V364H390.456ZM395.966 364V356.65H396.96V364H395.966ZM396.47 355.026C396.265 355.026 396.092 354.956 395.952 354.816C395.812 354.676 395.742 354.508 395.742 354.312C395.742 354.116 395.812 353.953 395.952 353.822C396.092 353.682 396.265 353.612 396.47 353.612C396.675 353.612 396.848 353.677 396.988 353.808C397.128 353.939 397.198 354.102 397.198 354.298C397.198 354.503 397.128 354.676 396.988 354.816C396.857 354.956 396.685 355.026 396.47 355.026ZM399.726 364V353.612H400.72V364H399.726Z" fill="#313131"/>
<path d="M871.654 364.084C870.945 364.084 870.273 363.972 869.638 363.748C869.013 363.515 868.509 363.207 868.126 362.824L868.616 362.026C868.933 362.353 869.358 362.623 869.89 362.838C870.431 363.053 871.019 363.16 871.654 363.16C872.466 363.16 873.087 362.983 873.516 362.628C873.955 362.273 874.174 361.797 874.174 361.2C874.174 360.603 873.959 360.127 873.53 359.772C873.11 359.417 872.443 359.24 871.528 359.24H870.828V358.498L873.852 354.704L873.992 355.096H868.532V354.2H874.832V354.914L871.808 358.708L871.318 358.386H871.696C872.872 358.386 873.749 358.647 874.328 359.17C874.916 359.693 875.21 360.365 875.21 361.186C875.21 361.737 875.079 362.231 874.818 362.67C874.557 363.109 874.16 363.454 873.628 363.706C873.105 363.958 872.447 364.084 871.654 364.084ZM880.536 364.084C879.78 364.084 879.108 363.888 878.52 363.496C877.932 363.095 877.47 362.525 877.134 361.788C876.798 361.041 876.63 360.145 876.63 359.1C876.63 358.055 876.798 357.163 877.134 356.426C877.47 355.679 877.932 355.11 878.52 354.718C879.108 354.317 879.78 354.116 880.536 354.116C881.292 354.116 881.964 354.317 882.552 354.718C883.14 355.11 883.602 355.679 883.938 356.426C884.284 357.163 884.456 358.055 884.456 359.1C884.456 360.145 884.284 361.041 883.938 361.788C883.602 362.525 883.14 363.095 882.552 363.496C881.964 363.888 881.292 364.084 880.536 364.084ZM880.536 363.16C881.115 363.16 881.619 363.006 882.048 362.698C882.478 362.381 882.814 361.923 883.056 361.326C883.299 360.719 883.42 359.977 883.42 359.1C883.42 358.223 883.299 357.485 883.056 356.888C882.814 356.281 882.478 355.824 882.048 355.516C881.619 355.199 881.115 355.04 880.536 355.04C879.976 355.04 879.477 355.199 879.038 355.516C878.6 355.824 878.259 356.281 878.016 356.888C877.774 357.485 877.652 358.223 877.652 359.1C877.652 359.977 877.774 360.719 878.016 361.326C878.259 361.923 878.6 362.381 879.038 362.698C879.477 363.006 879.976 363.16 880.536 363.16ZM893.148 364.07C892.448 364.07 891.818 363.911 891.258 363.594C890.707 363.277 890.273 362.838 889.956 362.278C889.639 361.709 889.48 361.055 889.48 360.318C889.48 359.571 889.639 358.918 889.956 358.358C890.273 357.798 890.707 357.364 891.258 357.056C891.818 356.739 892.448 356.58 893.148 356.58C893.792 356.58 894.366 356.725 894.87 357.014C895.383 357.303 895.789 357.728 896.088 358.288C896.396 358.839 896.55 359.515 896.55 360.318C896.55 361.111 896.401 361.788 896.102 362.348C895.803 362.908 895.397 363.337 894.884 363.636C894.38 363.925 893.801 364.07 893.148 364.07ZM893.218 363.188C893.741 363.188 894.207 363.071 894.618 362.838C895.038 362.595 895.365 362.259 895.598 361.83C895.841 361.391 895.962 360.887 895.962 360.318C895.962 359.739 895.841 359.235 895.598 358.806C895.365 358.377 895.038 358.045 894.618 357.812C894.207 357.569 893.741 357.448 893.218 357.448C892.705 357.448 892.243 357.569 891.832 357.812C891.421 358.045 891.095 358.377 890.852 358.806C890.609 359.235 890.488 359.739 890.488 360.318C890.488 360.887 890.609 361.391 890.852 361.83C891.095 362.259 891.421 362.595 891.832 362.838C892.243 363.071 892.705 363.188 893.218 363.188ZM895.99 364V361.788L896.088 360.304L895.948 358.82V353.612H896.942V364H895.99ZM902.832 364.07C902.067 364.07 901.395 363.911 900.816 363.594C900.238 363.267 899.785 362.824 899.458 362.264C899.132 361.695 898.968 361.046 898.968 360.318C898.968 359.59 899.122 358.946 899.43 358.386C899.748 357.826 900.177 357.387 900.718 357.07C901.269 356.743 901.885 356.58 902.566 356.58C903.257 356.58 903.868 356.739 904.4 357.056C904.942 357.364 905.366 357.803 905.674 358.372C905.982 358.932 906.136 359.581 906.136 360.318C906.136 360.365 906.132 360.416 906.122 360.472C906.122 360.519 906.122 360.57 906.122 360.626H899.724V359.884H905.59L905.198 360.178C905.198 359.646 905.082 359.175 904.848 358.764C904.624 358.344 904.316 358.017 903.924 357.784C903.532 357.551 903.08 357.434 902.566 357.434C902.062 357.434 901.61 357.551 901.208 357.784C900.807 358.017 900.494 358.344 900.27 358.764C900.046 359.184 899.934 359.665 899.934 360.206V360.36C899.934 360.92 900.056 361.415 900.298 361.844C900.55 362.264 900.896 362.595 901.334 362.838C901.782 363.071 902.291 363.188 902.86 363.188C903.308 363.188 903.724 363.109 904.106 362.95C904.498 362.791 904.834 362.549 905.114 362.222L905.674 362.866C905.348 363.258 904.937 363.557 904.442 363.762C903.957 363.967 903.42 364.07 902.832 364.07ZM916.43 364V362.376L916.388 362.11V359.394C916.388 358.769 916.21 358.288 915.856 357.952C915.51 357.616 914.992 357.448 914.302 357.448C913.826 357.448 913.373 357.527 912.944 357.686C912.514 357.845 912.15 358.055 911.852 358.316L911.404 357.574C911.777 357.257 912.225 357.014 912.748 356.846C913.27 356.669 913.821 356.58 914.4 356.58C915.352 356.58 916.084 356.818 916.598 357.294C917.12 357.761 917.382 358.475 917.382 359.436V364H916.43ZM913.896 364.07C913.345 364.07 912.864 363.981 912.454 363.804C912.052 363.617 911.744 363.365 911.53 363.048C911.315 362.721 911.208 362.348 911.208 361.928C911.208 361.545 911.296 361.2 911.474 360.892C911.66 360.575 911.959 360.323 912.37 360.136C912.79 359.94 913.35 359.842 914.05 359.842H916.584V360.584H914.078C913.368 360.584 912.874 360.71 912.594 360.962C912.323 361.214 912.188 361.527 912.188 361.9C912.188 362.32 912.351 362.656 912.678 362.908C913.004 363.16 913.462 363.286 914.05 363.286C914.61 363.286 915.09 363.16 915.492 362.908C915.902 362.647 916.201 362.273 916.388 361.788L916.612 362.474C916.425 362.959 916.098 363.347 915.632 363.636C915.174 363.925 914.596 364.07 913.896 364.07ZM923.875 364.07C923.231 364.07 922.653 363.925 922.139 363.636C921.626 363.337 921.22 362.908 920.921 362.348C920.623 361.788 920.473 361.111 920.473 360.318C920.473 359.515 920.623 358.839 920.921 358.288C921.229 357.728 921.64 357.303 922.153 357.014C922.667 356.725 923.241 356.58 923.875 356.58C924.575 356.58 925.201 356.739 925.751 357.056C926.311 357.364 926.75 357.798 927.067 358.358C927.385 358.918 927.543 359.571 927.543 360.318C927.543 361.055 927.385 361.709 927.067 362.278C926.75 362.838 926.311 363.277 925.751 363.594C925.201 363.911 924.575 364.07 923.875 364.07ZM920.081 364V353.612H921.075V358.82L920.935 360.304L921.033 361.788V364H920.081ZM923.805 363.188C924.328 363.188 924.795 363.071 925.205 362.838C925.616 362.595 925.943 362.259 926.185 361.83C926.428 361.391 926.549 360.887 926.549 360.318C926.549 359.739 926.428 359.235 926.185 358.806C925.943 358.377 925.616 358.045 925.205 357.812C924.795 357.569 924.328 357.448 923.805 357.448C923.283 357.448 922.811 357.569 922.391 357.812C921.981 358.045 921.654 358.377 921.411 358.806C921.178 359.235 921.061 359.739 921.061 360.318C921.061 360.887 921.178 361.391 921.411 361.83C921.654 362.259 921.981 362.595 922.391 362.838C922.811 363.071 923.283 363.188 923.805 363.188ZM929.57 364V356.65H930.522V358.652L930.424 358.302C930.629 357.742 930.974 357.317 931.46 357.028C931.945 356.729 932.547 356.58 933.266 356.58V357.546C933.228 357.546 933.191 357.546 933.154 357.546C933.116 357.537 933.079 357.532 933.042 357.532C932.267 357.532 931.66 357.77 931.222 358.246C930.783 358.713 930.564 359.38 930.564 360.248V364H929.57ZM935.079 364V356.65H936.073V364H935.079ZM935.583 355.026C935.378 355.026 935.205 354.956 935.065 354.816C934.925 354.676 934.855 354.508 934.855 354.312C934.855 354.116 934.925 353.953 935.065 353.822C935.205 353.682 935.378 353.612 935.583 353.612C935.789 353.612 935.961 353.677 936.101 353.808C936.241 353.939 936.311 354.102 936.311 354.298C936.311 354.503 936.241 354.676 936.101 354.816C935.971 354.956 935.798 355.026 935.583 355.026ZM938.839 364V353.612H939.833V364H938.839Z" fill="#313131"/>
<path d="M592.436 364V354.62L592.884 355.096H590.126V354.2H593.444V364H592.436ZM598.881 364.084C598.181 364.084 597.513 363.972 596.879 363.748C596.244 363.515 595.74 363.207 595.367 362.824L595.857 362.026C596.165 362.353 596.585 362.623 597.117 362.838C597.658 363.053 598.241 363.16 598.867 363.16C599.697 363.16 600.327 362.978 600.757 362.614C601.195 362.241 601.415 361.755 601.415 361.158C601.415 360.738 601.312 360.379 601.107 360.08C600.911 359.772 600.575 359.534 600.099 359.366C599.623 359.198 598.969 359.114 598.139 359.114H596.053L596.557 354.2H601.919V355.096H596.963L597.481 354.606L597.047 358.722L596.529 358.218H598.363C599.352 358.218 600.145 358.339 600.743 358.582C601.34 358.825 601.769 359.165 602.031 359.604C602.301 360.033 602.437 360.537 602.437 361.116C602.437 361.667 602.306 362.171 602.045 362.628C601.783 363.076 601.391 363.431 600.869 363.692C600.346 363.953 599.683 364.084 598.881 364.084ZM610.964 364.07C610.264 364.07 609.634 363.911 609.074 363.594C608.524 363.277 608.09 362.838 607.772 362.278C607.455 361.709 607.296 361.055 607.296 360.318C607.296 359.571 607.455 358.918 607.772 358.358C608.09 357.798 608.524 357.364 609.074 357.056C609.634 356.739 610.264 356.58 610.964 356.58C611.608 356.58 612.182 356.725 612.686 357.014C613.2 357.303 613.606 357.728 613.904 358.288C614.212 358.839 614.366 359.515 614.366 360.318C614.366 361.111 614.217 361.788 613.918 362.348C613.62 362.908 613.214 363.337 612.7 363.636C612.196 363.925 611.618 364.07 610.964 364.07ZM611.034 363.188C611.557 363.188 612.024 363.071 612.434 362.838C612.854 362.595 613.181 362.259 613.414 361.83C613.657 361.391 613.778 360.887 613.778 360.318C613.778 359.739 613.657 359.235 613.414 358.806C613.181 358.377 612.854 358.045 612.434 357.812C612.024 357.569 611.557 357.448 611.034 357.448C610.521 357.448 610.059 357.569 609.648 357.812C609.238 358.045 608.911 358.377 608.668 358.806C608.426 359.235 608.304 359.739 608.304 360.318C608.304 360.887 608.426 361.391 608.668 361.83C608.911 362.259 609.238 362.595 609.648 362.838C610.059 363.071 610.521 363.188 611.034 363.188ZM613.806 364V361.788L613.904 360.304L613.764 358.82V353.612H614.758V364H613.806ZM620.649 364.07C619.883 364.07 619.211 363.911 618.633 363.594C618.054 363.267 617.601 362.824 617.275 362.264C616.948 361.695 616.785 361.046 616.785 360.318C616.785 359.59 616.939 358.946 617.247 358.386C617.564 357.826 617.993 357.387 618.535 357.07C619.085 356.743 619.701 356.58 620.383 356.58C621.073 356.58 621.685 356.739 622.217 357.056C622.758 357.364 623.183 357.803 623.491 358.372C623.799 358.932 623.953 359.581 623.953 360.318C623.953 360.365 623.948 360.416 623.939 360.472C623.939 360.519 623.939 360.57 623.939 360.626H617.541V359.884H623.407L623.015 360.178C623.015 359.646 622.898 359.175 622.665 358.764C622.441 358.344 622.133 358.017 621.741 357.784C621.349 357.551 620.896 357.434 620.383 357.434C619.879 357.434 619.426 357.551 619.025 357.784C618.623 358.017 618.311 358.344 618.087 358.764C617.863 359.184 617.751 359.665 617.751 360.206V360.36C617.751 360.92 617.872 361.415 618.115 361.844C618.367 362.264 618.712 362.595 619.151 362.838C619.599 363.071 620.107 363.188 620.677 363.188C621.125 363.188 621.54 363.109 621.923 362.95C622.315 362.791 622.651 362.549 622.931 362.222L623.491 362.866C623.164 363.258 622.753 363.557 622.259 363.762C621.773 363.967 621.237 364.07 620.649 364.07ZM634.246 364V362.376L634.204 362.11V359.394C634.204 358.769 634.027 358.288 633.672 357.952C633.327 357.616 632.809 357.448 632.118 357.448C631.642 357.448 631.189 357.527 630.76 357.686C630.331 357.845 629.967 358.055 629.668 358.316L629.22 357.574C629.593 357.257 630.041 357.014 630.564 356.846C631.087 356.669 631.637 356.58 632.216 356.58C633.168 356.58 633.901 356.818 634.414 357.294C634.937 357.761 635.198 358.475 635.198 359.436V364H634.246ZM631.712 364.07C631.161 364.07 630.681 363.981 630.27 363.804C629.869 363.617 629.561 363.365 629.346 363.048C629.131 362.721 629.024 362.348 629.024 361.928C629.024 361.545 629.113 361.2 629.29 360.892C629.477 360.575 629.775 360.323 630.186 360.136C630.606 359.94 631.166 359.842 631.866 359.842H634.4V360.584H631.894C631.185 360.584 630.69 360.71 630.41 360.962C630.139 361.214 630.004 361.527 630.004 361.9C630.004 362.32 630.167 362.656 630.494 362.908C630.821 363.16 631.278 363.286 631.866 363.286C632.426 363.286 632.907 363.16 633.308 362.908C633.719 362.647 634.017 362.273 634.204 361.788L634.428 362.474C634.241 362.959 633.915 363.347 633.448 363.636C632.991 363.925 632.412 364.07 631.712 364.07ZM641.692 364.07C641.048 364.07 640.469 363.925 639.956 363.636C639.442 363.337 639.036 362.908 638.738 362.348C638.439 361.788 638.29 361.111 638.29 360.318C638.29 359.515 638.439 358.839 638.738 358.288C639.046 357.728 639.456 357.303 639.97 357.014C640.483 356.725 641.057 356.58 641.692 356.58C642.392 356.58 643.017 356.739 643.568 357.056C644.128 357.364 644.566 357.798 644.884 358.358C645.201 358.918 645.36 359.571 645.36 360.318C645.36 361.055 645.201 361.709 644.884 362.278C644.566 362.838 644.128 363.277 643.568 363.594C643.017 363.911 642.392 364.07 641.692 364.07ZM637.898 364V353.612H638.892V358.82L638.752 360.304L638.85 361.788V364H637.898ZM641.622 363.188C642.144 363.188 642.611 363.071 643.022 362.838C643.432 362.595 643.759 362.259 644.002 361.83C644.244 361.391 644.366 360.887 644.366 360.318C644.366 359.739 644.244 359.235 644.002 358.806C643.759 358.377 643.432 358.045 643.022 357.812C642.611 357.569 642.144 357.448 641.622 357.448C641.099 357.448 640.628 357.569 640.208 357.812C639.797 358.045 639.47 358.377 639.228 358.806C638.994 359.235 638.878 359.739 638.878 360.318C638.878 360.887 638.994 361.391 639.228 361.83C639.47 362.259 639.797 362.595 640.208 362.838C640.628 363.071 641.099 363.188 641.622 363.188ZM647.386 364V356.65H648.338V358.652L648.24 358.302C648.445 357.742 648.791 357.317 649.276 357.028C649.761 356.729 650.363 356.58 651.082 356.58V357.546C651.045 357.546 651.007 357.546 650.97 357.546C650.933 357.537 650.895 357.532 650.858 357.532C650.083 357.532 649.477 357.77 649.038 358.246C648.599 358.713 648.38 359.38 648.38 360.248V364H647.386ZM652.896 364V356.65H653.89V364H652.896ZM653.4 355.026C653.194 355.026 653.022 354.956 652.882 354.816C652.742 354.676 652.672 354.508 652.672 354.312C652.672 354.116 652.742 353.953 652.882 353.822C653.022 353.682 653.194 353.612 653.4 353.612C653.605 353.612 653.778 353.677 653.918 353.808C654.058 353.939 654.128 354.102 654.128 354.298C654.128 354.503 654.058 354.676 653.918 354.816C653.787 354.956 653.614 355.026 653.4 355.026ZM656.656 364V353.612H657.65V364H656.656Z" fill="#313131"/>
</svg>
