<svg width="694" height="378" viewBox="0 0 694 378" fill="none" xmlns="http://www.w3.org/2000/svg">
<rect x="692" y="352" width="20" height="320" transform="rotate(180 692 352)" fill="#BC0051"/>
<rect x="665" y="352" width="20" height="266" transform="rotate(180 665 352)" fill="#214B33"/>
<rect x="638" y="352" width="20" height="254" transform="rotate(180 638 352)" fill="#A2C33D" fill-opacity="0.4"/>
<rect x="611" y="352" width="20" height="248" transform="rotate(180 611 352)" fill="#A2C33D" fill-opacity="0.4"/>
<rect x="584" y="352" width="20" height="240" transform="rotate(180 584 352)" fill="#A2C33D" fill-opacity="0.4"/>
<rect x="557" y="352" width="20" height="226" transform="rotate(180 557 352)" fill="#A2C33D" fill-opacity="0.4"/>
<rect x="530" y="352" width="20" height="220" transform="rotate(180 530 352)" fill="#A2C33D" fill-opacity="0.4"/>
<rect x="503" y="352" width="20" height="200" transform="rotate(180 503 352)" fill="#A2C33D" fill-opacity="0.4"/>
<rect x="476" y="352" width="20" height="196" transform="rotate(180 476 352)" fill="#A2C33D" fill-opacity="0.4"/>
<rect x="449" y="352" width="20" height="184" transform="rotate(180 449 352)" fill="#A2C33D" fill-opacity="0.4"/>
<rect x="422" y="352" width="20" height="184" transform="rotate(180 422 352)" fill="#A2C33D" fill-opacity="0.4"/>
<rect x="395" y="352" width="20" height="176" transform="rotate(180 395 352)" fill="#A2C33D" fill-opacity="0.4"/>
<rect x="368" y="352" width="20" height="172" transform="rotate(180 368 352)" fill="#A2C33D" fill-opacity="0.4"/>
<rect x="341" y="352" width="20" height="172" transform="rotate(180 341 352)" fill="#A2C33D" fill-opacity="0.4"/>
<rect x="314" y="352" width="20" height="152" transform="rotate(180 314 352)" fill="#A2C33D" fill-opacity="0.4"/>
<rect x="287" y="352" width="20" height="144" transform="rotate(180 287 352)" fill="#A2C33D" fill-opacity="0.4"/>
<rect x="260" y="352" width="20" height="140" transform="rotate(180 260 352)" fill="#A2C33D" fill-opacity="0.4"/>
<rect x="233" y="352" width="20" height="126" transform="rotate(180 233 352)" fill="#A2C33D" fill-opacity="0.4"/>
<rect x="206" y="352" width="20" height="120" transform="rotate(180 206 352)" fill="#A2C33D" fill-opacity="0.4"/>
<rect x="179" y="352" width="20" height="100" transform="rotate(180 179 352)" fill="#A2C33D"/>
<path d="M169 87V251.5" stroke="#A2C33D" stroke-width="20" stroke-dasharray="10 10"/>
<path d="M16.032 257.144C14.768 257.144 13.6 256.936 12.528 256.52C11.456 256.088 10.528 255.488 9.744 254.72C8.96 253.952 8.344 253.048 7.896 252.008C7.464 250.968 7.248 249.832 7.248 248.6C7.248 247.368 7.464 246.232 7.896 245.192C8.344 244.152 8.96 243.248 9.744 242.48C10.544 241.712 11.48 241.12 12.552 240.704C13.624 240.272 14.792 240.056 16.056 240.056C17.272 240.056 18.416 240.264 19.488 240.68C20.56 241.08 21.464 241.688 22.2 242.504L21.072 243.632C20.384 242.928 19.624 242.424 18.792 242.12C17.96 241.8 17.064 241.64 16.104 241.64C15.096 241.64 14.16 241.816 13.296 242.168C12.432 242.504 11.68 242.992 11.04 243.632C10.4 244.256 9.896 244.992 9.528 245.84C9.176 246.672 9 247.592 9 248.6C9 249.608 9.176 250.536 9.528 251.384C9.896 252.216 10.4 252.952 11.04 253.592C11.68 254.216 12.432 254.704 13.296 255.056C14.16 255.392 15.096 255.56 16.104 255.56C17.064 255.56 17.96 255.4 18.792 255.08C19.624 254.76 20.384 254.248 21.072 253.544L22.2 254.672C21.464 255.488 20.56 256.104 19.488 256.52C18.416 256.936 17.264 257.144 16.032 257.144ZM30.1995 257.12C28.9835 257.12 27.8875 256.848 26.9115 256.304C25.9515 255.744 25.1915 254.984 24.6315 254.024C24.0715 253.048 23.7915 251.936 23.7915 250.688C23.7915 249.424 24.0715 248.312 24.6315 247.352C25.1915 246.392 25.9515 245.64 26.9115 245.096C27.8715 244.552 28.9675 244.28 30.1995 244.28C31.4475 244.28 32.5515 244.552 33.5115 245.096C34.4875 245.64 35.2475 246.392 35.7915 247.352C36.3515 248.312 36.6315 249.424 36.6315 250.688C36.6315 251.936 36.3515 253.048 35.7915 254.024C35.2475 254.984 34.4875 255.744 33.5115 256.304C32.5355 256.848 31.4315 257.12 30.1995 257.12ZM30.1995 255.608C31.1115 255.608 31.9195 255.408 32.6235 255.008C33.3275 254.592 33.8795 254.016 34.2795 253.28C34.6955 252.528 34.9035 251.664 34.9035 250.688C34.9035 249.696 34.6955 248.832 34.2795 248.096C33.8795 247.36 33.3275 246.792 32.6235 246.392C31.9195 245.976 31.1195 245.768 30.2235 245.768C29.3275 245.768 28.5275 245.976 27.8235 246.392C27.1195 246.792 26.5595 247.36 26.1435 248.096C25.7275 248.832 25.5195 249.696 25.5195 250.688C25.5195 251.664 25.7275 252.528 26.1435 253.28C26.5595 254.016 27.1195 254.592 27.8235 255.008C28.5275 255.408 29.3195 255.608 30.1995 255.608ZM55.8544 244.28C56.8784 244.28 57.7664 244.48 58.5184 244.88C59.2864 245.264 59.8784 245.856 60.2944 246.656C60.7264 247.456 60.9424 248.464 60.9424 249.68V257H59.2384V249.848C59.2384 248.52 58.9184 247.52 58.2784 246.848C57.6544 246.16 56.7664 245.816 55.6144 245.816C54.7504 245.816 53.9984 246 53.3584 246.368C52.7344 246.72 52.2464 247.24 51.8944 247.928C51.5584 248.6 51.3904 249.416 51.3904 250.376V257H49.6864V249.848C49.6864 248.52 49.3664 247.52 48.7264 246.848C48.0864 246.16 47.1904 245.816 46.0384 245.816C45.1904 245.816 44.4464 246 43.8064 246.368C43.1664 246.72 42.6704 247.24 42.3184 247.928C41.9824 248.6 41.8144 249.416 41.8144 250.376V257H40.1104V244.4H41.7424V247.808L41.4784 247.208C41.8624 246.296 42.4784 245.584 43.3264 245.072C44.1904 244.544 45.2064 244.28 46.3744 244.28C47.6064 244.28 48.6544 244.592 49.5184 245.216C50.3824 245.824 50.9424 246.744 51.1984 247.976L50.5264 247.712C50.8944 246.688 51.5424 245.864 52.4704 245.24C53.4144 244.6 54.5424 244.28 55.8544 244.28ZM72.0675 257.12C70.9795 257.12 69.9955 256.872 69.1155 256.376C68.2355 255.864 67.5315 255.136 67.0035 254.192C66.4915 253.232 66.2355 252.064 66.2355 250.688C66.2355 249.312 66.4915 248.152 67.0035 247.208C67.5155 246.248 68.2115 245.52 69.0915 245.024C69.9715 244.528 70.9635 244.28 72.0675 244.28C73.2675 244.28 74.3395 244.552 75.2835 245.096C76.2435 245.624 76.9955 246.376 77.5395 247.352C78.0835 248.312 78.3555 249.424 78.3555 250.688C78.3555 251.968 78.0835 253.088 77.5395 254.048C76.9955 255.008 76.2435 255.76 75.2835 256.304C74.3395 256.848 73.2675 257.12 72.0675 257.12ZM65.5635 261.656V244.4H67.1955V248.192L67.0275 250.712L67.2675 253.256V261.656H65.5635ZM71.9475 255.608C72.8435 255.608 73.6435 255.408 74.3475 255.008C75.0515 254.592 75.6115 254.016 76.0275 253.28C76.4435 252.528 76.6515 251.664 76.6515 250.688C76.6515 249.712 76.4435 248.856 76.0275 248.12C75.6115 247.384 75.0515 246.808 74.3475 246.392C73.6435 245.976 72.8435 245.768 71.9475 245.768C71.0515 245.768 70.2435 245.976 69.5235 246.392C68.8195 246.808 68.2595 247.384 67.8435 248.12C67.4435 248.856 67.2435 249.712 67.2435 250.688C67.2435 251.664 67.4435 252.528 67.8435 253.28C68.2595 254.016 68.8195 254.592 69.5235 255.008C70.2435 255.408 71.0515 255.608 71.9475 255.608ZM81.8291 257V244.4H83.4611V247.832L83.2931 247.232C83.6451 246.272 84.2371 245.544 85.0691 245.048C85.9011 244.536 86.9331 244.28 88.1651 244.28V245.936C88.1011 245.936 88.0371 245.936 87.9731 245.936C87.9091 245.92 87.8451 245.912 87.7811 245.912C86.4531 245.912 85.4131 246.32 84.6611 247.136C83.9091 247.936 83.5331 249.08 83.5331 250.568V257H81.8291ZM98.2329 257V254.216L98.1609 253.76V249.104C98.1609 248.032 97.8569 247.208 97.2489 246.632C96.6569 246.056 95.7689 245.768 94.5849 245.768C93.7689 245.768 92.9929 245.904 92.2569 246.176C91.5209 246.448 90.8969 246.808 90.3849 247.256L89.6169 245.984C90.2569 245.44 91.0249 245.024 91.9209 244.736C92.8169 244.432 93.7609 244.28 94.7529 244.28C96.3849 244.28 97.6409 244.688 98.5209 245.504C99.4169 246.304 99.8649 247.528 99.8649 249.176V257H98.2329ZM93.8889 257.12C92.9449 257.12 92.1209 256.968 91.4169 256.664C90.7289 256.344 90.2009 255.912 89.8329 255.368C89.4649 254.808 89.2809 254.168 89.2809 253.448C89.2809 252.792 89.4329 252.2 89.7369 251.672C90.0569 251.128 90.5689 250.696 91.2729 250.376C91.9929 250.04 92.9529 249.872 94.1529 249.872H98.4969V251.144H94.2009C92.9849 251.144 92.1369 251.36 91.6569 251.792C91.1929 252.224 90.9609 252.76 90.9609 253.4C90.9609 254.12 91.2409 254.696 91.8009 255.128C92.3609 255.56 93.1449 255.776 94.1529 255.776C95.1129 255.776 95.9369 255.56 96.6249 255.128C97.3289 254.68 97.8409 254.04 98.1609 253.208L98.5449 254.384C98.2249 255.216 97.6649 255.88 96.8649 256.376C96.0809 256.872 95.0889 257.12 93.8889 257.12ZM107.877 257.12C106.837 257.12 105.853 256.976 104.925 256.688C103.997 256.384 103.269 256.008 102.741 255.56L103.509 254.216C104.021 254.6 104.677 254.936 105.477 255.224C106.277 255.496 107.117 255.632 107.997 255.632C109.197 255.632 110.061 255.448 110.589 255.08C111.117 254.696 111.381 254.192 111.381 253.568C111.381 253.104 111.229 252.744 110.925 252.488C110.637 252.216 110.253 252.016 109.773 251.888C109.293 251.744 108.757 251.624 108.165 251.528C107.573 251.432 106.981 251.32 106.389 251.192C105.813 251.064 105.285 250.88 104.805 250.64C104.325 250.384 103.933 250.04 103.629 249.608C103.341 249.176 103.197 248.6 103.197 247.88C103.197 247.192 103.389 246.576 103.773 246.032C104.157 245.488 104.717 245.064 105.453 244.76C106.205 244.44 107.117 244.28 108.189 244.28C109.005 244.28 109.821 244.392 110.637 244.616C111.453 244.824 112.125 245.104 112.653 245.456L111.909 246.824C111.349 246.44 110.749 246.168 110.109 246.008C109.469 245.832 108.829 245.744 108.189 245.744C107.053 245.744 106.213 245.944 105.669 246.344C105.141 246.728 104.877 247.224 104.877 247.832C104.877 248.312 105.021 248.688 105.309 248.96C105.613 249.232 106.005 249.448 106.485 249.608C106.981 249.752 107.517 249.872 108.093 249.968C108.685 250.064 109.269 250.184 109.845 250.328C110.437 250.456 110.973 250.64 111.453 250.88C111.949 251.104 112.341 251.432 112.629 251.864C112.933 252.28 113.085 252.832 113.085 253.52C113.085 254.256 112.877 254.896 112.461 255.44C112.061 255.968 111.469 256.384 110.685 256.688C109.917 256.976 108.981 257.12 107.877 257.12ZM8.664 289V274.816C8.664 273.696 8.992 272.792 9.648 272.104C10.304 271.416 11.248 271.072 12.48 271.072C12.96 271.072 13.424 271.136 13.872 271.264C14.32 271.392 14.696 271.592 15 271.864L14.424 273.136C14.184 272.928 13.904 272.776 13.584 272.68C13.264 272.568 12.92 272.512 12.552 272.512C11.832 272.512 11.28 272.712 10.896 273.112C10.512 273.512 10.32 274.104 10.32 274.888V276.808L10.368 277.6V289H8.664ZM6.408 277.816V276.4H14.208V277.816H6.408ZM21.7168 289.12C20.6448 289.12 19.7088 288.92 18.9088 288.52C18.1088 288.12 17.4848 287.52 17.0368 286.72C16.6048 285.92 16.3888 284.92 16.3888 283.72V276.4H18.0928V283.528C18.0928 284.872 18.4208 285.888 19.0768 286.576C19.7488 287.248 20.6848 287.584 21.8848 287.584C22.7648 287.584 23.5248 287.408 24.1648 287.056C24.8208 286.688 25.3168 286.16 25.6528 285.472C26.0048 284.784 26.1808 283.96 26.1808 283V276.4H27.8848V289H26.2528V285.544L26.5168 286.168C26.1168 287.096 25.4928 287.824 24.6448 288.352C23.8128 288.864 22.8368 289.12 21.7168 289.12ZM36.6178 289.12C35.4338 289.12 34.5218 288.8 33.8818 288.16C33.2418 287.52 32.9218 286.616 32.9218 285.448V273.616H34.6258V285.352C34.6258 286.088 34.8098 286.656 35.1778 287.056C35.5618 287.456 36.1058 287.656 36.8098 287.656C37.5618 287.656 38.1858 287.44 38.6818 287.008L39.2818 288.232C38.9458 288.536 38.5378 288.76 38.0578 288.904C37.5938 289.048 37.1138 289.12 36.6178 289.12ZM30.6658 277.816V276.4H38.4658V277.816H30.6658ZM47.5918 289.12C46.5198 289.12 45.5838 288.92 44.7838 288.52C43.9838 288.12 43.3598 287.52 42.9118 286.72C42.4798 285.92 42.2638 284.92 42.2638 283.72V276.4H43.9678V283.528C43.9678 284.872 44.2958 285.888 44.9518 286.576C45.6238 287.248 46.5598 287.584 47.7598 287.584C48.6398 287.584 49.3998 287.408 50.0398 287.056C50.6958 286.688 51.1918 286.16 51.5278 285.472C51.8798 284.784 52.0558 283.96 52.0558 283V276.4H53.7598V289H52.1278V285.544L52.3918 286.168C51.9918 287.096 51.3678 287.824 50.5198 288.352C49.6878 288.864 48.7118 289.12 47.5918 289.12ZM58.5088 289V276.4H60.1408V279.832L59.9728 279.232C60.3248 278.272 60.9168 277.544 61.7488 277.048C62.5808 276.536 63.6128 276.28 64.8448 276.28V277.936C64.7808 277.936 64.7168 277.936 64.6528 277.936C64.5888 277.92 64.5248 277.912 64.4608 277.912C63.1328 277.912 62.0928 278.32 61.3408 279.136C60.5888 279.936 60.2128 281.08 60.2128 282.568V289H58.5088ZM72.9729 289.12C71.7569 289.12 70.6609 288.848 69.6849 288.304C68.7249 287.744 67.9649 286.984 67.4049 286.024C66.8449 285.048 66.5649 283.936 66.5649 282.688C66.5649 281.424 66.8449 280.312 67.4049 279.352C67.9649 278.392 68.7249 277.64 69.6849 277.096C70.6449 276.552 71.7409 276.28 72.9729 276.28C74.2209 276.28 75.3249 276.552 76.2849 277.096C77.2609 277.64 78.0209 278.392 78.5649 279.352C79.1249 280.312 79.4049 281.424 79.4049 282.688C79.4049 283.936 79.1249 285.048 78.5649 286.024C78.0209 286.984 77.2609 287.744 76.2849 288.304C75.3089 288.848 74.2049 289.12 72.9729 289.12ZM72.9729 287.608C73.8849 287.608 74.6929 287.408 75.3969 287.008C76.1009 286.592 76.6529 286.016 77.0529 285.28C77.4689 284.528 77.6769 283.664 77.6769 282.688C77.6769 281.696 77.4689 280.832 77.0529 280.096C76.6529 279.36 76.1009 278.792 75.3969 278.392C74.6929 277.976 73.8929 277.768 72.9969 277.768C72.1009 277.768 71.3009 277.976 70.5969 278.392C69.8929 278.792 69.3329 279.36 68.9169 280.096C68.5009 280.832 68.2929 281.696 68.2929 282.688C68.2929 283.664 68.5009 284.528 68.9169 285.28C69.3329 286.016 69.8929 286.592 70.5969 287.008C71.3009 287.408 72.0929 287.608 72.9729 287.608ZM86.2678 289.12C85.2278 289.12 84.2438 288.976 83.3158 288.688C82.3878 288.384 81.6598 288.008 81.1318 287.56L81.8998 286.216C82.4118 286.6 83.0678 286.936 83.8678 287.224C84.6678 287.496 85.5078 287.632 86.3878 287.632C87.5878 287.632 88.4518 287.448 88.9798 287.08C89.5078 286.696 89.7718 286.192 89.7718 285.568C89.7718 285.104 89.6198 284.744 89.3158 284.488C89.0278 284.216 88.6438 284.016 88.1638 283.888C87.6838 283.744 87.1478 283.624 86.5558 283.528C85.9638 283.432 85.3718 283.32 84.7798 283.192C84.2038 283.064 83.6758 282.88 83.1958 282.64C82.7158 282.384 82.3238 282.04 82.0198 281.608C81.7318 281.176 81.5878 280.6 81.5878 279.88C81.5878 279.192 81.7798 278.576 82.1638 278.032C82.5478 277.488 83.1078 277.064 83.8438 276.76C84.5958 276.44 85.5078 276.28 86.5798 276.28C87.3958 276.28 88.2118 276.392 89.0278 276.616C89.8438 276.824 90.5158 277.104 91.0438 277.456L90.2998 278.824C89.7398 278.44 89.1398 278.168 88.4998 278.008C87.8598 277.832 87.2198 277.744 86.5798 277.744C85.4438 277.744 84.6038 277.944 84.0598 278.344C83.5318 278.728 83.2678 279.224 83.2678 279.832C83.2678 280.312 83.4118 280.688 83.6998 280.96C84.0038 281.232 84.3958 281.448 84.8758 281.608C85.3718 281.752 85.9078 281.872 86.4838 281.968C87.0758 282.064 87.6598 282.184 88.2358 282.328C88.8278 282.456 89.3638 282.64 89.8438 282.88C90.3398 283.104 90.7318 283.432 91.0198 283.864C91.3238 284.28 91.4758 284.832 91.4758 285.52C91.4758 286.256 91.2678 286.896 90.8518 287.44C90.4518 287.968 89.8598 288.384 89.0758 288.688C88.3078 288.976 87.3718 289.12 86.2678 289.12ZM108.78 289V286.216L108.708 285.76V281.104C108.708 280.032 108.404 279.208 107.796 278.632C107.204 278.056 106.316 277.768 105.132 277.768C104.316 277.768 103.54 277.904 102.804 278.176C102.068 278.448 101.444 278.808 100.932 279.256L100.164 277.984C100.804 277.44 101.572 277.024 102.468 276.736C103.364 276.432 104.308 276.28 105.3 276.28C106.932 276.28 108.188 276.688 109.068 277.504C109.964 278.304 110.412 279.528 110.412 281.176V289H108.78ZM104.436 289.12C103.492 289.12 102.668 288.968 101.964 288.664C101.276 288.344 100.748 287.912 100.38 287.368C100.012 286.808 99.8278 286.168 99.8278 285.448C99.8278 284.792 99.9798 284.2 100.284 283.672C100.604 283.128 101.116 282.696 101.82 282.376C102.54 282.04 103.5 281.872 104.7 281.872H109.044V283.144H104.748C103.532 283.144 102.684 283.36 102.204 283.792C101.74 284.224 101.508 284.76 101.508 285.4C101.508 286.12 101.788 286.696 102.348 287.128C102.908 287.56 103.692 287.776 104.7 287.776C105.66 287.776 106.484 287.56 107.172 287.128C107.876 286.68 108.388 286.04 108.708 285.208L109.092 286.384C108.772 287.216 108.212 287.88 107.412 288.376C106.628 288.872 105.636 289.12 104.436 289.12ZM13.728 321.12C12.416 321.12 11.264 320.848 10.272 320.304C9.28 319.744 8.504 318.984 7.944 318.024C7.384 317.048 7.104 315.936 7.104 314.688C7.104 313.44 7.368 312.336 7.896 311.376C8.44 310.416 9.176 309.664 10.104 309.12C11.048 308.56 12.104 308.28 13.272 308.28C14.456 308.28 15.504 308.552 16.416 309.096C17.344 309.624 18.072 310.376 18.6 311.352C19.128 312.312 19.392 313.424 19.392 314.688C19.392 314.768 19.384 314.856 19.368 314.952C19.368 315.032 19.368 315.12 19.368 315.216H8.4V313.944H18.456L17.784 314.448C17.784 313.536 17.584 312.728 17.184 312.024C16.8 311.304 16.272 310.744 15.6 310.344C14.928 309.944 14.152 309.744 13.272 309.744C12.408 309.744 11.632 309.944 10.944 310.344C10.256 310.744 9.72 311.304 9.336 312.024C8.952 312.744 8.76 313.568 8.76 314.496V314.76C8.76 315.72 8.968 316.568 9.384 317.304C9.816 318.024 10.408 318.592 11.16 319.008C11.928 319.408 12.8 319.608 13.776 319.608C14.544 319.608 15.256 319.472 15.912 319.2C16.584 318.928 17.16 318.512 17.64 317.952L18.6 319.056C18.04 319.728 17.336 320.24 16.488 320.592C15.656 320.944 14.736 321.12 13.728 321.12ZM26.2444 321.12C25.2044 321.12 24.2204 320.976 23.2924 320.688C22.3644 320.384 21.6364 320.008 21.1084 319.56L21.8764 318.216C22.3884 318.6 23.0444 318.936 23.8444 319.224C24.6444 319.496 25.4844 319.632 26.3644 319.632C27.5644 319.632 28.4284 319.448 28.9564 319.08C29.4844 318.696 29.7484 318.192 29.7484 317.568C29.7484 317.104 29.5964 316.744 29.2924 316.488C29.0044 316.216 28.6204 316.016 28.1404 315.888C27.6604 315.744 27.1244 315.624 26.5324 315.528C25.9404 315.432 25.3484 315.32 24.7564 315.192C24.1804 315.064 23.6524 314.88 23.1724 314.64C22.6924 314.384 22.3004 314.04 21.9964 313.608C21.7084 313.176 21.5644 312.6 21.5644 311.88C21.5644 311.192 21.7564 310.576 22.1404 310.032C22.5244 309.488 23.0844 309.064 23.8204 308.76C24.5724 308.44 25.4844 308.28 26.5564 308.28C27.3724 308.28 28.1884 308.392 29.0044 308.616C29.8204 308.824 30.4924 309.104 31.0204 309.456L30.2764 310.824C29.7164 310.44 29.1164 310.168 28.4764 310.008C27.8364 309.832 27.1964 309.744 26.5564 309.744C25.4204 309.744 24.5804 309.944 24.0364 310.344C23.5084 310.728 23.2444 311.224 23.2444 311.832C23.2444 312.312 23.3884 312.688 23.6764 312.96C23.9804 313.232 24.3724 313.448 24.8524 313.608C25.3484 313.752 25.8844 313.872 26.4604 313.968C27.0524 314.064 27.6364 314.184 28.2124 314.328C28.8044 314.456 29.3404 314.64 29.8204 314.88C30.3164 315.104 30.7084 315.432 30.9964 315.864C31.3004 316.28 31.4524 316.832 31.4524 317.52C31.4524 318.256 31.2444 318.896 30.8284 319.44C30.4284 319.968 29.8364 320.384 29.0524 320.688C28.2844 320.976 27.3484 321.12 26.2444 321.12ZM38.5631 321.12C37.3791 321.12 36.4671 320.8 35.8271 320.16C35.1871 319.52 34.8671 318.616 34.8671 317.448V305.616H36.5711V317.352C36.5711 318.088 36.7551 318.656 37.1231 319.056C37.5071 319.456 38.0511 319.656 38.7551 319.656C39.5071 319.656 40.1311 319.44 40.6271 319.008L41.2271 320.232C40.8911 320.536 40.4831 320.76 40.0031 320.904C39.5391 321.048 39.0591 321.12 38.5631 321.12ZM32.6111 309.816V308.4H40.4111V309.816H32.6111ZM49.2358 321.12C47.9238 321.12 46.7718 320.848 45.7798 320.304C44.7878 319.744 44.0118 318.984 43.4518 318.024C42.8918 317.048 42.6118 315.936 42.6118 314.688C42.6118 313.44 42.8758 312.336 43.4038 311.376C43.9478 310.416 44.6838 309.664 45.6118 309.12C46.5558 308.56 47.6118 308.28 48.7798 308.28C49.9638 308.28 51.0118 308.552 51.9238 309.096C52.8518 309.624 53.5798 310.376 54.1078 311.352C54.6358 312.312 54.8998 313.424 54.8998 314.688C54.8998 314.768 54.8918 314.856 54.8758 314.952C54.8758 315.032 54.8758 315.12 54.8758 315.216H43.9078V313.944H53.9638L53.2918 314.448C53.2918 313.536 53.0918 312.728 52.6918 312.024C52.3078 311.304 51.7798 310.744 51.1078 310.344C50.4358 309.944 49.6598 309.744 48.7798 309.744C47.9158 309.744 47.1398 309.944 46.4518 310.344C45.7638 310.744 45.2278 311.304 44.8438 312.024C44.4598 312.744 44.2678 313.568 44.2678 314.496V314.76C44.2678 315.72 44.4758 316.568 44.8918 317.304C45.3238 318.024 45.9158 318.592 46.6678 319.008C47.4358 319.408 48.3078 319.608 49.2838 319.608C50.0518 319.608 50.7638 319.472 51.4198 319.2C52.0918 318.928 52.6678 318.512 53.1478 317.952L54.1078 319.056C53.5478 319.728 52.8438 320.24 51.9958 320.592C51.1638 320.944 50.2438 321.12 49.2358 321.12ZM71.1534 321.12C70.0654 321.12 69.0814 320.872 68.2014 320.376C67.3214 319.864 66.6174 319.136 66.0894 318.192C65.5774 317.232 65.3214 316.064 65.3214 314.688C65.3214 313.312 65.5774 312.152 66.0894 311.208C66.6014 310.248 67.2974 309.52 68.1774 309.024C69.0574 308.528 70.0494 308.28 71.1534 308.28C72.3534 308.28 73.4254 308.552 74.3694 309.096C75.3294 309.624 76.0814 310.376 76.6254 311.352C77.1694 312.312 77.4414 313.424 77.4414 314.688C77.4414 315.968 77.1694 317.088 76.6254 318.048C76.0814 319.008 75.3294 319.76 74.3694 320.304C73.4254 320.848 72.3534 321.12 71.1534 321.12ZM64.6494 325.656V308.4H66.2814V312.192L66.1134 314.712L66.3534 317.256V325.656H64.6494ZM71.0334 319.608C71.9294 319.608 72.7294 319.408 73.4334 319.008C74.1374 318.592 74.6974 318.016 75.1134 317.28C75.5294 316.528 75.7374 315.664 75.7374 314.688C75.7374 313.712 75.5294 312.856 75.1134 312.12C74.6974 311.384 74.1374 310.808 73.4334 310.392C72.7294 309.976 71.9294 309.768 71.0334 309.768C70.1374 309.768 69.3294 309.976 68.6094 310.392C67.9054 310.808 67.3454 311.384 66.9294 312.12C66.5294 312.856 66.3294 313.712 66.3294 314.688C66.3294 315.664 66.5294 316.528 66.9294 317.28C67.3454 318.016 67.9054 318.592 68.6094 319.008C69.3294 319.408 70.1374 319.608 71.0334 319.608ZM80.9151 321V308.4H82.5471V311.832L82.3791 311.232C82.7311 310.272 83.3231 309.544 84.1551 309.048C84.9871 308.536 86.0191 308.28 87.2511 308.28V309.936C87.1871 309.936 87.1231 309.936 87.0591 309.936C86.9951 309.92 86.9311 309.912 86.8671 309.912C85.5391 309.912 84.4991 310.32 83.7471 311.136C82.9951 311.936 82.6191 313.08 82.6191 314.568V321H80.9151ZM95.5952 321.12C94.2832 321.12 93.1312 320.848 92.1392 320.304C91.1472 319.744 90.3712 318.984 89.8112 318.024C89.2512 317.048 88.9712 315.936 88.9712 314.688C88.9712 313.44 89.2352 312.336 89.7632 311.376C90.3072 310.416 91.0432 309.664 91.9712 309.12C92.9152 308.56 93.9712 308.28 95.1392 308.28C96.3232 308.28 97.3712 308.552 98.2832 309.096C99.2112 309.624 99.9392 310.376 100.467 311.352C100.995 312.312 101.259 313.424 101.259 314.688C101.259 314.768 101.251 314.856 101.235 314.952C101.235 315.032 101.235 315.12 101.235 315.216H90.2672V313.944H100.323L99.6512 314.448C99.6512 313.536 99.4512 312.728 99.0512 312.024C98.6672 311.304 98.1392 310.744 97.4672 310.344C96.7952 309.944 96.0192 309.744 95.1392 309.744C94.2752 309.744 93.4992 309.944 92.8112 310.344C92.1232 310.744 91.5872 311.304 91.2032 312.024C90.8192 312.744 90.6272 313.568 90.6272 314.496V314.76C90.6272 315.72 90.8352 316.568 91.2512 317.304C91.6832 318.024 92.2752 318.592 93.0272 319.008C93.7952 319.408 94.6672 319.608 95.6432 319.608C96.4112 319.608 97.1232 319.472 97.7792 319.2C98.4512 318.928 99.0272 318.512 99.5072 317.952L100.467 319.056C99.9072 319.728 99.2032 320.24 98.3552 320.592C97.5232 320.944 96.6032 321.12 95.5952 321.12ZM109.96 321.12C108.712 321.12 107.592 320.848 106.6 320.304C105.624 319.744 104.856 318.984 104.296 318.024C103.736 317.048 103.456 315.936 103.456 314.688C103.456 313.424 103.736 312.312 104.296 311.352C104.856 310.392 105.624 309.64 106.6 309.096C107.592 308.552 108.712 308.28 109.96 308.28C111.032 308.28 112 308.488 112.864 308.904C113.728 309.32 114.408 309.944 114.904 310.776L113.632 311.64C113.2 311 112.664 310.528 112.024 310.224C111.384 309.92 110.688 309.768 109.936 309.768C109.04 309.768 108.232 309.976 107.512 310.392C106.792 310.792 106.224 311.36 105.808 312.096C105.392 312.832 105.184 313.696 105.184 314.688C105.184 315.68 105.392 316.544 105.808 317.28C106.224 318.016 106.792 318.592 107.512 319.008C108.232 319.408 109.04 319.608 109.936 319.608C110.688 319.608 111.384 319.456 112.024 319.152C112.664 318.848 113.2 318.384 113.632 317.76L114.904 318.624C114.408 319.44 113.728 320.064 112.864 320.496C112 320.912 111.032 321.12 109.96 321.12ZM118.064 321V308.4H119.768V321H118.064ZM118.928 305.616C118.576 305.616 118.28 305.496 118.04 305.256C117.8 305.016 117.68 304.728 117.68 304.392C117.68 304.056 117.8 303.776 118.04 303.552C118.28 303.312 118.576 303.192 118.928 303.192C119.28 303.192 119.576 303.304 119.816 303.528C120.056 303.752 120.176 304.032 120.176 304.368C120.176 304.72 120.056 305.016 119.816 305.256C119.592 305.496 119.296 305.616 118.928 305.616ZM129.645 321.12C128.429 321.12 127.333 320.848 126.357 320.304C125.397 319.744 124.637 318.984 124.077 318.024C123.517 317.048 123.237 315.936 123.237 314.688C123.237 313.424 123.517 312.312 124.077 311.352C124.637 310.392 125.397 309.64 126.357 309.096C127.317 308.552 128.413 308.28 129.645 308.28C130.893 308.28 131.997 308.552 132.957 309.096C133.933 309.64 134.693 310.392 135.237 311.352C135.797 312.312 136.077 313.424 136.077 314.688C136.077 315.936 135.797 317.048 135.237 318.024C134.693 318.984 133.933 319.744 132.957 320.304C131.981 320.848 130.877 321.12 129.645 321.12ZM129.645 319.608C130.557 319.608 131.365 319.408 132.069 319.008C132.773 318.592 133.325 318.016 133.725 317.28C134.141 316.528 134.349 315.664 134.349 314.688C134.349 313.696 134.141 312.832 133.725 312.096C133.325 311.36 132.773 310.792 132.069 310.392C131.365 309.976 130.565 309.768 129.669 309.768C128.773 309.768 127.973 309.976 127.269 310.392C126.565 310.792 126.005 311.36 125.589 312.096C125.173 312.832 124.965 313.696 124.965 314.688C124.965 315.664 125.173 316.528 125.589 317.28C126.005 318.016 126.565 318.592 127.269 319.008C127.973 319.408 128.765 319.608 129.645 319.608Z" fill="#A2C33D"/>
<path d="M122 252H162" stroke="#A2C33D"/>
<path d="M336 86H666" stroke="#214B33"/>
<path d="M12.512 83L5.072 66.2H6.992L13.952 82.016H12.896L19.904 66.2H21.704L14.264 83H12.512ZM28.1733 83.12C26.8613 83.12 25.7093 82.848 24.7173 82.304C23.7253 81.744 22.9493 80.984 22.3893 80.024C21.8293 79.048 21.5493 77.936 21.5493 76.688C21.5493 75.44 21.8133 74.336 22.3413 73.376C22.8853 72.416 23.6213 71.664 24.5493 71.12C25.4933 70.56 26.5493 70.28 27.7173 70.28C28.9013 70.28 29.9493 70.552 30.8613 71.096C31.7893 71.624 32.5173 72.376 33.0453 73.352C33.5733 74.312 33.8373 75.424 33.8373 76.688C33.8373 76.768 33.8293 76.856 33.8133 76.952C33.8133 77.032 33.8133 77.12 33.8133 77.216H22.8453V75.944H32.9013L32.2293 76.448C32.2293 75.536 32.0293 74.728 31.6293 74.024C31.2453 73.304 30.7173 72.744 30.0453 72.344C29.3733 71.944 28.5973 71.744 27.7173 71.744C26.8533 71.744 26.0773 71.944 25.3893 72.344C24.7013 72.744 24.1653 73.304 23.7813 74.024C23.3973 74.744 23.2053 75.568 23.2053 76.496V76.76C23.2053 77.72 23.4133 78.568 23.8293 79.304C24.2613 80.024 24.8533 80.592 25.6053 81.008C26.3733 81.408 27.2453 81.608 28.2213 81.608C28.9893 81.608 29.7013 81.472 30.3573 81.2C31.0293 80.928 31.6053 80.512 32.0853 79.952L33.0453 81.056C32.4853 81.728 31.7813 82.24 30.9333 82.592C30.1013 82.944 29.1813 83.12 28.1733 83.12ZM43.7377 70.28C44.7617 70.28 45.6577 70.48 46.4257 70.88C47.2097 71.264 47.8177 71.856 48.2497 72.656C48.6977 73.456 48.9217 74.464 48.9217 75.68V83H47.2177V75.848C47.2177 74.52 46.8817 73.52 46.2097 72.848C45.5537 72.16 44.6257 71.816 43.4257 71.816C42.5297 71.816 41.7457 72 41.0737 72.368C40.4177 72.72 39.9057 73.24 39.5377 73.928C39.1857 74.6 39.0097 75.416 39.0097 76.376V83H37.3057V70.4H38.9377V73.856L38.6737 73.208C39.0737 72.296 39.7137 71.584 40.5937 71.072C41.4737 70.544 42.5217 70.28 43.7377 70.28ZM58.5404 83.12C57.3404 83.12 56.2604 82.848 55.3004 82.304C54.3564 81.76 53.6124 81.008 53.0684 80.048C52.5244 79.072 52.2524 77.952 52.2524 76.688C52.2524 75.408 52.5244 74.288 53.0684 73.328C53.6124 72.368 54.3564 71.624 55.3004 71.096C56.2604 70.552 57.3404 70.28 58.5404 70.28C59.6444 70.28 60.6284 70.528 61.4924 71.024C62.3724 71.52 63.0684 72.248 63.5804 73.208C64.1084 74.152 64.3724 75.312 64.3724 76.688C64.3724 78.048 64.1164 79.208 63.6044 80.168C63.0924 81.128 62.3964 81.864 61.5164 82.376C60.6524 82.872 59.6604 83.12 58.5404 83.12ZM58.6604 81.608C59.5564 81.608 60.3564 81.408 61.0604 81.008C61.7804 80.592 62.3404 80.016 62.7404 79.28C63.1564 78.528 63.3644 77.664 63.3644 76.688C63.3644 75.696 63.1564 74.832 62.7404 74.096C62.3404 73.36 61.7804 72.792 61.0604 72.392C60.3564 71.976 59.5564 71.768 58.6604 71.768C57.7804 71.768 56.9884 71.976 56.2844 72.392C55.5804 72.792 55.0204 73.36 54.6044 74.096C54.1884 74.832 53.9804 75.696 53.9804 76.688C53.9804 77.664 54.1884 78.528 54.6044 79.28C55.0204 80.016 55.5804 80.592 56.2844 81.008C56.9884 81.408 57.7804 81.608 58.6604 81.608ZM63.4124 83V79.208L63.5804 76.664L63.3404 74.12V65.192H65.0444V83H63.4124ZM75.1421 83.12C73.8301 83.12 72.6781 82.848 71.6861 82.304C70.6941 81.744 69.9181 80.984 69.3581 80.024C68.7981 79.048 68.5181 77.936 68.5181 76.688C68.5181 75.44 68.7821 74.336 69.3101 73.376C69.8541 72.416 70.5901 71.664 71.5181 71.12C72.4621 70.56 73.5181 70.28 74.6861 70.28C75.8701 70.28 76.9181 70.552 77.8301 71.096C78.7581 71.624 79.4861 72.376 80.0141 73.352C80.5421 74.312 80.8061 75.424 80.8061 76.688C80.8061 76.768 80.7981 76.856 80.7821 76.952C80.7821 77.032 80.7821 77.12 80.7821 77.216H69.8141V75.944H79.8701L79.1981 76.448C79.1981 75.536 78.9981 74.728 78.5981 74.024C78.2141 73.304 77.6861 72.744 77.0141 72.344C76.3421 71.944 75.5661 71.744 74.6861 71.744C73.8221 71.744 73.0461 71.944 72.3581 72.344C71.6701 72.744 71.1341 73.304 70.7501 74.024C70.3661 74.744 70.1741 75.568 70.1741 76.496V76.76C70.1741 77.72 70.3821 78.568 70.7981 79.304C71.2301 80.024 71.8221 80.592 72.5741 81.008C73.3421 81.408 74.2141 81.608 75.1901 81.608C75.9581 81.608 76.6701 81.472 77.3261 81.2C77.9981 80.928 78.5741 80.512 79.0541 79.952L80.0141 81.056C79.4541 81.728 78.7501 82.24 77.9021 82.592C77.0701 82.944 76.1501 83.12 75.1421 83.12ZM87.6584 83.12C86.6184 83.12 85.6344 82.976 84.7064 82.688C83.7784 82.384 83.0504 82.008 82.5224 81.56L83.2904 80.216C83.8024 80.6 84.4584 80.936 85.2584 81.224C86.0584 81.496 86.8984 81.632 87.7784 81.632C88.9784 81.632 89.8424 81.448 90.3704 81.08C90.8984 80.696 91.1624 80.192 91.1624 79.568C91.1624 79.104 91.0104 78.744 90.7064 78.488C90.4184 78.216 90.0344 78.016 89.5544 77.888C89.0744 77.744 88.5384 77.624 87.9464 77.528C87.3544 77.432 86.7624 77.32 86.1704 77.192C85.5944 77.064 85.0664 76.88 84.5864 76.64C84.1064 76.384 83.7144 76.04 83.4104 75.608C83.1224 75.176 82.9784 74.6 82.9784 73.88C82.9784 73.192 83.1704 72.576 83.5544 72.032C83.9384 71.488 84.4984 71.064 85.2344 70.76C85.9864 70.44 86.8984 70.28 87.9704 70.28C88.7864 70.28 89.6024 70.392 90.4184 70.616C91.2344 70.824 91.9064 71.104 92.4344 71.456L91.6904 72.824C91.1304 72.44 90.5304 72.168 89.8904 72.008C89.2504 71.832 88.6104 71.744 87.9704 71.744C86.8344 71.744 85.9944 71.944 85.4504 72.344C84.9224 72.728 84.6584 73.224 84.6584 73.832C84.6584 74.312 84.8024 74.688 85.0904 74.96C85.3944 75.232 85.7864 75.448 86.2664 75.608C86.7624 75.752 87.2984 75.872 87.8744 75.968C88.4664 76.064 89.0504 76.184 89.6264 76.328C90.2184 76.456 90.7544 76.64 91.2344 76.88C91.7304 77.104 92.1224 77.432 92.4104 77.864C92.7144 78.28 92.8664 78.832 92.8664 79.52C92.8664 80.256 92.6584 80.896 92.2424 81.44C91.8424 81.968 91.2504 82.384 90.4664 82.688C89.6984 82.976 88.7624 83.12 87.6584 83.12ZM102.562 83V68.816C102.562 67.696 102.89 66.792 103.546 66.104C104.202 65.416 105.146 65.072 106.378 65.072C106.858 65.072 107.322 65.136 107.77 65.264C108.218 65.392 108.594 65.592 108.898 65.864L108.322 67.136C108.082 66.928 107.802 66.776 107.482 66.68C107.162 66.568 106.818 66.512 106.45 66.512C105.73 66.512 105.178 66.712 104.794 67.112C104.41 67.512 104.218 68.104 104.218 68.888V70.808L104.266 71.6V83H102.562ZM100.306 71.816V70.4H108.106V71.816H100.306ZM115.615 83.12C114.543 83.12 113.607 82.92 112.807 82.52C112.007 82.12 111.383 81.52 110.935 80.72C110.503 79.92 110.287 78.92 110.287 77.72V70.4H111.991V77.528C111.991 78.872 112.319 79.888 112.975 80.576C113.647 81.248 114.583 81.584 115.783 81.584C116.663 81.584 117.423 81.408 118.063 81.056C118.719 80.688 119.215 80.16 119.551 79.472C119.903 78.784 120.079 77.96 120.079 77V70.4H121.783V83H120.151V79.544L120.415 80.168C120.015 81.096 119.391 81.824 118.543 82.352C117.711 82.864 116.735 83.12 115.615 83.12ZM130.516 83.12C129.332 83.12 128.42 82.8 127.78 82.16C127.14 81.52 126.82 80.616 126.82 79.448V67.616H128.524V79.352C128.524 80.088 128.708 80.656 129.076 81.056C129.46 81.456 130.004 81.656 130.708 81.656C131.46 81.656 132.084 81.44 132.58 81.008L133.18 82.232C132.844 82.536 132.436 82.76 131.956 82.904C131.492 83.048 131.012 83.12 130.516 83.12ZM124.564 71.816V70.4H132.364V71.816H124.564ZM141.49 83.12C140.418 83.12 139.482 82.92 138.682 82.52C137.882 82.12 137.258 81.52 136.81 80.72C136.378 79.92 136.162 78.92 136.162 77.72V70.4H137.866V77.528C137.866 78.872 138.194 79.888 138.85 80.576C139.522 81.248 140.458 81.584 141.658 81.584C142.538 81.584 143.298 81.408 143.938 81.056C144.594 80.688 145.09 80.16 145.426 79.472C145.778 78.784 145.954 77.96 145.954 77V70.4H147.658V83H146.026V79.544L146.29 80.168C145.89 81.096 145.266 81.824 144.418 82.352C143.586 82.864 142.61 83.12 141.49 83.12ZM152.407 83V70.4H154.039V73.832L153.871 73.232C154.223 72.272 154.815 71.544 155.647 71.048C156.479 70.536 157.511 70.28 158.743 70.28V71.936C158.679 71.936 158.615 71.936 158.551 71.936C158.487 71.92 158.423 71.912 158.359 71.912C157.031 71.912 155.991 72.32 155.239 73.136C154.487 73.936 154.111 75.08 154.111 76.568V83H152.407ZM166.871 83.12C165.655 83.12 164.559 82.848 163.583 82.304C162.623 81.744 161.863 80.984 161.303 80.024C160.743 79.048 160.463 77.936 160.463 76.688C160.463 75.424 160.743 74.312 161.303 73.352C161.863 72.392 162.623 71.64 163.583 71.096C164.543 70.552 165.639 70.28 166.871 70.28C168.119 70.28 169.223 70.552 170.183 71.096C171.159 71.64 171.919 72.392 172.463 73.352C173.023 74.312 173.303 75.424 173.303 76.688C173.303 77.936 173.023 79.048 172.463 80.024C171.919 80.984 171.159 81.744 170.183 82.304C169.207 82.848 168.103 83.12 166.871 83.12ZM166.871 81.608C167.783 81.608 168.591 81.408 169.295 81.008C169.999 80.592 170.551 80.016 170.951 79.28C171.367 78.528 171.575 77.664 171.575 76.688C171.575 75.696 171.367 74.832 170.951 74.096C170.551 73.36 169.999 72.792 169.295 72.392C168.591 71.976 167.791 71.768 166.895 71.768C165.999 71.768 165.199 71.976 164.495 72.392C163.791 72.792 163.231 73.36 162.815 74.096C162.399 74.832 162.191 75.696 162.191 76.688C162.191 77.664 162.399 78.528 162.815 79.28C163.231 80.016 163.791 80.592 164.495 81.008C165.199 81.408 165.991 81.608 166.871 81.608ZM180.166 83.12C179.126 83.12 178.142 82.976 177.214 82.688C176.286 82.384 175.558 82.008 175.03 81.56L175.798 80.216C176.31 80.6 176.966 80.936 177.766 81.224C178.566 81.496 179.406 81.632 180.286 81.632C181.486 81.632 182.35 81.448 182.878 81.08C183.406 80.696 183.67 80.192 183.67 79.568C183.67 79.104 183.518 78.744 183.214 78.488C182.926 78.216 182.542 78.016 182.062 77.888C181.582 77.744 181.046 77.624 180.454 77.528C179.862 77.432 179.27 77.32 178.678 77.192C178.102 77.064 177.574 76.88 177.094 76.64C176.614 76.384 176.222 76.04 175.918 75.608C175.63 75.176 175.486 74.6 175.486 73.88C175.486 73.192 175.678 72.576 176.062 72.032C176.446 71.488 177.006 71.064 177.742 70.76C178.494 70.44 179.406 70.28 180.478 70.28C181.294 70.28 182.11 70.392 182.926 70.616C183.742 70.824 184.414 71.104 184.942 71.456L184.198 72.824C183.638 72.44 183.038 72.168 182.398 72.008C181.758 71.832 181.118 71.744 180.478 71.744C179.342 71.744 178.502 71.944 177.958 72.344C177.43 72.728 177.166 73.224 177.166 73.832C177.166 74.312 177.31 74.688 177.598 74.96C177.902 75.232 178.294 75.448 178.774 75.608C179.27 75.752 179.806 75.872 180.382 75.968C180.974 76.064 181.558 76.184 182.134 76.328C182.726 76.456 183.262 76.64 183.742 76.88C184.238 77.104 184.63 77.432 184.918 77.864C185.222 78.28 185.374 78.832 185.374 79.52C185.374 80.256 185.166 80.896 184.75 81.44C184.35 81.968 183.758 82.384 182.974 82.688C182.206 82.976 181.27 83.12 180.166 83.12ZM202.678 83V80.216L202.606 79.76V75.104C202.606 74.032 202.302 73.208 201.694 72.632C201.102 72.056 200.214 71.768 199.03 71.768C198.214 71.768 197.438 71.904 196.702 72.176C195.966 72.448 195.342 72.808 194.83 73.256L194.062 71.984C194.702 71.44 195.47 71.024 196.366 70.736C197.262 70.432 198.206 70.28 199.198 70.28C200.83 70.28 202.086 70.688 202.966 71.504C203.862 72.304 204.31 73.528 204.31 75.176V83H202.678ZM198.334 83.12C197.39 83.12 196.566 82.968 195.862 82.664C195.174 82.344 194.646 81.912 194.278 81.368C193.91 80.808 193.726 80.168 193.726 79.448C193.726 78.792 193.878 78.2 194.182 77.672C194.502 77.128 195.014 76.696 195.718 76.376C196.438 76.04 197.398 75.872 198.598 75.872H202.942V77.144H198.646C197.43 77.144 196.582 77.36 196.102 77.792C195.638 78.224 195.406 78.76 195.406 79.4C195.406 80.12 195.686 80.696 196.246 81.128C196.806 81.56 197.59 81.776 198.598 81.776C199.558 81.776 200.382 81.56 201.07 81.128C201.774 80.68 202.286 80.04 202.606 79.208L202.99 80.384C202.67 81.216 202.11 81.88 201.31 82.376C200.526 82.872 199.534 83.12 198.334 83.12ZM220.572 83.12C219.26 83.12 218.108 82.848 217.116 82.304C216.124 81.744 215.348 80.984 214.788 80.024C214.228 79.048 213.948 77.936 213.948 76.688C213.948 75.44 214.212 74.336 214.74 73.376C215.284 72.416 216.02 71.664 216.948 71.12C217.892 70.56 218.948 70.28 220.116 70.28C221.3 70.28 222.348 70.552 223.26 71.096C224.188 71.624 224.916 72.376 225.444 73.352C225.972 74.312 226.236 75.424 226.236 76.688C226.236 76.768 226.228 76.856 226.212 76.952C226.212 77.032 226.212 77.12 226.212 77.216H215.244V75.944H225.3L224.628 76.448C224.628 75.536 224.428 74.728 224.028 74.024C223.644 73.304 223.116 72.744 222.444 72.344C221.772 71.944 220.996 71.744 220.116 71.744C219.252 71.744 218.476 71.944 217.788 72.344C217.1 72.744 216.564 73.304 216.18 74.024C215.796 74.744 215.604 75.568 215.604 76.496V76.76C215.604 77.72 215.812 78.568 216.228 79.304C216.66 80.024 217.252 80.592 218.004 81.008C218.772 81.408 219.644 81.608 220.62 81.608C221.388 81.608 222.1 81.472 222.756 81.2C223.428 80.928 224.004 80.512 224.484 79.952L225.444 81.056C224.884 81.728 224.18 82.24 223.332 82.592C222.5 82.944 221.58 83.12 220.572 83.12ZM233.088 83.12C232.048 83.12 231.064 82.976 230.136 82.688C229.208 82.384 228.48 82.008 227.952 81.56L228.72 80.216C229.232 80.6 229.888 80.936 230.688 81.224C231.488 81.496 232.328 81.632 233.208 81.632C234.408 81.632 235.272 81.448 235.8 81.08C236.328 80.696 236.592 80.192 236.592 79.568C236.592 79.104 236.44 78.744 236.136 78.488C235.848 78.216 235.464 78.016 234.984 77.888C234.504 77.744 233.968 77.624 233.376 77.528C232.784 77.432 232.192 77.32 231.6 77.192C231.024 77.064 230.496 76.88 230.016 76.64C229.536 76.384 229.144 76.04 228.84 75.608C228.552 75.176 228.408 74.6 228.408 73.88C228.408 73.192 228.6 72.576 228.984 72.032C229.368 71.488 229.928 71.064 230.664 70.76C231.416 70.44 232.328 70.28 233.4 70.28C234.216 70.28 235.032 70.392 235.848 70.616C236.664 70.824 237.336 71.104 237.864 71.456L237.12 72.824C236.56 72.44 235.96 72.168 235.32 72.008C234.68 71.832 234.04 71.744 233.4 71.744C232.264 71.744 231.424 71.944 230.88 72.344C230.352 72.728 230.088 73.224 230.088 73.832C230.088 74.312 230.232 74.688 230.52 74.96C230.824 75.232 231.216 75.448 231.696 75.608C232.192 75.752 232.728 75.872 233.304 75.968C233.896 76.064 234.48 76.184 235.056 76.328C235.648 76.456 236.184 76.64 236.664 76.88C237.16 77.104 237.552 77.432 237.84 77.864C238.144 78.28 238.296 78.832 238.296 79.52C238.296 80.256 238.088 80.896 237.672 81.44C237.272 81.968 236.68 82.384 235.896 82.688C235.128 82.976 234.192 83.12 233.088 83.12ZM245.407 83.12C244.223 83.12 243.311 82.8 242.671 82.16C242.031 81.52 241.711 80.616 241.711 79.448V67.616H243.415V79.352C243.415 80.088 243.599 80.656 243.967 81.056C244.351 81.456 244.895 81.656 245.599 81.656C246.351 81.656 246.975 81.44 247.471 81.008L248.071 82.232C247.735 82.536 247.327 82.76 246.847 82.904C246.383 83.048 245.903 83.12 245.407 83.12ZM239.455 71.816V70.4H247.255V71.816H239.455ZM256.08 83.12C254.768 83.12 253.616 82.848 252.624 82.304C251.632 81.744 250.856 80.984 250.296 80.024C249.736 79.048 249.456 77.936 249.456 76.688C249.456 75.44 249.72 74.336 250.248 73.376C250.792 72.416 251.528 71.664 252.456 71.12C253.4 70.56 254.456 70.28 255.624 70.28C256.808 70.28 257.856 70.552 258.768 71.096C259.696 71.624 260.424 72.376 260.952 73.352C261.48 74.312 261.744 75.424 261.744 76.688C261.744 76.768 261.736 76.856 261.72 76.952C261.72 77.032 261.72 77.12 261.72 77.216H250.752V75.944H260.808L260.136 76.448C260.136 75.536 259.936 74.728 259.536 74.024C259.152 73.304 258.624 72.744 257.952 72.344C257.28 71.944 256.504 71.744 255.624 71.744C254.76 71.744 253.984 71.944 253.296 72.344C252.608 72.744 252.072 73.304 251.688 74.024C251.304 74.744 251.112 75.568 251.112 76.496V76.76C251.112 77.72 251.32 78.568 251.736 79.304C252.168 80.024 252.76 80.592 253.512 81.008C254.28 81.408 255.152 81.608 256.128 81.608C256.896 81.608 257.608 81.472 258.264 81.2C258.936 80.928 259.512 80.512 259.992 79.952L260.952 81.056C260.392 81.728 259.688 82.24 258.84 82.592C258.008 82.944 257.088 83.12 256.08 83.12ZM277.997 83.12C276.909 83.12 275.925 82.872 275.045 82.376C274.165 81.864 273.461 81.136 272.933 80.192C272.421 79.232 272.165 78.064 272.165 76.688C272.165 75.312 272.421 74.152 272.933 73.208C273.445 72.248 274.141 71.52 275.021 71.024C275.901 70.528 276.893 70.28 277.997 70.28C279.197 70.28 280.269 70.552 281.213 71.096C282.173 71.624 282.925 72.376 283.469 73.352C284.013 74.312 284.285 75.424 284.285 76.688C284.285 77.968 284.013 79.088 283.469 80.048C282.925 81.008 282.173 81.76 281.213 82.304C280.269 82.848 279.197 83.12 277.997 83.12ZM271.493 87.656V70.4H273.125V74.192L272.957 76.712L273.197 79.256V87.656H271.493ZM277.877 81.608C278.773 81.608 279.573 81.408 280.277 81.008C280.981 80.592 281.541 80.016 281.957 79.28C282.373 78.528 282.581 77.664 282.581 76.688C282.581 75.712 282.373 74.856 281.957 74.12C281.541 73.384 280.981 72.808 280.277 72.392C279.573 71.976 278.773 71.768 277.877 71.768C276.981 71.768 276.173 71.976 275.453 72.392C274.749 72.808 274.189 73.384 273.773 74.12C273.373 74.856 273.173 75.712 273.173 76.688C273.173 77.664 273.373 78.528 273.773 79.28C274.189 80.016 274.749 80.592 275.453 81.008C276.173 81.408 276.981 81.608 277.877 81.608ZM287.759 83V70.4H289.391V73.832L289.223 73.232C289.575 72.272 290.167 71.544 290.999 71.048C291.831 70.536 292.863 70.28 294.095 70.28V71.936C294.031 71.936 293.967 71.936 293.903 71.936C293.839 71.92 293.775 71.912 293.711 71.912C292.383 71.912 291.343 72.32 290.591 73.136C289.839 73.936 289.463 75.08 289.463 76.568V83H287.759ZM302.439 83.12C301.127 83.12 299.975 82.848 298.983 82.304C297.991 81.744 297.215 80.984 296.655 80.024C296.095 79.048 295.815 77.936 295.815 76.688C295.815 75.44 296.079 74.336 296.607 73.376C297.151 72.416 297.887 71.664 298.815 71.12C299.759 70.56 300.815 70.28 301.983 70.28C303.167 70.28 304.215 70.552 305.127 71.096C306.055 71.624 306.783 72.376 307.311 73.352C307.839 74.312 308.103 75.424 308.103 76.688C308.103 76.768 308.095 76.856 308.079 76.952C308.079 77.032 308.079 77.12 308.079 77.216H297.111V75.944H307.167L306.495 76.448C306.495 75.536 306.295 74.728 305.895 74.024C305.511 73.304 304.983 72.744 304.311 72.344C303.639 71.944 302.863 71.744 301.983 71.744C301.119 71.744 300.343 71.944 299.655 72.344C298.967 72.744 298.431 73.304 298.047 74.024C297.663 74.744 297.471 75.568 297.471 76.496V76.76C297.471 77.72 297.679 78.568 298.095 79.304C298.527 80.024 299.119 80.592 299.871 81.008C300.639 81.408 301.511 81.608 302.487 81.608C303.255 81.608 303.967 81.472 304.623 81.2C305.295 80.928 305.871 80.512 306.351 79.952L307.311 81.056C306.751 81.728 306.047 82.24 305.199 82.592C304.367 82.944 303.447 83.12 302.439 83.12ZM316.803 83.12C315.555 83.12 314.435 82.848 313.443 82.304C312.467 81.744 311.699 80.984 311.139 80.024C310.579 79.048 310.299 77.936 310.299 76.688C310.299 75.424 310.579 74.312 311.139 73.352C311.699 72.392 312.467 71.64 313.443 71.096C314.435 70.552 315.555 70.28 316.803 70.28C317.875 70.28 318.843 70.488 319.707 70.904C320.571 71.32 321.251 71.944 321.747 72.776L320.475 73.64C320.043 73 319.507 72.528 318.867 72.224C318.227 71.92 317.531 71.768 316.779 71.768C315.883 71.768 315.075 71.976 314.355 72.392C313.635 72.792 313.067 73.36 312.651 74.096C312.235 74.832 312.027 75.696 312.027 76.688C312.027 77.68 312.235 78.544 312.651 79.28C313.067 80.016 313.635 80.592 314.355 81.008C315.075 81.408 315.883 81.608 316.779 81.608C317.531 81.608 318.227 81.456 318.867 81.152C319.507 80.848 320.043 80.384 320.475 79.76L321.747 80.624C321.251 81.44 320.571 82.064 319.707 82.496C318.843 82.912 317.875 83.12 316.803 83.12ZM324.907 83V70.4H326.611V83H324.907ZM325.771 67.616C325.419 67.616 325.123 67.496 324.883 67.256C324.643 67.016 324.523 66.728 324.523 66.392C324.523 66.056 324.643 65.776 324.883 65.552C325.123 65.312 325.419 65.192 325.771 65.192C326.123 65.192 326.419 65.304 326.659 65.528C326.899 65.752 327.019 66.032 327.019 66.368C327.019 66.72 326.899 67.016 326.659 67.256C326.435 67.496 326.139 67.616 325.771 67.616ZM336.489 83.12C335.273 83.12 334.177 82.848 333.201 82.304C332.241 81.744 331.481 80.984 330.921 80.024C330.361 79.048 330.081 77.936 330.081 76.688C330.081 75.424 330.361 74.312 330.921 73.352C331.481 72.392 332.241 71.64 333.201 71.096C334.161 70.552 335.257 70.28 336.489 70.28C337.737 70.28 338.841 70.552 339.801 71.096C340.777 71.64 341.537 72.392 342.081 73.352C342.641 74.312 342.921 75.424 342.921 76.688C342.921 77.936 342.641 79.048 342.081 80.024C341.537 80.984 340.777 81.744 339.801 82.304C338.825 82.848 337.721 83.12 336.489 83.12ZM336.489 81.608C337.401 81.608 338.209 81.408 338.913 81.008C339.617 80.592 340.169 80.016 340.569 79.28C340.985 78.528 341.193 77.664 341.193 76.688C341.193 75.696 340.985 74.832 340.569 74.096C340.169 73.36 339.617 72.792 338.913 72.392C338.209 71.976 337.409 71.768 336.513 71.768C335.617 71.768 334.817 71.976 334.113 72.392C333.409 72.792 332.849 73.36 332.433 74.096C332.017 74.832 331.809 75.696 331.809 76.688C331.809 77.664 332.017 78.528 332.433 79.28C332.849 80.016 333.409 80.592 334.113 81.008C334.817 81.408 335.609 81.608 336.489 81.608Z" fill="#214B33"/>
<path d="M144 32L694 32" stroke="#BC0051"/>
<path d="M9.01725 29V12.2H15.3053C16.7293 12.2 17.9533 12.432 18.9773 12.896C20.0013 13.344 20.7853 14 21.3293 14.864C21.8893 15.712 22.1693 16.744 22.1693 17.96C22.1693 19.144 21.8893 20.168 21.3293 21.032C20.7853 21.88 20.0013 22.536 18.9773 23C17.9533 23.464 16.7293 23.696 15.3053 23.696H10.0013L10.7933 22.856V29H9.01725ZM10.7933 23L10.0013 22.136H15.2573C16.9373 22.136 18.2093 21.776 19.0733 21.056C19.9533 20.32 20.3932 19.288 20.3932 17.96C20.3932 16.616 19.9533 15.576 19.0733 14.84C18.2093 14.104 16.9373 13.736 15.2573 13.736H10.0013L10.7933 12.896V23ZM25.3448 29V16.4H26.9768V19.832L26.8088 19.232C27.1608 18.272 27.7528 17.544 28.5848 17.048C29.4168 16.536 30.4488 16.28 31.6808 16.28V17.936C31.6168 17.936 31.5528 17.936 31.4888 17.936C31.4248 17.92 31.3608 17.912 31.2968 17.912C29.9688 17.912 28.9288 18.32 28.1768 19.136C27.4248 19.936 27.0488 21.08 27.0488 22.568V29H25.3448ZM40.0249 29.12C38.7129 29.12 37.5609 28.848 36.5689 28.304C35.5769 27.744 34.8009 26.984 34.2409 26.024C33.6809 25.048 33.4009 23.936 33.4009 22.688C33.4009 21.44 33.6649 20.336 34.1929 19.376C34.7369 18.416 35.4729 17.664 36.4009 17.12C37.3449 16.56 38.4009 16.28 39.5689 16.28C40.7529 16.28 41.8009 16.552 42.7129 17.096C43.6409 17.624 44.3689 18.376 44.8969 19.352C45.4249 20.312 45.6889 21.424 45.6889 22.688C45.6889 22.768 45.6809 22.856 45.6649 22.952C45.6649 23.032 45.6649 23.12 45.6649 23.216H34.6969V21.944H44.7529L44.0809 22.448C44.0809 21.536 43.8809 20.728 43.4809 20.024C43.0969 19.304 42.5689 18.744 41.8969 18.344C41.2249 17.944 40.4489 17.744 39.5689 17.744C38.7049 17.744 37.9289 17.944 37.2409 18.344C36.5529 18.744 36.0169 19.304 35.6329 20.024C35.2489 20.744 35.0569 21.568 35.0569 22.496V22.76C35.0569 23.72 35.2649 24.568 35.6809 25.304C36.1129 26.024 36.7049 26.592 37.4569 27.008C38.2249 27.408 39.0969 27.608 40.0729 27.608C40.8409 27.608 41.5529 27.472 42.2089 27.2C42.8809 26.928 43.4569 26.512 43.9369 25.952L44.8969 27.056C44.3369 27.728 43.6329 28.24 42.7849 28.592C41.9529 28.944 41.0329 29.12 40.0249 29.12ZM54.3893 29.12C53.1413 29.12 52.0213 28.848 51.0293 28.304C50.0533 27.744 49.2853 26.984 48.7253 26.024C48.1653 25.048 47.8853 23.936 47.8853 22.688C47.8853 21.424 48.1653 20.312 48.7253 19.352C49.2853 18.392 50.0533 17.64 51.0293 17.096C52.0213 16.552 53.1413 16.28 54.3893 16.28C55.4613 16.28 56.4293 16.488 57.2933 16.904C58.1573 17.32 58.8373 17.944 59.3333 18.776L58.0613 19.64C57.6293 19 57.0933 18.528 56.4533 18.224C55.8133 17.92 55.1173 17.768 54.3653 17.768C53.4693 17.768 52.6613 17.976 51.9413 18.392C51.2213 18.792 50.6533 19.36 50.2373 20.096C49.8213 20.832 49.6133 21.696 49.6133 22.688C49.6133 23.68 49.8213 24.544 50.2373 25.28C50.6533 26.016 51.2213 26.592 51.9413 27.008C52.6613 27.408 53.4693 27.608 54.3653 27.608C55.1173 27.608 55.8133 27.456 56.4533 27.152C57.0933 26.848 57.6293 26.384 58.0613 25.76L59.3333 26.624C58.8373 27.44 58.1573 28.064 57.2933 28.496C56.4293 28.912 55.4613 29.12 54.3893 29.12ZM62.4932 29V16.4H64.1972V29H62.4932ZM63.3572 13.616C63.0052 13.616 62.7092 13.496 62.4692 13.256C62.2292 13.016 62.1092 12.728 62.1092 12.392C62.1092 12.056 62.2292 11.776 62.4692 11.552C62.7092 11.312 63.0052 11.192 63.3572 11.192C63.7092 11.192 64.0052 11.304 64.2452 11.528C64.4852 11.752 64.6052 12.032 64.6052 12.368C64.6052 12.72 64.4852 13.016 64.2452 13.256C64.0212 13.496 63.7252 13.616 63.3572 13.616ZM74.0745 29.12C72.8585 29.12 71.7625 28.848 70.7865 28.304C69.8265 27.744 69.0665 26.984 68.5065 26.024C67.9465 25.048 67.6665 23.936 67.6665 22.688C67.6665 21.424 67.9465 20.312 68.5065 19.352C69.0665 18.392 69.8265 17.64 70.7865 17.096C71.7465 16.552 72.8425 16.28 74.0745 16.28C75.3225 16.28 76.4265 16.552 77.3865 17.096C78.3625 17.64 79.1225 18.392 79.6665 19.352C80.2265 20.312 80.5065 21.424 80.5065 22.688C80.5065 23.936 80.2265 25.048 79.6665 26.024C79.1225 26.984 78.3625 27.744 77.3865 28.304C76.4105 28.848 75.3065 29.12 74.0745 29.12ZM74.0745 27.608C74.9865 27.608 75.7945 27.408 76.4985 27.008C77.2025 26.592 77.7545 26.016 78.1545 25.28C78.5705 24.528 78.7785 23.664 78.7785 22.688C78.7785 21.696 78.5705 20.832 78.1545 20.096C77.7545 19.36 77.2025 18.792 76.4985 18.392C75.7945 17.976 74.9945 17.768 74.0985 17.768C73.2025 17.768 72.4025 17.976 71.6985 18.392C70.9945 18.792 70.4345 19.36 70.0185 20.096C69.6025 20.832 69.3945 21.696 69.3945 22.688C69.3945 23.664 69.6025 24.528 70.0185 25.28C70.4345 26.016 70.9945 26.592 71.6985 27.008C72.4025 27.408 73.1945 27.608 74.0745 27.608ZM95.2826 29.12C94.0826 29.12 93.0026 28.848 92.0426 28.304C91.0986 27.76 90.3546 27.008 89.8106 26.048C89.2666 25.072 88.9946 23.952 88.9946 22.688C88.9946 21.408 89.2666 20.288 89.8106 19.328C90.3546 18.368 91.0986 17.624 92.0426 17.096C93.0026 16.552 94.0826 16.28 95.2826 16.28C96.3866 16.28 97.3706 16.528 98.2346 17.024C99.1146 17.52 99.8106 18.248 100.323 19.208C100.851 20.152 101.115 21.312 101.115 22.688C101.115 24.048 100.859 25.208 100.347 26.168C99.8346 27.128 99.1386 27.864 98.2586 28.376C97.3946 28.872 96.4026 29.12 95.2826 29.12ZM95.4026 27.608C96.2986 27.608 97.0986 27.408 97.8026 27.008C98.5226 26.592 99.0826 26.016 99.4826 25.28C99.8986 24.528 100.107 23.664 100.107 22.688C100.107 21.696 99.8986 20.832 99.4826 20.096C99.0826 19.36 98.5226 18.792 97.8026 18.392C97.0986 17.976 96.2986 17.768 95.4026 17.768C94.5226 17.768 93.7306 17.976 93.0266 18.392C92.3226 18.792 91.7626 19.36 91.3466 20.096C90.9306 20.832 90.7226 21.696 90.7226 22.688C90.7226 23.664 90.9306 24.528 91.3466 25.28C91.7626 26.016 92.3226 26.592 93.0266 27.008C93.7306 27.408 94.5226 27.608 95.4026 27.608ZM100.155 29V25.208L100.323 22.664L100.083 20.12V11.192H101.787V29H100.155ZM111.884 29.12C110.572 29.12 109.42 28.848 108.428 28.304C107.436 27.744 106.66 26.984 106.1 26.024C105.54 25.048 105.26 23.936 105.26 22.688C105.26 21.44 105.524 20.336 106.052 19.376C106.596 18.416 107.332 17.664 108.26 17.12C109.204 16.56 110.26 16.28 111.428 16.28C112.612 16.28 113.66 16.552 114.572 17.096C115.5 17.624 116.228 18.376 116.756 19.352C117.284 20.312 117.548 21.424 117.548 22.688C117.548 22.768 117.54 22.856 117.524 22.952C117.524 23.032 117.524 23.12 117.524 23.216H106.556V21.944H116.612L115.94 22.448C115.94 21.536 115.74 20.728 115.34 20.024C114.956 19.304 114.428 18.744 113.756 18.344C113.084 17.944 112.308 17.744 111.428 17.744C110.564 17.744 109.788 17.944 109.1 18.344C108.412 18.744 107.876 19.304 107.492 20.024C107.108 20.744 106.916 21.568 106.916 22.496V22.76C106.916 23.72 107.124 24.568 107.54 25.304C107.972 26.024 108.564 26.592 109.316 27.008C110.084 27.408 110.956 27.608 111.932 27.608C112.7 27.608 113.412 27.472 114.068 27.2C114.74 26.928 115.316 26.512 115.796 25.952L116.756 27.056C116.196 27.728 115.492 28.24 114.644 28.592C113.812 28.944 112.892 29.12 111.884 29.12ZM130.538 29L124.946 16.4H126.722L131.858 28.088H131.018L136.226 16.4H137.906L132.29 29H130.538ZM145.306 29.12C143.994 29.12 142.842 28.848 141.85 28.304C140.858 27.744 140.082 26.984 139.522 26.024C138.962 25.048 138.682 23.936 138.682 22.688C138.682 21.44 138.946 20.336 139.474 19.376C140.018 18.416 140.754 17.664 141.682 17.12C142.626 16.56 143.682 16.28 144.85 16.28C146.034 16.28 147.082 16.552 147.994 17.096C148.922 17.624 149.65 18.376 150.178 19.352C150.706 20.312 150.97 21.424 150.97 22.688C150.97 22.768 150.962 22.856 150.946 22.952C150.946 23.032 150.946 23.12 150.946 23.216H139.978V21.944H150.034L149.362 22.448C149.362 21.536 149.162 20.728 148.762 20.024C148.378 19.304 147.85 18.744 147.178 18.344C146.506 17.944 145.73 17.744 144.85 17.744C143.986 17.744 143.21 17.944 142.522 18.344C141.834 18.744 141.298 19.304 140.914 20.024C140.53 20.744 140.338 21.568 140.338 22.496V22.76C140.338 23.72 140.546 24.568 140.962 25.304C141.394 26.024 141.986 26.592 142.738 27.008C143.506 27.408 144.378 27.608 145.354 27.608C146.122 27.608 146.834 27.472 147.49 27.2C148.162 26.928 148.738 26.512 149.218 25.952L150.178 27.056C149.618 27.728 148.914 28.24 148.066 28.592C147.234 28.944 146.314 29.12 145.306 29.12ZM160.871 16.28C161.895 16.28 162.791 16.48 163.559 16.88C164.343 17.264 164.951 17.856 165.383 18.656C165.831 19.456 166.055 20.464 166.055 21.68V29H164.351V21.848C164.351 20.52 164.015 19.52 163.343 18.848C162.687 18.16 161.759 17.816 160.559 17.816C159.663 17.816 158.879 18 158.207 18.368C157.551 18.72 157.039 19.24 156.671 19.928C156.319 20.6 156.143 21.416 156.143 22.376V29H154.439V16.4H156.071V19.856L155.807 19.208C156.207 18.296 156.847 17.584 157.727 17.072C158.607 16.544 159.655 16.28 160.871 16.28ZM174.641 29.12C173.457 29.12 172.545 28.8 171.905 28.16C171.265 27.52 170.945 26.616 170.945 25.448V13.616H172.649V25.352C172.649 26.088 172.833 26.656 173.201 27.056C173.585 27.456 174.129 27.656 174.833 27.656C175.585 27.656 176.209 27.44 176.705 27.008L177.305 28.232C176.969 28.536 176.561 28.76 176.081 28.904C175.617 29.048 175.137 29.12 174.641 29.12ZM168.689 17.816V16.4H176.489V17.816H168.689ZM188.303 29V26.216L188.231 25.76V21.104C188.231 20.032 187.927 19.208 187.319 18.632C186.727 18.056 185.839 17.768 184.655 17.768C183.839 17.768 183.063 17.904 182.327 18.176C181.591 18.448 180.967 18.808 180.455 19.256L179.687 17.984C180.327 17.44 181.095 17.024 181.991 16.736C182.887 16.432 183.831 16.28 184.823 16.28C186.455 16.28 187.711 16.688 188.591 17.504C189.487 18.304 189.935 19.528 189.935 21.176V29H188.303ZM183.959 29.12C183.015 29.12 182.191 28.968 181.487 28.664C180.799 28.344 180.271 27.912 179.903 27.368C179.535 26.808 179.351 26.168 179.351 25.448C179.351 24.792 179.503 24.2 179.807 23.672C180.127 23.128 180.639 22.696 181.343 22.376C182.063 22.04 183.023 21.872 184.223 21.872H188.567V23.144H184.271C183.055 23.144 182.207 23.36 181.727 23.792C181.263 24.224 181.031 24.76 181.031 25.4C181.031 26.12 181.311 26.696 181.871 27.128C182.431 27.56 183.215 27.776 184.223 27.776C185.183 27.776 186.007 27.56 186.695 27.128C187.399 26.68 187.911 26.04 188.231 25.208L188.615 26.384C188.295 27.216 187.735 27.88 186.935 28.376C186.151 28.872 185.159 29.12 183.959 29.12ZM208.741 29V26.216L208.669 25.76V21.104C208.669 20.032 208.365 19.208 207.757 18.632C207.165 18.056 206.277 17.768 205.093 17.768C204.277 17.768 203.501 17.904 202.765 18.176C202.029 18.448 201.405 18.808 200.893 19.256L200.125 17.984C200.765 17.44 201.533 17.024 202.429 16.736C203.325 16.432 204.269 16.28 205.261 16.28C206.893 16.28 208.149 16.688 209.029 17.504C209.925 18.304 210.373 19.528 210.373 21.176V29H208.741ZM204.397 29.12C203.453 29.12 202.629 28.968 201.925 28.664C201.237 28.344 200.709 27.912 200.341 27.368C199.973 26.808 199.789 26.168 199.789 25.448C199.789 24.792 199.941 24.2 200.245 23.672C200.565 23.128 201.077 22.696 201.781 22.376C202.501 22.04 203.461 21.872 204.661 21.872H209.005V23.144H204.709C203.493 23.144 202.645 23.36 202.165 23.792C201.701 24.224 201.469 24.76 201.469 25.4C201.469 26.12 201.749 26.696 202.309 27.128C202.869 27.56 203.653 27.776 204.661 27.776C205.621 27.776 206.445 27.56 207.133 27.128C207.837 26.68 208.349 26.04 208.669 25.208L209.053 26.384C208.733 27.216 208.173 27.88 207.373 28.376C206.589 28.872 205.597 29.12 204.397 29.12ZM215.001 29V11.192H216.705V29H215.001ZM234.232 29.12C233.144 29.12 232.16 28.872 231.28 28.376C230.4 27.864 229.696 27.136 229.168 26.192C228.656 25.232 228.4 24.064 228.4 22.688C228.4 21.312 228.656 20.152 229.168 19.208C229.68 18.248 230.376 17.52 231.256 17.024C232.136 16.528 233.128 16.28 234.232 16.28C235.432 16.28 236.504 16.552 237.448 17.096C238.408 17.624 239.16 18.376 239.704 19.352C240.248 20.312 240.52 21.424 240.52 22.688C240.52 23.968 240.248 25.088 239.704 26.048C239.16 27.008 238.408 27.76 237.448 28.304C236.504 28.848 235.432 29.12 234.232 29.12ZM227.728 33.656V16.4H229.36V20.192L229.192 22.712L229.432 25.256V33.656H227.728ZM234.112 27.608C235.008 27.608 235.808 27.408 236.512 27.008C237.216 26.592 237.776 26.016 238.192 25.28C238.608 24.528 238.816 23.664 238.816 22.688C238.816 21.712 238.608 20.856 238.192 20.12C237.776 19.384 237.216 18.808 236.512 18.392C235.808 17.976 235.008 17.768 234.112 17.768C233.216 17.768 232.408 17.976 231.688 18.392C230.984 18.808 230.424 19.384 230.008 20.12C229.608 20.856 229.408 21.712 229.408 22.688C229.408 23.664 229.608 24.528 230.008 25.28C230.424 26.016 230.984 26.592 231.688 27.008C232.408 27.408 233.216 27.608 234.112 27.608ZM249.129 29.12C247.913 29.12 246.817 28.848 245.841 28.304C244.881 27.744 244.121 26.984 243.561 26.024C243.001 25.048 242.721 23.936 242.721 22.688C242.721 21.424 243.001 20.312 243.561 19.352C244.121 18.392 244.881 17.64 245.841 17.096C246.801 16.552 247.897 16.28 249.129 16.28C250.377 16.28 251.481 16.552 252.441 17.096C253.417 17.64 254.177 18.392 254.721 19.352C255.281 20.312 255.561 21.424 255.561 22.688C255.561 23.936 255.281 25.048 254.721 26.024C254.177 26.984 253.417 27.744 252.441 28.304C251.465 28.848 250.361 29.12 249.129 29.12ZM249.129 27.608C250.041 27.608 250.849 27.408 251.553 27.008C252.257 26.592 252.809 26.016 253.209 25.28C253.625 24.528 253.833 23.664 253.833 22.688C253.833 21.696 253.625 20.832 253.209 20.096C252.809 19.36 252.257 18.792 251.553 18.392C250.849 17.976 250.049 17.768 249.153 17.768C248.257 17.768 247.457 17.976 246.753 18.392C246.049 18.792 245.489 19.36 245.073 20.096C244.657 20.832 244.449 21.696 244.449 22.688C244.449 23.664 244.657 24.528 245.073 25.28C245.489 26.016 246.049 26.592 246.753 27.008C247.457 27.408 248.249 27.608 249.129 27.608ZM259.04 29V16.4H260.672V19.832L260.504 19.232C260.856 18.272 261.448 17.544 262.28 17.048C263.112 16.536 264.144 16.28 265.376 16.28V17.936C265.312 17.936 265.248 17.936 265.184 17.936C265.12 17.92 265.056 17.912 264.992 17.912C263.664 17.912 262.624 18.32 261.872 19.136C261.12 19.936 260.744 21.08 260.744 22.568V29H259.04ZM290.698 16.28C291.722 16.28 292.61 16.48 293.362 16.88C294.13 17.264 294.722 17.856 295.138 18.656C295.57 19.456 295.786 20.464 295.786 21.68V29H294.082V21.848C294.082 20.52 293.762 19.52 293.122 18.848C292.498 18.16 291.61 17.816 290.458 17.816C289.594 17.816 288.842 18 288.202 18.368C287.578 18.72 287.09 19.24 286.738 19.928C286.402 20.6 286.234 21.416 286.234 22.376V29H284.53V21.848C284.53 20.52 284.21 19.52 283.57 18.848C282.93 18.16 282.034 17.816 280.882 17.816C280.034 17.816 279.29 18 278.65 18.368C278.01 18.72 277.514 19.24 277.162 19.928C276.826 20.6 276.658 21.416 276.658 22.376V29H274.954V16.4H276.586V19.808L276.322 19.208C276.706 18.296 277.322 17.584 278.17 17.072C279.034 16.544 280.05 16.28 281.218 16.28C282.45 16.28 283.498 16.592 284.362 17.216C285.226 17.824 285.786 18.744 286.042 19.976L285.37 19.712C285.738 18.688 286.386 17.864 287.314 17.24C288.258 16.6 289.386 16.28 290.698 16.28ZM305.759 29.12C304.447 29.12 303.295 28.848 302.303 28.304C301.311 27.744 300.535 26.984 299.975 26.024C299.415 25.048 299.135 23.936 299.135 22.688C299.135 21.44 299.399 20.336 299.927 19.376C300.471 18.416 301.207 17.664 302.135 17.12C303.079 16.56 304.135 16.28 305.303 16.28C306.487 16.28 307.535 16.552 308.447 17.096C309.375 17.624 310.103 18.376 310.631 19.352C311.159 20.312 311.423 21.424 311.423 22.688C311.423 22.768 311.415 22.856 311.399 22.952C311.399 23.032 311.399 23.12 311.399 23.216H300.431V21.944H310.487L309.815 22.448C309.815 21.536 309.615 20.728 309.215 20.024C308.831 19.304 308.303 18.744 307.631 18.344C306.959 17.944 306.183 17.744 305.303 17.744C304.439 17.744 303.663 17.944 302.975 18.344C302.287 18.744 301.751 19.304 301.367 20.024C300.983 20.744 300.791 21.568 300.791 22.496V22.76C300.791 23.72 300.999 24.568 301.415 25.304C301.847 26.024 302.439 26.592 303.191 27.008C303.959 27.408 304.831 27.608 305.807 27.608C306.575 27.608 307.287 27.472 307.943 27.2C308.615 26.928 309.191 26.512 309.671 25.952L310.631 27.056C310.071 27.728 309.367 28.24 308.519 28.592C307.687 28.944 306.767 29.12 305.759 29.12ZM321.324 16.28C322.348 16.28 323.244 16.48 324.012 16.88C324.796 17.264 325.404 17.856 325.836 18.656C326.284 19.456 326.508 20.464 326.508 21.68V29H324.804V21.848C324.804 20.52 324.468 19.52 323.796 18.848C323.14 18.16 322.212 17.816 321.012 17.816C320.116 17.816 319.332 18 318.66 18.368C318.004 18.72 317.492 19.24 317.124 19.928C316.772 20.6 316.596 21.416 316.596 22.376V29H314.892V16.4H316.524V19.856L316.26 19.208C316.66 18.296 317.3 17.584 318.18 17.072C319.06 16.544 320.108 16.28 321.324 16.28ZM336.246 29.12C335.03 29.12 333.934 28.848 332.958 28.304C331.998 27.744 331.238 26.984 330.678 26.024C330.118 25.048 329.838 23.936 329.838 22.688C329.838 21.424 330.118 20.312 330.678 19.352C331.238 18.392 331.998 17.64 332.958 17.096C333.918 16.552 335.014 16.28 336.246 16.28C337.494 16.28 338.598 16.552 339.558 17.096C340.534 17.64 341.294 18.392 341.838 19.352C342.398 20.312 342.678 21.424 342.678 22.688C342.678 23.936 342.398 25.048 341.838 26.024C341.294 26.984 340.534 27.744 339.558 28.304C338.582 28.848 337.478 29.12 336.246 29.12ZM336.246 27.608C337.158 27.608 337.966 27.408 338.67 27.008C339.374 26.592 339.926 26.016 340.326 25.28C340.742 24.528 340.95 23.664 340.95 22.688C340.95 21.696 340.742 20.832 340.326 20.096C339.926 19.36 339.374 18.792 338.67 18.392C337.966 17.976 337.166 17.768 336.27 17.768C335.374 17.768 334.574 17.976 333.87 18.392C333.166 18.792 332.606 19.36 332.19 20.096C331.774 20.832 331.566 21.696 331.566 22.688C331.566 23.664 331.774 24.528 332.19 25.28C332.606 26.016 333.166 26.592 333.87 27.008C334.574 27.408 335.366 27.608 336.246 27.608ZM346.157 29V16.4H347.789V19.832L347.621 19.232C347.973 18.272 348.565 17.544 349.397 17.048C350.229 16.536 351.261 16.28 352.493 16.28V17.936C352.429 17.936 352.365 17.936 352.301 17.936C352.237 17.92 352.173 17.912 352.109 17.912C350.781 17.912 349.741 18.32 348.989 19.136C348.237 19.936 347.861 21.08 347.861 22.568V29H346.157Z" fill="#BC0051"/>
<path d="M159 169H6" stroke="#A2C33D"/>
<path d="M11.598 155.18C10.614 155.18 9.672 155.042 8.772 154.766C7.872 154.478 7.158 154.112 6.63 153.668L7.44 151.85C7.944 152.246 8.568 152.576 9.312 152.84C10.056 153.104 10.818 153.236 11.598 153.236C12.258 153.236 12.792 153.164 13.2 153.02C13.608 152.876 13.908 152.684 14.1 152.444C14.292 152.192 14.388 151.91 14.388 151.598C14.388 151.214 14.25 150.908 13.974 150.68C13.698 150.44 13.338 150.254 12.894 150.122C12.462 149.978 11.976 149.846 11.436 149.726C10.908 149.606 10.374 149.468 9.834 149.312C9.306 149.144 8.82 148.934 8.376 148.682C7.944 148.418 7.59 148.07 7.314 147.638C7.038 147.206 6.9 146.654 6.9 145.982C6.9 145.298 7.08 144.674 7.44 144.11C7.812 143.534 8.37 143.078 9.114 142.742C9.87 142.394 10.824 142.22 11.976 142.22C12.732 142.22 13.482 142.316 14.226 142.508C14.97 142.7 15.618 142.976 16.17 143.336L15.432 145.154C14.868 144.818 14.286 144.572 13.686 144.416C13.086 144.248 12.51 144.164 11.958 144.164C11.31 144.164 10.782 144.242 10.374 144.398C9.978 144.554 9.684 144.758 9.492 145.01C9.312 145.262 9.222 145.55 9.222 145.874C9.222 146.258 9.354 146.57 9.618 146.81C9.894 147.038 10.248 147.218 10.68 147.35C11.124 147.482 11.616 147.614 12.156 147.746C12.696 147.866 13.23 148.004 13.758 148.16C14.298 148.316 14.784 148.52 15.216 148.772C15.66 149.024 16.014 149.366 16.278 149.798C16.554 150.23 16.692 150.776 16.692 151.436C16.692 152.108 16.506 152.732 16.134 153.308C15.774 153.872 15.216 154.328 14.46 154.676C13.704 155.012 12.75 155.18 11.598 155.18ZM22.8643 155.126C22.0483 155.126 21.3283 154.976 20.7043 154.676C20.0803 154.364 19.5943 153.896 19.2463 153.272C18.8983 152.636 18.7243 151.838 18.7243 150.878V145.388H20.9743V150.572C20.9743 151.436 21.1663 152.084 21.5503 152.516C21.9463 152.936 22.5043 153.146 23.2243 153.146C23.7523 153.146 24.2083 153.038 24.5923 152.822C24.9883 152.606 25.2943 152.282 25.5103 151.85C25.7383 151.418 25.8523 150.884 25.8523 150.248V145.388H28.1023V155H25.9603V152.408L26.3383 153.2C26.0143 153.824 25.5403 154.304 24.9163 154.64C24.2923 154.964 23.6083 155.126 22.8643 155.126ZM38.5789 155L34.4569 145.388H36.7969L40.3429 153.866H39.1909L42.8629 145.388H45.0229L40.9009 155H38.5789ZM50.6835 155.126C49.6155 155.126 48.6795 154.916 47.8755 154.496C47.0835 154.064 46.4655 153.476 46.0215 152.732C45.5895 151.988 45.3735 151.142 45.3735 150.194C45.3735 149.234 45.5835 148.388 46.0035 147.656C46.4355 146.912 47.0235 146.33 47.7675 145.91C48.5235 145.49 49.3815 145.28 50.3415 145.28C51.2775 145.28 52.1115 145.484 52.8435 145.892C53.5755 146.3 54.1515 146.876 54.5715 147.62C54.9915 148.364 55.2015 149.24 55.2015 150.248C55.2015 150.344 55.1955 150.452 55.1835 150.572C55.1835 150.692 55.1775 150.806 55.1655 150.914H47.1555V149.42H53.9775L53.0955 149.888C53.1075 149.336 52.9935 148.85 52.7535 148.43C52.5135 148.01 52.1835 147.68 51.7635 147.44C51.3555 147.2 50.8815 147.08 50.3415 147.08C49.7895 147.08 49.3035 147.2 48.8835 147.44C48.4755 147.68 48.1515 148.016 47.9115 148.448C47.6835 148.868 47.5695 149.366 47.5695 149.942V150.302C47.5695 150.878 47.7015 151.388 47.9655 151.832C48.2295 152.276 48.6015 152.618 49.0815 152.858C49.5615 153.098 50.1135 153.218 50.7375 153.218C51.2775 153.218 51.7635 153.134 52.1955 152.966C52.6275 152.798 53.0115 152.534 53.3475 152.174L54.5535 153.56C54.1215 154.064 53.5755 154.454 52.9155 154.73C52.2675 154.994 51.5235 155.126 50.6835 155.126ZM62.8167 145.28C63.5847 145.28 64.2687 145.43 64.8687 145.73C65.4807 146.03 65.9607 146.492 66.3087 147.116C66.6567 147.728 66.8307 148.52 66.8307 149.492V155H64.5807V149.78C64.5807 148.928 64.3767 148.292 63.9687 147.872C63.5727 147.452 63.0147 147.242 62.2947 147.242C61.7667 147.242 61.2987 147.35 60.8907 147.566C60.4827 147.782 60.1647 148.106 59.9367 148.538C59.7207 148.958 59.6127 149.492 59.6127 150.14V155H57.3627V145.388H59.5047V147.98L59.1267 147.188C59.4627 146.576 59.9487 146.108 60.5847 145.784C61.2327 145.448 61.9767 145.28 62.8167 145.28ZM73.303 155.126C72.247 155.126 71.431 154.856 70.855 154.316C70.279 153.764 69.991 152.954 69.991 151.886V143.264H72.241V151.832C72.241 152.288 72.355 152.642 72.583 152.894C72.823 153.146 73.153 153.272 73.573 153.272C74.077 153.272 74.497 153.14 74.833 152.876L75.463 154.478C75.199 154.694 74.875 154.856 74.491 154.964C74.107 155.072 73.711 155.126 73.303 155.126ZM68.407 147.26V145.46H74.815V147.26H68.407ZM83.2359 155V153.056L83.1099 152.642V149.24C83.1099 148.58 82.9119 148.07 82.5159 147.71C82.1199 147.338 81.5199 147.152 80.7159 147.152C80.1759 147.152 79.6419 147.236 79.1139 147.404C78.5979 147.572 78.1599 147.806 77.7999 148.106L76.9179 146.468C77.4339 146.072 78.0459 145.778 78.7539 145.586C79.4739 145.382 80.2179 145.28 80.9859 145.28C82.3779 145.28 83.4519 145.616 84.2079 146.288C84.9759 146.948 85.3599 147.974 85.3599 149.366V155H83.2359ZM80.2119 155.126C79.4919 155.126 78.8619 155.006 78.3219 154.766C77.7819 154.514 77.3619 154.172 77.0619 153.74C76.7739 153.296 76.6299 152.798 76.6299 152.246C76.6299 151.706 76.7559 151.22 77.0079 150.788C77.2719 150.356 77.6979 150.014 78.2859 149.762C78.8739 149.51 79.6539 149.384 80.6259 149.384H83.4159V150.878H80.7879C80.0199 150.878 79.5039 151.004 79.2399 151.256C78.9759 151.496 78.8439 151.796 78.8439 152.156C78.8439 152.564 79.0059 152.888 79.3299 153.128C79.6539 153.368 80.1039 153.488 80.6799 153.488C81.2319 153.488 81.7239 153.362 82.1559 153.11C82.5999 152.858 82.9179 152.486 83.1099 151.994L83.4879 153.344C83.2719 153.908 82.8819 154.346 82.3179 154.658C81.7659 154.97 81.0639 155.126 80.2119 155.126ZM87.2575 158.618C86.8375 158.618 86.4415 158.57 86.0695 158.474C85.6855 158.39 85.3615 158.252 85.0975 158.06L85.7455 156.386C86.0935 156.638 86.5315 156.764 87.0595 156.764C87.4675 156.764 87.7855 156.632 88.0135 156.368C88.2415 156.116 88.3555 155.738 88.3555 155.234V145.388H90.6055V155.18C90.6055 156.236 90.3115 157.07 89.7235 157.682C89.1475 158.306 88.3255 158.618 87.2575 158.618ZM89.4715 143.804C89.0515 143.804 88.7035 143.672 88.4275 143.408C88.1635 143.144 88.0315 142.826 88.0315 142.454C88.0315 142.07 88.1635 141.752 88.4275 141.5C88.7035 141.236 89.0515 141.104 89.4715 141.104C89.8915 141.104 90.2335 141.23 90.4975 141.482C90.7735 141.722 90.9115 142.028 90.9115 142.4C90.9115 142.796 90.7795 143.132 90.5155 143.408C90.2515 143.672 89.9035 143.804 89.4715 143.804ZM99.4781 155V153.056L99.3521 152.642V149.24C99.3521 148.58 99.1541 148.07 98.7581 147.71C98.3621 147.338 97.7621 147.152 96.9581 147.152C96.4181 147.152 95.8841 147.236 95.3561 147.404C94.8401 147.572 94.4021 147.806 94.0421 148.106L93.1601 146.468C93.6761 146.072 94.2881 145.778 94.9961 145.586C95.7161 145.382 96.4601 145.28 97.2281 145.28C98.6201 145.28 99.6941 145.616 100.45 146.288C101.218 146.948 101.602 147.974 101.602 149.366V155H99.4781ZM96.4541 155.126C95.7341 155.126 95.1041 155.006 94.5641 154.766C94.0241 154.514 93.6041 154.172 93.3041 153.74C93.0161 153.296 92.8721 152.798 92.8721 152.246C92.8721 151.706 92.9981 151.22 93.2501 150.788C93.5141 150.356 93.9401 150.014 94.5281 149.762C95.1161 149.51 95.8961 149.384 96.8681 149.384H99.6581V150.878H97.0301C96.2621 150.878 95.7461 151.004 95.4821 151.256C95.2181 151.496 95.0861 151.796 95.0861 152.156C95.0861 152.564 95.2481 152.888 95.5721 153.128C95.8961 153.368 96.3461 153.488 96.9221 153.488C97.4741 153.488 97.9661 153.362 98.3981 153.11C98.8421 152.858 99.1601 152.486 99.3521 151.994L99.7301 153.344C99.5141 153.908 99.1241 154.346 98.5601 154.658C98.0081 154.97 97.3061 155.126 96.4541 155.126Z" fill="#A2C33D"/>
<path d="M144.436 372V362.62L144.884 363.096H142.126V362.2H145.444V372H144.436ZM155.035 372.07C154.335 372.07 153.705 371.911 153.145 371.594C152.594 371.277 152.16 370.838 151.843 370.278C151.525 369.709 151.367 369.055 151.367 368.318C151.367 367.571 151.525 366.918 151.843 366.358C152.16 365.798 152.594 365.364 153.145 365.056C153.705 364.739 154.335 364.58 155.035 364.58C155.679 364.58 156.253 364.725 156.757 365.014C157.27 365.303 157.676 365.728 157.975 366.288C158.283 366.839 158.437 367.515 158.437 368.318C158.437 369.111 158.287 369.788 157.989 370.348C157.69 370.908 157.284 371.337 156.771 371.636C156.267 371.925 155.688 372.07 155.035 372.07ZM155.105 371.188C155.627 371.188 156.094 371.071 156.505 370.838C156.925 370.595 157.251 370.259 157.485 369.83C157.727 369.391 157.849 368.887 157.849 368.318C157.849 367.739 157.727 367.235 157.485 366.806C157.251 366.377 156.925 366.045 156.505 365.812C156.094 365.569 155.627 365.448 155.105 365.448C154.591 365.448 154.129 365.569 153.719 365.812C153.308 366.045 152.981 366.377 152.739 366.806C152.496 367.235 152.375 367.739 152.375 368.318C152.375 368.887 152.496 369.391 152.739 369.83C152.981 370.259 153.308 370.595 153.719 370.838C154.129 371.071 154.591 371.188 155.105 371.188ZM157.877 372V369.788L157.975 368.304L157.835 366.82V361.612H158.829V372H157.877ZM164.719 372.07C163.954 372.07 163.282 371.911 162.703 371.594C162.124 371.267 161.672 370.824 161.345 370.264C161.018 369.695 160.855 369.046 160.855 368.318C160.855 367.59 161.009 366.946 161.317 366.386C161.634 365.826 162.064 365.387 162.605 365.07C163.156 364.743 163.772 364.58 164.453 364.58C165.144 364.58 165.755 364.739 166.287 365.056C166.828 365.364 167.253 365.803 167.561 366.372C167.869 366.932 168.023 367.581 168.023 368.318C168.023 368.365 168.018 368.416 168.009 368.472C168.009 368.519 168.009 368.57 168.009 368.626H161.611V367.884H167.477L167.085 368.178C167.085 367.646 166.968 367.175 166.735 366.764C166.511 366.344 166.203 366.017 165.811 365.784C165.419 365.551 164.966 365.434 164.453 365.434C163.949 365.434 163.496 365.551 163.095 365.784C162.694 366.017 162.381 366.344 162.157 366.764C161.933 367.184 161.821 367.665 161.821 368.206V368.36C161.821 368.92 161.942 369.415 162.185 369.844C162.437 370.264 162.782 370.595 163.221 370.838C163.669 371.071 164.178 371.188 164.747 371.188C165.195 371.188 165.61 371.109 165.993 370.95C166.385 370.791 166.721 370.549 167.001 370.222L167.561 370.866C167.234 371.258 166.824 371.557 166.329 371.762C165.844 371.967 165.307 372.07 164.719 372.07ZM178.316 372V370.376L178.274 370.11V367.394C178.274 366.769 178.097 366.288 177.742 365.952C177.397 365.616 176.879 365.448 176.188 365.448C175.712 365.448 175.26 365.527 174.83 365.686C174.401 365.845 174.037 366.055 173.738 366.316L173.29 365.574C173.664 365.257 174.112 365.014 174.634 364.846C175.157 364.669 175.708 364.58 176.286 364.58C177.238 364.58 177.971 364.818 178.484 365.294C179.007 365.761 179.268 366.475 179.268 367.436V372H178.316ZM175.782 372.07C175.232 372.07 174.751 371.981 174.34 371.804C173.939 371.617 173.631 371.365 173.416 371.048C173.202 370.721 173.094 370.348 173.094 369.928C173.094 369.545 173.183 369.2 173.36 368.892C173.547 368.575 173.846 368.323 174.256 368.136C174.676 367.94 175.236 367.842 175.936 367.842H178.47V368.584H175.964C175.255 368.584 174.76 368.71 174.48 368.962C174.21 369.214 174.074 369.527 174.074 369.9C174.074 370.32 174.238 370.656 174.564 370.908C174.891 371.16 175.348 371.286 175.936 371.286C176.496 371.286 176.977 371.16 177.378 370.908C177.789 370.647 178.088 370.273 178.274 369.788L178.498 370.474C178.312 370.959 177.985 371.347 177.518 371.636C177.061 371.925 176.482 372.07 175.782 372.07ZM185.762 372.07C185.118 372.07 184.539 371.925 184.026 371.636C183.513 371.337 183.107 370.908 182.808 370.348C182.509 369.788 182.36 369.111 182.36 368.318C182.36 367.515 182.509 366.839 182.808 366.288C183.116 365.728 183.527 365.303 184.04 365.014C184.553 364.725 185.127 364.58 185.762 364.58C186.462 364.58 187.087 364.739 187.638 365.056C188.198 365.364 188.637 365.798 188.954 366.358C189.271 366.918 189.43 367.571 189.43 368.318C189.43 369.055 189.271 369.709 188.954 370.278C188.637 370.838 188.198 371.277 187.638 371.594C187.087 371.911 186.462 372.07 185.762 372.07ZM181.968 372V361.612H182.962V366.82L182.822 368.304L182.92 369.788V372H181.968ZM185.692 371.188C186.215 371.188 186.681 371.071 187.092 370.838C187.503 370.595 187.829 370.259 188.072 369.83C188.315 369.391 188.436 368.887 188.436 368.318C188.436 367.739 188.315 367.235 188.072 366.806C187.829 366.377 187.503 366.045 187.092 365.812C186.681 365.569 186.215 365.448 185.692 365.448C185.169 365.448 184.698 365.569 184.278 365.812C183.867 366.045 183.541 366.377 183.298 366.806C183.065 367.235 182.948 367.739 182.948 368.318C182.948 368.887 183.065 369.391 183.298 369.83C183.541 370.259 183.867 370.595 184.278 370.838C184.698 371.071 185.169 371.188 185.692 371.188ZM191.456 372V364.65H192.408V366.652L192.31 366.302C192.516 365.742 192.861 365.317 193.346 365.028C193.832 364.729 194.434 364.58 195.152 364.58V365.546C195.115 365.546 195.078 365.546 195.04 365.546C195.003 365.537 194.966 365.532 194.928 365.532C194.154 365.532 193.547 365.77 193.108 366.246C192.67 366.713 192.45 367.38 192.45 368.248V372H191.456ZM196.966 372V364.65H197.96V372H196.966ZM197.47 363.026C197.265 363.026 197.092 362.956 196.952 362.816C196.812 362.676 196.742 362.508 196.742 362.312C196.742 362.116 196.812 361.953 196.952 361.822C197.092 361.682 197.265 361.612 197.47 361.612C197.675 361.612 197.848 361.677 197.988 361.808C198.128 361.939 198.198 362.102 198.198 362.298C198.198 362.503 198.128 362.676 197.988 362.816C197.857 362.956 197.685 363.026 197.47 363.026ZM200.726 372V361.612H201.72V372H200.726Z" fill="#313131"/>
<path d="M623.654 372.084C622.945 372.084 622.273 371.972 621.638 371.748C621.013 371.515 620.509 371.207 620.126 370.824L620.616 370.026C620.933 370.353 621.358 370.623 621.89 370.838C622.431 371.053 623.019 371.16 623.654 371.16C624.466 371.16 625.087 370.983 625.516 370.628C625.955 370.273 626.174 369.797 626.174 369.2C626.174 368.603 625.959 368.127 625.53 367.772C625.11 367.417 624.443 367.24 623.528 367.24H622.828V366.498L625.852 362.704L625.992 363.096H620.532V362.2H626.832V362.914L623.808 366.708L623.318 366.386H623.696C624.872 366.386 625.749 366.647 626.328 367.17C626.916 367.693 627.21 368.365 627.21 369.186C627.21 369.737 627.079 370.231 626.818 370.67C626.557 371.109 626.16 371.454 625.628 371.706C625.105 371.958 624.447 372.084 623.654 372.084ZM632.536 372.084C631.78 372.084 631.108 371.888 630.52 371.496C629.932 371.095 629.47 370.525 629.134 369.788C628.798 369.041 628.63 368.145 628.63 367.1C628.63 366.055 628.798 365.163 629.134 364.426C629.47 363.679 629.932 363.11 630.52 362.718C631.108 362.317 631.78 362.116 632.536 362.116C633.292 362.116 633.964 362.317 634.552 362.718C635.14 363.11 635.602 363.679 635.938 364.426C636.284 365.163 636.456 366.055 636.456 367.1C636.456 368.145 636.284 369.041 635.938 369.788C635.602 370.525 635.14 371.095 634.552 371.496C633.964 371.888 633.292 372.084 632.536 372.084ZM632.536 371.16C633.115 371.16 633.619 371.006 634.048 370.698C634.478 370.381 634.814 369.923 635.056 369.326C635.299 368.719 635.42 367.977 635.42 367.1C635.42 366.223 635.299 365.485 635.056 364.888C634.814 364.281 634.478 363.824 634.048 363.516C633.619 363.199 633.115 363.04 632.536 363.04C631.976 363.04 631.477 363.199 631.038 363.516C630.6 363.824 630.259 364.281 630.016 364.888C629.774 365.485 629.652 366.223 629.652 367.1C629.652 367.977 629.774 368.719 630.016 369.326C630.259 369.923 630.6 370.381 631.038 370.698C631.477 371.006 631.976 371.16 632.536 371.16ZM645.148 372.07C644.448 372.07 643.818 371.911 643.258 371.594C642.707 371.277 642.273 370.838 641.956 370.278C641.639 369.709 641.48 369.055 641.48 368.318C641.48 367.571 641.639 366.918 641.956 366.358C642.273 365.798 642.707 365.364 643.258 365.056C643.818 364.739 644.448 364.58 645.148 364.58C645.792 364.58 646.366 364.725 646.87 365.014C647.383 365.303 647.789 365.728 648.088 366.288C648.396 366.839 648.55 367.515 648.55 368.318C648.55 369.111 648.401 369.788 648.102 370.348C647.803 370.908 647.397 371.337 646.884 371.636C646.38 371.925 645.801 372.07 645.148 372.07ZM645.218 371.188C645.741 371.188 646.207 371.071 646.618 370.838C647.038 370.595 647.365 370.259 647.598 369.83C647.841 369.391 647.962 368.887 647.962 368.318C647.962 367.739 647.841 367.235 647.598 366.806C647.365 366.377 647.038 366.045 646.618 365.812C646.207 365.569 645.741 365.448 645.218 365.448C644.705 365.448 644.243 365.569 643.832 365.812C643.421 366.045 643.095 366.377 642.852 366.806C642.609 367.235 642.488 367.739 642.488 368.318C642.488 368.887 642.609 369.391 642.852 369.83C643.095 370.259 643.421 370.595 643.832 370.838C644.243 371.071 644.705 371.188 645.218 371.188ZM647.99 372V369.788L648.088 368.304L647.948 366.82V361.612H648.942V372H647.99ZM654.832 372.07C654.067 372.07 653.395 371.911 652.816 371.594C652.238 371.267 651.785 370.824 651.458 370.264C651.132 369.695 650.968 369.046 650.968 368.318C650.968 367.59 651.122 366.946 651.43 366.386C651.748 365.826 652.177 365.387 652.718 365.07C653.269 364.743 653.885 364.58 654.566 364.58C655.257 364.58 655.868 364.739 656.4 365.056C656.942 365.364 657.366 365.803 657.674 366.372C657.982 366.932 658.136 367.581 658.136 368.318C658.136 368.365 658.132 368.416 658.122 368.472C658.122 368.519 658.122 368.57 658.122 368.626H651.724V367.884H657.59L657.198 368.178C657.198 367.646 657.082 367.175 656.848 366.764C656.624 366.344 656.316 366.017 655.924 365.784C655.532 365.551 655.08 365.434 654.566 365.434C654.062 365.434 653.61 365.551 653.208 365.784C652.807 366.017 652.494 366.344 652.27 366.764C652.046 367.184 651.934 367.665 651.934 368.206V368.36C651.934 368.92 652.056 369.415 652.298 369.844C652.55 370.264 652.896 370.595 653.334 370.838C653.782 371.071 654.291 371.188 654.86 371.188C655.308 371.188 655.724 371.109 656.106 370.95C656.498 370.791 656.834 370.549 657.114 370.222L657.674 370.866C657.348 371.258 656.937 371.557 656.442 371.762C655.957 371.967 655.42 372.07 654.832 372.07ZM668.43 372V370.376L668.388 370.11V367.394C668.388 366.769 668.21 366.288 667.856 365.952C667.51 365.616 666.992 365.448 666.302 365.448C665.826 365.448 665.373 365.527 664.944 365.686C664.514 365.845 664.15 366.055 663.852 366.316L663.404 365.574C663.777 365.257 664.225 365.014 664.748 364.846C665.27 364.669 665.821 364.58 666.4 364.58C667.352 364.58 668.084 364.818 668.598 365.294C669.12 365.761 669.382 366.475 669.382 367.436V372H668.43ZM665.896 372.07C665.345 372.07 664.864 371.981 664.454 371.804C664.052 371.617 663.744 371.365 663.53 371.048C663.315 370.721 663.208 370.348 663.208 369.928C663.208 369.545 663.296 369.2 663.474 368.892C663.66 368.575 663.959 368.323 664.37 368.136C664.79 367.94 665.35 367.842 666.05 367.842H668.584V368.584H666.078C665.368 368.584 664.874 368.71 664.594 368.962C664.323 369.214 664.188 369.527 664.188 369.9C664.188 370.32 664.351 370.656 664.678 370.908C665.004 371.16 665.462 371.286 666.05 371.286C666.61 371.286 667.09 371.16 667.492 370.908C667.902 370.647 668.201 370.273 668.388 369.788L668.612 370.474C668.425 370.959 668.098 371.347 667.632 371.636C667.174 371.925 666.596 372.07 665.896 372.07ZM675.875 372.07C675.231 372.07 674.653 371.925 674.139 371.636C673.626 371.337 673.22 370.908 672.921 370.348C672.623 369.788 672.473 369.111 672.473 368.318C672.473 367.515 672.623 366.839 672.921 366.288C673.229 365.728 673.64 365.303 674.153 365.014C674.667 364.725 675.241 364.58 675.875 364.58C676.575 364.58 677.201 364.739 677.751 365.056C678.311 365.364 678.75 365.798 679.067 366.358C679.385 366.918 679.543 367.571 679.543 368.318C679.543 369.055 679.385 369.709 679.067 370.278C678.75 370.838 678.311 371.277 677.751 371.594C677.201 371.911 676.575 372.07 675.875 372.07ZM672.081 372V361.612H673.075V366.82L672.935 368.304L673.033 369.788V372H672.081ZM675.805 371.188C676.328 371.188 676.795 371.071 677.205 370.838C677.616 370.595 677.943 370.259 678.185 369.83C678.428 369.391 678.549 368.887 678.549 368.318C678.549 367.739 678.428 367.235 678.185 366.806C677.943 366.377 677.616 366.045 677.205 365.812C676.795 365.569 676.328 365.448 675.805 365.448C675.283 365.448 674.811 365.569 674.391 365.812C673.981 366.045 673.654 366.377 673.411 366.806C673.178 367.235 673.061 367.739 673.061 368.318C673.061 368.887 673.178 369.391 673.411 369.83C673.654 370.259 673.981 370.595 674.391 370.838C674.811 371.071 675.283 371.188 675.805 371.188ZM681.57 372V364.65H682.522V366.652L682.424 366.302C682.629 365.742 682.974 365.317 683.46 365.028C683.945 364.729 684.547 364.58 685.266 364.58V365.546C685.228 365.546 685.191 365.546 685.154 365.546C685.116 365.537 685.079 365.532 685.042 365.532C684.267 365.532 683.66 365.77 683.222 366.246C682.783 366.713 682.564 367.38 682.564 368.248V372H681.57ZM687.079 372V364.65H688.073V372H687.079ZM687.583 363.026C687.378 363.026 687.205 362.956 687.065 362.816C686.925 362.676 686.855 362.508 686.855 362.312C686.855 362.116 686.925 361.953 687.065 361.822C687.205 361.682 687.378 361.612 687.583 361.612C687.789 361.612 687.961 361.677 688.101 361.808C688.241 361.939 688.311 362.102 688.311 362.298C688.311 362.503 688.241 362.676 688.101 362.816C687.971 362.956 687.798 363.026 687.583 363.026ZM690.839 372V361.612H691.833V372H690.839Z" fill="#313131"/>
<path d="M384.436 372V362.62L384.884 363.096H382.126V362.2H385.444V372H384.436ZM390.881 372.084C390.181 372.084 389.513 371.972 388.879 371.748C388.244 371.515 387.74 371.207 387.367 370.824L387.857 370.026C388.165 370.353 388.585 370.623 389.117 370.838C389.658 371.053 390.241 371.16 390.867 371.16C391.697 371.16 392.327 370.978 392.757 370.614C393.195 370.241 393.415 369.755 393.415 369.158C393.415 368.738 393.312 368.379 393.107 368.08C392.911 367.772 392.575 367.534 392.099 367.366C391.623 367.198 390.969 367.114 390.139 367.114H388.053L388.557 362.2H393.919V363.096H388.963L389.481 362.606L389.047 366.722L388.529 366.218H390.363C391.352 366.218 392.145 366.339 392.743 366.582C393.34 366.825 393.769 367.165 394.031 367.604C394.301 368.033 394.437 368.537 394.437 369.116C394.437 369.667 394.306 370.171 394.045 370.628C393.783 371.076 393.391 371.431 392.869 371.692C392.346 371.953 391.683 372.084 390.881 372.084ZM402.964 372.07C402.264 372.07 401.634 371.911 401.074 371.594C400.524 371.277 400.09 370.838 399.772 370.278C399.455 369.709 399.296 369.055 399.296 368.318C399.296 367.571 399.455 366.918 399.772 366.358C400.09 365.798 400.524 365.364 401.074 365.056C401.634 364.739 402.264 364.58 402.964 364.58C403.608 364.58 404.182 364.725 404.686 365.014C405.2 365.303 405.606 365.728 405.904 366.288C406.212 366.839 406.366 367.515 406.366 368.318C406.366 369.111 406.217 369.788 405.918 370.348C405.62 370.908 405.214 371.337 404.7 371.636C404.196 371.925 403.618 372.07 402.964 372.07ZM403.034 371.188C403.557 371.188 404.024 371.071 404.434 370.838C404.854 370.595 405.181 370.259 405.414 369.83C405.657 369.391 405.778 368.887 405.778 368.318C405.778 367.739 405.657 367.235 405.414 366.806C405.181 366.377 404.854 366.045 404.434 365.812C404.024 365.569 403.557 365.448 403.034 365.448C402.521 365.448 402.059 365.569 401.648 365.812C401.238 366.045 400.911 366.377 400.668 366.806C400.426 367.235 400.304 367.739 400.304 368.318C400.304 368.887 400.426 369.391 400.668 369.83C400.911 370.259 401.238 370.595 401.648 370.838C402.059 371.071 402.521 371.188 403.034 371.188ZM405.806 372V369.788L405.904 368.304L405.764 366.82V361.612H406.758V372H405.806ZM412.649 372.07C411.883 372.07 411.211 371.911 410.633 371.594C410.054 371.267 409.601 370.824 409.275 370.264C408.948 369.695 408.785 369.046 408.785 368.318C408.785 367.59 408.939 366.946 409.247 366.386C409.564 365.826 409.993 365.387 410.535 365.07C411.085 364.743 411.701 364.58 412.383 364.58C413.073 364.58 413.685 364.739 414.217 365.056C414.758 365.364 415.183 365.803 415.491 366.372C415.799 366.932 415.953 367.581 415.953 368.318C415.953 368.365 415.948 368.416 415.939 368.472C415.939 368.519 415.939 368.57 415.939 368.626H409.541V367.884H415.407L415.015 368.178C415.015 367.646 414.898 367.175 414.665 366.764C414.441 366.344 414.133 366.017 413.741 365.784C413.349 365.551 412.896 365.434 412.383 365.434C411.879 365.434 411.426 365.551 411.025 365.784C410.623 366.017 410.311 366.344 410.087 366.764C409.863 367.184 409.751 367.665 409.751 368.206V368.36C409.751 368.92 409.872 369.415 410.115 369.844C410.367 370.264 410.712 370.595 411.151 370.838C411.599 371.071 412.107 371.188 412.677 371.188C413.125 371.188 413.54 371.109 413.923 370.95C414.315 370.791 414.651 370.549 414.931 370.222L415.491 370.866C415.164 371.258 414.753 371.557 414.259 371.762C413.773 371.967 413.237 372.07 412.649 372.07ZM426.246 372V370.376L426.204 370.11V367.394C426.204 366.769 426.027 366.288 425.672 365.952C425.327 365.616 424.809 365.448 424.118 365.448C423.642 365.448 423.189 365.527 422.76 365.686C422.331 365.845 421.967 366.055 421.668 366.316L421.22 365.574C421.593 365.257 422.041 365.014 422.564 364.846C423.087 364.669 423.637 364.58 424.216 364.58C425.168 364.58 425.901 364.818 426.414 365.294C426.937 365.761 427.198 366.475 427.198 367.436V372H426.246ZM423.712 372.07C423.161 372.07 422.681 371.981 422.27 371.804C421.869 371.617 421.561 371.365 421.346 371.048C421.131 370.721 421.024 370.348 421.024 369.928C421.024 369.545 421.113 369.2 421.29 368.892C421.477 368.575 421.775 368.323 422.186 368.136C422.606 367.94 423.166 367.842 423.866 367.842H426.4V368.584H423.894C423.185 368.584 422.69 368.71 422.41 368.962C422.139 369.214 422.004 369.527 422.004 369.9C422.004 370.32 422.167 370.656 422.494 370.908C422.821 371.16 423.278 371.286 423.866 371.286C424.426 371.286 424.907 371.16 425.308 370.908C425.719 370.647 426.017 370.273 426.204 369.788L426.428 370.474C426.241 370.959 425.915 371.347 425.448 371.636C424.991 371.925 424.412 372.07 423.712 372.07ZM433.692 372.07C433.048 372.07 432.469 371.925 431.956 371.636C431.442 371.337 431.036 370.908 430.738 370.348C430.439 369.788 430.29 369.111 430.29 368.318C430.29 367.515 430.439 366.839 430.738 366.288C431.046 365.728 431.456 365.303 431.97 365.014C432.483 364.725 433.057 364.58 433.692 364.58C434.392 364.58 435.017 364.739 435.568 365.056C436.128 365.364 436.566 365.798 436.884 366.358C437.201 366.918 437.36 367.571 437.36 368.318C437.36 369.055 437.201 369.709 436.884 370.278C436.566 370.838 436.128 371.277 435.568 371.594C435.017 371.911 434.392 372.07 433.692 372.07ZM429.898 372V361.612H430.892V366.82L430.752 368.304L430.85 369.788V372H429.898ZM433.622 371.188C434.144 371.188 434.611 371.071 435.022 370.838C435.432 370.595 435.759 370.259 436.002 369.83C436.244 369.391 436.366 368.887 436.366 368.318C436.366 367.739 436.244 367.235 436.002 366.806C435.759 366.377 435.432 366.045 435.022 365.812C434.611 365.569 434.144 365.448 433.622 365.448C433.099 365.448 432.628 365.569 432.208 365.812C431.797 366.045 431.47 366.377 431.228 366.806C430.994 367.235 430.878 367.739 430.878 368.318C430.878 368.887 430.994 369.391 431.228 369.83C431.47 370.259 431.797 370.595 432.208 370.838C432.628 371.071 433.099 371.188 433.622 371.188ZM439.386 372V364.65H440.338V366.652L440.24 366.302C440.445 365.742 440.791 365.317 441.276 365.028C441.761 364.729 442.363 364.58 443.082 364.58V365.546C443.045 365.546 443.007 365.546 442.97 365.546C442.933 365.537 442.895 365.532 442.858 365.532C442.083 365.532 441.477 365.77 441.038 366.246C440.599 366.713 440.38 367.38 440.38 368.248V372H439.386ZM444.896 372V364.65H445.89V372H444.896ZM445.4 363.026C445.194 363.026 445.022 362.956 444.882 362.816C444.742 362.676 444.672 362.508 444.672 362.312C444.672 362.116 444.742 361.953 444.882 361.822C445.022 361.682 445.194 361.612 445.4 361.612C445.605 361.612 445.778 361.677 445.918 361.808C446.058 361.939 446.128 362.102 446.128 362.298C446.128 362.503 446.058 362.676 445.918 362.816C445.787 362.956 445.614 363.026 445.4 363.026ZM448.656 372V361.612H449.65V372H448.656Z" fill="#313131"/>
</svg>
