<svg width="302" height="227" viewBox="0 0 302 227" fill="none" xmlns="http://www.w3.org/2000/svg">
<path d="M244.654 221.084C243.945 221.084 243.273 220.972 242.638 220.748C242.013 220.515 241.509 220.207 241.126 219.824L241.616 219.026C241.933 219.353 242.358 219.623 242.89 219.838C243.431 220.053 244.019 220.16 244.654 220.16C245.466 220.16 246.087 219.983 246.516 219.628C246.955 219.273 247.174 218.797 247.174 218.2C247.174 217.603 246.959 217.127 246.53 216.772C246.11 216.417 245.443 216.24 244.528 216.24H243.828V215.498L246.852 211.704L246.992 212.096H241.532V211.2H247.832V211.914L244.808 215.708L244.318 215.386H244.696C245.872 215.386 246.749 215.647 247.328 216.17C247.916 216.693 248.21 217.365 248.21 218.186C248.21 218.737 248.079 219.231 247.818 219.67C247.557 220.109 247.16 220.454 246.628 220.706C246.105 220.958 245.447 221.084 244.654 221.084ZM253.536 221.084C252.78 221.084 252.108 220.888 251.52 220.496C250.932 220.095 250.47 219.525 250.134 218.788C249.798 218.041 249.63 217.145 249.63 216.1C249.63 215.055 249.798 214.163 250.134 213.426C250.47 212.679 250.932 212.11 251.52 211.718C252.108 211.317 252.78 211.116 253.536 211.116C254.292 211.116 254.964 211.317 255.552 211.718C256.14 212.11 256.602 212.679 256.938 213.426C257.284 214.163 257.456 215.055 257.456 216.1C257.456 217.145 257.284 218.041 256.938 218.788C256.602 219.525 256.14 220.095 255.552 220.496C254.964 220.888 254.292 221.084 253.536 221.084ZM253.536 220.16C254.115 220.16 254.619 220.006 255.048 219.698C255.478 219.381 255.814 218.923 256.056 218.326C256.299 217.719 256.42 216.977 256.42 216.1C256.42 215.223 256.299 214.485 256.056 213.888C255.814 213.281 255.478 212.824 255.048 212.516C254.619 212.199 254.115 212.04 253.536 212.04C252.976 212.04 252.477 212.199 252.038 212.516C251.6 212.824 251.259 213.281 251.016 213.888C250.774 214.485 250.652 215.223 250.652 216.1C250.652 216.977 250.774 217.719 251.016 218.326C251.259 218.923 251.6 219.381 252.038 219.698C252.477 220.006 252.976 220.16 253.536 220.16ZM267.828 221V219.376L267.786 219.11V216.394C267.786 215.769 267.609 215.288 267.254 214.952C266.909 214.616 266.391 214.448 265.7 214.448C265.224 214.448 264.771 214.527 264.342 214.686C263.913 214.845 263.549 215.055 263.25 215.316L262.802 214.574C263.175 214.257 263.623 214.014 264.146 213.846C264.669 213.669 265.219 213.58 265.798 213.58C266.75 213.58 267.483 213.818 267.996 214.294C268.519 214.761 268.78 215.475 268.78 216.436V221H267.828ZM265.294 221.07C264.743 221.07 264.263 220.981 263.852 220.804C263.451 220.617 263.143 220.365 262.928 220.048C262.713 219.721 262.606 219.348 262.606 218.928C262.606 218.545 262.695 218.2 262.872 217.892C263.059 217.575 263.357 217.323 263.768 217.136C264.188 216.94 264.748 216.842 265.448 216.842H267.982V217.584H265.476C264.767 217.584 264.272 217.71 263.992 217.962C263.721 218.214 263.586 218.527 263.586 218.9C263.586 219.32 263.749 219.656 264.076 219.908C264.403 220.16 264.86 220.286 265.448 220.286C266.008 220.286 266.489 220.16 266.89 219.908C267.301 219.647 267.599 219.273 267.786 218.788L268.01 219.474C267.823 219.959 267.497 220.347 267.03 220.636C266.573 220.925 265.994 221.07 265.294 221.07ZM275.274 221.07C274.639 221.07 274.065 220.925 273.552 220.636C273.038 220.337 272.628 219.913 272.32 219.362C272.021 218.802 271.872 218.121 271.872 217.318C271.872 216.515 272.021 215.839 272.32 215.288C272.618 214.728 273.024 214.303 273.538 214.014C274.051 213.725 274.63 213.58 275.274 213.58C275.974 213.58 276.599 213.739 277.15 214.056C277.71 214.364 278.148 214.803 278.466 215.372C278.783 215.932 278.942 216.581 278.942 217.318C278.942 218.065 278.783 218.718 278.466 219.278C278.148 219.838 277.71 220.277 277.15 220.594C276.599 220.911 275.974 221.07 275.274 221.07ZM271.48 223.716V213.65H272.432V215.862L272.334 217.332L272.474 218.816V223.716H271.48ZM275.204 220.188C275.726 220.188 276.193 220.071 276.604 219.838C277.014 219.595 277.341 219.259 277.584 218.83C277.826 218.391 277.948 217.887 277.948 217.318C277.948 216.749 277.826 216.249 277.584 215.82C277.341 215.391 277.014 215.055 276.604 214.812C276.193 214.569 275.726 214.448 275.204 214.448C274.681 214.448 274.21 214.569 273.79 214.812C273.379 215.055 273.052 215.391 272.81 215.82C272.576 216.249 272.46 216.749 272.46 217.318C272.46 217.887 272.576 218.391 272.81 218.83C273.052 219.259 273.379 219.595 273.79 219.838C274.21 220.071 274.681 220.188 275.204 220.188ZM280.968 221V213.65H281.92V215.652L281.822 215.302C282.027 214.742 282.373 214.317 282.858 214.028C283.343 213.729 283.945 213.58 284.664 213.58V214.546C284.627 214.546 284.589 214.546 284.552 214.546C284.515 214.537 284.477 214.532 284.44 214.532C283.665 214.532 283.059 214.77 282.62 215.246C282.181 215.713 281.962 216.38 281.962 217.248V221H280.968ZM286.478 221V213.65H287.472V221H286.478ZM286.982 212.026C286.776 212.026 286.604 211.956 286.464 211.816C286.324 211.676 286.254 211.508 286.254 211.312C286.254 211.116 286.324 210.953 286.464 210.822C286.604 210.682 286.776 210.612 286.982 210.612C287.187 210.612 287.36 210.677 287.5 210.808C287.64 210.939 287.71 211.102 287.71 211.298C287.71 211.503 287.64 211.676 287.5 211.816C287.369 211.956 287.196 212.026 286.982 212.026ZM290.238 221V210.612H291.232V221H290.238ZM297.119 221.07C296.354 221.07 295.682 220.911 295.103 220.594C294.525 220.267 294.072 219.824 293.745 219.264C293.419 218.695 293.255 218.046 293.255 217.318C293.255 216.59 293.409 215.946 293.717 215.386C294.035 214.826 294.464 214.387 295.005 214.07C295.556 213.743 296.172 213.58 296.853 213.58C297.544 213.58 298.155 213.739 298.687 214.056C299.229 214.364 299.653 214.803 299.961 215.372C300.269 215.932 300.423 216.581 300.423 217.318C300.423 217.365 300.419 217.416 300.409 217.472C300.409 217.519 300.409 217.57 300.409 217.626H294.011V216.884H299.877L299.485 217.178C299.485 216.646 299.369 216.175 299.135 215.764C298.911 215.344 298.603 215.017 298.211 214.784C297.819 214.551 297.367 214.434 296.853 214.434C296.349 214.434 295.897 214.551 295.495 214.784C295.094 215.017 294.781 215.344 294.557 215.764C294.333 216.184 294.221 216.665 294.221 217.206V217.36C294.221 217.92 294.343 218.415 294.585 218.844C294.837 219.264 295.183 219.595 295.621 219.838C296.069 220.071 296.578 220.188 297.147 220.188C297.595 220.188 298.011 220.109 298.393 219.95C298.785 219.791 299.121 219.549 299.401 219.222L299.961 219.866C299.635 220.258 299.224 220.557 298.729 220.762C298.244 220.967 297.707 221.07 297.119 221.07Z" fill="#313131"/>
<path d="M121.436 221V211.62L121.884 212.096H119.126V211.2H122.444V221H121.436ZM127.881 221.084C127.181 221.084 126.513 220.972 125.879 220.748C125.244 220.515 124.74 220.207 124.367 219.824L124.857 219.026C125.165 219.353 125.585 219.623 126.117 219.838C126.658 220.053 127.241 220.16 127.867 220.16C128.697 220.16 129.327 219.978 129.757 219.614C130.195 219.241 130.415 218.755 130.415 218.158C130.415 217.738 130.312 217.379 130.107 217.08C129.911 216.772 129.575 216.534 129.099 216.366C128.623 216.198 127.969 216.114 127.139 216.114H125.053L125.557 211.2H130.919V212.096H125.963L126.481 211.606L126.047 215.722L125.529 215.218H127.363C128.352 215.218 129.145 215.339 129.743 215.582C130.34 215.825 130.769 216.165 131.031 216.604C131.301 217.033 131.437 217.537 131.437 218.116C131.437 218.667 131.306 219.171 131.045 219.628C130.783 220.076 130.391 220.431 129.869 220.692C129.346 220.953 128.683 221.084 127.881 221.084ZM141.644 221V219.376L141.602 219.11V216.394C141.602 215.769 141.425 215.288 141.07 214.952C140.725 214.616 140.207 214.448 139.516 214.448C139.04 214.448 138.588 214.527 138.158 214.686C137.729 214.845 137.365 215.055 137.066 215.316L136.618 214.574C136.992 214.257 137.44 214.014 137.962 213.846C138.485 213.669 139.036 213.58 139.614 213.58C140.566 213.58 141.299 213.818 141.812 214.294C142.335 214.761 142.596 215.475 142.596 216.436V221H141.644ZM139.11 221.07C138.56 221.07 138.079 220.981 137.668 220.804C137.267 220.617 136.959 220.365 136.744 220.048C136.53 219.721 136.422 219.348 136.422 218.928C136.422 218.545 136.511 218.2 136.688 217.892C136.875 217.575 137.174 217.323 137.584 217.136C138.004 216.94 138.564 216.842 139.264 216.842H141.798V217.584H139.292C138.583 217.584 138.088 217.71 137.808 217.962C137.538 218.214 137.402 218.527 137.402 218.9C137.402 219.32 137.566 219.656 137.892 219.908C138.219 220.16 138.676 220.286 139.264 220.286C139.824 220.286 140.305 220.16 140.706 219.908C141.117 219.647 141.416 219.273 141.602 218.788L141.826 219.474C141.64 219.959 141.313 220.347 140.846 220.636C140.389 220.925 139.81 221.07 139.11 221.07ZM149.09 221.07C148.455 221.07 147.881 220.925 147.368 220.636C146.855 220.337 146.444 219.913 146.136 219.362C145.837 218.802 145.688 218.121 145.688 217.318C145.688 216.515 145.837 215.839 146.136 215.288C146.435 214.728 146.841 214.303 147.354 214.014C147.867 213.725 148.446 213.58 149.09 213.58C149.79 213.58 150.415 213.739 150.966 214.056C151.526 214.364 151.965 214.803 152.282 215.372C152.599 215.932 152.758 216.581 152.758 217.318C152.758 218.065 152.599 218.718 152.282 219.278C151.965 219.838 151.526 220.277 150.966 220.594C150.415 220.911 149.79 221.07 149.09 221.07ZM145.296 223.716V213.65H146.248V215.862L146.15 217.332L146.29 218.816V223.716H145.296ZM149.02 220.188C149.543 220.188 150.009 220.071 150.42 219.838C150.831 219.595 151.157 219.259 151.4 218.83C151.643 218.391 151.764 217.887 151.764 217.318C151.764 216.749 151.643 216.249 151.4 215.82C151.157 215.391 150.831 215.055 150.42 214.812C150.009 214.569 149.543 214.448 149.02 214.448C148.497 214.448 148.026 214.569 147.606 214.812C147.195 215.055 146.869 215.391 146.626 215.82C146.393 216.249 146.276 216.749 146.276 217.318C146.276 217.887 146.393 218.391 146.626 218.83C146.869 219.259 147.195 219.595 147.606 219.838C148.026 220.071 148.497 220.188 149.02 220.188ZM154.784 221V213.65H155.736V215.652L155.638 215.302C155.844 214.742 156.189 214.317 156.674 214.028C157.16 213.729 157.762 213.58 158.48 213.58V214.546C158.443 214.546 158.406 214.546 158.368 214.546C158.331 214.537 158.294 214.532 158.256 214.532C157.482 214.532 156.875 214.77 156.436 215.246C155.998 215.713 155.778 216.38 155.778 217.248V221H154.784ZM160.294 221V213.65H161.288V221H160.294ZM160.798 212.026C160.593 212.026 160.42 211.956 160.28 211.816C160.14 211.676 160.07 211.508 160.07 211.312C160.07 211.116 160.14 210.953 160.28 210.822C160.42 210.682 160.593 210.612 160.798 210.612C161.004 210.612 161.176 210.677 161.316 210.808C161.456 210.939 161.526 211.102 161.526 211.298C161.526 211.503 161.456 211.676 161.316 211.816C161.186 211.956 161.013 212.026 160.798 212.026ZM164.054 221V210.612H165.048V221H164.054ZM170.936 221.07C170.17 221.07 169.498 220.911 168.92 220.594C168.341 220.267 167.888 219.824 167.562 219.264C167.235 218.695 167.072 218.046 167.072 217.318C167.072 216.59 167.226 215.946 167.534 215.386C167.851 214.826 168.28 214.387 168.822 214.07C169.372 213.743 169.988 213.58 170.67 213.58C171.36 213.58 171.972 213.739 172.504 214.056C173.045 214.364 173.47 214.803 173.778 215.372C174.086 215.932 174.24 216.581 174.24 217.318C174.24 217.365 174.235 217.416 174.226 217.472C174.226 217.519 174.226 217.57 174.226 217.626H167.828V216.884H173.694L173.302 217.178C173.302 216.646 173.185 216.175 172.952 215.764C172.728 215.344 172.42 215.017 172.028 214.784C171.636 214.551 171.183 214.434 170.67 214.434C170.166 214.434 169.713 214.551 169.312 214.784C168.91 215.017 168.598 215.344 168.374 215.764C168.15 216.184 168.038 216.665 168.038 217.206V217.36C168.038 217.92 168.159 218.415 168.402 218.844C168.654 219.264 168.999 219.595 169.438 219.838C169.886 220.071 170.394 220.188 170.964 220.188C171.412 220.188 171.827 220.109 172.21 219.95C172.602 219.791 172.938 219.549 173.218 219.222L173.778 219.866C173.451 220.258 173.04 220.557 172.546 220.762C172.06 220.967 171.524 221.07 170.936 221.07Z" fill="#313131"/>
<path d="M2.436 221V211.62L2.884 212.096H0.126V211.2H3.444V221H2.436ZM14.7147 221V219.376L14.6727 219.11V216.394C14.6727 215.769 14.4953 215.288 14.1407 214.952C13.7953 214.616 13.2773 214.448 12.5867 214.448C12.1107 214.448 11.658 214.527 11.2287 214.686C10.7993 214.845 10.4353 215.055 10.1367 215.316L9.68866 214.574C10.062 214.257 10.51 214.014 11.0327 213.846C11.5553 213.669 12.106 213.58 12.6847 213.58C13.6367 213.58 14.3693 213.818 14.8827 214.294C15.4053 214.761 15.6667 215.475 15.6667 216.436V221H14.7147ZM12.1807 221.07C11.63 221.07 11.1493 220.981 10.7387 220.804C10.3373 220.617 10.0293 220.365 9.81466 220.048C9.59999 219.721 9.49266 219.348 9.49266 218.928C9.49266 218.545 9.58132 218.2 9.75866 217.892C9.94532 217.575 10.244 217.323 10.6547 217.136C11.0747 216.94 11.6347 216.842 12.3347 216.842H14.8687V217.584H12.3627C11.6533 217.584 11.1587 217.71 10.8787 217.962C10.608 218.214 10.4727 218.527 10.4727 218.9C10.4727 219.32 10.636 219.656 10.9627 219.908C11.2893 220.16 11.7467 220.286 12.3347 220.286C12.8947 220.286 13.3753 220.16 13.7767 219.908C14.1873 219.647 14.486 219.273 14.6727 218.788L14.8967 219.474C14.71 219.959 14.3833 220.347 13.9167 220.636C13.4593 220.925 12.8807 221.07 12.1807 221.07ZM22.1605 221.07C21.5258 221.07 20.9518 220.925 20.4385 220.636C19.9251 220.337 19.5145 219.913 19.2065 219.362C18.9078 218.802 18.7585 218.121 18.7585 217.318C18.7585 216.515 18.9078 215.839 19.2065 215.288C19.5051 214.728 19.9111 214.303 20.4245 214.014C20.9378 213.725 21.5165 213.58 22.1605 213.58C22.8605 213.58 23.4858 213.739 24.0365 214.056C24.5965 214.364 25.0351 214.803 25.3525 215.372C25.6698 215.932 25.8285 216.581 25.8285 217.318C25.8285 218.065 25.6698 218.718 25.3525 219.278C25.0351 219.838 24.5965 220.277 24.0365 220.594C23.4858 220.911 22.8605 221.07 22.1605 221.07ZM18.3665 223.716V213.65H19.3185V215.862L19.2205 217.332L19.3605 218.816V223.716H18.3665ZM22.0905 220.188C22.6131 220.188 23.0798 220.071 23.4905 219.838C23.9011 219.595 24.2278 219.259 24.4705 218.83C24.7131 218.391 24.8345 217.887 24.8345 217.318C24.8345 216.749 24.7131 216.249 24.4705 215.82C24.2278 215.391 23.9011 215.055 23.4905 214.812C23.0798 214.569 22.6131 214.448 22.0905 214.448C21.5678 214.448 21.0965 214.569 20.6765 214.812C20.2658 215.055 19.9391 215.391 19.6965 215.82C19.4631 216.249 19.3465 216.749 19.3465 217.318C19.3465 217.887 19.4631 218.391 19.6965 218.83C19.9391 219.259 20.2658 219.595 20.6765 219.838C21.0965 220.071 21.5678 220.188 22.0905 220.188ZM27.8548 221V213.65H28.8068V215.652L28.7088 215.302C28.9141 214.742 29.2594 214.317 29.7448 214.028C30.2301 213.729 30.8321 213.58 31.5508 213.58V214.546C31.5134 214.546 31.4761 214.546 31.4388 214.546C31.4014 214.537 31.3641 214.532 31.3268 214.532C30.5521 214.532 29.9454 214.77 29.5068 215.246C29.0681 215.713 28.8488 216.38 28.8488 217.248V221H27.8548ZM33.3645 221V213.65H34.3585V221H33.3645ZM33.8685 212.026C33.6632 212.026 33.4905 211.956 33.3505 211.816C33.2105 211.676 33.1405 211.508 33.1405 211.312C33.1405 211.116 33.2105 210.953 33.3505 210.822C33.4905 210.682 33.6632 210.612 33.8685 210.612C34.0738 210.612 34.2465 210.677 34.3865 210.808C34.5265 210.939 34.5965 211.102 34.5965 211.298C34.5965 211.503 34.5265 211.676 34.3865 211.816C34.2558 211.956 34.0832 212.026 33.8685 212.026ZM37.1243 221V210.612H38.1183V221H37.1243ZM44.006 221.07C43.2407 221.07 42.5687 220.911 41.99 220.594C41.4114 220.267 40.9587 219.824 40.632 219.264C40.3054 218.695 40.142 218.046 40.142 217.318C40.142 216.59 40.296 215.946 40.604 215.386C40.9214 214.826 41.3507 214.387 41.892 214.07C42.4427 213.743 43.0587 213.58 43.74 213.58C44.4307 213.58 45.042 213.739 45.574 214.056C46.1154 214.364 46.54 214.803 46.848 215.372C47.156 215.932 47.31 216.581 47.31 217.318C47.31 217.365 47.3054 217.416 47.296 217.472C47.296 217.519 47.296 217.57 47.296 217.626H40.898V216.884H46.764L46.372 217.178C46.372 216.646 46.2554 216.175 46.022 215.764C45.798 215.344 45.49 215.017 45.098 214.784C44.706 214.551 44.2534 214.434 43.74 214.434C43.236 214.434 42.7834 214.551 42.382 214.784C41.9807 215.017 41.668 215.344 41.444 215.764C41.22 216.184 41.108 216.665 41.108 217.206V217.36C41.108 217.92 41.2294 218.415 41.472 218.844C41.724 219.264 42.0694 219.595 42.508 219.838C42.956 220.071 43.4647 220.188 44.034 220.188C44.482 220.188 44.8974 220.109 45.28 219.95C45.672 219.791 46.008 219.549 46.288 219.222L46.848 219.866C46.5214 220.258 46.1107 220.557 45.616 220.762C45.1307 220.967 44.594 221.07 44.006 221.07Z" fill="#313131"/>
<rect x="301.998" y="204" width="11" height="181" transform="rotate(180 301.998 204)" fill="#BC0051"/>
<rect x="286.998" y="204" width="11" height="151" transform="rotate(180 286.998 204)" fill="#214B33"/>
<rect x="270.998" y="204" width="11" height="144" transform="rotate(180 270.998 204)" fill="#A2C33D" fill-opacity="0.4"/>
<rect x="255.998" y="204" width="11" height="141" transform="rotate(180 255.998 204)" fill="#A2C33D" fill-opacity="0.4"/>
<rect x="240.998" y="204" width="11" height="136" transform="rotate(180 240.998 204)" fill="#A2C33D" fill-opacity="0.4"/>
<rect x="225.998" y="204" width="11" height="128" transform="rotate(180 225.998 204)" fill="#A2C33D" fill-opacity="0.4"/>
<rect x="209.998" y="204" width="11" height="125" transform="rotate(180 209.998 204)" fill="#A2C33D" fill-opacity="0.4"/>
<rect x="194.998" y="204" width="11" height="113" transform="rotate(180 194.998 204)" fill="#A2C33D" fill-opacity="0.4"/>
<rect x="179.998" y="204" width="11" height="111" transform="rotate(180 179.998 204)" fill="#A2C33D" fill-opacity="0.4"/>
<rect x="163.998" y="204" width="11" height="104" transform="rotate(180 163.998 204)" fill="#A2C33D" fill-opacity="0.4"/>
<rect x="148.998" y="204" width="11" height="104" transform="rotate(180 148.998 204)" fill="#A2C33D" fill-opacity="0.4"/>
<rect x="133.998" y="204" width="11" height="100" transform="rotate(180 133.998 204)" fill="#A2C33D" fill-opacity="0.4"/>
<rect x="117.998" y="204" width="11" height="97" transform="rotate(180 117.998 204)" fill="#A2C33D" fill-opacity="0.4"/>
<rect x="102.998" y="204" width="11" height="97" transform="rotate(180 102.998 204)" fill="#A2C33D" fill-opacity="0.4"/>
<rect x="87.998" y="204" width="11" height="86" transform="rotate(180 87.998 204)" fill="#A2C33D" fill-opacity="0.4"/>
<rect x="72.998" y="204" width="11" height="82" transform="rotate(180 72.998 204)" fill="#A2C33D" fill-opacity="0.4"/>
<rect x="56.998" y="204" width="11" height="79" transform="rotate(180 56.998 204)" fill="#A2C33D" fill-opacity="0.4"/>
<rect x="41.998" y="204" width="11" height="71" transform="rotate(180 41.998 204)" fill="#A2C33D" fill-opacity="0.4"/>
<rect x="26.998" y="204" width="11" height="68" transform="rotate(180 26.998 204)" fill="#A2C33D" fill-opacity="0.4"/>
<rect x="11" y="204" width="11" height="57" transform="rotate(180 11 204)" fill="#A2C33D"/>
<path d="M6 54V147" stroke="#A2C33D" stroke-width="11.3313" stroke-dasharray="5.67 5.67"/>
<path d="M20.852 150.084C20.1147 150.084 19.4333 149.963 18.808 149.72C18.1827 149.468 17.6413 149.118 17.184 148.67C16.7267 148.222 16.3673 147.695 16.106 147.088C15.854 146.481 15.728 145.819 15.728 145.1C15.728 144.381 15.854 143.719 16.106 143.112C16.3673 142.505 16.7267 141.978 17.184 141.53C17.6507 141.082 18.1967 140.737 18.822 140.494C19.4473 140.242 20.1287 140.116 20.866 140.116C21.5753 140.116 22.2427 140.237 22.868 140.48C23.4933 140.713 24.0207 141.068 24.45 141.544L23.792 142.202C23.3907 141.791 22.9473 141.497 22.462 141.32C21.9767 141.133 21.454 141.04 20.894 141.04C20.306 141.04 19.76 141.143 19.256 141.348C18.752 141.544 18.3133 141.829 17.94 142.202C17.5667 142.566 17.2727 142.995 17.058 143.49C16.8527 143.975 16.75 144.512 16.75 145.1C16.75 145.688 16.8527 146.229 17.058 146.724C17.2727 147.209 17.5667 147.639 17.94 148.012C18.3133 148.376 18.752 148.661 19.256 148.866C19.76 149.062 20.306 149.16 20.894 149.16C21.454 149.16 21.9767 149.067 22.462 148.88C22.9473 148.693 23.3907 148.395 23.792 147.984L24.45 148.642C24.0207 149.118 23.4933 149.477 22.868 149.72C22.2427 149.963 21.5707 150.084 20.852 150.084ZM29.1164 150.07C28.407 150.07 27.7677 149.911 27.1984 149.594C26.6384 149.267 26.195 148.824 25.8684 148.264C25.5417 147.695 25.3784 147.046 25.3784 146.318C25.3784 145.581 25.5417 144.932 25.8684 144.372C26.195 143.812 26.6384 143.373 27.1984 143.056C27.7584 142.739 28.3977 142.58 29.1164 142.58C29.8444 142.58 30.4884 142.739 31.0484 143.056C31.6177 143.373 32.061 143.812 32.3784 144.372C32.705 144.932 32.8684 145.581 32.8684 146.318C32.8684 147.046 32.705 147.695 32.3784 148.264C32.061 148.824 31.6177 149.267 31.0484 149.594C30.479 149.911 29.835 150.07 29.1164 150.07ZM29.1164 149.188C29.6484 149.188 30.1197 149.071 30.5304 148.838C30.941 148.595 31.263 148.259 31.4964 147.83C31.739 147.391 31.8604 146.887 31.8604 146.318C31.8604 145.739 31.739 145.235 31.4964 144.806C31.263 144.377 30.941 144.045 30.5304 143.812C30.1197 143.569 29.653 143.448 29.1304 143.448C28.6077 143.448 28.141 143.569 27.7304 143.812C27.3197 144.045 26.993 144.377 26.7504 144.806C26.5077 145.235 26.3864 145.739 26.3864 146.318C26.3864 146.887 26.5077 147.391 26.7504 147.83C26.993 148.259 27.3197 148.595 27.7304 148.838C28.141 149.071 28.603 149.188 29.1164 149.188ZM44.0817 142.58C44.6791 142.58 45.1971 142.697 45.6357 142.93C46.0837 143.154 46.4291 143.499 46.6717 143.966C46.9237 144.433 47.0497 145.021 47.0497 145.73V150H46.0557V145.828C46.0557 145.053 45.8691 144.47 45.4957 144.078C45.1317 143.677 44.6137 143.476 43.9417 143.476C43.4377 143.476 42.9991 143.583 42.6257 143.798C42.2617 144.003 41.9771 144.307 41.7717 144.708C41.5757 145.1 41.4777 145.576 41.4777 146.136V150H40.4837V145.828C40.4837 145.053 40.2971 144.47 39.9237 144.078C39.5504 143.677 39.0277 143.476 38.3557 143.476C37.8611 143.476 37.4271 143.583 37.0537 143.798C36.6804 144.003 36.3911 144.307 36.1857 144.708C35.9897 145.1 35.8917 145.576 35.8917 146.136V150H34.8977V142.65H35.8497V144.638L35.6957 144.288C35.9197 143.756 36.2791 143.341 36.7737 143.042C37.2777 142.734 37.8704 142.58 38.5517 142.58C39.2704 142.58 39.8817 142.762 40.3857 143.126C40.8897 143.481 41.2164 144.017 41.3657 144.736L40.9737 144.582C41.1884 143.985 41.5664 143.504 42.1077 143.14C42.6584 142.767 43.3164 142.58 44.0817 142.58ZM53.5394 150.07C52.9047 150.07 52.3307 149.925 51.8174 149.636C51.304 149.337 50.8934 148.913 50.5854 148.362C50.2867 147.802 50.1374 147.121 50.1374 146.318C50.1374 145.515 50.2867 144.839 50.5854 144.288C50.884 143.728 51.29 143.303 51.8034 143.014C52.3167 142.725 52.8954 142.58 53.5394 142.58C54.2394 142.58 54.8647 142.739 55.4154 143.056C55.9754 143.364 56.414 143.803 56.7314 144.372C57.0487 144.932 57.2074 145.581 57.2074 146.318C57.2074 147.065 57.0487 147.718 56.7314 148.278C56.414 148.838 55.9754 149.277 55.4154 149.594C54.8647 149.911 54.2394 150.07 53.5394 150.07ZM49.7454 152.716V142.65H50.6974V144.862L50.5994 146.332L50.7394 147.816V152.716H49.7454ZM53.4694 149.188C53.992 149.188 54.4587 149.071 54.8694 148.838C55.28 148.595 55.6067 148.259 55.8494 147.83C56.092 147.391 56.2134 146.887 56.2134 146.318C56.2134 145.749 56.092 145.249 55.8494 144.82C55.6067 144.391 55.28 144.055 54.8694 143.812C54.4587 143.569 53.992 143.448 53.4694 143.448C52.9467 143.448 52.4754 143.569 52.0554 143.812C51.6447 144.055 51.318 144.391 51.0754 144.82C50.842 145.249 50.7254 145.749 50.7254 146.318C50.7254 146.887 50.842 147.391 51.0754 147.83C51.318 148.259 51.6447 148.595 52.0554 148.838C52.4754 149.071 52.9467 149.188 53.4694 149.188ZM59.2337 150V142.65H60.1857V144.652L60.0877 144.302C60.293 143.742 60.6383 143.317 61.1237 143.028C61.609 142.729 62.211 142.58 62.9297 142.58V143.546C62.8923 143.546 62.855 143.546 62.8177 143.546C62.7803 143.537 62.743 143.532 62.7057 143.532C61.931 143.532 61.3243 143.77 60.8857 144.246C60.447 144.713 60.2277 145.38 60.2277 146.248V150H59.2337ZM68.8025 150V148.376L68.7605 148.11V145.394C68.7605 144.769 68.5832 144.288 68.2285 143.952C67.8832 143.616 67.3652 143.448 66.6745 143.448C66.1985 143.448 65.7459 143.527 65.3165 143.686C64.8872 143.845 64.5232 144.055 64.2245 144.316L63.7765 143.574C64.1499 143.257 64.5979 143.014 65.1205 142.846C65.6432 142.669 66.1939 142.58 66.7725 142.58C67.7245 142.58 68.4572 142.818 68.9705 143.294C69.4932 143.761 69.7545 144.475 69.7545 145.436V150H68.8025ZM66.2685 150.07C65.7179 150.07 65.2372 149.981 64.8265 149.804C64.4252 149.617 64.1172 149.365 63.9025 149.048C63.6879 148.721 63.5805 148.348 63.5805 147.928C63.5805 147.545 63.6692 147.2 63.8465 146.892C64.0332 146.575 64.3319 146.323 64.7425 146.136C65.1625 145.94 65.7225 145.842 66.4225 145.842H68.9565V146.584H66.4505C65.7412 146.584 65.2465 146.71 64.9665 146.962C64.6959 147.214 64.5605 147.527 64.5605 147.9C64.5605 148.32 64.7239 148.656 65.0505 148.908C65.3772 149.16 65.8345 149.286 66.4225 149.286C66.9825 149.286 67.4632 149.16 67.8645 148.908C68.2752 148.647 68.5739 148.273 68.7605 147.788L68.9845 148.474C68.7979 148.959 68.4712 149.347 68.0045 149.636C67.5472 149.925 66.9685 150.07 66.2685 150.07ZM74.7784 150.07C74.0877 150.07 73.5557 149.883 73.1824 149.51C72.809 149.137 72.6224 148.609 72.6224 147.928V141.026H73.6164V147.872C73.6164 148.301 73.7237 148.633 73.9384 148.866C74.1624 149.099 74.4797 149.216 74.8904 149.216C75.329 149.216 75.693 149.09 75.9824 148.838L76.3324 149.552C76.1364 149.729 75.8984 149.86 75.6184 149.944C75.3477 150.028 75.0677 150.07 74.7784 150.07ZM71.3064 143.476V142.65H75.8564V143.476H71.3064ZM81.0041 150.07C80.2388 150.07 79.5668 149.911 78.9881 149.594C78.4094 149.267 77.9568 148.824 77.6301 148.264C77.3034 147.695 77.1401 147.046 77.1401 146.318C77.1401 145.59 77.2941 144.946 77.6021 144.386C77.9194 143.826 78.3488 143.387 78.8901 143.07C79.4408 142.743 80.0568 142.58 80.7381 142.58C81.4288 142.58 82.0401 142.739 82.5721 143.056C83.1134 143.364 83.5381 143.803 83.8461 144.372C84.1541 144.932 84.3081 145.581 84.3081 146.318C84.3081 146.365 84.3034 146.416 84.2941 146.472C84.2941 146.519 84.2941 146.57 84.2941 146.626H77.8961V145.884H83.7621L83.3701 146.178C83.3701 145.646 83.2534 145.175 83.0201 144.764C82.7961 144.344 82.4881 144.017 82.0961 143.784C81.7041 143.551 81.2514 143.434 80.7381 143.434C80.2341 143.434 79.7814 143.551 79.3801 143.784C78.9788 144.017 78.6661 144.344 78.4421 144.764C78.2181 145.184 78.1061 145.665 78.1061 146.206V146.36C78.1061 146.92 78.2274 147.415 78.4701 147.844C78.7221 148.264 79.0674 148.595 79.5061 148.838C79.9541 149.071 80.4628 149.188 81.0321 149.188C81.4801 149.188 81.8954 149.109 82.2781 148.95C82.6701 148.791 83.0061 148.549 83.2861 148.222L83.8461 148.866C83.5194 149.258 83.1088 149.557 82.6141 149.762C82.1288 149.967 81.5921 150.07 81.0041 150.07ZM90.1634 150V141.726C90.1634 141.073 90.3547 140.545 90.7374 140.144C91.12 139.743 91.6707 139.542 92.3894 139.542C92.6694 139.542 92.94 139.579 93.2014 139.654C93.4627 139.729 93.682 139.845 93.8594 140.004L93.5234 140.746C93.3834 140.625 93.22 140.536 93.0334 140.48C92.8467 140.415 92.646 140.382 92.4314 140.382C92.0114 140.382 91.6894 140.499 91.4654 140.732C91.2414 140.965 91.1294 141.311 91.1294 141.768V142.888L91.1574 143.35V150H90.1634ZM88.8474 143.476V142.65H93.3974V143.476H88.8474ZM97.7775 150.07C97.1522 150.07 96.6062 149.953 96.1395 149.72C95.6728 149.487 95.3088 149.137 95.0475 148.67C94.7955 148.203 94.6695 147.62 94.6695 146.92V142.65H95.6635V146.808C95.6635 147.592 95.8548 148.185 96.2375 148.586C96.6295 148.978 97.1755 149.174 97.8755 149.174C98.3888 149.174 98.8322 149.071 99.2055 148.866C99.5882 148.651 99.8775 148.343 100.074 147.942C100.279 147.541 100.382 147.06 100.382 146.5V142.65H101.376V150H100.424V147.984L100.578 148.348C100.344 148.889 99.9802 149.314 99.4855 149.622C99.0002 149.921 98.4308 150.07 97.7775 150.07ZM106.47 150.07C105.779 150.07 105.247 149.883 104.874 149.51C104.5 149.137 104.314 148.609 104.314 147.928V141.026H105.308V147.872C105.308 148.301 105.415 148.633 105.63 148.866C105.854 149.099 106.171 149.216 106.582 149.216C107.02 149.216 107.384 149.09 107.674 148.838L108.024 149.552C107.828 149.729 107.59 149.86 107.31 149.944C107.039 150.028 106.759 150.07 106.47 150.07ZM102.998 143.476V142.65H107.548V143.476H102.998ZM112.871 150.07C112.246 150.07 111.7 149.953 111.233 149.72C110.767 149.487 110.403 149.137 110.141 148.67C109.889 148.203 109.763 147.62 109.763 146.92V142.65H110.757V146.808C110.757 147.592 110.949 148.185 111.331 148.586C111.723 148.978 112.269 149.174 112.969 149.174C113.483 149.174 113.926 149.071 114.299 148.866C114.682 148.651 114.971 148.343 115.167 147.942C115.373 147.541 115.475 147.06 115.475 146.5V142.65H116.469V150H115.517V147.984L115.671 148.348C115.438 148.889 115.074 149.314 114.579 149.622C114.094 149.921 113.525 150.07 112.871 150.07ZM119.24 150V142.65H120.192V144.652L120.094 144.302C120.299 143.742 120.644 143.317 121.13 143.028C121.615 142.729 122.217 142.58 122.936 142.58V143.546C122.898 143.546 122.861 143.546 122.824 143.546C122.786 143.537 122.749 143.532 122.712 143.532C121.937 143.532 121.33 143.77 120.892 144.246C120.453 144.713 120.234 145.38 120.234 146.248V150H119.24ZM127.803 150.07C127.038 150.07 126.366 149.911 125.787 149.594C125.208 149.267 124.756 148.824 124.429 148.264C124.102 147.695 123.939 147.046 123.939 146.318C123.939 145.59 124.093 144.946 124.401 144.386C124.718 143.826 125.148 143.387 125.689 143.07C126.24 142.743 126.856 142.58 127.537 142.58C128.228 142.58 128.839 142.739 129.371 143.056C129.912 143.364 130.337 143.803 130.645 144.372C130.953 144.932 131.107 145.581 131.107 146.318C131.107 146.365 131.102 146.416 131.093 146.472C131.093 146.519 131.093 146.57 131.093 146.626H124.695V145.884H130.561L130.169 146.178C130.169 145.646 130.052 145.175 129.819 144.764C129.595 144.344 129.287 144.017 128.895 143.784C128.503 143.551 128.05 143.434 127.537 143.434C127.033 143.434 126.58 143.551 126.179 143.784C125.778 144.017 125.465 144.344 125.241 144.764C125.017 145.184 124.905 145.665 124.905 146.206V146.36C124.905 146.92 125.026 147.415 125.269 147.844C125.521 148.264 125.866 148.595 126.305 148.838C126.753 149.071 127.262 149.188 127.831 149.188C128.279 149.188 128.694 149.109 129.077 148.95C129.469 148.791 129.805 148.549 130.085 148.222L130.645 148.866C130.318 149.258 129.908 149.557 129.413 149.762C128.928 149.967 128.391 150.07 127.803 150.07ZM135.104 150.07C134.497 150.07 133.923 149.986 133.382 149.818C132.841 149.641 132.416 149.421 132.108 149.16L132.556 148.376C132.855 148.6 133.237 148.796 133.704 148.964C134.171 149.123 134.661 149.202 135.174 149.202C135.874 149.202 136.378 149.095 136.686 148.88C136.994 148.656 137.148 148.362 137.148 147.998C137.148 147.727 137.059 147.517 136.882 147.368C136.714 147.209 136.49 147.093 136.21 147.018C135.93 146.934 135.617 146.864 135.272 146.808C134.927 146.752 134.581 146.687 134.236 146.612C133.9 146.537 133.592 146.43 133.312 146.29C133.032 146.141 132.803 145.94 132.626 145.688C132.458 145.436 132.374 145.1 132.374 144.68C132.374 144.279 132.486 143.919 132.71 143.602C132.934 143.285 133.261 143.037 133.69 142.86C134.129 142.673 134.661 142.58 135.286 142.58C135.762 142.58 136.238 142.645 136.714 142.776C137.19 142.897 137.582 143.061 137.89 143.266L137.456 144.064C137.129 143.84 136.779 143.681 136.406 143.588C136.033 143.485 135.659 143.434 135.286 143.434C134.623 143.434 134.133 143.551 133.816 143.784C133.508 144.008 133.354 144.297 133.354 144.652C133.354 144.932 133.438 145.151 133.606 145.31C133.783 145.469 134.012 145.595 134.292 145.688C134.581 145.772 134.894 145.842 135.23 145.898C135.575 145.954 135.916 146.024 136.252 146.108C136.597 146.183 136.91 146.29 137.19 146.43C137.479 146.561 137.708 146.752 137.876 147.004C138.053 147.247 138.142 147.569 138.142 147.97C138.142 148.399 138.021 148.773 137.778 149.09C137.545 149.398 137.199 149.641 136.742 149.818C136.294 149.986 135.748 150.07 135.104 150.07ZM148.236 150V148.376L148.194 148.11V145.394C148.194 144.769 148.017 144.288 147.662 143.952C147.317 143.616 146.799 143.448 146.108 143.448C145.632 143.448 145.179 143.527 144.75 143.686C144.321 143.845 143.957 144.055 143.658 144.316L143.21 143.574C143.583 143.257 144.031 143.014 144.554 142.846C145.077 142.669 145.627 142.58 146.206 142.58C147.158 142.58 147.891 142.818 148.404 143.294C148.927 143.761 149.188 144.475 149.188 145.436V150H148.236ZM145.702 150.07C145.151 150.07 144.671 149.981 144.26 149.804C143.859 149.617 143.551 149.365 143.336 149.048C143.121 148.721 143.014 148.348 143.014 147.928C143.014 147.545 143.103 147.2 143.28 146.892C143.467 146.575 143.765 146.323 144.176 146.136C144.596 145.94 145.156 145.842 145.856 145.842H148.39V146.584H145.884C145.175 146.584 144.68 146.71 144.4 146.962C144.129 147.214 143.994 147.527 143.994 147.9C143.994 148.32 144.157 148.656 144.484 148.908C144.811 149.16 145.268 149.286 145.856 149.286C146.416 149.286 146.897 149.16 147.298 148.908C147.709 148.647 148.007 148.273 148.194 147.788L148.418 148.474C148.231 148.959 147.905 149.347 147.438 149.636C146.981 149.925 146.402 150.07 145.702 150.07ZM158.478 150.07C157.778 150.07 157.148 149.911 156.588 149.594C156.037 149.277 155.603 148.838 155.286 148.278C154.969 147.718 154.81 147.065 154.81 146.318C154.81 145.581 154.969 144.932 155.286 144.372C155.603 143.803 156.037 143.364 156.588 143.056C157.148 142.739 157.778 142.58 158.478 142.58C159.131 142.58 159.71 142.725 160.214 143.014C160.727 143.303 161.133 143.728 161.432 144.288C161.731 144.839 161.88 145.515 161.88 146.318C161.88 147.121 161.726 147.802 161.418 148.362C161.119 148.913 160.713 149.337 160.2 149.636C159.696 149.925 159.122 150.07 158.478 150.07ZM158.548 149.188C159.071 149.188 159.537 149.071 159.948 148.838C160.368 148.595 160.695 148.259 160.928 147.83C161.171 147.391 161.292 146.887 161.292 146.318C161.292 145.749 161.171 145.249 160.928 144.82C160.695 144.391 160.368 144.055 159.948 143.812C159.537 143.569 159.071 143.448 158.548 143.448C158.035 143.448 157.573 143.569 157.162 143.812C156.751 144.055 156.425 144.391 156.182 144.82C155.939 145.249 155.818 145.749 155.818 146.318C155.818 146.887 155.939 147.391 156.182 147.83C156.425 148.259 156.751 148.595 157.162 148.838C157.573 149.071 158.035 149.188 158.548 149.188ZM161.278 152.716V147.816L161.418 146.332L161.32 144.862V142.65H162.272V152.716H161.278ZM168.078 150.07C167.453 150.07 166.907 149.953 166.44 149.72C165.974 149.487 165.61 149.137 165.348 148.67C165.096 148.203 164.97 147.62 164.97 146.92V142.65H165.964V146.808C165.964 147.592 166.156 148.185 166.538 148.586C166.93 148.978 167.476 149.174 168.176 149.174C168.69 149.174 169.133 149.071 169.506 148.866C169.889 148.651 170.178 148.343 170.374 147.942C170.58 147.541 170.682 147.06 170.682 146.5V142.65H171.676V150H170.724V147.984L170.878 148.348C170.645 148.889 170.281 149.314 169.786 149.622C169.301 149.921 168.732 150.07 168.078 150.07ZM177.569 150.07C176.803 150.07 176.131 149.911 175.553 149.594C174.974 149.267 174.521 148.824 174.195 148.264C173.868 147.695 173.705 147.046 173.705 146.318C173.705 145.59 173.859 144.946 174.167 144.386C174.484 143.826 174.913 143.387 175.455 143.07C176.005 142.743 176.621 142.58 177.303 142.58C177.993 142.58 178.605 142.739 179.137 143.056C179.678 143.364 180.103 143.803 180.411 144.372C180.719 144.932 180.873 145.581 180.873 146.318C180.873 146.365 180.868 146.416 180.859 146.472C180.859 146.519 180.859 146.57 180.859 146.626H174.461V145.884H180.327L179.935 146.178C179.935 145.646 179.818 145.175 179.585 144.764C179.361 144.344 179.053 144.017 178.661 143.784C178.269 143.551 177.816 143.434 177.303 143.434C176.799 143.434 176.346 143.551 175.945 143.784C175.543 144.017 175.231 144.344 175.007 144.764C174.783 145.184 174.671 145.665 174.671 146.206V146.36C174.671 146.92 174.792 147.415 175.035 147.844C175.287 148.264 175.632 148.595 176.071 148.838C176.519 149.071 177.027 149.188 177.597 149.188C178.045 149.188 178.46 149.109 178.843 148.95C179.235 148.791 179.571 148.549 179.851 148.222L180.411 148.866C180.084 149.258 179.673 149.557 179.179 149.762C178.693 149.967 178.157 150.07 177.569 150.07ZM184.87 150.07C184.263 150.07 183.689 149.986 183.148 149.818C182.606 149.641 182.182 149.421 181.874 149.16L182.322 148.376C182.62 148.6 183.003 148.796 183.47 148.964C183.936 149.123 184.426 149.202 184.94 149.202C185.64 149.202 186.144 149.095 186.452 148.88C186.76 148.656 186.914 148.362 186.914 147.998C186.914 147.727 186.825 147.517 186.648 147.368C186.48 147.209 186.256 147.093 185.976 147.018C185.696 146.934 185.383 146.864 185.038 146.808C184.692 146.752 184.347 146.687 184.002 146.612C183.666 146.537 183.358 146.43 183.078 146.29C182.798 146.141 182.569 145.94 182.392 145.688C182.224 145.436 182.14 145.1 182.14 144.68C182.14 144.279 182.252 143.919 182.476 143.602C182.7 143.285 183.026 143.037 183.456 142.86C183.894 142.673 184.426 142.58 185.052 142.58C185.528 142.58 186.004 142.645 186.48 142.776C186.956 142.897 187.348 143.061 187.656 143.266L187.222 144.064C186.895 143.84 186.545 143.681 186.172 143.588C185.798 143.485 185.425 143.434 185.052 143.434C184.389 143.434 183.899 143.551 183.582 143.784C183.274 144.008 183.12 144.297 183.12 144.652C183.12 144.932 183.204 145.151 183.372 145.31C183.549 145.469 183.778 145.595 184.058 145.688C184.347 145.772 184.66 145.842 184.996 145.898C185.341 145.954 185.682 146.024 186.018 146.108C186.363 146.183 186.676 146.29 186.956 146.43C187.245 146.561 187.474 146.752 187.642 147.004C187.819 147.247 187.908 147.569 187.908 147.97C187.908 148.399 187.786 148.773 187.544 149.09C187.31 149.398 186.965 149.641 186.508 149.818C186.06 149.986 185.514 150.07 184.87 150.07ZM192.056 150.07C191.365 150.07 190.833 149.883 190.46 149.51C190.086 149.137 189.9 148.609 189.9 147.928V141.026H190.894V147.872C190.894 148.301 191.001 148.633 191.216 148.866C191.44 149.099 191.757 149.216 192.168 149.216C192.606 149.216 192.97 149.09 193.26 148.838L193.61 149.552C193.414 149.729 193.176 149.86 192.896 149.944C192.625 150.028 192.345 150.07 192.056 150.07ZM188.584 143.476V142.65H193.134V143.476H188.584ZM198.155 150.07C197.446 150.07 196.807 149.911 196.237 149.594C195.677 149.267 195.234 148.824 194.907 148.264C194.581 147.695 194.417 147.046 194.417 146.318C194.417 145.581 194.581 144.932 194.907 144.372C195.234 143.812 195.677 143.373 196.237 143.056C196.797 142.739 197.437 142.58 198.155 142.58C198.883 142.58 199.527 142.739 200.087 143.056C200.657 143.373 201.1 143.812 201.417 144.372C201.744 144.932 201.907 145.581 201.907 146.318C201.907 147.046 201.744 147.695 201.417 148.264C201.1 148.824 200.657 149.267 200.087 149.594C199.518 149.911 198.874 150.07 198.155 150.07ZM198.155 149.188C198.687 149.188 199.159 149.071 199.569 148.838C199.98 148.595 200.302 148.259 200.535 147.83C200.778 147.391 200.899 146.887 200.899 146.318C200.899 145.739 200.778 145.235 200.535 144.806C200.302 144.377 199.98 144.045 199.569 143.812C199.159 143.569 198.692 143.448 198.169 143.448C197.647 143.448 197.18 143.569 196.769 143.812C196.359 144.045 196.032 144.377 195.789 144.806C195.547 145.235 195.425 145.739 195.425 146.318C195.425 146.887 195.547 147.391 195.789 147.83C196.032 148.259 196.359 148.595 196.769 148.838C197.18 149.071 197.642 149.188 198.155 149.188ZM211.395 150.07C210.76 150.07 210.186 149.925 209.673 149.636C209.16 149.337 208.749 148.913 208.441 148.362C208.142 147.802 207.993 147.121 207.993 146.318C207.993 145.515 208.142 144.839 208.441 144.288C208.74 143.728 209.146 143.303 209.659 143.014C210.172 142.725 210.751 142.58 211.395 142.58C212.095 142.58 212.72 142.739 213.271 143.056C213.831 143.364 214.27 143.803 214.587 144.372C214.904 144.932 215.063 145.581 215.063 146.318C215.063 147.065 214.904 147.718 214.587 148.278C214.27 148.838 213.831 149.277 213.271 149.594C212.72 149.911 212.095 150.07 211.395 150.07ZM207.601 152.716V142.65H208.553V144.862L208.455 146.332L208.595 147.816V152.716H207.601ZM211.325 149.188C211.848 149.188 212.314 149.071 212.725 148.838C213.136 148.595 213.462 148.259 213.705 147.83C213.948 147.391 214.069 146.887 214.069 146.318C214.069 145.749 213.948 145.249 213.705 144.82C213.462 144.391 213.136 144.055 212.725 143.812C212.314 143.569 211.848 143.448 211.325 143.448C210.802 143.448 210.331 143.569 209.911 143.812C209.5 144.055 209.174 144.391 208.931 144.82C208.698 145.249 208.581 145.749 208.581 146.318C208.581 146.887 208.698 147.391 208.931 147.83C209.174 148.259 209.5 148.595 209.911 148.838C210.331 149.071 210.802 149.188 211.325 149.188ZM217.089 150V142.65H218.041V144.652L217.943 144.302C218.148 143.742 218.494 143.317 218.979 143.028C219.464 142.729 220.066 142.58 220.785 142.58V143.546C220.748 143.546 220.71 143.546 220.673 143.546C220.636 143.537 220.598 143.532 220.561 143.532C219.786 143.532 219.18 143.77 218.741 144.246C218.302 144.713 218.083 145.38 218.083 146.248V150H217.089ZM225.653 150.07C224.887 150.07 224.215 149.911 223.637 149.594C223.058 149.267 222.605 148.824 222.279 148.264C221.952 147.695 221.789 147.046 221.789 146.318C221.789 145.59 221.943 144.946 222.251 144.386C222.568 143.826 222.997 143.387 223.539 143.07C224.089 142.743 224.705 142.58 225.387 142.58C226.077 142.58 226.689 142.739 227.221 143.056C227.762 143.364 228.187 143.803 228.495 144.372C228.803 144.932 228.957 145.581 228.957 146.318C228.957 146.365 228.952 146.416 228.943 146.472C228.943 146.519 228.943 146.57 228.943 146.626H222.545V145.884H228.411L228.019 146.178C228.019 145.646 227.902 145.175 227.669 144.764C227.445 144.344 227.137 144.017 226.745 143.784C226.353 143.551 225.9 143.434 225.387 143.434C224.883 143.434 224.43 143.551 224.029 143.784C223.627 144.017 223.315 144.344 223.091 144.764C222.867 145.184 222.755 145.665 222.755 146.206V146.36C222.755 146.92 222.876 147.415 223.119 147.844C223.371 148.264 223.716 148.595 224.155 148.838C224.603 149.071 225.111 149.188 225.681 149.188C226.129 149.188 226.544 149.109 226.927 148.95C227.319 148.791 227.655 148.549 227.935 148.222L228.495 148.866C228.168 149.258 227.757 149.557 227.263 149.762C226.777 149.967 226.241 150.07 225.653 150.07ZM230.113 150V149.342L235.013 143.14L235.223 143.476H230.197V142.65H236.007V143.294L231.121 149.51L230.869 149.174H236.105V150H230.113ZM237.264 150V149.342L242.164 143.14L242.374 143.476H237.348V142.65H243.158V143.294L238.272 149.51L238.02 149.174H243.256V150H237.264ZM248.085 150.07C247.376 150.07 246.736 149.911 246.167 149.594C245.607 149.267 245.164 148.824 244.837 148.264C244.51 147.695 244.347 147.046 244.347 146.318C244.347 145.581 244.51 144.932 244.837 144.372C245.164 143.812 245.607 143.373 246.167 143.056C246.727 142.739 247.366 142.58 248.085 142.58C248.813 142.58 249.457 142.739 250.017 143.056C250.586 143.373 251.03 143.812 251.347 144.372C251.674 144.932 251.837 145.581 251.837 146.318C251.837 147.046 251.674 147.695 251.347 148.264C251.03 148.824 250.586 149.267 250.017 149.594C249.448 149.911 248.804 150.07 248.085 150.07ZM248.085 149.188C248.617 149.188 249.088 149.071 249.499 148.838C249.91 148.595 250.232 148.259 250.465 147.83C250.708 147.391 250.829 146.887 250.829 146.318C250.829 145.739 250.708 145.235 250.465 144.806C250.232 144.377 249.91 144.045 249.499 143.812C249.088 143.569 248.622 143.448 248.099 143.448C247.576 143.448 247.11 143.569 246.699 143.812C246.288 144.045 245.962 144.377 245.719 144.806C245.476 145.235 245.355 145.739 245.355 146.318C245.355 146.887 245.476 147.391 245.719 147.83C245.962 148.259 246.288 148.595 246.699 148.838C247.11 149.071 247.572 149.188 248.085 149.188Z" fill="#214B33"/>
<path d="M11 154L217 154" stroke="#214B33"/>
<path d="M21.596 96V86.2H22.632V96H21.596ZM25.6106 96V85.612H26.6046V96H25.6106ZM35.3584 96.07C34.6678 96.07 34.1358 95.8833 33.7624 95.51C33.3891 95.1367 33.2024 94.6093 33.2024 93.928V87.026H34.1964V93.872C34.1964 94.3013 34.3038 94.6327 34.5184 94.866C34.7424 95.0993 35.0598 95.216 35.4704 95.216C35.9091 95.216 36.2731 95.09 36.5624 94.838L36.9124 95.552C36.7164 95.7293 36.4784 95.86 36.1984 95.944C35.9278 96.028 35.6478 96.07 35.3584 96.07ZM31.8864 89.476V88.65H36.4364V89.476H31.8864ZM41.7599 96.07C41.1346 96.07 40.5886 95.9533 40.1219 95.72C39.6553 95.4867 39.2913 95.1367 39.0299 94.67C38.7779 94.2033 38.6519 93.62 38.6519 92.92V88.65H39.6459V92.808C39.6459 93.592 39.8373 94.1847 40.2199 94.586C40.6119 94.978 41.1579 95.174 41.8579 95.174C42.3713 95.174 42.8146 95.0713 43.1879 94.866C43.5706 94.6513 43.8599 94.3433 44.0559 93.942C44.2613 93.5407 44.3639 93.06 44.3639 92.5V88.65H45.3579V96H44.4059V93.984L44.5599 94.348C44.3266 94.8893 43.9626 95.314 43.4679 95.622C42.9826 95.9207 42.4133 96.07 41.7599 96.07ZM51.1242 96.07C50.4149 96.07 49.7755 95.9113 49.2062 95.594C48.6462 95.2673 48.2029 94.824 47.8762 94.264C47.5495 93.6947 47.3862 93.046 47.3862 92.318C47.3862 91.5807 47.5495 90.932 47.8762 90.372C48.2029 89.812 48.6462 89.3733 49.2062 89.056C49.7662 88.7387 50.4055 88.58 51.1242 88.58C51.8522 88.58 52.4962 88.7387 53.0562 89.056C53.6255 89.3733 54.0689 89.812 54.3862 90.372C54.7129 90.932 54.8762 91.5807 54.8762 92.318C54.8762 93.046 54.7129 93.6947 54.3862 94.264C54.0689 94.824 53.6255 95.2673 53.0562 95.594C52.4869 95.9113 51.8429 96.07 51.1242 96.07ZM51.1242 95.188C51.6562 95.188 52.1275 95.0713 52.5382 94.838C52.9489 94.5953 53.2709 94.2593 53.5042 93.83C53.7469 93.3913 53.8682 92.8873 53.8682 92.318C53.8682 91.7393 53.7469 91.2353 53.5042 90.806C53.2709 90.3767 52.9489 90.0453 52.5382 89.812C52.1275 89.5693 51.6609 89.448 51.1382 89.448C50.6155 89.448 50.1489 89.5693 49.7382 89.812C49.3275 90.0453 49.0009 90.3767 48.7582 90.806C48.5155 91.2353 48.3942 91.7393 48.3942 92.318C48.3942 92.8873 48.5155 93.3913 48.7582 93.83C49.0009 94.2593 49.3275 94.5953 49.7382 94.838C50.1489 95.0713 50.6109 95.188 51.1242 95.188ZM62.4596 96L59.1976 88.65H60.2336L63.2296 95.468H62.7396L65.7776 88.65H66.7576L63.4816 96H62.4596ZM72.5447 96V94.376L72.5027 94.11V91.394C72.5027 90.7687 72.3254 90.288 71.9707 89.952C71.6254 89.616 71.1074 89.448 70.4167 89.448C69.9407 89.448 69.4881 89.5273 69.0587 89.686C68.6294 89.8447 68.2654 90.0547 67.9667 90.316L67.5187 89.574C67.8921 89.2567 68.3401 89.014 68.8627 88.846C69.3854 88.6687 69.9361 88.58 70.5147 88.58C71.4667 88.58 72.1994 88.818 72.7127 89.294C73.2354 89.7607 73.4967 90.4747 73.4967 91.436V96H72.5447ZM70.0107 96.07C69.4601 96.07 68.9794 95.9813 68.5687 95.804C68.1674 95.6173 67.8594 95.3653 67.6447 95.048C67.4301 94.7213 67.3227 94.348 67.3227 93.928C67.3227 93.5453 67.4114 93.2 67.5887 92.892C67.7754 92.5747 68.0741 92.3227 68.4847 92.136C68.9047 91.94 69.4647 91.842 70.1647 91.842H72.6987V92.584H70.1927C69.4834 92.584 68.9887 92.71 68.7087 92.962C68.4381 93.214 68.3027 93.5267 68.3027 93.9C68.3027 94.32 68.4661 94.656 68.7927 94.908C69.1194 95.16 69.5767 95.286 70.1647 95.286C70.7247 95.286 71.2054 95.16 71.6067 94.908C72.0174 94.6467 72.3161 94.2733 72.5027 93.788L72.7267 94.474C72.5401 94.9593 72.2134 95.3467 71.7467 95.636C71.2894 95.9253 70.7107 96.07 70.0107 96.07ZM79.9485 88.58C80.5459 88.58 81.0685 88.6967 81.5165 88.93C81.9739 89.154 82.3285 89.4993 82.5805 89.966C82.8419 90.4327 82.9725 91.0207 82.9725 91.73V96H81.9785V91.828C81.9785 91.0533 81.7825 90.47 81.3905 90.078C81.0079 89.6767 80.4665 89.476 79.7665 89.476C79.2439 89.476 78.7865 89.5833 78.3945 89.798C78.0119 90.0033 77.7132 90.3067 77.4985 90.708C77.2932 91.1 77.1905 91.576 77.1905 92.136V96H76.1965V88.65H77.1485V90.666L76.9945 90.288C77.2279 89.756 77.6012 89.3407 78.1145 89.042C78.6279 88.734 79.2392 88.58 79.9485 88.58ZM87.9815 96.07C87.2908 96.07 86.7588 95.8833 86.3855 95.51C86.0122 95.1367 85.8255 94.6093 85.8255 93.928V87.026H86.8195V93.872C86.8195 94.3013 86.9268 94.6327 87.1415 94.866C87.3655 95.0993 87.6828 95.216 88.0935 95.216C88.5322 95.216 88.8962 95.09 89.1855 94.838L89.5355 95.552C89.3395 95.7293 89.1015 95.86 88.8215 95.944C88.5508 96.028 88.2708 96.07 87.9815 96.07ZM84.5095 89.476V88.65H89.0595V89.476H84.5095ZM95.951 96V94.376L95.909 94.11V91.394C95.909 90.7687 95.7317 90.288 95.377 89.952C95.0317 89.616 94.5137 89.448 93.823 89.448C93.347 89.448 92.8943 89.5273 92.465 89.686C92.0357 89.8447 91.6717 90.0547 91.373 90.316L90.925 89.574C91.2983 89.2567 91.7463 89.014 92.269 88.846C92.7917 88.6687 93.3423 88.58 93.921 88.58C94.873 88.58 95.6057 88.818 96.119 89.294C96.6417 89.7607 96.903 90.4747 96.903 91.436V96H95.951ZM93.417 96.07C92.8663 96.07 92.3857 95.9813 91.975 95.804C91.5737 95.6173 91.2657 95.3653 91.051 95.048C90.8363 94.7213 90.729 94.348 90.729 93.928C90.729 93.5453 90.8177 93.2 90.995 92.892C91.1817 92.5747 91.4803 92.3227 91.891 92.136C92.311 91.94 92.871 91.842 93.571 91.842H96.105V92.584H93.599C92.8897 92.584 92.395 92.71 92.115 92.962C91.8443 93.214 91.709 93.5267 91.709 93.9C91.709 94.32 91.8723 94.656 92.199 94.908C92.5257 95.16 92.983 95.286 93.571 95.286C94.131 95.286 94.6117 95.16 95.013 94.908C95.4237 94.6467 95.7223 94.2733 95.909 93.788L96.133 94.474C95.9463 94.9593 95.6197 95.3467 95.153 95.636C94.6957 95.9253 94.117 96.07 93.417 96.07ZM102.739 98.786C102.067 98.786 101.423 98.688 100.807 98.492C100.191 98.296 99.6915 98.016 99.3088 97.652L99.8128 96.896C100.158 97.204 100.583 97.4467 101.087 97.624C101.6 97.8107 102.141 97.904 102.711 97.904C103.644 97.904 104.33 97.6847 104.769 97.246C105.207 96.8167 105.427 96.1447 105.427 95.23V93.396L105.567 92.136L105.469 90.876V88.65H106.421V95.104C106.421 96.3733 106.108 97.302 105.483 97.89C104.867 98.4873 103.952 98.786 102.739 98.786ZM102.557 95.72C101.857 95.72 101.227 95.5707 100.667 95.272C100.107 94.964 99.6635 94.5393 99.3368 93.998C99.0195 93.4567 98.8608 92.836 98.8608 92.136C98.8608 91.436 99.0195 90.82 99.3368 90.288C99.6635 89.7467 100.107 89.3267 100.667 89.028C101.227 88.7293 101.857 88.58 102.557 88.58C103.21 88.58 103.798 88.7153 104.321 88.986C104.843 89.2567 105.259 89.658 105.567 90.19C105.875 90.722 106.029 91.3707 106.029 92.136C106.029 92.9013 105.875 93.55 105.567 94.082C105.259 94.614 104.843 95.02 104.321 95.3C103.798 95.58 103.21 95.72 102.557 95.72ZM102.655 94.838C103.196 94.838 103.677 94.726 104.097 94.502C104.517 94.2687 104.848 93.9513 105.091 93.55C105.333 93.1393 105.455 92.668 105.455 92.136C105.455 91.604 105.333 91.1373 105.091 90.736C104.848 90.3347 104.517 90.022 104.097 89.798C103.677 89.5647 103.196 89.448 102.655 89.448C102.123 89.448 101.642 89.5647 101.213 89.798C100.793 90.022 100.461 90.3347 100.219 90.736C99.9855 91.1373 99.8688 91.604 99.8688 92.136C99.8688 92.668 99.9855 93.1393 100.219 93.55C100.461 93.9513 100.793 94.2687 101.213 94.502C101.642 94.726 102.123 94.838 102.655 94.838ZM112.323 98.786C111.651 98.786 111.007 98.688 110.391 98.492C109.775 98.296 109.275 98.016 108.893 97.652L109.397 96.896C109.742 97.204 110.167 97.4467 110.671 97.624C111.184 97.8107 111.725 97.904 112.295 97.904C113.228 97.904 113.914 97.6847 114.353 97.246C114.791 96.8167 115.011 96.1447 115.011 95.23V93.396L115.151 92.136L115.053 90.876V88.65H116.005V95.104C116.005 96.3733 115.692 97.302 115.067 97.89C114.451 98.4873 113.536 98.786 112.323 98.786ZM112.141 95.72C111.441 95.72 110.811 95.5707 110.251 95.272C109.691 94.964 109.247 94.5393 108.921 93.998C108.603 93.4567 108.445 92.836 108.445 92.136C108.445 91.436 108.603 90.82 108.921 90.288C109.247 89.7467 109.691 89.3267 110.251 89.028C110.811 88.7293 111.441 88.58 112.141 88.58C112.794 88.58 113.382 88.7153 113.905 88.986C114.427 89.2567 114.843 89.658 115.151 90.19C115.459 90.722 115.613 91.3707 115.613 92.136C115.613 92.9013 115.459 93.55 115.151 94.082C114.843 94.614 114.427 95.02 113.905 95.3C113.382 95.58 112.794 95.72 112.141 95.72ZM112.239 94.838C112.78 94.838 113.261 94.726 113.681 94.502C114.101 94.2687 114.432 93.9513 114.675 93.55C114.917 93.1393 115.039 92.668 115.039 92.136C115.039 91.604 114.917 91.1373 114.675 90.736C114.432 90.3347 114.101 90.022 113.681 89.798C113.261 89.5647 112.78 89.448 112.239 89.448C111.707 89.448 111.226 89.5647 110.797 89.798C110.377 90.022 110.045 90.3347 109.803 90.736C109.569 91.1373 109.453 91.604 109.453 92.136C109.453 92.668 109.569 93.1393 109.803 93.55C110.045 93.9513 110.377 94.2687 110.797 94.502C111.226 94.726 111.707 94.838 112.239 94.838ZM118.771 96V88.65H119.765V96H118.771ZM119.275 87.026C119.069 87.026 118.897 86.956 118.757 86.816C118.617 86.676 118.547 86.508 118.547 86.312C118.547 86.116 118.617 85.9527 118.757 85.822C118.897 85.682 119.069 85.612 119.275 85.612C119.48 85.612 119.653 85.6773 119.793 85.808C119.933 85.9387 120.003 86.102 120.003 86.298C120.003 86.5033 119.933 86.676 119.793 86.816C119.662 86.956 119.489 87.026 119.275 87.026ZM125.527 96.07C124.817 96.07 124.178 95.9113 123.609 95.594C123.049 95.2673 122.605 94.824 122.279 94.264C121.952 93.6947 121.789 93.046 121.789 92.318C121.789 91.5807 121.952 90.932 122.279 90.372C122.605 89.812 123.049 89.3733 123.609 89.056C124.169 88.7387 124.808 88.58 125.527 88.58C126.255 88.58 126.899 88.7387 127.459 89.056C128.028 89.3733 128.471 89.812 128.789 90.372C129.115 90.932 129.279 91.5807 129.279 92.318C129.279 93.046 129.115 93.6947 128.789 94.264C128.471 94.824 128.028 95.2673 127.459 95.594C126.889 95.9113 126.245 96.07 125.527 96.07ZM125.527 95.188C126.059 95.188 126.53 95.0713 126.941 94.838C127.351 94.5953 127.673 94.2593 127.907 93.83C128.149 93.3913 128.271 92.8873 128.271 92.318C128.271 91.7393 128.149 91.2353 127.907 90.806C127.673 90.3767 127.351 90.0453 126.941 89.812C126.53 89.5693 126.063 89.448 125.541 89.448C125.018 89.448 124.551 89.5693 124.141 89.812C123.73 90.0453 123.403 90.3767 123.161 90.806C122.918 91.2353 122.797 91.7393 122.797 92.318C122.797 92.8873 122.918 93.3913 123.161 93.83C123.403 94.2593 123.73 94.5953 124.141 94.838C124.551 95.0713 125.013 95.188 125.527 95.188Z" fill="#A2C33D"/>
<path d="M106 102L1 102" stroke="#A2C33D"/>
<path d="M119.382 45L115.042 35.2H116.162L120.222 44.426H119.606L123.694 35.2H124.744L120.404 45H119.382ZM128.518 45.07C127.752 45.07 127.08 44.9113 126.502 44.594C125.923 44.2673 125.47 43.824 125.144 43.264C124.817 42.6947 124.654 42.046 124.654 41.318C124.654 40.59 124.808 39.946 125.116 39.386C125.433 38.826 125.862 38.3873 126.404 38.07C126.954 37.7433 127.57 37.58 128.252 37.58C128.942 37.58 129.554 37.7387 130.086 38.056C130.627 38.364 131.052 38.8027 131.36 39.372C131.668 39.932 131.822 40.5807 131.822 41.318C131.822 41.3647 131.817 41.416 131.808 41.472C131.808 41.5187 131.808 41.57 131.808 41.626H125.41V40.884H131.276L130.884 41.178C130.884 40.646 130.767 40.1747 130.534 39.764C130.31 39.344 130.002 39.0173 129.61 38.784C129.218 38.5507 128.765 38.434 128.252 38.434C127.748 38.434 127.295 38.5507 126.894 38.784C126.492 39.0173 126.18 39.344 125.956 39.764C125.732 40.184 125.62 40.6647 125.62 41.206V41.36C125.62 41.92 125.741 42.4147 125.984 42.844C126.236 43.264 126.581 43.5953 127.02 43.838C127.468 44.0713 127.976 44.188 128.546 44.188C128.994 44.188 129.409 44.1087 129.792 43.95C130.184 43.7913 130.52 43.5487 130.8 43.222L131.36 43.866C131.033 44.258 130.622 44.5567 130.128 44.762C129.642 44.9673 129.106 45.07 128.518 45.07ZM137.597 37.58C138.194 37.58 138.717 37.6967 139.165 37.93C139.622 38.154 139.977 38.4993 140.229 38.966C140.49 39.4327 140.621 40.0207 140.621 40.73V45H139.627V40.828C139.627 40.0533 139.431 39.47 139.039 39.078C138.656 38.6767 138.115 38.476 137.415 38.476C136.892 38.476 136.435 38.5833 136.043 38.798C135.66 39.0033 135.362 39.3067 135.147 39.708C134.942 40.1 134.839 40.576 134.839 41.136V45H133.845V37.65H134.797V39.666L134.643 39.288C134.876 38.756 135.25 38.3407 135.763 38.042C136.276 37.734 136.888 37.58 137.597 37.58ZM146.232 45.07C145.532 45.07 144.902 44.9113 144.342 44.594C143.791 44.2767 143.357 43.838 143.04 43.278C142.723 42.7087 142.564 42.0553 142.564 41.318C142.564 40.5713 142.723 39.918 143.04 39.358C143.357 38.798 143.791 38.364 144.342 38.056C144.902 37.7387 145.532 37.58 146.232 37.58C146.876 37.58 147.45 37.7247 147.954 38.014C148.467 38.3033 148.873 38.728 149.172 39.288C149.48 39.8387 149.634 40.5153 149.634 41.318C149.634 42.1113 149.485 42.788 149.186 43.348C148.887 43.908 148.481 44.3373 147.968 44.636C147.464 44.9253 146.885 45.07 146.232 45.07ZM146.302 44.188C146.825 44.188 147.291 44.0713 147.702 43.838C148.122 43.5953 148.449 43.2593 148.682 42.83C148.925 42.3913 149.046 41.8873 149.046 41.318C149.046 40.7393 148.925 40.2353 148.682 39.806C148.449 39.3767 148.122 39.0453 147.702 38.812C147.291 38.5693 146.825 38.448 146.302 38.448C145.789 38.448 145.327 38.5693 144.916 38.812C144.505 39.0453 144.179 39.3767 143.936 39.806C143.693 40.2353 143.572 40.7393 143.572 41.318C143.572 41.8873 143.693 42.3913 143.936 42.83C144.179 43.2593 144.505 43.5953 144.916 43.838C145.327 44.0713 145.789 44.188 146.302 44.188ZM149.074 45V42.788L149.172 41.304L149.032 39.82V34.612H150.026V45H149.074ZM155.916 45.07C155.151 45.07 154.479 44.9113 153.9 44.594C153.322 44.2673 152.869 43.824 152.542 43.264C152.216 42.6947 152.052 42.046 152.052 41.318C152.052 40.59 152.206 39.946 152.514 39.386C152.832 38.826 153.261 38.3873 153.802 38.07C154.353 37.7433 154.969 37.58 155.65 37.58C156.341 37.58 156.952 37.7387 157.484 38.056C158.026 38.364 158.45 38.8027 158.758 39.372C159.066 39.932 159.22 40.5807 159.22 41.318C159.22 41.3647 159.216 41.416 159.206 41.472C159.206 41.5187 159.206 41.57 159.206 41.626H152.808V40.884H158.674L158.282 41.178C158.282 40.646 158.166 40.1747 157.932 39.764C157.708 39.344 157.4 39.0173 157.008 38.784C156.616 38.5507 156.164 38.434 155.65 38.434C155.146 38.434 154.694 38.5507 154.292 38.784C153.891 39.0173 153.578 39.344 153.354 39.764C153.13 40.184 153.018 40.6647 153.018 41.206V41.36C153.018 41.92 153.14 42.4147 153.382 42.844C153.634 43.264 153.98 43.5953 154.418 43.838C154.866 44.0713 155.375 44.188 155.944 44.188C156.392 44.188 156.808 44.1087 157.19 43.95C157.582 43.7913 157.918 43.5487 158.198 43.222L158.758 43.866C158.432 44.258 158.021 44.5567 157.526 44.762C157.041 44.9673 156.504 45.07 155.916 45.07ZM163.567 45.07C162.877 45.07 162.345 44.8833 161.971 44.51C161.598 44.1367 161.411 43.6093 161.411 42.928V36.026H162.405V42.872C162.405 43.3013 162.513 43.6327 162.727 43.866C162.951 44.0993 163.269 44.216 163.679 44.216C164.118 44.216 164.482 44.09 164.771 43.838L165.121 44.552C164.925 44.7293 164.687 44.86 164.407 44.944C164.137 45.028 163.857 45.07 163.567 45.07ZM160.095 38.476V37.65H164.645V38.476H160.095ZM169.793 45.07C169.028 45.07 168.356 44.9113 167.777 44.594C167.198 44.2673 166.746 43.824 166.419 43.264C166.092 42.6947 165.929 42.046 165.929 41.318C165.929 40.59 166.083 39.946 166.391 39.386C166.708 38.826 167.138 38.3873 167.679 38.07C168.23 37.7433 168.846 37.58 169.527 37.58C170.218 37.58 170.829 37.7387 171.361 38.056C171.902 38.364 172.327 38.8027 172.635 39.372C172.943 39.932 173.097 40.5807 173.097 41.318C173.097 41.3647 173.092 41.416 173.083 41.472C173.083 41.5187 173.083 41.57 173.083 41.626H166.685V40.884H172.551L172.159 41.178C172.159 40.646 172.042 40.1747 171.809 39.764C171.585 39.344 171.277 39.0173 170.885 38.784C170.493 38.5507 170.04 38.434 169.527 38.434C169.023 38.434 168.57 38.5507 168.169 38.784C167.768 39.0173 167.455 39.344 167.231 39.764C167.007 40.184 166.895 40.6647 166.895 41.206V41.36C166.895 41.92 167.016 42.4147 167.259 42.844C167.511 43.264 167.856 43.5953 168.295 43.838C168.743 44.0713 169.252 44.188 169.821 44.188C170.269 44.188 170.684 44.1087 171.067 43.95C171.459 43.7913 171.795 43.5487 172.075 43.222L172.635 43.866C172.308 44.258 171.898 44.5567 171.403 44.762C170.918 44.9673 170.381 45.07 169.793 45.07ZM178.952 45V36.726C178.952 36.0727 179.144 35.5453 179.526 35.144C179.909 34.7427 180.46 34.542 181.178 34.542C181.458 34.542 181.729 34.5793 181.99 34.654C182.252 34.7287 182.471 34.8453 182.648 35.004L182.312 35.746C182.172 35.6247 182.009 35.536 181.822 35.48C181.636 35.4147 181.435 35.382 181.22 35.382C180.8 35.382 180.478 35.4987 180.254 35.732C180.03 35.9653 179.918 36.3107 179.918 36.768V37.888L179.946 38.35V45H178.952ZM177.636 38.476V37.65H182.186V38.476H177.636ZM186.567 45.07C185.941 45.07 185.395 44.9533 184.929 44.72C184.462 44.4867 184.098 44.1367 183.837 43.67C183.585 43.2033 183.459 42.62 183.459 41.92V37.65H184.453V41.808C184.453 42.592 184.644 43.1847 185.027 43.586C185.419 43.978 185.965 44.174 186.665 44.174C187.178 44.174 187.621 44.0713 187.995 43.866C188.377 43.6513 188.667 43.3433 188.863 42.942C189.068 42.5407 189.171 42.06 189.171 41.5V37.65H190.165V45H189.213V42.984L189.367 43.348C189.133 43.8893 188.769 44.314 188.275 44.622C187.789 44.9207 187.22 45.07 186.567 45.07ZM195.259 45.07C194.568 45.07 194.036 44.8833 193.663 44.51C193.289 44.1367 193.103 43.6093 193.103 42.928V36.026H194.097V42.872C194.097 43.3013 194.204 43.6327 194.419 43.866C194.643 44.0993 194.96 44.216 195.371 44.216C195.809 44.216 196.173 44.09 196.463 43.838L196.813 44.552C196.617 44.7293 196.379 44.86 196.099 44.944C195.828 45.028 195.548 45.07 195.259 45.07ZM191.787 38.476V37.65H196.337V38.476H191.787ZM201.66 45.07C201.035 45.07 200.489 44.9533 200.022 44.72C199.556 44.4867 199.192 44.1367 198.93 43.67C198.678 43.2033 198.552 42.62 198.552 41.92V37.65H199.546V41.808C199.546 42.592 199.738 43.1847 200.12 43.586C200.512 43.978 201.058 44.174 201.758 44.174C202.272 44.174 202.715 44.0713 203.088 43.866C203.471 43.6513 203.76 43.3433 203.956 42.942C204.162 42.5407 204.264 42.06 204.264 41.5V37.65H205.258V45H204.306V42.984L204.46 43.348C204.227 43.8893 203.863 44.314 203.368 44.622C202.883 44.9207 202.314 45.07 201.66 45.07ZM208.029 45V37.65H208.981V39.652L208.883 39.302C209.088 38.742 209.433 38.3173 209.919 38.028C210.404 37.7293 211.006 37.58 211.725 37.58V38.546C211.687 38.546 211.65 38.546 211.613 38.546C211.575 38.5367 211.538 38.532 211.501 38.532C210.726 38.532 210.119 38.77 209.681 39.246C209.242 39.7127 209.023 40.38 209.023 41.248V45H208.029ZM216.592 45.07C215.827 45.07 215.155 44.9113 214.576 44.594C213.997 44.2673 213.545 43.824 213.218 43.264C212.891 42.6947 212.728 42.046 212.728 41.318C212.728 40.59 212.882 39.946 213.19 39.386C213.507 38.826 213.937 38.3873 214.478 38.07C215.029 37.7433 215.645 37.58 216.326 37.58C217.017 37.58 217.628 37.7387 218.16 38.056C218.701 38.364 219.126 38.8027 219.434 39.372C219.742 39.932 219.896 40.5807 219.896 41.318C219.896 41.3647 219.891 41.416 219.882 41.472C219.882 41.5187 219.882 41.57 219.882 41.626H213.484V40.884H219.35L218.958 41.178C218.958 40.646 218.841 40.1747 218.608 39.764C218.384 39.344 218.076 39.0173 217.684 38.784C217.292 38.5507 216.839 38.434 216.326 38.434C215.822 38.434 215.369 38.5507 214.968 38.784C214.567 39.0173 214.254 39.344 214.03 39.764C213.806 40.184 213.694 40.6647 213.694 41.206V41.36C213.694 41.92 213.815 42.4147 214.058 42.844C214.31 43.264 214.655 43.5953 215.094 43.838C215.542 44.0713 216.051 44.188 216.62 44.188C217.068 44.188 217.483 44.1087 217.866 43.95C218.258 43.7913 218.594 43.5487 218.874 43.222L219.434 43.866C219.107 44.258 218.697 44.5567 218.202 44.762C217.717 44.9673 217.18 45.07 216.592 45.07ZM223.893 45.07C223.287 45.07 222.713 44.986 222.171 44.818C221.63 44.6407 221.205 44.4213 220.897 44.16L221.345 43.376C221.644 43.6 222.027 43.796 222.493 43.964C222.96 44.1227 223.45 44.202 223.963 44.202C224.663 44.202 225.167 44.0947 225.475 43.88C225.783 43.656 225.937 43.362 225.937 42.998C225.937 42.7273 225.849 42.5173 225.671 42.368C225.503 42.2093 225.279 42.0927 224.999 42.018C224.719 41.934 224.407 41.864 224.061 41.808C223.716 41.752 223.371 41.6867 223.025 41.612C222.689 41.5373 222.381 41.43 222.101 41.29C221.821 41.1407 221.593 40.94 221.415 40.688C221.247 40.436 221.163 40.1 221.163 39.68C221.163 39.2787 221.275 38.9193 221.499 38.602C221.723 38.2847 222.05 38.0373 222.479 37.86C222.918 37.6733 223.45 37.58 224.075 37.58C224.551 37.58 225.027 37.6453 225.503 37.776C225.979 37.8973 226.371 38.0607 226.679 38.266L226.245 39.064C225.919 38.84 225.569 38.6813 225.195 38.588C224.822 38.4853 224.449 38.434 224.075 38.434C223.413 38.434 222.923 38.5507 222.605 38.784C222.297 39.008 222.143 39.2973 222.143 39.652C222.143 39.932 222.227 40.1513 222.395 40.31C222.573 40.4687 222.801 40.5947 223.081 40.688C223.371 40.772 223.683 40.842 224.019 40.898C224.365 40.954 224.705 41.024 225.041 41.108C225.387 41.1827 225.699 41.29 225.979 41.43C226.269 41.5607 226.497 41.752 226.665 42.004C226.843 42.2467 226.931 42.5687 226.931 42.97C226.931 43.3993 226.81 43.7727 226.567 44.09C226.334 44.398 225.989 44.6407 225.531 44.818C225.083 44.986 224.537 45.07 223.893 45.07ZM237.025 45V43.376L236.983 43.11V40.394C236.983 39.7687 236.806 39.288 236.451 38.952C236.106 38.616 235.588 38.448 234.897 38.448C234.421 38.448 233.969 38.5273 233.539 38.686C233.11 38.8447 232.746 39.0547 232.447 39.316L231.999 38.574C232.373 38.2567 232.821 38.014 233.343 37.846C233.866 37.6687 234.417 37.58 234.995 37.58C235.947 37.58 236.68 37.818 237.193 38.294C237.716 38.7607 237.977 39.4747 237.977 40.436V45H237.025ZM234.491 45.07C233.941 45.07 233.46 44.9813 233.049 44.804C232.648 44.6173 232.34 44.3653 232.125 44.048C231.911 43.7213 231.803 43.348 231.803 42.928C231.803 42.5453 231.892 42.2 232.069 41.892C232.256 41.5747 232.555 41.3227 232.965 41.136C233.385 40.94 233.945 40.842 234.645 40.842H237.179V41.584H234.673C233.964 41.584 233.469 41.71 233.189 41.962C232.919 42.214 232.783 42.5267 232.783 42.9C232.783 43.32 232.947 43.656 233.273 43.908C233.6 44.16 234.057 44.286 234.645 44.286C235.205 44.286 235.686 44.16 236.087 43.908C236.498 43.6467 236.797 43.2733 236.983 42.788L237.207 43.474C237.021 43.9593 236.694 44.3467 236.227 44.636C235.77 44.9253 235.191 45.07 234.491 45.07ZM119.312 68.07C118.612 68.07 117.982 67.9113 117.422 67.594C116.871 67.2767 116.437 66.838 116.12 66.278C115.803 65.718 115.644 65.0647 115.644 64.318C115.644 63.5807 115.803 62.932 116.12 62.372C116.437 61.8027 116.871 61.364 117.422 61.056C117.982 60.7387 118.612 60.58 119.312 60.58C119.965 60.58 120.544 60.7247 121.048 61.014C121.561 61.3033 121.967 61.728 122.266 62.288C122.565 62.8387 122.714 63.5153 122.714 64.318C122.714 65.1207 122.56 65.802 122.252 66.362C121.953 66.9127 121.547 67.3373 121.034 67.636C120.53 67.9253 119.956 68.07 119.312 68.07ZM119.382 67.188C119.905 67.188 120.371 67.0713 120.782 66.838C121.202 66.5953 121.529 66.2593 121.762 65.83C122.005 65.3913 122.126 64.8873 122.126 64.318C122.126 63.7487 122.005 63.2493 121.762 62.82C121.529 62.3907 121.202 62.0547 120.782 61.812C120.371 61.5693 119.905 61.448 119.382 61.448C118.869 61.448 118.407 61.5693 117.996 61.812C117.585 62.0547 117.259 62.3907 117.016 62.82C116.773 63.2493 116.652 63.7487 116.652 64.318C116.652 64.8873 116.773 65.3913 117.016 65.83C117.259 66.2593 117.585 66.5953 117.996 66.838C118.407 67.0713 118.869 67.188 119.382 67.188ZM122.112 70.716V65.816L122.252 64.332L122.154 62.862V60.65H123.106V70.716H122.112ZM128.912 68.07C128.287 68.07 127.741 67.9533 127.274 67.72C126.808 67.4867 126.444 67.1367 126.182 66.67C125.93 66.2033 125.804 65.62 125.804 64.92V60.65H126.798V64.808C126.798 65.592 126.99 66.1847 127.372 66.586C127.764 66.978 128.31 67.174 129.01 67.174C129.524 67.174 129.967 67.0713 130.34 66.866C130.723 66.6513 131.012 66.3433 131.208 65.942C131.414 65.5407 131.516 65.06 131.516 64.5V60.65H132.51V68H131.558V65.984L131.712 66.348C131.479 66.8893 131.115 67.314 130.62 67.622C130.135 67.9207 129.566 68.07 128.912 68.07ZM138.403 68.07C137.637 68.07 136.965 67.9113 136.387 67.594C135.808 67.2673 135.355 66.824 135.029 66.264C134.702 65.6947 134.539 65.046 134.539 64.318C134.539 63.59 134.693 62.946 135.001 62.386C135.318 61.826 135.747 61.3873 136.289 61.07C136.839 60.7433 137.455 60.58 138.137 60.58C138.827 60.58 139.439 60.7387 139.971 61.056C140.512 61.364 140.937 61.8027 141.245 62.372C141.553 62.932 141.707 63.5807 141.707 64.318C141.707 64.3647 141.702 64.416 141.693 64.472C141.693 64.5187 141.693 64.57 141.693 64.626H135.295V63.884H141.161L140.769 64.178C140.769 63.646 140.652 63.1747 140.419 62.764C140.195 62.344 139.887 62.0173 139.495 61.784C139.103 61.5507 138.65 61.434 138.137 61.434C137.633 61.434 137.18 61.5507 136.779 61.784C136.377 62.0173 136.065 62.344 135.841 62.764C135.617 63.184 135.505 63.6647 135.505 64.206V64.36C135.505 64.92 135.626 65.4147 135.869 65.844C136.121 66.264 136.466 66.5953 136.905 66.838C137.353 67.0713 137.861 67.188 138.431 67.188C138.879 67.188 139.294 67.1087 139.677 66.95C140.069 66.7913 140.405 66.5487 140.685 66.222L141.245 66.866C140.918 67.258 140.507 67.5567 140.013 67.762C139.527 67.9673 138.991 68.07 138.403 68.07ZM145.704 68.07C145.097 68.07 144.523 67.986 143.982 67.818C143.44 67.6407 143.016 67.4213 142.708 67.16L143.156 66.376C143.454 66.6 143.837 66.796 144.304 66.964C144.77 67.1227 145.26 67.202 145.774 67.202C146.474 67.202 146.978 67.0947 147.286 66.88C147.594 66.656 147.748 66.362 147.748 65.998C147.748 65.7273 147.659 65.5173 147.482 65.368C147.314 65.2093 147.09 65.0927 146.81 65.018C146.53 64.934 146.217 64.864 145.872 64.808C145.526 64.752 145.181 64.6867 144.836 64.612C144.5 64.5373 144.192 64.43 143.912 64.29C143.632 64.1407 143.403 63.94 143.226 63.688C143.058 63.436 142.974 63.1 142.974 62.68C142.974 62.2787 143.086 61.9193 143.31 61.602C143.534 61.2847 143.86 61.0373 144.29 60.86C144.728 60.6733 145.26 60.58 145.886 60.58C146.362 60.58 146.838 60.6453 147.314 60.776C147.79 60.8973 148.182 61.0607 148.49 61.266L148.056 62.064C147.729 61.84 147.379 61.6813 147.006 61.588C146.632 61.4853 146.259 61.434 145.886 61.434C145.223 61.434 144.733 61.5507 144.416 61.784C144.108 62.008 143.954 62.2973 143.954 62.652C143.954 62.932 144.038 63.1513 144.206 63.31C144.383 63.4687 144.612 63.5947 144.892 63.688C145.181 63.772 145.494 63.842 145.83 63.898C146.175 63.954 146.516 64.024 146.852 64.108C147.197 64.1827 147.51 64.29 147.79 64.43C148.079 64.5607 148.308 64.752 148.476 65.004C148.653 65.2467 148.742 65.5687 148.742 65.97C148.742 66.3993 148.62 66.7727 148.378 67.09C148.144 67.398 147.799 67.6407 147.342 67.818C146.894 67.986 146.348 68.07 145.704 68.07ZM152.89 68.07C152.199 68.07 151.667 67.8833 151.294 67.51C150.92 67.1367 150.734 66.6093 150.734 65.928V59.026H151.728V65.872C151.728 66.3013 151.835 66.6327 152.05 66.866C152.274 67.0993 152.591 67.216 153.002 67.216C153.44 67.216 153.804 67.09 154.094 66.838L154.444 67.552C154.248 67.7293 154.01 67.86 153.73 67.944C153.459 68.028 153.179 68.07 152.89 68.07ZM149.418 61.476V60.65H153.968V61.476H149.418ZM158.989 68.07C158.28 68.07 157.641 67.9113 157.071 67.594C156.511 67.2673 156.068 66.824 155.741 66.264C155.415 65.6947 155.251 65.046 155.251 64.318C155.251 63.5807 155.415 62.932 155.741 62.372C156.068 61.812 156.511 61.3733 157.071 61.056C157.631 60.7387 158.271 60.58 158.989 60.58C159.717 60.58 160.361 60.7387 160.921 61.056C161.491 61.3733 161.934 61.812 162.251 62.372C162.578 62.932 162.741 63.5807 162.741 64.318C162.741 65.046 162.578 65.6947 162.251 66.264C161.934 66.824 161.491 67.2673 160.921 67.594C160.352 67.9113 159.708 68.07 158.989 68.07ZM158.989 67.188C159.521 67.188 159.993 67.0713 160.403 66.838C160.814 66.5953 161.136 66.2593 161.369 65.83C161.612 65.3913 161.733 64.8873 161.733 64.318C161.733 63.7393 161.612 63.2353 161.369 62.806C161.136 62.3767 160.814 62.0453 160.403 61.812C159.993 61.5693 159.526 61.448 159.003 61.448C158.481 61.448 158.014 61.5693 157.603 61.812C157.193 62.0453 156.866 62.3767 156.623 62.806C156.381 63.2353 156.259 63.7393 156.259 64.318C156.259 64.8873 156.381 65.3913 156.623 65.83C156.866 66.2593 157.193 66.5953 157.603 66.838C158.014 67.0713 158.476 67.188 158.989 67.188ZM172.229 68.07C171.594 68.07 171.02 67.9253 170.507 67.636C169.993 67.3373 169.583 66.9127 169.275 66.362C168.976 65.802 168.827 65.1207 168.827 64.318C168.827 63.5153 168.976 62.8387 169.275 62.288C169.573 61.728 169.979 61.3033 170.493 61.014C171.006 60.7247 171.585 60.58 172.229 60.58C172.929 60.58 173.554 60.7387 174.105 61.056C174.665 61.364 175.103 61.8027 175.421 62.372C175.738 62.932 175.897 63.5807 175.897 64.318C175.897 65.0647 175.738 65.718 175.421 66.278C175.103 66.838 174.665 67.2767 174.105 67.594C173.554 67.9113 172.929 68.07 172.229 68.07ZM168.435 70.716V60.65H169.387V62.862L169.289 64.332L169.429 65.816V70.716H168.435ZM172.159 67.188C172.681 67.188 173.148 67.0713 173.559 66.838C173.969 66.5953 174.296 66.2593 174.539 65.83C174.781 65.3913 174.903 64.8873 174.903 64.318C174.903 63.7487 174.781 63.2493 174.539 62.82C174.296 62.3907 173.969 62.0547 173.559 61.812C173.148 61.5693 172.681 61.448 172.159 61.448C171.636 61.448 171.165 61.5693 170.745 61.812C170.334 62.0547 170.007 62.3907 169.765 62.82C169.531 63.2493 169.415 63.7487 169.415 64.318C169.415 64.8873 169.531 65.3913 169.765 65.83C170.007 66.2593 170.334 66.5953 170.745 66.838C171.165 67.0713 171.636 67.188 172.159 67.188ZM177.923 68V60.65H178.875V62.652L178.777 62.302C178.982 61.742 179.328 61.3173 179.813 61.028C180.298 60.7293 180.9 60.58 181.619 60.58V61.546C181.582 61.546 181.544 61.546 181.507 61.546C181.47 61.5367 181.432 61.532 181.395 61.532C180.62 61.532 180.014 61.77 179.575 62.246C179.136 62.7127 178.917 63.38 178.917 64.248V68H177.923ZM186.487 68.07C185.721 68.07 185.049 67.9113 184.471 67.594C183.892 67.2673 183.439 66.824 183.113 66.264C182.786 65.6947 182.623 65.046 182.623 64.318C182.623 63.59 182.777 62.946 183.085 62.386C183.402 61.826 183.831 61.3873 184.373 61.07C184.923 60.7433 185.539 60.58 186.221 60.58C186.911 60.58 187.523 60.7387 188.055 61.056C188.596 61.364 189.021 61.8027 189.329 62.372C189.637 62.932 189.791 63.5807 189.791 64.318C189.791 64.3647 189.786 64.416 189.777 64.472C189.777 64.5187 189.777 64.57 189.777 64.626H183.379V63.884H189.245L188.853 64.178C188.853 63.646 188.736 63.1747 188.503 62.764C188.279 62.344 187.971 62.0173 187.579 61.784C187.187 61.5507 186.734 61.434 186.221 61.434C185.717 61.434 185.264 61.5507 184.863 61.784C184.461 62.0173 184.149 62.344 183.925 62.764C183.701 63.184 183.589 63.6647 183.589 64.206V64.36C183.589 64.92 183.71 65.4147 183.953 65.844C184.205 66.264 184.55 66.5953 184.989 66.838C185.437 67.0713 185.945 67.188 186.515 67.188C186.963 67.188 187.378 67.1087 187.761 66.95C188.153 66.7913 188.489 66.5487 188.769 66.222L189.329 66.866C189.002 67.258 188.591 67.5567 188.097 67.762C187.611 67.9673 187.075 68.07 186.487 68.07ZM190.947 68V67.342L195.847 61.14L196.057 61.476H191.031V60.65H196.841V61.294L191.955 67.51L191.703 67.174H196.939V68H190.947ZM198.098 68V67.342L202.998 61.14L203.208 61.476H198.182V60.65H203.992V61.294L199.106 67.51L198.854 67.174H204.09V68H198.098ZM208.919 68.07C208.21 68.07 207.57 67.9113 207.001 67.594C206.441 67.2673 205.998 66.824 205.671 66.264C205.344 65.6947 205.181 65.046 205.181 64.318C205.181 63.5807 205.344 62.932 205.671 62.372C205.998 61.812 206.441 61.3733 207.001 61.056C207.561 60.7387 208.2 60.58 208.919 60.58C209.647 60.58 210.291 60.7387 210.851 61.056C211.42 61.3733 211.864 61.812 212.181 62.372C212.508 62.932 212.671 63.5807 212.671 64.318C212.671 65.046 212.508 65.6947 212.181 66.264C211.864 66.824 211.42 67.2673 210.851 67.594C210.282 67.9113 209.638 68.07 208.919 68.07ZM208.919 67.188C209.451 67.188 209.922 67.0713 210.333 66.838C210.744 66.5953 211.066 66.2593 211.299 65.83C211.542 65.3913 211.663 64.8873 211.663 64.318C211.663 63.7393 211.542 63.2353 211.299 62.806C211.066 62.3767 210.744 62.0453 210.333 61.812C209.922 61.5693 209.456 61.448 208.933 61.448C208.41 61.448 207.944 61.5693 207.533 61.812C207.122 62.0453 206.796 62.3767 206.553 62.806C206.31 63.2353 206.189 63.7393 206.189 64.318C206.189 64.8873 206.31 65.3913 206.553 65.83C206.796 66.2593 207.122 66.5953 207.533 66.838C207.944 67.0713 208.406 67.188 208.919 67.188Z" fill="#214B33"/>
<path d="M156 71L287 71" stroke="#214B33"/>
<path d="M144 23L290 23" stroke="#BC0051"/>
<path d="M140.596 17V7.2H144.264C145.095 7.2 145.809 7.33533 146.406 7.606C147.003 7.86733 147.461 8.25 147.778 8.754C148.105 9.24867 148.268 9.85067 148.268 10.56C148.268 11.2507 148.105 11.848 147.778 12.352C147.461 12.8467 147.003 13.2293 146.406 13.5C145.809 13.7707 145.095 13.906 144.264 13.906H141.17L141.632 13.416V17H140.596ZM141.632 13.5L141.17 12.996H144.236C145.216 12.996 145.958 12.786 146.462 12.366C146.975 11.9367 147.232 11.3347 147.232 10.56C147.232 9.776 146.975 9.16933 146.462 8.74C145.958 8.31067 145.216 8.096 144.236 8.096H141.17L141.632 7.606V13.5ZM150.12 17V9.65H151.072V11.652L150.974 11.302C151.18 10.742 151.525 10.3173 152.01 10.028C152.496 9.72933 153.098 9.58 153.816 9.58V10.546C153.779 10.546 153.742 10.546 153.704 10.546C153.667 10.5367 153.63 10.532 153.592 10.532C152.818 10.532 152.211 10.77 151.772 11.246C151.334 11.7127 151.114 12.38 151.114 13.248V17H150.12ZM158.684 17.07C157.918 17.07 157.246 16.9113 156.668 16.594C156.089 16.2673 155.636 15.824 155.31 15.264C154.983 14.6947 154.82 14.046 154.82 13.318C154.82 12.59 154.974 11.946 155.282 11.386C155.599 10.826 156.028 10.3873 156.57 10.07C157.12 9.74333 157.736 9.58 158.418 9.58C159.108 9.58 159.72 9.73867 160.252 10.056C160.793 10.364 161.218 10.8027 161.526 11.372C161.834 11.932 161.988 12.5807 161.988 13.318C161.988 13.3647 161.983 13.416 161.974 13.472C161.974 13.5187 161.974 13.57 161.974 13.626H155.576V12.884H161.442L161.05 13.178C161.05 12.646 160.933 12.1747 160.7 11.764C160.476 11.344 160.168 11.0173 159.776 10.784C159.384 10.5507 158.931 10.434 158.418 10.434C157.914 10.434 157.461 10.5507 157.06 10.784C156.658 11.0173 156.346 11.344 156.122 11.764C155.898 12.184 155.786 12.6647 155.786 13.206V13.36C155.786 13.92 155.907 14.4147 156.15 14.844C156.402 15.264 156.747 15.5953 157.186 15.838C157.634 16.0713 158.142 16.188 158.712 16.188C159.16 16.188 159.575 16.1087 159.958 15.95C160.35 15.7913 160.686 15.5487 160.966 15.222L161.526 15.866C161.199 16.258 160.788 16.5567 160.294 16.762C159.808 16.9673 159.272 17.07 158.684 17.07ZM163.145 17V16.342L168.045 10.14L168.255 10.476H163.229V9.65H169.039V10.294L164.153 16.51L163.901 16.174H169.137V17H163.145ZM170.295 17V16.342L175.195 10.14L175.405 10.476H170.379V9.65H176.189V10.294L171.303 16.51L171.051 16.174H176.287V17H170.295ZM181.116 17.07C180.407 17.07 179.768 16.9113 179.198 16.594C178.638 16.2673 178.195 15.824 177.868 15.264C177.542 14.6947 177.378 14.046 177.378 13.318C177.378 12.5807 177.542 11.932 177.868 11.372C178.195 10.812 178.638 10.3733 179.198 10.056C179.758 9.73867 180.398 9.58 181.116 9.58C181.844 9.58 182.488 9.73867 183.048 10.056C183.618 10.3733 184.061 10.812 184.378 11.372C184.705 11.932 184.868 12.5807 184.868 13.318C184.868 14.046 184.705 14.6947 184.378 15.264C184.061 15.824 183.618 16.2673 183.048 16.594C182.479 16.9113 181.835 17.07 181.116 17.07ZM181.116 16.188C181.648 16.188 182.12 16.0713 182.53 15.838C182.941 15.5953 183.263 15.2593 183.496 14.83C183.739 14.3913 183.86 13.8873 183.86 13.318C183.86 12.7393 183.739 12.2353 183.496 11.806C183.263 11.3767 182.941 11.0453 182.53 10.812C182.12 10.5693 181.653 10.448 181.13 10.448C180.608 10.448 180.141 10.5693 179.73 10.812C179.32 11.0453 178.993 11.3767 178.75 11.806C178.508 12.2353 178.386 12.7393 178.386 13.318C178.386 13.8873 178.508 14.3913 178.75 14.83C178.993 15.2593 179.32 15.5953 179.73 15.838C180.141 16.0713 180.603 16.188 181.116 16.188ZM195.168 17V15.376L195.126 15.11V12.394C195.126 11.7687 194.948 11.288 194.594 10.952C194.248 10.616 193.73 10.448 193.04 10.448C192.564 10.448 192.111 10.5273 191.682 10.686C191.252 10.8447 190.888 11.0547 190.59 11.316L190.142 10.574C190.515 10.2567 190.963 10.014 191.486 9.846C192.008 9.66867 192.559 9.58 193.138 9.58C194.09 9.58 194.822 9.818 195.336 10.294C195.858 10.7607 196.12 11.4747 196.12 12.436V17H195.168ZM192.634 17.07C192.083 17.07 191.602 16.9813 191.192 16.804C190.79 16.6173 190.482 16.3653 190.268 16.048C190.053 15.7213 189.946 15.348 189.946 14.928C189.946 14.5453 190.034 14.2 190.212 13.892C190.398 13.5747 190.697 13.3227 191.108 13.136C191.528 12.94 192.088 12.842 192.788 12.842H195.322V13.584H192.816C192.106 13.584 191.612 13.71 191.332 13.962C191.061 14.214 190.926 14.5267 190.926 14.9C190.926 15.32 191.089 15.656 191.416 15.908C191.742 16.16 192.2 16.286 192.788 16.286C193.348 16.286 193.828 16.16 194.23 15.908C194.64 15.6467 194.939 15.2733 195.126 14.788L195.35 15.474C195.163 15.9593 194.836 16.3467 194.37 16.636C193.912 16.9253 193.334 17.07 192.634 17.07ZM198.82 17V6.612H199.814V17H198.82ZM209.169 17.07C208.469 17.07 207.839 16.9113 207.279 16.594C206.729 16.2767 206.295 15.838 205.977 15.278C205.66 14.7087 205.501 14.0553 205.501 13.318C205.501 12.5713 205.66 11.918 205.977 11.358C206.295 10.798 206.729 10.364 207.279 10.056C207.839 9.73867 208.469 9.58 209.169 9.58C209.813 9.58 210.387 9.72467 210.891 10.014C211.405 10.3033 211.811 10.728 212.109 11.288C212.417 11.8387 212.571 12.5153 212.571 13.318C212.571 14.1113 212.422 14.788 212.123 15.348C211.825 15.908 211.419 16.3373 210.905 16.636C210.401 16.9253 209.823 17.07 209.169 17.07ZM209.239 16.188C209.762 16.188 210.229 16.0713 210.639 15.838C211.059 15.5953 211.386 15.2593 211.619 14.83C211.862 14.3913 211.983 13.8873 211.983 13.318C211.983 12.7393 211.862 12.2353 211.619 11.806C211.386 11.3767 211.059 11.0453 210.639 10.812C210.229 10.5693 209.762 10.448 209.239 10.448C208.726 10.448 208.264 10.5693 207.853 10.812C207.443 11.0453 207.116 11.3767 206.873 11.806C206.631 12.2353 206.509 12.7393 206.509 13.318C206.509 13.8873 206.631 14.3913 206.873 14.83C207.116 15.2593 207.443 15.5953 207.853 15.838C208.264 16.0713 208.726 16.188 209.239 16.188ZM212.011 17V14.788L212.109 13.304L211.969 11.82V6.612H212.963V17H212.011ZM218.854 17.07C218.088 17.07 217.416 16.9113 216.838 16.594C216.259 16.2673 215.806 15.824 215.48 15.264C215.153 14.6947 214.99 14.046 214.99 13.318C214.99 12.59 215.144 11.946 215.452 11.386C215.769 10.826 216.198 10.3873 216.74 10.07C217.29 9.74333 217.906 9.58 218.588 9.58C219.278 9.58 219.89 9.73867 220.422 10.056C220.963 10.364 221.388 10.8027 221.696 11.372C222.004 11.932 222.158 12.5807 222.158 13.318C222.158 13.3647 222.153 13.416 222.144 13.472C222.144 13.5187 222.144 13.57 222.144 13.626H215.746V12.884H221.612L221.22 13.178C221.22 12.646 221.103 12.1747 220.87 11.764C220.646 11.344 220.338 11.0173 219.946 10.784C219.554 10.5507 219.101 10.434 218.588 10.434C218.084 10.434 217.631 10.5507 217.23 10.784C216.828 11.0173 216.516 11.344 216.292 11.764C216.068 12.184 215.956 12.6647 215.956 13.206V13.36C215.956 13.92 216.077 14.4147 216.32 14.844C216.572 15.264 216.917 15.5953 217.356 15.838C217.804 16.0713 218.312 16.188 218.882 16.188C219.33 16.188 219.745 16.1087 220.128 15.95C220.52 15.7913 220.856 15.5487 221.136 15.222L221.696 15.866C221.369 16.258 220.958 16.5567 220.464 16.762C219.978 16.9673 219.442 17.07 218.854 17.07ZM226.505 17.07C225.814 17.07 225.282 16.8833 224.909 16.51C224.536 16.1367 224.349 15.6093 224.349 14.928V8.026H225.343V14.872C225.343 15.3013 225.45 15.6327 225.665 15.866C225.889 16.0993 226.206 16.216 226.617 16.216C227.056 16.216 227.42 16.09 227.709 15.838L228.059 16.552C227.863 16.7293 227.625 16.86 227.345 16.944C227.074 17.028 226.794 17.07 226.505 17.07ZM223.033 10.476V9.65H227.583V10.476H223.033ZM232.001 17.07C231.31 17.07 230.778 16.8833 230.405 16.51C230.032 16.1367 229.845 15.6093 229.845 14.928V8.026H230.839V14.872C230.839 15.3013 230.946 15.6327 231.161 15.866C231.385 16.0993 231.702 16.216 232.113 16.216C232.552 16.216 232.916 16.09 233.205 15.838L233.555 16.552C233.359 16.7293 233.121 16.86 232.841 16.944C232.57 17.028 232.29 17.07 232.001 17.07ZM228.529 10.476V9.65H233.079V10.476H228.529ZM239.971 17V15.376L239.929 15.11V12.394C239.929 11.7687 239.751 11.288 239.397 10.952C239.051 10.616 238.533 10.448 237.843 10.448C237.367 10.448 236.914 10.5273 236.485 10.686C236.055 10.8447 235.691 11.0547 235.393 11.316L234.945 10.574C235.318 10.2567 235.766 10.014 236.289 9.846C236.811 9.66867 237.362 9.58 237.941 9.58C238.893 9.58 239.625 9.818 240.139 10.294C240.661 10.7607 240.923 11.4747 240.923 12.436V17H239.971ZM237.437 17.07C236.886 17.07 236.405 16.9813 235.995 16.804C235.593 16.6173 235.285 16.3653 235.071 16.048C234.856 15.7213 234.749 15.348 234.749 14.928C234.749 14.5453 234.837 14.2 235.015 13.892C235.201 13.5747 235.5 13.3227 235.911 13.136C236.331 12.94 236.891 12.842 237.591 12.842H240.125V13.584H237.619C236.909 13.584 236.415 13.71 236.135 13.962C235.864 14.214 235.729 14.5267 235.729 14.9C235.729 15.32 235.892 15.656 236.219 15.908C236.545 16.16 237.003 16.286 237.591 16.286C238.151 16.286 238.631 16.16 239.033 15.908C239.443 15.6467 239.742 15.2733 239.929 14.788L240.153 15.474C239.966 15.9593 239.639 16.3467 239.173 16.636C238.715 16.9253 238.137 17.07 237.437 17.07ZM246.758 19.786C246.086 19.786 245.442 19.688 244.826 19.492C244.21 19.296 243.711 19.016 243.328 18.652L243.832 17.896C244.178 18.204 244.602 18.4467 245.106 18.624C245.62 18.8107 246.161 18.904 246.73 18.904C247.664 18.904 248.35 18.6847 248.788 18.246C249.227 17.8167 249.446 17.1447 249.446 16.23V14.396L249.586 13.136L249.488 11.876V9.65H250.44V16.104C250.44 17.3733 250.128 18.302 249.502 18.89C248.886 19.4873 247.972 19.786 246.758 19.786ZM246.576 16.72C245.876 16.72 245.246 16.5707 244.686 16.272C244.126 15.964 243.683 15.5393 243.356 14.998C243.039 14.4567 242.88 13.836 242.88 13.136C242.88 12.436 243.039 11.82 243.356 11.288C243.683 10.7467 244.126 10.3267 244.686 10.028C245.246 9.72933 245.876 9.58 246.576 9.58C247.23 9.58 247.818 9.71533 248.34 9.986C248.863 10.2567 249.278 10.658 249.586 11.19C249.894 11.722 250.048 12.3707 250.048 13.136C250.048 13.9013 249.894 14.55 249.586 15.082C249.278 15.614 248.863 16.02 248.34 16.3C247.818 16.58 247.23 16.72 246.576 16.72ZM246.674 15.838C247.216 15.838 247.696 15.726 248.116 15.502C248.536 15.2687 248.868 14.9513 249.11 14.55C249.353 14.1393 249.474 13.668 249.474 13.136C249.474 12.604 249.353 12.1373 249.11 11.736C248.868 11.3347 248.536 11.022 248.116 10.798C247.696 10.5647 247.216 10.448 246.674 10.448C246.142 10.448 245.662 10.5647 245.232 10.798C244.812 11.022 244.481 11.3347 244.238 11.736C244.005 12.1373 243.888 12.604 243.888 13.136C243.888 13.668 244.005 14.1393 244.238 14.55C244.481 14.9513 244.812 15.2687 245.232 15.502C245.662 15.726 246.142 15.838 246.674 15.838ZM253.206 17V6.612H254.2V17H253.206ZM256.966 17V9.65H257.96V17H256.966ZM257.47 8.026C257.265 8.026 257.092 7.956 256.952 7.816C256.812 7.676 256.742 7.508 256.742 7.312C256.742 7.116 256.812 6.95267 256.952 6.822C257.092 6.682 257.265 6.612 257.47 6.612C257.675 6.612 257.848 6.67733 257.988 6.808C258.128 6.93867 258.198 7.102 258.198 7.298C258.198 7.50333 258.128 7.676 257.988 7.816C257.857 7.956 257.685 8.026 257.47 8.026ZM263.722 17.07C263.013 17.07 262.373 16.9113 261.804 16.594C261.244 16.2673 260.801 15.824 260.474 15.264C260.147 14.6947 259.984 14.046 259.984 13.318C259.984 12.5807 260.147 11.932 260.474 11.372C260.801 10.812 261.244 10.3733 261.804 10.056C262.364 9.73867 263.003 9.58 263.722 9.58C264.45 9.58 265.094 9.73867 265.654 10.056C266.223 10.3733 266.667 10.812 266.984 11.372C267.311 11.932 267.474 12.5807 267.474 13.318C267.474 14.046 267.311 14.6947 266.984 15.264C266.667 15.824 266.223 16.2673 265.654 16.594C265.085 16.9113 264.441 17.07 263.722 17.07ZM263.722 16.188C264.254 16.188 264.725 16.0713 265.136 15.838C265.547 15.5953 265.869 15.2593 266.102 14.83C266.345 14.3913 266.466 13.8873 266.466 13.318C266.466 12.7393 266.345 12.2353 266.102 11.806C265.869 11.3767 265.547 11.0453 265.136 10.812C264.725 10.5693 264.259 10.448 263.736 10.448C263.213 10.448 262.747 10.5693 262.336 10.812C261.925 11.0453 261.599 11.3767 261.356 11.806C261.113 12.2353 260.992 12.7393 260.992 13.318C260.992 13.8873 261.113 14.3913 261.356 14.83C261.599 15.2593 261.925 15.5953 262.336 15.838C262.747 16.0713 263.209 16.188 263.722 16.188Z" fill="#BC0051"/>
</svg>
