<svg width="303" height="133" viewBox="0 0 303 133" fill="none" xmlns="http://www.w3.org/2000/svg">
<path d="M109.983 58.7484C91.6962 59.4471 76.8184 75.4066 76.8184 94.3235V122.699C76.8184 127.098 80.3647 130.678 84.7238 130.678C89.0851 130.678 92.632 127.098 92.632 122.699V93.54C92.632 88.3361 94.6949 83.4866 98.4417 79.8861C102.186 76.2897 107.068 74.459 112.256 74.7074C122.202 75.2029 129.993 83.7523 129.993 94.1712V122.699C129.993 127.098 133.539 130.678 137.898 130.678C142.26 130.678 145.806 127.098 145.806 122.699V93.54C145.806 84.0048 142.047 75.0997 135.223 68.4676C128.402 61.8376 119.391 58.3835 109.983 58.7484Z" fill="#9FC530"/>
<path d="M61.0799 61.0461C56.721 61.0461 53.1745 64.6261 53.1745 69.0269V98.1837C53.1745 103.379 51.1171 108.221 47.3811 111.82C43.6515 115.416 38.7418 117.271 33.5998 117.019C23.7908 116.558 15.8118 107.798 15.8118 97.4934V69.0269C15.8118 64.6261 12.2648 61.0461 7.90586 61.0461C3.5469 61.0461 0 64.6261 0 69.0269V98.1837C0 107.708 3.75126 116.605 10.5596 123.234C17.0561 129.561 25.5067 133 34.4776 133C34.9035 133 35.3305 132.993 35.7589 132.977C54.079 132.311 68.9857 116.324 68.9857 97.3396V69.0269C68.9857 64.6261 65.4394 61.0461 61.0799 61.0461Z" fill="#9FC530"/>
<path d="M213.363 114.718H187.207C182.05 114.718 177.247 112.634 173.678 108.852C170.117 105.075 168.293 100.122 168.548 94.9101C169.039 84.8705 177.509 77.0063 187.832 77.0063H213.363C217.723 77.0063 221.269 73.4272 221.269 69.0269C221.269 64.6262 217.723 61.0461 213.363 61.0461H187.207C177.759 61.0461 168.938 64.8395 162.365 71.7274C155.8 78.6104 152.379 87.6582 152.736 97.2044C153.429 115.663 169.241 130.678 187.981 130.678H213.363C217.723 130.678 221.269 127.098 221.269 122.698C221.269 118.297 217.723 114.718 213.363 114.718Z" fill="#9FC530"/>
<path d="M260.337 74.3771C248.599 74.3771 239.052 84.0145 239.052 95.862C239.052 107.709 248.599 117.347 260.337 117.347C272.074 117.347 281.623 107.709 281.623 95.862C281.623 84.0145 272.074 74.3771 260.337 74.3771ZM260.337 131.917C240.64 131.917 224.615 115.743 224.615 95.862C224.615 75.9807 240.64 59.8064 260.337 59.8064C280.034 59.8064 296.058 75.9807 296.058 95.862C296.058 115.743 280.034 131.917 260.337 131.917Z" fill="#C40755"/>
<path d="M269.305 52.1565C268.381 55.4708 268.353 55.5527 265.33 54.4558C256.869 51.385 249.052 47.208 243.091 40.043C238.911 35.0175 236.599 29.1149 236.041 22.4697C235.451 15.4322 236.461 8.57369 238.614 1.84848C238.959 0.773312 239.502 0.495319 240.503 0.822823C247.191 3.0049 253.474 5.95494 258.978 10.5425C264.953 15.5248 268.722 21.9086 270.301 29.6874C271.466 35.4288 271.258 41.2261 270.271 47.0155C269.978 48.7342 269.627 50.4434 269.305 52.1565Z" fill="#9FC530"/>
<path d="M271.667 55.6086C273.4 43.365 279.736 38.7229 286.273 36.6411C293.824 34.1416 301.706 36.6423 302.736 38.6391C303.764 40.6358 301.633 43.7354 300.496 43.617C294.689 43.012 290.576 43.1196 285.426 44.575C280.01 46.1061 274.916 53.8791 273.939 55.9423C273.84 56.1496 273.684 56.7497 273.222 56.5811C273.049 56.5185 272.704 56.3752 272.184 56.2112C272.039 56.1655 271.611 56.0614 271.667 55.6086Z" fill="#5A3114"/>
</svg>
